<svg width="127" height="39" viewBox="0 0 127 39" fill="none" xmlns="http://www.w3.org/2000/svg">
<path d="M58.4805 28L57.1914 23.8984H51.25L49.9609 28H46.3281L52.1992 11.0898H56.3594L62.2422 28H58.4805ZM54.1797 14.3242L52.0117 21.25H56.4297L54.2617 14.3242H54.1797ZM67.5156 28H63.9766V11.0898H67.5156V18.8008H67.6211L73.9727 11.0898H77.9102L71.6523 18.5898L78.3438 28H74.1133L69.0977 20.9336L67.5156 22.832V28ZM94.2578 20.8984C94.2578 23.2031 93.5938 25.0117 92.2656 26.3242C90.9453 27.6367 89.1094 28.293 86.7578 28.293C84.2266 28.293 82.2344 27.5117 80.7812 25.9492C79.3359 24.3867 78.6133 22.2344 78.6133 19.4922C78.6133 16.7891 79.332 14.6641 80.7695 13.1172C82.2148 11.5703 84.1836 10.7969 86.6758 10.7969C88.6445 10.7969 90.3125 11.3281 91.6797 12.3906C93.0469 13.4531 93.8555 14.8398 94.1055 16.5508H90.5547C90.2969 15.668 89.8242 14.9766 89.1367 14.4766C88.457 13.9766 87.6406 13.7266 86.6875 13.7266C85.2891 13.7266 84.1953 14.2305 83.4062 15.2383C82.6172 16.2461 82.2227 17.6484 82.2227 19.4453C82.2227 21.2734 82.6328 22.7148 83.4531 23.7695C84.2812 24.8242 85.4023 25.3516 86.8164 25.3516C87.9727 25.3516 88.9141 25.0273 89.6406 24.3789C90.375 23.7305 90.7617 22.8828 90.8008 21.8359L90.8125 21.5664H87.1328V18.9883H94.2578V20.8984ZM107.805 25.0703V28H96.6016V11.0898H107.805V14.0078H100.141V18.0859H107.371V20.8047H100.141V25.0703H107.805ZM117.836 28.293C115.367 28.293 113.414 27.5156 111.977 25.9609C110.547 24.3984 109.832 22.2578 109.832 19.5391C109.832 16.8281 110.551 14.6953 111.988 13.1406C113.426 11.5781 115.375 10.7969 117.836 10.7969C119.18 10.7969 120.398 11.0625 121.492 11.5938C122.594 12.125 123.477 12.875 124.141 13.8438C124.805 14.8125 125.18 15.918 125.266 17.1602H121.82C121.656 16.1211 121.207 15.2891 120.473 14.6641C119.746 14.0391 118.867 13.7266 117.836 13.7266C116.5 13.7266 115.434 14.25 114.637 15.2969C113.84 16.3438 113.441 17.7539 113.441 19.5273C113.441 21.332 113.836 22.7578 114.625 23.8047C115.414 24.8438 116.488 25.3633 117.848 25.3633C118.895 25.3633 119.773 25.0742 120.484 24.4961C121.195 23.918 121.645 23.1289 121.832 22.1289H125.277C125.082 24.0117 124.312 25.5117 122.969 26.6289C121.625 27.7383 119.914 28.293 117.836 28.293Z" fill="white"/>
<g clip-path="url(#clip0)">
<path d="M0 18.5027C0 10.2628 6.54024 2.4042 15.8056 0.41021C16.8351 0.204947 17.8645 0.0583302 18.9243 -0.000316472C19.1968 -0.0296398 19.2877 0.0290068 19.2877 0.32224C19.2574 0.938029 19.2876 1.58314 19.3179 2.19893C19.3785 2.46284 19.1968 2.69743 18.9546 2.75607C18.5004 2.87337 18.4096 3.1666 18.3793 3.60645C18.3187 5.04329 18.1976 6.45081 18.1068 7.88765C18.1068 8.12224 18.0159 8.23953 17.804 8.29818C17.0167 8.47412 16.2598 8.65006 15.4725 8.88465C15.2606 8.97262 15.0183 8.88465 14.8972 8.67938C13.898 7.47713 12.8685 6.3042 11.839 5.10194C11.6574 4.86735 11.506 4.80871 11.2637 5.01397C10.8701 5.3072 10.204 5.4245 10.1131 5.8057C10.0223 6.15758 10.4462 6.62675 10.6582 7.03728C11.2032 8.06359 11.7179 9.11923 12.2629 10.1455C12.3841 10.3215 12.3538 10.5268 12.1721 10.644C12.1721 10.644 12.1721 10.644 12.1418 10.644C11.4757 11.2598 10.8398 11.8463 10.204 12.4914C10.0526 12.6674 9.81036 12.726 9.59841 12.6087C8.14502 12.0516 6.69163 11.5531 5.26853 10.9959C4.99602 10.8786 4.81434 10.8786 4.69323 11.2012C4.57211 11.5237 4.11793 11.8463 4.23904 12.1689C4.36016 12.4914 4.78406 12.6087 5.08685 12.814C6.14661 13.5471 7.1761 14.2801 8.23586 14.9839C8.41753 15.0719 8.50837 15.3065 8.41753 15.4824C8.1753 16.2155 7.96335 16.9486 7.75139 17.711C7.72112 17.9749 7.47888 18.1508 7.20637 18.1215C5.81355 18.2974 4.39044 18.4734 2.99761 18.6493C2.66454 18.6786 2.60398 18.8252 2.60398 19.0892C2.60398 19.9395 2.57371 19.9395 3.45179 20.1155C4.72351 20.3794 5.96494 20.6433 7.23665 20.8779C7.41833 20.8779 7.56972 21.0245 7.6 21.2004C7.78167 21.9922 7.93307 22.8132 8.14502 23.6049C8.20558 23.8689 8.08446 23.9275 7.93307 24.0155C6.78247 24.7779 5.63187 25.5403 4.451 26.2734C4.17849 26.4493 4.05737 26.5666 4.2996 26.8598C4.78406 27.5343 4.75379 27.5343 5.60159 27.2997C6.75219 26.9771 7.93307 26.6546 9.08367 26.3027C9.29562 26.2147 9.53785 26.2734 9.65896 26.4786C10.2343 27.1531 10.8398 27.8275 11.4454 28.4726C11.5968 28.6192 11.6271 28.8538 11.506 29.0298C10.9004 30.1734 10.3251 31.317 9.71952 32.4606C9.56813 32.6365 9.62868 32.8711 9.78008 33.0177C9.81036 33.0177 9.81036 33.0471 9.84064 33.0471C10.5673 33.6335 10.5673 33.6335 11.2637 33.0471C12.1721 32.2553 13.0805 31.4929 13.9586 30.7012C14.11 30.5253 14.3825 30.4666 14.6247 30.5546C15.5633 30.8771 16.5323 31.141 17.4709 31.4343C17.6829 31.4636 17.8343 31.6395 17.8343 31.8448C17.8948 33.0177 18.0159 34.1907 18.0462 35.3636C18.0462 35.7155 18.2279 36.038 18.5307 36.1847C18.9243 36.4192 19.1363 36.8298 19.0757 37.2403C19.0757 37.7095 19.106 38.1786 19.1363 38.6771C19.1665 38.9704 19.0757 39.029 18.7729 38.9997C11.2032 38.3546 5.60159 34.7185 2.08924 28.1501C0.605578 25.4523 0 22.52 0 18.5027Z" fill="#62708E"/>
<path d="M20.1657 11.6119C20.1355 10.439 20.0749 9.26606 20.0446 8.09313C20.0144 6.39237 19.9841 4.69162 19.9235 2.96155C19.9235 2.55102 20.0749 2.5217 20.408 2.58034C20.953 2.69764 21.4375 3.04952 21.6797 3.51869C22.1339 4.31042 22.4064 5.19012 22.5275 6.09914C22.7092 6.97884 22.7697 7.88786 22.8908 8.82621C23.1028 8.73824 23.1634 8.5623 23.2542 8.41568C24.0414 7.33072 24.8287 6.24576 25.9187 5.39538C26.1912 5.1608 26.5243 4.98486 26.8574 4.83824C27.6143 4.48636 28.5227 4.77959 28.8861 5.51267C28.9466 5.62997 28.9769 5.71794 29.0072 5.83523C29.2797 6.68561 29.1283 7.50666 28.9466 8.35704C28.6741 9.50064 28.2502 10.6443 27.7657 11.6999C27.7052 11.8172 27.6749 11.9345 27.5841 12.1691C28.0383 11.9638 28.4319 11.7879 28.8255 11.6119C30.1881 11.0255 31.5506 10.4683 33.0645 10.2631C33.6398 10.1751 34.2454 10.2044 34.7904 10.3803C35.6988 10.6736 35.9713 11.1721 35.6988 12.0518C35.4869 12.6969 35.0932 13.2834 34.6088 13.7525C33.549 14.7788 32.3379 15.6585 31.0359 16.4209L30.4606 16.7728C31.2175 16.8021 31.8534 16.8315 32.4893 16.8608C33.6701 16.8901 34.8207 17.1247 35.9108 17.5059C36.7586 17.7991 37.4853 18.3563 37.9092 19.1187C38.0303 19.3533 38.0606 19.6465 37.9697 19.8811C37.6972 20.6728 37.0614 21.2886 36.2136 21.4939C35.0024 21.8751 33.761 21.8458 32.5195 21.9044C31.9745 21.9337 31.4295 21.9044 30.8542 21.9044C30.945 22.1683 31.1267 22.1976 31.2478 22.2856C32.5498 23.136 33.8215 24.0157 34.851 25.1886C35.1841 25.5405 35.4263 25.9217 35.608 26.3615C35.9713 27.1533 35.5777 28.0623 34.7904 28.3849C34.7299 28.4142 34.6693 28.4435 34.5785 28.4435C33.9729 28.6194 33.3371 28.6194 32.7012 28.4728C31.157 28.1503 29.7642 27.5052 28.4016 26.8014L27.9474 26.5668C28.3713 27.5052 28.7952 28.3849 29.1586 29.2646C29.6128 30.2615 29.9155 31.3172 30.0669 32.3728C30.1881 33.7803 29.1889 34.5721 27.796 34.1322C27.0391 33.8683 26.3729 33.4285 25.7976 32.8713C24.8287 31.933 23.9506 30.936 23.1634 29.851C23.1028 29.763 23.0725 29.5871 22.8606 29.5578C22.8606 30.6134 22.9211 31.6691 22.8606 32.7247C22.8606 33.6337 22.6789 34.5721 22.3761 35.4224C22.1036 36.0676 21.6797 36.5367 20.953 36.6833C20.2263 36.83 19.8327 36.5367 19.8327 35.833C19.8327 33.3112 19.8327 30.76 19.8327 28.2382C19.8024 28.0623 19.8327 27.8864 19.8932 27.7104C19.9841 27.6224 20.1052 27.5638 20.2263 27.5931C22.3458 27.5638 24.4048 26.8307 26.0701 25.5112C26.5243 25.2766 26.8877 24.9247 27.1299 24.4849C27.9171 23.4879 28.4924 22.3149 28.8255 21.0833C29.5825 17.8578 28.0685 14.5149 25.1012 12.8435C23.7387 12.1397 22.2247 11.7292 20.6502 11.6412C20.4383 11.7292 20.2869 11.7292 20.1657 11.6119Z" fill="#FEF400"/>
</g>
<defs>
<clipPath id="clip0">
<rect width="38" height="39" fill="white"/>
</clipPath>
</defs>
</svg>
