<svg width="82" height="32" viewBox="0 0 82 32" fill="none" xmlns="http://www.w3.org/2000/svg">
<path d="M11.1313 4.29639C12.7872 4.29639 14.3281 4.52632 15.777 5.00919C17.2029 5.49205 18.4448 6.20485 19.5028 7.17058C20.5607 8.1363 21.3656 9.33197 21.9636 10.7806C22.5616 12.2292 22.8376 13.9077 22.8376 15.8621C22.8376 17.5636 22.6076 19.1502 22.1246 20.5758C21.6416 22.0244 20.9057 23.266 19.9397 24.3008C18.9738 25.3585 17.7549 26.1632 16.283 26.7841C14.8341 27.3819 13.1092 27.6808 11.1313 27.6808H0V4.29639H11.1313ZM10.7173 23.358C11.5453 23.358 12.3272 23.2431 13.1092 22.9901C13.8681 22.7602 14.5581 22.3463 15.179 21.7945C15.777 21.2426 16.26 20.5068 16.6279 19.6101C16.9959 18.7133 17.1799 17.6326 17.1799 16.322C17.1799 15.1493 17.0649 14.0686 16.8119 13.1259C16.559 12.1832 16.145 11.3554 15.57 10.6886C14.9951 10.0218 14.2361 9.49292 13.2702 9.12503C12.3272 8.75713 11.1543 8.59618 9.75138 8.59618H5.68064V23.335H10.7173V23.358Z" fill="white"/>
<path d="M28.4033 4.29639V23.358H40.9605V27.7038H22.7227V4.29639H28.4033Z" fill="white"/>
<path d="M54.1616 4.29639H59.4053V8.61917H54.1616" fill="#32BBAF"/>
<path d="M50.7578 4.29639H48.343H32.405V8.61917H42.5933V27.7038H48.274V8.61917H48.343H50.7578H53.4486V4.29639H50.7578Z" fill="white"/>
<path d="M50.2057 20.0239V26.899H54.3914V27.4968H49.4927V20.0239H50.2057Z" fill="white"/>
<path d="M57.6802 20.0239L60.624 27.5198H59.8651L58.9451 25.1975H55.5413L54.6444 27.5198H53.8854L56.8982 20.0239H57.6802ZM58.7151 24.5766L57.2662 20.7367L55.7713 24.5766H58.7151Z" fill="white"/>
<path d="M64.0509 20.0239C64.3729 20.0239 64.6718 20.0469 64.9478 20.1159C65.2468 20.1849 65.4998 20.2769 65.7068 20.4148C65.9368 20.5528 66.0977 20.7367 66.2357 20.9897C66.3737 21.2426 66.4427 21.5185 66.4427 21.8634C66.4427 22.0703 66.4197 22.2543 66.3507 22.4382C66.2817 22.6222 66.1897 22.7831 66.0747 22.9441C65.9597 23.1051 65.8218 23.22 65.6608 23.335C65.4998 23.45 65.3158 23.5189 65.1318 23.5649V23.5879C65.6148 23.6569 66.0057 23.8408 66.2817 24.1858C66.5577 24.5077 66.7187 24.9215 66.7187 25.4274C66.7187 25.5424 66.7187 25.6803 66.6957 25.8413C66.6727 26.0022 66.6267 26.1402 66.5807 26.3012C66.5117 26.4621 66.4197 26.6231 66.3047 26.761C66.1897 26.922 66.0287 27.0599 65.8218 27.1749C65.6148 27.2899 65.3848 27.3819 65.0858 27.4508C64.7868 27.5198 64.4418 27.5658 64.0509 27.5658H60.8771V20.0239H64.0509ZM64.0509 23.312C64.3269 23.312 64.5798 23.289 64.7868 23.22C64.9938 23.151 65.1778 23.0591 65.3158 22.9441C65.4538 22.8291 65.5688 22.6912 65.6378 22.5302C65.7068 22.3693 65.7528 22.2083 65.7528 22.0474C65.7528 21.1046 65.2008 20.6448 64.0739 20.6448H61.613V23.312H64.0509ZM64.0509 26.899C64.3269 26.899 64.5568 26.876 64.8098 26.83C65.0398 26.784 65.2468 26.692 65.4308 26.5771C65.6148 26.4621 65.7528 26.3012 65.8678 26.0942C65.9827 25.8873 66.0287 25.6343 66.0287 25.3354C66.0287 24.8526 65.8678 24.4847 65.5228 24.2547C65.1778 24.0248 64.6948 23.8868 64.0509 23.8868H61.59V26.876H64.0509V26.899Z" fill="white"/>
<path d="M67.9605 26.0022C68.0755 26.2551 68.2595 26.462 68.4895 26.623C68.7195 26.7839 68.9725 26.8759 69.2715 26.9449C69.5704 27.0139 69.8924 27.0369 70.2374 27.0369C70.4444 27.0369 70.6514 27.0139 70.8814 26.9449C71.1113 26.8989 71.3183 26.8069 71.5253 26.669C71.7323 26.554 71.8933 26.393 72.0313 26.1861C72.1693 26.0022 72.2383 25.7722 72.2383 25.4963C72.2383 25.2894 72.1923 25.1054 72.1003 24.9445C72.0083 24.7835 71.8933 24.6685 71.7323 24.5536C71.5713 24.4386 71.4103 24.3696 71.2263 24.3006C71.0424 24.2317 70.8584 24.1857 70.6974 24.1397L69.0185 23.7258C68.8115 23.6798 68.5815 23.6108 68.3745 23.5189C68.1675 23.4269 67.9835 23.3119 67.8455 23.1739C67.6846 23.036 67.5696 22.852 67.4776 22.6681C67.3856 22.4841 67.3396 22.2082 67.3396 21.9323C67.3396 21.7483 67.3856 21.5414 67.4546 21.2885C67.5236 21.0356 67.6616 20.8056 67.8455 20.5987C68.0295 20.3917 68.3055 20.2078 68.6275 20.0468C68.9725 19.8859 69.3865 19.8169 69.9154 19.8169C70.2834 19.8169 70.6284 19.8629 70.9734 19.9549C71.3183 20.0468 71.5943 20.2078 71.8473 20.3917C72.1003 20.5757 72.3073 20.8286 72.4453 21.1275C72.6063 21.4264 72.6752 21.7483 72.6752 22.1392H71.9623C71.9393 21.8633 71.8933 21.6104 71.7783 21.3805C71.6633 21.1735 71.5023 20.9896 71.3183 20.8516C71.1343 20.7136 70.9274 20.5987 70.6744 20.5297C70.4214 20.4607 70.1684 20.4147 69.9154 20.4147C69.6624 20.4147 69.4324 20.4377 69.2025 20.4837C68.9725 20.5297 68.7655 20.6217 68.6045 20.7366C68.4435 20.8516 68.3055 21.0126 68.1905 21.1965C68.0755 21.3805 68.0295 21.6104 68.0295 21.9093C68.0295 22.0933 68.0525 22.2312 68.1215 22.3692C68.1905 22.5071 68.2595 22.5991 68.3745 22.6911C68.4895 22.7831 68.6045 22.852 68.7425 22.921C68.8805 22.967 69.0185 23.013 69.1795 23.059L70.9964 23.5189C71.2723 23.5878 71.5023 23.6798 71.7553 23.7718C71.9853 23.8638 72.1923 24.0017 72.3763 24.1397C72.5603 24.3006 72.6982 24.4846 72.7902 24.6915C72.8822 24.8985 72.9512 25.1744 72.9512 25.4733C72.9512 25.5653 72.9512 25.6802 72.9282 25.8182C72.9052 25.9562 72.8592 26.1171 72.8132 26.2551C72.7442 26.416 72.6522 26.577 72.5373 26.7379C72.4223 26.8989 72.2383 27.0369 72.0313 27.1748C71.8243 27.3128 71.5483 27.4048 71.2493 27.4967C70.9274 27.5657 70.5594 27.6117 70.1224 27.6117C69.6854 27.6117 69.2715 27.5657 68.9035 27.4507C68.5355 27.3358 68.2135 27.1978 67.9375 26.9909C67.6616 26.7839 67.4776 26.508 67.3166 26.1861C67.1786 25.8642 67.1096 25.4733 67.1326 24.9904H67.8455C67.7766 25.4273 67.8226 25.7492 67.9605 26.0022Z" fill="white"/>
<path d="M72.9974 20.024V19.6101H75.4353V20.024H74.5153V22.0474H73.9404V20.024H72.9974ZM76.7232 19.6101L77.4592 21.3576L78.1951 19.6101H79.0001V22.0474H78.4711V20.07L77.6891 22.0474H77.2292L76.4242 20.07V22.0474H75.8953V19.6101H76.7232Z" fill="white"/>
</svg>
