<svg width="2684" height="708" viewBox="0 0 2684 708" fill="none" xmlns="http://www.w3.org/2000/svg">
<g clip-path="url(#clip0)">
<path d="M2682.76 122.588C2682.46 121.588 2682.16 120.588 2681.76 119.588C2444.86 119.688 2208.06 119.588 1971.26 119.688C1970.66 120.388 1970.26 121.088 1970.16 121.988C1970.16 305.688 1970.16 489.287 1970.06 672.988C1971.56 682.787 1976.96 691.687 1984.16 698.388C1984.46 698.488 1985.16 698.585 1985.46 698.687C1989.16 702.585 1994.46 704.488 1999.46 706.287C2003.16 706.088 2006.76 707.687 2010.46 707.287H2304.46C2307.26 707.187 2310.16 707.687 2312.86 706.588C2312.96 706.19 2313.06 705.488 2313.16 705.088C2313.26 704.588 2313.36 703.488 2313.46 702.889C2319.76 667.69 2325.86 632.389 2332.56 597.19L2333.16 592.69C2305.97 592.588 2278.66 592.69 2251.47 592.588C2244.86 592.389 2238.07 592.588 2231.47 591.787C2220.17 591.287 2208.77 591.687 2197.47 590.588C2183.47 590.588 2169.57 589.287 2155.57 589.287C2144.57 588.187 2133.47 588.588 2122.37 588.088C2115.17 587.19 2107.77 587.588 2100.47 587.287C2088.57 585.988 2076.47 586.889 2064.57 585.588C2051.97 585.69 2039.37 584.588 2026.77 584.287C2026.87 584.187 2026.97 583.787 2026.97 583.687C2031.17 583.787 2035.27 583.488 2039.47 583.388C2048.77 582.187 2058.17 582.988 2067.47 581.687C2077.17 581.687 2086.77 580.388 2096.47 580.388C2105.07 579.187 2113.77 579.888 2122.37 578.687C2132.47 578.687 2142.37 577.388 2152.47 577.287C2160.77 576.187 2169.17 576.787 2177.47 575.687C2187.17 575.787 2196.77 574.287 2206.47 574.388C2215.97 573.286 2225.67 573.585 2235.17 572.585C2234.27 568.888 2233.57 565.187 2232.77 561.485C2232.07 559.186 2229.27 559.686 2227.47 559.385C2205.77 556.283 2184.17 553.186 2162.57 550.186C2163.97 549.084 2165.87 549.584 2167.47 549.385C2184.27 548.084 2200.97 546.584 2217.77 545.385C2221.57 545.186 2225.27 544.485 2229.07 544.385C2227.37 539.186 2226.37 533.485 2224.07 528.686C2188.17 523.186 2152.27 518.286 2116.47 512.385C2125.77 510.885 2135.17 510.186 2144.47 509.186L2145.27 508.885C2174.97 505.783 2204.77 502.283 2234.47 499.385C2272.17 499.186 2309.77 499.283 2347.47 499.385C2348.67 499.186 2350.77 499.783 2350.97 498.084C2354.07 481.885 2357.07 465.686 2360.17 449.484C2364.47 426.986 2371.27 404.785 2381.77 384.285C2398.27 351.285 2424.37 323.285 2456.16 304.686C2485.86 287.286 2520.27 278.886 2554.47 277.286C2565.57 276.286 2576.77 276.586 2587.77 277.986C2594.97 279.686 2602.37 281.686 2608.07 286.586C2612.77 290.386 2615.57 295.986 2617.67 301.586C2622.27 314.886 2624.87 328.686 2627.07 342.586C2627.17 348.186 2628.17 354.486 2625.17 359.586C2622.37 364.586 2616.77 366.986 2611.47 368.486C2592.17 373.486 2571.97 368.785 2552.67 373.486C2536.77 376.886 2521.97 385.685 2511.87 398.386C2499.97 413.185 2493.67 431.583 2490.17 449.986C2487.47 466.386 2484.07 482.785 2481.37 499.285C2500.37 499.387 2519.47 499.185 2538.57 499.387C2546.17 499.387 2553.97 503.586 2557.07 510.785C2561.07 519.986 2560.17 530.387 2558.87 540.086C2557.27 550.986 2554.67 561.785 2549.77 571.785C2545.66 580.285 2538.87 588.086 2529.57 591.086C2524.77 592.986 2519.57 592.586 2514.47 592.586C2497.66 592.586 2480.86 592.785 2464.07 592.586C2461.37 604.887 2459.57 617.486 2457.17 629.986C2452.77 654.285 2448.47 678.685 2444.07 703.086C2443.97 703.887 2443.87 705.586 2443.87 706.486C2451.77 706.886 2459.67 706.486 2467.57 706.685C2526.17 706.685 2584.87 706.583 2643.57 706.685C2649.87 706.886 2656.27 705.386 2661.77 702.285C2665.07 701.086 2667.07 698.185 2669.97 696.586C2672.77 694.986 2673.57 691.688 2675.97 689.586C2678.57 684.986 2681.27 680.188 2681.47 674.785C2681.77 674.785 2682.57 674.685 2682.97 674.586C2682.66 490.588 2682.96 306.588 2682.76 122.588Z" fill="url(#paint0_linear)" stroke="#FCD109" stroke-width="0.094"/>
<path d="M2063.37 1.58812C2071.87 -1.11188 2080.77 0.688124 2089.47 0.0881236C2252.77 0.188124 2416.07 0.0881236 2579.37 0.0881236C2589.07 -0.311876 2597.57 5.18813 2606.57 7.98813C2613.77 10.8881 2621.27 13.1881 2628.47 16.2881C2629.97 16.8881 2631.07 18.1881 2632.16 19.2881C2632.06 32.4881 2632.16 45.7881 2632.16 59.0881C2632.27 62.5881 2631.66 66.1881 2632.86 69.5881C2634.97 69.8881 2636.06 71.4881 2637.47 72.7881C2644.07 75.7881 2649.66 80.6881 2655.66 84.6881C2664.66 91.0881 2674.27 96.6881 2683.06 103.288C2683.46 105.888 2683.16 108.588 2682.36 110.988C2681.47 113.788 2682.06 116.788 2681.76 119.588C2444.86 119.688 2208.06 119.588 1971.26 119.688C1970.76 116.388 1971.66 113.088 1970.26 109.988C1970.06 107.388 1969.16 103.988 1971.66 102.188C1981.66 95.1881 1992.26 88.8881 2002.06 81.4881C2008.16 77.5881 2014.06 73.5881 2019.96 69.5881C2021.16 67.5881 2020.76 65.0881 2020.76 62.8881C2020.76 48.3881 2020.76 33.8881 2020.86 19.3881C2024.26 14.9881 2030.16 14.4881 2034.86 12.2881C2044.37 8.68812 2053.97 5.18812 2063.37 1.58812V1.58812ZM2063.97 3.28812C2051.17 8.18812 2038.27 12.8881 2025.47 17.7881C2023.77 18.0881 2022.86 19.5881 2021.97 20.8881C2022.07 21.6881 2022.17 23.0881 2022.17 23.8881C2022.06 35.8881 2022.17 47.8881 2022.06 59.8881C2022.17 62.8881 2021.76 65.8881 2022.86 68.5881C2021.56 69.8881 2020.17 71.1881 2018.56 72.1881C2004.06 81.5881 1990.06 91.7881 1975.56 101.088C1973.06 102.588 1970.26 104.588 1971.06 107.888C1970.56 109.688 1971.46 111.188 1973.36 110.688C2004.76 110.488 2036.06 110.888 2067.47 110.388C2114.17 110.388 2160.77 110.488 2207.47 110.388L2208.17 110.088C2210.27 110.588 2212.36 110.388 2214.56 110.388C2299.16 110.388 2383.76 110.488 2468.46 110.388C2495.06 110.488 2521.76 110.388 2548.46 110.388C2592.46 110.388 2636.56 110.788 2680.56 110.588C2681.86 110.288 2682.26 109.388 2681.76 107.788C2681.66 106.188 2682.26 103.988 2680.56 102.988C2673.56 99.6881 2667.56 94.5881 2660.86 90.5881C2658.47 88.5881 2655.36 87.4881 2653.56 84.7881C2646.66 80.8881 2640.26 76.0881 2633.46 71.7881C2632.16 70.9881 2631.16 69.6881 2630.06 68.5881C2630.66 66.4881 2630.86 64.1881 2630.86 61.9881C2630.76 49.2881 2630.86 36.5881 2630.76 23.8881C2631.06 21.8881 2630.96 19.5881 2629.16 18.2881C2617.16 13.9881 2605.26 9.38813 2593.36 4.98813C2589.66 3.18813 2585.56 2.18812 2581.56 1.58812H2070.46C2068.27 1.68812 2066.17 2.78812 2063.97 3.28812V3.28812Z" fill="#F8F3B5" stroke="#F8F3B5" stroke-width="0.094"/>
<path d="M2022.16 23.8877C2030.96 27.5877 2040.36 29.6877 2049.26 33.2877C2054.06 35.1877 2055.56 40.3877 2057.66 44.5877C2055.56 46.6877 2053.06 48.3877 2050.56 49.9877C2041.36 56.1877 2031.96 62.1877 2022.86 68.5877C2021.76 65.8877 2022.16 62.8877 2022.06 59.8877C2022.16 47.8877 2022.06 35.8877 2022.16 23.8877V23.8877ZM2603.66 33.2877C2612.56 29.7877 2621.86 27.3877 2630.76 23.8877C2630.86 36.5877 2630.76 49.2877 2630.86 61.9877C2630.86 64.1877 2630.66 66.4877 2630.06 68.5877C2622.26 63.1877 2614.36 58.0877 2606.56 52.7877C2602.76 49.9877 2598.56 47.8877 2595.16 44.4877C2597.26 40.2877 2598.86 35.1877 2603.66 33.2877V33.2877Z" fill="#F7B402" stroke="#F7B402" stroke-width="0.094"/>
<path d="M2174.77 37.3882C2185.77 34.7882 2198.07 44.5882 2197.17 56.0882C2197.27 67.3882 2185.36 76.5882 2174.47 73.9882C2170.07 72.4882 2165.86 70.1882 2163.17 66.2882C2159.67 60.9882 2158.86 53.8882 2161.67 48.0882C2163.67 42.4882 2169.07 38.6882 2174.77 37.3882V37.3882ZM2460.07 43.6882C2464.67 38.5882 2471.97 35.6882 2478.77 37.4882C2483.87 38.9882 2488.87 42.2882 2491.07 47.2882C2495.47 55.8882 2492.07 67.4882 2483.47 71.9882C2475.86 76.1882 2466.27 74.1882 2460.47 68.0882C2454.57 61.3882 2454.16 50.3882 2460.07 43.6882V43.6882Z" fill="#BDA727" stroke="#BDA727" stroke-width="0.094"/>
<path d="M2050.57 49.9883C2053.07 48.3883 2055.57 46.6883 2057.67 44.5883L2058.37 45.2883C2059.07 50.4883 2058.57 55.7883 2058.77 60.9883C2058.47 76.5883 2059.07 92.2883 2058.37 107.888C2029.27 107.888 2000.17 107.688 1971.07 107.888C1970.27 104.588 1973.07 102.588 1975.57 101.088C1990.07 91.7883 2004.07 81.5883 2018.57 72.1883C2020.17 71.1883 2021.57 69.8883 2022.87 68.5883C2031.97 62.1883 2041.37 56.1883 2050.57 49.9883V49.9883ZM2594.16 47.9883C2594.16 46.6883 2594.47 45.5883 2595.16 44.4883C2598.56 47.8883 2602.77 49.9883 2606.56 52.7883C2614.36 58.0883 2622.26 63.1883 2630.06 68.5883C2631.16 69.6883 2632.16 70.9883 2633.46 71.7883C2640.26 76.0883 2646.66 80.8883 2653.56 84.7883C2655.36 87.4883 2658.46 88.5883 2660.86 90.5883C2667.56 94.5883 2673.56 99.6883 2680.56 102.988C2682.26 103.988 2681.66 106.188 2681.76 107.788C2652.66 107.888 2623.66 107.688 2594.56 107.888C2594.06 103.888 2594.36 99.8883 2594.26 95.9883C2594.27 79.9883 2594.07 63.9883 2594.16 47.9883V47.9883Z" fill="#F7E62D" stroke="#F7E62D" stroke-width="0.094"/>
<path d="M2681.77 107.788C2652.66 107.888 2623.66 107.688 2594.57 107.888C2594.07 103.888 2594.37 99.8879 2594.27 95.9879C2594.27 79.9879 2594.07 63.9879 2594.16 47.9879C2594.16 46.6879 2594.47 45.5879 2595.16 44.4879C2597.27 40.2879 2598.86 35.1879 2603.66 33.2879C2612.56 29.7879 2621.86 27.3879 2630.77 23.8879C2631.07 21.8879 2630.97 19.5879 2629.16 18.2879C2617.16 13.9879 2605.27 9.38789 2593.36 4.98789C2589.66 3.18789 2585.56 2.18789 2581.56 1.58789H2070.46C2068.26 1.68789 2066.16 2.78789 2063.96 3.28789C2051.16 8.18789 2038.26 12.8879 2025.46 17.7879C2023.76 18.0879 2022.86 19.5879 2021.96 20.8879C2022.06 21.6879 2022.16 23.0879 2022.16 23.8879C2030.96 27.5879 2040.36 29.6879 2049.26 33.2879C2054.06 35.1879 2055.56 40.3879 2057.66 44.5879L2058.36 45.2879C2059.06 50.4879 2058.56 55.7879 2058.76 60.9879C2058.46 76.5879 2059.06 92.2879 2058.36 107.888C2029.26 107.888 2000.16 107.688 1971.06 107.888C1970.56 109.688 1971.46 111.188 1973.36 110.688C2004.76 110.488 2036.06 110.888 2067.46 110.388C2114.16 110.388 2160.76 110.488 2207.46 110.388L2208.16 110.088C2210.26 110.588 2212.36 110.388 2214.56 110.388C2299.16 110.388 2383.76 110.488 2468.46 110.388C2495.06 110.488 2521.76 110.388 2548.46 110.388C2592.46 110.388 2636.56 110.788 2680.56 110.588C2681.87 110.288 2682.27 109.388 2681.77 107.788V107.788ZM2161.67 48.0879C2163.67 42.4879 2169.06 38.6879 2174.77 37.3879C2185.77 34.7879 2198.07 44.5879 2197.17 56.0879C2197.27 67.3879 2185.36 76.5879 2174.47 73.9879C2170.07 72.4879 2165.86 70.1879 2163.17 66.2879C2159.67 60.9879 2158.87 53.8879 2161.67 48.0879ZM2460.07 43.6879C2464.67 38.5879 2471.97 35.6879 2478.77 37.4879C2483.87 38.9879 2488.87 42.2879 2491.07 47.2879C2495.47 55.8879 2492.07 67.4879 2483.47 71.9879C2475.86 76.1879 2466.27 74.1879 2460.47 68.0879C2454.57 61.3879 2454.16 50.3879 2460.07 43.6879Z" fill="url(#paint1_radial)" stroke="#FCD109" stroke-width="0.094"/>
<path d="M2485.55 151.734C2486.95 152.034 2478.26 143.388 2479.96 142.988C2481.56 143.188 2487.63 138.479 2494.96 142.321C2502.3 146.163 2500.48 155.154 2499.65 158.488C2498.66 162.456 2496.13 164.988 2494.13 166.988C2493.03 167.888 2490.56 169.288 2489.06 169.188C2489.96 164.288 2487.06 163.488 2486.86 158.488L2485.55 151.734Z" fill="url(#paint2_linear)" stroke="#FCD109" stroke-width="0.094"/>
<path d="M2165.88 157.155C2165.68 162.155 2162.78 162.955 2163.68 167.855C2162.18 167.955 2159.71 166.555 2158.61 165.655C2156.61 163.655 2154.09 161.123 2153.1 157.155C2152.27 153.822 2150.45 144.831 2157.78 140.988C2165.11 137.145 2171.18 141.854 2172.78 141.655C2174.48 142.055 2165.79 150.701 2167.19 150.401L2165.88 157.155Z" fill="url(#paint3_linear)" stroke="#FCD109" stroke-width="0.094"/>
<path d="M2472.46 215.794C2473.96 214.488 2474.96 214.488 2476.96 214.488C2464.96 240.488 2450.96 266.488 2429.92 286.731C2427.66 288.741 2425.29 290.604 2422.8 292.309C2420.39 294.072 2418.02 295.726 2415.68 297.411C2413.38 299.008 2411.09 300.614 2408.86 302.289C2403.16 305.389 2398.16 309.69 2391.86 311.589C2380.36 317.089 2367.97 320.789 2355.47 323.389C2350.57 324.19 2345.57 325.389 2340.57 325.489C2334.37 327.29 2327.77 325.989 2321.47 326.389C2317.97 326.989 2314.86 324.989 2311.47 325.389C2308.52 324.972 2305.57 324.472 2302.65 323.888C2299.68 323.282 2296.73 322.582 2293.81 321.789C2247.96 307.488 2202.96 272.488 2189.85 225.153C2189.26 221.965 2188.97 218.73 2188.96 215.488C2190.36 218.288 2191.81 221.068 2193.32 223.822C2211.96 264.488 2248.96 296.488 2292.68 306.137C2296.22 307.755 2300.06 307.188 2303.47 308.588C2306.57 308.588 2309.57 308.488 2312.57 309.488C2322.87 309.687 2333.17 309.588 2343.47 309.588C2344.86 309.688 2346.16 308.988 2347.57 308.688C2364.73 308.106 2381.55 303.424 2397.21 296.324C2400.35 294.904 2403.43 293.387 2406.47 291.787C2409.12 290.39 2411.71 288.876 2414.23 287.249C2416.71 285.653 2419.12 283.953 2421.45 282.153C2439.96 267.488 2455.96 248.488 2466.83 226.639C2468.9 222.707 2470.79 219.066 2472.46 215.794Z" fill="#BDA727" stroke="#BDA727" stroke-width="0.094"/>
<path d="M2456.16 304.688C2485.86 287.288 2520.26 278.888 2554.46 277.288C2565.56 276.288 2576.76 276.588 2587.76 277.988C2594.96 279.688 2602.36 281.688 2608.06 286.588C2605.16 286.788 2602.36 285.488 2599.46 285.088C2591.26 283.488 2582.76 284.088 2574.46 283.888C2550.36 283.888 2526.06 285.788 2502.76 292.388C2490.56 296.088 2478.36 300.388 2467.26 306.788C2448.06 317.388 2430.76 331.388 2416.76 348.188C2391.76 376.889 2377.06 413.288 2369.96 450.389C2366.56 470.287 2362.66 490.086 2359.56 510.086C2354.56 510.586 2349.46 510.287 2344.46 510.287C2322.46 510.187 2300.46 510.086 2278.46 509.889C2273.76 510.086 2269.16 508.989 2264.46 509.287C2224.46 509.486 2184.46 509.187 2144.46 509.187L2145.26 508.886C2174.96 505.784 2204.76 502.284 2234.46 499.386C2272.16 499.187 2309.76 499.284 2347.46 499.386C2348.66 499.187 2350.76 499.784 2350.96 498.085C2354.06 481.886 2357.06 465.687 2360.16 449.485C2364.46 426.988 2371.26 404.787 2381.76 384.287C2398.26 351.287 2424.36 323.287 2456.16 304.688Z" fill="#0D69B3" stroke="#0D69B3" stroke-width="0.094"/>
<path d="M2502.77 292.388C2526.07 285.788 2550.37 283.888 2574.47 283.888C2582.77 284.088 2591.27 283.488 2599.47 285.088C2602.36 285.488 2605.16 286.788 2608.07 286.588C2612.77 290.388 2615.57 295.988 2617.67 301.588C2622.27 314.888 2624.87 328.688 2627.07 342.588C2627.17 348.188 2628.17 354.488 2625.17 359.588C2622.37 364.588 2616.77 366.988 2611.47 368.488C2592.17 373.488 2571.97 368.787 2552.67 373.488C2536.77 376.888 2521.97 385.687 2511.87 398.388C2499.97 413.187 2493.67 431.585 2490.17 449.988C2487.47 466.388 2484.07 482.787 2481.37 499.287C2480.17 502.988 2479.47 506.988 2478.77 510.889C2497.66 511.19 2516.57 510.889 2535.47 511.088C2542.66 510.889 2549.86 511.287 2557.07 510.787C2561.07 519.988 2560.17 530.389 2558.87 540.088C2557.27 550.988 2554.67 561.787 2549.77 571.787C2545.66 580.287 2538.87 588.088 2529.57 591.088C2524.77 592.988 2519.57 592.588 2514.47 592.588C2497.66 592.588 2480.86 592.787 2464.07 592.588C2461.37 604.889 2459.57 617.488 2457.17 629.988C2452.77 654.287 2448.47 678.687 2444.07 703.088C2443.97 703.889 2443.87 705.588 2443.87 706.488V706.588C2400.17 706.588 2356.57 706.69 2312.87 706.588C2312.97 706.19 2313.07 705.488 2313.17 705.088C2313.27 704.588 2313.37 703.488 2313.47 702.889C2313.57 703.69 2313.67 705.19 2313.77 705.889C2316.47 706.19 2321.37 707.588 2322.07 703.69C2328.87 666.889 2335.17 629.889 2342.17 593.088C2339.47 592.488 2336.67 592.488 2333.87 592.988C2333.47 594.388 2333.07 595.787 2332.57 597.187L2333.17 592.687C2305.97 592.585 2278.67 592.687 2251.47 592.585C2244.87 592.388 2238.07 592.585 2231.47 591.786C2220.17 591.286 2208.77 591.686 2197.47 590.585C2183.47 590.585 2169.57 589.286 2155.57 589.286C2144.57 588.186 2133.47 588.585 2122.37 588.085C2115.17 587.187 2107.77 587.585 2100.47 587.286C2088.57 585.985 2076.47 586.888 2064.57 585.585C2051.97 585.687 2039.37 584.585 2026.77 584.286C2026.87 584.186 2026.97 583.786 2026.97 583.686C2031.17 583.786 2035.27 583.485 2039.47 583.385C2048.77 582.186 2058.17 582.985 2067.47 581.686C2077.17 581.686 2086.77 580.385 2096.47 580.385C2105.07 579.186 2113.77 579.885 2122.37 578.686C2132.47 578.686 2142.37 577.385 2152.47 577.286C2160.77 576.186 2169.17 576.786 2177.47 575.686C2187.17 575.786 2196.77 574.286 2206.47 574.385C2215.97 573.283 2225.67 573.584 2235.17 572.584C2234.27 568.885 2233.57 565.186 2232.77 561.484C2232.07 559.183 2229.27 559.683 2227.47 559.384C2205.77 556.282 2184.17 553.183 2162.57 550.183C2163.97 549.081 2165.87 549.581 2167.47 549.384C2184.27 548.081 2200.97 546.581 2217.77 545.384C2221.57 545.183 2225.27 544.484 2229.07 544.384C2227.37 539.183 2226.37 533.484 2224.07 528.683C2188.17 523.183 2152.27 518.283 2116.47 512.384C2125.77 510.884 2135.17 510.183 2144.47 509.183C2184.47 509.183 2224.47 509.484 2264.47 509.283C2269.17 508.984 2273.77 510.084 2278.47 509.885C2300.47 510.084 2322.47 510.186 2344.47 510.283C2349.47 510.283 2354.57 510.584 2359.57 510.084C2362.67 490.084 2366.57 470.283 2369.97 450.385C2377.07 413.283 2391.77 376.885 2416.77 348.186C2430.77 331.385 2448.07 317.385 2467.27 306.785C2478.37 300.388 2490.57 296.088 2502.77 292.388Z" fill="#107BD4" stroke="#107BD4" stroke-width="0.094"/>
<path d="M2481.36 499.287C2500.36 499.389 2519.47 499.187 2538.56 499.389C2546.16 499.389 2553.96 503.588 2557.06 510.787C2549.86 511.287 2542.66 510.889 2535.46 511.088C2516.56 510.889 2497.66 511.19 2478.76 510.889C2479.46 506.988 2480.16 502.988 2481.36 499.287V499.287ZM2333.86 592.988C2336.66 592.488 2339.47 592.488 2342.16 593.088C2335.16 629.889 2328.86 666.889 2322.06 703.69C2321.36 707.588 2316.46 706.19 2313.76 705.889C2313.66 705.19 2313.56 703.69 2313.46 702.889C2319.76 667.69 2325.86 632.389 2332.56 597.19C2333.06 595.787 2333.46 594.389 2333.86 592.988Z" fill="#0D69B3" stroke="#0D69B3" stroke-width="0.094"/>
<path d="M2490.11 154.534C2489.31 153.034 2489.21 151.234 2489.21 149.534L2488.41 149.634C2487.21 145.234 2483.51 141.034 2478.71 140.834C2475.11 140.534 2470.61 140.634 2468.51 144.034C2464.51 149.434 2466.41 156.334 2466.21 162.434C2466.21 162.834 2466.31 163.534 2466.31 163.934C2466.31 168.034 2465.81 172.034 2465.11 176.034C2464.51 177.234 2464.21 178.534 2464.21 179.934C2462.52 189.334 2459.11 198.634 2454.52 207.134C2453.62 208.334 2452.91 209.634 2452.62 211.034C2449.62 216.234 2446.02 221.034 2442.32 225.834C2441.71 226.334 2441.21 226.934 2440.71 227.534C2438.11 230.734 2435.32 233.434 2432.41 236.234C2431.71 236.634 2431.21 237.134 2430.61 237.534C2427.21 240.834 2423.41 243.934 2419.31 246.434C2418.81 246.734 2418.31 247.134 2417.71 247.534C2392.11 264.434 2361.01 271.434 2330.71 271.734C2305.01 272.534 2279.11 267.034 2255.91 255.934C2255.51 255.734 2254.51 255.334 2254.11 255.134C2250.21 253.034 2246.21 251.234 2242.61 248.634C2241.81 248.234 2241.01 247.734 2240.11 247.334C2236.41 245.134 2232.91 242.734 2229.61 239.934C2228.51 238.934 2227.31 238.134 2226.11 237.234C2222.51 234.334 2218.81 231.234 2215.71 227.734C2214.91 226.834 2214.11 226.034 2213.31 225.234C2202.42 213.934 2193.92 200.134 2189.42 185.134C2185.11 173.234 2185.72 160.234 2185.22 147.734C2181.61 142.234 2174.02 139.134 2168.02 142.534C2165.52 144.334 2165.22 147.634 2163.32 149.934C2160.22 182.934 2174.32 215.834 2196.82 239.634C2196.82 240.434 2197.22 240.934 2197.92 241.234C2201.92 244.934 2205.82 248.734 2209.82 252.334C2210.52 253.034 2211.32 253.734 2212.22 254.334C2216.22 257.634 2220.52 260.634 2224.72 263.734C2225.52 264.334 2226.32 264.834 2227.22 265.334C2232.72 268.534 2237.91 272.334 2243.82 274.534C2244.22 274.834 2244.92 275.334 2245.32 275.534C2264.32 284.634 2284.82 290.834 2305.82 292.834C2308.12 292.834 2310.42 293.034 2312.72 293.534C2322.72 294.134 2332.72 293.834 2342.72 293.634C2373.61 290.934 2405.52 283.434 2431.32 265.234L2431.62 265.634C2432.42 264.934 2433.12 264.334 2433.92 263.734C2438.02 260.734 2442.02 257.534 2446.02 254.234C2446.92 253.534 2447.92 252.734 2448.82 251.834C2453.22 247.034 2458.32 242.634 2462.02 237.134L2462.62 237.434C2462.92 236.934 2463.42 235.934 2463.72 235.434C2467.12 230.834 2470.22 226.034 2473.22 221.234C2473.42 220.934 2473.92 220.434 2474.12 220.134L2473.72 219.734C2474.02 219.334 2474.72 218.534 2475.02 218.134C2480.52 206.934 2485.42 195.234 2487.12 182.834C2487.82 182.534 2488.22 181.934 2488.22 181.234C2488.32 177.234 2489.72 173.434 2489.32 169.434C2490.21 164.534 2490.31 159.534 2490.11 154.534V154.534Z" fill="white" stroke="white" stroke-width="0.094"/>
<path d="M2492.3 149.156C2476.61 150.095 2461.89 144.728 2447.63 139.823M2155.63 151.156C2163.74 153.699 2182.36 147.301 2187.63 153.156L2155.63 151.156ZM2160.3 175.822C2168.07 173.119 2184.72 166.719 2191.63 170.489L2160.3 175.822ZM2168.3 200.489C2172.05 201.705 2179.46 195.108 2183.13 193.175C2188.6 190.298 2194.21 188.093 2200.3 187.156L2168.3 200.489ZM2180.3 226.489C2184.17 220.985 2188.81 216.414 2194.4 212.504C2199.95 208.63 2215.12 198.279 2221.63 201.822L2180.3 226.489ZM2191.63 245.156C2196.03 241.661 2197.82 235.479 2202.43 231.807C2208.02 227.365 2216.57 226.568 2222.3 223.822L2191.63 245.156ZM2210.46 258.988C2211.78 249.32 2221.6 237.653 2230.96 238.488L2210.46 258.988ZM2224.96 272.489C2229.91 271.993 2234.1 260.913 2237.45 257.158C2242.47 251.533 2247.66 249.803 2254.3 247.822L2224.96 272.489ZM2253.63 284.489C2253.31 277.493 2260.54 257.434 2268.96 258.489L2253.63 284.489ZM2274.96 291.156C2274.61 282.888 2278.89 258.019 2288.96 257.156L2274.96 291.156ZM2296.96 304.489C2295.05 292.927 2295.18 276.201 2304.3 267.822L2296.96 304.489ZM2324.3 307.156C2323.28 297.518 2313.7 278.035 2324.3 270.489V307.156ZM2353.63 300.489C2349.06 295.188 2346.4 274.278 2348.3 268.489L2353.63 300.489ZM2381.63 295.822C2378.1 289.419 2373.73 283.406 2372.4 275.973C2371.6 271.531 2373 265.203 2372.3 261.822L2381.63 295.822ZM2404.96 285.822C2397.32 280.819 2395.19 262.431 2397.63 254.489L2404.96 285.822ZM2427.63 275.822C2422.19 264.151 2416.39 255.102 2416.3 241.822L2427.63 275.822ZM2449.63 254.489C2441.18 248.802 2430.39 238.464 2431.63 227.156L2449.63 254.489ZM2472.96 236.489C2460.12 233.643 2444.7 222.15 2436.96 211.822L2472.96 236.489ZM2483.63 214.489C2474.36 212.502 2443.75 200.557 2445.63 188.489L2483.63 214.489ZM2493.63 191.156C2480.72 186.423 2461.94 182.168 2451.63 173.156L2493.63 191.156ZM2500.3 169.822C2492.16 170.518 2480.51 166.581 2472.25 165.155C2463.07 163.572 2454.56 160.479 2445.63 158.488L2500.3 169.822Z" stroke="#D1D1D1" stroke-width="2"/>
<path d="M485.341 197.238C499.834 195.051 516.511 193.684 528.814 202.706C536.469 208.446 539.203 218.835 538.656 228.133C539.203 243.443 532.095 259.848 518.427 267.778C506.395 274.34 491.906 274.884 478.507 273.518C469.485 272.426 460.463 267.506 455.815 259.303C445.423 235.516 458.274 201.886 485.341 197.238ZM51.7122 214.463C52.5312 206.26 59.9142 198.878 68.3892 199.153C131.549 199.153 194.433 199.425 257.318 199.153C264.153 198.606 271.536 201.612 274.815 207.627C279.462 215.83 275.362 224.852 274.815 233.329C272.903 244.81 273.448 260.123 260.053 264.496C214.119 265.863 168.185 264.496 122.251 265.043C117.877 294.023 113.776 322.731 109.4 351.439C109.4 352.533 109.675 354.996 109.675 356.086C143.304 355.814 176.933 356.086 210.562 355.814C219.859 355.267 229.7 363.199 228.88 373.039C228.061 383.156 225.873 392.998 224.507 403.115C223.411 409.949 217.944 416.238 210.835 417.605C173.377 418.425 135.372 416.785 97.9182 418.425C91.9012 459.71 84.7922 500.993 78.5032 542.28C77.6852 550.483 71.1212 557.591 62.9192 557.862C47.3364 558.137 31.75 558.137 16.1672 557.862C6.05124 558.137 -2.15182 546.923 0.581177 537.355C17.2642 429.636 34.4882 322.188 51.7122 214.463V214.463ZM329.496 199.697C343.715 198.605 358.204 199.425 372.423 199.153C381.173 198.606 389.922 205.44 390.74 214.463C390.74 221.57 388.826 228.68 388.007 235.788C376.523 309.063 364.767 382.338 353.282 455.612C351.642 467.368 348.635 479.944 352.19 491.975C356.291 504.004 374.607 498.808 378.983 511.384C381.717 521.501 378.708 532.164 377.888 542.555C377.069 556.225 361.484 559.231 350.823 562.243C327.584 566.616 299.42 563.335 282.742 544.194C270.712 530.253 269.891 510.565 272.354 493.069C286.844 400.11 301.334 307.151 316.1 213.916C316.921 207.08 322.388 200.792 329.496 199.697V199.697ZM872.217 214.463C873.035 206.26 880.419 199.153 888.621 199.153H930.18C940.569 198.878 949.047 210.089 946.585 219.93C937.016 280.628 927.174 341.326 917.605 402.02C932.095 399.834 948.501 397.1 958.617 385.344C975.566 366.203 989.513 344.061 999.901 320.821C1003.45 311.797 1005.37 298.674 1017.13 297.033C1032.71 296.486 1048.57 296.759 1064.15 297.033C1074.82 296.759 1082.74 308.789 1079.19 318.631C1075.09 333.125 1068.25 346.52 1061.15 359.371C1045.29 385.072 1027.79 410.498 1004.82 430.73C1014.94 461.078 1027.79 490.607 1039 520.41C1042.28 530.252 1050.21 541.734 1042.83 551.306C1034.35 562.788 1018.49 557.043 1006.74 558.41C994.432 557.043 976.661 563.332 969.825 549.389C956.974 519.586 946.313 488.968 933.187 459.165C925.532 459.436 917.604 459.712 909.947 458.892C909.403 459.986 908.308 462.171 907.76 463.267C903.658 490.607 899.285 517.949 894.909 545.288C893.268 551.85 888.073 557.592 880.966 558.139C866.476 558.686 851.711 558.41 836.947 558.41C830.657 558.41 824.917 554.31 822.182 548.842C819.448 543.371 821.087 537.087 821.911 531.072C838.86 425.535 855.538 319.998 872.217 214.463V214.463ZM1632.03 244.265C1633.94 236.607 1641.32 231.414 1648.98 231.686C1659.92 231.961 1671.12 231.414 1682.33 231.961C1691.36 232.233 1698.46 241.256 1697.37 250.005C1695.73 265.59 1691.9 281.175 1690.81 296.757C1701.47 296.757 1712.41 296.485 1723.07 296.757C1732.64 296.757 1740.57 306.601 1738.93 315.895C1737.56 324.374 1735.65 332.577 1734.28 341.049C1732.91 348.16 1726.9 353.901 1720.06 354.994C1706.94 355.814 1694.09 354.447 1681.24 355.814C1675.77 392.449 1669.76 429.084 1664.01 465.725C1663.19 474.2 1662.65 483.769 1667.57 491.152C1674.95 500.175 1687.8 496.892 1698.19 497.988C1706.39 500.447 1711.59 509.472 1710.22 517.676C1708.85 526.969 1708.58 536.266 1706.39 545.287C1703.11 555.402 1691.36 557.318 1682.33 559.777C1657.45 566.341 1628.74 566.341 1606.6 551.849C1586.09 537.904 1582.81 510.837 1585 487.87C1590.74 443.577 1599.76 399.559 1604.68 354.993C1597.03 355.265 1587.73 356.36 1581.99 349.524C1575.43 342.69 1578.71 332.573 1579.8 324.095C1581.45 315.073 1581.17 303.317 1591.02 298.395C1598.94 295.386 1607.97 297.576 1616.44 296.481C1621.64 278.986 1626.56 261.489 1632.03 244.265V244.265ZM1477.55 332.848C1494.77 315.623 1515.55 301.406 1539.34 294.299C1549.73 289.65 1563.13 298.4 1562.85 309.883C1560.94 324.921 1557.38 339.683 1554.92 354.447C1553.83 361.83 1547.54 368.119 1540.16 368.939C1513.36 373.585 1490.12 389.714 1471.53 408.855C1466.89 414.599 1460.05 420.066 1459.23 427.994C1453.49 466.271 1447.47 504.549 1441.46 542.826C1440.64 551.027 1433.53 558.959 1425.05 558.412H1383.49C1373.93 558.959 1365.45 549.39 1366.54 539.819C1378.57 464.083 1390.61 388.625 1402.36 312.888C1402.91 305.234 1408.38 297.852 1416.3 297.031C1426.42 296.484 1436.54 296.757 1446.93 296.757C1455.13 296.757 1462.78 304.139 1462.78 312.616C1462.78 324.372 1461.69 336.401 1461.42 348.431C1467.98 344.333 1472.08 337.77 1477.55 332.848V332.848ZM455.539 298.125C470.303 295.119 485.614 297.58 500.378 296.758C508.855 295.666 517.877 301.133 519.243 309.61C520.339 317.264 518.148 324.647 517.328 332.03C506.12 402.298 494.908 472.563 483.972 542.829C483.152 550.761 476.593 558.688 468.115 558.413C453.352 558.413 438.587 558.688 423.551 558.142C414.254 557.046 407.418 546.386 409.88 537.361C421.637 464.363 432.848 391.634 444.604 318.632C445.151 310.703 447.338 301.406 455.539 298.125V298.125ZM1340.3 301.682C1299.56 294.024 1258 288.556 1216.71 292.657C1179.8 297.306 1142.62 313.985 1119.93 344.333C1088.49 384.25 1077.82 437.84 1084.93 487.602C1088.76 511.387 1099.15 535.448 1118.56 550.211C1136.6 564.156 1160.94 566.068 1182.81 562.514C1213.43 556.498 1239.41 536.816 1260.73 514.941C1261.83 524.236 1259.64 533.533 1260.19 542.556C1260.73 551.029 1268.39 558.959 1276.86 558.412H1304.75C1312.96 558.412 1319.79 550.76 1320.34 542.828C1332.09 468.734 1343.85 394.912 1355.33 321.093C1356.97 311.796 1349.59 302.774 1340.3 301.682V301.682ZM1263.47 430.457C1252.53 450.963 1237.22 469.555 1219.99 485.41C1210.15 493.613 1197.57 502.09 1184.18 499.357C1171.06 496.623 1164.77 482.952 1161.76 471.194C1154.93 440.573 1161.21 407.216 1178.44 380.697C1186.09 368.391 1198.4 359.097 1212.61 355.268C1232.57 350.346 1253.63 352.807 1273.04 358.275L1274.13 359.371C1271.67 383.156 1267.02 406.67 1263.47 430.457V430.457ZM803.592 389.446C803.317 362.104 795.936 333.397 776.798 312.89C763.675 298.4 743.988 291.018 724.85 291.289C693.133 290.198 663.332 305.783 640.093 326.56C634.896 330.663 631.343 336.678 625.603 339.958C625.603 330.933 626.422 321.912 626.147 312.617C626.422 304.139 618.492 296.758 610.29 296.758H582.401C573.654 296.758 566.544 304.415 565.997 312.889C548.772 422.254 531.276 531.618 514.05 640.983C511.591 651.098 520.341 661.489 530.73 661.215C546.04 660.942 561.625 662.308 576.662 660.118C588.693 656.837 588.418 642.894 590.333 632.779C594.706 608.718 597.716 584.658 600.449 560.324C654.311 570.713 716.922 563.607 757.113 522.867C789.921 487.053 805.231 437.565 803.592 389.446V389.446ZM727.037 417.059C725.398 442.213 716.374 467.641 698.877 485.957C676.185 507.559 641.732 504.549 613.845 497.17C613.301 496.348 612.478 494.707 612.205 493.889C616.579 470.102 618.767 446.041 624.236 422.528C639.547 397.376 658.137 371.946 684.658 358.004C694.501 353.357 707.898 354.45 715.007 363.473C727.037 378.51 728.131 398.742 727.037 417.059V417.059Z" fill="#5CABED" stroke="#5CABED" stroke-width="0.101"/>
</g>
<defs>
<linearGradient id="paint0_linear" x1="2326.51" y1="119.587" x2="2326.51" y2="707.352" gradientUnits="userSpaceOnUse">
<stop stop-color="#F7E830"/>
<stop offset="1" stop-color="#FDCB06"/>
</linearGradient>
<radialGradient id="paint1_radial" cx="0" cy="0" r="1" gradientUnits="userSpaceOnUse" gradientTransform="translate(2323.45 387.666) scale(478.08)">
<stop offset="0.596" stop-color="#F29405"/>
<stop offset="0.736" stop-color="#F7D01E"/>
<stop offset="1" stop-color="#FDCB06"/>
</radialGradient>
<linearGradient id="paint2_linear" x1="2490.06" y1="140.8" x2="2490.23" y2="168.633" gradientUnits="userSpaceOnUse">
<stop stop-color="#FADA1C"/>
<stop offset="1" stop-color="#FDCB06"/>
</linearGradient>
<linearGradient id="paint3_linear" x1="2162.68" y1="139.467" x2="2162.51" y2="167.3" gradientUnits="userSpaceOnUse">
<stop stop-color="#FADA1C"/>
<stop offset="1" stop-color="#FDCB06"/>
</linearGradient>
<clipPath id="clip0">
<rect width="2683.29" height="707.398" fill="white"/>
</clipPath>
</defs>
</svg>
