<svg width="1000" height="289" viewBox="0 0 1000 289" fill="none" xmlns="http://www.w3.org/2000/svg">
<g clip-path="url(#clip0_215_2)">
<path d="M909.438 159.14C920.348 159.14 929.513 163.186 935.311 171.677H935.578V161.166H949.594V235.826H935.578V224.236H935.311C930.052 233.127 920.615 237.712 909.971 237.712C888.144 237.712 870.355 221.27 870.355 199.709C870.355 175.855 887.47 159.14 909.438 159.14V159.14ZM686.602 159.14C707.216 159.14 726.624 175.316 726.358 199.036C726.085 219.371 708.721 238.442 684.119 237.687C663.256 237.052 645.525 219.123 645.766 198.255C646.033 175.741 663.866 159.14 686.602 159.14V159.14ZM799.538 159.14C811.941 159.14 822.045 167.771 822.451 180.974H808.435C807.762 175.589 804.663 171.95 798.864 171.95C793.473 171.95 790.107 175.589 790.107 179.895C790.107 186.233 796.584 188.119 803.989 190.411C814.5 193.644 824.204 199.976 824.204 213.859C824.204 228.275 813.687 237.712 799.137 237.712C785.661 237.712 772.718 228.548 772.718 211.293H786.741C787.414 220.33 791.993 224.909 799.404 224.909C805.876 224.909 810.188 220.73 810.188 214.665C810.188 209.546 806.282 206.18 797.518 203.348C779.19 197.55 776.09 189.599 776.09 181.108C776.09 167.898 787.274 159.14 799.538 159.14V159.14ZM566.572 136.1C574.314 136.1 580.588 142.374 580.588 150.116V169.117H580.861C585.307 162.512 592.451 159.147 601.749 159.147C619.537 159.147 632.88 170.464 632.88 190.951V235.826H618.864V195.263C618.864 179.228 612.666 171.95 600.269 171.95C587.999 171.95 580.588 180.841 580.588 195.397V235.826H566.572L566.572 136.1ZM756.276 136.1V161.166H768.546V173.969H756.27V235.826C748.534 235.826 742.254 229.551 742.254 221.81V173.969H736.468V161.166H742.254V136.1H756.27H756.276ZM853.633 136.1V161.166H865.903V173.969H853.64V235.826C845.898 235.826 839.624 229.551 839.624 221.81V173.969H833.832V161.166H839.624V136.1H853.64H853.633ZM1000 159.147V173.563C987.87 173.969 981.671 181.374 981.671 193.917V221.81C981.671 229.551 975.397 235.826 967.655 235.826V161.166H980.732V167.898H980.998C984.364 162.919 990.163 159.686 1000 159.147H1000ZM685.929 171.95C669.855 171.95 656.258 187.541 660.595 204.917C663.542 216.697 674.281 225.233 686.424 224.903C700.758 224.502 712.335 213.052 712.335 198.229C712.335 183.667 700.612 171.95 685.929 171.95ZM909.838 171.95C895.04 171.95 883.101 185.312 884.473 201.1C885.61 214.119 896.247 224.642 909.304 224.903C924.114 225.201 935.851 212.95 935.851 198.629C935.851 184.073 925.334 171.95 909.838 171.95Z" fill="white"/>
<path d="M376.179 186.929C368.812 188.617 349.423 189.589 349.423 189.589L346.968 197.263C346.968 197.263 356.636 196.444 363.696 197.161C363.696 197.161 365.998 196.905 366.254 199.77C366.356 202.43 366.049 205.295 366.049 205.295C366.049 205.295 365.896 207.034 363.44 207.443C360.78 207.904 342.568 208.569 342.568 208.569L339.601 218.544C339.601 218.544 338.527 220.847 340.982 220.181C343.284 219.568 362.366 215.987 364.873 216.498C367.533 217.163 370.5 220.693 369.63 223.967C368.607 227.957 349.577 240.133 337.964 239.263C337.964 239.263 331.876 239.672 326.709 231.436C321.901 223.609 328.551 208.722 328.551 208.722C328.551 208.722 325.533 201.765 327.733 199.463C327.733 199.463 329.063 198.286 332.848 197.979L337.504 188.31C337.504 188.31 332.183 188.669 329.011 184.781C326.044 181.046 325.84 179.358 328.091 178.335C330.495 177.158 352.646 173.117 367.891 173.628C367.891 173.628 373.211 173.117 377.765 182.325C377.713 182.325 379.964 186.059 376.179 186.929H376.179ZM318.831 224.069C316.887 228.674 311.72 233.585 305.326 230.515C298.982 227.446 288.904 206.829 288.904 206.829C288.904 206.829 285.067 199.156 284.351 199.309C284.351 199.309 283.532 197.826 283.021 206.216C282.509 214.605 283.123 230.925 279.798 233.482C276.626 236.04 272.789 235.017 270.794 231.999C269.004 229.032 268.236 221.972 269.208 209.592C270.385 197.212 273.25 184.013 276.933 179.869C280.617 175.777 283.584 178.744 284.709 179.818C284.709 179.818 289.62 184.269 297.754 197.365L299.187 199.77C299.187 199.77 306.553 212.15 307.321 212.099C307.321 212.099 307.935 212.661 308.446 212.252C309.213 212.048 308.907 208.057 308.907 208.057C308.907 208.057 307.372 194.603 300.67 171.787C300.67 171.787 299.647 168.922 300.363 166.262C301.028 163.55 303.74 164.829 303.74 164.829C303.74 164.829 314.176 170.047 319.189 187.031C324.152 204.169 320.775 219.465 318.831 224.069H318.831ZM267.571 180.432C266.702 182.172 266.19 184.678 261.791 185.343C261.791 185.343 219.688 188.208 217.693 191.175C217.693 191.175 216.209 192.915 218.511 193.426C220.813 193.887 230.329 195.166 234.933 195.421C239.844 195.472 256.419 195.626 262.353 203.044C262.353 203.044 265.883 206.574 265.73 214.554C265.576 222.739 264.144 225.604 260.972 228.571C257.647 231.334 229.101 244.123 210.684 224.479C210.684 224.479 202.192 215.015 213.6 207.853C213.6 207.853 221.837 202.89 242.76 208.722C242.76 208.722 249.104 211.024 248.797 213.326C248.439 215.782 243.579 218.391 236.519 218.238C229.664 218.033 224.65 214.759 225.622 215.27C226.543 215.628 218.256 211.28 215.698 214.247C213.14 216.959 213.754 218.647 216.26 220.335C222.655 223.967 247.364 222.688 254.731 214.503C254.731 214.503 257.647 211.178 253.196 208.466C248.745 205.909 236.007 204.374 231.045 204.118C226.287 203.862 208.587 204.169 206.029 199.463C206.029 199.463 203.471 196.291 206.285 187.287C209.252 177.874 229.868 174.242 238.77 173.424C238.77 173.424 263.274 172.554 267.776 177.567C267.725 177.567 268.339 178.744 267.572 180.432H267.571ZM197.997 235.631C195.03 237.831 188.738 236.859 186.947 234.403C185.157 232.204 184.543 223.456 184.901 209.745C185.259 195.882 185.566 178.693 188.533 175.981C191.705 173.219 193.649 175.623 194.877 177.516C196.207 179.358 197.793 181.404 198.151 185.753C198.458 190.101 199.481 212.917 199.481 212.917C199.481 212.917 200.811 233.482 197.997 235.631V235.631ZM204.392 162.067C195.746 164.931 189.812 163.959 184.799 161.811C182.599 165.648 181.32 166.824 179.632 167.08C177.176 167.336 174.976 163.397 174.567 162.118C174.158 161.146 172.981 159.509 174.414 155.621C169.503 151.221 169.144 145.287 169.963 141.297C171.191 136.693 179.478 119.197 204.699 117.15C204.699 117.15 217.028 116.23 219.125 122.829H219.484C219.484 122.829 231.454 122.88 231.199 133.521C231.045 144.213 217.898 157.514 204.392 162.067H204.392ZM180.859 138.381C178.302 142.473 178.199 144.929 179.376 146.617C182.292 142.166 187.612 135.158 195.439 129.837C189.403 130.349 184.338 132.958 180.859 138.381V138.381ZM215.698 131.526C207.768 132.702 195.49 143.343 189.659 152.04C198.611 153.677 214.419 153.063 221.427 138.79C221.376 138.79 224.753 129.94 215.698 131.526V131.526ZM430.968 213.94C426.211 222.228 412.859 239.519 395.056 235.478C389.173 249.751 384.261 264.126 381.448 285.714C381.448 285.714 380.834 289.909 377.355 288.426C373.928 287.198 368.198 281.468 367.073 273.539C365.845 263.103 370.5 245.453 379.964 225.246C377.202 220.744 375.309 214.298 376.946 205.141C376.946 205.141 379.35 188.157 396.386 172.81C396.386 172.81 398.432 171.019 399.609 171.582C400.939 172.145 400.325 177.67 399.251 180.33C398.176 182.99 390.554 196.189 390.554 196.189C390.554 196.189 385.796 205.09 387.126 212.099C396.079 198.337 416.44 170.559 429.075 179.307C433.321 182.325 435.265 188.924 435.265 196.035C435.214 202.328 433.731 208.978 430.968 213.94V213.94ZM427.285 192.147C427.285 192.147 426.569 186.673 421.248 192.71C416.644 197.775 408.357 207.341 401.655 220.284C408.664 219.516 415.416 215.68 417.463 213.736C420.788 210.769 428.513 202.788 427.285 192.147ZM178.916 199.105C177.944 211.485 173.186 232.306 139.473 242.588C117.22 249.29 96.1939 246.067 84.7346 243.151C84.4788 247.704 83.9672 249.648 83.2511 250.416C82.279 251.388 75.0147 255.582 71.0244 249.648C69.2339 246.835 68.3131 241.719 67.8015 237.166C42.0182 225.297 30.1496 208.211 29.6892 207.443C29.1265 206.881 23.2434 200.742 29.1265 193.222C34.6515 186.418 52.7101 179.614 68.9782 176.851C69.5409 162.936 71.1779 152.449 73.1219 147.64C75.4751 142.064 78.4423 147.078 81.0002 150.863C83.1488 153.677 84.4277 165.801 84.53 175.47C95.1707 174.958 101.463 175.726 113.332 177.874C128.781 180.688 139.115 188.566 138.194 197.519C137.529 206.318 129.446 209.95 126.377 210.206C123.154 210.462 118.14 208.16 118.14 208.16C114.713 206.522 117.885 205.09 122.028 203.3C126.53 201.1 125.507 198.849 125.507 198.849C123.819 193.938 103.765 190.51 83.8138 190.51C83.7114 201.509 84.2742 219.772 84.53 230.413C98.496 233.073 108.932 232.562 108.932 232.562C108.932 232.562 159.885 231.129 161.42 198.593C163.006 166.006 110.62 134.749 71.8941 124.824C33.2191 114.695 11.3237 121.755 9.43084 122.727C7.38457 123.75 9.27744 124.057 9.27744 124.057C9.27744 124.057 11.3749 124.364 15.0071 125.591C18.8439 126.819 15.8767 128.814 15.8767 128.814C9.27745 130.912 1.85959 129.582 0.427184 126.563C-1.00522 123.545 1.39914 120.834 4.16167 116.946C6.92416 112.853 9.94244 113.007 9.94244 113.007C57.7746 96.4317 116.043 126.41 116.043 126.41C170.628 154.086 179.939 186.52 178.916 199.105V199.105ZM34.5492 197.416C29.1265 200.077 32.861 203.913 32.861 203.913C43.0414 214.861 55.5749 221.716 67.4946 225.962C68.8759 207.085 68.6712 200.435 68.8247 190.919C50.2033 192.198 39.4603 195.166 34.5492 197.416V197.416Z" fill="white"/>
<path d="M532.26 193.529V200.282C532.26 201.765 531.083 202.942 529.6 202.942H497.422C497.422 204.63 497.473 206.114 497.473 207.495C497.473 217.471 497.064 225.605 496.092 234.762C495.938 236.143 494.813 237.166 493.483 237.166H486.525C485.809 237.166 485.144 236.859 484.683 236.348C484.223 235.836 483.967 235.12 484.07 234.404C485.042 225.298 485.502 217.266 485.502 207.495C485.502 206.062 485.502 204.579 485.451 202.942H453.631C452.147 202.942 450.971 201.765 450.971 200.282V193.529C450.971 192.045 452.147 190.869 453.631 190.869H484.99C484.325 179.87 482.995 169.28 480.847 158.537C480.744 157.872 480.898 157.207 481.307 156.695C481.716 156.184 482.33 155.877 482.995 155.877H490.515C491.692 155.877 492.664 156.695 492.92 157.872C495.017 168.973 496.347 179.767 497.012 190.869H529.6C531.032 190.869 532.26 192.096 532.26 193.529V193.529Z" fill="white"/>
<path d="M488.469 139.967C471.843 99.092 443.757 64.2538 407.231 39.1866C369.835 13.5567 325.993 0 280.463 0C205.159 0 135.278 37.3961 93.5846 100.064C93.1242 100.729 93.0218 101.599 93.2777 102.366C93.5336 103.185 94.1474 103.747 94.9147 104.003L100.747 105.998C101.105 106.101 101.463 106.152 101.77 106.152C102.844 106.152 103.867 105.589 104.481 104.719C123.614 76.5827 149.5 53.2037 179.376 37.038C210.224 20.3607 245.164 11.5104 280.412 11.5104C323.026 11.5104 364.105 24.0952 399.302 47.8322C433.628 71.0065 460.281 103.389 476.396 141.399C476.856 142.525 477.982 143.292 479.209 143.292H486.167C486.985 143.292 487.753 142.883 488.162 142.218C488.674 141.553 488.776 140.734 488.469 139.967H488.469ZM101.77 104.412C101.616 104.412 101.463 104.361 101.309 104.31C101.463 104.361 101.616 104.412 101.77 104.412H101.872C101.872 104.412 101.821 104.412 101.77 104.412ZM477.777 142.371C477.93 142.473 478.084 142.576 478.237 142.627C478.084 142.525 477.93 142.473 477.777 142.371Z" fill="url(#paint0_radial_215_2)"/>
</g>
<defs>
<radialGradient id="paint0_radial_215_2" cx="0" cy="0" r="1" gradientUnits="userSpaceOnUse" gradientTransform="translate(481.933 143.034) scale(388.86 388.86)">
<stop offset="0.007" stop-color="#021192"/>
<stop offset="0.03" stop-color="#021096"/>
<stop offset="0.057" stop-color="#010CB4"/>
<stop offset="0.084" stop-color="#0008CE"/>
<stop offset="0.111" stop-color="#0006D7"/>
<stop offset="0.138" stop-color="#0004E1"/>
<stop offset="0.165" stop-color="#0001FA"/>
<stop offset="0.191" stop-color="#0000FE"/>
<stop offset="0.216" stop-color="#0F1EFF"/>
<stop offset="1" stop-color="#00FFFF" stop-opacity="0"/>
</radialGradient>
<clipPath id="clip0_215_2">
<rect width="1000" height="288.743" fill="white"/>
</clipPath>
</defs>
</svg>
