<svg width="134" height="31" viewBox="0 0 134 31" fill="none" xmlns="http://www.w3.org/2000/svg">
<path d="M15.9157 0.00499266C16.6775 0.0819801 17.4433 0.114396 18.197 0.235955C19.8948 0.511489 21.4994 1.08687 22.9987 1.92968C24.2143 2.61041 25.3611 3.38839 26.2971 4.4419C26.4592 4.62019 26.6658 4.75795 26.836 4.92813C28.0904 6.26486 29.095 7.81563 29.8021 9.50686C30.6512 11.5045 31.0576 13.6623 30.9934 15.832C30.9177 19.6012 29.4665 23.2126 26.913 25.9862C26.7469 26.1645 26.5483 26.3104 26.3741 26.4806C26.2485 26.6062 26.1472 26.7601 26.0175 26.8858C24.7723 28.048 23.341 28.993 21.7831 29.6816C19.7158 30.6072 17.4668 31.0558 15.2025 30.9944C14.9067 30.9782 14.6109 30.9863 14.3192 30.9499C13.5736 30.8526 12.8199 30.7716 12.0865 30.6176C10.3419 30.2399 8.67964 29.5509 7.17946 28.5835C6.46972 28.1447 5.80589 27.6357 5.198 27.064C4.9954 26.8655 4.8009 26.6507 4.59425 26.4522C4.44432 26.3063 4.27008 26.1807 4.12826 26.0308C2.88587 24.698 1.89105 23.1543 1.19052 21.4723C0.343205 19.4701 -0.0604464 17.3081 0.00731551 15.135C0.0680964 14.4219 0.0924085 13.7087 0.197762 13.0037C0.467312 11.2861 1.03359 9.62843 1.87126 8.10488C2.47907 6.97033 3.23276 5.93708 4.10395 4.99297C4.29845 4.79037 4.52536 4.61613 4.72797 4.41759C4.95083 4.19878 5.15748 3.95566 5.3925 3.74901C6.54581 2.74513 7.84519 1.92262 9.24601 1.30973C11.3413 0.374445 13.6225 -0.0704065 15.9157 0.00904463V0.00499266ZM12.4958 9.66489L12.5484 9.596C13.356 8.79285 14.3818 8.24473 15.4983 8.01979C15.8144 7.9509 16.094 7.99142 16.329 8.23049C16.4141 8.31963 16.5073 8.40472 16.5843 8.50197C16.9879 9.04947 17.209 9.71005 17.2164 10.3902C17.2367 10.8156 17.2772 11.2452 17.1678 11.6747C17.1192 11.857 17.1799 12.0677 17.1475 12.2541C17.0118 13.3413 16.4811 14.3408 15.6564 15.0621C15.624 15.0905 15.5996 15.1229 15.5713 15.1594C15.6037 15.1715 15.6118 15.1837 15.6199 15.1796C15.6483 15.1796 15.6807 15.1756 15.705 15.1675C16.2949 14.9897 16.8358 14.6782 17.2856 14.2572C17.7354 13.8363 18.082 13.3172 18.2983 12.7403C18.5576 12.088 18.6427 11.3951 18.6833 10.6981C18.7076 10.2403 18.6954 9.77834 18.7157 9.32047C18.7319 8.9639 18.744 8.60327 18.7967 8.25075C18.8616 7.72399 19.0844 7.3188 19.6152 7.07568C20.3041 6.76773 20.9362 6.36658 21.39 5.73853C21.5926 5.45489 21.7547 5.16315 21.8398 4.82684C21.856 4.77011 21.852 4.70528 21.8601 4.6445C21.779 4.66476 21.7385 4.70528 21.698 4.74174C21.5197 4.91193 21.3495 5.09427 21.1591 5.24824C20.5184 5.74193 19.7676 6.07285 18.971 6.21261C18.1889 6.37874 17.3907 6.48004 16.6086 6.62996C14.846 6.97438 13.4439 7.86581 12.4998 9.42582C12.4188 9.55548 12.3377 9.57979 12.2121 9.4947C11.8717 9.27184 11.5233 9.05304 11.191 8.81802C10.9764 8.67839 10.778 8.5153 10.5994 8.33179C10.4373 8.1535 10.2995 7.93875 10.2185 7.71589C10.1618 7.55381 10.2064 7.35121 10.2185 7.16887C10.2266 6.98248 10.2752 6.80014 10.2712 6.61375C10.2631 6.34632 10.2347 6.08295 10.1982 5.81957C10.1414 5.18833 9.87628 4.59392 9.44456 4.1299C9.39594 4.08127 9.33516 4.04886 9.27843 4.00429L9.25412 4.06101C9.25412 4.08533 9.25412 4.10559 9.26222 4.1299C9.53086 5.01352 9.53086 5.95704 9.26222 6.84066C9.02315 7.7321 8.6382 8.5668 8.29783 9.41772C7.97798 10.1653 7.81655 10.971 7.82374 11.7841C7.83184 12.0474 7.81969 12.3189 7.86426 12.5783C7.97772 13.2266 8.16006 13.8587 8.47207 14.4422C8.54095 14.5718 8.6301 14.6893 8.70709 14.8149L8.77192 14.7825C8.76382 14.742 8.75977 14.6934 8.74356 14.6529C8.7233 14.588 8.69088 14.5313 8.67062 14.4665C8.48828 13.7776 8.48828 13.0847 8.58958 12.3919C8.65846 11.9583 8.79218 11.5328 8.91374 11.1074C8.98668 10.844 9.17713 10.686 9.44456 10.609C10.0187 10.453 10.6277 10.4842 11.1829 10.6981C11.7097 10.8886 12.1878 11.1682 12.6457 11.4802C13.4399 12.015 14.1369 12.635 14.5623 13.5264C14.7609 13.9478 14.9351 14.3611 14.9432 14.8352C14.9432 14.8555 14.9675 14.8798 14.9797 14.9041L15.0324 14.9122C15.0607 14.7947 15.0972 14.6772 15.1215 14.5597C15.3061 13.7207 15.2122 12.8445 14.8541 12.0637C14.5014 11.3237 13.9589 10.6903 13.2819 10.2281L12.4998 9.66489H12.4958ZM18.3307 21.5047L18.2862 21.4723C18.2456 21.5047 18.2051 21.5372 18.1727 21.5777C17.3671 22.4685 16.2981 23.0789 15.1215 23.32C14.8379 23.3849 14.6028 23.3038 14.3881 23.1174C14.0421 22.8106 13.7858 22.4157 13.6466 21.9748C13.4394 21.265 13.3571 20.5246 13.4034 19.7867C13.4075 19.7057 13.4683 19.6165 13.4764 19.5314C13.4926 19.2883 13.4642 19.0371 13.5088 18.8021C13.6952 17.7891 14.1004 16.8976 14.927 16.2412C14.9513 16.221 14.9513 16.1683 14.9675 16.1278C14.927 16.1278 14.8865 16.1035 14.8581 16.1197C14.6231 16.225 14.384 16.3223 14.1612 16.4519C13.2535 16.9746 12.5687 17.6999 12.2729 18.721C12.127 19.2275 12.0298 19.7583 11.9893 20.2851C11.9366 20.8969 11.9812 21.5209 11.973 22.1409C11.973 22.3435 11.9244 22.5461 11.9001 22.7527C11.8961 22.7811 11.888 22.8135 11.9001 22.8338C11.9933 23.081 11.9163 23.32 11.8555 23.555C11.7826 23.8387 11.6529 24.0939 11.3733 24.2439C11.0897 24.3978 10.8061 24.5518 10.5346 24.7301C9.93164 25.0898 9.44711 25.618 9.14066 26.2496C9.05151 26.4522 8.99884 26.6669 8.90969 26.9263C9.00289 26.8898 9.04746 26.8858 9.07177 26.8614C9.16092 26.7723 9.23386 26.671 9.323 26.5778C9.96421 25.9174 10.7859 25.4607 11.6854 25.265C12.4958 25.0583 13.3264 24.9246 14.145 24.7382C15.47 24.4424 16.6167 23.8265 17.5163 22.7852C17.7675 22.4975 17.9742 22.1855 18.1687 21.8613C18.2375 21.7479 18.2781 21.6222 18.3307 21.5047ZM21.8439 15.9009C21.8601 15.9779 21.8641 16.0224 21.8844 16.067C22.1361 16.8134 22.2191 17.6064 22.1275 18.3888C22.0789 18.7616 22.0141 19.1262 21.9371 19.4909C21.8641 19.8475 21.6129 20.0501 21.2806 20.1554C20.8997 20.277 20.5107 20.2891 20.1217 20.2365C19.5747 20.1554 19.0763 19.9447 18.5901 19.6895C17.9763 19.3879 17.4087 19.0005 16.9044 18.5387C16.7342 18.3766 16.5721 18.2064 16.4303 18.02C16.0187 17.5257 15.7485 16.9293 15.6483 16.2939C15.6442 16.2574 15.6037 16.2291 15.5794 16.1967C15.5591 16.225 15.5227 16.2534 15.5227 16.2858C15.4619 16.8247 15.3768 17.3636 15.5227 17.9025C15.6442 18.3402 15.7577 18.7818 16.0089 19.1749C16.3412 19.7016 16.7383 20.1514 17.2569 20.4958C17.7594 20.8321 18.2781 21.1441 18.7967 21.4602C19.3154 21.7843 19.8503 22.0761 20.3568 22.4205C20.5377 22.5373 20.6822 22.7025 20.7739 22.8973C20.8656 23.0921 20.9008 23.3088 20.8754 23.5226C20.843 23.9359 20.8471 24.3533 20.9322 24.7706C21.0618 25.3946 21.2563 25.9862 21.702 26.4684C21.7912 26.5616 21.9006 26.6386 21.9978 26.7237L22.0384 26.6913C22.0262 26.6345 22.0141 26.5737 21.9938 26.5211C21.7102 25.812 21.6656 25.0786 21.7588 24.333C21.856 23.5226 22.091 22.7446 22.3666 21.9829C22.7313 21.0063 22.9987 20.0136 22.9744 18.9601C22.9792 18.7968 22.9642 18.6336 22.9298 18.4739C22.7799 17.9268 22.6097 17.3798 22.4598 16.8288C22.3625 16.4843 22.1073 16.2412 21.933 15.9454C21.9249 15.9292 21.8965 15.9252 21.8439 15.9049V15.9009ZM11.3166 20.7875L11.3247 20.7349L11.2315 20.6781C10.9479 20.5566 10.6602 20.4593 10.3846 20.3256C9.8984 20.0825 9.45267 19.7786 9.08798 19.3734L8.88538 19.1303C8.70709 18.9358 8.52069 18.7535 8.35861 18.5549C8.20463 18.3604 8.19248 18.1294 8.24921 17.8904C8.3994 17.3778 8.70353 16.9237 9.1204 16.5897C9.60019 16.187 10.1495 15.8753 10.7412 15.6699C11.1869 15.4997 11.6489 15.3579 12.1108 15.2282C12.5767 15.1256 13.0576 15.1105 13.529 15.1837C13.9505 15.2242 14.3516 15.3336 14.7366 15.5078C14.7852 15.5321 14.846 15.52 14.8986 15.524L14.8014 15.4025C14.769 15.366 14.7203 15.3376 14.6879 15.3012C14.5866 15.2039 14.4934 15.0986 14.384 15.0054C13.6425 14.3854 12.7429 14.1788 11.8272 14.0126C11.7867 14.0045 11.738 14.0248 11.6935 14.037C11.6205 14.0572 11.5435 14.0856 11.4706 14.0977C11.2639 14.1383 11.0532 14.1585 10.8466 14.2031C10.024 14.3935 9.26627 14.7582 8.49638 15.0864C7.96961 15.3133 7.43069 15.5078 6.88366 15.6659C6.54734 15.7631 6.21507 15.6942 5.92738 15.4511C5.38847 14.9689 4.75306 14.607 4.06343 14.3895C3.65928 14.2495 3.22371 14.227 2.80729 14.3246C2.75461 14.3368 2.70194 14.3652 2.64116 14.3935C2.66952 14.4259 2.67762 14.4462 2.68978 14.4503L2.88428 14.5191C3.54071 14.7136 4.0999 15.0662 4.59425 15.5321C5.27499 16.1845 5.80581 16.9544 6.33258 17.7324C6.64459 18.1943 6.94039 18.6643 7.3537 19.0492C7.85941 19.5435 8.44077 19.9538 9.07583 20.2648C9.66743 20.5404 10.2874 20.6862 10.9195 20.7997C11.0451 20.824 11.1829 20.7916 11.3126 20.7875H11.3166ZM15.7739 15.6821C15.7658 15.6983 15.7658 15.7145 15.7617 15.7347C15.8711 15.8158 15.9846 15.8968 16.094 15.986C16.7283 16.4908 17.4984 16.7955 18.3064 16.8612C18.5212 16.8895 18.7116 16.8774 18.9142 16.8531C19.7044 16.768 20.4338 16.4884 21.1307 16.1237C21.8601 15.7347 22.5894 15.3336 23.3229 14.9608C23.8577 14.6934 24.3764 14.6731 24.887 15.0662C25.122 15.2485 25.3894 15.4025 25.6731 15.524C26.2606 15.7793 26.8644 15.9292 27.5005 15.8928C27.695 15.8806 27.8774 15.7915 28.0881 15.7307C28.0476 15.674 28.0354 15.6537 28.0233 15.6496L27.926 15.6253C27.533 15.4916 27.1359 15.3822 26.755 15.2201C26.2404 15.0013 25.8392 14.6042 25.438 14.2274C25.1868 13.9843 24.9761 13.7006 24.7411 13.4413C24.579 13.263 24.4007 13.0969 24.2467 12.9146C23.9266 12.5296 23.6389 12.1285 23.2702 11.7881C22.5084 11.075 21.6494 10.5442 20.6323 10.301C20.1461 10.1835 19.6517 10.139 19.1574 10.0782C19.0358 10.066 18.9142 10.1187 18.7927 10.139C18.8291 10.1997 18.8575 10.22 18.894 10.2281C20.1015 10.451 21.0578 11.1074 21.9046 11.9624C22.1761 12.2379 22.1842 12.562 22.1235 12.8943C22.0262 13.4332 21.6858 13.8465 21.309 14.2152C20.7782 14.738 20.1217 15.0662 19.4653 15.3944C18.637 15.8171 17.7033 15.9889 16.7788 15.8887C16.4951 15.8603 16.2115 15.7631 15.936 15.6983C15.8792 15.6861 15.8266 15.6861 15.7739 15.678V15.6821ZM8.35861 8.38041C8.3606 8.24174 8.33433 8.10412 8.28138 7.97593C8.22843 7.84775 8.14993 7.7317 8.05066 7.63485C7.8359 7.40389 7.53604 7.34311 7.2524 7.24586C7.23619 7.24181 7.21188 7.25396 7.19162 7.26207L6.92013 7.36337C6.61623 7.46467 6.38121 7.65106 6.26775 7.95901C6.18671 8.18592 6.08541 8.38446 6.19886 8.6681C6.40147 9.19081 6.86745 9.55143 7.40233 9.48255C7.66868 9.44699 7.91287 9.31536 8.08898 9.11239C8.26509 8.90943 8.36098 8.64912 8.35861 8.38041ZM24.81 22.1814C24.81 21.602 24.3035 21.0469 23.7808 21.0712C23.4809 21.0874 23.1932 21.1765 22.9622 21.3953C22.7353 21.6141 22.5976 21.9059 22.5935 22.1774C22.5895 22.4488 22.7151 22.7446 22.9501 22.9594C23.1689 23.162 23.4242 23.2836 23.7281 23.2836C23.8723 23.2825 24.0149 23.253 24.1477 23.1969C24.2805 23.1407 24.401 23.0589 24.5022 22.9562C24.6034 22.8535 24.6834 22.7318 24.7376 22.5982C24.7918 22.4646 24.8192 22.3216 24.8181 22.1774L24.81 22.1814ZM13.7641 27.2666C14.1085 27.2909 14.3313 27.1208 14.5421 26.9263C14.7541 26.7236 14.8828 26.449 14.9027 26.1564C14.9392 25.6702 14.2544 25.0056 13.7397 25.0421C13.4966 25.0583 13.2413 25.2204 13.0306 25.3703C12.7835 25.5527 12.67 25.8363 12.666 26.1442C12.661 26.2906 12.6858 26.4364 12.7386 26.5729C12.7915 26.7094 12.8714 26.8339 12.9736 26.9387C13.0758 27.0436 13.1982 27.1267 13.3333 27.183C13.4685 27.2394 13.6136 27.2678 13.76 27.2666H13.7641ZM6.31232 18.4941C6.29611 17.8458 5.79366 17.3434 5.17369 17.3677C4.90088 17.3755 4.641 17.4857 4.44578 17.6764C4.25056 17.8671 4.1343 18.1243 4.12016 18.3969C4.108 19.1343 4.57804 19.5719 5.22637 19.5517C5.91117 19.5314 6.23938 19.1343 6.31232 18.4982V18.4941ZM24.0401 11.8854C24.0401 12.4526 24.5588 13.0159 25.1504 13.0037C25.4538 12.9799 25.7365 12.8405 25.9401 12.6143C26.1437 12.3881 26.2526 12.0923 26.2444 11.7881C26.2444 11.2614 25.7014 10.7832 25.126 10.7832C24.8372 10.7895 24.5622 10.9082 24.3595 11.114C24.1567 11.3198 24.0421 11.5965 24.0401 11.8854ZM17.0665 6.28554C17.3542 6.2977 17.5933 6.18425 17.808 6.00191C18.0511 5.78715 18.1849 5.47515 18.1889 5.19151C18.193 4.95245 18.0106 4.68907 17.8566 4.47431C17.6743 4.21904 17.3826 4.11774 17.0665 4.10964C16.7776 4.11382 16.5018 4.23043 16.2975 4.4347C16.0932 4.63897 15.9766 4.91482 15.9724 5.20367C15.973 5.34643 16.0017 5.48768 16.0571 5.61926C16.1125 5.75085 16.1933 5.87018 16.295 5.97037C16.3967 6.07057 16.5173 6.14964 16.6497 6.20304C16.7821 6.25643 16.9237 6.2831 17.0665 6.28149V6.28554Z" fill="#AD9AFF"/>
<g clip-path="url(#clip0)">
<path d="M53.3071 12.5026C54.1484 13.3258 54.4849 14.4782 54.4849 15.96V22.3808H51.1199V16.4539C51.1199 15.7953 50.9516 15.1368 50.6151 14.8075C49.9421 14.3136 49.4374 14.149 48.7644 14.149C48.0914 14.149 47.5866 14.3136 47.2501 14.8075C46.9136 15.3014 46.7454 15.6307 46.7454 16.4539V22.3808H43.2121V7.72815H46.7454V12.8319C47.0819 12.338 47.5866 12.0087 48.2596 11.6794C48.9326 11.3501 49.6056 11.1855 50.2786 11.1855C51.4564 11.1855 52.4659 11.6794 53.3071 12.5026Z" fill="white"/>
<path d="M67.9448 11.3502V22.3808H64.4116V20.8991C64.0751 21.393 63.5704 21.7223 63.0656 22.0516C62.3926 22.3808 61.7196 22.5455 61.0466 22.5455C60.2054 22.5455 59.3641 22.3808 58.6911 22.0516C58.0181 21.7223 57.5134 21.0637 57.1769 20.4052C56.8404 19.582 56.6721 18.7588 56.6721 17.771V11.3502H60.0371V17.2771C60.0371 17.9357 60.2054 18.5942 60.5419 18.9235C61.0466 19.4174 61.7196 19.7467 62.3926 19.7467C63.0656 19.7467 63.5704 19.582 63.9069 19.0881C64.2434 18.7588 64.4116 18.1003 64.4116 17.4418V11.3502H67.9448Z" fill="white"/>
<path d="M88.1348 12.5028C88.976 13.3259 89.3125 14.4784 89.3125 15.9601V22.3809H85.9476V16.454C85.9476 15.7955 85.7793 15.1369 85.4428 14.8077C85.1063 14.4784 84.6016 14.1491 83.9286 14.1491C83.2556 14.1491 82.7508 14.3138 82.4143 14.8077C82.0778 15.1369 81.9096 15.7955 81.9096 16.454V22.3809H78.5446V16.454C78.5446 15.7955 78.3763 15.1369 78.0398 14.8077C77.7033 14.4784 77.1986 14.1491 76.5256 14.1491C75.8526 14.1491 75.3478 14.3138 75.0113 14.8077C74.6748 15.1369 74.5066 15.7955 74.5066 16.454V22.3809H70.9733V11.3503H74.5066V12.6674C74.8431 12.1735 75.3478 11.8442 75.8526 11.5149C76.3573 11.1857 77.0303 11.1857 77.7033 11.1857C78.5446 11.1857 79.3858 11.3503 79.8906 11.6796C80.5636 12.0088 81.0683 12.5028 81.4048 13.1613C81.7413 12.5028 82.2461 12.0088 82.9191 11.6796C83.5921 11.3503 84.2651 11.1857 85.1063 11.1857C86.2841 11.1857 87.2936 11.6796 88.1348 12.5028Z" fill="white"/>
<path d="M92.0045 9.70389C91.668 9.37462 91.4998 8.88071 91.4998 8.3868C91.4998 7.89289 91.668 7.39899 92.0045 7.06971C92.5093 6.74044 93.014 6.57581 93.5188 6.57581C94.1918 6.57581 94.5283 6.74044 95.033 7.06971C95.3695 7.39899 95.5378 7.89289 95.5378 8.3868C95.5378 8.88071 95.3695 9.37462 95.033 9.70389C94.6965 10.0332 94.1918 10.1978 93.5188 10.1978C93.014 10.1978 92.5093 10.0332 92.0045 9.70389ZM95.2013 11.3503V22.3809H91.668V11.3503H95.2013Z" fill="white"/>
<path d="M107.82 12.5028C108.661 13.3259 108.998 14.4784 108.998 15.9601V22.3809H105.633V16.454C105.633 15.7955 105.465 15.1369 105.128 14.8077C104.792 14.4784 104.287 14.1491 103.614 14.1491C102.941 14.1491 102.436 14.3138 102.1 14.8077C101.763 15.1369 101.595 15.7955 101.595 16.454V22.3809H98.0615V11.3503H101.595V12.832C101.931 12.3381 102.436 12.0088 102.941 11.6796C103.614 11.3503 104.119 11.1857 104.96 11.1857C105.969 11.1857 106.979 11.6796 107.82 12.5028Z" fill="white"/>
<path d="M113.54 21.8869C112.699 21.393 112.026 20.7345 111.521 19.9113C111.017 19.0881 110.68 18.1003 110.68 16.9478C110.68 15.7954 111.017 14.8076 111.521 13.9844C112.026 13.1612 112.699 12.5027 113.54 12.0088C114.382 11.5149 115.391 11.3502 116.569 11.3502C117.747 11.3502 118.588 11.5149 119.597 12.0088C120.439 12.5027 121.112 13.1612 121.616 13.9844C122.121 14.8076 122.458 15.7954 122.458 16.9478C122.458 18.1003 122.121 19.0881 121.616 19.9113C121.112 20.7345 120.439 21.393 119.429 21.8869C118.588 22.3808 117.578 22.5455 116.401 22.5455C115.223 22.5455 114.382 22.3808 113.54 21.8869ZM118.251 18.9235C118.588 18.4296 118.924 17.771 118.924 16.9478C118.924 16.1247 118.588 15.3015 118.251 14.8076C117.747 14.3137 117.242 14.149 116.569 14.149C115.896 14.149 115.391 14.3137 114.886 14.8076C114.382 15.3015 114.213 15.96 114.213 16.7832C114.213 17.6064 114.382 18.2649 114.886 18.7588C115.391 19.2527 115.896 19.4174 116.569 19.4174C117.242 19.4174 117.747 19.4174 118.251 18.9235Z" fill="white"/>
<path d="M126.159 22.0516C125.318 21.7224 124.813 21.2285 124.308 20.7346C123.804 20.2407 123.635 19.5821 123.635 18.7589H127C127 19.0882 127.169 19.4175 127.505 19.7467C127.842 19.9114 128.178 20.076 128.683 20.076C129.188 20.076 129.524 20.076 129.692 19.7467C129.861 19.5821 130.029 19.4175 130.029 19.0882C130.029 18.7589 129.861 18.5943 129.524 18.4297C129.188 18.265 128.683 18.1004 127.842 17.9357C127 17.7711 126.327 17.6065 125.823 17.2772C125.318 17.1126 124.813 16.7833 124.477 16.2894C124.14 15.9601 123.972 15.4662 123.972 14.643C123.972 13.9845 124.14 13.4906 124.477 12.9967C124.813 12.5028 125.318 12.0088 125.991 11.6796C126.664 11.3503 127.505 11.1857 128.515 11.1857C129.861 11.1857 131.038 11.5149 131.88 12.1735C132.721 12.832 133.226 13.8198 133.226 14.9723H130.029C130.029 14.643 129.861 14.3138 129.524 13.9845C129.188 13.8198 128.851 13.6552 128.346 13.6552C128.01 13.6552 127.673 13.6552 127.337 13.8198C127 13.9845 127 14.1491 127 14.4784C127 14.8077 127.169 14.9723 127.505 15.1369C127.842 15.3016 128.346 15.4662 129.188 15.6308C130.029 15.7955 130.702 16.1248 131.207 16.2894C131.711 16.454 132.216 16.7833 132.553 17.2772C132.889 17.7711 133.226 18.265 133.226 19.0882C133.226 19.7467 133.057 20.2407 132.721 20.8992C132.384 21.3931 131.88 21.887 131.207 22.0516C130.534 22.3809 129.692 22.5456 128.851 22.5456C127.842 22.5456 127 22.3809 126.159 22.0516Z" fill="white"/>
</g>
<defs>
<clipPath id="clip0">
<rect width="90.1818" height="15.9697" fill="white" transform="translate(43.2121 6.57581)"/>
</clipPath>
</defs>
</svg>
