<svg width="111" height="35" viewBox="0 0 111 35" fill="none" xmlns="http://www.w3.org/2000/svg">
<g clip-path="url(#clip0_206_10)">
<path d="M29.1107 17.5394C29.1107 16.7841 28.7034 16.1199 28.0882 15.571C27.4728 15.0218 26.609 14.5487 25.5818 14.161C23.524 13.3843 20.7128 12.9136 17.6309 12.9136C14.549 12.9136 11.7379 13.3843 9.68004 14.161C8.65281 14.5487 7.78895 15.0218 7.17352 15.571C6.55845 16.1199 6.15112 16.7841 6.15112 17.5394C6.15112 18.2949 6.55845 18.9591 7.17352 19.508C7.78895 20.0572 8.65281 20.5302 9.68004 20.918C11.7379 21.6946 14.549 22.1653 17.6309 22.1653C20.7128 22.1653 23.524 21.6946 25.5818 20.918C26.609 20.5302 27.4728 20.0572 28.0882 19.508C28.7034 18.9591 29.1107 18.2949 29.1107 17.5394Z" stroke="#FBFAE0" stroke-width="0.940965"/>
<path d="M11.7569 27.5146C12.4066 27.8972 13.1851 27.8791 13.9684 27.6239C14.7525 27.3684 15.5978 26.8597 16.4533 26.1665C18.1671 24.778 20.0028 22.583 21.5732 19.9161C23.1437 17.2492 24.1729 14.5793 24.556 12.407C24.7472 11.3227 24.7821 10.3367 24.6251 9.52715C24.4684 8.71835 24.1067 8.02883 23.4569 7.64617C22.8071 7.26352 22.0286 7.28163 21.2454 7.53682C20.4613 7.79228 19.6159 8.30105 18.7605 8.99416C17.0467 10.3828 15.211 12.5777 13.6405 15.2446C12.0701 17.9115 11.0409 20.5815 10.6578 22.7537C10.4666 23.838 10.4317 24.824 10.5886 25.6336C10.7454 26.4424 11.1071 27.1319 11.7569 27.5146Z" stroke="#23A278" stroke-width="0.940965"/>
<path d="M23.088 27.5042C23.7507 27.1453 24.1392 26.472 24.3279 25.6716C24.5166 24.8707 24.5204 23.8879 24.3718 22.8025C24.0743 20.6278 23.1504 17.9372 21.6856 15.2323C20.2207 12.5275 18.472 10.2836 16.8134 8.84606C15.9854 8.12849 15.1602 7.59473 14.3863 7.31513C13.613 7.03572 12.8368 6.99319 12.1741 7.3521C11.5113 7.711 11.1228 8.38435 10.9342 9.18473C10.7456 9.98564 10.7417 10.9684 10.8902 12.0539C11.1878 14.2285 12.1117 16.9191 13.5766 19.624C15.0415 22.3288 16.7901 24.5728 18.4487 26.0102C19.2767 26.7278 20.1018 27.2615 20.8757 27.5412C21.6491 27.8206 22.4254 27.8632 23.088 27.5042Z" stroke="#ED5D26" stroke-width="0.940965"/>
<path d="M17.6143 19.4098C18.6384 19.4098 19.4685 18.5797 19.4685 17.5556C19.4685 16.5316 18.6384 15.7014 17.6143 15.7014C16.5903 15.7014 15.7601 16.5316 15.7601 17.5556C15.7601 18.5797 16.5903 19.4098 17.6143 19.4098Z" fill="#51C9EE"/>
</g>
<path d="M42.7637 14.0171V17.3872H44.7529C45.3135 17.3872 45.7487 17.2391 46.0586 16.9429C46.3685 16.6466 46.5234 16.2319 46.5234 15.6987C46.5234 15.1792 46.3617 14.769 46.0381 14.4683C45.7145 14.1675 45.2747 14.0171 44.7188 14.0171H42.7637ZM42.7637 18.7407V22.4526H41V12.5884H44.917C45.9788 12.5884 46.8128 12.8641 47.4189 13.4155C48.0251 13.9624 48.3281 14.7098 48.3281 15.6577C48.3281 16.3185 48.1641 16.9019 47.8359 17.4077C47.5078 17.909 47.0521 18.2645 46.4688 18.4741L48.6221 22.4526H46.6123L44.6709 18.7407H42.7637Z" fill="white"/>
<path d="M52.8721 16.3755C52.3982 16.3755 52.0017 16.5396 51.6827 16.8677C51.3682 17.1912 51.1927 17.6082 51.1563 18.1187H54.5401C54.5218 17.6037 54.3601 17.1844 54.0547 16.8608C53.7494 16.5373 53.3552 16.3755 52.8721 16.3755ZM54.5469 20.2856H56.1397C56.0303 20.9738 55.6817 21.5321 55.0938 21.9604C54.5059 22.3843 53.7858 22.5962 52.9336 22.5962C51.849 22.5962 50.9968 22.2635 50.377 21.5981C49.7572 20.9282 49.4473 20.0145 49.4473 18.8569C49.4473 17.7085 49.7549 16.7879 50.3702 16.0952C50.9899 15.4025 51.8217 15.0562 52.8653 15.0562C53.8907 15.0562 54.7041 15.3866 55.3057 16.0474C55.9073 16.7036 56.208 17.5832 56.208 18.686V19.2397H51.1426V19.3423C51.1426 19.9256 51.3067 20.395 51.6348 20.7505C51.9675 21.106 52.4118 21.2837 52.9678 21.2837C53.3597 21.2837 53.697 21.1948 53.9795 21.0171C54.2666 20.8348 54.4558 20.591 54.5469 20.2856Z" fill="white"/>
<path d="M60.1641 21.2837C60.6518 21.2837 61.0619 21.1401 61.3946 20.853C61.7318 20.5614 61.9005 20.1991 61.9005 19.7661V19.2124L60.2257 19.3149C59.8155 19.3423 59.4965 19.4448 59.2686 19.6226C59.0453 19.7957 58.9337 20.0259 58.9337 20.313C58.9337 20.6092 59.0453 20.8462 59.2686 21.0239C59.4965 21.1971 59.795 21.2837 60.1641 21.2837ZM59.6514 22.5688C58.9451 22.5688 58.364 22.366 57.9083 21.9604C57.4571 21.5549 57.2315 21.0285 57.2315 20.3813C57.2315 19.7388 57.4685 19.2306 57.9425 18.8569C58.421 18.4832 59.1023 18.269 59.9864 18.2144L61.9005 18.105V17.5854C61.9005 17.2072 61.7797 16.9132 61.5382 16.7036C61.3012 16.494 60.9708 16.3892 60.547 16.3892C60.1505 16.3892 59.8269 16.478 59.5763 16.6558C59.3256 16.8335 59.1729 17.075 59.1182 17.3804H57.5391C57.5756 16.6922 57.8695 16.134 58.421 15.7056C58.977 15.2726 59.7084 15.0562 60.6153 15.0562C61.5131 15.0562 62.2309 15.2749 62.7686 15.7124C63.311 16.1499 63.5821 16.7332 63.5821 17.4624V22.4526H61.9415V21.2974H61.9073C61.7022 21.6847 61.3923 21.9946 60.9776 22.2271C60.5629 22.4549 60.1208 22.5688 59.6514 22.5688Z" fill="white"/>
<path d="M71.5509 17.7905H69.9445C69.8715 17.3849 69.6984 17.0591 69.4249 16.813C69.1515 16.5623 68.796 16.437 68.3585 16.437C67.8208 16.437 67.3924 16.6512 67.0734 17.0796C66.7543 17.5034 66.5948 18.0868 66.5948 18.8296C66.5948 19.5815 66.7543 20.1694 67.0734 20.5933C67.3924 21.0125 67.8253 21.2222 68.3722 21.2222C68.8006 21.2222 69.1515 21.1082 69.4249 20.8804C69.6984 20.6479 69.8738 20.3244 69.9513 19.9097H71.5577C71.4894 20.7209 71.1635 21.3726 70.5802 21.8647C70.0014 22.3524 69.2586 22.5962 68.3517 22.5962C67.2853 22.5962 66.4376 22.2612 65.8087 21.5913C65.1798 20.9168 64.8654 19.9963 64.8654 18.8296C64.8654 17.6766 65.1798 16.7606 65.8087 16.0815C66.4376 15.3979 67.2807 15.0562 68.338 15.0562C69.2677 15.0562 70.0196 15.3159 70.5939 15.8354C71.1726 16.3504 71.4917 17.0021 71.5509 17.7905Z" fill="white"/>
<path d="M73.258 13.5112H74.9601V15.2065H76.3273V16.519H74.9601V20.2856C74.9601 20.5819 75.0308 20.8006 75.172 20.9419C75.3133 21.0832 75.5343 21.1538 75.8351 21.1538C76.0356 21.1538 76.1974 21.1424 76.3205 21.1196V22.4185C76.1154 22.464 75.8214 22.4868 75.4386 22.4868C74.6548 22.4868 74.0942 22.3364 73.757 22.0356C73.4243 21.7349 73.258 21.2313 73.258 20.5249V16.519H72.2189V15.2065H73.258V13.5112Z" fill="white"/>
<path d="M82.6467 22.4526H80.883V12.5884H82.6467V22.4526Z" fill="white"/>
<path d="M84.4221 22.4526V15.2065H86.0559V16.4507H86.0901C86.2906 16.0132 86.5823 15.6737 86.9651 15.4321C87.3525 15.1906 87.8196 15.0698 88.3665 15.0698C89.1595 15.0698 89.7747 15.3091 90.2122 15.7876C90.6542 16.2661 90.8753 16.9269 90.8753 17.77V22.4526H89.1731V18.1118C89.1731 17.5923 89.0501 17.1958 88.804 16.9224C88.5624 16.6489 88.2024 16.5122 87.7239 16.5122C87.2363 16.5122 86.8466 16.6717 86.555 16.9907C86.2679 17.3097 86.1243 17.7313 86.1243 18.2554V22.4526H84.4221Z" fill="white"/>
<path d="M95.1595 22.5688C94.2435 22.5688 93.512 22.2316 92.9652 21.5571C92.4228 20.8826 92.1517 19.9712 92.1517 18.8228C92.1517 17.6789 92.4228 16.7697 92.9652 16.0952C93.512 15.4207 94.2435 15.0835 95.1595 15.0835C95.6699 15.0835 96.1211 15.2043 96.513 15.4458C96.9095 15.6873 97.2057 16.0132 97.4017 16.4233H97.4427V12.5884H99.1448V22.4526H97.4769V21.2153H97.4495C97.249 21.63 96.946 21.9604 96.5404 22.2065C96.1393 22.4481 95.679 22.5688 95.1595 22.5688ZM95.6722 16.4849C95.1253 16.4849 94.6924 16.6968 94.3734 17.1206C94.0543 17.5399 93.8948 18.1095 93.8948 18.8296C93.8948 19.5542 94.0521 20.1261 94.3665 20.5454C94.6855 20.9647 95.1208 21.1743 95.6722 21.1743C96.2099 21.1743 96.6406 20.9624 96.9642 20.5386C97.2877 20.1147 97.4495 19.5451 97.4495 18.8296C97.4495 18.1187 97.2877 17.5513 96.9642 17.1274C96.6406 16.6991 96.2099 16.4849 95.6722 16.4849Z" fill="white"/>
<path d="M100.825 22.4526V15.2065H102.527V22.4526H100.825ZM102.342 13.9897C102.16 14.1675 101.937 14.2563 101.672 14.2563C101.408 14.2563 101.185 14.1675 101.002 13.9897C100.82 13.8075 100.729 13.5887 100.729 13.3335C100.729 13.0737 100.82 12.855 101.002 12.6772C101.185 12.495 101.408 12.4038 101.672 12.4038C101.937 12.4038 102.16 12.495 102.342 12.6772C102.529 12.855 102.622 13.0737 102.622 13.3335C102.622 13.5887 102.529 13.8075 102.342 13.9897Z" fill="white"/>
<path d="M106.811 21.2837C107.299 21.2837 107.709 21.1401 108.041 20.853C108.379 20.5614 108.547 20.1991 108.547 19.7661V19.2124L106.872 19.3149C106.462 19.3423 106.143 19.4448 105.915 19.6226C105.692 19.7957 105.58 20.0259 105.58 20.313C105.58 20.6092 105.692 20.8462 105.915 21.0239C106.143 21.1971 106.442 21.2837 106.811 21.2837ZM106.298 22.5688C105.592 22.5688 105.011 22.366 104.555 21.9604C104.104 21.5549 103.878 21.0285 103.878 20.3813C103.878 19.7388 104.115 19.2306 104.589 18.8569C105.068 18.4832 105.749 18.269 106.633 18.2144L108.547 18.105V17.5854C108.547 17.2072 108.426 16.9132 108.185 16.7036C107.948 16.494 107.618 16.3892 107.194 16.3892C106.797 16.3892 106.474 16.478 106.223 16.6558C105.972 16.8335 105.82 17.075 105.765 17.3804H104.186C104.222 16.6922 104.516 16.134 105.068 15.7056C105.624 15.2726 106.355 15.0562 107.262 15.0562C108.16 15.0562 108.878 15.2749 109.415 15.7124C109.958 16.1499 110.229 16.7332 110.229 17.4624V22.4526H108.588V21.2974H108.554C108.349 21.6847 108.039 21.9946 107.624 22.2271C107.21 22.4549 106.768 22.5688 106.298 22.5688Z" fill="white"/>
<defs>
<clipPath id="clip0_206_10">
<rect width="35" height="35" fill="white"/>
</clipPath>
</defs>
</svg>
