<svg width="133" height="40" viewBox="0 0 133 40" fill="none" xmlns="http://www.w3.org/2000/svg">
<path fill-rule="evenodd" clip-rule="evenodd" d="M0 25.2632C0 26.4783 0.690895 27.569 1.87941 27.569C4.13604 27.569 5.63671 26.9018 7.55017 25.998C9.65713 25.0029 11.3751 23.9894 13.3734 22.7768C13.8695 22.4756 14.5305 22.1687 14.6396 21.7543C13.7394 21.8301 9.22502 23.9356 7.08726 22.8922C4.64711 21.7011 9.38511 15.7599 10.0751 14.8225L11.7452 12.8056C11.9791 12.5464 12.1708 12.4781 12.4409 12.2074C15.6628 8.9759 25.6442 0.850147 30.105 3.27352C30.3853 3.42587 30.5582 3.57383 30.807 3.76509C31.0929 3.98494 31.2013 4.21512 31.5545 4.31075C32.2393 2.99937 32.6554 0 29.9718 0C26.661 0 22.6316 2.42007 19.7839 3.91041C18.5919 4.53434 16.6594 5.75559 15.5296 6.51604C13.8329 7.65792 10.3109 10.3436 8.87773 11.8044C8.57252 12.1157 8.3402 12.378 8.01243 12.6315C7.68944 12.8813 7.44388 13.1503 7.14496 13.4566C6.83108 13.778 6.69268 14.0242 6.35602 14.3613C4.35709 16.3623 0.000216922 22.2069 0.000216922 25.263L0 25.2632Z" fill="#77BCFF"/>
<path fill-rule="evenodd" clip-rule="evenodd" d="M18.1999 19.6489C18.4656 19.7736 18.5782 19.6656 18.8769 19.5383L21.129 18.6075C22.0344 18.2876 25.6386 17.1765 26.639 18.3138C27.9158 19.7654 26.3731 22.7802 25.6184 23.859L23.862 25.9886C23.4253 26.4255 23.3232 26.6921 22.6277 27.3442L19.9036 29.7964C19.6728 30.0004 19.4351 30.1985 19.2032 30.3897C16.6745 32.4767 11.5428 36.1724 8.66231 37.9522C8.16621 38.2589 5.74514 39.7141 5.53864 39.9994C6.52129 39.9994 9.13758 38.4763 10.0228 38.0279C12.338 36.8548 16.2875 34.6954 18.4171 33.3023C19.1097 32.8489 19.7218 32.4884 20.4158 32.0197C21.1028 31.5554 21.7088 31.1381 22.3542 30.676C23.6197 29.7698 24.8201 28.7732 26.0288 27.7837C26.2024 27.6416 26.2653 27.5473 26.4397 27.3978C28.6753 25.4814 30.6775 23.3823 32.2059 20.8108C33.0176 19.4451 35.3343 14.4684 32.4345 13.4424C30.1087 12.6195 25.8232 14.8965 24.2295 15.8346L21.1483 17.6241C20.6325 17.9539 18.4322 19.3273 18.1999 19.6487V19.6489Z" fill="white"/>
<path fill-rule="evenodd" clip-rule="evenodd" d="M29.18 8.92233C29.18 10.1185 30.4095 11.0687 31.4928 11.3903C35.4013 12.5505 38.9306 9.10832 35.7911 7.03407C33.4295 5.4736 29.1798 6.58448 29.1798 8.92233H29.18Z" fill="white"/>
<g clip-path="url(#clip0)">
<path d="M49.9346 15.7435C49.33 15.5087 48.9673 15.1565 48.6046 14.687C48.2418 14.2174 48 13.7478 48 13.0435H50.66C50.66 13.3957 50.7809 13.7478 51.0228 13.8652C51.2646 14.1 51.5064 14.2174 51.8691 14.2174C52.2319 14.2174 52.4737 14.1 52.7155 13.9826C52.9573 13.8652 53.0782 13.6304 53.0782 13.2783C53.0782 13.0435 52.9573 12.8087 52.8364 12.6913C52.7155 12.5739 52.4737 12.3391 52.2319 12.2217C51.99 12.1043 51.6273 12.1043 51.1437 11.8696C50.5391 11.6348 49.9346 11.5174 49.5718 11.2826C49.2091 11.0478 48.7255 10.813 48.4836 10.4609C48.1209 10.1087 48 9.52174 48 8.93478C48 7.99565 48.3627 7.2913 49.0882 6.82174C49.6927 6.23478 50.66 6 51.7482 6C52.8364 6 53.8037 6.23478 54.4083 6.82174C55.1337 7.2913 55.4964 8.11304 55.4964 9.05217H52.8364C52.8364 8.58261 52.7155 8.34783 52.4737 8.23043C52.2319 7.99565 51.99 7.87826 51.6273 7.87826C51.3855 7.87826 51.1437 7.99565 50.9018 8.11304C50.7809 8.34783 50.66 8.58261 50.66 8.81739C50.66 9.16957 50.7809 9.40435 51.1437 9.52174C51.5064 9.63913 51.99 9.87391 52.5946 10.1087C53.1991 10.3435 53.8037 10.5783 54.1664 10.6957C54.5292 10.9304 54.8919 11.2826 55.2546 11.6348C55.6174 11.987 55.7383 12.4565 55.7383 13.0435C55.7383 13.6304 55.4964 14.2174 55.2546 14.5696C55.0128 14.9217 54.5292 15.3913 53.9246 15.7435C53.3201 15.9783 52.7155 16.0957 51.99 16.0957C51.2646 16.0957 50.5391 15.9783 49.9346 15.7435Z" fill="white"/>
<path d="M59.3656 15.5087C58.6401 15.0391 57.9146 14.4522 57.5519 13.6304C57.0683 12.9261 56.8264 11.987 56.8264 11.0478C56.8264 10.1087 57.0683 9.16956 57.5519 8.46522C58.0356 7.64348 58.6401 7.05652 59.4865 6.70435C60.3328 6.35217 61.0583 6 62.0256 6C62.9929 6 63.8392 6.23478 64.6856 6.70435C65.532 7.17391 66.1365 7.76087 66.6202 8.46522C67.1038 9.16956 67.3456 10.1087 67.3456 11.0478C67.3456 11.987 67.1038 12.9261 66.6202 13.6304C66.1365 14.4522 65.532 15.0391 64.6856 15.3913C63.8392 15.8609 62.9929 16.0957 62.0256 16.0957C61.0583 16.0957 60.2119 15.8609 59.3656 15.5087ZM63.9602 13.1609C64.4438 12.6913 64.6856 11.987 64.6856 11.0478C64.6856 10.2261 64.4438 9.52174 63.9602 8.93478C63.4765 8.46522 62.872 8.11304 62.0256 8.11304C61.1792 8.11304 60.5747 8.34783 60.091 8.93478C59.6074 9.52174 59.3656 10.2261 59.3656 11.0478C59.3656 11.8696 59.6074 12.5739 60.091 13.1609C60.5747 13.6304 61.1792 13.9826 62.0256 13.9826C62.872 13.9826 63.4765 13.6304 63.9602 13.1609Z" fill="white"/>
<path d="M75.2048 6.11743V7.99569H71.0939V10.1087H74.2375V11.987H71.0939V15.9783H68.5547V6.11743H75.2048Z" fill="white"/>
<path d="M83.9104 6.11743V7.99569H81.2504V15.9783H78.7112V8.11308H76.0512V6.11743H83.9104Z" fill="white"/>
<path d="M99.1451 6.11743L96.485 15.9783H93.4623L91.8905 9.52178L90.1977 15.9783H87.175L84.6358 6.11743H87.2959L88.7468 13.2783L90.5604 6.11743H93.3414L95.0341 13.2783L96.485 6.11743H99.1451Z" fill="white"/>
<path d="M106.762 14.3349H103.014L102.41 16.0957H99.8705L103.498 6.23486H106.4L110.027 16.0957H107.367L106.762 14.3349ZM106.037 12.4566L104.828 8.81747L103.619 12.4566H106.037Z" fill="white"/>
<path d="M116.314 15.9783L114.138 12.2218H113.533V15.9783H110.994V6.11743H115.105C115.952 6.11743 116.556 6.23482 117.161 6.46961C117.765 6.70439 118.128 7.05656 118.37 7.64352C118.612 8.11308 118.733 8.70004 118.733 9.16961C118.733 9.87395 118.491 10.4609 118.128 10.9305C117.765 11.4 117.161 11.8696 116.435 11.987L118.733 15.8609H116.314V15.9783ZM113.533 10.5783H115.105C115.589 10.5783 115.952 10.4609 116.073 10.2261C116.314 9.99134 116.435 9.75656 116.435 9.287C116.435 8.93482 116.314 8.58265 116.073 8.34787C115.831 8.11308 115.468 7.99569 115.105 7.99569H113.533V10.5783Z" fill="white"/>
<path d="M123.085 8.11308V10.1087H126.35V11.987H123.085V14.1H126.834V15.9783H120.546V6.11743H126.834V7.99569H123.085V8.11308Z" fill="white"/>
<path d="M50.7809 23.0217V32.8826H48.2418V23.0217H50.7809Z" fill="white"/>
<path d="M61.6629 32.8826H59.2447L55.1337 26.7783V32.8826H52.5946V23.0217H55.1337L59.2447 29.1261V23.0217H61.7838V32.8826H61.6629Z" fill="white"/>
<path d="M63.7184 25.3696C64.202 24.5478 64.8065 23.9609 65.532 23.6087C66.2575 23.1391 67.2248 23.0217 68.192 23.0217C69.4011 23.0217 70.4893 23.3739 71.3357 23.9609C72.1821 24.5478 72.7866 25.3696 73.0285 26.5435H70.2475C70.0057 26.0739 69.7639 25.8391 69.4011 25.6043C69.0384 25.3696 68.5548 25.2522 68.192 25.2522C67.4666 25.2522 66.862 25.4869 66.3784 26.0739C65.8947 26.5435 65.6529 27.2478 65.6529 28.1869C65.6529 29.0087 65.8947 29.713 66.3784 30.3C66.862 30.7696 67.4666 31.1217 68.192 31.1217C68.6757 31.1217 69.0384 31.0043 69.4011 30.7696C69.7639 30.5348 70.0057 30.1826 70.2475 29.8304H73.0285C72.7866 30.8869 72.1821 31.7087 71.3357 32.413C70.4893 33 69.4011 33.3522 68.192 33.3522C67.2248 33.3522 66.3784 33.1174 65.532 32.7652C64.8065 32.2956 64.202 31.7087 63.7184 31.0043C63.2347 30.3 63.1138 29.3609 63.1138 28.4217C63.1138 27.4826 63.2347 26.0739 63.7184 25.3696Z" fill="white"/>
<path d="M77.0185 23.0217V28.8913C77.0185 29.4783 77.1394 29.9478 77.5021 30.3C77.744 30.6522 78.2276 30.7696 78.8321 30.7696C79.4367 30.7696 79.7994 30.6522 80.1622 30.3C80.5249 29.9478 80.6458 29.4783 80.6458 28.8913V23.0217H83.064V28.8913C83.064 29.8304 82.8222 30.5348 82.4595 31.1217C82.0967 31.7087 81.4922 32.1783 80.8876 32.5304C80.2831 32.8826 79.5576 33 78.7112 33C77.8649 33 77.1394 32.8826 76.5348 32.5304C75.9303 32.1783 75.4467 31.7087 75.0839 31.1217C74.7212 30.5348 74.4794 29.713 74.4794 28.8913V23.0217H77.0185Z" fill="white"/>
<path d="M92.3741 28.7739C92.7369 29.2435 92.8578 29.7131 92.8578 30.3C92.8578 31.1218 92.616 31.8261 92.0114 32.2957C91.4069 32.7652 90.5605 33 89.4723 33H84.7568V23.1392H89.3514C90.4396 23.1392 91.165 23.3739 91.7696 23.8435C92.3741 24.3131 92.616 24.9 92.616 25.7218C92.616 26.3087 92.495 26.7783 92.1323 27.1305C91.7696 27.4826 91.4068 27.8348 90.9232 27.9522C91.5278 27.9522 92.0114 28.3044 92.3741 28.7739ZM87.2959 27.0131H88.8677C89.2305 27.0131 89.5932 26.8957 89.835 26.7783C90.0768 26.6609 90.1977 26.3087 90.1977 25.9566C90.1977 25.6044 90.0768 25.3696 89.835 25.1348C89.5932 24.9 89.3514 24.9 88.8677 24.9H87.2959V27.0131ZM90.0768 30.7696C90.3187 30.5348 90.4396 30.3 90.4396 29.9479C90.4396 29.5957 90.3187 29.3609 90.0768 29.1261C89.835 28.8913 89.4723 28.7739 89.1096 28.7739H87.2959V31.0044H89.1096C89.4723 31.0044 89.835 30.887 90.0768 30.7696Z" fill="white"/>
<path d="M100.717 31.2392H96.9687L96.3642 33H93.825L97.4524 23.1392H100.354L103.982 33H101.321L100.717 31.2392ZM99.9915 29.3609L98.7824 25.7218L97.5733 29.3609H99.9915Z" fill="white"/>
<path d="M112.324 23.0217V24.9H109.664V32.8826H107.125V24.9H104.465V23.0217H112.324Z" fill="white"/>
<path d="M115.831 32.413C114.984 31.9435 114.38 31.3565 113.896 30.6522C113.413 29.8304 113.171 29.0087 113.171 28.0696C113.171 27.1304 113.413 26.1913 113.896 25.4869C114.38 24.6652 114.984 24.0783 115.831 23.7261C116.677 23.3739 117.523 23.0217 118.491 23.0217C119.458 23.0217 120.304 23.2565 121.151 23.7261C121.997 24.1956 122.602 24.7826 123.085 25.4869C123.569 26.1913 123.811 27.1304 123.811 28.0696C123.811 29.0087 123.569 29.9478 123.085 30.6522C122.602 31.3565 121.997 32.0609 121.151 32.413C120.304 32.7652 119.337 33 118.37 33C117.403 33 116.556 32.7652 115.831 32.413ZM120.304 30.0652C120.788 29.5956 121.03 28.8913 121.03 27.9522C121.03 27.1304 120.788 26.4261 120.304 25.8391C119.821 25.3696 119.216 25.0174 118.37 25.0174C117.523 25.0174 116.919 25.2522 116.435 25.8391C115.952 26.3087 115.71 27.013 115.71 27.9522C115.71 28.7739 115.952 29.4783 116.435 30.0652C116.919 30.5348 117.523 30.8869 118.37 30.8869C119.216 30.8869 119.821 30.5348 120.304 30.0652Z" fill="white"/>
<path d="M130.219 32.8826L128.043 29.1261H127.438V32.8826H124.899V23.0217H129.01C129.856 23.0217 130.461 23.1391 131.065 23.3739C131.67 23.6087 132.033 24.0783 132.275 24.5478C132.516 25.0174 132.637 25.6043 132.637 26.0739C132.637 26.7783 132.395 27.3652 132.033 27.8348C131.67 28.3043 131.065 28.7739 130.34 28.8913L132.637 32.7652H130.219V32.8826ZM127.438 27.4826H129.01C129.494 27.4826 129.856 27.3652 129.977 27.1304C130.219 26.8956 130.34 26.6609 130.34 26.1913C130.34 25.8391 130.219 25.4869 129.977 25.2522C129.735 25.0174 129.373 24.9 129.01 24.9H127.438V27.4826Z" fill="white"/>
</g>
<defs>
<clipPath id="clip0">
<rect width="85" height="27" fill="white" transform="translate(48 6)"/>
</clipPath>
</defs>
</svg>
