<svg width="644" height="32" viewBox="0 0 644 32" fill="none" xmlns="http://www.w3.org/2000/svg">
<g clip-path="url(#clip0)">
<path d="M0 12.4445C0 8.08848 0 5.9105 0.847727 4.24674C1.59341 2.78326 2.78326 1.59341 4.24674 0.847727C5.9105 0 8.08848 0 12.4444 0H631.555C635.911 0 638.089 0 639.753 0.847727C641.217 1.59341 642.407 2.78326 643.152 4.24674C644 5.9105 644 8.08848 644 12.4444V31.1111H0V12.4445Z" fill="#25334D"/>
<g clip-path="url(#clip1)">
<path d="M566.229 16.6239C566.557 16.6239 566.828 16.353 566.828 16.0305V9.54144L566.783 8.58679L567.176 9.05767L568.079 10.0188C568.182 10.1349 568.33 10.1929 568.478 10.1929C568.775 10.1929 569.02 9.98007 569.02 9.6769C569.02 9.51564 568.955 9.39953 568.846 9.28988L566.686 7.20641C566.532 7.0516 566.383 7 566.229 7C566.067 7 565.926 7.0516 565.771 7.20641L563.605 9.28988C563.496 9.39953 563.431 9.51564 563.431 9.6769C563.431 9.98007 563.67 10.1929 563.966 10.1929C564.114 10.1929 564.269 10.1349 564.372 10.0188L565.275 9.05767L565.674 8.58034L565.623 9.54144V16.0305C565.623 16.353 565.893 16.6239 566.229 16.6239ZM562.509 21.7778H569.935C571.334 21.7778 572.056 21.0553 572.056 19.675V13.3343C572.056 11.9539 571.334 11.2314 569.935 11.2314H568.195V12.5151H569.851C570.438 12.5151 570.773 12.8247 570.773 13.4439V19.5589C570.773 20.1781 570.438 20.4877 569.851 20.4877H562.593C562 20.4877 561.672 20.1781 561.672 19.5589V13.4439C561.672 12.8247 562 12.5151 562.593 12.5151H564.269V11.2314H562.509C561.117 11.2314 560.389 11.9474 560.389 13.3343V19.675C560.389 21.0553 561.117 21.7778 562.509 21.7778Z" fill="#B7B7B7"/>
<path d="M593.444 20.2223C593.854 20.2223 594.186 19.8896 594.186 19.5121V15.5072H598.154C598.551 15.5072 598.889 15.1809 598.889 14.7778C598.889 14.3812 598.551 14.0485 598.154 14.0485H594.186V10.0435C594.186 9.65966 593.854 9.33337 593.444 9.33337C593.041 9.33337 592.703 9.65966 592.703 10.0435V14.0485H588.735C588.351 14.0485 588 14.3812 588 14.7778C588 15.1809 588.351 15.5072 588.735 15.5072H592.703V19.5121C592.703 19.8896 593.041 20.2223 593.444 20.2223Z" fill="#B7B7B7"/>
<path d="M617.344 18.6938H618.44V19.6675C618.44 21.0475 619.169 21.7698 620.562 21.7698H627.101C628.493 21.7698 629.222 21.0475 629.222 19.6675V13.0834C629.222 11.7034 628.493 10.9812 627.101 10.9812H626.004V10.0139C626.004 8.63387 625.276 7.91162 623.883 7.91162H617.344C615.944 7.91162 615.222 8.63387 615.222 10.0139V16.5915C615.222 17.978 615.944 18.6938 617.344 18.6938ZM617.428 17.4105C616.834 17.4105 616.505 17.1009 616.505 16.4754V10.13C616.505 9.50444 616.834 9.20135 617.428 9.20135H623.799C624.386 9.20135 624.721 9.50444 624.721 10.13V10.9812H620.562C619.169 10.9812 618.44 11.7034 618.44 13.0834V17.4105H617.428ZM620.645 20.48C620.052 20.48 619.73 20.1705 619.73 19.5514V13.1995C619.73 12.5804 620.052 12.2709 620.645 12.2709H627.017C627.61 12.2709 627.939 12.5804 627.939 13.1995V19.5514C627.939 20.1705 627.61 20.48 627.017 20.48H620.645Z" fill="#B7B7B7"/>
</g>
<g clip-path="url(#clip2)">
<path d="M78.3463 21.3999H89.3928C90.7937 21.3999 91.5233 20.6769 91.5233 19.2952V11.4381C91.5233 10.0565 90.7937 9.33337 89.3928 9.33337H78.3463C76.9517 9.33337 76.2222 10.05 76.2222 11.4381V19.2952C76.2222 20.6769 76.9517 21.3999 78.3463 21.3999ZM78.4302 20.1152C77.8362 20.1152 77.507 19.8053 77.507 19.179V11.5543C77.507 10.928 77.8362 10.6182 78.4302 10.6182H81.3742V20.1152H78.4302ZM89.3088 10.6182C89.9028 10.6182 90.2321 10.928 90.2321 11.5543V19.179C90.2321 19.8053 89.9028 20.1152 89.3088 20.1152H82.5944V10.6182H89.3088ZM80.1088 12.9811C80.3412 12.9811 80.5349 12.781 80.5349 12.5615C80.5349 12.3419 80.3412 12.1483 80.1088 12.1483H78.7853C78.5529 12.1483 78.3592 12.3419 78.3592 12.5615C78.3592 12.781 78.5529 12.9811 78.7853 12.9811H80.1088ZM80.1088 14.7178C80.3412 14.7178 80.5349 14.5241 80.5349 14.2982C80.5349 14.0787 80.3412 13.885 80.1088 13.885H78.7853C78.5529 13.885 78.3592 14.0787 78.3592 14.2982C78.3592 14.5241 78.5529 14.7178 78.7853 14.7178H80.1088ZM80.1088 16.4481C80.3412 16.4481 80.5349 16.2608 80.5349 16.0349C80.5349 15.8154 80.3412 15.6281 80.1088 15.6281H78.7853C78.5529 15.6281 78.3592 15.8154 78.3592 16.0349C78.3592 16.2608 78.5529 16.4481 78.7853 16.4481H80.1088Z" fill="#B7B7B7"/>
<path d="M116.199 20.2952L111.471 15.6711C111.307 15.507 111.222 15.3247 111.222 15.112C111.222 14.8994 111.307 14.7049 111.477 14.5469L116.205 9.92889C116.339 9.79521 116.509 9.72229 116.703 9.72229C117.11 9.72229 117.426 10.0383 117.426 10.4393C117.426 10.6337 117.347 10.8221 117.207 10.9619L112.954 15.106L117.207 19.2622C117.347 19.402 117.426 19.5843 117.426 19.7848C117.426 20.1858 117.11 20.5018 116.703 20.5018C116.509 20.5018 116.339 20.4289 116.199 20.2952Z" fill="#B7B7B7"/>
<path d="M139.556 20.5018C139.757 20.5018 139.921 20.4289 140.061 20.2952L144.788 15.6772C144.952 15.507 145.037 15.3308 145.037 15.112C145.037 14.8994 144.958 14.711 144.788 14.553L140.061 9.92889C139.921 9.79521 139.757 9.72229 139.556 9.72229C139.149 9.72229 138.833 10.0383 138.833 10.4393C138.833 10.6337 138.918 10.8221 139.052 10.9619L143.312 15.1181L139.052 19.2622C138.912 19.4081 138.833 19.5843 138.833 19.7848C138.833 20.1858 139.149 20.5018 139.556 20.5018Z" fill="#5A5A5A"/>
</g>
<g clip-path="url(#clip3)">
<circle cx="20.2222" cy="15.5556" r="4.66667" fill="#ED6A5E"/>
<circle cx="20.2222" cy="15.5556" r="4.27778" stroke="black" stroke-opacity="0.1" stroke-width="0.777778"/>
<circle cx="35.7778" cy="15.5556" r="4.66667" fill="#F4BD50"/>
<circle cx="35.7778" cy="15.5556" r="4.27778" stroke="black" stroke-opacity="0.1" stroke-width="0.777778"/>
<circle cx="51.3333" cy="15.5556" r="4.66667" fill="#61C454"/>
<circle cx="51.3333" cy="15.5556" r="4.27778" stroke="black" stroke-opacity="0.1" stroke-width="0.777778"/>
</g>
<path d="M220.889 21.7778C221.005 21.7778 221.178 21.7388 221.339 21.6478C225.046 19.6141 226.333 18.672 226.333 16.3069V11.4014C226.333 10.6217 226.031 10.3423 225.387 10.0629C224.673 9.75756 222.272 8.9129 221.571 8.6725C221.359 8.60102 221.108 8.55554 220.889 8.55554C220.67 8.55554 220.419 8.61402 220.207 8.6725C219.505 8.87391 217.105 9.76406 216.39 10.0629C215.747 10.3358 215.444 10.6217 215.444 11.4014V16.3069C215.444 18.672 216.738 19.6011 220.432 21.6478C220.599 21.7388 220.773 21.7778 220.889 21.7778ZM221.236 9.86802C222.079 10.2059 223.914 10.8621 224.879 11.2065C225.059 11.278 225.104 11.3754 225.104 11.6093V16.0665C225.104 17.9703 224.158 18.4836 221.256 20.2509C221.075 20.3613 220.985 20.4003 220.895 20.4003V9.79655C220.985 9.79655 221.082 9.81604 221.236 9.86802Z" fill="#B7B7B7"/>
<g clip-path="url(#clip4)">
<path d="M234.111 12.1333C234.111 9.51971 234.111 8.21292 234.62 7.21467C235.067 6.33658 235.781 5.62267 236.659 5.17526C237.657 4.66663 238.964 4.66663 241.578 4.66663H402.422C405.036 4.66663 406.343 4.66663 407.341 5.17526C408.219 5.62267 408.933 6.33658 409.38 7.21467C409.889 8.21292 409.889 9.51971 409.889 12.1333V18.9777C409.889 21.5913 409.889 22.8981 409.38 23.8964C408.933 24.7744 408.219 25.4884 407.341 25.9358C406.343 26.4444 405.036 26.4444 402.422 26.4444H241.578C238.964 26.4444 237.657 26.4444 236.659 25.9358C235.781 25.4884 235.067 24.7744 234.62 23.8964C234.111 22.8981 234.111 21.5913 234.111 18.9777V12.1333Z" fill="#3C5175"/>
<path d="M281.823 13.7804L280.136 19.9445H278.817L277.523 15.3273H277.493L276.21 19.9445H274.903L273.21 13.7804H274.476L275.601 18.632H275.624L276.907 13.7804H278.126L279.415 18.632H279.444L280.569 13.7804H281.823ZM290.73 13.7804L289.042 19.9445H287.724L286.429 15.3273H286.399L285.116 19.9445H283.81L282.116 13.7804H283.382L284.507 18.632H284.53L285.814 13.7804H287.032L288.321 18.632H288.351L289.476 13.7804H290.73ZM299.636 13.7804L297.948 19.9445H296.63L295.335 15.3273H295.306L294.023 19.9445H292.716L291.023 13.7804H292.288L293.413 18.632H293.437L294.72 13.7804H295.939L297.228 18.632H297.257L298.382 13.7804H299.636ZM301.2 19.7863C301.052 19.9347 300.87 20.0089 300.655 20.0089C300.441 20.0089 300.259 19.9347 300.11 19.7863C299.962 19.6378 299.888 19.4562 299.888 19.2413C299.888 19.0265 299.962 18.8448 300.11 18.6964C300.259 18.548 300.441 18.4738 300.655 18.4738C300.87 18.4738 301.052 18.548 301.2 18.6964C301.349 18.8448 301.423 19.0265 301.423 19.2413C301.423 19.4562 301.349 19.6378 301.2 19.7863ZM305.015 19.048C305.46 19.048 305.833 18.9132 306.134 18.6437C306.439 18.3702 306.591 18.0343 306.591 17.6359V17.1495L305.073 17.2433C304.694 17.2706 304.401 17.3644 304.194 17.5245C303.991 17.6808 303.89 17.8917 303.89 18.1573C303.89 18.4269 303.991 18.6437 304.194 18.8077C304.401 18.9679 304.675 19.048 305.015 19.048ZM304.663 20.0499C304.058 20.0499 303.564 19.8781 303.181 19.5343C302.802 19.1906 302.612 18.7433 302.612 18.1925C302.612 17.6534 302.812 17.2257 303.21 16.9093C303.608 16.589 304.173 16.4093 304.903 16.3702L306.591 16.2706V15.796C306.591 15.4523 306.482 15.1847 306.263 14.9933C306.044 14.798 305.741 14.7003 305.355 14.7003C304.995 14.7003 304.702 14.7804 304.476 14.9406C304.253 15.1007 304.112 15.3214 304.054 15.6027H302.858C302.894 15.0323 303.14 14.5675 303.597 14.2081C304.054 13.8488 304.655 13.6691 305.401 13.6691C306.148 13.6691 306.741 13.8527 307.183 14.2198C307.628 14.587 307.851 15.0792 307.851 15.6964V19.9445H306.638V18.9308H306.608C306.433 19.2706 306.165 19.5421 305.806 19.7452C305.45 19.9484 305.069 20.0499 304.663 20.0499ZM309.691 22.2413C309.452 22.2413 309.28 22.2316 309.175 22.212V21.1866C309.237 21.2023 309.374 21.2101 309.585 21.2101C309.882 21.2101 310.114 21.1417 310.282 21.005C310.45 20.8722 310.583 20.6476 310.681 20.3312C310.681 20.3273 310.7 20.2628 310.739 20.1378L310.792 19.9503L308.566 13.7804H309.937L311.501 18.796H311.519L313.083 13.7804H314.419L312.105 20.2667C311.843 21.0128 311.536 21.5284 311.185 21.8136C310.833 22.0988 310.335 22.2413 309.691 22.2413ZM320.448 13.7804V19.9445H319.235V18.9015H319.206C318.851 19.671 318.214 20.0558 317.296 20.0558C316.624 20.0558 316.095 19.8527 315.708 19.4464C315.325 19.0363 315.134 18.4777 315.134 17.7706V13.7804H316.399V17.5245C316.399 17.9972 316.511 18.3566 316.733 18.6027C316.956 18.8448 317.284 18.9659 317.718 18.9659C318.171 18.9659 318.528 18.8214 318.79 18.5323C319.052 18.2433 319.183 17.8566 319.183 17.3722V13.7804H320.448ZM321.591 15.5265C321.591 14.9757 321.814 14.5284 322.259 14.1847C322.704 13.8409 323.286 13.6691 324.005 13.6691C324.689 13.6691 325.249 13.8429 325.687 14.1906C326.128 14.5343 326.358 14.9816 326.378 15.5323H325.189C325.157 15.2511 325.034 15.0304 324.819 14.8702C324.605 14.7101 324.321 14.63 323.97 14.63C323.626 14.63 323.349 14.7062 323.138 14.8585C322.931 15.0109 322.827 15.2081 322.827 15.4503C322.827 15.8253 323.142 16.0909 323.771 16.2472L324.808 16.4874C325.429 16.6359 325.868 16.839 326.126 17.0968C326.388 17.3507 326.519 17.7062 326.519 18.1632C326.519 18.7257 326.28 19.1827 325.804 19.5343C325.331 19.8859 324.716 20.0616 323.958 20.0616C323.235 20.0616 322.646 19.8898 322.189 19.546C321.735 19.2023 321.483 18.7452 321.433 18.1749H322.687C322.737 18.4718 322.876 18.7003 323.103 18.8605C323.329 19.0167 323.634 19.0948 324.017 19.0948C324.396 19.0948 324.694 19.0226 324.913 18.8781C325.136 18.7296 325.247 18.5304 325.247 18.2804C325.247 18.0812 325.181 17.923 325.048 17.8058C324.915 17.6886 324.689 17.589 324.368 17.507L323.267 17.2374C322.149 16.9679 321.591 16.3976 321.591 15.5265ZM327.55 19.9445V11.4894H328.804V14.8116H328.833C329.005 14.4484 329.257 14.1691 329.589 13.9738C329.921 13.7745 330.319 13.6749 330.784 13.6749C331.456 13.6749 331.983 13.882 332.366 14.296C332.753 14.7101 332.946 15.2687 332.946 15.9718V19.9445H331.675V16.2179C331.675 15.757 331.56 15.3995 331.329 15.1456C331.103 14.8917 330.769 14.7648 330.327 14.7648C329.862 14.7648 329.493 14.9132 329.22 15.2101C328.95 15.5031 328.816 15.8937 328.816 16.382V19.9445H327.55ZM334.06 15.5265C334.06 14.9757 334.282 14.5284 334.728 14.1847C335.173 13.8409 335.755 13.6691 336.474 13.6691C337.157 13.6691 337.718 13.8429 338.155 14.1906C338.597 14.5343 338.827 14.9816 338.847 15.5323H337.657C337.626 15.2511 337.503 15.0304 337.288 14.8702C337.073 14.7101 336.79 14.63 336.439 14.63C336.095 14.63 335.817 14.7062 335.607 14.8585C335.399 15.0109 335.296 15.2081 335.296 15.4503C335.296 15.8253 335.61 16.0909 336.239 16.2472L337.276 16.4874C337.898 16.6359 338.337 16.839 338.595 17.0968C338.857 17.3507 338.987 17.7062 338.987 18.1632C338.987 18.7257 338.749 19.1827 338.273 19.5343C337.8 19.8859 337.185 20.0616 336.427 20.0616C335.704 20.0616 335.114 19.8898 334.657 19.546C334.204 19.2023 333.952 18.7452 333.901 18.1749H335.155C335.206 18.4718 335.345 18.7003 335.571 18.8605C335.798 19.0167 336.103 19.0948 336.485 19.0948C336.864 19.0948 337.163 19.0226 337.382 18.8781C337.605 18.7296 337.716 18.5304 337.716 18.2804C337.716 18.0812 337.649 17.923 337.517 17.8058C337.384 17.6886 337.157 17.589 336.837 17.507L335.735 17.2374C334.618 16.9679 334.06 16.3976 334.06 15.5265ZM340.013 19.9445V13.7804H341.278V19.9445H340.013ZM341.167 12.6671C341.023 12.8077 340.849 12.8781 340.646 12.8781C340.442 12.8781 340.269 12.8077 340.124 12.6671C339.983 12.5265 339.913 12.3566 339.913 12.1573C339.913 11.9542 339.983 11.7823 340.124 11.6417C340.269 11.5011 340.442 11.4308 340.646 11.4308C340.853 11.4308 341.026 11.5011 341.167 11.6417C341.312 11.7823 341.384 11.9542 341.384 12.1573C341.384 12.3566 341.312 12.5265 341.167 12.6671ZM342.573 19.9445V13.7804H343.78V14.8116H343.81C343.982 14.4523 344.232 14.173 344.56 13.9738C344.888 13.7745 345.284 13.6749 345.749 13.6749C346.425 13.6749 346.95 13.8781 347.325 14.2843C347.7 14.6866 347.888 15.2433 347.888 15.9542V19.9445H346.616V16.2003C346.616 15.7316 346.505 15.3761 346.282 15.1339C346.064 14.8878 345.737 14.7648 345.304 14.7648C344.858 14.7648 344.503 14.9093 344.237 15.1984C343.972 15.4874 343.839 15.8722 343.839 16.3527V19.9445H342.573ZM351.737 18.9191C352.233 18.9191 352.63 18.7316 352.927 18.3566C353.228 17.9816 353.378 17.4777 353.378 16.8448C353.378 16.212 353.228 15.7042 352.927 15.3214C352.63 14.9386 352.233 14.7472 351.737 14.7472C351.249 14.7472 350.858 14.9366 350.566 15.3156C350.276 15.6945 350.132 16.2042 350.132 16.8448C350.132 17.4855 350.276 17.9913 350.566 18.3624C350.858 18.7335 351.249 18.9191 351.737 18.9191ZM351.749 22.2648C351.03 22.2648 350.421 22.0929 349.921 21.7491C349.425 21.4054 349.138 20.964 349.06 20.4249H350.331C350.421 20.6827 350.597 20.8898 350.858 21.046C351.124 21.2023 351.437 21.2804 351.796 21.2804C352.284 21.2804 352.669 21.1515 352.95 20.8937C353.232 20.6398 353.372 20.2999 353.372 19.8741V18.8605H353.349C353.173 19.2003 352.911 19.4698 352.564 19.6691C352.22 19.8683 351.831 19.9679 351.398 19.9679C350.62 19.9679 349.999 19.6866 349.534 19.1241C349.069 18.5577 348.837 17.796 348.837 16.839C348.837 15.8702 349.069 15.1027 349.534 14.5363C350.003 13.9659 350.634 13.6808 351.427 13.6808C351.86 13.6808 352.249 13.7843 352.593 13.9913C352.937 14.1945 353.202 14.4757 353.39 14.8351H353.413V13.7804H354.644V19.8331C354.644 20.5675 354.38 21.1554 353.853 21.5968C353.329 22.0421 352.628 22.2648 351.749 22.2648ZM355.944 19.9445V11.4894H357.198V14.8116H357.228C357.399 14.4484 357.651 14.1691 357.983 13.9738C358.316 13.7745 358.714 13.6749 359.179 13.6749C359.851 13.6749 360.378 13.882 360.761 14.296C361.148 14.7101 361.341 15.2687 361.341 15.9718V19.9445H360.069V16.2179C360.069 15.757 359.954 15.3995 359.724 15.1456C359.497 14.8917 359.163 14.7648 358.722 14.7648C358.257 14.7648 357.888 14.9132 357.614 15.2101C357.345 15.5031 357.21 15.8937 357.21 16.382V19.9445H355.944ZM364.06 19.7863C363.911 19.9347 363.73 20.0089 363.515 20.0089C363.3 20.0089 363.118 19.9347 362.97 19.7863C362.821 19.6378 362.747 19.4562 362.747 19.2413C362.747 19.0265 362.821 18.8448 362.97 18.6964C363.118 18.548 363.3 18.4738 363.515 18.4738C363.73 18.4738 363.911 18.548 364.06 18.6964C364.208 18.8448 364.282 19.0265 364.282 19.2413C364.282 19.4562 364.208 19.6378 364.06 19.7863ZM365.718 19.9445V13.7804H366.925V14.8116H366.954C367.126 14.4523 367.376 14.173 367.704 13.9738C368.032 13.7745 368.429 13.6749 368.894 13.6749C369.569 13.6749 370.095 13.8781 370.47 14.2843C370.845 14.6866 371.032 15.2433 371.032 15.9542V19.9445H369.761V16.2003C369.761 15.7316 369.649 15.3761 369.427 15.1339C369.208 14.8878 368.882 14.7648 368.448 14.7648C368.003 14.7648 367.648 14.9093 367.382 15.1984C367.116 15.4874 366.983 15.8722 366.983 16.3527V19.9445H365.718ZM375.907 15.1339C375.63 14.837 375.273 14.6886 374.835 14.6886C374.398 14.6886 374.034 14.839 373.745 15.1398C373.456 15.4366 373.296 15.8214 373.265 16.2941H376.347C376.331 15.8175 376.185 15.4308 375.907 15.1339ZM376.341 18.1339H377.542C377.452 18.7003 377.163 19.1632 376.675 19.5226C376.187 19.882 375.591 20.0616 374.888 20.0616C373.985 20.0616 373.274 19.7784 372.755 19.212C372.239 18.6417 371.982 17.8683 371.982 16.8917C371.982 15.923 372.239 15.1437 372.755 14.5538C373.274 13.964 373.968 13.6691 374.835 13.6691C375.687 13.6691 376.362 13.9484 376.862 14.507C377.362 15.0616 377.612 15.8077 377.612 16.7452V17.1788H373.259V17.255C373.259 17.7941 373.409 18.2257 373.71 18.5499C374.011 18.8741 374.413 19.0363 374.917 19.0363C375.273 19.0363 375.577 18.9542 375.831 18.7902C376.085 18.6261 376.255 18.4073 376.341 18.1339ZM378.966 12.3214H380.237V13.7804H381.409V14.7823H380.237V18.1808C380.237 18.4464 380.298 18.6417 380.419 18.7667C380.54 18.8917 380.73 18.9542 380.987 18.9542C381.175 18.9542 381.314 18.9445 381.403 18.9249V19.9269C381.247 19.9659 381.013 19.9855 380.7 19.9855C380.079 19.9855 379.634 19.8585 379.364 19.6046C379.099 19.3468 378.966 18.9191 378.966 18.3214V14.7823H378.069V13.7804H378.966V12.3214Z" fill="white"/>
<g clip-path="url(#clip5)">
<path d="M400.423 15.3474C400.556 15.3474 400.66 15.3064 400.742 15.2198L402.611 13.3376C402.711 13.2374 402.757 13.128 402.757 13.0004C402.757 12.8774 402.707 12.7589 402.611 12.6677L400.742 10.7673C400.66 10.6762 400.556 10.6306 400.423 10.6306C400.177 10.6306 399.981 10.8357 399.981 11.0863C399.981 11.2094 400.027 11.3097 400.104 11.3962L401.194 12.4626C400.979 12.4307 400.761 12.4125 400.542 12.4125C398.286 12.4125 396.481 14.2172 396.481 16.4776C396.481 18.738 398.3 20.5564 400.556 20.5564C402.816 20.5564 404.63 18.738 404.63 16.4776C404.63 16.2042 404.438 16.0082 404.165 16.0082C403.901 16.0082 403.723 16.2042 403.723 16.4776C403.723 18.2367 402.315 19.6495 400.556 19.6495C398.801 19.6495 397.388 18.2367 397.388 16.4776C397.388 14.7048 398.787 13.3012 400.542 13.3012C400.838 13.3012 401.112 13.324 401.353 13.365L400.109 14.5955C400.027 14.6775 399.981 14.7778 399.981 14.9008C399.981 15.1514 400.177 15.3474 400.423 15.3474Z" fill="#E3E3E3"/>
</g>
<path d="M248 10.1666C246.392 10.1666 245.083 11.475 245.083 13.0833V14.8333H244.5C243.857 14.8333 243.333 15.3565 243.333 16V20.6666C243.333 21.31 243.857 21.8333 244.5 21.8333H251.5C252.143 21.8333 252.667 21.31 252.667 20.6666V16C252.667 15.3565 252.143 14.8333 251.5 14.8333H250.917V13.0833C250.917 11.475 249.608 10.1666 248 10.1666ZM251.5 16L251.501 20.6666H244.5V16H251.5ZM246.25 14.8333V13.0833C246.25 12.1185 247.035 11.3333 248 11.3333C248.965 11.3333 249.75 12.1185 249.75 13.0833V14.8333H246.25Z" fill="white"/>
</g>
</g>
<defs>
<clipPath id="clip0">
<rect width="644" height="31.1111" fill="white"/>
</clipPath>
<clipPath id="clip1">
<rect width="74.6667" height="18.6667" fill="white" transform="translate(556.889 5.44446)"/>
</clipPath>
<clipPath id="clip2">
<rect width="76.2222" height="18.6667" fill="white" transform="translate(74.6666 5.44446)"/>
</clipPath>
<clipPath id="clip3">
<rect width="40.4444" height="9.33333" fill="white" transform="translate(15.5555 10.8889)"/>
</clipPath>
<clipPath id="clip4">
<rect width="175.778" height="21.7778" fill="white" transform="translate(234.111 4.66663)"/>
</clipPath>
<clipPath id="clip5">
<rect width="10.1111" height="10.8889" fill="white" transform="translate(395.5 10.1111)"/>
</clipPath>
</defs>
</svg>
