<svg width="136" height="32" viewBox="0 0 136 32" fill="none" xmlns="http://www.w3.org/2000/svg">
<path d="M97.2615 18.7867C97.2615 17.0729 97.2329 15.359 97.2615 13.6151C97.2902 11.4503 98.1786 10.5483 100.213 10.5182C101.303 10.5182 102.392 10.4882 103.481 10.5182C105.344 10.5784 106.232 11.5706 106.232 13.4949C106.232 15.2087 106.261 16.9225 106.232 18.6664C106.203 20.6208 105.229 21.613 103.366 21.643C102.105 21.643 100.844 21.7332 99.583 21.613C98.5799 21.5228 98.2933 21.9437 98.4079 22.9059C98.4652 23.2667 98.4652 23.6575 98.4079 23.9883C98.3506 24.4393 98.7805 25.1909 97.8061 25.1609C96.9176 25.1308 97.2615 24.4693 97.2615 24.0484C97.2329 22.3045 97.2615 20.5606 97.2615 18.7867ZM98.4366 16.8022C98.4366 17.8546 98.4652 18.937 98.4366 19.9894C98.4079 20.5306 98.5799 20.6809 99.0957 20.6809C100.357 20.6508 101.618 20.6809 102.879 20.6809C104.34 20.6508 105.028 20.0194 105.057 18.5161C105.086 16.8925 105.086 15.2989 105.057 13.6753C105.028 12.4425 104.57 11.8713 103.395 11.6608C102.334 11.4503 101.217 11.4804 100.156 11.6608C98.9811 11.8412 98.4939 12.5027 98.4652 13.7655C98.4079 14.7577 98.4366 15.78 98.4366 16.8022Z" fill="white"/>
<path d="M23.0904 13.494C23.0904 15.2379 23.1477 17.0118 23.0904 18.7557C23.033 20.6198 22.2019 21.5219 20.4537 21.6421C19.1353 21.7323 17.7883 21.7023 16.47 21.6421C15.0657 21.5519 14.1486 20.5898 14.0913 19.0864C14.0339 17.1922 14.0053 15.2679 14.0913 13.3737C14.1772 11.5997 15.2376 10.6075 16.9572 10.5474C18.3615 10.5173 19.7659 10.5173 21.1702 10.5474C21.8007 10.5775 22.0873 10.4271 22.0013 9.70552C21.944 9.13425 22.0013 8.53291 21.9726 7.96164C21.944 7.51063 22.0013 7.20996 22.5745 7.20996C23.1763 7.20996 23.1477 7.57077 23.1477 7.9917C23.1477 9.82579 23.1477 11.6599 23.1477 13.494C23.0904 13.494 23.0904 13.494 23.0904 13.494ZM21.944 15.3882C21.944 14.3659 21.9153 13.3436 21.944 12.3214C21.9726 11.7501 21.8007 11.5396 21.2275 11.5396C19.9378 11.5697 18.6195 11.5095 17.3298 11.5697C16.0114 11.6298 15.2376 12.4416 15.1803 13.7946C15.123 15.4183 15.123 17.0118 15.1803 18.6354C15.209 19.9584 15.8108 20.5898 17.0718 20.68C17.9316 20.7401 18.8201 20.7401 19.7085 20.68C21.1702 20.5597 21.9153 19.6878 21.9153 18.1544C21.9726 17.2223 21.944 16.2902 21.944 15.3882Z" fill="#FFAB4F"/>
<path d="M46.4766 13.4039C46.4766 15.2079 46.5339 16.9819 46.4766 18.7859C46.4193 20.5899 45.6168 21.4919 43.9259 21.6122C42.5503 21.7024 41.2032 21.7024 39.8276 21.6122C38.4233 21.5521 37.5348 20.5298 37.4775 19.0264C37.4202 17.1623 37.4202 15.2981 37.4775 13.434C37.5348 11.5698 38.5952 10.5776 40.3721 10.5476C41.7764 10.5175 43.1808 10.4874 44.5851 10.5476C45.2729 10.5776 45.4449 10.3371 45.3875 9.67561C45.3302 9.10434 45.3875 8.503 45.3875 7.93172C45.3875 7.54085 45.3589 7.21012 45.9034 7.24018C46.4193 7.24018 46.5626 7.39052 46.5626 7.93172C46.5339 9.76581 46.5626 11.5999 46.5626 13.434C46.4766 13.4039 46.4766 13.4039 46.4766 13.4039ZM45.3302 15.2681C45.3302 14.2759 45.3016 13.2837 45.3302 12.2914C45.3589 11.7502 45.2156 11.4796 44.6424 11.5097C43.3527 11.5398 42.0344 11.4796 40.7447 11.5398C39.3977 11.5999 38.6239 12.4418 38.5666 13.8549C38.5379 15.3883 38.5379 16.9218 38.5666 18.4852C38.5952 19.9285 39.1971 20.5899 40.5441 20.6501C41.3752 20.7102 42.235 20.7102 43.0661 20.6501C44.5278 20.5298 45.2729 19.6879 45.3016 18.1545C45.3589 17.1924 45.3302 16.2302 45.3302 15.2681Z" fill="white"/>
<path d="M34.5829 16.2598C34.5829 17.2219 34.6402 18.1841 34.5829 19.1162C34.4682 20.7999 33.5798 21.6117 31.9748 21.6418C30.7711 21.6719 29.5961 21.6719 28.3924 21.6418C26.6728 21.6117 25.727 20.6195 25.6411 18.8456C25.4404 15.0271 26.1569 14.2754 29.8254 14.2754C30.7998 14.2754 31.8029 14.2453 32.7773 14.2754C33.3792 14.3054 33.4938 14.0348 33.4651 13.4936C33.4078 12.2609 32.72 11.5393 31.4016 11.5092C29.7967 11.4791 28.1631 11.5092 26.5582 11.5092C26.1856 11.5092 25.6411 11.6896 25.6697 10.9379C25.727 10.2464 26.2429 10.517 26.5582 10.517C28.2491 10.4869 29.94 10.517 31.6023 10.4869C33.0926 10.4569 34.7548 11.5092 34.6402 13.5838C34.5542 14.4858 34.5829 15.3879 34.5829 16.2598ZM30.7711 15.3578C29.9687 15.3578 29.1662 15.2977 28.3637 15.3879C27.3893 15.4781 26.8734 16.1395 26.8161 17.1618C26.7874 17.6128 26.7874 18.0338 26.8161 18.4848C26.8448 19.8979 27.5039 20.6195 28.9083 20.6796C29.5961 20.7097 30.3126 20.6796 31.0004 20.6796C33.0066 20.6796 33.4365 20.2286 33.4365 18.0939C33.4078 15.2676 33.4078 15.2676 30.7711 15.3578Z" fill="#FFAB4F"/>
<path d="M54.4155 21.6429C53.5271 21.5827 52.438 21.7631 51.349 21.5527C49.83 21.252 49.0562 20.3801 49.0275 18.7865C48.9989 17.0426 48.9702 15.2687 49.0275 13.4947C49.0849 11.4201 50.002 10.5181 52.0081 10.5181C53.3265 10.5181 54.6735 10.3677 55.9918 10.6083C57.4535 10.8789 58.4852 12.8332 57.998 14.2765C57.8834 14.6072 57.5968 14.6373 57.3388 14.7575C55.2753 15.6896 53.2405 16.6217 51.177 17.5838C50.8044 17.7642 50.1739 17.7342 50.2026 18.3956C50.2599 19.1473 50.3745 19.9591 51.1483 20.35C51.6069 20.5905 52.0941 20.6507 52.5813 20.6206C54.1576 20.6206 55.7339 20.6206 57.3102 20.6206C57.5968 20.6206 57.9407 20.5003 57.9693 21.0415C57.998 21.5827 57.6827 21.6128 57.3102 21.6128C56.4217 21.6429 55.5046 21.6429 54.4155 21.6429ZM50.2026 16.7419C52.2374 15.8099 54.1576 14.9079 56.1351 14.066C56.9949 13.7052 56.9089 13.164 56.565 12.5326C56.3071 12.0214 55.8199 11.7508 55.304 11.6606C54.1003 11.4201 52.8679 11.4502 51.6642 11.6907C50.7758 11.8711 50.2599 12.5025 50.2312 13.4646C50.1739 14.4869 50.2026 15.5693 50.2026 16.7419Z" fill="white"/>
<path d="M76.4834 21.5822C75.423 21.5822 74.3626 21.6724 73.3308 21.5521C71.7545 21.3717 70.9521 20.4096 70.9234 18.7559C70.8948 17.0421 70.8948 15.2982 70.9234 13.5844C70.9807 11.4496 71.8978 10.5175 73.9327 10.5175C75.3083 10.5175 76.684 10.3371 78.031 10.6378C79.378 10.9385 80.4097 13.0131 79.8939 14.306C79.7792 14.6367 79.464 14.6668 79.206 14.757C77.1999 15.6891 75.165 16.5911 73.1589 17.5532C72.729 17.7637 72.0125 17.7036 72.1271 18.5154C72.2418 19.3272 72.385 20.139 73.2735 20.4397C73.6747 20.59 74.076 20.6201 74.5059 20.6201C75.9675 20.6201 77.4578 20.59 78.9194 20.6501C79.2347 20.6501 79.8365 20.2893 79.8652 21.1011C79.8939 21.9731 79.2347 21.5822 78.8621 21.6123C78.0597 21.6724 77.2572 21.6423 76.4547 21.6423C76.4834 21.6423 76.4834 21.6123 76.4834 21.5822ZM72.0985 16.7715C74.1619 15.8394 76.0821 14.9073 78.031 14.0955C78.8908 13.7347 78.8335 13.1935 78.4895 12.5621C78.2029 12.0209 77.7157 11.7503 77.1139 11.6601C75.9675 11.4797 74.8211 11.4797 73.6747 11.6902C72.6716 11.8706 72.1271 12.532 72.0985 13.5844C72.0698 14.5465 72.0985 15.5688 72.0985 16.7715Z" fill="white"/>
<path d="M114.257 21.6435C113.368 21.5834 112.279 21.7638 111.19 21.5533C109.671 21.2526 108.897 20.3807 108.869 18.7871C108.84 17.0433 108.811 15.2693 108.869 13.4954C108.926 11.4207 109.843 10.5187 111.878 10.5488C113.254 10.5488 114.629 10.3684 115.976 10.6691C117.323 10.9697 118.355 12.9842 117.839 14.3372C117.724 14.668 117.409 14.698 117.18 14.7882C115.174 15.7203 113.139 16.6223 111.133 17.5845C110.703 17.7949 109.958 17.7047 110.101 18.5466C110.216 19.3584 110.359 20.1702 111.247 20.4709C111.649 20.6212 112.05 20.6513 112.48 20.6513C114.056 20.6513 115.632 20.6513 117.209 20.6513C117.495 20.6513 117.839 20.531 117.868 21.1023C117.868 21.6736 117.552 21.6435 117.18 21.6435C116.263 21.6435 115.346 21.6435 114.257 21.6435ZM110.044 16.6223C110.158 16.6223 110.216 16.6825 110.273 16.6524C112.164 15.8105 114.056 14.9085 115.948 14.0967C116.807 13.7359 116.721 13.1947 116.377 12.5633C116.119 12.0521 115.632 11.7815 115.116 11.6913C113.913 11.4508 112.68 11.4809 111.477 11.7214C110.588 11.9018 110.072 12.5332 110.044 13.4954C110.015 14.4876 110.044 15.57 110.044 16.6223Z" fill="white"/>
<path d="M94.4816 16.1705C94.4816 17.1627 94.5389 18.1549 94.4816 19.1471C94.3956 20.6505 93.6218 21.5525 92.1888 21.6427C90.8132 21.7329 89.4662 21.7329 88.0905 21.6427C86.6002 21.5525 85.7118 20.5603 85.6831 18.9968C85.6545 17.1627 85.6545 15.3286 85.6831 13.4945C85.7404 11.5702 86.6862 10.6081 88.4917 10.5479C89.6095 10.5179 90.7272 10.5179 91.8449 10.5479C93.4212 10.578 94.3383 11.45 94.4529 13.1036C94.5389 14.1259 94.4816 15.1482 94.4816 16.1705ZM93.3639 16.1404C93.3639 15.7495 93.3639 15.3286 93.3639 14.9377C93.3639 14.5469 93.3925 14.1259 93.3639 13.735C93.3066 12.352 92.6474 11.6304 91.3577 11.5402C90.4693 11.48 89.6095 11.48 88.721 11.5402C87.5746 11.6003 86.8868 12.2918 86.8582 13.4945C86.8008 15.2384 86.8008 17.0123 86.8582 18.7562C86.8868 19.989 87.5746 20.5903 88.7783 20.6204C89.6668 20.6505 90.5266 20.6505 91.415 20.6204C92.6187 20.5903 93.3066 19.8988 93.3639 18.636C93.3925 17.8242 93.3639 16.9823 93.3639 16.1404Z" fill="white"/>
<path d="M3 10.6983C4.03175 10.3676 4.60494 10.6081 5.12081 11.4199C5.92328 12.6527 6.84039 13.7952 7.78615 15.0881C8.70326 13.8253 9.59171 12.6527 10.3942 11.4199C10.9101 10.6382 11.4832 10.3676 12.4863 10.7284C11.5406 12.0513 10.6235 13.3442 9.70635 14.607C8.58862 16.1705 8.58862 16.1705 9.73501 17.734C10.6521 18.9667 11.5692 20.2295 12.5436 21.5224C11.6839 21.8532 11.082 21.763 10.5661 21.0113C9.82099 19.8988 8.98986 18.8765 8.21605 17.764C7.90079 17.313 7.70018 17.283 7.35626 17.764C6.52513 18.9066 5.66534 20.0191 4.80556 21.1315C4.60494 21.3721 4.46164 21.7329 4.08907 21.7028C3.74515 21.6728 3.31526 21.8832 3.11464 21.5525C2.91402 21.2217 3.34392 20.9812 3.51587 20.7407C4.4903 19.4478 5.46473 18.1248 6.46781 16.8921C6.86905 16.381 6.92637 16.0502 6.49647 15.509C5.35009 13.9455 4.23236 12.352 3 10.6983Z" fill="#FFAB4F"/>
<path d="M128.071 21.6424C127.153 21.6424 126.236 21.6424 125.319 21.6424C124.918 21.6424 124.775 21.4921 124.775 21.0711C124.775 20.6201 125.033 20.6502 125.319 20.6502C126.781 20.6502 128.271 20.6502 129.733 20.6502C131.137 20.6502 131.739 20.109 131.739 18.8462C131.768 17.1624 131.252 16.6212 129.761 16.5611C128.758 16.531 127.727 16.6813 126.724 16.4709C125.463 16.2303 124.832 15.4787 124.775 14.1557C124.66 11.3294 125.377 10.5176 128.071 10.5176C129.475 10.5176 130.879 10.5176 132.284 10.5176C132.599 10.5176 133 10.3673 133 10.9987C133 11.6 132.627 11.5098 132.284 11.5098C130.851 11.5098 129.418 11.4797 127.956 11.5098C126.523 11.5399 125.864 12.1713 125.864 13.5243C125.864 14.9074 126.494 15.5388 127.927 15.5689C128.873 15.5989 129.819 15.5388 130.765 15.5689C132.026 15.5989 132.713 16.2604 132.857 17.5533C132.914 18.1546 132.943 18.786 132.857 19.4174C132.713 20.8005 131.997 21.5221 130.65 21.5823C129.819 21.7025 128.959 21.6424 128.071 21.6424Z" fill="white"/>
<path d="M64.1883 19.8084C65.4779 16.8619 66.7103 14.1258 67.914 11.3897C68.0286 11.1491 68.086 10.8785 68.2293 10.6981C68.5445 10.3674 69.0031 10.4576 69.3183 10.5779C69.7769 10.7883 69.3756 11.1491 69.261 11.3897C67.8854 14.5467 66.481 17.6737 65.0767 20.8307C64.9048 21.2216 64.7328 21.6124 64.2169 21.6425C63.6151 21.6726 63.4431 21.2516 63.2425 20.8006C61.8668 17.6737 60.4625 14.5768 59.1155 11.4498C59.0009 11.1792 58.5137 10.7583 59.0582 10.5779C59.4308 10.4275 60.0326 10.3073 60.2906 10.9988C60.6345 11.8707 61.0357 12.7427 61.4083 13.5846C62.3254 15.599 63.2138 17.6135 64.1883 19.8084Z" fill="white"/>
<path d="M83.0462 14.3965C83.0462 16.5613 83.0462 18.7261 83.0462 20.891C83.0462 21.3119 83.0749 21.6727 82.473 21.6727C81.8998 21.6727 81.8712 21.372 81.8712 20.921C81.8712 16.5312 81.8712 12.1415 81.8712 7.72161C81.8712 7.24054 81.9571 7 82.5017 7C83.1322 7 83.0462 7.39087 83.0462 7.81181C83.0462 10.0067 83.0462 12.2016 83.0462 14.3965Z" fill="white"/>
<path d="M120.075 17.1319C120.075 15.7789 119.989 14.4259 120.103 13.0728C120.247 11.1786 121.995 10.0361 123.772 10.5172C124.116 10.6074 124.116 10.8178 124.116 11.0884C124.116 11.4192 123.915 11.4793 123.657 11.5394C121.422 11.9604 121.221 12.2009 121.221 14.6063C121.221 16.6809 121.221 18.7856 121.221 20.8602C121.221 21.2511 121.307 21.672 120.676 21.672C120.075 21.672 119.989 21.3713 120.017 20.8602C120.046 19.6275 120.017 18.3646 120.017 17.1319C120.046 17.1319 120.046 17.1319 120.075 17.1319Z" fill="white"/>
</svg>
