<svg width="40" height="40" viewBox="0 0 40 40" fill="none" xmlns="http://www.w3.org/2000/svg">
<path class="fill" d="M19.2067 15.867C17.2037 12.3241 15.0627 9.33647 14.6314 8.74353C11.1875 10.3869 8.60826 13.5574 7.78125 17.3729C7.81562 17.3729 7.85654 17.3729 7.9036 17.3729C9.05593 17.3729 13.8306 17.2804 19.2067 15.867Z" fill="white"/>
<path class="fill" d="M28.2398 10.6328C26.0374 8.7022 23.1541 7.52942 20.0004 7.52942C19.0305 7.52942 18.0869 7.64113 17.1797 7.85228C17.6879 8.53893 19.8277 11.4942 21.7804 15.067C26.001 13.4711 27.8915 11.1092 28.2398 10.6328Z" fill="white"/>
<path class="fill" d="M23.615 18.8186C23.7001 19.0183 23.7827 19.2176 23.8642 19.4156C24.8319 19.2965 25.7977 19.2503 26.7151 19.2503C29.5595 19.2503 31.9398 19.6955 32.5017 19.8089C32.4538 16.9309 31.4267 14.287 29.7383 12.1948C29.3017 12.7607 27.1894 15.263 22.8125 17.066C23.0936 17.6429 23.3633 18.2289 23.615 18.8186Z" fill="white"/>
<path class="fill" d="M20.8553 20.0585C20.9928 20.0143 21.1319 19.9738 21.271 19.9329C20.9731 19.2646 20.6523 18.5956 20.3151 17.9363C14.7642 19.5842 9.37659 19.7131 7.82528 19.7131C7.68206 19.7131 7.5728 19.7123 7.49751 19.7107C7.49505 19.8138 7.49219 19.9169 7.49219 20.0192C7.4926 23.1914 8.68298 26.0894 10.6402 28.2946C11.1685 27.4218 14.605 22.0771 20.8553 20.0585Z" fill="white"/>
<path class="fill" d="M20 0C8.95427 0 0 8.95468 0 20C0 31.0453 8.95427 40 20 40C31.0457 40 40 31.0453 40 20C40 8.95468 31.0457 0 20 0ZM20 34.7842C11.8371 34.7842 5.19652 28.1522 5.19611 20C5.19693 11.8478 11.8371 5.21657 20 5.21575C28.1629 5.21657 34.8031 11.8478 34.8035 20C34.8031 28.1522 28.1629 34.7842 20 34.7842Z" fill="white"/>
<path class="fill" d="M24.6875 21.537C26.2429 25.8271 26.9169 29.3455 27.0838 30.3071C29.8222 28.4215 31.7737 25.474 32.338 22.0653C31.8633 21.9205 29.8185 21.3484 27.2053 21.3484C26.4094 21.3484 25.5603 21.4028 24.6875 21.537Z" fill="white"/>
<path class="fill" d="M22.1677 22.1557C15.3168 24.5398 12.724 29.2088 12.3672 29.9098C14.4803 31.538 17.1255 32.5091 19.9956 32.5091C21.7074 32.5091 23.3397 32.1637 24.8267 31.5393C24.6262 30.3759 23.8982 26.6235 22.1816 22.1508C22.1767 22.1525 22.1722 22.1541 22.1677 22.1557Z" fill="white"/>
</svg>
