<svg width="40" height="40" viewBox="0 0 40 40" fill="none" xmlns="http://www.w3.org/2000/svg">
<path class="fill" d="M20 0C8.98551 0 0 8.98551 0 20C0 31.0145 8.98551 40 20 40C31.0145 40 40 31.0559 40 20.0414C40 8.98551 31.0145 0.0414079 20 0ZM25.5487 11.8427C25.5487 12.0083 25.4244 12.1325 25.2588 12.1325H22.8571C22.2774 12.1325 21.7805 12.6294 21.7805 13.2091V15.735H25.1346C25.3002 15.735 25.4244 15.9006 25.4244 16.0663L25.1346 19.6273C25.1346 19.793 25.0104 19.9172 24.8447 19.9172H21.7391V31.7184C21.7391 31.8841 21.6149 32.0083 21.4493 32.0083H17.1429C16.9772 32.0083 16.853 31.8841 16.853 31.7184V20.1242H16.8944V19.8758H14.7412C14.5756 19.8758 14.4513 19.7516 14.4513 19.5859V16.0248C14.4513 15.8592 14.5756 15.735 14.7412 15.735H16.8944V12.2981C16.8944 9.93789 18.7992 7.99172 21.2008 7.99172H25.2588C25.4244 7.99172 25.5487 8.11594 25.5487 8.28157V11.8427Z" fill="white"/>
</svg>
