<svg width="40" height="40" viewBox="0 0 40 40" fill="none" xmlns="http://www.w3.org/2000/svg">
<path class="fill" d="M23.8281 20C23.8281 22.1143 22.1143 23.8281 20 23.8281C17.8857 23.8281 16.1719 22.1143 16.1719 20C16.1719 17.8857 17.8857 16.1719 20 16.1719C22.1143 16.1719 23.8281 17.8857 23.8281 20Z" fill="white"/>
<path class="fill" d="M28.9529 13.2269C28.7689 12.7283 28.4753 12.2769 28.0938 11.9064C27.7233 11.525 27.2723 11.2314 26.7733 11.0474C26.3687 10.8902 25.7607 10.7031 24.6411 10.6522C23.4298 10.5969 23.0667 10.585 20.0002 10.585C16.9335 10.585 16.5704 10.5966 15.3594 10.6519C14.2397 10.7031 13.6315 10.8902 13.2272 11.0474C12.7282 11.2314 12.2769 11.525 11.9067 11.9064C11.5252 12.2769 11.2316 12.728 11.0473 13.2269C10.8901 13.6316 10.7031 14.2398 10.6521 15.3595C10.5969 16.5704 10.585 16.9336 10.585 20.0003C10.585 23.0667 10.5969 23.4299 10.6521 24.6411C10.7031 25.7608 10.8901 26.3687 11.0473 26.7734C11.2316 27.2723 11.5249 27.7234 11.9064 28.0939C12.2769 28.4753 12.7279 28.7689 13.2269 28.9529C13.6315 29.1104 14.2397 29.2975 15.3594 29.3484C16.5704 29.4037 16.9332 29.4153 19.9999 29.4153C23.067 29.4153 23.4301 29.4037 24.6407 29.3484C25.7604 29.2975 26.3687 29.1104 26.7733 28.9529C27.7749 28.5666 28.5665 27.775 28.9529 26.7734C29.11 26.3687 29.2971 25.7608 29.3484 24.6411C29.4036 23.4299 29.4152 23.0667 29.4152 20.0003C29.4152 16.9336 29.4036 16.5704 29.3484 15.3595C29.2974 14.2398 29.1104 13.6316 28.9529 13.2269ZM20.0002 25.8972C16.7431 25.8972 14.1027 23.2571 14.1027 20C14.1027 16.7429 16.7431 14.1028 20.0002 14.1028C23.2571 14.1028 25.8975 16.7429 25.8975 20C25.8975 23.2571 23.2571 25.8972 20.0002 25.8972ZM26.1306 15.2478C25.3695 15.2478 24.7524 14.6307 24.7524 13.8696C24.7524 13.1085 25.3695 12.4915 26.1306 12.4915C26.8917 12.4915 27.5088 13.1085 27.5088 13.8696C27.5085 14.6307 26.8917 15.2478 26.1306 15.2478Z" fill="white"/>
<path class="fill" d="M20 0C8.95599 0 0 8.95599 0 20C0 31.044 8.95599 40 20 40C31.044 40 40 31.044 40 20C40 8.95599 31.044 0 20 0ZM31.4151 24.7348C31.3596 25.9573 31.1652 26.792 30.8813 27.5226C30.2847 29.0652 29.0652 30.2847 27.5226 30.8813C26.7923 31.1652 25.9573 31.3593 24.7351 31.4151C23.5104 31.4709 23.1192 31.4844 20.0003 31.4844C16.8811 31.4844 16.4902 31.4709 15.2652 31.4151C14.043 31.3593 13.208 31.1652 12.4777 30.8813C11.7111 30.593 11.0172 30.141 10.4434 29.5566C9.85931 28.9832 9.40735 28.2889 9.11896 27.5226C8.83514 26.7923 8.64075 25.9573 8.58521 24.7351C8.52875 23.5101 8.51562 23.1189 8.51562 20C8.51562 16.8811 8.52875 16.4899 8.5849 15.2652C8.64044 14.0427 8.83453 13.208 9.11835 12.4774C9.40674 11.7111 9.85901 11.0168 10.4434 10.4434C11.0168 9.85901 11.7111 9.40704 12.4774 9.11865C13.208 8.83484 14.0427 8.64075 15.2652 8.5849C16.4899 8.52905 16.8811 8.51562 20 8.51562C23.1189 8.51562 23.5101 8.52905 24.7348 8.58521C25.9573 8.64075 26.792 8.83484 27.5226 9.11835C28.2889 9.40674 28.9832 9.85901 29.5569 10.4434C30.141 11.0172 30.5933 11.7111 30.8813 12.4774C31.1655 13.208 31.3596 14.0427 31.4154 15.2652C31.4713 16.4899 31.4844 16.8811 31.4844 20C31.4844 23.1189 31.4713 23.5101 31.4151 24.7348Z" fill="white"/>
</svg>
