<svg width="32" height="32" viewBox="0 0 32 32" fill="none" xmlns="http://www.w3.org/2000/svg">
<path fill-rule="evenodd" clip-rule="evenodd" d="M15.576 31.152C24.1515 31.152 31.152 24.2059 31.152 15.576C31.152 6.94619 24.1515 0 15.576 0C7.00057 0 0 6.94619 0 15.576C0 24.2059 7.00057 31.152 15.576 31.152ZM18.1199 23.5862C19.8648 23.0208 21.3801 21.9062 22.4394 20.4087L15.5 15.5L22.8212 11.1814C21.8892 9.6015 20.4712 8.36548 18.7789 7.6579C17.0866 6.95032 15.2109 6.80915 13.4317 7.25547C11.6526 7.7018 10.0656 8.71168 8.90765 10.1343C7.74975 11.5569 7.0831 13.3159 7.00727 15.1486C6.93143 16.9813 7.45048 18.7894 8.4869 20.3028C9.5233 21.8162 11.0215 22.9537 12.7577 23.5455C14.4939 24.1373 16.3749 24.1515 18.1199 23.5862Z" fill="white"/>
</svg>
