<svg width="1440" height="275" viewBox="0 0 1440 275" fill="none" xmlns="http://www.w3.org/2000/svg">
<path d="M1440 274.499C1434.78 274.499 1429.56 274.182 1424.34 273.865C1420.93 273.654 1417.62 273.232 1414.32 272.81C1410.06 272.388 1405.8 271.649 1401.53 271.016C1395.03 269.96 1388.64 268.588 1382.35 267.005C1367.01 263.1 1351.98 258.034 1337.39 251.913C1322.36 245.686 1307.87 238.51 1293.7 230.7C1287.41 227.217 1281.23 223.734 1275.05 220.252C1267.7 216.03 1260.13 212.125 1252.57 208.431C1238.4 201.571 1224.01 195.344 1209.31 189.856C1198.54 185.846 1187.57 182.258 1176.38 179.091C1169.99 177.297 1163.59 175.714 1157.09 174.237C1148.68 172.337 1140.26 170.754 1131.84 169.487C1126.62 168.643 1121.29 168.01 1116.07 167.377C1110.32 166.743 1104.45 166.321 1098.7 165.899C1091.35 165.266 1084 165.266 1076.64 165.16C1068.86 165.055 1061.09 165.16 1053.31 165.582C1046.7 165.899 1040.09 166.427 1033.38 166.954C1028.48 167.377 1023.58 167.904 1018.78 168.537C1013.78 169.065 1008.87 169.909 1003.87 170.543C997.046 171.493 990.333 172.653 983.62 173.92C978.079 174.975 972.645 176.136 967.104 177.297C951.546 180.569 936.096 184.474 920.752 188.695C913.612 190.701 906.367 192.811 899.227 194.817C887.08 198.194 874.933 201.043 862.572 203.471C854.687 205.054 846.695 206.426 838.703 207.481C831.777 208.431 824.958 209.275 818.032 209.909C806.31 210.964 794.589 211.492 782.761 211.386C775.835 211.281 768.909 211.175 761.876 210.542C758.467 210.225 754.95 210.014 751.434 209.698C749.303 209.487 747.172 209.275 745.041 208.959C738.754 208.115 732.467 207.27 726.287 206.109C709.025 202.943 692.189 198.51 675.672 192.706C654.468 185.318 634.329 175.82 614.829 164.738C596.075 154.079 578.387 141.942 561.338 128.855C547.272 117.984 533.846 106.586 520.846 94.5546C515.412 89.4888 509.978 84.4229 504.33 79.6737C495.593 72.1804 486.429 65.1093 477.052 58.5659C467.036 51.6003 456.593 45.1624 445.831 39.3578C437.306 34.7141 428.569 30.4925 419.618 26.6931C411.413 23.2103 402.995 19.9386 394.471 17.0891C385.946 14.2395 377.315 11.7066 368.578 9.49027C361.651 7.69611 354.619 6.21856 347.586 4.9521C343.111 4.10778 338.742 3.36901 334.267 2.73578C328.513 1.89147 322.758 1.1527 316.898 0.625002C310.931 0.0973072 304.857 -0.430388 298.89 -0.852544C297.824 -0.958083 296.865 -0.958082 295.8 -1.06362C288.128 -1.2747 280.456 -1.69685 272.784 -1.59132C264.472 -1.48578 256.267 -1.2747 247.956 -0.747005C241.35 -0.430389 234.743 0.202845 228.03 0.730539C223.661 1.15269 219.292 1.68039 214.924 2.20809C212.793 2.41916 210.661 2.73578 208.53 3.0524C200.752 4.10779 192.973 5.26871 185.194 6.64072C180.719 7.48503 176.137 8.2238 171.662 9.06812C161.113 11.1789 150.777 13.8174 140.441 16.7725C129.359 19.8331 118.277 23.3159 107.408 27.0097C96.2201 30.8091 85.0317 34.9252 74.0564 39.2522C60.7369 44.5292 47.4174 50.2283 34.5241 56.4551C24.0816 61.521 13.8522 66.9034 3.8359 72.8136C3.09001 73.2358 2.23756 73.7635 1.49166 74.1856C1.06544 74.3967 0.532659 74.5023 0.106434 74.7133C-0.00012207 44.107 -0.00012207 13.6063 -0.00012207 -17C480.035 -17 959.964 -17 1440 -17C1440 80.2014 1440 177.403 1440 274.499Z" fill="#111827"/>
</svg>
