<svg width="1440" height="669" viewBox="0 0 1440 669" fill="none" xmlns="http://www.w3.org/2000/svg">
<g clip-path="url(#clip0)">
<path d="M48.0001 719C48.0001 718.545 48.0001 718.317 48.0001 717.861C50.0491 716.721 51.6429 714.67 53.2365 713.075C65.075 700.769 76.6858 688.463 88.2967 676.384C104.461 659.52 120.853 642.884 137.244 626.02C146.123 616.904 155.002 608.017 163.881 598.901C170.028 592.52 176.175 586.139 182.322 579.986C194.388 568.135 207.137 557.424 219.659 546.485C236.961 531.672 254.491 517.543 272.932 504.097C286.592 494.298 301.162 485.638 315.277 476.75C331.442 466.723 347.378 456.696 363.997 447.58C392 431.855 421.369 418.865 451.876 408.154C470.772 401.546 489.668 395.392 509.247 391.518C530.42 387.188 551.82 384.909 573.676 386.049C597.58 387.188 621.03 391.518 643.796 398.811C673.848 408.382 701.85 422.74 728.487 439.604C738.504 445.985 748.066 453.277 758.539 459.202C783.582 473.56 810.446 482.22 838.904 485.41C859.849 487.689 880.567 487.461 901.512 486.094C922.684 484.726 943.857 481.992 965.03 480.169C982.332 478.573 999.407 477.434 1016.71 477.89C1056.55 479.029 1093.66 488.828 1126.9 511.39C1138.51 519.138 1148.98 528.482 1159.23 537.825C1180.4 556.968 1200.66 576.567 1220.47 597.078C1235.27 612.346 1249.38 628.527 1263.5 644.707C1278.3 662.027 1293.09 679.575 1306.75 698.034C1311.08 703.959 1315.18 709.885 1319.05 716.038C1319.5 716.721 1320.41 717.405 1319.96 718.544C1319.5 719.456 1318.36 719.228 1317.45 719.228C1310.17 719.228 1303.11 719.228 1295.83 719.228C1279.89 719.228 1263.95 719.228 1248.02 719.228C1245.06 719.228 1243.01 718.317 1241.19 715.81C1218.87 684.133 1194.51 654.051 1170.15 623.969C1161.28 613.03 1152.85 601.635 1142.61 591.836C1123.94 573.832 1102.08 562.21 1075.9 560.387C1062.93 559.475 1051.31 562.894 1042.66 573.377C1034.92 582.72 1034.47 596.394 1041.07 608.472C1046.76 618.727 1055.18 626.02 1064.97 631.945C1083.87 642.884 1100.72 656.33 1115.97 672.054C1128.49 684.816 1139.88 698.718 1148.98 714.442C1149.44 715.126 1149.67 715.81 1150.12 716.266C1151.49 719 1151.26 719.456 1148.3 719.456C1124.17 719.456 1099.81 719.456 1075.67 719.456C1073.63 719.456 1072.03 718.772 1070.89 716.949C1052.45 692.565 1029 674.333 1002.37 659.976C971.632 643.568 938.621 633.768 904.699 627.159C885.12 623.285 865.085 620.778 845.279 619.183C825.472 617.588 805.893 614.397 786.997 608.016C759.905 599.129 735.772 584.771 713.917 566.312C698.208 552.866 684.093 537.825 670.205 522.785C658.822 510.25 647.439 497.488 635.145 485.638C620.119 471.053 603.955 458.063 585.059 448.947C568.439 440.971 551.137 436.641 532.696 435.274C507.426 433.451 482.838 437.097 458.478 443.478C417.271 453.961 378.34 469.913 340.776 489.512C307.992 506.604 276.802 526.659 247.434 548.992C231.725 560.843 216.471 573.605 201.445 586.367C200.99 586.822 200.535 587.278 200.08 587.734C184.598 603.003 169.117 618.272 153.636 633.541C135.878 651.088 118.121 668.408 100.135 685.956C89.6627 696.211 79.1902 706.238 68.7176 716.266C66.8963 718.089 64.8474 719 62.3431 719C57.5621 718.772 52.7811 719 48.0001 719Z" fill="white" fill-opacity="0.15"/>
<path d="M804.072 338.192C802.933 337.28 802.478 336.141 802.022 335.229C793.144 316.542 784.037 297.855 775.158 279.395C773.337 275.749 773.337 275.521 777.435 274.609C785.403 272.786 793.144 270.963 801.112 269.14C805.893 268.001 810.901 268.456 815.91 268.684C820.691 268.912 825.472 269.14 830.48 269.14C850.515 269.14 870.549 270.052 890.584 270.963C914.261 272.103 937.71 273.926 961.387 276.205C993.26 279.395 1024.91 283.725 1056.1 290.334C1084.33 296.259 1112.1 304.008 1138.96 315.174C1161.05 324.518 1182.9 333.634 1204.53 343.661C1230.94 356.195 1256.89 369.413 1282.39 383.998C1314.27 402.002 1345 421.6 1374.6 443.022C1390.99 454.873 1406.93 467.179 1422.41 480.169C1425.14 482.448 1425.14 482.904 1422.41 485.182C1414.89 491.563 1406.24 495.666 1397.59 499.768C1378.01 509.111 1357.75 516.176 1336.58 520.962C1322.01 524.38 1306.98 526.431 1291.96 526.659C1270.78 527.115 1251.2 520.962 1232.76 510.934C1218.19 502.958 1204.76 493.159 1192.24 481.764C1174.71 465.812 1160.14 447.58 1147.39 427.753C1139.42 415.447 1129.63 404.736 1118.93 394.709C1104.59 381.263 1089.11 369.641 1072.71 359.158C1046.76 342.522 1019.21 328.848 990.528 317.681C964.802 307.654 938.165 299.45 910.846 294.664C896.275 291.929 881.477 290.334 866.679 290.334C854.613 290.562 842.547 291.701 831.163 296.031C822.285 299.45 814.544 304.008 809.308 312.44C804.982 319.504 803.616 327.253 804.299 335.457C804.299 335.913 804.754 336.824 804.072 338.192Z" fill="white" fill-opacity="0.15"/>
<path d="M733.723 668.317C732.13 669 730.991 668.772 729.853 668.772C547.95 668.772 366.047 668.772 184.143 668.772C183.005 668.772 181.184 669.456 180.728 668.089C180.273 666.949 182.094 666.266 183.005 665.354C210.097 642.793 238.782 622.738 268.606 604.051C292.966 588.782 318.92 576.704 346.24 567.36C376.064 556.877 406.571 549.129 437.305 542.748C446.184 540.925 455.291 540.469 464.17 540.241C481.7 539.557 499.002 540.697 516.077 544.115C531.558 547.306 546.811 552.091 561.154 558.7C585.514 570.095 607.37 585.136 627.177 603.367C650.398 624.561 675.897 641.653 703.899 655.327C713.006 659.657 722.113 663.759 731.447 667.405C732.13 667.405 732.585 667.861 733.723 668.317ZM471.455 583.313C454.835 583.541 439.354 586.959 425.011 594.707C416.36 599.493 408.847 605.646 403.611 614.078C397.236 624.333 398.602 635.956 407.026 644.616C413.4 650.997 421.141 654.415 429.792 656.466C451.648 661.48 472.821 658.289 492.855 648.49C501.734 644.16 509.702 638.235 515.394 629.803C524.045 616.813 521.313 602.456 508.564 593.568C496.953 585.819 484.204 583.768 471.455 583.313Z" fill="white" fill-opacity="0.15"/>
<path d="M2.54608 435.263C113.178 331.644 219.595 234.525 330.93 152.319C432.079 77.6317 534.809 17.984 638.241 -18.2124C728.678 -49.6931 820.871 -61.8011 901.299 -55.3011C976.107 -49.3108 1043.19 -28.5361 1100.44 -3.30056C1154.52 20.6605 1199.65 47.9353 1240.57 72.7884C1277.27 95.0926 1309.58 114.975 1341.02 128.103C1367.89 139.318 1395.98 145.181 1420.92 142.122C1446.56 138.936 1471.67 126.701 1494.32 109.622C1510.13 135.113 1515.04 163.152 1504.16 191.064C1455.86 230.957 1393.87 255.173 1332.59 250.329C1298.17 247.525 1261.29 238.349 1221.08 226.623C1175.95 213.623 1126.6 197.692 1069.88 184.437C1008.07 170.035 937.825 159.329 861.085 159.966C777.145 160.731 684.25 176.025 592.232 208.398C489.678 244.722 388.178 301.31 291.418 372.174C186.757 448.773 90.5249 539.264 -3.60012 636C-35.9117 616.5 -43.1115 582.215 -34.8581 548.313C-25.5509 510.714 -4.30256 473.371 2.54608 435.263Z" fill="url(#paint0_linear)"/>
</g>
<defs>
<linearGradient id="paint0_linear" x1="637.434" y1="-33.8895" x2="710.603" y2="545.85" gradientUnits="userSpaceOnUse">
<stop stop-color="white" stop-opacity="0.1"/>
<stop offset="0.984375" stop-color="white" stop-opacity="0.15"/>
</linearGradient>
<clipPath id="clip0">
<rect width="1440" height="669" fill="white"/>
</clipPath>
</defs>
</svg>
