<svg width="1440" height="565" viewBox="0 0 1440 565" fill="none" xmlns="http://www.w3.org/2000/svg">
<g clip-path="url(#clip0)">
<path d="M1440 -7.99998L1440 745L-8.57085e-05 745L-0.000151538 -7.99986L1440 -7.99998Z" fill="url(#paint0_linear)"/>
<g clip-path="url(#clip1)">
<path d="M48 706C48 705.545 48 705.317 48 704.861C50.049 703.721 51.6427 701.67 53.2364 700.075C65.0749 687.769 76.6857 675.463 88.2965 663.384C104.461 646.52 120.852 629.884 137.244 613.02C146.123 603.904 155.002 595.017 163.881 585.901C170.028 579.52 176.175 573.139 182.322 566.986C194.388 555.135 207.137 544.424 219.658 533.485C236.961 518.672 254.491 504.543 272.932 491.097C286.592 481.298 301.162 472.638 315.277 463.75C331.441 453.723 347.378 443.696 363.997 434.58C392 418.855 421.369 405.865 451.876 395.154C470.772 388.546 489.668 382.392 509.247 378.518C530.42 374.188 551.82 371.909 573.676 373.049C597.58 374.188 621.03 378.518 643.796 385.811C673.848 395.382 701.85 409.74 728.487 426.604C738.504 432.985 748.066 440.277 758.539 446.202C783.582 460.56 810.446 469.22 838.904 472.41C859.849 474.689 880.566 474.461 901.512 473.094C922.684 471.726 943.857 468.992 965.03 467.169C982.332 465.573 999.407 464.434 1016.71 464.89C1056.55 466.029 1093.66 475.828 1126.9 498.39C1138.51 506.138 1148.98 515.482 1159.23 524.825C1180.4 543.968 1200.66 563.567 1220.47 584.078C1235.27 599.346 1249.38 615.527 1263.5 631.707C1278.3 649.027 1293.09 666.575 1306.75 685.034C1311.08 690.959 1315.18 696.885 1319.05 703.038C1319.5 703.721 1320.41 704.405 1319.96 705.544C1319.5 706.456 1318.36 706.228 1317.45 706.228C1310.17 706.228 1303.11 706.228 1295.83 706.228C1279.89 706.228 1263.95 706.228 1248.02 706.228C1245.06 706.228 1243.01 705.317 1241.19 702.81C1218.87 671.133 1194.51 641.051 1170.15 610.969C1161.28 600.03 1152.85 588.635 1142.61 578.836C1123.94 560.832 1102.08 549.21 1075.9 547.387C1062.93 546.475 1051.31 549.894 1042.66 560.377C1034.92 569.72 1034.47 583.394 1041.07 595.472C1046.76 605.727 1055.18 613.02 1064.97 618.945C1083.87 629.884 1100.72 643.33 1115.97 659.054C1128.49 671.816 1139.88 685.718 1148.98 701.442C1149.44 702.126 1149.67 702.81 1150.12 703.266C1151.49 706 1151.26 706.456 1148.3 706.456C1124.17 706.456 1099.81 706.456 1075.67 706.456C1073.63 706.456 1072.03 705.772 1070.89 703.949C1052.45 679.565 1029 661.333 1002.37 646.976C971.632 630.568 938.621 620.768 904.699 614.159C885.12 610.285 865.085 607.778 845.279 606.183C825.472 604.588 805.893 601.397 786.997 595.016C759.905 586.129 735.772 571.771 713.917 553.312C698.208 539.866 684.093 524.825 670.205 509.785C658.822 497.25 647.439 484.488 635.145 472.638C620.119 458.053 603.955 445.063 585.059 435.947C568.439 427.971 551.137 423.641 532.696 422.274C507.425 420.451 482.838 424.097 458.478 430.478C417.271 440.961 378.34 456.913 340.776 476.512C307.992 493.604 276.802 513.659 247.433 535.992C231.725 547.843 216.471 560.605 201.445 573.367C200.99 573.822 200.535 574.278 200.079 574.734C184.598 590.003 169.117 605.272 153.636 620.541C135.878 638.088 118.121 655.408 100.135 672.956C89.6625 683.211 79.19 693.238 68.7175 703.266C66.8962 705.089 64.8472 706 62.3429 706C57.562 705.772 52.781 706 48 706Z" fill="white" fill-opacity="0.15"/>
<path d="M804.071 325.192C802.933 324.28 802.478 323.141 802.022 322.229C793.144 303.542 784.037 284.855 775.158 266.395C773.337 262.749 773.337 262.521 777.435 261.609C785.403 259.786 793.144 257.963 801.112 256.14C805.893 255.001 810.901 255.456 815.91 255.684C820.691 255.912 825.472 256.14 830.48 256.14C850.515 256.14 870.549 257.052 890.584 257.963C914.261 259.103 937.71 260.926 961.387 263.205C993.26 266.395 1024.91 270.725 1056.1 277.334C1084.33 283.259 1112.1 291.008 1138.96 302.174C1161.05 311.518 1182.9 320.634 1204.53 330.661C1230.94 343.195 1256.89 356.413 1282.39 370.998C1314.27 389.002 1345 408.6 1374.6 430.022C1390.99 441.873 1406.93 454.179 1422.41 467.169C1425.14 469.448 1425.14 469.904 1422.41 472.182C1414.89 478.563 1406.24 482.666 1397.59 486.768C1378.01 496.111 1357.75 503.176 1336.58 507.962C1322.01 511.38 1306.98 513.431 1291.95 513.659C1270.78 514.115 1251.2 507.962 1232.76 497.934C1218.19 489.958 1204.76 480.159 1192.24 468.764C1174.71 452.812 1160.14 434.58 1147.39 414.753C1139.42 402.447 1129.63 391.736 1118.93 381.709C1104.59 368.263 1089.11 356.641 1072.71 346.158C1046.76 329.522 1019.21 315.848 990.528 304.681C964.802 294.654 938.165 286.45 910.846 281.664C896.275 278.929 881.477 277.334 866.679 277.334C854.613 277.562 842.547 278.701 831.163 283.031C822.285 286.45 814.544 291.008 809.308 299.44C804.982 306.504 803.616 314.253 804.299 322.457C804.299 322.913 804.754 323.824 804.071 325.192Z" fill="white" fill-opacity="0.15"/>
<path d="M733.723 655.317C732.13 656 730.991 655.772 729.853 655.772C547.95 655.772 366.046 655.772 184.143 655.772C183.005 655.772 181.183 656.456 180.728 655.089C180.273 653.949 182.094 653.266 183.005 652.354C210.097 629.793 238.782 609.738 268.606 591.051C292.966 575.782 318.92 563.704 346.24 554.36C376.064 543.877 406.57 536.129 437.305 529.748C446.184 527.925 455.29 527.469 464.169 527.241C481.699 526.557 499.002 527.697 516.077 531.115C531.558 534.306 546.811 539.091 561.154 545.7C585.514 557.095 607.37 572.136 627.177 590.367C650.398 611.561 675.897 628.653 703.899 642.327C713.006 646.657 722.112 650.759 731.447 654.405C732.13 654.405 732.585 654.861 733.723 655.317ZM471.455 570.313C454.835 570.541 439.354 573.959 425.011 581.707C416.36 586.493 408.847 592.646 403.611 601.078C397.236 611.333 398.602 622.956 407.026 631.616C413.4 637.997 421.141 641.415 429.792 643.466C451.648 648.48 472.821 645.289 492.855 635.49C501.734 631.16 509.702 625.235 515.394 616.803C524.045 603.813 521.313 589.456 508.564 580.568C496.953 572.819 484.204 570.768 471.455 570.313Z" fill="white" fill-opacity="0.15"/>
</g>
<path d="M2.54602 421.263C113.178 317.644 219.595 220.525 330.93 138.319C432.079 63.6317 534.809 3.98404 638.241 -32.2124C728.678 -63.6931 820.871 -75.8011 901.299 -69.3011C976.107 -63.3108 1043.19 -42.5361 1100.44 -17.3006C1154.52 6.66046 1199.65 33.9353 1240.57 58.7884C1277.27 81.0926 1309.58 100.975 1341.02 114.103C1367.89 125.318 1395.98 131.181 1420.92 128.122C1446.56 124.936 1471.67 112.701 1494.32 95.6221C1510.13 121.113 1515.04 149.152 1504.16 177.064C1455.86 216.957 1393.87 241.173 1332.59 236.329C1298.17 233.525 1261.29 224.349 1221.08 212.623C1175.95 199.623 1126.6 183.692 1069.88 170.437C1008.07 156.035 937.825 145.329 861.085 145.966C777.145 146.731 684.25 162.025 592.232 194.398C489.678 230.722 388.177 287.31 291.418 358.174C186.757 434.773 90.5248 525.264 -3.60018 622C-35.9117 602.5 -43.1116 568.215 -34.8581 534.313C-25.551 496.714 -4.30262 459.371 2.54602 421.263Z" fill="url(#paint1_linear)"/>
<path d="M1440 274.499C1434.78 274.499 1429.56 274.182 1424.34 273.865C1420.93 273.654 1417.62 273.232 1414.32 272.81C1410.06 272.388 1405.8 271.649 1401.53 271.016C1395.03 269.96 1388.64 268.588 1382.35 267.005C1367.01 263.1 1351.98 258.034 1337.39 251.913C1322.36 245.686 1307.87 238.51 1293.7 230.7C1287.41 227.217 1281.23 223.734 1275.05 220.252C1267.7 216.03 1260.13 212.125 1252.57 208.431C1238.4 201.571 1224.01 195.344 1209.31 189.856C1198.54 185.846 1187.57 182.258 1176.38 179.091C1169.99 177.297 1163.59 175.714 1157.09 174.237C1148.68 172.337 1140.26 170.754 1131.84 169.487C1126.62 168.643 1121.29 168.01 1116.07 167.377C1110.32 166.743 1104.45 166.321 1098.7 165.899C1091.35 165.266 1084 165.266 1076.64 165.16C1068.86 165.055 1061.09 165.16 1053.31 165.582C1046.7 165.899 1040.09 166.427 1033.38 166.954C1028.48 167.377 1023.58 167.904 1018.78 168.537C1013.78 169.065 1008.87 169.909 1003.87 170.543C997.046 171.493 990.333 172.653 983.62 173.92C978.079 174.975 972.645 176.136 967.104 177.297C951.546 180.569 936.096 184.474 920.752 188.695C913.612 190.701 906.367 192.811 899.227 194.817C887.08 198.194 874.933 201.043 862.572 203.471C854.687 205.054 846.695 206.426 838.703 207.481C831.777 208.431 824.958 209.275 818.032 209.909C806.31 210.964 794.589 211.492 782.761 211.386C775.835 211.281 768.909 211.175 761.876 210.542C758.467 210.225 754.95 210.014 751.434 209.698C749.303 209.487 747.172 209.275 745.041 208.959C738.754 208.115 732.467 207.27 726.287 206.109C709.025 202.943 692.189 198.51 675.672 192.706C654.468 185.318 634.329 175.82 614.829 164.738C596.075 154.079 578.387 141.942 561.338 128.855C547.272 117.984 533.846 106.586 520.846 94.5546C515.412 89.4888 509.978 84.4229 504.33 79.6737C495.593 72.1804 486.429 65.1093 477.052 58.5659C467.036 51.6003 456.593 45.1624 445.831 39.3578C437.306 34.7141 428.569 30.4925 419.618 26.6931C411.413 23.2103 402.995 19.9386 394.471 17.0891C385.946 14.2395 377.315 11.7066 368.578 9.49027C361.651 7.69611 354.619 6.21856 347.586 4.9521C343.111 4.10778 338.742 3.36901 334.267 2.73578C328.513 1.89147 322.758 1.1527 316.898 0.625002C310.931 0.0973072 304.857 -0.430388 298.89 -0.852544C297.824 -0.958083 296.865 -0.958082 295.8 -1.06362C288.128 -1.2747 280.456 -1.69685 272.784 -1.59132C264.472 -1.48578 256.267 -1.2747 247.956 -0.747005C241.35 -0.430389 234.743 0.202845 228.03 0.730539C223.661 1.15269 219.292 1.68039 214.924 2.20809C212.793 2.41916 210.661 2.73578 208.53 3.0524C200.752 4.10779 192.973 5.26871 185.194 6.64072C180.719 7.48503 176.137 8.2238 171.662 9.06812C161.113 11.1789 150.777 13.8174 140.441 16.7725C129.359 19.8331 118.277 23.3159 107.408 27.0097C96.2201 30.8091 85.0317 34.9252 74.0564 39.2522C60.7369 44.5292 47.4174 50.2283 34.5241 56.4551C24.0816 61.521 13.8522 66.9034 3.8359 72.8136C3.09001 73.2358 2.23756 73.7635 1.49166 74.1856C1.06544 74.3967 0.532659 74.5023 0.106434 74.7133C-0.00012207 44.107 -0.00012207 13.6063 -0.00012207 -17C480.035 -17 959.964 -17 1440 -17C1440 80.2014 1440 177.403 1440 274.499Z" fill="#111827"/>
</g>
<defs>
<linearGradient id="paint0_linear" x1="1375.89" y1="761.452" x2="1117.72" y2="-244.534" gradientUnits="userSpaceOnUse">
<stop stop-color="#012A2C"/>
<stop offset="0.1643" stop-color="#03424B"/>
<stop offset="0.5119" stop-color="#0D576D"/>
<stop offset="1" stop-color="#004865"/>
</linearGradient>
<linearGradient id="paint1_linear" x1="637.433" y1="-47.8895" x2="710.603" y2="531.85" gradientUnits="userSpaceOnUse">
<stop stop-color="white" stop-opacity="0.1"/>
<stop offset="0.984375" stop-color="white" stop-opacity="0.15"/>
</linearGradient>
<clipPath id="clip0">
<rect width="1440" height="565" fill="white" transform="translate(1440 565) rotate(180)"/>
</clipPath>
<clipPath id="clip1">
<rect width="1376" height="451" fill="white" transform="translate(1424 706) rotate(180)"/>
</clipPath>
</defs>
</svg>
