<svg width="548" height="433" viewBox="0 0 548 433" fill="none" xmlns="http://www.w3.org/2000/svg">
<g clip-path="url(#clip0)">
<path d="M546.104 -56.526C545.156 -57 544.208 -57 543.259 -57C481.633 -57 420.007 -57 358.381 -57C357.907 -57 357.433 -57 356.958 -57C356.01 -57 355.536 -56.526 354.588 -56.0519C349.374 -51.7855 344.633 -46.5709 339.893 -41.8305C335.626 -38.0381 331.834 -33.2976 327.567 -29.0311C325.197 -26.1869 322.827 -23.3426 320.457 -20.4983C318.086 -17.654 315.716 -14.3356 312.872 -11.0173C310.028 -7.22491 306.709 -3.43253 303.865 0.359859C300.073 5.10035 296.28 10.3149 292.488 15.0554C287.747 21.218 283.481 26.9066 278.74 33.0692C274.474 38.7578 270.682 43.9723 266.415 49.6609C262.149 54.8754 258.356 60.09 254.564 65.3045C249.824 71.4671 245.557 77.1557 240.817 83.3183C237.024 88.0588 233.232 92.7993 229.439 97.5398C226.121 102.28 222.329 106.547 218.536 110.813C214.744 115.554 210.952 120.294 206.685 125.035C204.315 127.879 201.945 130.723 199.1 134.042C195.308 137.834 191.99 142.1 188.671 145.893C185.353 149.685 182.035 153.003 178.716 156.796C175.398 160.588 172.08 163.907 168.761 167.225C162.599 174.336 155.488 180.972 148.851 187.609C144.111 192.349 138.896 196.616 134.156 200.882C128.467 205.623 122.779 210.363 117.09 214.63C110.453 219.844 103.343 224.585 96.2318 228.851C90.0692 232.644 84.3806 236.436 78.218 239.754C72.5294 243.073 66.8408 245.917 61.1522 248.761C52.6194 253.028 44.0865 256.82 35.0796 260.138C29.8651 262.035 24.1765 263.931 18.4879 265.827C13.2734 267.723 7.58477 269.145 2.37024 270.567C0 271.516 0 271.042 0 273.886C0 345.467 0 417.048 0 488.63C0 489.104 0 489.578 0 490.052C0 491 0.474048 491.474 1.42215 491.474C3.31834 491.474 5.21453 491.474 7.11073 491.474C8.53287 491.474 9.48097 491 10.4291 489.578C12.7993 486.734 15.1695 483.415 18.0138 480.571C21.8062 476.305 25.5986 472.512 28.917 468.246C32.7093 463.979 36.5017 459.713 40.2941 455.92C46.4567 449.284 53.0934 443.121 59.7301 436.958C64.9446 432.218 69.6851 427.477 74.8997 422.737C78.692 419.419 82.4844 416.574 85.8028 413.256C89.1211 409.938 92.4394 407.567 95.7578 404.723C100.498 400.457 105.713 397.138 110.453 392.872C117.09 387.183 124.201 381.969 131.311 376.754C137.948 371.54 145.059 366.799 152.17 362.059C161.176 355.422 170.657 349.259 180.138 343.097C188.671 337.882 197.204 332.668 205.737 327.453C214.744 321.765 224.225 316.55 233.706 311.336C240.343 307.543 247.453 303.751 254.09 300.433C261.201 296.64 268.785 292.848 275.896 289.529C285.377 284.789 294.858 280.522 304.813 275.782C313.346 271.99 322.353 268.197 331.36 264.405C336.1 262.509 340.841 260.612 346.055 258.716C350.796 256.82 355.062 255.398 359.803 253.502C365.965 251.131 372.602 248.761 378.765 246.391C384.453 244.495 390.142 242.599 396.304 240.702C399.623 239.754 402.467 238.806 405.785 237.858C411 236.436 415.74 234.54 420.955 233.118C425.221 232.17 429.488 230.747 433.28 229.325C438.021 227.903 442.761 226.955 447.502 225.533C452.242 224.111 457.457 223.163 462.197 221.74C466.464 220.318 471.204 219.844 475.945 218.896C480.211 217.948 484.952 217 489.218 216.052C493.01 215.104 496.803 214.63 500.595 213.682C503.439 213.208 505.81 212.26 508.654 211.785C511.498 211.311 514.343 210.363 517.187 209.889C521.927 208.941 526.194 207.519 530.46 206.097C535.675 204.675 541.363 202.779 546.578 200.882C548 200.408 548.474 199.934 548.474 198.512C548.474 157.27 548.474 116.502 548.474 75.2595C548.474 73.3633 548 72.8893 546.578 73.8374C540.889 77.1557 535.201 80 529.038 82.8443C524.298 85.2145 519.083 87.5848 513.868 89.481C509.602 91.3772 504.862 92.7993 500.121 94.2215C494.432 96.1176 488.744 97.0657 482.581 98.0138C476.419 98.4879 470.256 98.9619 464.093 97.5398C457.457 96.1176 451.768 93.7474 447.028 89.481C441.813 84.7405 438.495 79.0519 437.547 71.9412C436.599 66.2526 437.073 60.09 438.969 53.9273C441.339 46.8166 444.657 39.7059 448.924 33.5433C451.768 28.8028 455.086 24.5363 458.879 20.2699C463.145 15.0554 467.412 10.7889 471.678 6.04844C477.367 0.359859 483.055 -5.32872 489.218 -10.5433C493.01 -13.8616 497.277 -17.654 501.069 -20.9723C507.232 -26.1869 513.869 -31.4014 520.505 -36.6159C526.668 -41.3564 532.83 -46.0969 538.993 -50.8374C541.363 -52.7336 543.734 -54.1557 546.104 -56.526ZM295.806 491C317.612 491 339.419 491 360.751 491C362.173 491 363.595 490.526 364.543 489.104C365.491 487.682 366.439 486.734 367.388 485.785C372.128 481.045 376.868 476.779 382.557 472.986C387.298 469.668 392.038 466.823 397.253 464.453C401.993 462.083 406.734 460.187 411.948 457.817C414.792 456.868 417.637 455.446 420.481 454.498C425.221 453.076 429.962 451.18 434.702 449.758C437.547 448.81 440.391 447.862 443.235 446.913C446.554 445.965 450.346 445.017 453.664 444.069C458.879 442.647 464.093 441.225 469.308 439.329C473.574 437.907 477.367 436.958 481.633 435.536C486.374 434.114 491.114 432.692 495.381 430.796C500.121 429.374 504.388 427.952 509.128 426.055C514.343 424.159 520.031 422.263 525.246 419.893C531.882 417.048 538.993 414.204 545.63 411.36C547.526 410.886 548 409.464 548 408.042C548 379.599 548 351.156 548 322.713C548 322.239 548 321.765 548 321.291C548 320.343 547.052 319.868 546.578 320.817C545.63 321.765 543.734 322.713 542.785 323.661C540.415 325.557 537.571 327.453 535.201 329.349C530.934 332.194 526.194 335.038 521.927 337.882C519.083 339.779 515.765 341.201 512.92 343.097C507.706 345.941 502.491 348.311 496.803 351.156C492.536 353.052 488.27 354.948 484.003 356.844C479.737 358.74 475.471 360.163 471.204 361.585C466.464 363.481 461.249 364.903 456.509 366.799C451.768 368.695 446.554 370.118 441.813 371.54C435.176 373.436 428.54 375.332 422.377 377.228C418.111 378.65 413.37 379.599 408.63 380.547C406.259 381.021 403.415 381.495 401.045 382.443C397.727 383.391 394.408 383.865 391.09 384.813C389.194 385.287 386.823 385.287 384.927 385.761C380.661 386.709 376.394 387.657 372.128 388.606C368.81 389.08 365.491 390.028 362.173 390.502C356.958 391.924 351.744 392.872 346.529 394.768C341.789 396.19 336.574 398.086 331.834 399.983C327.567 401.879 323.301 403.301 319.035 405.671C316.19 407.093 312.872 408.99 310.028 410.412C306.235 412.782 301.969 415.152 298.176 417.522C292.962 420.841 287.747 425.107 282.533 428.9C280.637 430.322 279.215 431.744 277.318 433.166C274.474 435.536 271.63 437.907 269.259 440.277C265.467 444.069 261.675 447.862 257.882 452.128C253.616 456.868 249.349 462.083 245.083 466.823C242.239 470.616 239.394 474.408 236.55 478.201C234.18 481.519 231.81 484.837 229.439 488.63C228.965 489.578 229.439 490.052 230.388 490.052C230.862 490.052 231.336 490.052 231.81 490.052C252.668 491 274.474 491 295.806 491ZM0 76.6817C0 92.7993 0 109.391 0 125.509C0 126.931 0.474048 127.879 1.89619 127.405C4.26644 126.931 6.63668 126.457 9.48097 125.509C15.6436 123.612 21.8062 122.19 27.9689 120.294C32.7093 118.872 37.9239 116.976 42.6644 115.554C47.8789 113.657 52.6194 111.761 57.8339 109.865C63.9965 107.495 69.6851 104.651 75.3737 101.806C81.5363 98.4879 87.699 95.1695 93.3875 91.3772C97.654 88.5329 101.92 85.6886 105.713 82.8443C108.083 80.9481 110.453 79.0519 112.349 77.6297C116.142 74.7855 119.46 71.4671 122.779 68.1488C127.519 63.4083 131.785 58.6678 135.578 53.4533C137.948 50.1349 140.318 46.8166 142.215 43.4983C145.059 39.2318 147.429 34.4913 149.799 30.2249C152.17 26.4325 154.066 22.1661 156.436 18.3737C160.228 12.2111 163.547 6.04844 167.339 0.359859C171.131 -5.32872 174.924 -11.0173 178.716 -17.1799C181.561 -21.4464 184.405 -25.7128 187.723 -29.5052C190.567 -33.2976 193.412 -36.6159 196.256 -40.4083C200.522 -45.1488 204.789 -49.8893 209.055 -54.6298C209.529 -55.1038 210.003 -55.5779 210.003 -56.0519C209.529 -57 208.581 -57 208.107 -57C185.353 -57 162.599 -57 139.844 -57C138.896 -57 137.948 -57 137 -56.526C135.104 -55.1038 133.208 -53.6817 131.311 -52.2595C127.993 -49.4152 124.201 -46.5709 120.882 -44.2007C118.038 -41.8305 115.668 -39.9343 112.824 -37.564C108.083 -33.2976 103.343 -29.0311 98.6021 -24.7647C93.3875 -20.0242 88.6471 -14.8097 83.4325 -10.0692C79.6401 -6.27682 75.3737 -2.95848 71.1073 0.359859C66.3668 3.6782 61.6263 6.52249 56.4118 9.36678C52.1453 11.737 48.3529 13.6332 43.6125 15.0554C38.872 16.9516 34.1315 18.8477 29.391 19.7958C25.5986 20.7439 22.2803 22.1661 18.4879 22.6401C16.1176 23.1142 13.7474 23.5882 11.8512 24.0623C8.53287 24.5363 5.21453 25.0104 1.89619 25.4844C0.474048 25.9585 0 26.4325 0 28.3287C0 44.4464 0 60.564 0 76.6817Z" fill="#201600"/>
<path d="M546.104 -56.526C543.734 -54.1557 541.363 -52.7336 538.993 -50.8374C532.83 -46.0969 526.668 -41.3564 520.505 -36.6159C513.869 -31.4014 507.706 -26.1868 501.069 -20.9723C496.803 -17.654 493.01 -13.8616 489.218 -10.5432C483.055 -5.32872 477.367 0.359867 471.678 6.04845C467.412 10.7889 463.145 15.5294 458.879 20.2699C455.086 24.0623 451.768 28.3287 448.924 33.0692C444.657 39.7059 441.339 46.3426 438.969 53.4533C437.073 59.1419 436.599 65.3045 437.547 71.4671C438.495 78.1038 441.813 83.7924 447.028 89.0069C451.768 93.7474 457.457 96.1177 464.093 97.0658C470.256 98.4879 476.419 98.0138 482.581 97.5398C488.27 97.0658 494.432 95.6436 500.121 93.7474C504.862 92.3253 509.602 90.9031 513.868 89.0069C519.083 87.1107 523.823 84.7405 529.038 82.3703C534.727 79.526 540.889 76.2076 546.578 73.3633C548.474 72.4152 548.474 72.4152 548.474 74.7855C548.474 116.028 548.474 156.796 548.474 198.038C548.474 199.46 548 199.934 546.578 200.408C541.363 202.305 535.675 203.727 530.46 205.623C526.194 207.045 521.453 208.467 517.187 209.415C514.343 209.889 511.498 210.837 508.654 211.311C505.81 211.785 503.439 212.734 500.595 213.208C496.803 214.156 493.01 214.63 489.218 215.578C484.952 216.526 480.211 217.474 475.945 218.422C471.678 219.37 466.938 220.318 462.197 221.266C457.457 222.689 452.242 223.637 447.502 225.059C442.761 226.481 438.021 227.429 433.28 228.851C429.014 229.799 424.747 231.221 420.955 232.644C415.74 234.066 411 235.488 405.785 237.384C402.467 238.332 399.623 239.28 396.304 240.228C390.616 242.125 384.927 244.021 378.765 245.917C372.128 248.287 365.965 250.183 359.803 253.028C355.062 254.924 350.796 256.346 346.055 258.242C341.315 260.138 336.574 262.035 331.36 263.931C322.353 267.723 313.82 271.516 304.813 275.308C295.332 279.574 285.377 284.315 275.896 289.055C268.785 292.848 261.201 296.166 254.09 299.959C246.979 303.751 240.343 307.069 233.706 310.862C224.225 316.076 215.218 321.291 205.737 326.979C197.204 332.194 188.671 337.408 180.138 342.623C170.657 348.785 161.176 354.948 152.17 361.585C145.059 366.325 137.948 371.066 131.311 376.28C124.201 381.495 117.564 386.709 110.453 392.398C105.713 396.664 100.498 399.983 95.7578 404.249C92.4394 407.093 88.6471 409.938 85.8028 412.782C82.4844 416.1 78.218 418.945 74.8997 422.263C69.6851 427.003 64.9446 431.744 59.7301 436.484C53.0934 442.647 46.9308 449.284 40.2941 455.446C36.5017 459.713 32.2353 463.505 28.917 467.772C25.5986 472.038 21.8062 475.831 18.0138 480.097C15.6436 482.941 12.7993 486.26 10.4291 489.104C9.48097 490.526 8.53287 491 7.11073 491C5.21453 491 3.31834 491 1.42215 491C0.474048 491 0 490.526 0 489.578C0 489.104 0 488.63 0 488.156C0 417.048 0 345.467 0 273.886C0 271.042 0 271.516 2.37024 270.567C7.58477 269.145 13.2734 267.723 18.4879 265.827C24.1765 263.931 29.391 262.035 35.0796 260.138C44.0865 256.82 52.6194 253.028 61.1522 248.761C66.8408 245.917 72.5294 243.073 78.218 239.754C84.3806 236.436 90.5432 232.644 96.2318 228.851C103.343 224.585 109.979 219.37 117.09 214.63C122.779 210.363 128.467 205.623 134.156 200.882C139.37 196.616 144.111 191.875 148.851 187.609C155.488 180.972 162.599 174.336 168.761 167.225C172.08 163.433 175.398 160.114 178.716 156.796C182.035 153.003 185.353 149.685 188.671 145.893C191.99 142.1 195.782 137.834 199.1 134.042C201.471 131.197 204.315 128.353 206.685 125.035C210.477 120.294 214.744 115.554 218.536 110.813C222.329 106.547 225.647 101.806 229.439 97.5398C233.232 92.7993 237.024 88.0588 240.817 83.3183C245.557 77.1557 249.824 71.4671 254.564 65.3045C258.83 60.09 262.623 54.8754 266.415 49.6609C270.682 44.4464 274.474 38.7578 278.74 33.0692C283.481 26.9066 287.747 21.218 292.488 15.0554C296.28 10.3149 300.073 5.10035 303.865 0.359867C306.709 -3.43252 310.028 -7.22491 312.872 -11.0173C315.242 -14.3356 317.612 -17.1799 320.457 -20.4983C322.827 -23.3426 325.197 -26.1868 327.567 -29.0311C331.834 -33.2976 335.626 -38.0381 339.893 -41.8304C344.633 -46.5709 349.374 -51.3114 354.588 -56.0519C355.062 -56.526 356.01 -57 356.958 -57C357.433 -57 357.907 -57 358.381 -57C420.007 -57 481.633 -57 543.259 -57C544.208 -57 545.156 -57 546.104 -56.526Z" fill="white"/>
<path d="M295.806 491C274.474 491 252.668 491 231.336 491C230.862 491 230.388 491 229.914 491C228.965 491 228.491 490.526 228.965 489.578C231.336 485.786 233.706 482.467 236.076 479.149C238.92 475.357 241.291 471.564 244.609 467.772C248.875 462.557 253.142 457.817 257.408 453.076C261.201 448.81 264.993 445.017 268.785 441.225C271.156 438.855 274 436.485 276.844 434.114C278.741 432.692 280.163 431.27 282.059 429.848C287.273 426.055 292.488 421.789 297.702 418.471C301.495 416.101 305.287 413.73 309.554 411.36C312.398 409.464 315.716 408.042 318.561 406.62C322.827 404.249 327.093 402.827 331.36 400.931C336.1 399.035 341.315 397.613 346.055 395.716C351.27 393.82 356.484 392.872 361.699 391.45C365.017 390.502 368.336 390.028 371.654 389.554C375.92 388.606 380.187 388.132 384.453 386.709C386.35 386.235 388.246 386.235 390.616 385.761C393.934 384.813 397.253 384.339 400.571 383.391C402.941 382.917 405.785 382.443 408.156 381.495C412.896 380.073 417.163 379.599 421.903 378.177C428.54 376.28 435.176 374.858 441.339 372.488C446.08 371.066 451.294 369.644 456.035 367.748C460.775 365.851 465.99 364.429 470.73 362.533C474.997 360.637 479.263 359.689 483.529 357.793C487.796 355.896 492.062 354 496.329 352.104C501.543 349.734 507.232 346.889 512.446 344.045C515.291 342.623 518.609 340.727 521.453 338.831C525.72 335.986 530.46 333.142 534.727 330.298C537.571 328.401 539.941 326.505 542.311 324.609C543.734 323.661 545.156 322.713 546.104 321.765C547.052 320.817 547.526 321.291 547.526 322.239C547.526 322.713 547.526 323.187 547.526 323.661C547.526 352.104 547.526 380.547 547.526 408.99C547.526 410.886 547.052 411.834 545.156 412.308C538.519 415.152 531.882 417.997 524.772 420.841C519.557 422.737 513.869 425.107 508.654 427.004C504.388 428.9 499.647 429.848 494.907 431.744C490.166 433.166 485.426 435.062 481.159 436.485C476.893 437.907 473.1 438.855 468.834 440.277C463.619 441.699 458.405 443.121 453.19 445.017C449.872 445.966 446.08 446.914 442.761 447.862C439.917 448.81 437.073 449.758 434.228 450.706C429.488 452.128 424.747 453.55 420.007 455.447C417.163 456.395 414.318 457.817 411.474 458.765C406.734 460.661 401.519 462.557 396.779 465.402C391.564 467.772 386.824 470.616 382.083 473.934C376.869 477.727 371.654 481.993 366.914 486.734C365.965 487.682 364.543 488.63 364.069 490.052C363.121 491.474 362.173 491.948 360.277 491.948C339.419 491 317.612 491 295.806 491Z" fill="white"/>
<path d="M0 76.6817C0 60.564 0 44.4464 0 28.3287C0 26.4325 0.474048 26.4325 2.37024 25.9585C5.68858 25.4844 9.00692 25.0104 12.3253 24.5363C14.6955 24.0623 17.0657 23.5882 18.9619 23.1142C22.7543 22.6401 26.0727 21.218 29.8651 20.2699C34.6055 19.3218 39.346 17.4256 44.0865 15.5294C48.3529 13.6332 52.6194 11.737 56.8858 9.84084C62.1003 6.99654 66.8408 4.15225 71.5813 0.833912C75.8477 -2.48443 80.1142 -5.80276 83.9066 -9.59515C89.1211 -14.3356 93.8616 -19.5502 99.0761 -24.2907C103.817 -28.5571 108.557 -32.8235 113.298 -37.09C115.668 -39.4602 118.512 -41.3564 121.356 -43.7266C124.675 -46.5709 127.993 -49.4152 131.311 -52.2595C133.208 -53.6817 135.104 -55.1038 137 -56.526C137.948 -57 138.896 -57 139.844 -57C162.599 -57 185.353 -57 208.107 -57C208.581 -57 209.529 -57 210.003 -56.526C210.477 -56.0519 209.529 -55.5779 209.055 -55.1038C204.315 -50.8374 200.048 -46.0969 196.256 -40.8824C193.412 -37.564 190.567 -33.7716 187.723 -29.9792C184.405 -26.1868 181.561 -21.9204 178.716 -17.654C174.924 -11.9654 171.131 -6.27681 167.339 -0.114182C163.547 6.04845 160.228 11.737 156.436 17.8997C154.066 21.692 152.17 25.9585 149.799 29.7509C147.429 34.0173 145.059 38.7578 142.215 43.0242C139.844 46.3426 137.948 49.6609 135.578 52.9792C131.785 58.1938 127.519 62.9343 122.779 67.6747C119.46 70.9931 116.142 74.3114 112.349 77.1557C109.979 79.0519 108.083 80.9481 105.713 82.3703C101.92 85.6886 97.654 88.0588 93.3875 90.9031C87.699 94.6955 81.5363 98.0139 75.3737 101.332C69.6851 104.176 63.9965 107.021 57.8339 109.391C53.0934 111.287 47.8789 113.657 42.6644 115.08C37.9239 116.976 33.1834 118.398 27.9689 119.82C21.8062 121.716 15.6436 123.138 9.48097 125.035C7.11073 125.509 4.74048 126.457 1.89619 126.931C0.474048 127.405 0 126.931 0 125.509C0 108.917 0 92.7993 0 76.6817Z" fill="white"/>
</g>
<defs>
<clipPath id="clip0">
<rect width="548" height="548" fill="white" transform="translate(0 -57)"/>
</clipPath>
</defs>
</svg>
