<svg width="33" height="37" viewBox="0 0 33 37" fill="none" xmlns="http://www.w3.org/2000/svg">
<path d="M3.28459 33.1406L0.358887 0.500488L32.5017 0.500488L29.5724 33.1352L16.4104 36.7645L3.28459 33.1406Z" fill="#1572B6"/>
<path d="M16.4303 33.991L27.0659 31.0569L29.5669 3.16908L16.4303 3.16908V33.991Z" fill="#33A9DC"/>
<path d="M16.4303 14.9941H21.7554L22.122 10.8954H16.4303V6.89418L26.5214 6.89418L26.4253 7.96852L25.4361 19.0008H16.4303V14.9941Z" fill="white"/>
<path d="M16.4522 25.3909H16.434L11.9529 24.1866L11.6661 20.9942H7.62964L8.19409 27.2796L16.4376 29.5619H16.4612V25.3909H16.4522Z" fill="#EBEBEB"/>
<path d="M21.4142 18.8256L20.9296 24.1829L16.4412 25.3872V29.5582L24.6902 27.2831L24.7501 26.606L25.4507 18.8238H21.4142V18.8256Z" fill="white"/>
<path d="M16.4448 6.89418V10.8972H6.72755L6.64407 9.99802L6.46076 7.96852L6.36456 6.89418L16.4448 6.89418ZM16.4303 14.9941V18.9972H12L11.922 18.098L11.7386 16.0685L11.6425 14.9941H16.4285H16.4303Z" fill="#EBEBEB"/>
</svg>
