<svg width="44" height="51" viewBox="0 0 44 51" fill="none" xmlns="http://www.w3.org/2000/svg">
<g clip-path="url(#clip0)">
<path d="M7.69438 22.9451C6.27575 23.6146 2.521 26.6284 1.79782 27.5213C1.04679 28.4142 0.824348 27.0191 1.6031 24.703C2.21485 22.8334 3.77263 20.2941 6.38704 18.1176C7.91668 16.8619 11.2823 15.0482 13.3404 13.9878C13.7577 13.7644 19.1535 11.4763 23.9653 10.3323C24.3826 10.2206 23.4647 11.0299 23.3255 11.4763C22.6024 13.597 8.16698 22.6938 8.16698 22.6938L7.69438 22.9451ZM28.026 48.5332C28.2763 50.04 28.0539 50.1516 26.4964 50.347C24.9388 50.5423 23.7984 49.9563 23.3813 49.5657C22.964 49.1749 22.8807 48.31 23.2978 47.5287C23.5483 47.0263 23.7986 46.8589 23.9377 46.2451C24.0767 45.6591 24.188 45.5195 24.2992 45.2964C24.4103 45.1009 24.4383 44.9055 24.466 43.5383C24.4939 42.1711 24.466 39.6038 24.6052 38.5156C24.7443 37.3995 29.5561 39.0178 29.5561 39.0178C29.5561 39.0178 28.4156 41.8641 28.1098 42.5617C27.8037 43.2594 27.8316 44.5986 27.8316 44.8777C27.8316 45.1568 27.7204 45.7147 27.6369 45.7427C27.5534 45.7705 27.915 46.496 27.748 46.9147C27.6367 47.3054 27.9983 48.31 28.026 48.5332V48.5332ZM29.8618 5.8676C29.6948 4.80725 29.8618 2.71423 30.0843 2.37955C30.7797 1.43072 34.4511 1.3192 35.2299 2.43531C35.5637 2.93753 35.5358 4.10953 35.4802 4.86301C35.4247 5.61635 35.2299 7.23482 35.2021 7.76513C35.1744 8.15584 31.1413 8.76958 30.2513 7.70923C30.0009 7.43031 29.8618 5.8676 29.8618 5.8676V5.8676ZM38.0391 45.8264C39.7357 47.0543 41.0429 47.2775 41.9051 47.7239C42.7673 48.1705 42.5449 49.0355 41.0985 49.2866C39.9303 49.5098 38.0947 49.0633 36.8709 49.0633C35.6471 49.0633 32.9213 49.2029 32.1981 48.7007C31.3638 48.1148 31.7252 47.0263 31.7252 47.0263C31.9478 46.4126 32.504 45.0451 32.3371 43.929C32.1702 42.8129 31.9477 42.199 31.5305 41.1665C31.1133 40.1341 30.8075 37.5949 31.1969 37.4553C31.5863 37.3157 31.4749 37.4553 31.9757 37.5668C32.4763 37.6783 33.0326 37.8458 34.1173 37.8458C35.2021 37.8458 36.398 37.6783 36.8153 37.5947C37.2325 37.511 37.5662 37.4272 37.4271 38.2923C37.288 39.1573 36.8709 40.7758 36.843 42.0315C36.8153 43.2872 36.8153 44.7382 36.8987 44.9894C36.982 45.2405 37.5941 45.5195 38.0391 45.8264V45.8264Z" fill="#010101"/>
<path d="M32.087 8.65808C29.0275 11.3091 23.1031 12.0345 14.3141 15.4388C12.0612 16.3038 6.05347 18.8989 4.60712 21.6057C9.47449 18.7874 11.2824 22.666 11.6717 26.6563C12.0332 30.3955 13.8968 32.3489 18.6808 32.2371C23.6039 32.1256 25.1058 34.9996 26.4686 38.3762C29.1108 25.4564 33.3386 22.9451 36.0642 20.7407C41.8496 16.0248 34.7292 7.70925 32.087 8.65808Z" fill="#8AC640"/>
<path d="M32.087 8.65802C24.7442 11.2252 17.4847 11.867 8.94604 17.141C6.91566 18.3967 2.63232 21.2428 1.79785 26.6842C4.91286 23.224 12.1166 18.8711 20.9336 16.1086C25.3838 14.7132 28.6381 13.7925 32.5876 12.2577C32.3096 10.4717 32.3096 9.77413 32.087 8.65802V8.65802Z" fill="#8AC640"/>
<path d="M41.4601 23.9495C41.4601 23.9495 40.9316 25.7633 39.8747 26.3494C39.8747 26.3494 39.096 26.6285 37.5385 25.7635C37.0934 25.5124 36.7597 24.6474 36.7874 24.3682C36.8153 23.6984 37.2324 23.3915 37.2324 23.3915C37.2324 23.3915 37.6776 22.6381 38.2059 22.666C38.7345 22.6938 39.6245 22.7775 39.9027 22.5264C40.1529 22.2474 41.5158 23.0286 41.4601 23.9495V23.9495ZM30.1121 6.39777C30.1121 6.39777 30.001 7.82102 29.8062 8.71382C29.7784 8.88137 28.9441 8.96493 28.332 9.21618C29.5002 12.5646 36.5371 12.5367 37.455 10.8904C37.01 10.5835 36.12 10.1091 35.7028 9.94171C35.2855 9.77417 35.3134 9.80211 35.2855 9.02083C35.2578 8.2394 35.2021 6.78848 35.1464 6.39777C35.0908 6.00706 30.7796 6.00706 30.1121 6.39777Z" fill="#010101"/>
<path d="M30.3903 6.39778C30.3903 6.39778 30.3903 7.20701 30.3069 7.9883C30.2791 8.35107 30.2513 8.57424 30.1957 8.8533C30.1679 9.02084 31.1413 9.69034 31.4195 11.1694C32.7546 14.155 35.842 12.6762 37.1214 11.2531C36.6763 10.946 35.9532 10.5275 35.1188 10.1927C34.7015 10.0252 34.8962 9.66253 34.8685 8.88124C34.8407 8.09995 34.7294 6.95576 34.6738 6.53724C34.6179 6.11872 31.0579 6.00707 30.3903 6.39778V6.39778Z" fill="#F0EFEF"/>
<path d="M30.1121 6.39777C30.1121 6.39777 30.0843 6.90014 30.001 7.48607C30.3624 7.8487 30.8353 8.35106 31.197 8.65807C31.4473 8.88137 32.0591 8.85343 32.6155 8.85343C33.1161 8.85343 33.5611 8.90918 33.7559 8.79767C34.201 8.57437 34.8406 8.01638 35.2022 7.59772C35.1745 7.09549 35.1466 6.62107 35.1189 6.39777C35.0908 6.00706 30.7796 6.00706 30.1121 6.39777V6.39777Z" fill="#010101"/>
<path d="M32.6432 8.51847C32.3093 8.51847 31.9199 8.49066 31.614 8.43477C31.4749 8.40696 31.3359 8.32325 31.2246 8.26736C31.0299 8.12776 30.8351 7.96049 30.6128 7.79294C30.1677 7.45813 30.14 7.26277 30.14 7.1792C30.3347 5.42113 30.0842 3.94226 30.0842 3.94226C30.0842 3.94226 29.8895 3.18879 30.9464 2.99343C32.0033 2.79807 32.6431 2.77026 32.6431 2.77026C32.6431 2.77026 33.3107 2.77026 34.3397 2.99343C35.3966 3.18879 35.2019 3.94226 35.2019 3.94226C35.2019 3.94226 34.9516 5.42113 35.1463 7.1792C35.1463 7.26277 35.1186 7.45813 34.6735 7.79294C34.284 8.072 33.9781 8.37888 33.6723 8.43477C33.3663 8.49066 32.9768 8.51847 32.6432 8.51847V8.51847Z" fill="#010101"/>
<path d="M32.6432 2.04474C30.8076 2.04474 30.4459 2.54697 29.9174 3.10509C29.8063 3.24455 29.8895 4.08173 30.0844 5.86761H30.3347C30.3347 5.86761 30.1677 5.36524 30.1956 4.77931C30.2234 4.19338 30.3347 4.22133 30.2511 4.08173C30.14 3.91418 29.9174 3.63512 30.4181 3.3562C30.9187 3.07714 31.6975 3.57937 32.6432 3.60731C33.5889 3.57937 34.3955 3.07714 34.8961 3.3562C35.3967 3.63512 35.1742 3.91418 35.0631 4.08173C34.9518 4.24914 35.0908 4.19324 35.1186 4.77931C35.1464 5.36524 34.9795 5.86761 34.9795 5.86761H35.2298C35.3967 4.08173 35.508 3.30044 35.4245 3.16084C34.9516 2.54697 34.4789 2.07255 32.6432 2.04474V2.04474ZM41.4601 24.0333C41.4601 24.0333 40.9316 25.7354 39.9026 26.3214C39.68 26.2098 39.7079 26.0424 39.5131 25.7912C39.4574 25.7076 39.2627 25.6516 39.1794 25.568C39.096 25.4843 39.1238 25.3447 38.9847 25.2332C38.8734 25.1216 38.79 25.2053 38.6787 25.1216C38.5675 25.01 38.5395 24.8704 38.4562 24.7869C38.4005 24.731 38.1781 24.7032 38.1225 24.6473C37.9834 24.5077 36.7597 24.2566 36.8153 23.9775C36.9264 23.5588 37.149 23.252 37.149 23.252C37.149 23.252 37.6775 22.4707 38.2058 22.4985C38.7342 22.5264 39.235 22.6381 39.5131 22.387C39.8191 22.1078 41.5437 23.1403 41.4601 24.0333Z" fill="#010101"/>
<path d="M37.8443 11.6997C37.8443 11.6997 39.5966 11.281 40.7926 12.4252C41.9887 13.5972 41.9051 15.0481 41.5437 15.9411C41.8495 16.3039 42.4059 17.3083 41.9887 18.5083C43.8244 20.0708 43.0177 22.4707 41.3768 24.0612C41.3768 24.0612 40.9873 22.6102 39.4298 22.5265C39.4854 21.9685 37.9835 21.5219 38.6788 20.0708C37.6219 19.8197 37.6497 19.0942 37.4829 18.2014C37.3437 17.3083 37.8443 11.6997 37.8443 11.6997V11.6997Z" fill="#010101"/>
<path d="M37.2046 12.4809C37.2046 12.4809 39.235 11.4485 40.4311 12.6205C41.627 13.7925 41.2931 15.076 40.9317 15.969C41.2375 16.3316 41.9607 17.3643 41.5157 18.5919C41.4323 18.8709 40.8204 18.8709 40.3752 19.5965C41.4877 18.9545 42.1832 19.122 42.4335 19.9311C42.8229 21.1868 41.9606 22.6937 41.2097 23.5308C41.2097 23.5029 41.1818 23.475 41.1818 23.4471C41.0707 23.8658 40.9315 24.6749 40.0972 25.5678C39.6799 26.0143 39.3461 25.9585 38.8733 25.8469C38.3171 25.7073 38.1224 25.456 37.3436 25.0377C36.8986 24.7865 37.1489 24.4795 37.1489 24.2284C37.1489 24.1727 37.2045 24.0888 37.288 23.9773C37.3436 23.8377 37.5105 23.6147 37.7608 23.3634C37.7608 23.3634 38.1224 22.8612 38.651 22.889C39.1794 22.917 39.7356 22.8055 39.8747 22.6659C39.8747 21.6892 38.7622 21.6613 39.1516 19.987C39.1794 19.9033 39.3186 19.7637 39.7635 19.708C39.0958 19.5684 38.79 19.5404 38.3171 19.0941C37.9834 18.7872 37.7331 18.3965 37.6495 17.8943C37.4828 17.0293 37.2046 12.4809 37.2046 12.4809V12.4809Z" fill="#F0EFEF"/>
<path d="M31.3359 10.723C31.169 10.4997 30.3068 9.3836 28.6658 8.93713C28.1929 8.79753 27.887 9.18825 27.4143 9.46731C27.2751 9.3836 26.6633 9.10454 26.3295 9.29976C25.9958 9.49498 25.7733 9.69048 25.4395 9.82994C25.2725 9.74623 24.8276 9.74623 24.466 9.8857C24.1044 9.99735 23.5481 10.2485 23.0197 10.974C22.6859 12.174 28.9161 11.2809 28.9161 11.2809L31.3359 10.723Z" fill="#010101"/>
<path d="M31.3916 10.723C30.5015 10.416 30.6406 9.38361 28.6658 9.2162C28.2764 9.18825 28.0261 9.49512 27.7479 9.69048C27.887 9.83008 28.0261 10.0532 28.1095 10.2764C27.8592 9.99748 27.4142 9.63458 26.969 9.55088C26.5518 9.46731 26.2737 9.77418 25.8287 9.99748C25.912 10.0811 25.9955 10.2207 26.1067 10.3882C25.7172 10.1371 25.4392 10.0534 24.9108 10.2486C24.5492 10.3601 23.8539 10.6671 23.3254 11.4206C22.9917 12.6205 28.9438 11.281 28.9438 11.281L31.3916 10.723Z" fill="#8AC640"/>
<path d="M36.6206 11.1695C36.6206 11.1695 36.6206 10.8625 36.5927 10.5836C36.5927 10.5278 36.3703 10.3882 36.3703 10.3325L36.3147 10.2766C36.3147 10.2766 36.7597 10.0254 37.0935 10.165C37.4549 10.2766 37.6496 10.751 37.6496 10.751C38.2894 10.5278 38.3449 10.7789 38.651 11.1138C39.3186 10.9742 39.4019 11.2253 39.8192 11.8393C39.8192 11.8393 39.3186 11.7556 38.3451 11.9229C37.3993 12.0623 36.6206 11.1416 36.6206 11.1695V11.1695Z" fill="#010101"/>
<path d="M36.5093 11.0299C36.5093 11.0299 36.6762 10.8903 36.6204 10.8623C36.9263 10.6949 37.3436 10.4997 37.5383 11.0299C38.1781 10.8066 38.2615 11.1136 38.5674 11.4486C39.3461 11.0858 39.4017 11.5321 39.4574 11.7275C39.2071 11.7275 38.8457 11.7554 38.345 11.8112C37.3993 11.9508 36.4814 11.0019 36.5093 11.0299Z" fill="#8AC640"/>
<path d="M27.0527 10.3323C27.0527 10.3323 28.6381 10.8903 29.9732 10.8066C31.3082 10.695 33.5889 10.5834 34.8127 11.3089C34.8127 11.3089 36.0643 10.8623 37.2325 11.1693C38.4009 11.4762 40.5424 13.4854 39.9028 15.6061C39.8471 15.7457 39.4855 15.9688 39.0683 16.1084C39.0683 16.1084 39.2909 17.0571 38.9014 17.8384C38.512 18.5919 37.6498 20.0429 37.622 22.052C37.5942 22.3868 37.5387 23.0844 37.4829 23.4192C35.3134 23.3356 31.9758 22.5263 28.6938 22.5822C28.7215 22.2195 28.7494 21.9962 28.7772 21.6335H28.8605C28.6937 20.7126 28.6381 20.2382 28.4711 19.5406C27.4142 18.8709 26.3016 18.0897 25.3561 16.6107C24.4382 15.1316 27.0527 10.3323 27.0527 10.3323V10.3323ZM37.7888 25.4006C37.7888 25.4006 39.5133 31.5954 37.4829 34.1905C37.4829 34.1905 37.7888 35.3903 37.0935 36.6739C36.9822 37.2319 36.8431 37.7343 36.7598 38.2923C36.3982 40.6083 35.7862 41.585 35.6193 45.2962L33.9504 45.2684C33.9504 45.2684 33.7556 42.5896 33.1716 41.1664C32.838 40.3574 31.5305 39.2689 31.5864 38.1808C31.642 37.3436 31.8088 36.646 33.2275 35.5298C33.3386 33.9114 31.7254 32.3765 31.9758 26.3493L37.7888 25.4006Z" fill="#010101"/>
<path d="M37.2881 25.1493C37.7332 27.9956 38.7622 32.2091 36.8987 34.2739C37.0087 34.7975 37.0181 35.3374 36.9264 35.8645C36.8708 36.1993 36.7596 36.5621 36.6205 36.9526C36.3424 37.6224 36.2311 38.599 36.1477 39.185C35.7861 41.501 35.7861 41.6128 35.6192 45.324L33.9503 45.2961C33.9503 45.2961 33.7556 42.6173 33.1715 41.1943C32.8379 40.3851 32.1425 39.6875 32.0869 38.5992C32.0313 37.7621 32.6154 36.0879 34.0061 36.1437C33.9227 32.7673 32.3651 33.4369 31.9479 26.405L37.2881 25.1493ZM27.0527 10.3323C27.0527 10.3323 27.6646 10.5276 28.332 10.5834C28.9996 10.6391 29.7228 10.5834 30.3624 10.5554C31.6975 10.4439 33.5888 10.3043 34.8405 11.0299C34.8405 11.0299 35.5358 10.8066 36.2868 10.8623C36.6205 10.8903 36.9544 11.1693 37.3437 11.281C38.5675 11.5878 39.7357 13.6248 39.2071 15.4666C39.1515 15.6062 38.7621 15.4666 38.3171 15.6062C38.4004 15.9969 38.4562 16.8899 38.011 17.8386C37.5383 18.7874 36.9264 20.0151 37.0376 22.3591C34.1172 22.2195 32.81 22.0243 29.9173 21.8847C29.667 20.8522 29.5 19.8198 29.4722 19.2896C29.8617 19.0943 30.084 18.927 30.3901 18.592C29.5558 18.7316 29.2219 18.6757 28.7212 18.3967C28.2206 18.1176 27.3306 17.2247 26.8856 16.6387C26.83 16.5829 26.5241 17.5036 25.8288 17.5317C25.5783 17.1689 26.6353 16.1364 26.4405 15.7458C25.7453 14.3226 27.0527 10.3323 27.0527 10.3323V10.3323Z" fill="#F0EFEF"/>
<path d="M37.5105 22.8333C37.5105 22.8333 37.5661 23.8379 37.5661 24.089C37.5661 24.3681 37.7887 25.2051 37.8164 25.5958C37.5105 26.126 36.1754 27.3259 33.7556 27.7724C31.3636 28.2746 28.1929 24.5077 28.1929 24.5077C28.2764 24.1449 28.5545 23.0844 28.7492 22.5264C28.7771 22.4707 28.8327 22.3311 28.8327 22.2753C29.0831 21.9126 37.5105 22.8333 37.5105 22.8333V22.8333Z" fill="#010101"/>
<path d="M36.8988 22.9172C36.8988 23.6148 37.0099 24.1171 37.0935 24.5636C37.2325 25.3728 37.4549 25.903 37.4549 26.4332C37.4549 28.0515 35.3411 27.7725 33.5609 27.8284C31.1689 28.3307 29.1385 24.5636 29.1385 24.5636C29.3054 23.9218 29.4167 23.1964 29.667 22.5824C29.6947 22.2475 29.7504 21.829 29.7782 21.6337C33.1715 21.6337 35.5634 21.829 36.9542 21.9684C37.0099 22.2754 36.9543 22.8055 36.8988 22.9172Z" fill="#F0EFEF"/>
<path d="M34.2285 26.5167C34.2285 26.5167 32.7544 23.224 28.3319 24.2008C27.2752 27.1865 25.8565 30.6188 26.7744 34.33C25.8565 35.5857 24.7996 36.2834 24.7996 38.5994C24.7996 40.9154 24.9109 41.3061 24.9109 41.3061L28.1651 41.4737C28.1651 41.4737 29.222 40.1064 29.6391 38.6274C29.7504 38.2088 29.8617 37.4554 29.7783 36.5905C29.8894 36.423 30.3623 36.0325 30.418 35.279C30.418 35.279 32.0034 34.4419 32.9213 32.405C33.7836 30.5629 33.561 28.9724 34.2285 26.5167Z" fill="#010101"/>
<path d="M34.2285 26.5167C34.1452 26.2098 33.0326 23.1962 28.9161 24.089C26.4964 30.5628 27.3864 33.2417 27.7479 34.4135C26.1068 36.5063 25.3559 36.9527 25.6898 41.1942H27.8593C28.8605 39.6037 29.0831 39.0177 29.1387 36.9249C29.1387 36.8412 28.8328 37.0923 28.6102 37.3714C28.7772 36.5064 29.25 36.339 29.6116 35.8088C29.7784 35.5855 29.9174 35.2507 29.9174 34.8042C31.8644 33.4928 32.5876 31.8464 33.0047 30.1442C33.3386 28.9723 33.7279 27.0469 34.2285 26.5167V26.5167Z" fill="#F0EFEF"/>
<path d="M27.3586 22.0242C27.3586 22.0242 28.1096 22.052 28.7772 22.2753C29.417 22.4985 29.417 22.6379 29.6673 22.9171C29.9176 23.1963 30.5295 23.6147 30.4183 24.0332C30.3626 24.2565 30.2236 24.3123 30.0289 24.5077C29.9454 24.5914 29.3334 25.261 29.1944 25.3447C29.111 25.4005 28.9997 25.4843 28.9162 25.5401L28.4991 25.8191C28.2209 25.9587 28.0262 26.0424 27.7203 26.0145C27.7203 26.0145 27.025 25.9865 26.5799 25.5122C26.5799 25.5122 26.5243 25.2889 26.6356 25.1774C26.6356 25.1774 26.0514 24.6751 25.8845 24.3403C25.7175 24.0056 25.7175 23.5312 25.829 23.28C25.8845 23.0287 26.9692 22.3311 27.3586 22.0242V22.0242ZM28.0541 49.175L27.9706 49.8727C27.9706 49.8727 27.7203 50.1796 25.8568 50.1517C23.9654 50.1238 23.4648 49.5379 23.298 49.2309L23.1868 48.5053C23.1868 48.5053 23.5484 47.9752 23.6318 47.9752C24.2437 48.0309 26.3298 48.8681 27.7762 49.0913C27.9149 49.0913 27.9426 49.147 28.0541 49.175ZM32.087 47.7519C32.087 48.0587 32.0591 48.0587 32.0591 48.3657C32.3928 48.6168 33.2274 48.7564 34.8127 48.7284C37.1212 48.6726 39.2629 49.4261 41.8773 48.9795L41.9051 48.4772L41.6548 48.4494L32.3928 47.696L32.087 47.7519Z" fill="#010101"/>
<path d="M34.1173 48.7285H34.8127C36.3147 48.6728 37.7332 49.0076 39.2629 49.0913C40.0695 49.0633 41.0708 48.868 40.9874 48.2821L33.0883 47.6123C32.6154 48.1425 32.9769 48.5889 34.1173 48.7285V48.7285ZM25.0501 36.9809C25.3004 37.1483 26.997 38.1529 29.7506 38.0133C29.6949 38.5434 29.7227 39.576 28.4989 41.3897C27.8871 42.2826 27.3585 43.8453 27.2473 45.8265C27.2752 46.273 27.5255 46.6636 27.1917 47.2497C27.3029 47.6123 27.7479 48.3378 27.9705 48.7843C28.1929 49.2309 28.3042 49.7331 26.83 49.7611C25.3281 49.7889 22.9083 49.6215 23.2421 48.4496C23.4091 47.8357 23.8819 47.1939 23.9376 46.9427C23.9932 46.6915 23.9932 45.9382 24.4659 45.4358C24.8832 44.0407 24.744 42.7013 24.6608 41.4456C24.5216 40.134 24.4938 38.0412 25.0501 36.9809V36.9809ZM27.6368 14.2389C29.6116 11.5878 27.9426 9.46729 24.772 10.109C23.4926 10.3601 22.2132 11.2532 22.1296 12.8715C21.7125 12.9273 20.7669 12.983 20.294 14.7131C19.9325 16.0525 19.7378 16.3037 19.0979 16.9733C18.6808 17.4477 19.1258 18.4244 19.4317 19.1221C20.4608 21.5218 23.6316 21.745 25.7732 23.5588C26.4964 23.3635 27.2473 22.5544 27.4699 22.0242C25.6619 19.8754 26.0513 19.0384 25.3281 17.9223C26.107 17.6431 27.8871 16.5549 27.6368 14.2389Z" fill="#010101"/>
<path d="M27.2473 14.0714C27.3584 13.9039 27.5532 13.5413 27.6367 13.4017C27.6646 13.3737 27.9705 13.9039 27.9983 13.8761C28.7492 12.6482 28.9439 10.8623 28.0816 10.6949C27.8869 10.667 27.5254 10.5834 27.2194 10.4716C26.6632 10.2762 26.1627 10.2762 25.2725 10.4438C24.0487 10.667 22.8249 11.5599 22.8249 12.8435C22.8249 12.9273 23.687 13.1784 23.9374 14.2109C23.5201 13.6248 22.7969 12.983 21.9347 13.5411C21.0168 14.1271 21.4897 15.4665 20.2659 16.8616C19.8486 17.336 19.9044 17.8942 20.3492 19.0103C21.0724 20.7683 24.4936 21.717 26.3571 23.3913C26.8021 23.1959 27.108 22.7494 27.3306 22.4146C26.0789 21.1032 25.5782 19.8753 25.2168 18.9823C24.7717 17.9499 24.271 17.364 23.2975 16.5824C23.7983 16.7778 24.1877 16.9731 24.41 17.1406C24.6603 17.308 25.0219 17.3359 25.3558 17.2243C26.552 16.806 27.1917 15.1316 27.2473 14.0714Z" fill="#F0EFEF"/>
<path d="M39.3463 14.518C39.2628 15.5783 38.4841 15.0481 38.0669 14.8528C37.2325 14.49 36.398 14.2389 35.4245 14.2389C34.451 14.2389 33.1994 14.3226 32.1148 14.6017C30.6129 15.0202 30.1677 14.9924 29.5002 14.6574C28.8328 14.2946 27.6647 13.4017 27.6647 13.4017C27.6647 13.4017 27.6369 13.6808 27.915 14.0435C28.2765 14.49 29.0832 15.0481 30.1678 15.4108C30.6963 15.5783 31.1136 15.4665 31.5865 15.355C34.0619 14.7411 36.6763 14.6295 38.8735 15.9689C38.9848 16.0246 39.3743 15.8572 39.5411 15.6061C39.7634 15.2435 39.3463 14.518 39.3463 14.518V14.518Z" fill="#010101"/>
<path d="M26.6911 25.1494C26.9136 25.289 27.1917 25.3727 27.4976 25.6238C27.4976 25.6238 27.2473 25.6238 27.1361 25.5123C26.997 25.4285 26.7188 25.1774 26.6911 25.1494V25.1494Z" fill="#0A1825"/>
<path d="M34.7293 3.02133C34.6458 2.77021 34.0338 2.32361 32.6154 2.32361C31.0856 2.32361 30.6406 2.79803 30.6129 3.04914C30.6129 3.13284 30.5016 4.02592 30.4738 4.38855C30.4738 4.38855 30.4738 4.83502 30.5015 5.50465C30.5293 5.95112 30.6406 6.20224 30.6962 6.7883C30.7518 7.40205 30.9188 7.79276 31.2247 8.29512C31.3638 8.37869 31.475 8.46253 31.6141 8.49048C32.1704 8.60199 33.1439 8.62994 33.6724 8.49048C33.9782 8.40677 34.3677 7.8766 34.4511 7.40218C34.5623 6.81625 34.6736 6.39759 34.7014 6.03496C34.757 5.67234 34.7848 4.86296 34.8126 4.63966C34.8961 4.02592 34.757 3.07709 34.7293 3.02133V3.02133Z" fill="#F0EFEF"/>
<path d="M31.8088 37.511C31.8088 37.511 33.283 38.1528 36.9266 37.5947C36.9266 37.5947 35.8975 42.7849 36.3704 45.3799C36.3704 45.3799 36.8432 46.0497 40.3478 47.3332C40.3478 47.3332 41.9053 47.7239 41.8497 48.5053C41.8497 48.5053 41.9053 48.6727 40.014 48.6168C38.1228 48.5609 36.3426 48.2261 35.0909 48.2261C33.8393 48.2261 32.5042 48.2819 32.2818 47.9192C32.0315 47.5844 32.3374 46.7193 32.699 46.2169C33.0885 45.6869 32.9771 45.296 32.9494 44.3475C32.8657 41.864 30.9743 39.2969 31.8088 37.511V37.511Z" fill="#010101"/>
<path d="M31.5028 37.9855C31.3081 38.2646 31.5305 39.3248 31.8087 40.3573C32.0868 41.3897 32.6988 42.0037 32.8378 43.7058C32.9769 45.38 33.0047 45.6033 32.5318 46.5798C32.059 47.5563 31.9199 48.4494 33.5609 48.4774C35.2018 48.5053 36.092 48.4494 37.7608 48.7007C39.4297 48.9518 40.0137 49.0355 40.9316 48.896C41.8495 48.7566 42.0441 48.4494 41.6548 48.1705C41.2654 47.8914 39.6521 47.5845 38.9568 47.0263C38.2892 46.5241 36.398 45.6869 36.3703 45.4637C36.2869 44.7102 36.259 41.9756 36.398 41.0827C36.5371 40.1896 36.7317 38.9061 36.7874 38.5713C36.8432 38.2365 37.1212 37.9015 36.6483 38.0132C36.1756 38.1247 34.3955 38.3759 33.0604 38.2922C31.7254 38.2087 31.5864 37.9017 31.5028 37.9855V37.9855Z" fill="#8AC640"/>
<path opacity="0.3" d="M32.4485 46.6079C32.9213 46.8311 33.6167 46.9986 34.1452 46.9986C34.1452 46.9986 33.9503 47.9195 34.2563 48.4775C34.5622 49.0356 32.0312 48.7008 32.0312 48.7008L31.9201 46.7195L32.4485 46.6079ZM39.8191 49.0077C40.2642 48.8681 40.5702 48.3658 40.2086 47.8915C39.8191 47.4171 39.4854 47.3334 39.986 47.3056C40.4867 47.2777 42.3224 48.3938 42.3224 48.3938L41.3766 49.2588L39.8191 49.0077ZM31.4193 39.0736C32.0591 39.2969 33.0326 39.3527 33.867 39.3247C34.7013 39.2969 35.953 39.1851 36.7597 38.9062C37.5662 38.6272 37.2325 39.2131 37.2325 39.2131L36.7874 39.6318C36.7874 39.6318 35.7305 40.0503 34.0062 40.0225C31.9758 39.9945 31.3638 39.7714 31.3638 39.7714L31.4193 39.0736ZM31.4749 40.4689C32.1148 40.6922 33.0881 40.748 33.9226 40.7201C34.7569 40.6922 35.8695 40.6922 36.6762 40.3852C37.0099 40.2737 36.8153 40.748 36.8153 40.748L36.6762 40.9991C36.6762 40.9991 35.5914 41.3898 33.8947 41.3617C31.8644 41.3339 31.5028 41.1664 31.5028 41.1664L31.4749 40.4689Z" fill="#010101"/>
<path d="M29.6393 20.9081C29.6393 21.1035 31.8088 22.1916 33.0047 22.4149C34.2008 22.6381 36.704 22.4149 37.0933 22.3312L37.0376 22.7219C37.0376 22.7219 34.0616 23.1684 31.781 22.5545C29.5001 21.9406 29.7506 21.801 29.7506 21.801L29.6393 20.9081Z" fill="#010101"/>
<path d="M24.9943 44.7104C25.328 44.8779 26.5241 45.1848 27.3029 45.0174C27.414 44.9894 27.3029 43.0919 27.6089 42.2269C28.0539 41.027 28.7771 40.0503 29.1107 37.9297C27.9425 37.8181 26.6075 37.5111 25.9121 37.2878C25.0222 40.0225 25.3282 42.3664 24.9943 44.7104V44.7104ZM26.858 46.4684C27.0527 46.5242 27.1917 46.7474 27.2474 46.608C27.3586 46.3568 27.0527 45.8825 27.0248 45.5477V45.5197C26.7745 45.2966 25.0779 45.2686 25.1892 45.3801C24.9945 45.7429 24.6886 45.6871 24.5774 46.4127C24.5218 46.7753 24.9669 46.4684 25.3839 46.4405C24.633 46.9427 23.7708 47.5847 23.6317 48.1427C23.4648 48.924 23.743 49.1473 24.5774 49.5659C25.3006 49.7333 26.1628 49.7613 26.8302 49.7333C27.5813 49.5937 27.7204 49.2311 27.4978 48.7287C27.1638 47.9753 26.9414 46.9986 26.858 46.4684V46.4684Z" fill="#F0EFEF"/>
<path d="M27.1639 10.2206C28.0818 10.7508 29.3612 10.6113 29.834 10.5834C29.9453 10.5834 31.0579 10.388 31.1135 10.4158C31.2246 10.4438 31.2246 10.5275 31.2246 10.5275C31.2246 10.5275 30.8075 10.7506 29.8618 10.8064C28.9718 10.8622 27.9149 10.8064 27.3309 10.5275C26.6354 10.2206 27.1639 10.2206 27.1639 10.2206ZM36.6206 10.7508C36.7875 10.8623 37.8722 11.281 38.3451 11.7832C38.7623 12.2298 38.5398 12.2018 38.4563 12.0902C38.3451 11.9506 37.4828 11.3647 37.149 11.2252C36.8153 11.0857 36.398 10.8345 36.398 10.7787C36.398 10.723 36.6206 10.7508 36.6206 10.7508V10.7508Z" fill="#010101"/>
<path d="M27.0247 22.3311C27.8313 22.2753 28.6658 22.4707 29.1943 23.0287C29.4724 23.3077 29.9174 23.6146 29.8619 23.8936C29.8619 23.9774 29.6949 24.2007 29.556 24.3681C29.4725 24.4796 29.2223 24.7307 29.1387 24.8145C29.0275 24.8982 28.6381 25.2052 28.5547 25.261C28.4712 25.3169 28.3599 25.4565 28.2765 25.4843C27.9985 25.6239 27.6925 25.5123 27.4143 25.3728C27.1363 25.2332 27.47 25.2052 27.164 24.9821C26.4131 24.4519 25.9958 24.089 26.3018 23.0566C26.3295 22.8612 26.6354 22.6379 27.0247 22.3311V22.3311Z" fill="#F0EFEF"/>
<path opacity="0.4" d="M19.9324 15.941C17.4291 16.9456 11.0597 20.1268 9.25189 21.1034C10.7538 22.0521 11.4491 24.3402 11.6717 26.6563C11.6994 26.8796 11.7273 27.075 11.7551 27.2981C11.7829 27.4935 11.8107 27.6329 11.8384 27.7168C11.8384 27.7447 11.8384 27.8005 11.8663 27.8283C13.5074 23.3358 19.3759 18.592 19.5985 18.2293C19.7097 18.0619 19.4594 17.3363 19.8488 16.6389C20.3495 15.7457 21.3231 15.355 19.9324 15.941V15.941ZM25.8845 37.0088C27.1638 34.4416 27.1917 31.986 27.1638 29.1118C27.1638 27.9119 28.026 26.2097 27.5811 26.6841C25.9122 28.5536 21.7124 32.0697 18.6807 32.2649C22.9362 32.1255 24.605 34.2741 25.8845 37.0088Z" fill="#010101"/>
<path d="M6.8042 23.4752C8.38956 22.3311 16.5946 17.9503 18.5694 17.3363C20.5441 16.6944 19.9322 15.9409 19.9322 15.9409C19.9322 15.9409 11.9219 19.4011 7.13793 22.3869" fill="#010101"/>
<path opacity="0.4" d="M30.1677 15.4109C29.528 15.1598 29.0274 15.9132 29.1942 16.6388C29.3612 17.3643 30.8632 18.1734 30.7796 20.8244C30.724 23.001 30.2512 23.8938 30.2512 23.8938L29.1942 22.5545C29.1942 22.5545 29.0274 19.5408 28.6658 19.0943C28.3043 18.6478 27.1639 17.8386 26.7188 17.4201C26.2738 17.0014 27.2194 16.4434 27.1639 15.662C27.1083 14.9087 27.6367 13.4018 27.6367 13.4018L30.1677 15.4109ZM34.0339 27.298C33.9783 29.3908 34.4512 32.4882 34.6458 33.9672C34.8405 35.4461 35.0908 35.5578 34.6458 36.2275C34.2008 36.8694 33.6167 37.9297 33.6167 37.9297L31.6975 37.7622C31.6975 37.7622 33.2273 35.8089 33.3106 35.4461C33.394 35.0835 32.5318 32.321 32.5318 32.321L34.0339 27.298ZM30.3347 7.76514C30.7242 8.63 31.1969 9.02071 31.9478 9.27196C32.3928 9.43937 34.1451 9.66267 34.8405 8.88125C35.1464 8.51848 34.9517 7.54184 34.9517 7.54184L33.3663 8.82535L31.2246 8.43478L30.9743 7.79295L30.3347 7.76514Z" fill="#010101"/>
<path d="M30.5014 9.69046C31.2246 10.1649 33.0326 10.6114 33.5332 10.6951C34.0338 10.8066 34.8404 10.1649 35.2298 9.99747C35.6471 9.80211 36.3703 9.69046 37.2046 10.4439C37.2881 10.5276 37.0099 10.8904 37.0099 10.8904C36.982 10.8625 36.8152 10.8625 36.5926 10.7508C36.3702 10.6393 36.1754 10.5555 35.8417 10.5834C34.4509 10.7508 34.2285 11.2252 33.0047 10.946C31.7809 10.6668 31.4749 10.4438 30.279 10.4996" fill="#8AC640"/>
<path d="M30.5014 9.69046C31.2246 10.1649 33.0326 10.6114 33.5332 10.6951C34.0338 10.8066 34.8404 10.1649 35.2298 9.99747C35.6471 9.80211 36.3703 9.69046 37.2046 10.4439C37.2881 10.5276 37.0099 10.8904 37.0099 10.8904C36.982 10.8625 36.8152 10.8625 36.5926 10.7508C36.3702 10.6393 36.1754 10.5555 35.8417 10.5834C34.4509 10.7508 34.2285 11.2252 33.0047 10.946C31.7809 10.6668 31.4749 10.4438 30.279 10.4996" stroke="#010101" stroke-miterlimit="10" stroke-linejoin="round"/>
<path d="M30.2512 9.77417C31.1691 10.1649 32.9491 10.5834 33.4497 10.6951C33.9503 10.8067 34.7569 10.3043 35.1464 10.0532C35.8418 9.60676 36.7317 9.96953 37.149 10.4439C37.4271 10.7508 37.5385 10.9462 37.5385 11.0299C37.5385 11.1414 37.2048 11.0299 37.2048 11.0299C37.01 10.9462 36.7875 10.9184 36.6207 10.8066C36.3981 10.6951 36.1756 10.5276 35.842 10.5555C34.4512 10.723 34.173 11.1973 32.9771 10.9182C31.7812 10.6392 31.4752 10.388 30.1959 10.4716" fill="#8AC640"/>
<path d="M25.9401 35.8367C25.8845 35.7809 25.9957 35.7252 25.9401 35.7252C25.5786 35.7252 25.0779 35.4461 24.7996 35.0554C23.6037 33.3254 21.8513 32.1814 18.6806 32.2651C13.9244 32.3766 12.033 30.4234 11.6716 26.6843C11.4769 24.6473 10.9205 22.666 9.78021 21.5498L9.11261 21.9685C10.392 23.0846 10.8093 24.8984 11.0874 27.3818C11.5324 31.121 14.5363 32.8511 18.0409 32.9069C21.6845 32.9626 22.9917 33.7161 24.3545 35.5579C24.7995 36.1438 25.3002 36.3392 25.6895 36.4229L25.9401 35.8367Z" fill="#010101"/>
<path opacity="0.4" d="M38.8457 17.8943C38.9291 18.3128 39.1516 19.1221 39.5966 19.5126C39.7914 19.708 39.8191 19.7637 39.6523 19.7637C39.4853 19.7637 38.2615 19.708 38.2615 19.708L37.9278 19.1221L38.8457 17.8943Z" fill="#010101"/>
</g>
<defs>
<clipPath id="clip0">
<rect width="43" height="50" fill="white" transform="translate(0.824341 0.930786)"/>
</clipPath>
</defs>
</svg>
