<svg width="50" height="50" viewBox="0 0 50 50" fill="none" xmlns="http://www.w3.org/2000/svg">
<g clip-path="url(#clip0)">
<rect x="0.488892" y="0.488876" width="48.916" height="48.916" rx="10" fill="#E74C3C"/>
<path d="M66.7751 -10.3554C66.7751 -10.3554 48.3418 -1.57677 51.6135 20.1399C55.2842 44.4902 33.9981 54.9409 19.4549 48.9213C4.9117 42.8807 5.92912 20.537 -21.7209 19.8473C-49.9694 19.1575 -55.9144 -8.9759 -55.9144 -8.9759" stroke="white" stroke-opacity="0.15" stroke-width="2" stroke-miterlimit="10"/>
<path d="M45.4691 -16.8977C45.4691 -16.8977 37.4893 1.66286 40.342 20.1189C43.2148 38.5749 30.3074 40.7487 25.1804 38.5749C14.5274 34.102 12.4726 10.1489 -4.72391 8.60216C-17.6512 7.43167 -35.0472 16.691 -44.2639 -4.31497" stroke="white" stroke-opacity="0.15" stroke-width="2" stroke-miterlimit="10"/>
<path d="M36.8708 -8.62058C36.8708 -8.62058 39.7435 10.3371 27.0357 6.95104C12.4726 3.06336 12.692 -6.04969 -5.74135 2.56173C-12.3047 5.63425 -38.7179 6.53301 -33.3914 -10.3554" stroke="white" stroke-opacity="0.15" stroke-width="2" stroke-miterlimit="10"/>
<path d="M27.6541 32.0329C30.7061 32.0329 33.1802 28.2149 33.1802 23.5051C33.1802 18.7953 30.7061 14.9773 27.6541 14.9773C24.6022 14.9773 22.1281 18.7953 22.1281 23.5051C22.1281 28.2149 24.6022 32.0329 27.6541 32.0329Z" stroke="white" stroke-opacity="0.15" stroke-width="2" stroke-miterlimit="10"/>
<g clip-path="url(#clip1)" filter="url(#filter0_d)">
<path fill-rule="evenodd" clip-rule="evenodd" d="M25.7709 35.6662C23.3563 35.6662 21.4973 35.2962 20.5998 35.0786C19.9909 34.9263 19.4994 34.7739 19.1254 34.6107L20.3221 36.6892L20.7922 43.1857C20.7922 43.9147 23.0679 44.5023 25.8671 44.5023C28.6663 44.5023 30.942 43.9147 30.942 43.1857L31.3159 36.613L32.4484 34.5998C32.0745 34.7631 31.5723 34.9154 30.9527 35.0677C30.0552 35.2962 28.1855 35.6662 25.7709 35.6662ZM32.4805 14.5227C30.7069 14.773 28.3564 14.9144 25.8671 14.9144C23.3777 14.9144 21.0272 14.773 19.2537 14.5227C18.3776 14.403 17.6831 14.2507 17.1916 14.0875C17.0741 14.0439 16.8711 13.9786 16.6895 13.8698L17.7899 24.1532C17.8434 23.9791 17.8968 23.7941 17.9609 23.62C18.0891 23.2609 18.2387 22.9018 18.4096 22.5644C18.5806 22.2162 18.7622 21.8898 18.9652 21.585C19.1682 21.2804 19.3712 20.9974 19.5955 20.7362C19.8199 20.4751 20.055 20.2575 20.29 20.0725C20.525 19.8875 20.7601 19.746 21.0058 19.6372C21.2516 19.5283 21.4866 19.4849 21.7217 19.4849C21.9888 19.4849 22.2559 19.561 22.5123 19.7134C22.7687 19.8657 23.0038 20.1051 23.2281 20.4534C23.2816 20.5295 23.3136 20.6057 23.3243 20.6819C23.3349 20.758 23.3456 20.8342 23.3456 20.8995C23.3456 21.0627 23.3029 21.1933 23.2281 21.2804C23.1533 21.3783 23.0571 21.4218 22.961 21.4218C22.8649 21.4218 22.7794 21.3674 22.6939 21.2695C22.6084 21.1716 22.523 21.0192 22.4161 20.8233C22.32 20.6492 22.2131 20.5295 22.0956 20.4424C21.9781 20.3663 21.8606 20.3228 21.7217 20.3228C21.508 20.3228 21.2836 20.4098 21.0486 20.5839C20.8135 20.758 20.5785 20.9974 20.3434 21.2804C20.1084 21.5742 19.884 21.9006 19.6703 22.2815C19.4567 22.6515 19.2643 23.0432 19.1041 23.435C18.9438 23.8267 18.8049 24.2185 18.7088 24.5994C18.6126 24.9802 18.5592 25.3176 18.5592 25.6222C18.5592 25.7202 18.5699 25.829 18.5806 25.9378C18.5912 26.0466 18.6233 26.1446 18.6554 26.2316C18.6874 26.3187 18.7408 26.3949 18.8049 26.4492C18.869 26.5037 18.9545 26.5363 19.0507 26.5363C19.1575 26.5363 19.2857 26.5037 19.4246 26.4275C19.5635 26.3513 19.7131 26.2534 19.8626 26.1337C20.0122 26.014 20.1618 25.8725 20.3221 25.7202C20.4716 25.5678 20.6212 25.4046 20.7494 25.2523C20.8776 25.089 20.9952 24.9367 21.102 24.7952C21.2088 24.6537 21.2836 24.5231 21.3264 24.4144L21.743 23.1412C21.7965 22.9997 21.8606 22.9018 21.946 22.8474C22.0315 22.7929 22.117 22.7603 22.2024 22.7603C22.2452 22.7603 22.2879 22.7712 22.3307 22.7821C22.3734 22.7929 22.4054 22.8147 22.4482 22.8474C22.4802 22.88 22.5123 22.9127 22.523 22.9671C22.5443 23.0106 22.555 23.0759 22.555 23.1412C22.555 23.3153 22.5443 23.4785 22.5123 23.6309C22.4802 23.7832 22.4482 23.9355 22.3948 24.077C22.352 24.2185 22.2986 24.3708 22.2345 24.5123C22.1811 24.6537 22.117 24.8061 22.0635 24.9693C22.0529 24.9911 22.0315 25.0455 21.9994 25.1434C21.9674 25.2414 21.9247 25.3611 21.8819 25.5025C21.8392 25.644 21.7858 25.8072 21.7323 25.9922C21.6789 26.1664 21.6255 26.3513 21.5721 26.5363C21.5187 26.7213 21.4652 26.9063 21.4118 27.0804C21.3584 27.2545 21.3157 27.4178 21.2729 27.5701C21.2302 27.7116 21.1981 27.8313 21.1768 27.9292C21.1447 28.0272 21.134 28.0815 21.1234 28.1033C21.1127 28.1577 21.0806 28.223 21.0486 28.2992C21.0165 28.3645 20.9738 28.4406 20.931 28.4951C20.8883 28.5604 20.8349 28.6148 20.7815 28.6474C20.728 28.691 20.6746 28.7127 20.6105 28.7127C20.5144 28.7127 20.4503 28.6801 20.3968 28.6148C20.3541 28.5495 20.3327 28.4298 20.3327 28.2557V28.1795C20.3327 28.1577 20.3327 28.1251 20.3327 28.1033C20.3327 28.0489 20.3541 27.9401 20.3968 27.7769C20.4396 27.6136 20.493 27.4395 20.5464 27.2327C20.5998 27.0369 20.6639 26.8193 20.7387 26.6125C20.8028 26.3949 20.8669 26.2099 20.9204 26.0358C20.7601 26.2207 20.5892 26.3949 20.4075 26.5798C20.2259 26.754 20.0336 26.9172 19.8413 27.0587C19.649 27.2001 19.446 27.3198 19.2537 27.4069C19.0613 27.4939 18.869 27.5375 18.6874 27.5375C18.4737 27.5375 18.3028 27.4939 18.1425 27.396C18.1105 27.3742 18.0891 27.3633 18.0677 27.3416L18.6767 33.8598C18.837 34.2625 21.8285 35.2636 25.7709 35.2636C29.7133 35.2636 32.7048 34.2625 32.8651 33.8598L33.7412 26.1119C33.6664 26.1772 33.6023 26.2425 33.5275 26.3078C33.2711 26.5472 33.036 26.754 32.8117 26.9172C32.5873 27.0913 32.3737 27.2219 32.16 27.3198C31.9463 27.4178 31.7219 27.4613 31.4762 27.4613C31.2518 27.4613 31.0702 27.4069 30.9527 27.3089C30.8244 27.211 30.771 27.0695 30.771 26.8954V26.8519C30.771 26.841 30.771 26.8193 30.771 26.8083C30.7817 26.6996 30.8244 26.5798 30.9099 26.4384C30.9954 26.2969 31.0916 26.1554 31.1984 26.0031C31.3159 25.8508 31.4334 25.6984 31.5616 25.5461C31.6899 25.3937 31.8074 25.2413 31.9142 25.0999C32.0211 24.9585 32.1172 24.8388 32.1813 24.719C32.2561 24.5994 32.2881 24.5123 32.2881 24.4361C32.2881 24.3926 32.2775 24.3599 32.2454 24.3382C32.2133 24.3164 32.1706 24.3055 32.0959 24.3055C31.9784 24.3055 31.8501 24.3382 31.7219 24.4035C31.5937 24.4688 31.4655 24.5558 31.348 24.6537C31.2198 24.7626 31.1022 24.8822 30.9847 25.0238C30.8672 25.1652 30.7604 25.3066 30.6535 25.4481C30.5467 25.6005 30.4612 25.742 30.3757 25.8943C30.2903 26.0466 30.2155 26.1772 30.162 26.3078C30.1406 26.3513 30.1193 26.4057 30.0873 26.471C30.0552 26.5472 30.0231 26.6234 29.9804 26.7104C29.9377 26.7975 29.8949 26.8954 29.8522 26.9934C29.8095 27.0913 29.7667 27.1784 29.7347 27.2654C29.7026 27.3525 29.6706 27.4286 29.6385 27.4939C29.6065 27.5592 29.5851 27.6028 29.5744 27.6354C29.5637 27.668 29.5317 27.7333 29.4996 27.8204C29.4676 27.9075 29.4248 28.0162 29.3821 28.136C29.3394 28.2557 29.2859 28.3862 29.2432 28.5168C29.1898 28.6474 29.1471 28.778 29.1043 28.8977C29.0616 29.0174 29.0189 29.1262 28.9868 29.2133C28.9547 29.3003 28.9334 29.3656 28.9227 29.3983C28.8906 29.4962 28.8586 29.5832 28.8158 29.6594C28.7731 29.7465 28.7304 29.8118 28.677 29.877C28.6235 29.9423 28.5594 29.9859 28.4953 30.0294C28.4312 30.0729 28.3564 30.0838 28.271 30.0838C28.1641 30.0838 28.0787 30.0621 28.0039 30.0076C27.9291 29.9532 27.897 29.8553 27.897 29.703C27.897 29.6268 27.9077 29.5615 27.9291 29.4853C27.9504 29.4092 27.9718 29.333 27.9932 29.2568C28.0252 29.1806 28.0466 29.1153 28.0787 29.0392C28.1107 28.9739 28.1321 28.8977 28.1535 28.8324C28.3137 28.4733 28.4846 28.1142 28.6449 27.7442C28.8158 27.3851 28.9761 27.026 29.1257 26.6669C29.1578 26.5907 29.1898 26.5145 29.2219 26.4492C29.2111 26.4602 29.2005 26.471 29.1898 26.4819C28.9975 26.6778 28.8052 26.841 28.6129 26.9934C28.4205 27.1348 28.2282 27.2545 28.0359 27.3416C27.8436 27.4286 27.662 27.4722 27.4804 27.4722C27.3629 27.4722 27.256 27.4504 27.1705 27.4178C27.085 27.3742 27.0209 27.3198 26.9782 27.2545C26.9248 27.1892 26.8927 27.1022 26.8714 27.0151C26.8607 26.9825 26.8607 26.9498 26.85 26.9172C26.7966 26.9607 26.7431 27.0042 26.6897 27.0369C26.5081 27.1674 26.3265 27.2763 26.1449 27.3633C25.9632 27.4395 25.803 27.4831 25.664 27.4831C25.5252 27.4831 25.4076 27.4395 25.3115 27.3416C25.226 27.2437 25.1726 27.0804 25.1726 26.841C25.1726 26.6778 25.194 26.4819 25.2474 26.2643C25.1726 26.4057 25.0765 26.5472 24.9589 26.6887C24.8414 26.8301 24.7132 26.9607 24.5636 27.0804C24.414 27.2001 24.2431 27.298 24.0615 27.3742C23.8798 27.4504 23.6769 27.4831 23.4525 27.4831C23.3563 27.4831 23.2602 27.4722 23.164 27.4504C23.0679 27.4286 22.9931 27.3851 22.929 27.3198C22.8649 27.2545 22.8007 27.1784 22.758 27.0695C22.7153 26.9716 22.6939 26.841 22.6939 26.6778C22.6939 26.6778 22.7046 26.6234 22.7153 26.5145C22.726 26.4057 22.7687 26.2425 22.8328 26.014C22.8969 25.7855 22.9931 25.4917 23.1319 25.1217C23.2708 24.7517 23.4525 24.3164 23.6982 23.7941C23.7623 23.6526 23.8371 23.5547 23.9119 23.5003C23.9974 23.4458 24.0828 23.4132 24.179 23.4132C24.2217 23.4132 24.2645 23.4241 24.3072 23.435C24.3499 23.4458 24.3927 23.4676 24.4354 23.4894C24.4781 23.5111 24.5102 23.5547 24.5316 23.5873C24.5529 23.6309 24.5636 23.6744 24.5636 23.7288C24.5636 23.7614 24.5636 23.7941 24.5529 23.8267C24.5423 23.892 24.5102 23.9682 24.4568 24.0661C24.4034 24.164 24.3499 24.2838 24.2859 24.4035C24.2217 24.5341 24.147 24.6646 24.0722 24.817C23.9974 24.9693 23.9333 25.1217 23.8691 25.274C23.805 25.4372 23.7517 25.5896 23.7089 25.7637C23.6661 25.9269 23.6341 26.0901 23.6341 26.2425C23.6341 26.3078 23.6448 26.3622 23.6769 26.4166C23.7089 26.471 23.7517 26.4928 23.8264 26.4928C24.0187 26.4928 24.2111 26.4275 24.382 26.2969C24.5636 26.1663 24.7239 26.0031 24.8734 25.8072C25.023 25.6114 25.1619 25.4046 25.2794 25.187C25.397 24.9693 25.5038 24.7626 25.5786 24.5776C25.632 24.4579 25.6855 24.3273 25.7282 24.1858C25.7709 24.0444 25.8136 23.9138 25.8671 23.7941C25.9205 23.6744 25.9739 23.5764 26.038 23.5003C26.1021 23.4241 26.1876 23.3805 26.2837 23.3805C26.3906 23.3805 26.4761 23.4241 26.5402 23.5003C26.6043 23.5873 26.6363 23.6853 26.6363 23.7941C26.6363 23.8594 26.615 23.9464 26.5722 24.0661C26.5295 24.175 26.4761 24.3056 26.4226 24.4579C26.3585 24.5994 26.2944 24.7626 26.2197 24.9258C26.1449 25.089 26.0808 25.2631 26.0166 25.4372C25.9525 25.6114 25.8991 25.7746 25.8671 25.9378C25.8244 26.1011 25.803 26.2534 25.803 26.3949C25.803 26.5255 25.8671 26.5907 25.9953 26.5907C26.0914 26.5907 26.1983 26.5581 26.3372 26.4928C26.4761 26.4275 26.615 26.3405 26.7752 26.2207C26.8179 26.1881 26.85 26.1554 26.8927 26.1337C26.9355 25.9596 26.9889 25.7963 27.0423 25.644C27.1492 25.3611 27.256 25.0781 27.3629 24.8061C27.4697 24.5231 27.5658 24.2729 27.662 24.0444L29.0189 20.5513C29.0723 20.4098 29.1471 20.3118 29.2325 20.2575C29.3287 20.2031 29.4142 20.1704 29.5103 20.1704C29.6065 20.1704 29.692 20.2031 29.7667 20.2575C29.8415 20.3228 29.8842 20.4207 29.8842 20.5513C29.8842 20.6166 29.8736 20.6819 29.8415 20.758C29.8201 20.8342 29.7881 20.9104 29.7453 20.9866C29.6706 21.1606 29.5851 21.3674 29.4783 21.6068C29.3714 21.8571 29.2646 22.1183 29.1471 22.4121C29.0295 22.7059 28.912 22.9997 28.7838 23.3153C28.6556 23.6309 28.5381 23.9355 28.4205 24.2293C28.303 24.5231 28.1962 24.8061 28.0893 25.0673C27.9825 25.3284 27.897 25.5678 27.8222 25.7528C27.7902 25.8399 27.7582 25.9378 27.7261 26.0466C27.694 26.1554 27.6834 26.2534 27.6834 26.3405C27.6834 26.3949 27.694 26.4384 27.7154 26.471C27.7368 26.5037 27.7688 26.5145 27.8222 26.5145C27.8863 26.5145 27.9611 26.4928 28.0573 26.4492C28.1535 26.4057 28.2496 26.3405 28.3672 26.2752C28.474 26.199 28.5915 26.1119 28.709 26.0248C28.8266 25.9269 28.9441 25.829 29.0616 25.731C29.1791 25.6331 29.2859 25.5243 29.3928 25.4264C29.4996 25.3284 29.5958 25.2305 29.6813 25.1434C29.7026 25.1217 29.724 25.1108 29.7453 25.0999C29.7988 24.9475 29.8415 24.7952 29.8842 24.6429C29.9056 24.5776 29.9377 24.4905 29.9804 24.3708C30.0231 24.2511 30.0659 24.1314 30.1193 24.0226C30.1727 23.9029 30.2368 23.8049 30.301 23.7179C30.3651 23.6309 30.4399 23.5873 30.5146 23.5873C30.6321 23.5873 30.7176 23.62 30.771 23.6744C30.8244 23.7288 30.8565 23.8159 30.8565 23.9247C30.8565 23.9464 30.8565 23.9791 30.8458 24.0226C30.8352 24.0661 30.8352 24.1205 30.8244 24.175C30.8138 24.2293 30.8031 24.2729 30.7924 24.3273C30.7817 24.3708 30.771 24.4035 30.7604 24.4252C30.8672 24.3055 30.9954 24.1858 31.1236 24.0553C31.2518 23.9355 31.3907 23.8267 31.5189 23.7288C31.6578 23.6309 31.7967 23.5547 31.9463 23.4894C32.0852 23.4241 32.2348 23.4023 32.3737 23.4023C32.4698 23.4023 32.5659 23.4132 32.6728 23.4458C32.769 23.4785 32.8544 23.5221 32.9292 23.5764C33.004 23.6309 33.0681 23.707 33.1108 23.7832C33.1536 23.8702 33.1856 23.9682 33.1856 24.077C33.1856 24.2293 33.1536 24.3817 33.0788 24.5558C33.004 24.719 32.9185 24.8932 32.801 25.0673C32.6942 25.2414 32.5659 25.4046 32.4377 25.5678C32.3095 25.731 32.192 25.8725 32.0745 26.0031C31.9569 26.1337 31.8715 26.2425 31.7967 26.3405C31.7219 26.4275 31.6791 26.4928 31.6791 26.5255C31.6791 26.569 31.6899 26.6016 31.7219 26.6343C31.754 26.656 31.7967 26.6778 31.8608 26.6778C31.9142 26.6778 31.989 26.6451 32.0852 26.5907C32.1813 26.5363 32.3202 26.4275 32.5018 26.286C32.6835 26.1446 32.9079 25.9487 33.1749 25.7093C33.3673 25.5461 33.5809 25.3502 33.8266 25.1217L35.0446 13.8698C34.8523 13.9786 34.6493 14.0439 34.5318 14.0875C34.051 14.2507 33.3565 14.403 32.4805 14.5227ZM25.8564 11.8675C20.728 11.8675 16.5613 12.4552 16.5613 13.1734C16.5613 13.8916 20.728 14.4792 25.8564 14.4792C30.9847 14.4792 35.1515 13.8916 35.1515 13.1734C35.1515 12.4552 30.9847 11.8675 25.8564 11.8675ZM29.5637 13.5542C29.5637 13.7284 29.0723 13.8589 28.4633 13.8589C27.8543 13.8589 27.3629 13.7174 27.3629 13.5542C27.3629 13.3801 27.8543 13.2495 28.4633 13.2495C29.0723 13.2495 29.5637 13.3801 29.5637 13.5542Z" fill="white"/>
<path fill-rule="evenodd" clip-rule="evenodd" d="M27.5872 13.4237C27.5765 13.4345 27.5765 13.4455 27.5765 13.4563C27.5765 13.5651 27.9718 13.6522 28.4633 13.6522C28.9548 13.6522 29.3501 13.5651 29.3501 13.4563L30.5146 8.65742L35.1301 3.69527C35.2263 3.58645 35.034 3.23823 34.7028 2.93354C34.3715 2.63972 34.019 2.53091 33.9121 2.65061L28.9868 7.91745L27.5872 13.4237Z" fill="white"/>
</g>
</g>
<defs>
<filter id="filter0_d" x="1.56128" y="-8.41472" width="48.8676" height="71.928" filterUnits="userSpaceOnUse" color-interpolation-filters="sRGB">
<feFlood flood-opacity="0" result="BackgroundImageFix"/>
<feColorMatrix in="SourceAlpha" type="matrix" values="0 0 0 0 0 0 0 0 0 0 0 0 0 0 0 0 0 0 127 0"/>
<feOffset dy="4"/>
<feGaussianBlur stdDeviation="7.5"/>
<feColorMatrix type="matrix" values="0 0 0 0 0 0 0 0 0 0 0 0 0 0 0 0 0 0 0.25 0"/>
<feBlend mode="normal" in2="BackgroundImageFix" result="effect1_dropShadow"/>
<feBlend mode="normal" in="SourceGraphic" in2="effect1_dropShadow" result="shape"/>
</filter>
<clipPath id="clip0">
<rect x="0.488892" y="0.488876" width="48.916" height="48.916" rx="10" fill="white"/>
</clipPath>
<clipPath id="clip1">
<rect width="18.8676" height="41.928" fill="white" transform="translate(16.5613 2.58528)"/>
</clipPath>
</defs>
</svg>
