<svg width="36" height="42" viewBox="0 0 36 42" fill="none" xmlns="http://www.w3.org/2000/svg">
<path d="M4.14072 37.0332L0.955566 0.878662L35.9556 0.878662L32.7669 37.0275L18.4341 41.0488L4.14072 37.0332Z" fill="#E44D26"/>
<path d="M18.4556 37.9752L30.0371 34.7256L32.7621 3.83498L18.4556 3.83498L18.4556 37.9752Z" fill="#F16529"/>
<path d="M18.4556 17.2442H12.6577L12.2572 12.7035H18.4556V8.26923H7.46844L7.57344 9.45886L8.65033 21.6783H18.4556V17.2442ZM18.4556 28.7602L18.4363 28.7655L13.5565 27.4319L13.2446 23.8956H8.84617L9.4601 30.8579L18.4355 33.3794L18.4556 33.3737V28.7602Z" fill="#EBEBEB"/>
<path d="M18.4405 17.2442V21.6783H23.8361L23.3274 27.4292L18.4405 28.7639V33.3771L27.4231 30.8579L27.4888 30.1085L28.5186 18.4349L28.6255 17.2442H27.4449H18.4405ZM18.4405 8.26923V12.7035H29.0242L29.112 11.7067L29.3116 9.45886L29.4165 8.26923H18.4405Z" fill="white"/>
</svg>
