<svg width="36" height="35" viewBox="0 0 36 35" fill="none" xmlns="http://www.w3.org/2000/svg">
<g clip-path="url(#clip0)">
<path d="M1.57874 1.87549H34.3169V33.2245H1.57874V1.87549Z" fill="url(#paint0_radial)"/>
<path d="M1.57872 1.87608H34.3169V33.225H1.57872V1.87608ZM0.0906372 34.69H35.805V0.411194H0.0906372V34.69ZM23.4835 12.6285C23.4835 12.5113 23.5282 12.4527 23.6621 12.4527H25.9984C26.1174 12.4527 26.177 12.4966 26.177 12.6285V24.1866C26.177 24.3037 26.1472 24.3624 25.9984 24.3624H23.6919C23.5431 24.3624 23.4984 24.2891 23.4984 24.172V12.6285H23.4835ZM23.3198 9.30314C23.3198 8.36561 23.9895 7.80896 24.8377 7.80896C25.7455 7.80896 26.3556 8.40955 26.3556 9.30314C26.3556 10.27 25.7157 10.7973 24.808 10.7973C23.9448 10.7974 23.3198 10.27 23.3198 9.30314ZM16.6234 17.448C16.2068 15.822 15.2247 12.2769 14.8526 10.563H14.8228C14.5103 12.2769 13.7216 15.1774 13.0967 17.448H16.6234V17.448ZM12.4865 19.8212L11.3109 24.2159C11.2811 24.333 11.2365 24.3623 11.0877 24.3623H8.90019C8.7514 24.3623 8.72159 24.3184 8.7514 24.1426L12.9776 9.58143C13.052 9.31779 13.0966 9.08337 13.1264 8.36561C13.1264 8.26308 13.171 8.21914 13.2454 8.21914H16.3704C16.4746 8.21914 16.5192 8.24843 16.549 8.36561L21.2811 24.1719C21.3109 24.289 21.2811 24.3623 21.1621 24.3623H18.6918C18.5728 24.3623 18.4983 24.333 18.4686 24.2306L17.2484 19.8212H12.4865V19.8212Z" fill="#FF7F18"/>
</g>
<defs>
<radialGradient id="paint0_radial" cx="0" cy="0" r="1" gradientUnits="userSpaceOnUse" gradientTransform="translate(12.3611 8.90083) scale(24.881 23.7139)">
<stop stop-color="#423325" stop-opacity="0.98"/>
<stop offset="1" stop-color="#1C0A00"/>
</radialGradient>
<clipPath id="clip0">
<rect width="35.7143" height="34.2857" fill="white" transform="translate(0.0906372 0.407089)"/>
</clipPath>
</defs>
</svg>
