<svg width="37" height="37" viewBox="0 0 37 37" fill="none" xmlns="http://www.w3.org/2000/svg">
<g clip-path="url(#clip0)">
<path d="M0.843506 0.843489H36.5578V36.5578H0.843506V0.843489Z" fill="#F7DF1E"/>
<path d="M10.2341 30.689L12.9671 29.035C13.4945 29.9698 13.9741 30.7609 15.1246 30.7609C16.2275 30.7609 16.9229 30.3295 16.9229 28.6515V17.2399H20.2791V28.6989C20.2791 32.1751 18.2414 33.7574 15.2685 33.7574C12.5836 33.7574 11.0252 32.3669 10.234 30.6887L10.2341 30.689ZM22.102 30.3294L24.8347 28.7472C25.5542 29.922 26.4892 30.785 28.1432 30.785C29.534 30.785 30.4207 30.0897 30.4207 29.1307C30.4207 27.98 29.5097 27.5724 27.9754 26.9013L27.1365 26.5414C24.715 25.5108 23.1089 24.2162 23.1089 21.4832C23.1089 18.9659 25.0267 17.048 28.0235 17.048C30.1571 17.048 31.6915 17.7913 32.7941 19.7331L30.1809 21.4114C29.6054 20.3805 28.9823 19.973 28.0233 19.973C27.0404 19.973 26.417 20.5964 26.417 21.4114C26.417 22.4182 27.0404 22.826 28.4787 23.4493L29.3177 23.8088C32.1707 25.0316 33.7768 26.2782 33.7768 29.0828C33.7768 32.1038 31.4035 33.7578 28.215 33.7578C25.0985 33.7578 23.0847 32.2715 22.1019 30.3295" fill="black"/>
</g>
<defs>
<clipPath id="clip0">
<rect x="0.843506" y="0.843489" width="35.7143" height="35.7143" rx="6" fill="white"/>
</clipPath>
</defs>
</svg>
