<svg width="44" height="32" viewBox="0 0 44 32" fill="none" xmlns="http://www.w3.org/2000/svg">
<g clip-path="url(#clip0)">
<path d="M37.4782 18.1887C35.9982 18.1963 34.7119 18.5484 33.6349 19.0689C33.2397 18.2958 32.8445 17.607 32.7748 17.1017C32.6973 16.5124 32.6043 16.1526 32.6973 15.4484C32.7903 14.7442 33.2087 13.7415 33.2009 13.665C33.1932 13.5884 33.108 13.2287 32.2556 13.221C31.4033 13.2134 30.6672 13.3818 30.5819 13.6037C30.4967 13.8257 30.3339 14.3309 30.2254 14.8514C30.0782 15.6168 28.5208 18.3494 27.6297 19.7807C27.343 19.222 27.095 18.7321 27.0408 18.3417C26.9633 17.7524 26.8703 17.3926 26.9633 16.6884C27.0563 15.9842 27.4747 14.9815 27.4669 14.905C27.4592 14.8284 27.374 14.4687 26.5216 14.461C25.6693 14.4534 24.9332 14.6217 24.8479 14.8437C24.7627 15.0657 24.6697 15.5862 24.4914 16.0914C24.3133 16.5966 22.2443 21.1585 21.702 22.3373C21.423 22.942 21.1828 23.4242 21.0123 23.7533C21.0123 23.7533 21.0045 23.7763 20.9813 23.8146C20.8341 24.0978 20.7488 24.2509 20.7488 24.2509C20.7488 24.2509 20.7488 24.2509 20.7488 24.2585C20.6326 24.4652 20.5087 24.6566 20.4467 24.6566C20.4002 24.6566 20.3149 24.1055 20.4621 23.3553C20.7721 21.7709 21.5082 19.3062 21.5005 19.222C21.5005 19.1761 21.64 18.7474 21.0201 18.5255C20.4156 18.3035 20.1987 18.6709 20.1445 18.6709C20.0902 18.6709 20.0515 18.801 20.0515 18.801C20.0515 18.801 20.7256 16.0302 18.7652 16.0302C17.5409 16.0302 15.8517 17.3543 15.0148 18.5484C14.4879 18.8316 13.3644 19.4363 12.1633 20.0869C11.7061 20.3395 11.2335 20.5921 10.7918 20.8294C10.7608 20.7988 10.7298 20.7605 10.6989 20.7299C8.32773 18.2269 3.94199 16.4588 4.12796 13.0986C4.1977 11.8739 4.62388 8.65906 12.5507 4.75535C19.0751 1.57883 24.2667 2.45907 25.1656 4.41092C26.4519 7.19707 22.3838 12.3714 15.6425 13.1215C13.0699 13.4047 11.7216 12.425 11.3807 12.0575C11.0243 11.6749 10.97 11.6519 10.8383 11.7284C10.6213 11.8432 10.7608 12.1877 10.8383 12.3867C11.0398 12.9072 11.8689 13.8257 13.2714 14.2773C14.5112 14.6753 17.5254 14.8973 21.175 13.5042C25.2586 11.9427 28.451 7.60278 27.5134 3.96697C26.5758 0.277595 20.3769 -0.939439 14.5112 1.11957C11.0243 2.34426 7.24294 4.27314 4.52314 6.78374C1.29195 9.76895 0.780536 12.3637 0.98975 13.4507C1.74137 17.3084 7.12671 19.819 9.28084 21.679C9.17235 21.7403 9.07163 21.7938 8.98638 21.8398C7.90932 22.3679 3.80251 24.4881 2.77969 26.7309C1.61739 29.2721 2.96566 31.0938 3.85676 31.3387C6.62304 32.0965 9.4668 30.7341 10.9933 28.4837C12.5198 26.2333 12.3338 23.3094 11.6287 21.9699C11.6209 21.9546 11.6132 21.9393 11.5977 21.9239C11.8766 21.7632 12.1633 21.5948 12.4423 21.4341C12.9925 21.1126 13.5348 20.8141 13.9998 20.5691C13.7363 21.281 13.5426 22.1306 13.4496 23.3553C13.3334 24.7943 13.93 26.662 14.7127 27.3968C15.0613 27.7183 15.472 27.7259 15.7354 27.7259C16.6498 27.7259 17.0605 26.9758 17.5177 26.0879C18.0755 25.001 18.5792 23.738 18.5792 23.738C18.5792 23.738 17.9516 27.1519 19.6563 27.1519C20.2762 27.1519 20.9038 26.3558 21.1828 25.9501C21.1828 25.9578 21.1828 25.9578 21.1828 25.9578C21.1828 25.9578 21.1983 25.9348 21.2293 25.8812C21.2913 25.7817 21.33 25.7205 21.33 25.7205C21.33 25.7205 21.33 25.7128 21.33 25.7052C21.5779 25.2765 22.1359 24.3044 22.965 22.6894C24.0343 20.6074 25.0648 18.0049 25.0648 18.0049C25.0648 18.0049 25.1578 18.6403 25.4755 19.6965C25.6615 20.3166 26.0489 20.9978 26.3589 21.6561C26.1109 22.0005 25.9559 22.1919 25.9559 22.1919C25.9559 22.1919 25.9559 22.1919 25.9637 22.1995C25.7622 22.4598 25.5453 22.743 25.3051 23.0185C24.4605 24.0136 23.4531 25.1541 23.3137 25.4832C23.1509 25.8736 23.1897 26.1568 23.4996 26.3864C23.7243 26.5548 24.1272 26.5778 24.5379 26.5548C25.2973 26.5012 25.832 26.3175 26.0954 26.2027C26.5061 26.0573 26.9865 25.8353 27.436 25.5062C28.2651 24.9015 28.7687 24.0365 28.7222 22.8961C28.699 22.2684 28.4898 21.6408 28.2341 21.0514C28.3116 20.9442 28.3813 20.8371 28.4588 20.7299C29.7683 18.8393 30.7834 16.7649 30.7834 16.7649C30.7834 16.7649 30.8764 17.4003 31.1941 18.4565C31.349 18.9924 31.6667 19.5741 31.9457 20.1405C30.7136 21.1279 29.9543 22.2761 29.6831 23.0262C29.1949 24.4193 29.5746 25.0469 30.2952 25.1923C30.6207 25.2612 31.0856 25.1082 31.4265 24.9627C31.8604 24.8249 32.3718 24.5877 32.86 24.2356C33.6891 23.6309 34.4872 22.7889 34.4407 21.6484C34.4175 21.1279 34.278 20.6151 34.0843 20.1175C35.1304 19.6889 36.4786 19.4516 38.1988 19.6506C41.8872 20.0793 42.6156 22.3526 42.4761 23.3094C42.3366 24.2662 41.5618 24.7867 41.3061 24.9474C41.0504 25.1082 40.9651 25.1617 40.9884 25.2765C41.0193 25.445 41.1434 25.4373 41.3603 25.4066C41.6625 25.3531 43.2975 24.6336 43.3672 22.8731C43.4834 20.6227 41.3138 18.1657 37.4782 18.1887ZM9.02509 27.6647C7.80082 28.9812 6.09613 29.4788 5.36 29.0578C4.56963 28.6062 4.87958 26.662 6.38281 25.2689C7.29716 24.4193 8.47494 23.6309 9.25759 23.1486C9.43578 23.0415 9.69926 22.8884 10.017 22.697C10.0712 22.6664 10.1022 22.6511 10.1022 22.6511C10.1642 22.6128 10.2262 22.5746 10.2882 22.5363C10.8383 24.5264 10.3114 26.2793 9.02509 27.6647ZM17.9361 21.679C17.5099 22.7047 16.6188 25.3301 16.0764 25.1847C15.6115 25.0622 15.3248 23.0721 15.9834 21.105C16.3166 20.1175 17.0217 18.9388 17.4324 18.4795C18.0988 17.7447 18.8349 17.4998 19.0131 17.7983C19.2379 18.1887 18.1995 21.036 17.9361 21.679ZM25.2896 25.1541C25.1113 25.2459 24.9409 25.3072 24.8634 25.2612C24.8091 25.2306 24.9409 25.1082 24.9409 25.1082C24.9409 25.1082 25.863 24.1284 26.2272 23.6845C26.4364 23.4242 26.6843 23.118 26.9478 22.7736C26.9478 22.8042 26.9478 22.8425 26.9478 22.8731C26.9478 24.0442 25.801 24.8326 25.2896 25.1541ZM30.9616 23.8758C30.8299 23.784 30.8531 23.4778 31.2948 22.521C31.4653 22.1459 31.8682 21.5183 32.5578 20.9136C32.6353 21.1585 32.6895 21.3958 32.6818 21.6178C32.674 23.0951 31.6047 23.6462 30.9616 23.8758Z" fill="white"/>
</g>
<defs>
<clipPath id="clip0">
<rect width="42.8571" height="31.4286" fill="white" transform="translate(0.9505 0.123953)"/>
</clipPath>
</defs>
</svg>
