<svg width="43" height="43" viewBox="0 0 43 43" fill="none" xmlns="http://www.w3.org/2000/svg">
<g clip-path="url(#clip0)">
<path d="M8.29256 28.9118C12.4959 28.9118 15.9034 25.5043 15.9034 21.301C15.9034 17.0977 12.4959 13.6902 8.29256 13.6902C4.08923 13.6902 0.681763 17.0977 0.681763 21.301C0.681763 25.5043 4.08923 28.9118 8.29256 28.9118Z" fill="#FF9900"/>
<path d="M12.1212 19.6689C16.3246 19.6689 19.732 16.2614 19.732 12.0581C19.732 7.85476 16.3246 4.44728 12.1212 4.44728C7.91791 4.44728 4.51044 7.85476 4.51044 12.0581C4.51044 16.2614 7.91791 19.6689 12.1212 19.6689Z" fill="#FF9900"/>
<path d="M21.3642 15.8402C25.5676 15.8402 28.975 12.4327 28.975 8.22941C28.975 4.02608 25.5676 0.618614 21.3642 0.618614C17.1609 0.618614 13.7534 4.02608 13.7534 8.22941C13.7534 12.4327 17.1609 15.8402 21.3642 15.8402Z" fill="#FF9900"/>
<path d="M30.6072 19.669C34.8106 19.669 38.218 16.2615 38.218 12.0582C38.218 7.85483 34.8106 4.44736 30.6072 4.44736C26.4039 4.44736 22.9964 7.85483 22.9964 12.0582C22.9964 16.2615 26.4039 19.669 30.6072 19.669Z" fill="#FF9900"/>
<path d="M34.4359 28.9118C38.6392 28.9118 42.0467 25.5044 42.0467 21.301C42.0467 17.0977 38.6392 13.6902 34.4359 13.6902C30.2325 13.6902 26.8251 17.0977 26.8251 21.301C26.8251 25.5044 30.2325 28.9118 34.4359 28.9118Z" fill="#FF9900"/>
<path d="M30.6072 38.1552C34.8106 38.1552 38.218 34.7477 38.218 30.5444C38.218 26.3411 34.8106 22.9337 30.6072 22.9337C26.4039 22.9337 22.9964 26.3411 22.9964 30.5444C22.9964 34.7477 26.4039 38.1552 30.6072 38.1552Z" fill="#FF9900"/>
<path d="M21.3642 41.9837C25.5676 41.9837 28.975 38.5762 28.975 34.3729C28.975 30.1697 25.5676 26.7622 21.3642 26.7622C17.1609 26.7622 13.7534 30.1697 13.7534 34.3729C13.7534 38.5762 17.1609 41.9837 21.3642 41.9837Z" fill="#FF9900"/>
<path d="M12.1212 38.1552C16.3245 38.1552 19.732 34.7477 19.732 30.5444C19.732 26.3411 16.3245 22.9337 12.1212 22.9337C7.91785 22.9337 4.51038 26.3411 4.51038 30.5444C4.51038 34.7477 7.91785 38.1552 12.1212 38.1552Z" fill="#FF9900"/>
<path d="M26.7789 8.22868C26.7789 5.23944 24.3538 2.81401 21.3643 2.81401C18.3747 2.81401 15.9496 5.23912 15.9496 8.22868C13.8348 6.11549 10.4064 6.11549 8.29169 8.22868C6.1785 10.3434 6.1785 13.7718 8.29169 15.8866C5.30245 15.8866 2.87701 18.3117 2.87701 21.3013C2.87701 24.2905 5.30212 26.7159 8.29169 26.7159C6.1785 28.8307 6.1785 32.2591 8.29169 34.3738C10.4064 36.487 13.8348 36.487 15.9496 34.3738C15.9496 37.3631 18.3746 39.7884 21.3643 39.7884C24.3539 39.7884 26.7789 37.3634 26.7789 34.3738C28.8937 36.487 32.3218 36.487 34.4368 34.3738C36.55 32.2591 36.55 28.8307 34.4368 26.7159C37.4261 26.7159 39.8497 24.2908 39.8497 21.3013C39.8497 18.312 37.4262 15.8866 34.4368 15.8866C36.55 13.7718 36.55 10.3434 34.4368 8.22868C32.3218 6.11549 28.8937 6.11549 26.7789 8.22868V8.22868Z" fill="black"/>
<path d="M23.4361 10.3021V16.2977L27.6762 12.0576C27.6762 11.3084 27.9622 10.5575 28.5341 9.98569C29.6795 8.84053 31.5358 8.84053 32.6794 9.98569C33.8246 11.1293 33.8246 12.986 32.6794 14.1311C32.1076 14.7029 31.3567 14.9889 30.6075 14.9889L26.3674 19.229H32.363C32.8935 18.6985 33.6259 18.3697 34.4364 18.3697C36.0544 18.3697 37.3662 19.683 37.3662 21.3009C37.3662 22.9189 36.0543 24.2322 34.4364 24.2322C33.6259 24.2322 32.8935 23.9036 32.363 23.3728H26.3674L30.6075 27.6129C31.3567 27.6129 32.1076 27.899 32.6794 28.4708C33.8246 29.6162 33.8246 31.4725 32.6794 32.6162C31.5358 33.7616 29.6795 33.7616 28.5341 32.6162C27.9622 32.0443 27.6762 31.2933 27.6762 30.5442L23.4361 26.3041V32.2997C23.9666 32.8302 24.2954 33.5627 24.2954 34.3731C24.2954 35.9911 22.9818 37.3029 21.3642 37.3029C19.7462 37.3029 18.4329 35.9911 18.4329 34.3731C18.4329 33.5627 18.7614 32.8302 19.2922 32.2998V26.3041L15.0522 30.5442C15.0522 31.2933 14.7661 32.0443 14.1943 32.6162C13.0489 33.7616 11.1926 33.7616 10.049 32.6162C8.90355 31.4722 8.90355 29.6159 10.049 28.4708C10.6208 27.899 11.3717 27.6129 12.1208 27.6129L16.3609 23.3728H10.3654C9.83488 23.9033 9.10244 24.2322 8.29193 24.2322C6.67402 24.2322 5.36218 22.9188 5.36218 21.3009C5.36218 19.683 6.67402 18.3696 8.29193 18.3696C9.10244 18.3696 9.83488 18.6985 10.3654 19.2289H16.3609L12.1208 14.9889C11.3717 14.9889 10.6208 14.7031 10.049 14.1311C8.90355 12.9856 8.90355 11.1293 10.049 9.98569C11.1928 8.84053 13.0489 8.84053 14.1943 9.98569C14.7661 10.5575 15.0522 11.3084 15.0522 12.0576L19.2922 16.2977V10.3021C18.7618 9.7716 18.4329 9.03916 18.4329 8.22872C18.4329 6.61075 19.7463 5.29891 21.3642 5.29891C22.9818 5.29891 24.2955 6.61075 24.2955 8.22865C24.2955 9.03916 23.9666 9.7716 23.4361 10.3021V10.3021Z" fill="white"/>
<path d="M2.87878 21.3325H39.8478V39.7862H2.87878V21.3325Z" fill="black"/>
<path d="M2.87878 31.6882H39.8478V39.7867H2.87878V31.6882Z" fill="black"/>
<path d="M6.75352 23.0444H36.2745C37.484 23.0444 38.4719 24.0322 38.4719 25.2417V32.6533C27.0634 31.2418 15.7524 29.2908 4.55621 29.4712V25.2418C4.55621 24.0323 5.54373 23.0445 6.75352 23.0445V23.0444Z" fill="#3F3F3F"/>
<path d="M26.1594 22.5456L22.7465 39.0297H19.9179L16.5032 22.5456H19.3321L21.3321 32.2004L23.3308 22.5456H26.1594ZM30.9883 29.3733H35.8172V34.2007C35.8172 36.8676 33.6551 39.0297 30.9898 39.0297C28.323 39.0297 26.1609 36.8676 26.1609 34.2007V27.3733H26.1594C26.1594 24.7081 28.3215 22.546 30.9883 22.546C33.6551 22.546 35.8172 24.7081 35.8172 27.3733H32.9883C32.9883 26.2692 32.0922 25.3749 30.9883 25.3749C29.8842 25.3749 28.9899 26.2695 28.9899 27.3733V34.2007C28.9899 35.3049 29.8845 36.2007 30.9883 36.2007C32.0922 36.2007 32.9883 35.3045 32.9883 34.2022V32.2023H30.9883V29.3733V29.3733ZM8.26133 30.7875C7.38833 29.913 6.84686 28.7065 6.84686 27.3731C6.84686 24.7062 9.00896 22.5456 11.6758 22.5456C14.341 22.5456 16.5031 24.7062 16.5031 27.3731H13.6757C13.6757 26.2692 12.7796 25.3731 11.6757 25.3731C10.5716 25.3731 9.67579 26.2692 9.67579 27.3731C9.67579 27.9251 9.89898 28.4234 10.2601 28.786H10.2616C10.4471 28.972 10.6676 29.1195 10.9104 29.2199C11.1531 29.3204 11.4133 29.3719 11.676 29.3715V29.373C13.0094 29.373 14.2159 29.913 15.089 30.7875C15.9635 31.6605 16.5034 32.8685 16.5034 34.2004C16.5034 36.8672 14.3413 39.0293 11.676 39.0293C9.00922 39.0293 6.84712 36.8672 6.84712 34.2004H9.67579C9.67579 35.3061 10.5719 36.2004 11.6758 36.2004C12.7799 36.2004 13.6757 35.3058 13.6757 34.2004C13.6757 33.6499 13.4525 33.1501 13.0902 32.7874C12.728 32.4267 12.2278 32.2017 11.6758 32.2017C10.3424 32.202 9.13589 31.6606 8.26133 30.7875Z" fill="white" stroke="black"/>
</g>
<defs>
<clipPath id="clip0">
<rect width="41.4286" height="41.4286" fill="white" transform="translate(0.618469 0.618446)"/>
</clipPath>
</defs>
</svg>
