<svg width="56" height="36" viewBox="0 0 56 36" fill="none" xmlns="http://www.w3.org/2000/svg">
<path d="M27.6165 0.0715332C23.0835 0.0715332 20.2496 2.29403 19.1165 6.7382C20.8165 4.5157 22.7996 3.68237 25.0665 4.2382C26.3602 4.55487 27.2842 5.47487 28.3076 6.4932C29.9736 8.15153 31.9031 10.0715 36.1165 10.0715C40.6496 10.0715 43.4835 7.84903 44.6165 3.40487C42.9165 5.62737 40.9335 6.4607 38.6665 5.90487C37.3737 5.5882 36.4489 4.6682 35.4255 3.64987C33.7595 1.99153 31.83 0.0715332 27.6165 0.0715332ZM19.1165 10.0715C14.5835 10.0715 11.7496 12.294 10.6165 16.7382C12.3165 14.5157 14.2996 13.6824 16.5665 14.2382C17.8594 14.5549 18.7842 15.4749 19.8076 16.4932C21.4736 18.1515 23.4031 20.0715 27.6165 20.0715C32.1496 20.0715 34.9835 17.849 36.1165 13.4049C34.4165 15.6274 32.4335 16.4607 30.1665 15.9049C28.8737 15.5882 27.9489 14.6682 26.9255 13.6499C25.2595 11.9915 23.33 10.0715 19.1165 10.0715Z" fill="white"/>
<path d="M5.57992 29.0815V27.5215H3.68035V25.4215L2.02588 25.9015V27.5215H0.616516V29.0815H2.02588V32.6815C2.02588 34.6315 3.03694 35.3215 5.57992 35.0215V33.5665C4.32375 33.6265 3.68035 33.6415 3.68035 32.6815V29.0815H5.57992V29.0815ZM12.8325 27.5215V28.5865C12.2504 27.8065 11.3466 27.3265 10.1517 27.3265C8.06826 27.3265 6.3372 29.0365 6.3372 31.2715C6.3372 33.4915 8.06826 35.2165 10.1517 35.2165C11.3466 35.2165 12.2504 34.7365 12.8325 33.9415V35.0215H14.487V27.5215H12.8325ZM10.4121 33.6715C9.03336 33.6715 7.99166 32.6665 7.99166 31.2715C7.99166 29.8765 9.03336 28.8715 10.4121 28.8715C11.7908 28.8715 12.8325 29.8765 12.8325 31.2715C12.8325 32.6665 11.7908 33.6715 10.4121 33.6715ZM17.2429 26.3965C17.825 26.3965 18.2999 25.9165 18.2999 25.3615C18.2999 24.7915 17.825 24.3265 17.2429 24.3265C16.6608 24.3265 16.1859 24.7915 16.1859 25.3615C16.1859 25.9165 16.6608 26.3965 17.2429 26.3965ZM16.4157 35.0215H18.0701V27.5215H16.4157V35.0215ZM19.9912 35.0215H21.6456V24.0715H19.9912V35.0215ZM32.3905 27.5215L30.8892 32.6965L29.296 27.5215H27.7181L26.1096 32.6965L24.6237 27.5215H22.8773L25.2824 35.0215H26.9062L28.5147 29.9665L30.1079 35.0215H31.7317L34.1369 27.5215H32.3905V27.5215ZM36.1825 26.3965C36.7646 26.3965 37.2395 25.9165 37.2395 25.3615C37.2395 24.7915 36.7646 24.3265 36.1825 24.3265C35.6003 24.3265 35.1254 24.7915 35.1254 25.3615C35.1254 25.9165 35.6003 26.3965 36.1825 26.3965ZM35.3552 35.0215H37.0097V27.5215H35.3552V35.0215ZM42.9597 27.3265C41.918 27.3265 41.0907 27.7015 40.5852 28.4815V27.5215H38.9307V35.0215H40.5852V31.0015C40.5852 29.4715 41.4431 28.8415 42.5307 28.8415C43.5724 28.8415 44.2465 29.4415 44.2465 30.5815V35.0215H45.9009V30.4165C45.9009 28.4665 44.6754 27.3265 42.9597 27.3265V27.3265ZM53.7484 24.5215V28.5865C53.1663 27.8065 52.2625 27.3265 51.0676 27.3265C48.9842 27.3265 47.2531 29.0365 47.2531 31.2715C47.2531 33.4915 48.9842 35.2165 51.0676 35.2165C52.2625 35.2165 53.1663 34.7365 53.7484 33.9415V35.0215H55.4029V24.5215H53.7484ZM51.328 33.6715C49.9493 33.6715 48.9076 32.6665 48.9076 31.2715C48.9076 29.8765 49.9493 28.8715 51.328 28.8715C52.7067 28.8715 53.7484 29.8765 53.7484 31.2715C53.7484 32.6665 52.7067 33.6715 51.328 33.6715Z" fill="white"/>
</svg>
