<svg width="51" height="51" viewBox="0 0 51 51" fill="none" xmlns="http://www.w3.org/2000/svg">
<g clip-path="url(#clip0)">
<path d="M45.5013 0.335848L5.26707 0.223034C2.57038 0.215473 0.378148 2.39544 0.370586 5.09214L0.257772 45.3264C0.250211 48.023 2.43018 50.2153 5.12687 50.2228L45.3611 50.3357C48.0578 50.3432 50.25 48.1632 50.2576 45.4665L50.3704 5.23233C50.378 2.53564 48.198 0.34341 45.5013 0.335848Z" fill="#3178C6"/>
<path d="M45.5013 0.335848L5.26707 0.223034C2.57038 0.215473 0.378148 2.39544 0.370586 5.09214L0.257772 45.3264C0.250211 48.023 2.43018 50.2153 5.12687 50.2228L45.3611 50.3357C48.0578 50.3432 50.25 48.1632 50.2576 45.4665L50.3704 5.23233C50.378 2.53564 48.198 0.34341 45.5013 0.335848Z" fill="#3178C6"/>
<path fill-rule="evenodd" clip-rule="evenodd" d="M31.2237 40.0835L31.21 44.9722C32.0036 45.3819 32.9427 45.69 34.0272 45.8967C35.1118 46.1035 36.2552 46.2085 37.4575 46.2119C38.6293 46.2152 39.7427 46.1063 40.7979 45.8851C41.8531 45.6641 42.7788 45.2974 43.575 44.7853C44.3712 44.2733 45.0023 43.6028 45.4682 42.774C45.9341 41.9452 46.1688 40.9198 46.1722 39.6976C46.1747 38.8115 46.0444 38.0346 45.7814 37.3668C45.5183 36.6989 45.1379 36.1046 44.6401 35.5838C44.1423 35.0629 43.545 34.5952 42.8482 34.1808C42.1514 33.7663 41.3654 33.3746 40.4902 33.0055C39.849 32.7389 39.2741 32.4801 38.7653 32.2292C38.2565 31.9782 37.8242 31.7224 37.4683 31.4617C37.1124 31.2009 36.8381 30.9252 36.6453 30.6344C36.4526 30.3435 36.3566 30.0148 36.3577 29.6481C36.3586 29.3121 36.4461 29.0093 36.6201 28.7399C36.7941 28.4704 37.0393 28.2395 37.3556 28.0468C37.6721 27.8542 38.0596 27.705 38.5184 27.5994C38.9773 27.4937 39.4868 27.4417 40.0473 27.4433C40.4548 27.4445 40.8852 27.4762 41.3384 27.5385C41.7917 27.6009 42.2473 27.6965 42.7056 27.825C43.1637 27.9536 43.609 28.1153 44.0415 28.31C44.474 28.5048 44.8733 28.7299 45.2393 28.9856L45.2522 24.4177C44.5092 24.1304 43.6972 23.9168 42.8162 23.7768C41.9353 23.6369 40.9242 23.5653 39.783 23.5621C38.6214 23.5588 37.5207 23.6806 36.4807 23.9272C35.4408 24.1737 34.5252 24.5607 33.734 25.0881C32.9429 25.6156 32.317 26.2885 31.8562 27.1072C31.3954 27.9257 31.1633 28.9053 31.1601 30.046C31.1561 31.5025 31.5729 32.7462 32.4106 33.7773C33.2483 34.8083 34.522 35.6826 36.2318 36.4004C36.9035 36.6773 37.5294 36.9489 38.1094 37.2154C38.6894 37.4818 39.1905 37.7582 39.6125 38.0446C40.0345 38.3309 40.3673 38.6425 40.611 38.9793C40.8546 39.316 40.9758 39.6983 40.9746 40.1261C40.9737 40.4419 40.8964 40.7344 40.7428 41.0039C40.5892 41.2734 40.3568 41.5069 40.0455 41.7047C39.7342 41.9025 39.3465 42.0566 38.8826 42.1674C38.4186 42.2782 37.876 42.3326 37.2544 42.3309C36.1948 42.3279 35.1459 42.1391 34.1076 41.7644C33.0694 41.3898 32.108 40.8295 31.2237 40.0835V40.0835ZM23.0389 28.0154L29.3103 28.0329L29.3216 24.021L11.8412 23.972L11.8299 27.9839L18.0707 28.0014L18.0206 45.8644L22.9888 45.8784L23.0389 28.0154Z" fill="white"/>
</g>
<defs>
<clipPath id="clip0">
<rect width="50" height="50" fill="white" transform="translate(0.384277 0.209343) rotate(0.160654)"/>
</clipPath>
</defs>
</svg>
