<svg width="40" height="40" viewBox="0 0 40 40" fill="none" xmlns="http://www.w3.org/2000/svg">
<path class="fill" d="M16.0971 15.8482C16.0971 13.9613 14.8135 13.9613 14.8135 13.9613H14.1338H9.53223V18.01H14.4861C15.3421 18.0096 16.0971 17.7359 16.0971 15.8482Z" fill="white"/>
<path class="fill" d="M14.8139 20.8065H9.53223V25.6556H14.57C15.3278 25.634 16.7265 25.3966 16.7265 23.2986C16.7265 20.7812 14.8139 20.8065 14.8139 20.8065Z" fill="white"/>
<path class="fill" d="M28.3341 18.0096C25.5314 18.0096 25.1406 20.8065 25.1406 20.8065H31.1007C31.1011 20.8065 31.1367 18.0096 28.3341 18.0096Z" fill="white"/>
<path class="fill" d="M20 0C8.95427 0 0 8.95468 0 20C0 31.0453 8.95427 40 20 40C31.0457 40 40 31.0453 40 20C40 8.95468 31.0457 0 20 0ZM24.3605 11.8048H31.8465V14.0391H24.3605V11.8048ZM20.577 23.5237C20.577 29.0615 14.8137 28.8794 14.8137 28.8794H9.53207H9.37698H5.37207V10.736H9.37698H9.53207H14.8133C17.6827 10.736 19.9476 12.32 19.9476 15.5667C19.9476 18.8137 17.1789 19.0195 17.1789 19.0195C20.8286 19.0195 20.577 23.5237 20.577 23.5237ZM28.3703 26.3853C31.3862 26.3853 31.2794 24.4333 31.2794 24.4333H34.4724C34.4724 29.6135 28.2639 29.2587 28.2639 29.2587C20.8135 29.2587 21.2927 22.3227 21.2927 22.3227C21.2927 22.3227 21.287 15.3522 28.2631 15.3522C35.6072 15.3522 34.5788 23.2274 34.5788 23.2274H25.1773C25.1773 26.5989 28.3703 26.3853 28.3703 26.3853Z" fill="white"/>
</svg>
