<svg width="40" height="40" viewBox="0 0 40 40" fill="none" xmlns="http://www.w3.org/2000/svg">
<path class="fill" d="M20 0C8.96552 0 0 8.96552 0 20C0 31.0345 8.96552 40 20 40C31.0345 40 40 31.0345 40 20.0406C40 9.00609 31.0345 0.040568 20 0ZM24.2191 10.4665C24.1785 10.5071 24.1379 10.5071 24.1379 10.4665C24.1785 10.4665 24.2191 10.4665 24.2191 10.4665ZM31.6024 12.7789C31.6024 12.8195 31.6024 12.9817 31.4807 13.144C30.9128 13.8742 30.3448 14.5233 29.6146 15.0913C29.4929 15.1724 29.3306 15.2536 29.3306 15.4158C29.3306 19.2698 28.357 23.1237 25.5578 25.9229C21.9878 29.4929 16.5923 30.426 11.8458 29.1278C10.9533 28.8844 10.0609 28.5193 9.20893 28.073C8.92495 27.9107 8.68154 27.7485 8.39757 27.5862C8.31643 27.5051 8.27586 27.4645 8.31643 27.4239C8.39757 27.3834 8.43813 27.3834 8.64097 27.4239C9.97972 27.5456 11.359 27.3428 12.6166 26.8966C13.3063 26.6531 14.7667 26.1663 15.213 25.5172C15.213 25.4767 15.2535 25.4767 15.2535 25.4767C15.0913 25.4361 14.8884 25.4361 14.7262 25.3955C13.428 25.0304 11.7241 24.3813 10.9128 22.1907C10.8316 22.069 10.9128 21.9878 11.0345 22.0284C12.0892 22.1095 12.4949 22.069 12.86 21.9878C12.6572 21.9473 12.4544 21.8661 12.2515 21.785C10.6288 21.1765 9.41177 19.5538 9.20893 17.8499C9.16836 17.6471 9.16836 17.4848 9.16836 17.2819C9.16836 17.1602 9.20893 17.1197 9.33063 17.2819C10.1826 17.7282 11.1156 17.8093 11.1968 17.8093C10.9533 17.6471 10.7911 17.4442 10.5882 17.2819C9.20893 15.9432 8.64097 13.2252 9.77688 11.5213C9.89858 11.3996 9.93915 11.3996 10.0609 11.5213C12.6572 14.4828 15.8215 15.8621 19.6755 16.43C19.7566 16.43 19.7566 16.43 19.7566 16.3083C19.6349 15.6187 19.6349 14.929 19.7972 14.2799C19.9594 13.5903 20.284 12.9412 20.7302 12.3732C21.1765 11.8458 21.7039 11.3996 22.3124 11.0751C22.9209 10.7505 23.6105 10.5477 24.3002 10.5071C24.9899 10.4665 25.7201 10.5477 26.3692 10.8316C26.856 11.0345 27.3022 11.2779 27.7079 11.643C27.789 11.7241 27.8702 11.8053 27.9513 11.8864C28.0325 11.927 28.073 11.9675 28.1542 11.927C29.1278 11.6836 30.0609 11.359 30.9533 10.8722C30.9939 10.8722 31.0345 10.8316 31.0751 10.8722C31.1156 10.9128 31.1156 10.9533 31.0751 10.9939C30.9128 11.5213 30.6288 12.0081 30.3043 12.4138C30.0609 12.6978 29.4929 13.3469 29.1278 13.428C29.9391 13.2657 30.7505 13.0629 31.4807 12.7383C31.6024 12.6978 31.6024 12.6572 31.6024 12.7383V12.7789Z" fill="white"/>
</svg>
