<?xml version="1.0" encoding="utf-8"?>
<!-- Generator: Adobe Illustrator 22.0.0, SVG Export Plug-In . SVG Version: 6.00 Build 0)  -->
<svg version="1.1" id="Layer_1" xmlns="http://www.w3.org/2000/svg" xmlns:xlink="http://www.w3.org/1999/xlink" x="0px" y="0px"
	 viewBox="0 0 110 923.5" style="enable-background:new 0 0 110 923.5;" xml:space="preserve">
<style type="text/css">
	.st0{fill:none;stroke:#FFFFFF;stroke-width:2;stroke-miterlimit:10;}
</style>
<g>
	<path class="st0" d="M6.6,889.8v-14.3c0-5,0-10.4,0-15.5c14.1-5.4,28.3-10.5,42.3-15.9c-14.1-5.1-28.3-10.5-42.3-15.6v-14.6
		c0-5.1,0-10.4,0-15.5c32.7-3.6,65.3-7.4,98-10.9V813l-63.8,7.1c9.7,3.7,19.2,7.4,28.8,11.1h22.7v26.4H70.8
		c-10.1,3.6-19.9,7.5-30,11.1l63.8,7.1v25C71.9,897.2,39.2,893.4,6.6,889.8z"/>
	<path class="st0" d="M55.6,768.4c-16.3,0-32.7,0-49,0v-27h49c16.3,0,32.7,0,49,0v27H55.6z"/>
	<path class="st0" d="M55,718.7c-16.2,0-32.2,0-48.4,0v-27H55c8,0,16.1,0,24,0v-36.9h25.6v63.9H55z"/>
	<path class="st0" d="M30.7,611c3.8,0,7.7,0,11.5,0v-8.7c0-7.5,0-15.1,0-22.6h24.2v22.6c0,2.8,0,5.8,0,8.7h14.1
		c0-12.1,0-23.6,0-35.2h24.1v61.9c-16.5,0-33.1,0-49.6,0H6.6c0-20.7,0-41.3,0-61.9h24.2V611z"/>
	<path class="st0" d="M100.8,557.9H74.6c4.4-7.5,8.4-17,8.4-26.4c0-7.7-2.8-11.5-5.8-11.5c-3.7,0-6,2.3-11.9,18.2
		c-6,14.6-14.6,25.4-29.7,25.4c-19.6,0-31.8-14.9-31.8-36.8c0-13.4,3.6-25,8.5-33.5H39c-5.7,8.8-10.2,20.6-10.2,31
		c0,9.4,3,12.4,5.4,12.4c3.4,0,5.4-3.1,9.9-15.6c8.1-22,16.6-28.8,30.8-28.8c19.7,0,32.2,15.2,32.2,35.4
		C107.1,540.4,104.4,550.6,100.8,557.9z"/>
	<path class="st0" d="M32.1,403.7v26.1c8.1,0,16.2,0,24.3,0h48.2v27.4H56.4c-8.1,0-16.2,0-24.3,0v26.3H6.6v-39.9
		c0-13.4,0-26.6,0-39.9H32.1z"/>
	<path class="st0" d="M54.9,396.3c-29.8,0-51.4-21.2-51.4-51.3s21.6-51.3,51.4-51.3c30.7,0,52.8,21.9,52.8,51.3
		S85.6,396.3,54.9,396.3z M54.9,322.2c-14.8,0-25,9.5-25,22.9s10.4,22.9,25,22.9c15.6,0,26.4-10.2,26.4-22.9S70.5,322.2,54.9,322.2z
		"/>
	<path class="st0" d="M45.8,187.8c19.6,0,39.2,0.1,58.8,0.1v17.6c0,5.5,0,11.4,0,17.3l-64.2,28.8c8.4,0,16.6,0,25,0h39.2V277H65.4
		c-19.6,0-39.2,0-58.8,0v-17.6c0-5.5,0-11.1,0-17.3l62.9-29c-8,0-15.8,0-23.7,0H6.6v-25.3H45.8z"/>
	<path class="st0" d="M30.7,138.4c3.8,0,7.7,0,11.5,0v-8.7c0-7.5,0-15.1,0-22.6h24.2v22.6c0,2.8,0,5.8,0,8.7h14.1
		c0-12.1,0-23.6,0-35.2h24.1v61.9c-16.5,0-33.1,0-49.6,0H6.6c0-20.7,0-41.3,0-61.9h24.2V138.4z"/>
	<path class="st0" d="M100.8,85.2H74.6c4.4-7.5,8.4-17,8.4-26.4c0-7.7-2.8-11.5-5.8-11.5c-3.7,0-6,2.3-11.9,18.2
		c-6,14.6-14.6,25.4-29.7,25.4C15.9,90.9,3.7,76,3.7,54.1c0-13.4,3.6-25,8.5-33.5H39c-5.7,8.8-10.2,20.6-10.2,31
		c0,9.4,3,12.4,5.4,12.4c3.4,0,5.4-3.1,9.9-15.6c8.1-22,16.6-28.8,30.8-28.8c19.7,0,32.2,15.2,32.2,35.4
		C107.1,67.8,104.4,78,100.8,85.2z"/>
</g>
</svg>
