<svg width="70" height="70" viewBox="0 0 70 70" fill="none" xmlns="http://www.w3.org/2000/svg">
<g clip-path="url(#clip0)">
<rect width="70" height="70" rx="10" fill="#220F39"/>
<path d="M94.8573 -15.5184C94.8573 -15.5184 68.4787 -2.95593 73.1606 28.1212C78.4135 62.967 47.9525 77.9223 27.1408 69.308C6.32912 60.6639 7.78508 28.6895 -31.7828 27.7024C-72.2071 26.7154 -80.7145 -13.5443 -80.7145 -13.5443" stroke="white" stroke-opacity="0.2" stroke-width="2" stroke-miterlimit="10"/>
<path d="M64.3677 -24.8806C64.3677 -24.8806 52.9484 1.68004 57.0308 28.0911C61.1418 54.5021 42.671 57.6128 35.3341 54.5021C20.0894 48.1013 17.1489 13.8237 -7.4597 11.6103C-25.959 9.93536 -50.853 23.1857 -64.0423 -6.87439" stroke="white" stroke-opacity="0.2" stroke-width="2" stroke-miterlimit="10"/>
<path d="M52.0634 -13.0358C52.0634 -13.0358 56.1743 14.0931 37.9891 9.24758C17.1489 3.68422 17.4629 -9.35679 -8.91565 2.96636C-18.308 7.36322 -56.1059 8.64937 -48.4835 -15.5184" stroke="white" stroke-opacity="0.2" stroke-width="2" stroke-miterlimit="10"/>
<path d="M38.8742 45.1403C43.2416 45.1403 46.782 39.6766 46.782 32.9368C46.782 26.197 43.2416 20.7333 38.8742 20.7333C34.5068 20.7333 30.9663 26.197 30.9663 32.9368C30.9663 39.6766 34.5068 45.1403 38.8742 45.1403Z" stroke="white" stroke-opacity="0.2" stroke-width="2" stroke-miterlimit="10"/>
<g clip-path="url(#clip1)">
<path d="M11.1667 12.1414H58.8334V57.8587H11.1667V12.1414Z" fill="url(#paint0_radial)"/>
<path d="M11.1667 12.1422H58.8335V57.8594H11.1667V12.1422ZM9.00003 59.9958H61.0001V10.0059H9.00003V59.9958ZM45.79 34.1036C46.895 34.1036 47.285 34.1036 47.3933 34.0609C47.3933 33.9114 47.4367 33.8045 47.4367 33.6977C47.4367 32.544 46.8733 30.4077 44.62 30.4077C42.5399 30.4077 41.6517 32.2022 41.435 34.1036H45.79ZM41.3918 37.0303C41.4351 39.9144 42.8218 41.8584 46.1151 41.8584C47.3934 41.8584 48.4984 41.6876 49.6468 41.1962C49.7985 41.1322 49.9069 41.1535 49.9069 41.3458V44.0161C49.9069 44.2297 49.8419 44.3366 49.6902 44.4434C48.5419 44.9988 47.1118 45.2552 45.3352 45.2552C39.6152 45.2552 37.4702 41.0894 37.4702 36.4537C37.4702 31.4119 40.1136 27.2889 44.7719 27.2889C49.4952 27.2889 51.142 31.1983 51.142 34.3815C51.142 35.4069 51.077 36.2401 50.9686 36.646C50.9253 36.8169 50.8603 36.881 50.6869 36.9238C50.2536 36.9878 48.9752 37.0732 47.0686 37.0732H41.3918V37.0303ZM29.7785 34.8513C29.1718 32.48 27.6984 27.3101 27.1567 24.8106H27.1134C26.6585 27.3101 25.4667 31.5399 24.5784 34.8513H29.7785ZM23.69 38.3122L21.9784 44.6998C21.9351 44.8706 21.8701 44.9347 21.6533 44.9347H18.4683C18.2517 44.9347 18.2083 44.8706 18.2517 44.6143L24.405 23.4006C24.5133 23.0161 24.5783 22.717 24.6216 21.6489C24.6216 21.4994 24.6866 21.4353 24.7949 21.4353H29.3449C29.4966 21.4353 29.5616 21.478 29.605 21.6489L36.495 44.657C36.5383 44.8278 36.495 44.9347 36.3217 44.9347H32.7467C32.5734 44.9347 32.465 44.8706 32.4216 44.7212L30.645 38.3123H23.69V38.3122Z" fill="#D8A1FF"/>
</g>
</g>
<defs>
<radialGradient id="paint0_radial" cx="0" cy="0" r="1" gradientUnits="userSpaceOnUse" gradientTransform="translate(26.8658 22.3866) scale(36.2267 34.5828)">
<stop stop-color="#442F55" stop-opacity="0.98"/>
<stop offset="1" stop-color="#12002C"/>
</radialGradient>
<clipPath id="clip0">
<rect width="70" height="70" rx="10" fill="white"/>
</clipPath>
<clipPath id="clip1">
<rect width="52" height="50" fill="white" transform="translate(9 10)"/>
</clipPath>
</defs>
</svg>
