<svg width="70" height="70" viewBox="0 0 70 70" fill="none" xmlns="http://www.w3.org/2000/svg">
<g clip-path="url(#clip0)">
<rect width="70" height="70" rx="10" fill="#0D1700"/>
<path d="M94.8573 -15.5184C94.8573 -15.5184 68.4787 -2.95593 73.1606 28.1212C78.4135 62.967 47.9525 77.9223 27.1408 69.308C6.32912 60.6639 7.78508 28.6895 -31.7828 27.7024C-72.2071 26.7154 -80.7145 -13.5443 -80.7145 -13.5443" stroke="white" stroke-opacity="0.2" stroke-width="2" stroke-miterlimit="10"/>
<path d="M64.3677 -24.8806C64.3677 -24.8806 52.9484 1.68004 57.0308 28.0911C61.1417 54.5021 42.671 57.6128 35.3341 54.5021C20.0894 48.1013 17.1489 13.8237 -7.45971 11.6103C-25.959 9.93536 -50.8531 23.1857 -64.0424 -6.87439" stroke="white" stroke-opacity="0.2" stroke-width="2" stroke-miterlimit="10"/>
<path d="M52.0634 -13.0358C52.0634 -13.0358 56.1743 14.0931 37.9891 9.24758C17.1489 3.68422 17.4629 -9.35679 -8.91565 2.96636C-18.308 7.36322 -56.1059 8.64937 -48.4835 -15.5184" stroke="white" stroke-opacity="0.2" stroke-width="2" stroke-miterlimit="10"/>
<path d="M38.8742 45.1403C43.2416 45.1403 46.782 39.6766 46.782 32.9368C46.782 26.197 43.2416 20.7333 38.8742 20.7333C34.5068 20.7333 30.9663 26.197 30.9663 32.9368C30.9663 39.6766 34.5068 45.1403 38.8742 45.1403Z" stroke="white" stroke-opacity="0.2" stroke-width="2" stroke-miterlimit="10"/>
<path d="M20.87 32.0143C19.4514 32.6838 15.6966 35.6976 14.9735 36.5905C14.2224 37.4834 14 36.0883 14.7787 33.7722C15.3905 31.9026 16.9483 29.3633 19.5627 27.1868C21.0923 25.9311 24.4579 24.1174 26.516 23.057C26.9333 22.8337 32.3291 20.5456 37.1409 19.4015C37.5582 19.2899 36.6403 20.0991 36.5012 20.5456C35.778 22.6663 21.3426 31.763 21.3426 31.763L20.87 32.0143ZM41.2017 57.6024C41.452 59.1092 41.2295 59.2208 39.672 59.4162C38.1144 59.6116 36.9741 59.0255 36.5569 58.6349C36.1396 58.2441 36.0563 57.3792 36.4735 56.5979C36.7239 56.0956 36.9742 55.9282 37.1133 55.3143C37.2524 54.7283 37.3636 54.5887 37.4748 54.3656C37.5859 54.1701 37.6139 53.9747 37.6417 52.6075C37.6695 51.2403 37.6417 48.673 37.7808 47.5848C37.92 46.4687 42.7317 48.0871 42.7317 48.0871C42.7317 48.0871 41.5913 50.9333 41.2854 51.6309C40.9794 52.3286 41.0072 53.6679 41.0072 53.9469C41.0072 54.226 40.8961 54.784 40.8125 54.8119C40.7291 54.8397 41.0907 55.5652 40.9237 55.9839C40.8124 56.3746 41.174 57.3792 41.2017 57.6024ZM43.0375 14.9368C42.8705 13.8765 43.0375 11.7834 43.2599 11.4488C43.9554 10.4999 47.6267 10.3884 48.4056 11.5045C48.7393 12.0067 48.7115 13.1787 48.6559 13.9322C48.6003 14.6856 48.4056 16.304 48.3777 16.8343C48.35 17.2251 44.317 17.8388 43.4269 16.7784C43.1765 16.4995 43.0375 14.9368 43.0375 14.9368ZM51.2147 54.8956C52.9114 56.1235 54.2186 56.3467 55.0808 56.7931C55.9429 57.2397 55.7205 58.1047 54.2741 58.3559C53.106 58.579 51.2703 58.1325 50.0465 58.1325C48.8228 58.1325 46.0969 58.2722 45.3737 57.7699C44.5394 57.184 44.9009 56.0956 44.9009 56.0956C45.1234 55.4818 45.6796 54.1143 45.5127 52.9982C45.3459 51.8821 45.1233 51.2682 44.7061 50.2357C44.289 49.2033 43.9831 46.6641 44.3725 46.5245C44.762 46.3849 44.6506 46.5245 45.1513 46.636C45.6519 46.7475 46.2082 46.9151 47.293 46.9151C48.3777 46.9151 49.5736 46.7475 49.9909 46.6639C50.4081 46.5802 50.7418 46.4964 50.6027 47.3615C50.4637 48.2265 50.0465 49.845 50.0187 51.1007C49.9909 52.3564 49.9909 53.8075 50.0744 54.0586C50.1577 54.3097 50.7697 54.5887 51.2147 54.8956Z" fill="#010101"/>
<path d="M45.2626 17.7273C42.2032 20.3783 36.2788 21.1037 27.4898 24.508C25.2368 25.373 19.2291 27.9681 17.7828 30.6749C22.6501 27.8566 24.4581 31.7353 24.8474 35.7255C25.2088 39.4647 27.0725 41.4181 31.8564 41.3063C36.7795 41.1948 38.2814 44.0688 39.6442 47.4454C42.2865 34.5256 46.5142 32.0143 49.2398 29.8099C55.0252 25.094 47.9049 16.7785 45.2626 17.7273Z" fill="#8AC640"/>
<path d="M45.2626 17.7272C37.9198 20.2944 30.6604 20.9362 22.1217 26.2102C20.0913 27.4659 15.808 30.312 14.9735 35.7534C18.0885 32.2932 25.2923 27.9403 34.1092 25.1778C38.5595 23.7825 41.8137 22.8617 45.7632 21.3269C45.4852 19.5409 45.4852 18.8433 45.2626 17.7272Z" fill="#8AC640"/>
<path d="M54.6357 33.0187C54.6357 33.0187 54.1073 34.8326 53.0504 35.4186C53.0504 35.4186 52.2716 35.6977 50.7141 34.8327C50.2691 34.5816 49.9354 33.7166 49.9631 33.4374C49.991 32.7676 50.4081 32.4608 50.4081 32.4608C50.4081 32.4608 50.8533 31.7073 51.3816 31.7352C51.9102 31.763 52.8002 31.8467 53.0784 31.5956C53.3285 31.3166 54.6915 32.0979 54.6357 33.0187ZM43.2878 15.467C43.2878 15.467 43.1766 16.8902 42.9819 17.783C42.9541 17.9506 42.1197 18.0341 41.5077 18.2854C42.6759 21.6338 49.7128 21.6059 50.6307 19.9596C50.1857 19.6528 49.2956 19.1783 48.8785 19.0109C48.4612 18.8434 48.489 18.8713 48.4612 18.09C48.4335 17.3086 48.3777 15.8577 48.322 15.467C48.2664 15.0763 43.9553 15.0763 43.2878 15.467Z" fill="#010101"/>
<path d="M43.5659 15.467C43.5659 15.467 43.5659 16.2762 43.4825 17.0575C43.4548 17.4203 43.4269 17.6434 43.3714 17.9225C43.3435 18.09 44.317 18.7595 44.5951 20.2385C45.9302 23.2242 49.0176 21.7454 50.297 20.3222C49.852 20.0152 49.1288 19.5967 48.2945 19.2619C47.8772 19.0943 48.0719 18.7317 48.0442 17.9504C48.0163 17.1691 47.905 16.0249 47.8494 15.6064C47.7936 15.1879 44.2335 15.0762 43.5659 15.467Z" fill="#F0EFEF"/>
<path d="M43.2878 15.467C43.2878 15.467 43.2599 15.9693 43.1766 16.5553C43.5381 16.9179 44.011 17.4203 44.3727 17.7273C44.623 17.9506 45.2347 17.9226 45.7912 17.9226C46.2918 17.9226 46.7368 17.9784 46.9315 17.8669C47.3767 17.6436 48.0163 17.0856 48.3779 16.6669C48.3502 16.1647 48.3223 15.6903 48.2946 15.467C48.2665 15.0763 43.9553 15.0763 43.2878 15.467Z" fill="#010101"/>
<path d="M45.8189 17.5877C45.485 17.5877 45.0956 17.5599 44.7897 17.504C44.6506 17.4762 44.5116 17.3925 44.4003 17.3366C44.2056 17.197 44.0108 17.0297 43.7885 16.8622C43.3434 16.5273 43.3157 16.332 43.3157 16.2484C43.5104 14.4903 43.2599 13.0115 43.2599 13.0115C43.2599 13.0115 43.0652 12.258 44.1221 12.0626C45.179 11.8673 45.8188 11.8395 45.8188 11.8395C45.8188 11.8395 46.4864 11.8395 47.5154 12.0626C48.5723 12.258 48.3776 13.0115 48.3776 13.0115C48.3776 13.0115 48.1273 14.4903 48.322 16.2484C48.322 16.332 48.2943 16.5273 47.8491 16.8622C47.4597 17.1412 47.1538 17.4481 46.848 17.504C46.5419 17.5599 46.1525 17.5877 45.8189 17.5877Z" fill="#010101"/>
<path d="M45.8189 11.114C43.9832 11.114 43.6215 11.6162 43.0931 12.1743C42.9819 12.3138 43.0652 13.1509 43.2601 14.9368H43.5104C43.5104 14.9368 43.3434 14.4345 43.3712 13.8485C43.3991 13.2626 43.5104 13.2905 43.4268 13.1509C43.3156 12.9834 43.0931 12.7043 43.5938 12.4254C44.0944 12.1464 44.8731 12.6486 45.8189 12.6765C46.7645 12.6486 47.5711 12.1464 48.0717 12.4254C48.5723 12.7043 48.3499 12.9834 48.2387 13.1509C48.1274 13.3184 48.2664 13.2625 48.2943 13.8485C48.322 14.4345 48.1552 14.9368 48.1552 14.9368H48.4055C48.5723 13.1509 48.6836 12.3697 48.6002 12.2301C48.1273 11.6162 47.6546 11.1418 45.8189 11.114ZM54.6357 33.1025C54.6357 33.1025 54.1073 34.8046 53.0782 35.3906C52.8557 35.2791 52.8835 35.1117 52.6888 34.8604C52.6331 34.7768 52.4384 34.7208 52.3551 34.6372C52.2716 34.5535 52.2995 34.4139 52.1603 34.3024C52.0491 34.1908 51.9656 34.2745 51.8543 34.1908C51.7432 34.0793 51.7152 33.9397 51.6319 33.8561C51.5762 33.8002 51.3537 33.7724 51.2982 33.7165C51.159 33.5769 49.9354 33.3258 49.991 33.0467C50.1021 32.6281 50.3247 32.3212 50.3247 32.3212C50.3247 32.3212 50.8531 31.5399 51.3815 31.5677C51.9099 31.5957 52.4106 31.7073 52.6888 31.4562C52.9948 31.177 54.7193 32.2095 54.6357 33.1025Z" fill="#010101"/>
<path d="M51.02 20.7689C51.02 20.7689 52.7723 20.3503 53.9683 21.4944C55.1644 22.6664 55.0808 24.1174 54.7193 25.0103C55.0252 25.3731 55.5815 26.3775 55.1644 27.5775C57 29.14 56.1934 31.5399 54.5525 33.1305C54.5525 33.1305 54.163 31.6794 52.6055 31.5957C52.6611 31.0377 51.1592 30.5911 51.8545 29.14C50.7976 28.8889 50.8254 28.1634 50.6586 27.2706C50.5194 26.3775 51.02 20.7689 51.02 20.7689Z" fill="#010101"/>
<path d="M50.3803 21.5501C50.3803 21.5501 52.4107 20.5177 53.6067 21.6897C54.8027 22.8617 54.4688 24.1452 54.1073 25.0382C54.4132 25.4008 55.1364 26.4335 54.6914 27.6611C54.6079 27.9401 53.996 27.9401 53.5509 28.6657C54.6634 28.0237 55.3588 28.1913 55.6091 29.0004C55.9986 30.2561 55.1363 31.7629 54.3854 32.6001C54.3854 32.5721 54.3575 32.5442 54.3575 32.5164C54.2463 32.935 54.1072 33.7441 53.2729 34.637C52.8556 35.0835 52.5218 35.0278 52.0489 34.9161C51.4928 34.7765 51.298 34.5253 50.5193 34.1069C50.0743 33.8558 50.3246 33.5488 50.3246 33.2976C50.3246 33.2419 50.3801 33.158 50.4637 33.0465C50.5193 32.9069 50.6861 32.6839 50.9364 32.4326C50.9364 32.4326 51.298 31.9304 51.8266 31.9582C52.3551 31.9862 52.9113 31.8747 53.0504 31.7351C53.0504 30.7584 51.9379 30.7305 52.3272 29.0563C52.3551 28.9725 52.4942 28.833 52.9391 28.7772C52.2715 28.6376 51.9656 28.6096 51.4928 28.1633C51.159 27.8564 50.9087 27.4657 50.8252 26.9635C50.6584 26.0985 50.3803 21.5501 50.3803 21.5501Z" fill="#F0EFEF"/>
<path d="M44.5116 19.7922C44.3447 19.5689 43.4825 18.4528 41.8414 18.0063C41.3686 17.8667 41.0627 18.2575 40.5899 18.5365C40.4508 18.4528 39.8389 18.1738 39.5052 18.369C39.1714 18.5642 38.949 18.7597 38.6151 18.8992C38.4481 18.8154 38.0033 18.8154 37.6417 18.9549C37.2801 19.0666 36.7238 19.3177 36.1953 20.0432C35.8616 21.2432 42.0917 20.3501 42.0917 20.3501L44.5116 19.7922Z" fill="#010101"/>
<path d="M44.5673 19.7922C43.6771 19.4852 43.8162 18.4528 41.8414 18.2854C41.452 18.2575 41.2017 18.5643 40.9235 18.7597C41.0627 18.8993 41.2017 19.1225 41.2851 19.3456C41.0348 19.0667 40.5898 18.7038 40.1447 18.6201C39.7275 18.5365 39.4493 18.8434 39.0043 19.0667C39.0876 19.1503 39.1712 19.2899 39.2823 19.4574C38.8929 19.2063 38.6149 19.1226 38.0864 19.3178C37.7248 19.4293 37.0295 19.7363 36.5011 20.4898C36.1673 21.6897 42.1195 20.3502 42.1195 20.3502L44.5673 19.7922Z" fill="#8AC640"/>
<path d="M49.7962 20.2387C49.7962 20.2387 49.7962 19.9317 49.7684 19.6528C49.7684 19.597 49.5459 19.4574 49.5459 19.4017L49.4904 19.3458C49.4904 19.3458 49.9354 19.0947 50.2691 19.2343C50.6306 19.3458 50.8253 19.8202 50.8253 19.8202C51.465 19.597 51.5206 19.8481 51.8266 20.183C52.4942 20.0434 52.5775 20.2945 52.9948 20.9085C52.9948 20.9085 52.4942 20.8248 51.5207 20.9921C50.575 21.1315 49.7962 20.2108 49.7962 20.2387Z" fill="#010101"/>
<path d="M49.6849 20.0991C49.6849 20.0991 49.8518 19.9595 49.7961 19.9316C50.102 19.7642 50.5193 19.569 50.714 20.0991C51.3537 19.8758 51.4372 20.1828 51.7431 20.5178C52.5218 20.155 52.5774 20.6014 52.6331 20.7967C52.3828 20.7967 52.0213 20.8247 51.5206 20.8804C50.575 21.02 49.6571 20.0712 49.6849 20.0991Z" fill="#8AC640"/>
<path d="M40.2284 19.4015C40.2284 19.4015 41.8137 19.9595 43.1488 19.8758C44.4839 19.7643 46.7645 19.6526 47.9883 20.3781C47.9883 20.3781 49.24 19.9315 50.4082 20.2385C51.5765 20.5454 53.718 22.5546 53.0784 24.6753C53.0227 24.8149 52.6611 25.038 52.244 25.1776C52.244 25.1776 52.4665 26.1263 52.0771 26.9076C51.6876 27.6611 50.8255 29.1122 50.7976 31.1212C50.7699 31.456 50.7143 32.1536 50.6586 32.4884C48.4891 32.4048 45.1515 31.5955 41.8694 31.6514C41.8972 31.2887 41.925 31.0654 41.9529 30.7027H42.0362C41.8693 29.7818 41.8137 29.3074 41.6467 28.6098C40.5898 27.9402 39.4772 27.1589 38.5317 25.6799C37.6138 24.2009 40.2284 19.4015 40.2284 19.4015ZM50.9645 34.4698C50.9645 34.4698 52.689 40.6646 50.6586 43.2597C50.6586 43.2597 50.9645 44.4595 50.2691 45.7432C50.1579 46.3011 50.0187 46.8035 49.9354 47.3615C49.5738 49.6775 48.9618 50.6542 48.7949 54.3654L47.126 54.3376C47.126 54.3376 46.9313 51.6588 46.3472 50.2357C46.0137 49.4266 44.7062 48.3381 44.762 47.25C44.8176 46.4128 44.9845 45.7152 46.4031 44.599C46.5143 42.9806 44.901 41.4457 45.1515 35.4185L50.9645 34.4698Z" fill="#010101"/>
<path d="M50.4638 34.2186C50.9088 37.0648 51.9379 41.2784 50.0744 43.3432C50.1843 43.8667 50.1938 44.4066 50.1021 44.9337C50.0465 45.2685 49.9352 45.6313 49.7962 46.0218C49.5181 46.6916 49.4068 47.6683 49.3233 48.2542C48.9618 50.5702 48.9618 50.682 48.7949 54.3932L47.126 54.3653C47.126 54.3653 46.9312 51.6865 46.3472 50.2635C46.0136 49.4543 45.3182 48.7567 45.2626 47.6684C45.207 46.8314 45.791 45.1571 47.1818 45.2129C47.0984 41.8365 45.5407 42.5061 45.1236 35.4743L50.4638 34.2186ZM40.2284 19.4015C40.2284 19.4015 40.8402 19.5968 41.5077 19.6526C42.1753 19.7084 42.8985 19.6526 43.5381 19.6247C44.8731 19.5131 46.7645 19.3735 48.0161 20.0991C48.0161 20.0991 48.7115 19.8758 49.4625 19.9315C49.7962 19.9595 50.1301 20.2385 50.5194 20.3502C51.7432 20.6571 52.9114 22.694 52.3828 24.5358C52.3272 24.6754 51.9378 24.5358 51.4927 24.6754C51.576 25.0661 51.6319 25.9591 51.1867 26.9078C50.714 27.8566 50.1021 29.0844 50.2133 31.4284C47.2928 31.2888 45.9856 31.0935 43.0929 30.9539C42.8426 29.9214 42.6756 28.889 42.6479 28.3588C43.0374 28.1635 43.2597 27.9962 43.5658 27.6612C42.7315 27.8008 42.3976 27.7449 41.8969 27.4659C41.3963 27.1868 40.5062 26.2939 40.0612 25.708C40.0056 25.6521 39.6998 26.5728 39.0045 26.6009C38.754 26.2381 39.8109 25.2056 39.6162 24.815C38.921 23.3918 40.2284 19.4015 40.2284 19.4015Z" fill="#F0EFEF"/>
<path d="M50.6861 31.9025C50.6861 31.9025 50.7417 32.9071 50.7417 33.1582C50.7417 33.4373 50.9643 34.2743 50.992 34.665C50.6861 35.1952 49.3511 36.3951 46.9313 36.8416C44.5393 37.3438 41.3686 33.5769 41.3686 33.5769C41.452 33.2141 41.7302 32.1536 41.9249 31.5956C41.9527 31.5399 42.0083 31.4003 42.0083 31.3445C42.2588 30.9818 50.6861 31.9025 50.6861 31.9025Z" fill="#010101"/>
<path d="M50.0744 31.9864C50.0744 32.684 50.1855 33.1864 50.2691 33.6328C50.4081 34.4421 50.6306 34.9722 50.6306 35.5024C50.6306 37.1207 48.5167 36.8417 46.7365 36.8976C44.3446 37.3999 42.3142 33.6328 42.3142 33.6328C42.481 32.991 42.5923 32.2656 42.8426 31.6516C42.8704 31.3168 42.9261 30.8982 42.9538 30.7029C46.3471 30.7029 48.7391 30.8982 50.1298 31.0376C50.1855 31.3446 50.13 31.8747 50.0744 31.9864Z" fill="#F0EFEF"/>
<path d="M47.4041 35.5859C47.4041 35.5859 45.9301 32.2933 41.5076 33.27C40.4508 36.2557 39.0322 39.688 39.9501 43.3992C39.0322 44.6549 37.9753 45.3527 37.9753 47.6686C37.9753 49.9846 38.0865 50.3753 38.0865 50.3753L41.3407 50.5429C41.3407 50.5429 42.3976 49.1757 42.8148 47.6967C42.9261 47.278 43.0373 46.5247 42.9539 45.6597C43.0651 45.4923 43.5379 45.1017 43.5937 44.3482C43.5937 44.3482 45.179 43.5112 46.0969 41.4742C46.9592 39.6321 46.7367 38.0416 47.4041 35.5859Z" fill="#010101"/>
<path d="M47.4042 35.5859C47.3209 35.2791 46.2083 32.2654 42.0918 33.1582C39.6721 39.6321 40.5621 42.3109 40.9236 43.4828C39.2825 45.5755 38.5316 46.022 38.8655 50.2635H41.035C42.0362 48.673 42.2588 48.0869 42.3143 45.9942C42.3143 45.9105 42.0085 46.1616 41.7859 46.4406C41.9529 45.5756 42.4256 45.4082 42.7872 44.8781C42.9541 44.6548 43.0931 44.3199 43.0931 43.8735C45.0401 42.562 45.7632 40.9156 46.1804 39.2134C46.5143 38.0416 46.9036 36.1161 47.4042 35.5859Z" fill="#F0EFEF"/>
<path d="M40.5342 31.0934C40.5342 31.0934 41.2853 31.1213 41.9529 31.3446C42.5926 31.5677 42.5926 31.7072 42.8429 31.9864C43.0932 32.2656 43.7051 32.684 43.5939 33.1025C43.5382 33.3258 43.3992 33.3815 43.2045 33.5769C43.1211 33.6606 42.509 34.3302 42.37 34.4139C42.2866 34.4697 42.1753 34.5535 42.0919 34.6093L41.6747 34.8884C41.3966 35.028 41.2018 35.1117 40.896 35.0837C40.896 35.0837 40.2006 35.0558 39.7555 34.5815C39.7555 34.5815 39.6999 34.3582 39.8112 34.2467C39.8112 34.2467 39.227 33.7443 39.0602 33.4095C38.8932 33.0748 38.8932 32.6004 39.0046 32.3493C39.0602 32.0979 40.1448 31.4003 40.5342 31.0934ZM41.2297 58.2442L41.1463 58.9419C41.1463 58.9419 40.896 59.2488 39.0324 59.221C37.1411 59.193 36.6405 58.6071 36.4736 58.3001L36.3625 57.5746C36.3625 57.5746 36.724 57.0444 36.8075 57.0444C37.4194 57.1002 39.5055 57.9373 40.9518 58.1605C41.0905 58.1605 41.1183 58.2163 41.2297 58.2442ZM45.2626 56.8211C45.2626 57.128 45.2347 57.128 45.2347 57.435C45.5685 57.6861 46.4031 57.8257 47.9883 57.7976C50.2968 57.7418 52.4385 58.4953 55.0529 58.0487L55.0808 57.5465L54.8305 57.5187L45.5685 56.7652L45.2626 56.8211Z" fill="#010101"/>
<path d="M47.293 57.7977H47.9883C49.4904 57.742 50.9089 58.0768 52.4385 58.1605C53.2451 58.1326 54.2464 57.9372 54.163 57.3513L46.2639 56.6815C45.7911 57.2117 46.1525 57.6581 47.293 57.7977ZM38.2257 46.0501C38.476 46.2175 40.1727 47.2221 42.9262 47.0825C42.8705 47.6126 42.8984 48.6452 41.6746 50.4589C41.0627 51.3518 40.5341 52.9145 40.423 54.8958C40.4508 55.3422 40.7011 55.7328 40.3674 56.3189C40.4785 56.6815 40.9235 57.407 41.1461 57.8535C41.3686 58.3001 41.4799 58.8023 40.0057 58.8303C38.5037 58.8581 36.0839 58.6907 36.4178 57.5188C36.5848 56.9049 37.0575 56.2631 37.1132 56.0119C37.1688 55.7608 37.1688 55.0074 37.6415 54.5051C38.0588 53.1099 37.9197 51.7705 37.8364 50.5148C37.6973 49.2032 37.6694 47.1104 38.2257 46.0501ZM40.8124 23.3081C42.7872 20.6571 41.1183 18.5365 37.9477 19.1782C36.6682 19.4293 35.3889 20.3224 35.3053 21.9407C34.8881 21.9965 33.9425 22.0522 33.4696 23.7824C33.1082 25.1218 32.9135 25.3729 32.2736 26.0425C31.8564 26.5169 32.3014 27.4936 32.6073 28.1913C33.6365 30.591 36.8072 30.8142 38.9489 32.628C39.6721 32.4327 40.423 31.6236 40.6455 31.0934C38.8376 28.9446 39.2269 28.1076 38.5037 26.9915C39.2826 26.7123 41.0627 25.6241 40.8124 23.3081Z" fill="#010101"/>
<path d="M40.423 23.1407C40.5341 22.9731 40.7288 22.6105 40.8124 22.4709C40.8403 22.4429 41.1461 22.9731 41.174 22.9453C41.9249 21.7174 42.1196 19.9315 41.2573 19.7641C41.0626 19.7362 40.7011 19.6526 40.3951 19.5408C39.8389 19.3455 39.3383 19.3455 38.4482 19.513C37.2244 19.7362 36.0006 20.6291 36.0006 21.9128C36.0006 21.9965 36.8627 22.2476 37.1131 23.2801C36.6958 22.694 35.9726 22.0522 35.1104 22.6103C34.1925 23.1963 34.6654 24.5357 33.4416 25.9308C33.0243 26.4053 33.08 26.9634 33.5249 28.0795C34.2481 29.8375 37.6693 30.7862 39.5328 32.4605C39.9778 32.2651 40.2837 31.8186 40.5063 31.4838C39.2546 30.1724 38.7539 28.9445 38.3924 28.0515C37.9474 27.0191 37.4467 26.4332 36.4732 25.6516C36.9739 25.847 37.3634 26.0424 37.5857 26.2098C37.836 26.3772 38.1976 26.4051 38.5315 26.2935C39.7276 25.8752 40.3674 24.2009 40.423 23.1407Z" fill="#F0EFEF"/>
<path d="M52.5219 23.5872C52.4385 24.6476 51.6598 24.1174 51.2426 23.922C50.4081 23.5593 49.5737 23.3081 48.6002 23.3081C47.6267 23.3081 46.3751 23.3918 45.2905 23.6709C43.7885 24.0894 43.3434 24.0616 42.6759 23.7267C42.0085 23.3639 40.8404 22.4709 40.8404 22.4709C40.8404 22.4709 40.8125 22.75 41.0907 23.1128C41.4521 23.5593 42.2589 24.1174 43.3435 24.48C43.872 24.6476 44.2893 24.5358 44.7621 24.4242C47.2375 23.8104 49.852 23.6987 52.0492 25.0381C52.1605 25.0939 52.5499 24.9265 52.7168 24.6754C52.9391 24.3127 52.5219 23.5872 52.5219 23.5872Z" fill="#010101"/>
<path d="M39.8668 34.2186C40.0892 34.3582 40.3674 34.4419 40.6733 34.693C40.6733 34.693 40.423 34.693 40.3118 34.5815C40.1727 34.4978 39.8945 34.2467 39.8668 34.2186Z" fill="#0A1825"/>
<path d="M47.9049 12.0905C47.8215 11.8394 47.2094 11.3928 45.7911 11.3928C44.2613 11.3928 43.8162 11.8672 43.7885 12.1184C43.7885 12.2021 43.6772 13.0951 43.6494 13.4578C43.6494 13.4578 43.6494 13.9042 43.6771 14.5739C43.705 15.0203 43.8162 15.2714 43.8718 15.8575C43.9274 16.4713 44.0944 16.862 44.4003 17.3643C44.5394 17.4479 44.6506 17.5317 44.7897 17.5597C45.346 17.6712 46.3195 17.6992 46.848 17.5597C47.1539 17.476 47.5433 16.9458 47.6267 16.4714C47.7379 15.8855 47.8492 15.4668 47.877 15.1042C47.9326 14.7415 47.9605 13.9322 47.9882 13.7089C48.0718 13.0951 47.9326 12.1463 47.9049 12.0905Z" fill="#F0EFEF"/>
<path d="M44.9844 46.5802C44.9844 46.5802 46.4587 47.222 50.1023 46.6639C50.1023 46.6639 49.0732 51.8541 49.5461 54.4491C49.5461 54.4491 50.0188 55.1188 53.5234 56.4023C53.5234 56.4023 55.0809 56.7931 55.0254 57.5745C55.0254 57.5745 55.0809 57.7419 53.1897 57.686C51.2985 57.6301 49.5182 57.2953 48.2666 57.2953C47.015 57.2953 45.6799 57.351 45.4575 56.9884C45.2072 56.6536 45.513 55.7885 45.8746 55.2861C46.2642 54.7561 46.1528 54.3652 46.1251 53.4167C46.0413 50.9332 44.15 48.3661 44.9844 46.5802Z" fill="#010101"/>
<path d="M44.6784 47.0547C44.4837 47.3338 44.7061 48.394 44.9843 49.4265C45.2625 50.4589 45.8745 51.0729 46.0135 52.775C46.1525 54.4492 46.1804 54.6725 45.7075 55.649C45.2346 56.6255 45.0956 57.5186 46.7365 57.5466C48.3775 57.5745 49.2676 57.5186 50.9364 57.7699C52.6054 58.021 53.1894 58.1047 54.1073 57.9652C55.0252 57.8258 55.2198 57.5186 54.8305 57.2397C54.441 56.9606 52.8278 56.6538 52.1325 56.0955C51.4649 55.5933 49.5736 54.7561 49.5459 54.5329C49.4625 53.7794 49.4346 51.0449 49.5736 50.1519C49.7128 49.2588 49.9074 47.9753 49.9631 47.6405C50.0188 47.3057 50.2968 46.9707 49.8239 47.0824C49.3512 47.1939 47.5711 47.4451 46.2361 47.3614C44.901 47.2779 44.762 46.9709 44.6784 47.0547Z" fill="#8AC640"/>
<path opacity="0.3" d="M45.6242 55.6771C46.0969 55.9003 46.7924 56.0678 47.3208 56.0678C47.3208 56.0678 47.126 56.9887 47.432 57.5467C47.7379 58.1048 45.2069 57.77 45.2069 57.77L45.0957 55.7888L45.6242 55.6771ZM52.9948 58.0769C53.4398 57.9373 53.7458 57.435 53.3842 56.9608C52.9948 56.4863 52.6611 56.4026 53.1617 56.3748C53.6624 56.3469 55.4981 57.463 55.4981 57.463L54.5523 58.328L52.9948 58.0769ZM44.595 48.1428C45.2347 48.3661 46.2082 48.4219 47.0427 48.394C47.877 48.3661 49.1286 48.2544 49.9354 47.9754C50.7419 47.6964 50.4081 48.2823 50.4081 48.2823L49.9631 48.701C49.9631 48.701 48.9062 49.1195 47.1818 49.0917C45.1515 49.0637 44.5394 48.8406 44.5394 48.8406L44.595 48.1428ZM44.6506 49.5382C45.2905 49.7615 46.2638 49.8172 47.0983 49.7893C47.9326 49.7615 49.0452 49.7615 49.8518 49.4544C50.1855 49.3429 49.991 49.8172 49.991 49.8172L49.8518 50.0683C49.8518 50.0683 48.767 50.459 47.0704 50.431C45.04 50.4031 44.6784 50.2356 44.6784 50.2356L44.6506 49.5382Z" fill="#010101"/>
<path d="M42.8149 29.9774C42.8149 30.1727 44.9844 31.2609 46.1804 31.4842C47.3764 31.7073 49.8797 31.4842 50.269 31.4005L50.2133 31.7912C50.2133 31.7912 47.2373 32.2376 44.9566 31.6238C42.6758 31.0099 42.9262 30.8703 42.9262 30.8703L42.8149 29.9774Z" fill="#010101"/>
<path d="M38.17 53.7796C38.5037 53.9471 39.6998 54.254 40.4785 54.0866C40.5897 54.0586 40.4785 52.1611 40.7845 51.2961C41.2296 50.0962 41.9527 49.1195 42.2863 46.999C41.1181 46.8873 39.7832 46.5803 39.0877 46.357C38.1978 49.0917 38.5039 51.4356 38.17 53.7796ZM40.0336 55.5376C40.2284 55.5934 40.3674 55.8166 40.4231 55.6772C40.5342 55.426 40.2284 54.9517 40.2005 54.6169V54.589C39.9502 54.3658 38.2536 54.3378 38.3648 54.4494C38.1701 54.8121 37.8642 54.7564 37.7531 55.4819C37.6975 55.8445 38.1425 55.5376 38.5596 55.5097C37.8087 56.0119 36.9465 56.6539 36.8073 57.2119C36.6405 57.9932 36.9186 58.2165 37.7531 58.6351C38.4763 58.8025 39.3385 58.8305 40.0059 58.8025C40.757 58.6629 40.8961 58.3003 40.6735 57.7979C40.3395 57.0445 40.1171 56.0678 40.0336 55.5376Z" fill="#F0EFEF"/>
<path d="M40.3395 19.2899C41.2574 19.82 42.5369 19.6806 43.0096 19.6526C43.1209 19.6526 44.2336 19.4573 44.2891 19.4851C44.4003 19.513 44.4003 19.5967 44.4003 19.5967C44.4003 19.5967 43.9831 19.8199 43.0375 19.8757C42.1475 19.9314 41.0905 19.8757 40.5065 19.5967C39.8111 19.2899 40.3395 19.2899 40.3395 19.2899ZM49.7963 19.82C49.9631 19.9315 51.0479 20.3502 51.5208 20.8524C51.9379 21.299 51.7155 21.2711 51.6319 21.1594C51.5208 21.0198 50.6584 20.4339 50.3247 20.2944C49.991 20.155 49.5737 19.9037 49.5737 19.848C49.5737 19.7922 49.7963 19.82 49.7963 19.82Z" fill="#010101"/>
<path d="M40.2004 31.4003C41.007 31.3445 41.8414 31.5398 42.3699 32.0978C42.6481 32.3769 43.0931 32.6838 43.0375 32.9628C43.0375 33.0465 42.8705 33.2698 42.7316 33.4372C42.6482 33.5488 42.3979 33.7999 42.3143 33.8837C42.2032 33.9674 41.8137 34.2744 41.7303 34.3302C41.6469 34.3861 41.5356 34.5257 41.4521 34.5535C41.1741 34.6931 40.8681 34.5814 40.59 34.442C40.3119 34.3024 40.6457 34.2744 40.3397 34.0513C39.5888 33.5211 39.1715 33.1582 39.4775 32.1258C39.5052 31.9304 39.8111 31.7071 40.2004 31.4003Z" fill="#F0EFEF"/>
<path opacity="0.4" d="M33.108 25.0102C30.6048 26.0148 24.2353 29.196 22.4275 30.1727C23.9295 31.1214 24.6248 33.4095 24.8474 35.7255C24.8751 35.9488 24.9029 36.1442 24.9308 36.3673C24.9585 36.5627 24.9864 36.7022 25.0141 36.786C25.0141 36.8139 25.0141 36.8697 25.0419 36.8975C26.683 32.405 32.5516 27.6612 32.7741 27.2985C32.8853 27.1311 32.635 26.4055 33.0244 25.7081C33.5252 24.8149 34.4988 24.4242 33.108 25.0102ZM39.0601 46.078C40.3395 43.5109 40.3673 41.0552 40.3395 38.181C40.3395 36.9811 41.2017 35.2789 40.7568 35.7533C39.0878 37.6228 34.8881 41.1389 31.8564 41.3341C36.1119 41.1947 37.7806 43.3433 39.0601 46.078Z" fill="#010101"/>
<path d="M19.9799 32.5444C21.5652 31.4003 29.7703 27.0195 31.7451 26.4054C33.7198 25.7636 33.1079 25.0101 33.1079 25.0101C33.1079 25.0101 25.0975 28.4702 20.3136 31.4561" fill="#010101"/>
<path opacity="0.4" d="M43.3434 24.4801C42.7036 24.229 42.203 24.9825 42.3699 25.708C42.5369 26.4335 44.0388 27.2426 43.9553 29.8937C43.8997 32.0702 43.4268 32.963 43.4268 32.963L42.3699 31.6238C42.3699 31.6238 42.203 28.61 41.8414 28.1635C41.48 27.7171 40.3395 26.9078 39.8945 26.4893C39.4495 26.0706 40.3951 25.5127 40.3395 24.7312C40.2839 23.9779 40.8124 22.4711 40.8124 22.4711L43.3434 24.4801ZM47.2096 36.3673C47.154 38.46 47.6269 41.5575 47.8215 43.0365C48.0162 44.5154 48.2665 44.627 47.8215 45.2968C47.3764 45.9386 46.7924 46.999 46.7924 46.999L44.8732 46.8314C44.8732 46.8314 46.403 44.8781 46.4863 44.5154C46.5697 44.1527 45.7075 41.3902 45.7075 41.3902L47.2096 36.3673ZM43.5104 16.8344C43.8998 17.6992 44.3726 18.09 45.1235 18.3412C45.5685 18.5086 47.3207 18.7319 48.0162 17.9505C48.3221 17.5877 48.1273 16.6111 48.1273 16.6111L46.542 17.8946L44.4003 17.504L44.15 16.8622L43.5104 16.8344Z" fill="#010101"/>
<path d="M43.6771 18.7597C44.4003 19.2341 46.2082 19.6806 46.7088 19.7643C47.2094 19.8758 48.016 19.2341 48.4055 19.0667C48.8228 18.8714 49.546 18.7597 50.3803 19.5132C50.4637 19.5969 50.1856 19.9597 50.1856 19.9597C50.1577 19.9317 49.9908 19.9317 49.7683 19.8201C49.5458 19.7085 49.3511 19.6247 49.0174 19.6527C47.6266 19.8201 47.4041 20.2945 46.1804 20.0153C44.9566 19.7361 44.6506 19.5131 43.4547 19.5688" fill="#8AC640"/>
<path d="M43.6771 18.7597C44.4003 19.2341 46.2082 19.6806 46.7088 19.7643C47.2094 19.8758 48.016 19.2341 48.4055 19.0667C48.8228 18.8714 49.546 18.7597 50.3803 19.5132C50.4637 19.5969 50.1856 19.9597 50.1856 19.9597C50.1577 19.9317 49.9908 19.9317 49.7683 19.8201C49.5458 19.7085 49.3511 19.6247 49.0174 19.6527C47.6266 19.8201 47.4041 20.2945 46.1804 20.0153C44.9566 19.7361 44.6506 19.5131 43.4547 19.5688" stroke="#010101" stroke-miterlimit="10" stroke-linejoin="round"/>
<path d="M43.4268 18.8434C44.3447 19.2341 46.1248 19.6526 46.6254 19.7643C47.126 19.8759 47.9326 19.3736 48.322 19.1224C49.0175 18.676 49.9074 19.0387 50.3247 19.5132C50.6027 19.82 50.7141 20.0154 50.7141 20.0991C50.7141 20.2106 50.3804 20.0991 50.3804 20.0991C50.1857 20.0154 49.9631 19.9876 49.7964 19.8758C49.5738 19.7643 49.3512 19.5969 49.0176 19.6247C47.6268 19.7922 47.3487 20.2665 46.1528 19.9874C44.9568 19.7084 44.6508 19.4573 43.3715 19.5408" fill="#8AC640"/>
<path d="M39.1157 44.9059C39.0602 44.8501 39.1713 44.7944 39.1157 44.7944C38.7543 44.7944 38.2535 44.5153 37.9753 44.1246C36.7793 42.3946 35.027 41.2506 31.8563 41.3343C27.1 41.4458 25.2087 39.4926 24.8472 35.7535C24.6525 33.7165 24.0962 31.7353 22.9558 30.619L22.2882 31.0377C23.5676 32.1538 23.9849 33.9676 24.263 36.4511C24.7081 40.1902 27.7119 41.9203 31.2165 41.9761C34.8601 42.0319 36.1673 42.7853 37.5301 44.6271C37.9751 45.213 38.4758 45.4084 38.8652 45.4921L39.1157 44.9059Z" fill="#010101"/>
<path opacity="0.4" d="M52.0213 26.9635C52.1048 27.382 52.3272 28.1913 52.7722 28.5818C52.9671 28.7772 52.9948 28.833 52.8279 28.833C52.6609 28.833 51.4372 28.7772 51.4372 28.7772L51.1034 28.1913L52.0213 26.9635Z" fill="#010101"/>
</g>
<defs>
<clipPath id="clip0">
<rect width="70" height="70" rx="10" fill="white"/>
</clipPath>
</defs>
</svg>
