<svg width="70" height="70" viewBox="0 0 70 70" fill="none" xmlns="http://www.w3.org/2000/svg">
<g clip-path="url(#clip0)">
<rect width="70" height="70" rx="10" fill="#5A1A13"/>
<path d="M94.8573 -15.5184C94.8573 -15.5184 68.4787 -2.95593 73.1606 28.1212C78.4135 62.967 47.9525 77.9223 27.1408 69.308C6.32911 60.6639 7.78508 28.6895 -31.7828 27.7024C-72.2071 26.7154 -80.7145 -13.5443 -80.7145 -13.5443" stroke="white" stroke-opacity="0.2" stroke-width="2" stroke-miterlimit="10"/>
<path d="M64.3677 -24.8806C64.3677 -24.8806 52.9484 1.68004 57.0308 28.0911C61.1418 54.5021 42.671 57.6128 35.3341 54.5021C20.0894 48.1013 17.1489 13.8237 -7.4597 11.6103C-25.959 9.93536 -50.8531 23.1857 -64.0424 -6.87439" stroke="white" stroke-opacity="0.2" stroke-width="2" stroke-miterlimit="10"/>
<path d="M52.0634 -13.0358C52.0634 -13.0358 56.1743 14.0931 37.9891 9.24758C17.1489 3.68422 17.4629 -9.35679 -8.91565 2.96636C-18.308 7.36322 -56.1059 8.64937 -48.4835 -15.5184" stroke="white" stroke-opacity="0.2" stroke-width="2" stroke-miterlimit="10"/>
<path d="M38.8741 45.1403C43.2415 45.1403 46.782 39.6766 46.782 32.9368C46.782 26.197 43.2415 20.7333 38.8741 20.7333C34.5067 20.7333 30.9663 26.197 30.9663 32.9368C30.9663 39.6766 34.5067 45.1403 38.8741 45.1403Z" stroke="white" stroke-opacity="0.2" stroke-width="2" stroke-miterlimit="10"/>
<g filter="url(#filter0_d)">
<path fill-rule="evenodd" clip-rule="evenodd" d="M36.1792 50.3397C32.7238 50.3397 30.0636 49.8102 28.7793 49.4988C27.9078 49.2808 27.2045 49.0628 26.6694 48.8292L28.3818 51.8035L29.0545 61.1002C29.0545 62.1435 32.3111 62.9843 36.3168 62.9843C40.3226 62.9843 43.5791 62.1435 43.5791 61.1002L44.1143 51.6945L45.7349 48.8136C45.1997 49.0472 44.4812 49.2652 43.5945 49.4832C42.3101 49.8102 39.6345 50.3397 36.1792 50.3397ZM45.7808 20.0828C43.2428 20.4409 39.8792 20.6433 36.3168 20.6433C32.7545 20.6433 29.3908 20.4409 26.8529 20.0828C25.5992 19.9115 24.6054 19.6935 23.9021 19.4599C23.7339 19.3976 23.4434 19.3042 23.1835 19.1484L24.7582 33.8642C24.8347 33.6151 24.9111 33.3503 25.0029 33.1012C25.1863 32.5873 25.4004 32.0734 25.645 31.5907C25.8896 31.0923 26.1496 30.6252 26.4401 30.1891C26.7305 29.7532 27.021 29.3483 27.3421 28.9745C27.6632 28.6008 27.9995 28.2893 28.3359 28.0246C28.6723 27.7598 29.0086 27.5574 29.3603 27.4017C29.7119 27.246 30.0483 27.1838 30.3846 27.1838C30.7669 27.1838 31.1491 27.2927 31.516 27.5108C31.883 27.7288 32.2194 28.0713 32.5404 28.5697C32.6169 28.6786 32.6627 28.7877 32.678 28.8967C32.6933 29.0056 32.7086 29.1147 32.7086 29.2081C32.7086 29.4417 32.6474 29.6286 32.5404 29.7532C32.4334 29.8933 32.2958 29.9556 32.1581 29.9556C32.0206 29.9556 31.8982 29.8778 31.776 29.7376C31.6536 29.5974 31.5313 29.3794 31.3784 29.0991C31.2408 28.8499 31.0879 28.6786 30.9198 28.5541C30.7516 28.4451 30.5834 28.3828 30.3846 28.3828C30.0789 28.3828 29.7578 28.5074 29.4214 28.7566C29.0851 29.0056 28.7487 29.3483 28.4123 29.7532C28.076 30.1736 27.7549 30.6407 27.4491 31.1858C27.1434 31.7153 26.8681 32.2758 26.6388 32.8365C26.4095 33.397 26.2107 33.9577 26.0731 34.5027C25.9355 35.0477 25.8591 35.5305 25.8591 35.9664C25.8591 36.1066 25.8744 36.2624 25.8896 36.4181C25.9049 36.5738 25.9508 36.714 25.9967 36.8386C26.0425 36.9631 26.119 37.0721 26.2107 37.1499C26.3024 37.2278 26.4248 37.2745 26.5624 37.2745C26.7153 37.2745 26.8987 37.2278 27.0975 37.1188C27.2962 37.0098 27.5103 36.8697 27.7243 36.6983C27.9384 36.5271 28.1524 36.3247 28.3818 36.1066C28.5958 35.8886 28.8099 35.6551 28.9933 35.437C29.1768 35.2035 29.345 34.9854 29.4979 34.783C29.6508 34.5805 29.7578 34.3936 29.8189 34.238L30.4152 32.416C30.4917 32.2135 30.5834 32.0734 30.7057 31.9956C30.828 31.9177 30.9503 31.871 31.0727 31.871C31.1338 31.871 31.195 31.8865 31.2561 31.9021C31.3173 31.9177 31.3631 31.9488 31.4243 31.9956C31.4702 32.0423 31.516 32.089 31.5313 32.1668C31.5619 32.2291 31.5772 32.3226 31.5772 32.416C31.5772 32.6652 31.5619 32.8988 31.516 33.1168C31.4702 33.3347 31.4243 33.5528 31.3479 33.7553C31.2867 33.9577 31.2103 34.1757 31.1185 34.3781C31.0421 34.5805 30.9503 34.7986 30.8739 35.0321C30.8586 35.0633 30.828 35.1412 30.7822 35.2813C30.7363 35.4215 30.6751 35.5928 30.614 35.7952C30.5528 35.9976 30.4764 36.2312 30.3999 36.4959C30.3235 36.7451 30.247 37.0098 30.1706 37.2745C30.0941 37.5393 30.0177 37.804 29.9413 38.0532C29.8648 38.3023 29.8037 38.5359 29.7425 38.7539C29.6813 38.9564 29.6355 39.1276 29.6049 39.2678C29.559 39.408 29.5437 39.4858 29.5285 39.5169C29.5132 39.5948 29.4673 39.6883 29.4214 39.7973C29.3756 39.8907 29.3144 39.9997 29.2532 40.0776C29.1921 40.171 29.1156 40.2488 29.0392 40.2956C28.9627 40.3579 28.8863 40.389 28.7946 40.389C28.657 40.389 28.5652 40.3423 28.4888 40.2488C28.4276 40.1554 28.3971 39.9841 28.3971 39.735V39.626C28.3971 39.5948 28.3971 39.5481 28.3971 39.5169C28.3971 39.4391 28.4276 39.2834 28.4888 39.0498C28.5499 38.8162 28.6264 38.5671 28.7028 38.2711C28.7793 37.9909 28.871 37.6794 28.978 37.3836C29.0698 37.0721 29.1615 36.8074 29.238 36.5582C29.0086 36.8229 28.764 37.0721 28.5041 37.3368C28.2442 37.586 27.969 37.8196 27.6938 38.0221C27.4186 38.2245 27.1281 38.3957 26.8529 38.5203C26.5776 38.6449 26.3024 38.7072 26.0425 38.7072C25.7367 38.7072 25.4921 38.6449 25.2628 38.5048C25.2169 38.4736 25.1863 38.458 25.1558 38.4269L26.0272 47.7547C26.2566 48.3308 30.5375 49.7635 36.1792 49.7635C41.8209 49.7635 46.1018 48.3308 46.3312 47.7547L47.5849 36.6672C47.4779 36.7606 47.3861 36.8541 47.2791 36.9475C46.9122 37.2901 46.5758 37.586 46.2548 37.8196C45.9336 38.0687 45.6279 38.2556 45.3221 38.3957C45.0163 38.5359 44.6953 38.5982 44.3436 38.5982C44.0225 38.5982 43.7627 38.5203 43.5945 38.3802C43.411 38.24 43.3345 38.0376 43.3345 37.7884V37.7261C43.3345 37.7106 43.3345 37.6794 43.3345 37.6638C43.3498 37.5082 43.411 37.3368 43.5332 37.1344C43.6556 36.932 43.7932 36.7295 43.9461 36.5115C44.1143 36.2935 44.2824 36.0755 44.4659 35.8575C44.6494 35.6394 44.8176 35.4214 44.9704 35.219C45.1234 35.0166 45.261 34.8453 45.3527 34.674C45.4597 34.5027 45.5055 34.3781 45.5055 34.2691C45.5055 34.2068 45.4903 34.1601 45.4444 34.1289C45.3985 34.0978 45.3374 34.0823 45.2304 34.0823C45.0622 34.0823 44.8787 34.1289 44.6953 34.2224C44.5118 34.3158 44.3283 34.4404 44.1602 34.5805C43.9766 34.7363 43.8085 34.9075 43.6403 35.11C43.4721 35.3124 43.3192 35.5148 43.1663 35.7173C43.0134 35.9354 42.8912 36.1378 42.7688 36.3558C42.6465 36.5738 42.5395 36.7606 42.463 36.9475C42.4324 37.0098 42.4019 37.0876 42.356 37.1811C42.3101 37.2901 42.2642 37.3991 42.2031 37.5237C42.142 37.6483 42.0808 37.7884 42.0197 37.9286C41.9585 38.0687 41.8973 38.1933 41.8515 38.3179C41.8056 38.4425 41.7598 38.5515 41.7139 38.6449C41.668 38.7383 41.6374 38.8006 41.6222 38.8473C41.6068 38.8941 41.561 38.9875 41.5151 39.1121C41.4692 39.2367 41.4081 39.3923 41.3469 39.5637C41.2858 39.735 41.2093 39.9218 41.1482 40.1087C41.0717 40.2956 41.0106 40.4824 40.9494 40.6538C40.8883 40.825 40.8271 40.9808 40.7812 41.1053C40.7353 41.2299 40.7048 41.3234 40.6895 41.3701C40.6436 41.5102 40.5977 41.6348 40.5366 41.7438C40.4754 41.8684 40.4143 41.9618 40.3378 42.0552C40.2614 42.1486 40.1696 42.2109 40.0779 42.2732C39.9862 42.3355 39.8792 42.3511 39.7569 42.3511C39.604 42.3511 39.4817 42.32 39.3746 42.2421C39.2676 42.1643 39.2218 42.0241 39.2218 41.8061C39.2218 41.6971 39.237 41.6036 39.2676 41.4946C39.2982 41.3857 39.3287 41.2766 39.3594 41.1676C39.4052 41.0586 39.4358 40.9651 39.4817 40.8562C39.5275 40.7627 39.5581 40.6538 39.5887 40.5603C39.818 40.0464 40.0626 39.5326 40.292 39.0031C40.5366 38.4892 40.7659 37.9753 40.98 37.4614C41.0259 37.3524 41.0717 37.2434 41.1176 37.1499C41.1023 37.1656 41.087 37.1811 41.0717 37.1967C40.7965 37.477 40.5213 37.7106 40.2461 37.9286C39.9709 38.131 39.6957 38.3023 39.4205 38.4269C39.1453 38.5515 38.8854 38.6138 38.6255 38.6138C38.4573 38.6138 38.3044 38.5826 38.1821 38.5359C38.0597 38.4736 37.968 38.3957 37.9069 38.3023C37.8304 38.2088 37.7846 38.0843 37.754 37.9598C37.7387 37.913 37.7387 37.8663 37.7234 37.8196C37.647 37.8818 37.5705 37.9441 37.494 37.9909C37.2341 38.1777 36.9742 38.3334 36.7143 38.458C36.4544 38.5671 36.2251 38.6294 36.0263 38.6294C35.8275 38.6294 35.6593 38.5671 35.5218 38.4269C35.3994 38.2868 35.3231 38.0532 35.3231 37.7106C35.3231 37.477 35.3536 37.1967 35.43 36.8852C35.3231 37.0876 35.1854 37.2901 35.0173 37.4925C34.8491 37.695 34.6656 37.8818 34.4516 38.0532C34.2375 38.2245 33.9928 38.3646 33.7329 38.4736C33.473 38.5826 33.1826 38.6294 32.8614 38.6294C32.7238 38.6294 32.5863 38.6138 32.4487 38.5826C32.3111 38.5515 32.204 38.4892 32.1123 38.3957C32.0206 38.3023 31.9288 38.1933 31.8677 38.0376C31.8065 37.8975 31.776 37.7106 31.776 37.477C31.776 37.477 31.7912 37.3991 31.8065 37.2434C31.8219 37.0876 31.883 36.8541 31.9747 36.5271C32.0664 36.2001 32.204 35.7796 32.4028 35.2501C32.6015 34.7207 32.8614 34.0978 33.2131 33.3503C33.3049 33.1479 33.4119 33.0077 33.5189 32.9299C33.6412 32.852 33.7635 32.8053 33.9011 32.8053C33.9623 32.8053 34.0235 32.8208 34.0846 32.8365C34.1458 32.852 34.2069 32.8831 34.2681 32.9143C34.3292 32.9454 34.3751 33.0077 34.4057 33.0545C34.4362 33.1168 34.4516 33.1791 34.4516 33.2569C34.4516 33.3036 34.4516 33.3503 34.4362 33.397C34.421 33.4905 34.3751 33.5995 34.2986 33.7396C34.2222 33.8798 34.1458 34.0511 34.0541 34.2224C33.9623 34.4093 33.8553 34.5961 33.7483 34.8142C33.6412 35.0321 33.5495 35.2501 33.4577 35.4682C33.366 35.7017 33.2896 35.9198 33.2284 36.1689C33.1672 36.4025 33.1214 36.6361 33.1214 36.8541C33.1214 36.9475 33.1367 37.0254 33.1826 37.1033C33.2284 37.1811 33.2896 37.2122 33.3966 37.2122C33.6718 37.2122 33.947 37.1188 34.1916 36.932C34.4516 36.7451 34.6809 36.5115 34.8949 36.2312C35.109 35.9509 35.3077 35.6551 35.4759 35.3436C35.6441 35.0321 35.797 34.7363 35.904 34.4716C35.9805 34.3003 36.0569 34.1134 36.1181 33.9109C36.1792 33.7085 36.2404 33.5216 36.3168 33.3503C36.3932 33.1791 36.4697 33.0389 36.5614 32.9299C36.6532 32.8208 36.7755 32.7586 36.9131 32.7586C37.066 32.7586 37.1883 32.8208 37.28 32.9299C37.3718 33.0545 37.4177 33.1946 37.4177 33.3503C37.4177 33.4438 37.3871 33.5684 37.3259 33.7396C37.2647 33.8954 37.1883 34.0823 37.1119 34.3003C37.0201 34.5027 36.9283 34.7363 36.8214 34.9698C36.7143 35.2035 36.6226 35.4526 36.5308 35.7017C36.4391 35.9509 36.3626 36.1845 36.3168 36.4181C36.2557 36.6517 36.2251 36.8697 36.2251 37.0721C36.2251 37.259 36.3168 37.3524 36.5003 37.3524C36.6379 37.3524 36.7908 37.3057 36.9896 37.2122C37.1883 37.1188 37.3871 36.9943 37.6164 36.8229C37.6775 36.7763 37.7234 36.7295 37.7846 36.6983C37.8457 36.4493 37.9222 36.2156 37.9986 35.9976C38.1515 35.5928 38.3044 35.1878 38.4573 34.7985C38.6102 34.3936 38.7478 34.0355 38.8854 33.7085L40.8271 28.7098C40.9035 28.5074 41.0106 28.3672 41.1329 28.2893C41.2705 28.2115 41.3928 28.1648 41.5304 28.1648C41.668 28.1648 41.7903 28.2115 41.8973 28.2893C42.0043 28.3828 42.0655 28.5229 42.0655 28.7098C42.0655 28.8032 42.0502 28.8967 42.0043 29.0056C41.9738 29.1147 41.928 29.2237 41.8667 29.3327C41.7598 29.5818 41.6374 29.8778 41.4845 30.2203C41.3316 30.5784 41.1788 30.9522 41.0106 31.3726C40.8424 31.7931 40.6742 32.2135 40.4908 32.6652C40.3073 33.1168 40.1391 33.5528 39.9709 33.9732C39.8027 34.3936 39.6499 34.7986 39.4969 35.1723C39.3441 35.546 39.2218 35.8886 39.1147 36.1533C39.0688 36.2779 39.023 36.4181 38.9771 36.5738C38.9312 36.7295 38.916 36.8697 38.916 36.9943C38.916 37.0721 38.9312 37.1344 38.9618 37.1811C38.9924 37.2278 39.0383 37.2434 39.1147 37.2434C39.2064 37.2434 39.3135 37.2122 39.4511 37.1499C39.5887 37.0876 39.7263 36.9943 39.8945 36.9008C40.0474 36.7918 40.2155 36.6672 40.3837 36.5426C40.5519 36.4025 40.7201 36.2624 40.8883 36.1222C41.0565 35.9821 41.2093 35.8263 41.3622 35.6862C41.5151 35.546 41.6527 35.4059 41.775 35.2813C41.8056 35.2501 41.8362 35.2346 41.8667 35.219C41.9432 35.001 42.0043 34.783 42.0655 34.565C42.0961 34.4716 42.142 34.347 42.2031 34.1757C42.2642 34.0043 42.3255 33.8331 42.4019 33.6773C42.4783 33.5061 42.57 33.3659 42.6618 33.2413C42.7535 33.1168 42.8606 33.0545 42.9675 33.0545C43.1357 33.0545 43.2581 33.1012 43.3345 33.1791C43.411 33.2569 43.4569 33.3815 43.4569 33.5372C43.4569 33.5684 43.4569 33.6151 43.4415 33.6773C43.4263 33.7396 43.4263 33.8175 43.411 33.8954C43.3957 33.9732 43.3804 34.0355 43.3651 34.1134C43.3498 34.1757 43.3345 34.2224 43.3192 34.2535C43.4721 34.0823 43.6556 33.9109 43.839 33.7241C44.0225 33.5528 44.2213 33.397 44.4047 33.2569C44.6035 33.1168 44.8022 33.0077 45.0163 32.9143C45.2151 32.8208 45.4292 32.7897 45.6279 32.7897C45.7654 32.7897 45.9031 32.8053 46.056 32.852C46.1936 32.8988 46.3159 32.9611 46.4229 33.0389C46.53 33.1168 46.6217 33.2258 46.6828 33.3347C46.744 33.4593 46.7899 33.5995 46.7899 33.7553C46.7899 33.9732 46.744 34.1912 46.6369 34.4404C46.53 34.674 46.4076 34.9231 46.2394 35.1723C46.0866 35.4215 45.9031 35.6551 45.7196 35.8886C45.5361 36.1222 45.3679 36.3247 45.1997 36.5115C45.0316 36.6983 44.9093 36.8541 44.8022 36.9943C44.6953 37.1188 44.6341 37.2122 44.6341 37.259C44.6341 37.3213 44.6494 37.368 44.6953 37.4147C44.7411 37.4459 44.8022 37.477 44.894 37.477C44.9704 37.477 45.0775 37.4303 45.2151 37.3524C45.3527 37.2745 45.5514 37.1188 45.8113 36.9164C46.0712 36.714 46.3924 36.4336 46.7745 36.091C47.0498 35.8575 47.3556 35.5771 47.7072 35.2501L49.4502 19.1484C49.1749 19.3042 48.8845 19.3976 48.7163 19.4599C48.0283 19.6935 47.0344 19.9115 45.7808 20.0828ZM36.3015 16.2831C28.9628 16.2831 23 17.1241 23 18.1518C23 19.1796 28.9628 20.0205 36.3015 20.0205C43.6403 20.0205 49.603 19.1796 49.603 18.1518C49.603 17.1241 43.6403 16.2831 36.3015 16.2831ZM41.6068 18.6968C41.6068 18.946 40.9035 19.1328 40.032 19.1328C39.1606 19.1328 38.4573 18.9304 38.4573 18.6968C38.4573 18.4477 39.1606 18.2608 40.032 18.2608C40.9035 18.2608 41.6068 18.4477 41.6068 18.6968Z" fill="white"/>
<path fill-rule="evenodd" clip-rule="evenodd" d="M38.7784 18.51C38.7631 18.5255 38.7631 18.5411 38.7631 18.5567C38.7631 18.7124 39.3288 18.837 40.0321 18.837C40.7354 18.837 41.3011 18.7124 41.3011 18.5567L42.9676 11.6893L49.5725 4.58836C49.7101 4.43264 49.4349 3.93432 48.9609 3.4983C48.4869 3.07785 47.9824 2.92213 47.8295 3.09342L40.7812 10.6304L38.7784 18.51Z" fill="white"/>
</g>
</g>
<defs>
<filter id="filter0_d" x="8" y="-8" width="57" height="90" filterUnits="userSpaceOnUse" color-interpolation-filters="sRGB">
<feFlood flood-opacity="0" result="BackgroundImageFix"/>
<feColorMatrix in="SourceAlpha" type="matrix" values="0 0 0 0 0 0 0 0 0 0 0 0 0 0 0 0 0 0 127 0"/>
<feOffset dy="4"/>
<feGaussianBlur stdDeviation="7.5"/>
<feColorMatrix type="matrix" values="0 0 0 0 0 0 0 0 0 0 0 0 0 0 0 0 0 0 0.25 0"/>
<feBlend mode="normal" in2="BackgroundImageFix" result="effect1_dropShadow"/>
<feBlend mode="normal" in="SourceGraphic" in2="effect1_dropShadow" result="shape"/>
</filter>
<clipPath id="clip0">
<rect width="70" height="70" rx="10" fill="white"/>
</clipPath>
</defs>
</svg>
