<svg width="70" height="70" viewBox="0 0 70 70" fill="none" xmlns="http://www.w3.org/2000/svg">
<g clip-path="url(#clip0)">
<rect width="70" height="70" rx="10" fill="#501800"/>
<path d="M94.8573 -15.5184C94.8573 -15.5184 68.4787 -2.95593 73.1606 28.1212C78.4135 62.967 47.9525 77.9223 27.1408 69.308C6.32911 60.6639 7.78508 28.6895 -31.7828 27.7024C-72.2071 26.7154 -80.7145 -13.5443 -80.7145 -13.5443" stroke="white" stroke-opacity="0.2" stroke-width="2" stroke-miterlimit="10"/>
<path d="M64.3677 -24.8806C64.3677 -24.8806 52.9484 1.68004 57.0308 28.0911C61.1418 54.5021 42.671 57.6128 35.3341 54.5021C20.0894 48.1013 17.1489 13.8237 -7.4597 11.6103C-25.959 9.93536 -50.8531 23.1857 -64.0424 -6.87439" stroke="white" stroke-opacity="0.2" stroke-width="2" stroke-miterlimit="10"/>
<path d="M52.0634 -13.0358C52.0634 -13.0358 56.1743 14.0931 37.9891 9.24758C17.1489 3.68422 17.4629 -9.35679 -8.91565 2.96636C-18.308 7.36322 -56.1059 8.64937 -48.4835 -15.5184" stroke="white" stroke-opacity="0.2" stroke-width="2" stroke-miterlimit="10"/>
<path d="M38.8741 45.1403C43.2415 45.1403 46.782 39.6766 46.782 32.9368C46.782 26.197 43.2415 20.7333 38.8741 20.7333C34.5067 20.7333 30.9663 26.197 30.9663 32.9368C30.9663 39.6766 34.5067 45.1403 38.8741 45.1403Z" stroke="white" stroke-opacity="0.2" stroke-width="2" stroke-miterlimit="10"/>
<g filter="url(#filter0_d)">
<path d="M17.6822 55.0018L13.7177 10H57.2823L53.3134 54.9947L35.4733 60L17.6822 55.0018Z" fill="#E44D26"/>
<path d="M35.5 56.1741L49.9156 52.1293L53.3075 13.6796H35.5V56.1741Z" fill="#F16529"/>
<path d="M35.5 30.3701H28.2833L27.7848 24.7183H35.5V19.199H21.8242L21.9549 20.6797L23.2953 35.8893H35.5V30.3701ZM35.5 44.7042L35.476 44.7108L29.4021 43.0509L29.0138 38.6492H23.5391L24.3033 47.3153L35.475 50.4538L35.5 50.4467V44.7042Z" fill="#EBEBEB"/>
<path d="M35.4812 30.3701V35.8893H42.1971L41.5639 43.0475L35.4812 44.7088V50.4509L46.6619 47.3153L46.7437 46.3825L48.0255 31.8523L48.1585 30.3701H46.689H35.4812ZM35.4812 19.199V24.7183H48.6549L48.7641 23.4777L49.0126 20.6797L49.1431 19.199H35.4812Z" fill="white"/>
</g>
</g>
<defs>
<filter id="filter0_d" x="-1.28235" y="-1" width="73.5647" height="80" filterUnits="userSpaceOnUse" color-interpolation-filters="sRGB">
<feFlood flood-opacity="0" result="BackgroundImageFix"/>
<feColorMatrix in="SourceAlpha" type="matrix" values="0 0 0 0 0 0 0 0 0 0 0 0 0 0 0 0 0 0 127 0"/>
<feOffset dy="4"/>
<feGaussianBlur stdDeviation="7.5"/>
<feColorMatrix type="matrix" values="0 0 0 0 0 0 0 0 0 0 0 0 0 0 0 0 0 0 0.25 0"/>
<feBlend mode="normal" in2="BackgroundImageFix" result="effect1_dropShadow"/>
<feBlend mode="normal" in="SourceGraphic" in2="effect1_dropShadow" result="shape"/>
</filter>
<clipPath id="clip0">
<rect width="70" height="70" rx="10" fill="white"/>
</clipPath>
</defs>
</svg>
