<svg width="70" height="70" viewBox="0 0 70 70" fill="none" xmlns="http://www.w3.org/2000/svg">
<g clip-path="url(#clip0)">
<rect width="70" height="70" rx="10" fill="#301F13"/>
<path d="M94.8573 -15.5184C94.8573 -15.5184 68.4787 -2.95593 73.1606 28.1212C78.4135 62.967 47.9525 77.9223 27.1408 69.308C6.32912 60.6639 7.78508 28.6895 -31.7828 27.7024C-72.2071 26.7154 -80.7145 -13.5443 -80.7145 -13.5443" stroke="white" stroke-opacity="0.2" stroke-width="2" stroke-miterlimit="10"/>
<path d="M64.3677 -24.8806C64.3677 -24.8806 52.9484 1.68004 57.0308 28.0911C61.1417 54.5021 42.671 57.6128 35.3341 54.5021C20.0894 48.1013 17.1489 13.8237 -7.45971 11.6103C-25.959 9.93536 -50.8531 23.1857 -64.0424 -6.87439" stroke="white" stroke-opacity="0.2" stroke-width="2" stroke-miterlimit="10"/>
<path d="M52.0634 -13.0358C52.0634 -13.0358 56.1744 14.0931 37.9891 9.24758C17.1489 3.68422 17.4629 -9.35679 -8.91564 2.96636C-18.308 7.36322 -56.1059 8.64937 -48.4835 -15.5184" stroke="white" stroke-opacity="0.2" stroke-width="2" stroke-miterlimit="10"/>
<path d="M38.8742 45.1403C43.2416 45.1403 46.782 39.6766 46.782 32.9368C46.782 26.197 43.2416 20.7333 38.8742 20.7333C34.5068 20.7333 30.9663 26.197 30.9663 32.9368C30.9663 39.6766 34.5068 45.1403 38.8742 45.1403Z" stroke="white" stroke-opacity="0.2" stroke-width="2" stroke-miterlimit="10"/>
<g clip-path="url(#clip1)">
<path d="M12.0833 12.0557H57.9168V55.9443H12.0833V12.0557Z" fill="url(#paint0_radial)"/>
<path d="M12.0833 12.0566H57.9168V55.9452H12.0833V12.0566ZM10 57.9961H60.0001V10.0058H10V57.9961ZM42.75 27.11C42.75 26.946 42.8125 26.8639 43.0001 26.8639H46.2709C46.4375 26.8639 46.5209 26.9254 46.5209 27.11V43.2914C46.5209 43.4553 46.4792 43.5375 46.2709 43.5375H43.0417C42.8334 43.5375 42.7709 43.4349 42.7709 43.2709V27.11H42.75ZM42.5209 22.4545C42.5209 21.142 43.4583 20.3627 44.6459 20.3627C45.9168 20.3627 46.7709 21.2035 46.7709 22.4545C46.7709 23.8081 45.8751 24.5464 44.6043 24.5464C43.3959 24.5465 42.5209 23.8081 42.5209 22.4545ZM33.1459 33.8574C32.5626 31.5809 31.1876 26.6178 30.6667 24.2183H30.625C30.1875 26.6178 29.0834 30.6785 28.2084 33.8574H33.1459ZM27.3542 37.1798L25.7083 43.3324C25.6667 43.4964 25.6042 43.5374 25.3959 43.5374H22.3334C22.1251 43.5374 22.0833 43.4759 22.1251 43.2298L28.0417 22.8441C28.1459 22.475 28.2084 22.1468 28.25 21.142C28.25 20.9984 28.3125 20.9369 28.4167 20.9369H32.7917C32.9375 20.9369 33 20.9779 33.0417 21.142L39.6667 43.2708C39.7083 43.4348 39.6667 43.5374 39.5 43.5374H36.0417C35.875 43.5374 35.7708 43.4964 35.7292 43.3529L34.0208 37.1798H27.3542Z" fill="#FF7F18"/>
</g>
</g>
<defs>
<radialGradient id="paint0_radial" cx="0" cy="0" r="1" gradientUnits="userSpaceOnUse" gradientTransform="translate(27.1786 21.8912) scale(34.8334 33.1994)">
<stop stop-color="#423325" stop-opacity="0.98"/>
<stop offset="1" stop-color="#1C0A00"/>
</radialGradient>
<clipPath id="clip0">
<rect width="70" height="70" rx="10" fill="white"/>
</clipPath>
<clipPath id="clip1">
<rect width="50" height="48" fill="white" transform="translate(10 10)"/>
</clipPath>
</defs>
</svg>
