<svg width="70" height="70" viewBox="0 0 70 70" fill="none" xmlns="http://www.w3.org/2000/svg">
<g clip-path="url(#clip0)">
<rect width="70" height="70" rx="10" fill="black"/>
<path d="M94.8573 -15.5184C94.8573 -15.5184 68.4787 -2.95593 73.1606 28.1212C78.4135 62.967 47.9525 77.9223 27.1408 69.308C6.32912 60.6639 7.78508 28.6895 -31.7828 27.7024C-72.2071 26.7154 -80.7145 -13.5443 -80.7145 -13.5443" stroke="white" stroke-opacity="0.15" stroke-width="2" stroke-miterlimit="10"/>
<path d="M64.3677 -24.8806C64.3677 -24.8806 52.9484 1.68004 57.0308 28.0911C61.1417 54.5021 42.671 57.6128 35.3341 54.5021C20.0894 48.1013 17.1489 13.8237 -7.45971 11.6103C-25.959 9.93536 -50.8531 23.1857 -64.0424 -6.87439" stroke="white" stroke-opacity="0.15" stroke-width="2" stroke-miterlimit="10"/>
<path d="M52.0634 -13.0358C52.0634 -13.0358 56.1744 14.0931 37.9891 9.24758C17.1489 3.68422 17.4629 -9.35679 -8.91564 2.96636C-18.308 7.36322 -56.1059 8.64937 -48.4835 -15.5184" stroke="white" stroke-opacity="0.15" stroke-width="2" stroke-miterlimit="10"/>
<path d="M38.8742 45.1403C43.2416 45.1403 46.782 39.6766 46.782 32.9368C46.782 26.197 43.2416 20.7333 38.8742 20.7333C34.5068 20.7333 30.9663 26.197 30.9663 32.9368C30.9663 39.6766 34.5068 45.1403 38.8742 45.1403Z" stroke="white" stroke-opacity="0.15" stroke-width="2" stroke-miterlimit="10"/>
<path d="M19.1575 27.6465H30.474V28.5656H20.1948V35.4827H29.861V36.4017H20.1948V43.996H30.5919V44.9151H19.1575V27.6465ZM31.4878 27.6465H32.6902L38.0184 35.2408L43.4645 27.6465L50.8721 18L38.7021 36.0389L44.9734 44.9151H43.7238L38.0184 36.837L32.2894 44.9151H31.0634L37.3818 36.0389L31.4878 27.6465ZM45.4213 28.5656V27.6465H58.3175V28.5656H52.3763V44.9151H51.3389V28.5656H45.4213ZM5 27.6465H6.29669L24.1773 54.9861L16.7881 44.9151L6.0845 28.9525L6.03735 44.9151H5V27.6465ZM58.2129 43.7186C58.001 43.7186 57.842 43.5509 57.842 43.334C57.842 43.1172 58.001 42.9494 58.2129 42.9494C58.4274 42.9494 58.5838 43.1172 58.5838 43.334C58.5838 43.5509 58.4274 43.7186 58.2129 43.7186ZM59.2323 42.7067H59.7873C59.7949 43.0139 60.0144 43.2204 60.3374 43.2204C60.6982 43.2204 60.9025 42.9984 60.9025 42.5828V39.9498H61.4677V42.5854C61.4677 43.334 61.0438 43.7651 60.3424 43.7651C59.6839 43.7651 59.2323 43.3469 59.2323 42.7067ZM62.207 42.6732H62.7671C62.815 43.0268 63.1531 43.2514 63.6401 43.2514C64.0942 43.2514 64.4273 43.0113 64.4273 42.6809C64.4273 42.397 64.2153 42.2266 63.7334 42.1104L63.2641 41.9943C62.6056 41.8368 62.3054 41.5115 62.3054 40.9643C62.3054 40.3009 62.8352 39.8594 63.63 39.8594C64.3692 39.8594 64.9092 40.3009 64.942 40.9281H64.3919C64.339 40.5848 64.0463 40.3706 63.6224 40.3706C63.1758 40.3706 62.8781 40.59 62.8781 40.9256C62.8781 41.1914 63.0698 41.3437 63.5442 41.4573L63.9454 41.558C64.6922 41.7361 65 42.0459 65 42.6061C65 43.3185 64.4601 43.7651 63.5972 43.7651C62.7898 43.7651 62.2473 43.3392 62.207 42.6732Z" fill="white"/>
</g>
<defs>
<clipPath id="clip0">
<rect width="70" height="70" rx="10" fill="white"/>
</clipPath>
</defs>
</svg>
