<svg width="70" height="70" viewBox="0 0 70 70" fill="none" xmlns="http://www.w3.org/2000/svg">
<g clip-path="url(#clip0)">
<rect width="70" height="70" rx="10" fill="#191732"/>
<path d="M94.8573 -15.5184C94.8573 -15.5184 68.4787 -2.95593 73.1606 28.1212C78.4135 62.967 47.9525 77.9223 27.1408 69.308C6.32912 60.6639 7.78508 28.6895 -31.7828 27.7024C-72.2071 26.7154 -80.7145 -13.5443 -80.7145 -13.5443" stroke="white" stroke-opacity="0.2" stroke-width="2" stroke-miterlimit="10"/>
<path d="M64.3677 -24.8806C64.3677 -24.8806 52.9484 1.68004 57.0308 28.0911C61.1417 54.5021 42.671 57.6128 35.3341 54.5021C20.0894 48.1013 17.1489 13.8237 -7.45971 11.6103C-25.959 9.93536 -50.8531 23.1857 -64.0424 -6.87439" stroke="white" stroke-opacity="0.2" stroke-width="2" stroke-miterlimit="10"/>
<path d="M52.0634 -13.0358C52.0634 -13.0358 56.1744 14.0931 37.9891 9.24758C17.1489 3.68422 17.4629 -9.35679 -8.91564 2.96636C-18.308 7.36322 -56.1059 8.64937 -48.4835 -15.5184" stroke="white" stroke-opacity="0.2" stroke-width="2" stroke-miterlimit="10"/>
<path d="M38.8742 45.1403C43.2416 45.1403 46.782 39.6766 46.782 32.9368C46.782 26.197 43.2416 20.7333 38.8742 20.7333C34.5068 20.7333 30.9663 26.197 30.9663 32.9368C30.9663 39.6766 34.5068 45.1403 38.8742 45.1403Z" stroke="white" stroke-opacity="0.2" stroke-width="2" stroke-miterlimit="10"/>
<g clip-path="url(#clip1)">
<path d="M13.0833 13.0557H58.9167V56.9443H13.0833V13.0557Z" fill="url(#paint0_radial)"/>
<path d="M13.0833 13.0563H58.9168V56.9448H13.0833V13.0563ZM11 58.9958H61.0001V11.0055H11V58.9958ZM44.7084 30.6938C43.0626 30.6938 42.5001 31.5141 42.5001 32.1909C42.5001 32.9292 42.8751 33.4419 45.0835 34.5699C48.3543 36.1286 49.3751 37.6257 49.3751 39.8201C49.3751 43.1015 46.8335 44.8652 43.3959 44.8652C41.5834 44.8652 40.0209 44.496 39.1251 43.9834C38.9793 43.9219 38.9584 43.8194 38.9584 43.6552V40.6404C38.9584 40.4354 39.0626 40.3738 39.2085 40.4764C40.521 41.3173 42.0209 41.6864 43.3959 41.6864C45.0418 41.6864 45.7293 41.0096 45.7293 40.0867C45.7293 39.3484 45.2501 38.6921 43.1459 37.6257C40.1875 36.2311 38.9584 34.816 38.9584 32.4575C38.9584 29.8119 41.0627 27.6175 44.7084 27.6175C46.5001 27.6175 47.7501 27.8841 48.4376 28.1917C48.6042 28.2943 48.6459 28.4583 48.6459 28.6018V31.4115C48.6459 31.5755 48.5418 31.6781 48.3334 31.6165C47.4167 31.0425 46.0626 30.6938 44.7084 30.6938ZM26.7917 33.1343C27.2709 33.1753 27.6459 33.1753 28.4792 33.1753C30.9168 33.1753 33.2084 32.3345 33.2084 29.0736C33.2084 26.4691 31.5626 25.1564 28.7918 25.1564C27.9585 25.1564 27.1667 25.1975 26.7917 25.218V33.1343ZM23.0834 22.2442C23.0834 22.1007 23.3752 21.998 23.5417 21.998C24.8751 21.9365 26.8543 21.8955 28.9168 21.8955C34.6876 21.8955 36.9375 25.0128 36.9375 28.9915C36.9375 34.2007 33.1042 36.4362 28.3959 36.4362C27.6043 36.4362 27.3335 36.3952 26.7709 36.3952V44.2705C26.7709 44.4345 26.7084 44.5166 26.5209 44.5166H23.3334C23.1668 44.5166 23.0834 44.455 23.0834 44.2705V22.2442H23.0834Z" fill="#31C5F0"/>
</g>
</g>
<defs>
<radialGradient id="paint0_radial" cx="0" cy="0" r="1" gradientUnits="userSpaceOnUse" gradientTransform="translate(28.1786 22.8912) scale(34.8333 33.1995)">
<stop stop-color="#34364E" stop-opacity="0.98"/>
<stop offset="1" stop-color="#0C0824"/>
</radialGradient>
<clipPath id="clip0">
<rect width="70" height="70" rx="10" fill="white"/>
</clipPath>
<clipPath id="clip1">
<rect width="50" height="48" fill="white" transform="translate(11 11)"/>
</clipPath>
</defs>
</svg>
