<svg width="70" height="70" viewBox="0 0 70 70" fill="none" xmlns="http://www.w3.org/2000/svg">
<g clip-path="url(#clip0)">
<rect width="70" height="70" rx="10" fill="#420041"/>
<path d="M94.8573 -15.5184C94.8573 -15.5184 68.4787 -2.95593 73.1606 28.1212C78.4135 62.967 47.9525 77.9223 27.1408 69.308C6.32911 60.6639 7.78508 28.6895 -31.7828 27.7024C-72.2071 26.7154 -80.7145 -13.5443 -80.7145 -13.5443" stroke="white" stroke-opacity="0.2" stroke-width="2" stroke-miterlimit="10"/>
<path d="M64.3677 -24.8806C64.3677 -24.8806 52.9484 1.68004 57.0308 28.0911C61.1418 54.5021 42.671 57.6128 35.3341 54.5021C20.0894 48.1013 17.1489 13.8237 -7.4597 11.6103C-25.959 9.93536 -50.8531 23.1857 -64.0424 -6.87439" stroke="white" stroke-opacity="0.2" stroke-width="2" stroke-miterlimit="10"/>
<path d="M52.0634 -13.0358C52.0634 -13.0358 56.1743 14.0931 37.9891 9.24758C17.1489 3.68422 17.4629 -9.35679 -8.91565 2.96636C-18.308 7.36322 -56.1059 8.64937 -48.4835 -15.5184" stroke="white" stroke-opacity="0.2" stroke-width="2" stroke-miterlimit="10"/>
<path d="M38.8741 45.1403C43.2415 45.1403 46.782 39.6766 46.782 32.9368C46.782 26.197 43.2415 20.7333 38.8741 20.7333C34.5067 20.7333 30.9663 26.197 30.9663 32.9368C30.9663 39.6766 34.5067 45.1403 38.8741 45.1403Z" stroke="white" stroke-opacity="0.2" stroke-width="2" stroke-miterlimit="10"/>
<g clip-path="url(#clip1)" filter="url(#filter0_d)">
<path d="M58.1384 38.2902C56.0664 38.3009 54.2656 38.7939 52.7577 39.5225C52.2045 38.4403 51.6513 37.4758 51.5536 36.7685C51.4451 35.9434 51.3149 35.4397 51.4451 34.4539C51.5753 33.468 52.1611 32.0642 52.1502 31.957C52.1394 31.8499 52.0201 31.3462 50.8268 31.3355C49.6335 31.3248 48.6029 31.5605 48.4836 31.8713C48.3642 32.1821 48.1364 32.8893 47.9845 33.618C47.7785 34.6896 45.598 38.5152 44.3504 40.5191C43.9491 39.7369 43.6019 39.051 43.526 38.5045C43.4175 37.6794 43.2873 37.1757 43.4175 36.1898C43.5477 35.204 44.1335 33.8002 44.1226 33.693C44.1118 33.5859 43.9925 33.0822 42.7992 33.0715C41.6059 33.0608 40.5753 33.2965 40.456 33.6073C40.3366 33.9181 40.2065 34.6467 39.9569 35.354C39.7075 36.0613 36.811 42.448 36.0517 44.0983C35.6611 44.9449 35.3248 45.62 35.0861 46.0807C35.0861 46.0807 35.0753 46.1129 35.0427 46.1665C34.8367 46.563 34.7173 46.7773 34.7173 46.7773C34.7173 46.7773 34.7173 46.7773 34.7173 46.788C34.5546 47.0773 34.381 47.3453 34.2942 47.3453C34.2292 47.3453 34.1098 46.5737 34.3159 45.5235C34.7498 43.3053 35.7804 39.8547 35.7696 39.7369C35.7696 39.6726 35.9648 39.0725 35.097 38.7617C34.2508 38.4509 33.9471 38.9653 33.8712 38.9653C33.7952 38.9653 33.741 39.1475 33.741 39.1475C33.741 39.1475 34.6848 35.2683 31.9402 35.2683C30.2262 35.2683 27.8613 37.1221 26.6897 38.7939C25.952 39.1903 24.379 40.0369 22.6975 40.9478C22.0575 41.3014 21.3958 41.655 20.7775 41.9872C20.734 41.9443 20.6907 41.8908 20.6473 41.8479C17.3277 38.3438 11.1877 35.8684 11.4481 31.1641C11.5457 29.4495 12.1423 24.9488 23.24 19.4836C32.3741 15.0364 39.6423 16.2688 40.9008 19.0014C42.7015 22.902 37.0062 30.1461 27.5684 31.1962C23.9668 31.5927 22.0792 30.2211 21.6019 29.7066C21.1029 29.1709 21.0269 29.1387 20.8426 29.2459C20.5388 29.4066 20.734 29.8889 20.8426 30.1675C21.1246 30.8961 22.2854 32.1821 24.2489 32.8143C25.9846 33.3715 30.2045 33.6823 35.314 31.732C41.0309 29.5459 45.5004 23.47 44.1877 18.3798C42.8751 13.2147 34.1966 11.5109 25.9846 14.3935C21.1029 16.108 15.809 18.8085 12.0013 22.3233C7.47764 26.5026 6.76166 30.1353 7.05456 31.657C8.10683 37.0579 15.6463 40.5727 18.6621 43.1767C18.5102 43.2625 18.3692 43.3375 18.2499 43.4018C16.742 44.1412 10.9924 47.1095 9.56048 50.2493C7.93326 53.807 9.82084 56.3574 11.0684 56.7003C14.9412 57.7612 18.9224 55.8538 21.0595 52.7032C23.1966 49.5527 22.9362 45.4592 21.949 43.5839C21.9382 43.5625 21.9273 43.5411 21.9057 43.5196C22.2962 43.2946 22.6975 43.0588 23.0881 42.8338C23.8584 42.3838 24.6177 41.9658 25.2686 41.6229C24.8997 42.6195 24.6286 43.809 24.4984 45.5235C24.3356 47.5382 25.1709 50.1529 26.2666 51.1816C26.7548 51.6316 27.3297 51.6424 27.6985 51.6424C28.9786 51.6424 29.5536 50.5922 30.1936 49.3491C30.9747 47.8275 31.6798 46.0593 31.6798 46.0593C31.6798 46.0593 30.8011 50.8387 33.1877 50.8387C34.0555 50.8387 34.9343 49.7242 35.3248 49.1563C35.3248 49.167 35.3248 49.167 35.3248 49.167C35.3248 49.167 35.3465 49.1348 35.3899 49.0598C35.4767 48.9205 35.5309 48.8348 35.5309 48.8348C35.5309 48.8348 35.5309 48.8241 35.5309 48.8133C35.878 48.2132 36.6592 46.8523 37.8199 44.5912C39.3169 41.6765 40.7597 38.033 40.7597 38.033C40.7597 38.033 40.8899 38.9224 41.3347 40.4012C41.595 41.2693 42.1374 42.223 42.5714 43.1446C42.2242 43.6268 42.0072 43.8947 42.0072 43.8947C42.0072 43.8947 42.0072 43.8947 42.0181 43.9054C41.7361 44.2697 41.4323 44.6663 41.096 45.052C39.9136 46.4451 38.5033 48.0418 38.308 48.5026C38.0802 49.0491 38.1344 49.4456 38.5684 49.7671C38.883 50.0028 39.4471 50.035 40.022 50.0028C41.0851 49.9278 41.8337 49.6706 42.2025 49.5099C42.7775 49.3062 43.45 48.9955 44.0793 48.5347C45.24 47.6881 45.9451 46.4772 45.88 44.8806C45.8475 44.0019 45.5546 43.1231 45.1966 42.298C45.3051 42.148 45.4027 41.998 45.5112 41.8479C47.3446 39.2011 48.7657 36.297 48.7657 36.297C48.7657 36.297 48.8958 37.1864 49.3406 38.6652C49.5575 39.4154 50.0023 40.2298 50.3929 41.0228C48.668 42.4052 47.6049 44.0126 47.2252 45.0627C46.5417 47.0131 47.0733 47.8918 48.0822 48.0953C48.5378 48.1918 49.1887 47.9775 49.666 47.7739C50.2735 47.581 50.9895 47.2488 51.6729 46.7559C52.8337 45.9093 53.951 44.7305 53.8859 43.1338C53.8534 42.4052 53.6581 41.6872 53.387 40.9906C54.8514 40.3906 56.739 40.0584 59.1473 40.337C64.311 40.9371 65.3307 44.1197 65.1355 45.4592C64.9402 46.7987 63.8554 47.5274 63.4974 47.7525C63.1394 47.9775 63.0201 48.0525 63.0526 48.2132C63.096 48.449 63.2696 48.4383 63.5733 48.3954C63.9965 48.3204 66.2854 47.3131 66.383 44.8484C66.5457 41.6979 63.5082 38.258 58.1384 38.2902ZM18.304 51.5567C16.5901 53.3998 14.2035 54.0964 13.1729 53.507C12.0664 52.8747 12.5003 50.1529 14.6049 48.2025C15.8849 47.0131 17.5338 45.9093 18.6295 45.2342C18.879 45.0842 19.2479 44.8698 19.6927 44.6019C19.7686 44.5591 19.8119 44.5376 19.8119 44.5376C19.8987 44.484 19.9855 44.4305 20.0724 44.3769C20.8426 47.1631 20.1049 49.617 18.304 51.5567ZM30.7794 43.1767C30.1828 44.6127 28.9353 48.2882 28.1759 48.0847C27.525 47.9132 27.1236 45.127 28.0457 42.373C28.5122 40.9906 29.4993 39.3404 30.0743 38.6974C31.0072 37.6687 32.0378 37.3258 32.2873 37.7437C32.6019 38.2902 31.1483 42.2765 30.7794 43.1767ZM41.0743 48.0418C40.8248 48.1704 40.5862 48.2561 40.4776 48.1918C40.4017 48.1489 40.5862 47.9775 40.5862 47.9775C40.5862 47.9775 41.8771 46.6058 42.3869 45.9843C42.6798 45.6199 43.027 45.1913 43.3958 44.7091C43.3958 44.752 43.3958 44.8056 43.3958 44.8484C43.3958 46.488 41.7903 47.5917 41.0743 48.0418ZM49.0152 46.2522C48.8307 46.1236 48.8633 45.6949 49.4816 44.3555C49.7203 43.8304 50.2844 42.9517 51.2498 42.1051C51.3584 42.448 51.4343 42.7802 51.4235 43.091C51.4126 45.1592 49.9156 45.9307 49.0152 46.2522Z" fill="white"/>
</g>
</g>
<defs>
<filter id="filter0_d" x="-8" y="2" width="90" height="74" filterUnits="userSpaceOnUse" color-interpolation-filters="sRGB">
<feFlood flood-opacity="0" result="BackgroundImageFix"/>
<feColorMatrix in="SourceAlpha" type="matrix" values="0 0 0 0 0 0 0 0 0 0 0 0 0 0 0 0 0 0 127 0"/>
<feOffset dy="4"/>
<feGaussianBlur stdDeviation="7.5"/>
<feColorMatrix type="matrix" values="0 0 0 0 0 0 0 0 0 0 0 0 0 0 0 0 0 0 0.25 0"/>
<feBlend mode="normal" in2="BackgroundImageFix" result="effect1_dropShadow"/>
<feBlend mode="normal" in="SourceGraphic" in2="effect1_dropShadow" result="shape"/>
</filter>
<clipPath id="clip0">
<rect width="70" height="70" rx="10" fill="white"/>
</clipPath>
<clipPath id="clip1">
<rect width="60" height="44" fill="white" transform="translate(7 13)"/>
</clipPath>
</defs>
</svg>
