<svg width="70" height="70" viewBox="0 0 70 70" fill="none" xmlns="http://www.w3.org/2000/svg">
<g clip-path="url(#clip0)">
<rect width="70" height="70" rx="10" fill="#003438"/>
<path d="M94.8573 -15.5184C94.8573 -15.5184 68.4787 -2.95593 73.1606 28.1212C78.4135 62.967 47.9525 77.9223 27.1408 69.308C6.32912 60.6639 7.78508 28.6895 -31.7828 27.7024C-72.2071 26.7154 -80.7145 -13.5443 -80.7145 -13.5443" stroke="white" stroke-opacity="0.2" stroke-width="2" stroke-miterlimit="10"/>
<path d="M64.3677 -24.8806C64.3677 -24.8806 52.9484 1.68004 57.0308 28.0911C61.1418 54.5021 42.671 57.6128 35.3341 54.5021C20.0894 48.1013 17.1489 13.8237 -7.4597 11.6103C-25.959 9.93536 -50.853 23.1857 -64.0423 -6.87439" stroke="white" stroke-opacity="0.2" stroke-width="2" stroke-miterlimit="10"/>
<path d="M52.0634 -13.0358C52.0634 -13.0358 56.1743 14.0931 37.9891 9.24758C17.1489 3.68422 17.4629 -9.35679 -8.91565 2.96636C-18.308 7.36322 -56.1059 8.64937 -48.4835 -15.5184" stroke="white" stroke-opacity="0.2" stroke-width="2" stroke-miterlimit="10"/>
<path d="M38.8741 45.1403C43.2415 45.1403 46.782 39.6766 46.782 32.9368C46.782 26.197 43.2415 20.7333 38.8741 20.7333C34.5067 20.7333 30.9663 26.197 30.9663 32.9368C30.9663 39.6766 34.5067 45.1403 38.8741 45.1403Z" stroke="white" stroke-opacity="0.2" stroke-width="2" stroke-miterlimit="10"/>
<g filter="url(#filter0_d)">
<path d="M36 15C31.467 15 28.633 17.2225 27.5 21.6667C29.2 19.4442 31.1831 18.6108 33.45 19.1667C34.7437 19.4833 35.6677 20.4033 36.691 21.4217C38.357 23.08 40.2866 25 44.5 25C49.0331 25 51.867 22.7775 53 18.3333C51.3 20.5558 49.317 21.3892 47.05 20.8333C45.7572 20.5167 44.8324 19.5967 43.809 18.5783C42.143 16.92 40.2134 15 36 15ZM27.5 25C22.9669 25 20.133 27.2225 19 31.6667C20.7 29.4442 22.6831 28.6108 24.95 29.1667C26.2429 29.4833 27.1677 30.4033 28.191 31.4217C29.857 33.08 31.7866 35 36 35C40.5331 35 43.367 32.7775 44.5 28.3333C42.8 30.5558 40.8169 31.3892 38.55 30.8333C37.2572 30.5167 36.3323 29.5967 35.309 28.5783C33.643 26.92 31.7135 25 27.5 25Z" fill="white"/>
<path d="M13.9634 44.01V42.45H12.0638V40.35L10.4094 40.83V42.45H9V44.01H10.4094V47.61C10.4094 49.56 11.4204 50.25 13.9634 49.95V48.495C12.7072 48.555 12.0638 48.57 12.0638 47.61V44.01H13.9634ZM21.216 42.45V43.515C20.6339 42.735 19.73 42.255 18.5351 42.255C16.4517 42.255 14.7207 43.965 14.7207 46.2C14.7207 48.42 16.4517 50.145 18.5351 50.145C19.73 50.145 20.6339 49.665 21.216 48.87V49.95H22.8705V42.45H21.216ZM18.7956 48.6C17.4168 48.6 16.3751 47.595 16.3751 46.2C16.3751 44.805 17.4168 43.8 18.7956 43.8C20.1743 43.8 21.216 44.805 21.216 46.2C21.216 47.595 20.1743 48.6 18.7956 48.6ZM25.6264 41.325C26.2085 41.325 26.6834 40.845 26.6834 40.29C26.6834 39.72 26.2085 39.255 25.6264 39.255C25.0443 39.255 24.5694 39.72 24.5694 40.29C24.5694 40.845 25.0443 41.325 25.6264 41.325ZM24.7991 49.95H26.4536V42.45H24.7991V49.95ZM28.3746 49.95H30.0291V39H28.3746V49.95ZM40.774 42.45L39.2727 47.625L37.6795 42.45H36.1016L34.4931 47.625L33.0071 42.45H31.2608L33.6659 49.95H35.2897L36.8982 44.895L38.4914 49.95H40.1152L42.5203 42.45H40.774ZM44.566 41.325C45.1481 41.325 45.623 40.845 45.623 40.29C45.623 39.72 45.1481 39.255 44.566 39.255C43.9838 39.255 43.5089 39.72 43.5089 40.29C43.5089 40.845 43.9838 41.325 44.566 41.325ZM43.7387 49.95H45.3932V42.45H43.7387V49.95ZM51.3431 42.255C50.3014 42.255 49.4742 42.63 48.9687 43.41V42.45H47.3142V49.95H48.9687V45.93C48.9687 44.4 49.8265 43.77 50.9142 43.77C51.9559 43.77 52.6299 44.37 52.6299 45.51V49.95H54.2844V45.345C54.2844 43.395 53.0589 42.255 51.3431 42.255ZM62.1319 39.45V43.515C61.5498 42.735 60.6459 42.255 59.4511 42.255C57.3676 42.255 55.6366 43.965 55.6366 46.2C55.6366 48.42 57.3676 50.145 59.4511 50.145C60.6459 50.145 61.5498 49.665 62.1319 48.87V49.95H63.7864V39.45H62.1319ZM59.7115 48.6C58.3328 48.6 57.2911 47.595 57.2911 46.2C57.2911 44.805 58.3328 43.8 59.7115 43.8C61.0902 43.8 62.1319 44.805 62.1319 46.2C62.1319 47.595 61.0902 48.6 59.7115 48.6Z" fill="white"/>
</g>
</g>
<defs>
<filter id="filter0_d" x="-6" y="4" width="84.7864" height="65.145" filterUnits="userSpaceOnUse" color-interpolation-filters="sRGB">
<feFlood flood-opacity="0" result="BackgroundImageFix"/>
<feColorMatrix in="SourceAlpha" type="matrix" values="0 0 0 0 0 0 0 0 0 0 0 0 0 0 0 0 0 0 127 0"/>
<feOffset dy="4"/>
<feGaussianBlur stdDeviation="7.5"/>
<feColorMatrix type="matrix" values="0 0 0 0 0 0 0 0 0 0 0 0 0 0 0 0 0 0 0.25 0"/>
<feBlend mode="normal" in2="BackgroundImageFix" result="effect1_dropShadow"/>
<feBlend mode="normal" in="SourceGraphic" in2="effect1_dropShadow" result="shape"/>
</filter>
<clipPath id="clip0">
<rect width="70" height="70" rx="10" fill="white"/>
</clipPath>
</defs>
</svg>
