<svg width="70" height="70" viewBox="0 0 70 70" fill="none" xmlns="http://www.w3.org/2000/svg">
<g clip-path="url(#clip0)">
<rect width="70" height="70" rx="10" fill="#033B57"/>
<path d="M94.8573 -15.5184C94.8573 -15.5184 68.4787 -2.95593 73.1606 28.1212C78.4135 62.967 47.9525 77.9223 27.1408 69.308C6.32911 60.6639 7.78508 28.6895 -31.7828 27.7024C-72.2071 26.7154 -80.7145 -13.5443 -80.7145 -13.5443" stroke="white" stroke-opacity="0.2" stroke-width="2" stroke-miterlimit="10"/>
<path d="M64.3677 -24.8806C64.3677 -24.8806 52.9484 1.68004 57.0308 28.0911C61.1418 54.5021 42.671 57.6128 35.3341 54.5021C20.0894 48.1013 17.1489 13.8237 -7.4597 11.6103C-25.959 9.93536 -50.8531 23.1857 -64.0424 -6.87439" stroke="white" stroke-opacity="0.2" stroke-width="2" stroke-miterlimit="10"/>
<path d="M52.0634 -13.0358C52.0634 -13.0358 56.1743 14.0931 37.9891 9.24758C17.1489 3.68422 17.4629 -9.35679 -8.91565 2.96636C-18.308 7.36322 -56.1059 8.64937 -48.4835 -15.5184" stroke="white" stroke-opacity="0.2" stroke-width="2" stroke-miterlimit="10"/>
<path d="M38.8741 45.1403C43.2415 45.1403 46.782 39.6766 46.782 32.9368C46.782 26.197 43.2415 20.7333 38.8741 20.7333C34.5067 20.7333 30.9663 26.197 30.9663 32.9368C30.9663 39.6766 34.5067 45.1403 38.8741 45.1403Z" stroke="white" stroke-opacity="0.2" stroke-width="2" stroke-miterlimit="10"/>
<g clip-path="url(#clip1)" filter="url(#filter0_d)">
<path d="M35 8L58.8634 21.5V48.5L35 62L11.1365 48.5V21.5L35 8Z" fill="white"/>
<path d="M54.602 47.5685L35.7875 58.211V49.922L47.51 43.4735L54.602 47.5685ZM55.889 46.403V24.146L49.004 28.1195V42.425L55.889 46.403ZM15.3215 47.5685L34.136 58.211V49.922L22.4135 43.4735L15.3215 47.5685ZM14.0345 46.403V24.146L20.9195 28.1195V42.425L14.0345 46.403ZM14.84 22.706L34.136 11.789V19.8035L21.7745 26.603L21.68 26.657L14.84 22.706ZM55.0835 22.706L35.7875 11.789V19.8035L48.149 26.603L48.2435 26.657L55.0835 22.706Z" fill="#8ED6FB"/>
<path d="M34.136 48.0365L22.571 41.678V29.078L34.136 35.756V48.0365ZM35.7875 48.0365L47.3525 41.678V29.078L35.7875 35.756V48.0365ZM23.354 27.62L34.964 21.2345L46.574 27.62L34.964 34.325L23.354 27.62Z" fill="#1C78C0"/>
</g>
</g>
<defs>
<filter id="filter0_d" x="-7" y="-3" width="84" height="84" filterUnits="userSpaceOnUse" color-interpolation-filters="sRGB">
<feFlood flood-opacity="0" result="BackgroundImageFix"/>
<feColorMatrix in="SourceAlpha" type="matrix" values="0 0 0 0 0 0 0 0 0 0 0 0 0 0 0 0 0 0 127 0"/>
<feOffset dy="4"/>
<feGaussianBlur stdDeviation="7.5"/>
<feColorMatrix type="matrix" values="0 0 0 0 0 0 0 0 0 0 0 0 0 0 0 0 0 0 0.25 0"/>
<feBlend mode="normal" in2="BackgroundImageFix" result="effect1_dropShadow"/>
<feBlend mode="normal" in="SourceGraphic" in2="effect1_dropShadow" result="shape"/>
</filter>
<clipPath id="clip0">
<rect width="70" height="70" rx="10" fill="white"/>
</clipPath>
<clipPath id="clip1">
<rect width="54" height="54" fill="white" transform="translate(8 8)"/>
</clipPath>
</defs>
</svg>
