<?xml version="1.0" encoding="iso-8859-1"?>
<!-- Generator: Adobe Illustrator 19.0.0, SVG Export Plug-In . SVG Version: 6.00 Build 0)  -->
<svg version="1.1" id="Capa_1" xmlns="http://www.w3.org/2000/svg" xmlns:xlink="http://www.w3.org/1999/xlink" x="0px" y="0px"
	 viewBox="0 0 512 512" style="enable-background:new 0 0 512 512;" xml:space="preserve">
<path style="fill:#FD3018;" d="M256,481c-3.53,0-7.046-1.23-9.873-3.706c-21.826-19.087-42.583-36.782-62.109-53.423
	C73.817,329.96,0,267.909,0,177.514C0,93.988,59.037,31,136,31c60.659,0,99.595,42.378,120,80.537C276.405,73.378,315.341,31,376,31
	c76.963,0,136,62.988,136,146.514c0,90.396-73.817,152.446-184.018,246.357c-19.526,16.641-40.283,34.336-62.109,53.423
	C263.046,479.77,259.53,481,256,481z"/>
<path style="fill:#E61E14;" d="M265.873,477.294c21.826-19.087,42.583-36.782,62.109-53.423C438.183,329.96,512,267.909,512,177.514
	C512,93.988,452.963,31,376,31c-60.659,0-99.595,42.378-120,80.537V481C259.53,481,263.046,479.77,265.873,477.294z"/>
<g>
</g>
<g>
</g>
<g>
</g>
<g>
</g>
<g>
</g>
<g>
</g>
<g>
</g>
<g>
</g>
<g>
</g>
<g>
</g>
<g>
</g>
<g>
</g>
<g>
</g>
<g>
</g>
<g>
</g>
</svg>
