<svg version="1.1" id="Layer_1" xmlns="http://www.w3.org/2000/svg" xmlns:xlink="http://www.w3.org/1999/xlink" x="0" y="0" viewBox="0 0 1162 636" xml:space="preserve"><style>.st0{fill:none;stroke:#fff;stroke-width:4;stroke-miterlimit:10}.st3{fill:#fff}.st4,.st6,.st8{fill:#fff;stroke:#fff}.st4{stroke-miterlimit:10;stroke-width:2}.st6,.st8{stroke-width:.5}.st8{stroke:#ffe146}.st11{fill:#ffab4f}</style><path class="st0" d="M787 579.6c-2 0-4-.1-6-.1"/><path d="M769 579.3c-173.8-2.4-348.4.6-521.5-.4" fill="none" stroke="#fff" stroke-width="4" stroke-miterlimit="10" stroke-dasharray="11.9893,11.9893"/><path class="st0" d="M241.5 579h-6M237.3 117.4C407 120 576 119 746 119h35c29 2 57 13 75 38 9 12 13 26 12 40-2 26-19 46-41 59-1 1-2.4 1.2-3.6 2-14.7 9.4-32.4 9-48.4 9-151 2-303 1-454 1-32 5-68 18-82 50-5 10-7 21-6 33 2 16 10 31 22 42 19 17 43 24 67 28 159 1 319-2 478 1 34 9 65 36 68 72 1 17-4 32-14 46-16 23-40 38-67 39.6"/><path d="M22.5 302.8c0 1.6.9 3 2.4 3 2.9 0 4.8-.9 7.3-2 2.7-1.3 4.9-2.6 7.5-4.1.6-.4 1.5-.8 1.6-1.3-1.2.1-6.9 2.8-9.7 1.5-3.1-1.5 2.9-9.1 3.8-10.3l2.1-2.6c.3-.3.5-.4.9-.8 4.1-4.1 16.9-14.5 22.6-11.4.4.2.6.4.9.6.4.3.5.6 1 .7.9-1.7 1.4-5.5-2-5.5-4.2 0-9.4 3.1-13 5-1.5.8-4 2.4-5.4 3.3-2.2 1.5-6.7 4.9-8.5 6.8l-1.1 1.1c-.4.3-.7.7-1.1 1.1-.4.4-.6.7-1 1.2-2.8 2.3-8.3 9.8-8.3 13.7z" fill="#3f95e9"/><path class="st3" d="M45.8 295.6c.3.2.5 0 .9-.1l2.9-1.2c1.2-.4 5.8-1.8 7.1-.4 1.6 1.9-.3 5.7-1.3 7.1l-2.2 2.7c-.6.6-.7.9-1.6 1.7l-3.5 3.1c-.3.3-.6.5-.9.8-3.2 2.7-9.8 7.4-13.5 9.7-.6.4-3.7 2.3-4 2.6 1.3 0 4.6-1.9 5.7-2.5 3-1.5 8-4.3 10.7-6 .9-.6 1.7-1 2.6-1.6.9-.6 1.7-1.1 2.5-1.7 1.6-1.2 3.2-2.4 4.7-3.7l.5-.5c2.9-2.5 5.4-5.1 7.4-8.4 1-1.7 4-8.1.3-9.4-3-1.1-8.5 1.9-10.5 3.1l-3.9 2.3c-.8.2-3.6 2-3.9 2.4zM59.8 281.9c0 1.5 1.6 2.7 3 3.2 5 1.5 9.5-2.9 5.5-5.6-3-2.1-8.5-.6-8.5 2.4z"/><circle class="st3" cx="240.3" cy="117.4" r="8.5"/><circle class="st3" cx="233.5" cy="340.5" r="8.3"/><circle class="st3" cx="232.8" cy="578.4" r="7.9"/><circle class="st3" cx="868.2" cy="497.4" r="8.4"/><circle class="st3" cx="868.2" cy="192.4" r="7.7"/><path class="st4" d="M24.7 349.6l-.6-10h.4l.6 9.9c.2 2.9 1.9 5 4.5 5s4.3-2 4.5-5l.6-9.9h.4l-.6 10c-.2 3.2-2.1 5.3-4.9 5.3-2.8 0-4.7-2.1-4.9-5.3zM49.1 354.5l-4.8-8-4.8 8H39c1.7-2.8 3.3-5.6 5-8.4-1.1-1.9-2.4-4-3.9-6.5h8.2c-1.5 2.5-2.8 4.6-3.9 6.6l5 8.4h-.3zm-4.7-8.8l3.4-5.7H41c1.1 1.9 2.2 3.8 3.4 5.7zM64.4 340v6h5.8v.4h-5.8v7.7h6.7v.4H64v-15h7.2v.4h-6.8zM86.7 345.6v9.3L77 340.6v14h-.4v-6-9.3l9.7 14.3v-14h.4v6zM105.8 354.5l-1.5-2.1c-1.1 1.5-2.8 2.4-4.9 2.4-3.7 0-6.8-3.4-6.8-8 0-4.4 3-7.6 7.3-7.6 1.9 0 3.8.7 5 1.7v.5c-1.3-1-3.2-1.7-5-1.7-4 0-6.9 3.1-6.9 7.2 0 4.3 3 7.5 6.4 7.5 2 0 3.6-.9 4.6-2.4-1.1-1.4-2.1-2.9-3.2-4.3h4.9c0 1.6-.5 3.1-1.3 4.3l1.8 2.4h-.4zm-1.6-2.7c.7-1 1.1-2.3 1.1-3.6h-3.8c1 1.2 1.8 2.4 2.7 3.6zM111.6 347.1v-7.5h.4v15h-.4v-7.5zM129 345.6v9.3l-9.7-14.3v14h-.4v-6-9.3l9.7 14.3v-14h.4v6zM136.2 340v6h5.8v.4h-5.8v7.7h6.7v.4h-7.2v-15h7.2v.4h-6.7zM148.8 340v6h5.8v.4h-5.8v7.7h6.7v.4h-7.2v-15h7.2v.4h-6.7zM165.1 348l3.2 6.5h-.4c-1-2.2-2.1-4.3-3.1-6.4-.5.1-1.1.1-1.7.1h-1.5v6.3h-.6v-6.7h1.9c.6 0 1.1 0 1.5-.1l-3.9-8.1h2.8c3.3 0 5.3 1.7 5.3 4.2 0 2.2-1.2 3.7-3.5 4.2zm-.2-.4c2.2-.5 3.3-1.8 3.3-3.8 0-2.3-1.9-3.8-4.9-3.8h-2.1l3.7 7.6zM75 556.3v-.6c1 1 2.4 1.7 3.8 1.7 1.9 0 3.5-1.5 3.5-3.3 0-2.2-1.9-3.1-3.9-3.9-2.1-.9-4.1-1.8-4.1-4.2 0-2.2 1.8-3.8 4.4-3.8 1.7 0 3.2.8 4.2 1.8v.6c-1.1-1.2-2.6-2-4.2-2-2.4 0-4 1.5-4 3.3 0 2.2 1.8 3 3.9 3.8 2 .8 4.1 1.9 4.1 4.3 0 2.1-1.8 3.7-4 3.7-1.3.1-2.8-.6-3.7-1.4zM96.9 543h-5v14.5h-.4v-7.3-7.2h-5v-.4h10.4v.4zM102 552c-.7 1.8-1.5 3.7-2.3 5.6h-.4l2.4-5.8c-.8-.5-1.6-.9-2.4-1.4v-.5c.8.5 1.7 1 2.5 1.5 1.2-2.9 2.4-5.9 3.7-9.1l6.4 15.6c-3.3-2-6.6-4-9.9-5.9zm.2-.4c3 1.8 5.9 3.5 8.9 5.3l-5.5-13.6-3.4 8.3zM121.2 551l3.2 6.5h-.4c-1-2.2-2.1-4.3-3.1-6.4-.5.1-1.1.1-1.7.1h-1.5v6.3h-.4v-6.7h1.9c.6 0 1.1 0 1.5-.1l-3.9-8.1h2.8c3.3 0 5.3 1.7 5.3 4.2-.1 2.2-1.3 3.7-3.7 4.2zm-.2-.4c2.2-.5 3.3-1.8 3.3-3.8 0-2.3-1.9-3.8-4.9-3.8h-2.1l3.7 7.6zM138.8 543h-5v14.5h-.4v-7.3-7.2h-5v-.4h10.4v.4zM143.9 543v6h5.8v.4h-5.8v7.7h6.7v.4h-7.2v-15h7.2v.4h-6.7zM156.1 542.6h2.7c5 0 8.1 2.8 8.1 7.3 0 4.4-3.5 7.7-8.3 7.7H156v-15zm2.5 14.5c4.6 0 7.9-3.1 7.9-7.3 0-4.2-3-6.8-7.7-6.8h-2.2v14.1h2zM76.2 569.4v6H82v.4h-5.8v7.7h6.7v.4h-7.2V569h7.2v.4h-6.7zM96.7 583.9l-4.8-8-4.8 8h-.5c1.7-2.8 3.3-5.6 5-8.4-1.1-1.9-2.4-4-3.9-6.5h8.2c-1.5 2.5-2.8 4.6-3.9 6.6l5 8.4h-.3zm-4.8-8.8l3.4-5.7h-6.8c1.2 1.9 2.3 3.8 3.4 5.7zM109.6 573.2c0 2.6-2 4.4-5.3 4.4h-1.6v6.3h-.4v-15h2.5c2.9.1 4.8 1.8 4.8 4.3zm-.5 0c0-2.3-1.7-3.8-4.4-3.8h-2v7.9h1.5c3.1-.1 4.9-1.7 4.9-4.1zM115 576.4V569h.4V583.6h7.5v.4H115v-7.6zM126.3 576.3c0-4.4 3.1-7.7 7.4-7.7 4.4 0 7.4 3.3 7.4 7.7 0 4.3-3.4 8-7.4 8-4.1 0-7.4-3.6-7.4-8zm14.4 0c0-4.2-2.9-7.3-7-7.3s-7 3.1-7 7.3c0 4.1 3.2 7.5 7 7.5s7-3.4 7-7.5zM150.9 577.4l3.2 6.5h-.4c-1-2.2-2.1-4.3-3.1-6.4-.5.1-1.1.1-1.7.1h-1.5v6.3h-.4v-6.7h1.9c.6 0 1.1 0 1.5-.1l-3.9-8.1h2.8c3.3 0 5.3 1.7 5.3 4.2-.2 2.2-1.4 3.7-3.7 4.2zm-.2-.4c2.2-.5 3.3-1.8 3.3-3.8 0-2.3-1.9-3.8-4.9-3.8H147l3.7 7.6zM160.4 576.5V569h.4v15h-.4v-7.5zM177.7 575v9.3L168 570v14h-.4v-6-9.3l9.7 14.3v-14h.4v6zM196.8 583.9l-1.5-2.1c-1.1 1.5-2.8 2.4-4.9 2.4-3.7 0-6.8-3.4-6.8-8 0-4.4 3-7.6 7.3-7.6 1.9 0 3.8.7 5 1.7v.5c-1.3-1-3.2-1.7-5-1.7-4 0-6.9 3.1-6.9 7.2 0 4.3 3 7.5 6.4 7.5 2 0 3.6-.9 4.6-2.4-1.1-1.4-2.1-2.9-3.2-4.3h4.9c0 1.6-.5 3.1-1.3 4.3l1.8 2.4h-.4zm-1.6-2.7c.7-1 1.1-2.3 1.1-3.6h-3.8l2.7 3.6z"/><g><path class="st3" d="M27.9 389.4c-.2-1.3-1.2-2-2.9-2-.9 0-1.6.2-2.1.6-.5.4-.7.9-.7 1.4 0 .6.2 1 .5 1.3.3.3.8.5 1.5.8l2.8 1c1 .3 1.7.8 2.3 1.4.6.6.9 1.4.9 2.4s-.4 1.9-1.3 2.6-2.1 1.1-3.6 1.1-2.7-.4-3.7-1.1c-1-.8-1.4-1.8-1.5-3.2h1.7c0 .9.3 1.6.9 2 .6.5 1.4.7 2.4.7s1.8-.2 2.3-.7c.6-.4.9-1 .9-1.6 0-.6-.2-1.1-.5-1.4-.4-.3-.9-.6-1.6-.9l-2.4-.9c-1.1-.4-2-.8-2.5-1.3s-.9-1.3-.9-2.3c0-1 .4-1.8 1.2-2.5.8-.7 1.9-1 3.4-1s2.6.3 3.3 1c.8.6 1.2 1.5 1.3 2.6h-1.7zM37.2 398.5c1.4 0 2.2-.6 2.4-1.9h1.7c-.2 1-.6 1.8-1.4 2.4-.8.6-1.7.9-2.8.9-1.4 0-2.5-.5-3.4-1.5-.9-1-1.3-2.3-1.3-3.9s.4-2.9 1.3-3.9 2-1.5 3.5-1.5 2.5.6 3.2 1.7c.7 1.1 1 2.5.7 4.1H34c0 1.1.3 1.9.8 2.6.8.6 1.5 1 2.4 1zm1.3-7.8c-.3-.2-.7-.3-1.2-.3-.9 0-1.6.3-2.1.9s-.8 1.3-.9 2.2h5.5c0-1.4-.4-2.4-1.3-2.8zM46.4 390.9c.7-1.2 1.7-1.8 3-1.8s2.5.5 3.4 1.5c.9 1 1.3 2.3 1.3 3.9s-.5 2.9-1.4 3.9c-.9 1-2 1.5-3.3 1.5-1.3 0-2.3-.5-2.9-1.5v6.3h-1.7v-15.4h1.4l.2 1.6zm3 7.5c.8 0 1.5-.3 2.1-1 .6-.7.9-1.6.9-2.8s-.3-2.2-.9-2.9c-.6-.7-1.3-1.1-2.1-1.1s-1.5.3-2 .8-.8 1.2-.8 2.1v2c0 .9.3 1.6.8 2.1s1.1.8 2 .8zM63.7 398.1h7.9v1.6H62v-2c0-1.6.6-2.8 1.8-3.5.4-.2.8-.5 1.3-.6l2.7-1.1c1.4-.5 2.1-1.4 2.1-2.7 0-.7-.2-1.3-.7-1.7-.5-.4-1.1-.7-2-.7-.9 0-1.6.2-2.1.5-.5.4-.9.9-.9 1.6h-1.9c.1-1.2.5-2.1 1.4-2.7.9-.6 2-.9 3.4-.9s2.5.4 3.4 1.1c.9.7 1.3 1.7 1.3 2.8s-.3 2-.9 2.6c-.6.6-1.3 1.2-2.3 1.6l-2.7 1.1c-.7.3-1.2.6-1.5 1s-.5.8-.5 1.4v.6zM79.5 385.8c1.6 0 2.9.6 3.9 1.8.9 1.2 1.4 2.9 1.4 5.2 0 2.3-.5 4-1.4 5.2-.9 1.2-2.2 1.8-3.9 1.8-1.6 0-2.9-.6-3.9-1.8-1-1.2-1.4-2.9-1.4-5.2 0-2.3.5-4 1.4-5.2 1-1.2 2.3-1.8 3.9-1.8zm3.5 7c0-1.8-.3-3.1-.9-4.1s-1.5-1.4-2.6-1.4c-1.2 0-2 .5-2.6 1.4s-.9 2.3-.9 4.1c0 1.8.3 3.1.9 4.1s1.5 1.4 2.6 1.4c1.2 0 2-.5 2.6-1.4s.9-2.3.9-4.1zM86.9 387.1c1-.1 1.8-.5 2.5-1.1h1.4v13.6h-1.7V388c-.7.5-1.5.7-2.2.8v-1.7zM102.2 389.5c-.2-1.4-1-2.1-2.3-2.1-1.3 0-2.3.5-3 1.6-.7 1.1-1 2.5-1 4.4 0 .8 0 1.4.1 1.9.1-1.3.5-2.3 1.2-2.9.7-.6 1.7-.9 2.8-.9 1.1 0 2.1.4 2.9 1.2.8.8 1.2 1.8 1.2 3.1 0 1.2-.4 2.3-1.3 3-.8.8-2 1.2-3.3 1.2-1.6 0-2.9-.6-3.9-1.9-1-1.3-1.5-3-1.5-5.1 0-2.1.5-3.8 1.5-5.1 1-1.3 2.4-1.9 4.1-1.9 1.2 0 2.2.3 3 1 .8.7 1.2 1.6 1.3 2.7h-1.8zm-2.7 3.5c-.8 0-1.5.3-2 .8s-.8 1.2-.8 2 .3 1.4.8 1.9 1.2.7 2 .7 1.5-.2 2-.7.8-1.1.8-2c0-.8-.3-1.5-.8-2s-1.2-.7-2-.7zM111.3 392.6h5.9v1.5h-5.9v-1.5zM127.8 386.1l4.6 9.2 4.5-9.2h2.4v13.6h-1.7v-11.2l-4.7 9.4h-1.1l-4.7-9.6v11.3h-1.7V386h2.4zM150 392.9c0-.9-.2-1.6-.6-2-.4-.4-1-.6-1.7-.6s-1.3.1-1.8.4c-.5.3-.7.8-.7 1.4h-1.9c0-1.6.8-2.6 2.5-2.9.5-.1 1.1-.2 1.7-.2 1.3 0 2.3.3 3 1s1.1 1.6 1.1 3v6.6h-1.5l-.2-1.7c-.6 1.3-1.8 2-3.4 2-1.1 0-2-.3-2.7-.9-.7-.6-1-1.4-1-2.3 0-.9.4-1.6 1.1-2.2.7-.5 1.7-.8 2.8-.8s2.2.2 3.2.6v-1.4zm0 2.4c-1-.3-1.9-.4-2.7-.4s-1.4.1-1.9.4c-.5.3-.7.7-.7 1.3 0 1.3.7 1.9 2.2 1.9.8 0 1.5-.3 2.1-.9s1-1.3 1-2.3zM153.7 402.6c.7.5 1.4.8 2.2.8.6 0 1.1-.3 1.5-.9.3-.4.6-1 .8-1.9l.3-1.1-4.2-10.3h1.9l3.1 8.2 2.4-8.2h1.7l-3.9 12.4c-.3 1-.8 1.9-1.3 2.4-.5.6-1.2.8-2 .8s-1.7-.3-2.6-.8v-1.4zM172.2 398.1h7.9v1.6h-9.6v-2c0-1.6.6-2.8 1.8-3.5.4-.2.8-.5 1.3-.6l2.7-1.1c1.4-.5 2.1-1.4 2.1-2.7 0-.7-.2-1.3-.7-1.7-.5-.4-1.1-.7-2-.7-.9 0-1.6.2-2.1.5-.5.4-.9.9-.9 1.6h-1.9c.1-1.2.5-2.1 1.4-2.7.9-.6 2-.9 3.4-.9s2.5.4 3.4 1.1c.9.7 1.3 1.7 1.3 2.8s-.3 2-.9 2.6c-.6.6-1.3 1.2-2.3 1.6l-2.7 1.1c-.7.3-1.2.6-1.5 1s-.5.8-.5 1.4v.6zM188.1 385.8c1.6 0 2.9.6 3.9 1.8.9 1.2 1.4 2.9 1.4 5.2 0 2.3-.5 4-1.4 5.2-.9 1.2-2.2 1.8-3.9 1.8-1.6 0-2.9-.6-3.9-1.8-1-1.2-1.4-2.9-1.4-5.2 0-2.3.5-4 1.4-5.2.9-1.2 2.2-1.8 3.9-1.8zm3.5 7c0-1.8-.3-3.1-.9-4.1s-1.5-1.4-2.6-1.4c-1.2 0-2 .5-2.6 1.4s-.9 2.3-.9 4.1c0 1.8.3 3.1.9 4.1s1.5 1.4 2.6 1.4c1.2 0 2-.5 2.6-1.4s.9-2.3.9-4.1zM195.5 387.1c1-.1 1.8-.5 2.5-1.1h1.4v13.6h-1.7V388c-.7.5-1.5.7-2.2.8v-1.7zM207.7 385.8c.7 0 1.4.2 2.1.5.7.3 1.2.8 1.7 1.4 1 1.3 1.6 2.9 1.6 4.9 0 3.5-1 5.8-2.9 6.8-.7.3-1.4.5-2.2.5-1.5 0-2.7-.4-3.5-1.2-.9-.8-1.3-1.8-1.3-3h1.8c0 .8.3 1.5.8 2s1.1.7 1.9.7c.7 0 1.4-.1 1.8-.4 1.3-.8 2-2.7 2-5.5 0-.6 0-1.1-.1-1.6-.1 1.2-.6 2-1.3 2.6-.7.6-1.6.9-2.7.9s-2.1-.4-2.9-1.2c-.8-.8-1.2-1.8-1.2-3.1s.4-2.3 1.3-3 1.7-1.3 3.1-1.3zm2 2.3c-.5-.5-1.2-.7-2-.7s-1.5.2-2 .7c-.5.5-.8 1.1-.8 2s.3 1.5.8 2 1.2.7 2 .7 1.5-.3 2-.8.8-1.2.8-2-.3-1.4-.8-1.9z"/></g><g><path class="st4" d="M897.6 199.1l-.6-10h.4l.6 9.9c.2 2.9 1.9 5 4.5 5s4.3-2 4.5-5l.6-9.9h.4l-.6 10c-.2 3.2-2.1 5.3-4.9 5.3-2.7 0-4.7-2.1-4.9-5.3zM922.1 204l-4.8-8-4.8 8h-.5c1.7-2.8 3.3-5.6 5-8.4-1.1-1.9-2.4-4-3.9-6.5h8.2c-1.5 2.5-2.8 4.6-3.9 6.6l5 8.4h-.3zm-4.8-8.8l3.4-5.7h-6.8c1.1 1.9 2.3 3.8 3.4 5.7zM937.3 189.5v6h5.8v.4h-5.8v7.7h6.7v.4h-7.2v-15h7.2v.4h-6.7zM959.7 195.1v9.3l-9.7-14.3v14h-.4v-6-9.3l9.7 14.3v-14h.4v6zM978.7 204l-1.5-2.1c-1.1 1.5-2.8 2.4-4.9 2.4-3.7 0-6.8-3.4-6.8-8 0-4.4 3-7.6 7.3-7.6 1.9 0 3.8.7 5 1.7v.5c-1.3-1-3.2-1.7-5-1.7-4 0-6.9 3.1-6.9 7.2 0 4.3 3 7.5 6.4 7.5 2 0 3.6-.9 4.6-2.4-1.1-1.4-2.1-2.9-3.2-4.3h4.9c0 1.6-.5 3.1-1.3 4.3l1.8 2.4h-.4zm-1.5-2.7c.7-1 1.1-2.3 1.1-3.6h-3.8l2.7 3.6zM984.6 196.6v-7.5h.4v15h-.4v-7.5zM1001.9 195.1v9.3l-9.7-14.3v14h-.4v-6-9.3l9.7 14.3v-14h.4v6zM1009.1 189.5v6h5.8v.4h-5.8v7.7h6.7v.4h-7.2v-15h7.2v.4h-6.7zM1021.7 189.5v6h5.8v.4h-5.8v7.7h6.7v.4h-7.2v-15h7.2v.4h-6.7zM1038 197.5l3.2 6.5h-.4c-1-2.2-2.1-4.3-3.1-6.4-.5.1-1.1.1-1.7.1h-1.5v6.3h-.4v-6.7h1.9c.6 0 1.1 0 1.5-.1l-3.9-8.1h2.8c3.3 0 5.3 1.7 5.3 4.2-.1 2.2-1.3 3.7-3.7 4.2zm-.2-.4c2.2-.5 3.3-1.8 3.3-3.8 0-2.3-1.9-3.8-4.9-3.8h-2.1l3.7 7.6z"/></g><g><path class="st3" d="M897.4 248.4c-.7.6-1.5 1-2.6 1s-2.1-.3-3.3-.9v-1.8c1 .7 2 1 2.8 1 .9 0 1.5-.2 1.8-.6.3-.4.5-1.1.5-1.9v-9.6h1.7v9.6c.1 1.5-.2 2.6-.9 3.2zM909.3 247.1c-.7 1.5-1.8 2.2-3.4 2.2-1.2 0-2.1-.3-2.8-1-.7-.6-1.1-1.6-1.1-3v-6.6h1.7v6.4c0 1.7.8 2.6 2.4 2.6.9 0 1.7-.4 2.3-1.1.6-.7.9-1.6.9-2.8v-5.2h1.7v10.3h-1.7v-1.8zM915.4 234.4h1.7v14.7h-1.7v-14.7zM927.5 247.6h7.9v1.6h-9.6v-2c0-1.6.6-2.8 1.8-3.5.4-.2.8-.5 1.3-.6l2.7-1.1c1.4-.5 2.1-1.4 2.1-2.7 0-.7-.2-1.3-.7-1.7-.5-.4-1.1-.7-2-.7s-1.6.2-2.1.5c-.5.4-.9.9-.9 1.6h-2c.1-1.2.5-2.1 1.4-2.7.9-.6 2-.9 3.4-.9s2.5.4 3.4 1.1c.9.7 1.3 1.7 1.3 2.8s-.3 2-.9 2.6c-.6.6-1.3 1.2-2.3 1.6l-2.7 1.1c-.7.3-1.2.6-1.5 1s-.5.8-.5 1.4v.6zM943.3 235.3c1.6 0 2.9.6 3.9 1.8.9 1.2 1.4 2.9 1.4 5.2 0 2.3-.5 4-1.4 5.2s-2.2 1.8-3.9 1.8c-1.6 0-2.9-.6-3.9-1.8-1-1.2-1.4-2.9-1.4-5.2 0-2.3.5-4 1.4-5.2 1-1.2 2.3-1.8 3.9-1.8zm3.6 7c0-1.8-.3-3.1-.9-4.1-.6-.9-1.5-1.4-2.6-1.4s-2 .5-2.6 1.4-.9 2.3-.9 4.1c0 1.8.3 3.1.9 4.1s1.5 1.4 2.6 1.4 2-.5 2.6-1.4c.6-.9.9-2.3.9-4.1zM950.8 236.6c1-.1 1.8-.5 2.5-1.1h1.4v13.6H953v-11.6c-.7.5-1.5.7-2.2.8v-1.7zM962.9 235.3c.7 0 1.4.2 2.1.5s1.2.8 1.7 1.4c1 1.3 1.6 2.9 1.6 4.9 0 3.5-1 5.8-2.9 6.8-.7.3-1.4.5-2.2.5-1.5 0-2.7-.4-3.5-1.2-.9-.8-1.3-1.8-1.3-3h1.8c0 .8.3 1.5.8 2s1.1.7 1.9.7 1.4-.1 1.8-.4c1.3-.8 2-2.7 2-5.5 0-.6 0-1.1-.1-1.6-.1 1.2-.6 2-1.3 2.6s-1.6.9-2.7.9-2.1-.4-2.9-1.2c-.8-.8-1.2-1.8-1.2-3.1s.4-2.3 1.3-3c.6-.9 1.7-1.3 3.1-1.3zm2 2.3c-.5-.5-1.2-.7-2-.7s-1.5.2-2 .7c-.5.5-.8 1.1-.8 2s.3 1.5.8 2 1.2.7 2 .7 1.5-.3 2-.8.8-1.2.8-2-.3-1.4-.8-1.9zM975.3 242.1h5.9v1.5h-5.9v-1.5zM991.3 235.6l6.7 10.9v-10.9h1.7v13.6h-1.9l-6.8-11v11h-1.7v-13.6h2zM1007.8 238.6c1.4 0 2.6.5 3.5 1.4.9.9 1.3 2.3 1.3 4 0 1.7-.4 3.1-1.3 4-.9.9-2 1.4-3.5 1.4s-2.6-.5-3.5-1.4c-.9-.9-1.3-2.3-1.3-4 0-1.7.4-3.1 1.3-4 .9-1 2.1-1.4 3.5-1.4zm3.1 5.4c0-1.2-.3-2.2-.8-2.9-.5-.7-1.3-1-2.3-1-1 0-1.8.3-2.3 1-.5.7-.8 1.7-.8 2.9s.3 2.2.8 2.9c.5.7 1.3 1 2.3 1s1.8-.3 2.3-1c.5-.7.8-1.7.8-2.9zM1016 238.8l3.1 8.5 3.1-8.5h1.9l-4.1 10.3h-1.9l-4.1-10.3h2zM1032.8 247.6h7.9v1.6h-9.6v-2c0-1.6.6-2.8 1.8-3.5.4-.2.8-.5 1.3-.6l2.7-1.1c1.4-.5 2.1-1.4 2.1-2.7 0-.7-.2-1.3-.7-1.7-.5-.4-1.1-.7-2-.7-.9 0-1.6.2-2.1.5-.5.4-.9.9-.9 1.6h-1.9c.1-1.2.5-2.1 1.4-2.7.9-.6 2-.9 3.4-.9s2.5.4 3.4 1.1c.9.7 1.3 1.7 1.3 2.8s-.3 2-.9 2.6-1.3 1.2-2.3 1.6l-2.7 1.1c-.7.3-1.2.6-1.5 1s-.5.8-.5 1.4v.6zM1048.6 235.3c1.6 0 2.9.6 3.9 1.8.9 1.2 1.4 2.9 1.4 5.2 0 2.3-.5 4-1.4 5.2-.9 1.2-2.2 1.8-3.9 1.8s-2.9-.6-3.9-1.8c-1-1.2-1.4-2.9-1.4-5.2 0-2.3.5-4 1.4-5.2 1-1.2 2.3-1.8 3.9-1.8zm3.6 7c0-1.8-.3-3.1-.9-4.1-.6-.9-1.5-1.4-2.6-1.4-1.2 0-2 .5-2.6 1.4s-.9 2.3-.9 4.1c0 1.8.3 3.1.9 4.1s1.5 1.4 2.6 1.4c1.2 0 2-.5 2.6-1.4.6-.9.9-2.3.9-4.1zM1056.1 236.6c1-.1 1.8-.5 2.5-1.1h1.4v13.6h-1.7v-11.6c-.7.5-1.5.7-2.2.8v-1.7zM1068.3 235.3c.7 0 1.4.2 2.1.5.7.3 1.2.8 1.7 1.4 1 1.3 1.6 2.9 1.6 4.9 0 3.5-1 5.8-2.9 6.8-.7.3-1.4.5-2.2.5-1.5 0-2.7-.4-3.5-1.2-.9-.8-1.3-1.8-1.3-3h1.8c0 .8.3 1.5.8 2s1.1.7 1.9.7 1.4-.1 1.8-.4c1.3-.8 2-2.7 2-5.5 0-.6 0-1.1-.1-1.6-.1 1.2-.6 2-1.3 2.6-.7.6-1.6.9-2.7.9s-2.1-.4-2.9-1.2c-.8-.8-1.2-1.8-1.2-3.1s.4-2.3 1.3-3 1.6-1.3 3.1-1.3zm1.9 2.3c-.5-.5-1.2-.7-2-.7s-1.5.2-2 .7c-.5.5-.8 1.1-.8 2s.3 1.5.8 2 1.2.7 2 .7 1.5-.3 2-.8.8-1.2.8-2-.2-1.4-.8-1.9z"/></g><g><path class="st4" d="M901.3 505.9l3.2 6.5h-.4c-1-2.2-2.1-4.3-3.1-6.4-.5.1-1.1.1-1.7.1h-1.5v6.3h-.4v-6.7h1.9c.5 0 1.1 0 1.5-.1l-3.9-8.1h2.8c3.3 0 5.3 1.7 5.3 4.2-.1 2.2-1.3 3.7-3.7 4.2zm-.1-.4c2.2-.5 3.3-1.8 3.3-3.8 0-2.3-1.9-3.8-4.9-3.8h-2.1l3.7 7.6zM911.3 497.9v6h5.8v.4h-5.8v7.7h6.7v.4h-7.2v-15h7.2v.4h-6.7zM922.5 504.8c0-4.3 3.1-7.6 7.2-7.6 1.5 0 3.1.5 4.4 1.2v.4c-1.3-.7-3-1.2-4.4-1.2-3.8 0-6.8 3.1-6.8 7.2s3 7.5 6.8 7.5c1.4 0 3.1-.5 4.4-1.2v.5c-1.2.7-2.9 1.1-4.4 1.1-4 0-7.2-3.5-7.2-7.9zM938.4 504.8c0-4.4 3.1-7.7 7.4-7.7s7.4 3.3 7.4 7.7c0 4.3-3.4 8-7.4 8s-7.4-3.6-7.4-8zm14.4 0c0-4.2-2.9-7.3-7-7.3s-7 3.1-7 7.3c0 4.1 3.2 7.5 7 7.5s7-3.4 7-7.5zM971.6 512.4l-1.5-2.1c-1.1 1.5-2.8 2.4-4.9 2.4-3.7 0-6.8-3.4-6.8-8 0-4.4 3-7.6 7.3-7.6 1.9 0 3.8.7 5 1.7v.5c-1.3-1-3.2-1.7-5-1.7-4 0-6.9 3.1-6.9 7.2 0 4.3 3 7.5 6.4 7.5 2 0 3.6-.9 4.6-2.4-1.1-1.4-2.1-2.9-3.2-4.3h4.9c0 1.6-.5 3.1-1.3 4.3l1.8 2.4h-.4zm-1.5-2.7c.7-1 1.1-2.3 1.1-3.6h-3.8l2.7 3.6zM987.6 503.5v9.3l-9.7-14.3v14h-.4v-6-9.3l9.7 14.3v-14h.4v6zM994.4 505v-7.5h.4v15h-.4V505zM1009.5 497.9h-9.6v-.4H1010.3l-9.2 14.5h8.2v.4h-9l9.2-14.5zM1015.6 497.9v6h5.8v.4h-5.8v7.7h6.7v.4h-7.2v-15h7.2v.4h-6.7zM1027.8 497.5h2.7c5 0 8.1 2.8 8.1 7.3 0 4.4-3.5 7.7-8.3 7.7h-2.6v-15zm2.5 14.5c4.6 0 7.9-3.1 7.9-7.3 0-4.2-3-6.8-7.7-6.8h-2.2V512h2zM1062.1 497.9h-5v14.5h-.4v-7.3-7.2h-5v-.4h10.4v.4zM1076.8 497.5v15h-.4V505v-.6h-9.2v8.1h-.4V505v-7.5h.4v6.4h9.2v-6.4h.4zM1083.9 497.9v6h5.8v.4h-5.8v7.7h6.7v.4h-7.2v-15h7.2v.4h-6.7zM1097.9 497.1l5 7.6c1.7-2.5 3.3-5 5-7.6 1 6.4 1.8 10.9 2.5 15.3h-.4c-.7-4.4-1.4-8.8-2.3-14.1l-4.5 6.8v3.6h-.4v-3.6c-1.2-1.9-2.5-3.8-4.5-6.9-.8 5.2-1.6 9.7-2.3 14.1h-.4c.5-4.3 1.2-8.6 2.3-15.2zM1116.8 497.9v6h5.8v.4h-5.8v7.7h6.7v.4h-7.2v-15h7.2v.4h-6.7zM1133.1 505.9l3.2 6.5h-.4c-1-2.2-2.1-4.3-3.1-6.4-.5.1-1.1.1-1.7.1h-1.5v6.3h-.4v-6.7h1.9c.5 0 1.1 0 1.5-.1l-3.9-8.1h2.8c3.3 0 5.3 1.7 5.3 4.2-.2 2.2-1.4 3.7-3.7 4.2zm-.2-.4c2.2-.5 3.3-1.8 3.3-3.8 0-2.3-1.9-3.8-4.9-3.8h-2.1l3.7 7.6z"/></g><g><path class="st3" d="M896.9 556.8c-.7.6-1.5 1-2.6 1s-2.1-.3-3.3-.9v-1.8c1 .7 2 1 2.8 1 .9 0 1.5-.2 1.8-.6s.5-1.1.5-1.9V544h1.7v9.6c.1 1.5-.2 2.6-.9 3.2zM908.2 550.8c0-.9-.2-1.6-.6-2-.4-.4-1-.6-1.7-.6s-1.3.1-1.8.4-.7.8-.7 1.4h-1.9c0-1.6.8-2.6 2.5-2.9.5-.1 1.1-.2 1.7-.2 1.3 0 2.3.3 3 1 .7.6 1.1 1.6 1.1 3v6.6h-1.5l-.2-1.7c-.6 1.3-1.8 2-3.4 2-1.1 0-2-.3-2.7-.9-.7-.6-1-1.4-1-2.3 0-.9.4-1.6 1.1-2.2.7-.5 1.7-.8 2.8-.8s2.2.2 3.2.6v-1.4zm0 2.4c-1-.3-1.9-.4-2.7-.4-.8 0-1.4.1-1.9.4-.5.3-.7.7-.7 1.3 0 1.3.7 1.9 2.2 1.9.8 0 1.5-.3 2.1-.9s1-1.3 1-2.3zM915.5 549.2c.7-1.5 1.8-2.2 3.5-2.2 1.2 0 2.2.4 2.9 1.2.7.8 1 1.9 1 3.3v6.1h-1.7v-6.1c0-1-.2-1.7-.7-2.2-.5-.5-1.1-.8-2-.8s-1.6.4-2.1 1.1c-.5.7-.8 1.7-.8 2.9v5.1h-1.7v-10.3h1.5l.1 1.9zM932.9 556h7.9v1.6h-9.6v-2c0-1.6.6-2.8 1.8-3.5.4-.2.8-.5 1.3-.6l2.7-1.1c1.4-.5 2.1-1.4 2.1-2.7 0-.7-.2-1.3-.7-1.7-.5-.4-1.1-.7-2-.7-.9 0-1.6.2-2.1.5-.5.4-.9.9-.9 1.6h-1.9c.1-1.2.5-2.1 1.4-2.7.9-.6 2-.9 3.4-.9s2.5.4 3.4 1.1c.9.7 1.3 1.7 1.3 2.8 0 1.1-.3 2-.9 2.6-.6.6-1.3 1.2-2.3 1.6l-2.7 1.1c-.7.3-1.2.6-1.5 1-.3.4-.5.8-.5 1.4v.6zM948.8 543.7c1.6 0 2.9.6 3.9 1.8.9 1.2 1.4 2.9 1.4 5.2 0 2.3-.5 4-1.4 5.2-.9 1.2-2.2 1.8-3.9 1.8s-2.9-.6-3.9-1.8c-1-1.2-1.4-2.9-1.4-5.2 0-2.3.5-4 1.4-5.2 1-1.2 2.3-1.8 3.9-1.8zm3.5 7.1c0-1.8-.3-3.1-.9-4.1-.6-.9-1.5-1.4-2.6-1.4-1.2 0-2 .5-2.6 1.4-.6.9-.9 2.3-.9 4.1 0 1.8.3 3.1.9 4.1.6.9 1.5 1.4 2.6 1.4 1.2 0 2-.5 2.6-1.4.6-1 .9-2.4.9-4.1zM956.2 545c1-.1 1.8-.5 2.5-1.1h1.4v13.6h-1.7V546c-.7.5-1.5.7-2.2.8V545zM971.6 543.8v9h2.4v1.5h-2.4v3.3h-1.7v-3.3h-7V553l7.1-9.2h1.6zm-6.7 9.1h5v-6.5l-5 6.5zM980.3 550.5h5.9v1.5h-5.9v-1.5zM998.2 556.8c-.7.6-1.5 1-2.6 1s-2.1-.3-3.3-.9v-1.8c1 .7 2 1 2.8 1 .9 0 1.5-.2 1.8-.6s.5-1.1.5-1.9V544h1.7v9.6c.1 1.5-.3 2.6-.9 3.2zM1010.1 555.5c-.7 1.5-1.8 2.2-3.4 2.2-1.2 0-2.1-.3-2.8-1-.7-.6-1.1-1.6-1.1-3v-6.6h1.7v6.4c0 1.7.8 2.6 2.4 2.6.9 0 1.7-.4 2.3-1.1.6-.7.9-1.6.9-2.8V547h1.7v10.3h-1.7v-1.8zM1017.8 549.2c.7-1.5 1.8-2.2 3.5-2.2 1.2 0 2.2.4 2.9 1.2.7.8 1 1.9 1 3.3v6.1h-1.7v-6.1c0-1-.2-1.7-.7-2.2-.5-.5-1.1-.8-2-.8s-1.6.4-2.1 1.1c-.5.7-.8 1.7-.8 2.9v5.1h-1.7v-10.3h1.5l.1 1.9zM1035.2 556h7.9v1.6h-9.6v-2c0-1.6.6-2.8 1.8-3.5.4-.2.8-.5 1.3-.6l2.7-1.1c1.4-.5 2.1-1.4 2.1-2.7 0-.7-.2-1.3-.7-1.7-.5-.4-1.1-.7-2-.7-.9 0-1.6.2-2.1.5s-.9.9-.9 1.6h-1.9c.1-1.2.5-2.1 1.4-2.7.9-.6 2-.9 3.4-.9s2.5.4 3.4 1.1c.9.7 1.3 1.7 1.3 2.8 0 1.1-.3 2-.9 2.6-.6.6-1.3 1.2-2.3 1.6l-2.7 1.1c-.7.3-1.2.6-1.5 1-.3.4-.5.8-.5 1.4v.6zM1051 543.7c1.6 0 2.9.6 3.9 1.8s1.4 2.9 1.4 5.2c0 2.3-.5 4-1.4 5.2s-2.2 1.8-3.9 1.8c-1.6 0-2.9-.6-3.9-1.8-1-1.2-1.4-2.9-1.4-5.2 0-2.3.5-4 1.4-5.2 1-1.2 2.3-1.8 3.9-1.8zm3.6 7.1c0-1.8-.3-3.1-.9-4.1-.6-.9-1.5-1.4-2.6-1.4-1.2 0-2 .5-2.6 1.4-.6.9-.9 2.3-.9 4.1 0 1.8.3 3.1.9 4.1.6.9 1.5 1.4 2.6 1.4 1.2 0 2-.5 2.6-1.4.6-1 .9-2.4.9-4.1zM1058.5 545c1-.1 1.8-.5 2.5-1.1h1.4v13.6h-1.7V546c-.7.5-1.5.7-2.2.8V545zM1074.3 544v1.6l-6.2 12h-2.3l6.5-11.9h-7.2V544h9.2z"/></g><g><path class="st4" d="M32.8 127.6l-.6-10h.4l.6 9.9c.2 2.9 1.9 5 4.5 5s4.3-2 4.5-5l.6-9.9h.4l-.6 10c-.2 3.2-2.1 5.3-4.9 5.3-2.8 0-4.7-2.1-4.9-5.3zM57.2 132.5l-4.8-8-4.8 8h-.5c1.7-2.8 3.3-5.6 5-8.4-1.1-1.9-2.4-4-3.9-6.5h8.2c-1.5 2.5-2.8 4.6-3.9 6.6l5 8.4h-.3zm-4.8-8.8l3.4-5.7H49c1.2 1.9 2.3 3.8 3.4 5.7zM72.5 118v6h5.8v.4h-5.8v7.7h6.7v.4H72v-15h7.2v.4h-6.7zM94.8 123.6v9.3l-9.7-14.3v14h-.4v-6-9.3l9.7 14.3v-14h.4v6zM113.9 132.5l-1.5-2.1c-1.1 1.5-2.8 2.4-4.9 2.4-3.7 0-6.8-3.4-6.8-8 0-4.4 3-7.6 7.3-7.6 1.9 0 3.8.7 5 1.7v.5c-1.3-1-3.2-1.7-5-1.7-4 0-6.9 3.1-6.9 7.2 0 4.3 3 7.5 6.4 7.5 2 0 3.6-.9 4.6-2.4-1.1-1.4-2.1-2.9-3.2-4.3h4.9c0 1.6-.5 3.1-1.3 4.3l1.8 2.4h-.4zm-1.6-2.7c.7-1 1.1-2.3 1.1-3.6h-3.8l2.7 3.6zM119.7 125.1v-7.5h.4v15h-.4v-7.5zM137.1 123.6v9.3l-9.7-14.3v14h-.4v-6-9.3l9.7 14.3v-14h.4v6zM144.2 118v6h5.8v.4h-5.8v7.7h6.7v.4h-7.2v-15h7.2v.4h-6.7zM156.9 118v6h5.8v.4h-5.8v7.7h6.7v.4h-7.2v-15h7.2v.4h-6.7zM173.2 126l3.2 6.5h-.4c-1-2.2-2.1-4.3-3.1-6.4-.5.1-1.1.1-1.7.1h-1.5v6.3h-.4v-6.7h1.9c.6 0 1.1 0 1.5-.1l-3.9-8.1h2.8c3.3 0 5.3 1.7 5.3 4.2-.2 2.2-1.4 3.7-3.7 4.2zm-.2-.4c2.2-.5 3.3-1.8 3.3-3.8 0-2.3-1.9-3.8-4.9-3.8h-2.1l3.7 7.6z"/></g><g><path class="st3" d="M32.7 164.1c2 0 3.7.6 4.9 1.8s1.8 2.9 1.8 4.9c0 2.1-.6 3.7-1.8 4.9s-2.9 1.8-4.9 1.8h-4v-13.6h4zm-2.3 12h2.3c1.5 0 2.7-.5 3.6-1.5.9-1 1.3-2.3 1.3-3.8s-.4-2.8-1.3-3.8-2.1-1.5-3.6-1.5h-2.3v10.6zM46.5 176.5c1.4 0 2.2-.6 2.4-1.9h1.7c-.2 1-.6 1.8-1.4 2.4-.8.6-1.7.9-2.8.9-1.4 0-2.5-.5-3.4-1.5-.9-1-1.3-2.3-1.3-3.9s.4-2.9 1.3-3.9 2-1.5 3.5-1.5 2.5.6 3.2 1.7c.7 1.1 1 2.5.7 4.1h-7.1c0 1.1.3 1.9.8 2.6.8.6 1.5 1 2.4 1zm1.3-7.8c-.3-.2-.7-.3-1.2-.3-.9 0-1.6.3-2.1.9s-.8 1.3-.9 2.2h5.5c0-1.4-.4-2.4-1.3-2.8zM57.5 167.1c1.2 0 2.2.3 2.9.9.7.6 1.2 1.4 1.4 2.3l-1.7.2c-.2-.6-.5-1.1-.9-1.4-.4-.3-.9-.5-1.4-.5-.9 0-1.7.3-2.2 1-.6.7-.9 1.6-.9 2.8s.3 2.1.8 2.9c.6.7 1.2 1.1 2.1 1.1.8 0 1.4-.2 1.9-.6.4-.4.6-.9.6-1.6h1.7c0 1.1-.4 2-1.2 2.7-.8.7-1.8 1-3 1-1.3 0-2.4-.5-3.3-1.5-.9-1-1.4-2.3-1.4-4 0-1.6.5-3 1.4-3.9 1-1 2-1.4 3.2-1.4zM71.2 176.1h7.9v1.6h-9.6v-2c0-1.6.6-2.8 1.8-3.5.4-.2.8-.5 1.3-.6l2.7-1.1c1.4-.5 2.1-1.4 2.1-2.7 0-.7-.2-1.3-.7-1.7-.5-.4-1.1-.7-2-.7-.9 0-1.6.2-2.1.5-.5.4-.9.9-.9 1.6h-1.9c.1-1.2.5-2.1 1.4-2.7.9-.6 2-.9 3.4-.9s2.5.4 3.4 1.1c.9.7 1.3 1.7 1.3 2.8s-.3 2-.9 2.6c-.6.6-1.3 1.2-2.3 1.6l-2.7 1.1c-.7.3-1.2.6-1.5 1s-.5.8-.5 1.4v.6zM87.1 163.8c1.6 0 2.9.6 3.9 1.8.9 1.2 1.4 2.9 1.4 5.2 0 2.3-.5 4-1.4 5.2-.9 1.2-2.2 1.8-3.9 1.8-1.6 0-2.9-.6-3.9-1.8-1-1.2-1.4-2.9-1.4-5.2 0-2.3.5-4 1.4-5.2 1-1.2 2.3-1.8 3.9-1.8zm3.5 7c0-1.8-.3-3.1-.9-4.1s-1.5-1.4-2.6-1.4c-1.2 0-2 .5-2.6 1.4s-.9 2.3-.9 4.1c0 1.8.3 3.1.9 4.1s1.5 1.4 2.6 1.4c1.2 0 2-.5 2.6-1.4s.9-2.3.9-4.1zM94.5 165.1c1-.1 1.8-.5 2.5-1.1h1.4v13.6h-1.7V166c-.7.5-1.5.7-2.2.8v-1.7zM106.7 163.8c.7 0 1.4.2 2.1.5.7.3 1.2.8 1.7 1.4 1 1.3 1.6 2.9 1.6 4.9 0 3.5-1 5.8-2.9 6.8-.7.3-1.4.5-2.2.5-1.5 0-2.7-.4-3.5-1.2-.9-.8-1.3-1.8-1.3-3h1.8c0 .8.3 1.5.8 2s1.1.7 1.9.7c.7 0 1.4-.1 1.8-.4 1.3-.8 2-2.7 2-5.5 0-.6 0-1.1-.1-1.6-.1 1.2-.6 2-1.3 2.6-.7.6-1.6.9-2.7.9s-2.1-.4-2.9-1.2c-.8-.8-1.2-1.8-1.2-3.1s.4-2.3 1.3-3 1.7-1.3 3.1-1.3zm2 2.3c-.5-.5-1.2-.7-2-.7s-1.5.2-2 .7c-.5.5-.8 1.1-.8 2s.3 1.5.8 2 1.2.7 2 .7 1.5-.3 2-.8.8-1.2.8-2-.3-1.4-.8-1.9zM119.1 170.6h5.9v1.5h-5.9v-1.5zM134.7 168.9c.7-1.2 1.7-1.8 3-1.8s2.5.5 3.4 1.5c.9 1 1.3 2.3 1.3 3.9s-.5 2.9-1.4 3.9c-.9 1-2 1.5-3.3 1.5-1.3 0-2.3-.5-2.9-1.5v6.3h-1.7v-15.4h1.4l.2 1.6zm3 7.5c.8 0 1.5-.3 2.1-1 .6-.7.9-1.6.9-2.8s-.3-2.2-.9-2.9c-.6-.7-1.3-1.1-2.1-1.1s-1.5.3-2 .8-.8 1.2-.8 2.1v2c0 .9.3 1.6.8 2.1s1.2.8 2 .8zM150.1 168.8c-1.6 0-2.5 1.3-2.5 3.8v5h-1.7v-10.3h1.7v2c.5-1.4 1.4-2.2 2.7-2.2.4 0 .8.1 1.2.2l-.1 1.7c-.4-.2-.8-.2-1.3-.2zM157.7 176.5c1.4 0 2.2-.6 2.4-1.9h1.7c-.2 1-.6 1.8-1.4 2.4-.8.6-1.7.9-2.8.9-1.4 0-2.5-.5-3.4-1.5-.9-1-1.3-2.3-1.3-3.9s.4-2.9 1.3-3.9 2-1.5 3.5-1.5 2.5.6 3.2 1.7c.7 1.1 1 2.5.7 4.1h-7.1c0 1.1.3 1.9.8 2.6.8.6 1.5 1 2.4 1zm1.3-7.8c-.3-.2-.7-.3-1.2-.3-.9 0-1.6.3-2.1.9s-.8 1.3-.9 2.2h5.5c0-1.4-.5-2.4-1.3-2.8zM165.8 167.8c.7-.5 1.7-.8 2.9-.8s2.2.3 2.9.8c.7.5 1.1 1.2 1.1 2H171c-.1-.9-.9-1.4-2.4-1.4-.7 0-1.2.2-1.6.5-.4.3-.6.7-.6 1 0 .4.1.7.4.9.3.3.7.5 1.4.7l2.1.7c.9.3 1.5.6 2 1s.7 1 .7 1.7-.4 1.4-1.1 2-1.8.9-3.2.9c-1.4 0-2.4-.3-3.2-.9-.8-.6-1.2-1.4-1.2-2.4h1.6c0 .6.3 1.1.8 1.5.5.3 1.1.5 1.9.5.7 0 1.4-.2 1.9-.5s.7-.7.7-1.1-.1-.8-.4-1c-.3-.2-.8-.4-1.4-.6l-2-.7c-1.8-.5-2.7-1.5-2.7-2.8 0-.8.4-1.5 1.1-2zM180.2 176.5c1.4 0 2.2-.6 2.4-1.9h1.7c-.2 1-.6 1.8-1.4 2.4-.8.6-1.7.9-2.8.9-1.4 0-2.5-.5-3.4-1.5-.9-1-1.3-2.3-1.3-3.9s.4-2.9 1.3-3.9 2-1.5 3.5-1.5 2.5.6 3.2 1.7c.7 1.1 1 2.5.7 4.1H177c0 1.1.3 1.9.8 2.6.7.6 1.4 1 2.4 1zm1.2-7.8c-.3-.2-.7-.3-1.2-.3-.9 0-1.6.3-2.1.9s-.8 1.3-.9 2.2h5.5c0-1.4-.4-2.4-1.3-2.8zM189.4 169.3c.7-1.5 1.8-2.2 3.5-2.2 1.2 0 2.2.4 2.9 1.2.7.8 1 1.9 1 3.3v6.1H195v-6.1c0-1-.2-1.7-.7-2.2s-1.1-.8-2-.8-1.6.4-2.1 1.1c-.5.7-.8 1.7-.8 2.9v5.1h-1.7v-10.3h1.5l.2 1.9zM206.1 177.3c-1.2.6-2.4.7-3.4.4-.7-.2-1.3-.7-1.6-1.4-.2-.4-.2-.8-.2-1.3v-6.3h-1.7v-1.3h1.7v-2.9h1.7v2.9h3.2v1.3h-3.2v6.3c0 1 .5 1.6 1.5 1.6.5 0 1.1-.1 1.8-.4l.2 1.1z"/></g><g><path class="st3" d="M27.7 601.1h2.1l4.6 13.6h-1.8l-1.2-3.5H26l-1.2 3.5H23l4.7-13.6zm-1.3 8.7h4.5l-2.2-6.7-2.3 6.7zM44.1 612.6c-.7 1.5-1.8 2.2-3.4 2.2-1.2 0-2.1-.3-2.8-1-.7-.6-1.1-1.6-1.1-3v-6.6h1.7v6.4c0 1.7.8 2.6 2.4 2.6.9 0 1.7-.4 2.3-1.1s.9-1.6.9-2.8v-5.2h1.7v10.3h-1.7v-1.8zM50.5 614.3c-.9-.4-1.3-1.1-1.3-1.9 0-.4.2-.8.5-1.2s.8-.6 1.3-.7c-.8-.7-1.2-1.6-1.2-2.7s.4-2 1.2-2.7c.8-.7 1.7-1 2.8-1 1.1 0 2 .3 2.8.8.1-.8.4-1.4.9-1.8s1.2-.7 2-.7l-.2 1.7c-1.3 0-1.9.5-2 1.6.5.6.8 1.4.8 2.2 0 1.1-.4 2-1.2 2.7-.8.7-1.8 1.1-3 1.1-.8 0-1.5-.2-2.2-.5-.3.1-.5.2-.8.4-.2.2-.3.5-.3.9 0 .8.6 1.1 1.9 1.1h4c1 0 1.7.2 2.3.6.6.4.8 1 .8 1.7 0 1.1-.5 2-1.6 2.9s-2.5 1.2-4.2 1.2c-1.7 0-3-.3-4-.9-1-.6-1.4-1.4-1.4-2.4 0-.6.2-1.1.5-1.5.6-.5 1-.7 1.6-.9zm-.3 2.3c0 .5.3 1 .9 1.4.6.4 1.5.6 2.7.6s2.2-.3 3-.8c.8-.5 1.2-1.1 1.2-1.8 0-.3-.1-.6-.4-.9-.2-.2-.6-.4-1.1-.4h-4.2c-.7 0-1.3.2-1.7.5-.2.4-.4.8-.4 1.4zm6.4-8.8c0-.7-.2-1.3-.7-1.8s-1.1-.7-1.8-.7-1.4.2-1.8.7-.7 1.1-.7 1.8.2 1.4.7 1.8 1.1.7 1.8.7c.8 0 1.4-.2 1.8-.7.4-.4.7-1.1.7-1.8zM68.3 613.1h7.9v1.6h-9.6v-2c0-1.6.6-2.8 1.8-3.5.4-.2.8-.5 1.3-.6l2.7-1.1c1.4-.5 2.1-1.4 2.1-2.7 0-.7-.2-1.3-.7-1.7-.5-.4-1.1-.7-2-.7-.9 0-1.6.2-2.1.5-.5.4-.9.9-.9 1.6h-1.9c.1-1.2.5-2.1 1.4-2.7.9-.6 2-.9 3.4-.9s2.5.4 3.4 1.1c.9.7 1.3 1.7 1.3 2.8s-.3 2-.9 2.6c-.6.6-1.3 1.2-2.3 1.6l-2.7 1.1c-.7.3-1.2.6-1.5 1-.3.4-.5.8-.5 1.4v.6zM84.2 600.8c1.6 0 2.9.6 3.9 1.8.9 1.2 1.4 2.9 1.4 5.2 0 2.3-.5 4-1.4 5.2-.9 1.2-2.2 1.8-3.9 1.8-1.6 0-2.9-.6-3.9-1.8-1-1.2-1.4-2.9-1.4-5.2 0-2.3.5-4 1.4-5.2 1-1.2 2.3-1.8 3.9-1.8zm3.5 7c0-1.8-.3-3.1-.9-4.1s-1.5-1.4-2.6-1.4c-1.2 0-2 .5-2.6 1.4s-.9 2.3-.9 4.1.3 3.1.9 4.1c.6.9 1.5 1.4 2.6 1.4 1.2 0 2-.5 2.6-1.4.6-.9.9-2.3.9-4.1zM91.6 602.1c1-.1 1.8-.5 2.5-1.1h1.4v13.6h-1.7V603c-.7.5-1.5.7-2.2.8v-1.7zM108.6 604.5c0 1.4-.8 2.4-2.4 3 .9.2 1.6.6 2.1 1.2s.8 1.3.8 2.2c0 1.2-.5 2.2-1.4 2.9-.9.7-2.1 1.1-3.6 1.1s-2.7-.4-3.8-1.2c-1-.8-1.6-1.9-1.6-3.2h1.8c0 .9.4 1.6 1 2.1.7.5 1.5.7 2.5.7s1.8-.2 2.3-.7c.6-.5.8-1.1.8-1.8s-.3-1.3-.8-1.7c-.5-.5-1.4-.7-2.6-.7h-1.6V607h1.1c1 0 1.9-.2 2.5-.6s.9-1 .9-1.7-.2-1.3-.7-1.7-1.1-.7-1.9-.7-1.5.1-2 .4c-.5.3-.9.8-1.1 1.6h-1.8c.2-1.2.7-2.1 1.5-2.7.8-.6 1.9-.9 3.2-.9s2.4.3 3.3 1c1.1.9 1.5 1.8 1.5 2.8z"/></g><g><path class="st3" d="M86.5 288.6c-.3.5-.8 1-1.5 1.3-.6.3-1.4.5-2.3.5-1.4 0-2.5-.3-3.4-1s-1.4-1.6-1.5-2.8H81c0 .5.2.8.5 1.1.3.3.6.4 1.1.4.4 0 .7-.1.9-.3.2-.2.3-.5.3-.8 0-.3-.1-.6-.3-.8-.2-.2-.5-.4-.8-.5s-.7-.3-1.3-.5c-.8-.3-1.4-.5-1.9-.8s-.9-.6-1.3-1.1-.5-1.1-.5-1.9c0-.7.2-1.4.6-1.9s.9-.9 1.5-1.2c.7-.3 1.4-.4 2.3-.4 1.4 0 2.5.3 3.3 1 .8.7 1.3 1.5 1.4 2.7h-3.2c-.1-.4-.2-.7-.4-1s-.6-.4-1-.4c-.3 0-.6.1-.8.3-.2.2-.3.5-.3.8 0 .3.1.5.3.7.2.2.4.4.7.5.3.1.7.3 1.3.5.8.3 1.4.5 1.9.8.5.3.9.6 1.3 1.1.4.5.5 1.2.5 2-.1.5-.3 1.1-.6 1.7zM97.7 278.5c.9.5 1.7 1.3 2.2 2.2s.8 2 .8 3.3c0 1.2-.3 2.3-.8 3.3s-1.3 1.7-2.2 2.3c-.9.5-2 .8-3.1.8s-2.2-.3-3.1-.8c-.9-.5-1.7-1.3-2.2-2.3s-.8-2.1-.8-3.3c0-1.2.3-2.3.8-3.3s1.3-1.7 2.2-2.2c.9-.5 2-.8 3.1-.8s2.1.3 3.1.8zm-5.5 3c-.6.6-.9 1.5-.9 2.6s.3 1.9.9 2.6c.6.6 1.4 1 2.3 1 1 0 1.7-.3 2.3-1 .6-.6.9-1.5.9-2.6s-.3-1.9-.9-2.6c-.6-.6-1.4-1-2.3-1-1 0-1.7.3-2.3 1zM110.5 277.9v2.4h-5.1v2.7h3.9v2.3h-3.9v5h-3V278h8.1zM120.8 277.9v2.4h-3.3v10h-3v-10h-3.3v-2.4h9.6zM138.9 277.9l-2.9 12.3h-3.7l-2-8.2-2 8.2h-3.7l-2.9-12.3h3.2l1.6 8.9 2.2-8.9h3.3l2.2 8.9 1.6-8.9h3.1zM148.1 288h-4.6l-.8 2.2h-3.1l4.5-12.2h3.4l4.5 12.2h-3.2l-.7-2.2zm-.8-2.3l-1.5-4.5-1.6 4.5h3.1zM159.5 290.2l-2.7-4.7h-.7v4.7h-3v-12.3h5.1c1 0 1.8.2 2.5.5s1.2.8 1.5 1.4c.3.6.5 1.3.5 2 0 .9-.2 1.7-.7 2.3-.5.6-1.2 1.1-2.2 1.3l2.9 4.8h-3.2zm-3.4-6.6h1.8c.6 0 1-.1 1.3-.4.3-.3.4-.6.4-1.2 0-.5-.1-.9-.4-1.2-.3-.3-.7-.4-1.3-.4h-1.8v3.2zM167.2 280.3v2.6h4.2v2.2h-4.2v2.7h4.7v2.4h-7.7v-12.3h7.7v2.4h-4.7zM81.1 298.8v12.3h-3v-12.3h3zM94.1 311.2h-3l-5-7.6v7.6h-3v-12.3h3l5 7.6v-7.6h3v12.3zM105.7 300c1 .8 1.7 1.9 2 3.3h-3.2c-.2-.6-.6-1-1.1-1.3-.5-.3-1.1-.5-1.7-.5-.9 0-1.6.3-2.1 1-.5.6-.8 1.5-.8 2.6s.3 1.9.8 2.6c.5.6 1.2 1 2.1 1 .7 0 1.2-.2 1.7-.5s.8-.8 1.1-1.3h3.2c-.3 1.4-1 2.5-2 3.3s-2.3 1.2-3.9 1.2c-1.2 0-2.2-.3-3.2-.8-.9-.5-1.6-1.3-2.1-2.2s-.7-2-.7-3.3.2-2.3.7-3.3 1.2-1.7 2.1-2.2c.9-.5 2-.8 3.2-.8 1.6-.1 2.9.3 3.9 1.2zM112.3 298.8v7.1c0 .8.2 1.4.5 1.9.4.4.9.6 1.6.6.7 0 1.2-.2 1.6-.6.4-.4.5-1.1.5-1.9v-7.1h3v7.1c0 1.2-.2 2.1-.7 2.9-.5.8-1.1 1.4-1.9 1.8s-1.7.6-2.7.6c-1 0-1.9-.2-2.6-.6s-1.3-1-1.8-1.8c-.4-.8-.6-1.8-.6-2.9v-7.1h3.1zM130.7 305.9c.4.5.7 1.2.7 1.9 0 1.1-.4 1.9-1.1 2.5-.7.6-1.7.9-3 .9h-5.7v-12.3h5.6c1.3 0 2.2.3 2.9.8.7.5 1 1.3 1 2.3 0 .7-.2 1.4-.6 1.9-.4.5-.9.8-1.6 1 .8.1 1.4.5 1.8 1zm-6.2-2h2c1 0 1.6-.4 1.6-1.3s-.5-1.3-1.6-1.3h-1.9v2.6zm3.8 3.5c0-.4-.1-.8-.4-1-.3-.2-.7-.4-1.2-.4h-2.1v2.8h2.1c1.1-.1 1.6-.5 1.6-1.4zM140.6 308.9H136l-.8 2.2H132l4.5-12.2h3.4l4.5 12.2h-3.2l-.6-2.2zm-.8-2.2l-1.5-4.5-1.6 4.5h3.1zM154.5 298.8v2.4h-3.3v10h-3v-10h-3.3v-2.4h9.6zM164.8 299.5c.9.5 1.7 1.3 2.2 2.2s.8 2 .8 3.3c0 1.2-.3 2.3-.8 3.3s-1.3 1.7-2.2 2.3c-.9.5-2 .8-3.1.8s-2.2-.3-3.1-.8c-.9-.5-1.7-1.3-2.2-2.3s-.8-2.1-.8-3.3c0-1.2.3-2.3.8-3.3s1.3-1.7 2.2-2.2c.9-.5 2-.8 3.1-.8s2.2.2 3.1.8zm-5.5 2.9c-.6.6-.9 1.5-.9 2.6s.3 1.9.9 2.6c.6.6 1.4 1 2.3 1 1 0 1.7-.3 2.3-1 .6-.6.9-1.5.9-2.6s-.3-1.9-.9-2.6c-.6-.6-1.4-1-2.3-1-.9 0-1.7.3-2.3 1zM175.9 311.2l-2.7-4.7h-.7v4.7h-3v-12.3h5.1c1 0 1.8.2 2.5.5s1.2.8 1.5 1.4c.3.6.5 1.3.5 2 0 .9-.2 1.7-.7 2.3-.5.6-1.2 1.1-2.2 1.3l2.9 4.8h-3.2zm-3.4-6.7h1.8c.6 0 1-.1 1.3-.4.3-.3.4-.6.4-1.2 0-.5-.1-.9-.4-1.2-.3-.3-.7-.4-1.3-.4h-1.8v3.2z"/></g><g><defs><path id="SVGID_1_" d="M22 538h42v47H22z"/></defs><clipPath id="SVGID_2_"><use xlink:href="#SVGID_1_" overflow="visible"/></clipPath><g clip-path="url(#SVGID_2_)"><path class="st6" d="M47.3 578.9h-8.7c-.9 0-1.6-.7-1.6-1.6 0-.9.7-1.6 1.6-1.6h8.7c.9 0 1.6.7 1.6 1.6 0 .9-.8 1.6-1.6 1.6zm-8.7-2.4c-.5 0-.9.4-.9.8 0 .5.4.8.9.8h8.7c.5 0 .9-.4.9-.8 0-.5-.4-.8-.9-.8h-8.7zM42.9 585c-1.2 0-2.2-.8-2.5-1.9-1.6-.2-2.7-1.5-2.7-3.1v-.4h10.6v.4c0 1.6-1.2 2.9-2.7 3.1-.4 1.1-1.5 1.9-2.7 1.9zm-4.5-4.7c.2 1.1 1.1 2 2.3 2.1h.3v.3c.1.9.9 1.6 1.9 1.6s1.7-.7 1.9-1.6v-.3h.3c1.2-.1 2.1-.9 2.3-2.1h-9zM48.6 575.1H37.1V571c-1.1-1.8-2.4-3.7-3.7-5.4-1.7-2.1-2.6-4.7-2.6-7.3 0-6.6 5.4-11.9 12.1-11.9 6.7 0 12.1 5.3 12.1 11.9 0 2.7-.9 5.2-2.6 7.3-1.2 1.5-2.6 3.5-3.8 5.5v4zm-10.7-.7H48v-3.5l.1-.1c1.2-2 2.7-4.1 3.9-5.6 1.6-2 2.4-4.4 2.4-6.9 0-6.2-5.1-11.2-11.4-11.2-6.3 0-11.4 5-11.4 11.2 0 2.5.8 4.9 2.4 6.9 1.4 1.7 2.7 3.6 3.8 5.5l.1.1v3.6z"/><path class="st6" d="M39 562l-.8.2 2.8 12.3.8-.2L39 562zM46.8 562L44 574.6l.7.1 2.8-12.6-.7-.1zM45 582.4h-4.1v.7H45v-.7z"/><path d="M42.3 566.4l-.7-2.7-2 1.3-.3-.4 2.6-1.7.5 1.9 1.3-3.2 1.1 3.1 1.9-.9.2.5-2.5 1.1-.8-2.3-1.3 3.3z" fill="#fff" stroke="#ffd747" stroke-width=".5"/><path class="st8" d="M43.4 543.9c-.2 0-.3-.1-.3-.3v-5.3c0-.2.1-.3.3-.3.2 0 .3.1.3.3v5.3c0 .2-.2.3-.3.3zM51.6 545.9h-.2c-.1-.1-.2-.3-.1-.4l2.8-4.5c.1-.1.3-.2.4-.1.1.1.2.3.1.4l-2.8 4.5s-.1.1-.2.1zM56.7 552.3c-.1 0-.2-.1-.3-.2-.1-.2 0-.3.1-.4l4.8-2.5c.2-.1.3 0 .4.1.1.2 0 .3-.1.4l-4.8 2.5c.1 0 0 .1-.1.1zM63.7 559.8l-5.4-.3c-.2 0-.3-.2-.3-.3 0-.2.2-.3.3-.3l5.4.3c.2 0 .3.2.3.3 0 .2-.2.3-.3.3zM60.2 570.5c-.1 0-.1 0-.2-.1l-4.4-3c-.1-.1-.2-.3-.1-.4.1-.1.3-.2.4-.1l4.4 3c.1.1.2.3.1.4 0 .1 0 .2-.2.2zM34.3 545.9c-.1 0-.2-.1-.3-.1l-2.8-4.5c-.1-.1 0-.3.1-.4.1-.1.3 0 .4.1l2.8 4.5c.1.1 0 .3-.1.4h-.1zM29.2 552.3h-.1l-4.8-2.5c-.2-.1-.2-.3-.1-.4.1-.2.3-.2.4-.1l4.8 2.5c.2.1.2.3.1.4-.1 0-.2.1-.3.1zM22.3 559.8c-.2 0-.3-.1-.3-.3 0-.2.1-.3.3-.3l5.4-.3c.2 0 .3.1.3.3 0 .2-.1.3-.3.3l-5.4.3zM25.7 570.5c-.1 0-.2 0-.3-.1-.1-.1-.1-.3.1-.4l4.4-3c.1-.1.3-.1.4.1.1.1.1.3-.1.4l-4.4 3c0-.1 0 0-.1 0z"/></g></g><path class="st3" d="M50.9 50.6c3 0 5.8.4 8.5 1.3 2.6.9 4.9 2.2 6.8 3.9 1.9 1.8 3.4 3.9 4.5 6.6 1.1 2.6 1.6 5.7 1.6 9.3 0 3.1-.4 6-1.3 8.6-.9 2.6-2.2 4.9-4 6.8-1.8 1.9-4 3.4-6.7 4.5-2.6 1.1-5.8 1.6-9.4 1.6H30.6V50.6h20.3zm-.8 34.7c1.5 0 2.9-.2 4.4-.7 1.4-.4 2.6-1.2 3.8-2.2 1.1-1 2-2.3 2.6-4 .7-1.6 1-3.6 1-6 0-2.1-.2-4.1-.7-5.8-.5-1.7-1.2-3.2-2.3-4.4-.9-1.2-2.3-2.2-4.1-2.8-1.7-.7-3.9-1-6.4-1H41v26.9h9.1z"/><path class="st3" d="M82.5 50.6v34.8h23v7.9H72.1V50.6h10.4z"/><path d="M129.6 50.6h9.6v7.9h-9.6" fill="#32bbaf"/><path class="st3" d="M123.4 50.6H89.8v7.9h18.6v34.8h10.4V58.4h9.4v-7.9h-4.8z"/><path class="st3" d="M122.4 79.2v12.5h7.7v1.1h-9V79.2h1.3z"/><path class="st3" d="M136 79.2l5.4 13.7H140l-1.7-4.2h-6.2l-1.6 4.2h-1.4l5.5-13.7h1.4zm1.9 8.3l-2.6-7-2.7 7h5.3zM147.7 79.2c.6 0 1.1 0 1.6.2.5.1 1 .3 1.4.5.4.3.7.6 1 1 .3.5.4 1 .4 1.6 0 .4 0 .7-.2 1-.1.3-.3.6-.5.9-.2.3-.5.5-.8.7-.3.2-.6.3-1 .4.9.1 1.6.5 2.1 1.1.5.6.8 1.3.8 2.3v.8c0 .3-.1.5-.2.8-.1.3-.3.6-.5.8-.2.3-.5.5-.9.8-.4.2-.8.4-1.3.5s-1.2.2-1.9.2h-5.8V79.2h5.8zm0 6c.5 0 1 0 1.3-.2.4-.1.7-.3 1-.5.3-.2.5-.5.6-.8.1-.3.2-.6.2-.9 0-1.7-1-2.6-3.1-2.6h-4.5v4.9h4.5zm0 6.6c.5 0 .9 0 1.4-.1.4-.1.8-.3 1.1-.5.3-.2.6-.5.8-.9.2-.4.3-.8.3-1.4 0-.9-.3-1.6-.9-2-.6-.4-1.5-.7-2.7-.7h-4.5v5.5l4.5.1zM154.8 90.1c.2.5.5.8 1 1.1.4.3.9.5 1.4.6.5.1 1.1.2 1.8.2.4 0 .8 0 1.2-.2.4-.1.8-.3 1.2-.5.4-.2.7-.5.9-.9.3-.3.4-.8.4-1.3 0-.4-.1-.7-.3-1-.2-.3-.4-.5-.7-.7-.3-.2-.6-.3-.9-.5-.3-.1-.7-.2-1-.3l-3.1-.8c-.4-.1-.8-.2-1.2-.4-.4-.2-.7-.4-1-.6-.3-.3-.5-.6-.7-.9-.2-.3-.3-.8-.3-1.3 0-.3.1-.7.2-1.2s.4-.9.7-1.3c.3-.4.8-.7 1.4-1 .6-.3 1.4-.4 2.4-.4.7 0 1.3.1 1.9.3.6.2 1.1.5 1.6.8.5.3.8.8 1.1 1.3.3.5.4 1.1.4 1.8h-1.3c0-.5-.1-1-.3-1.4-.2-.4-.5-.7-.8-1-.3-.3-.7-.5-1.2-.6-.5-.1-.9-.2-1.4-.2-.5 0-.9 0-1.3.1s-.8.3-1.1.5c-.3.2-.5.5-.8.8-.2.3-.3.8-.3 1.3 0 .3 0 .6.2.8.1.3.3.4.5.6.2.2.4.3.7.4.3.1.5.2.8.3l3.3.8c.5.1.9.3 1.4.5.4.2.8.4 1.1.7.3.3.6.6.8 1 .2.4.3.9.3 1.4v.6c0 .3-.1.5-.2.8-.1.3-.3.6-.5.9-.2.3-.5.5-.9.8-.4.3-.9.4-1.4.6-.6.1-1.3.2-2.1.2s-1.6-.1-2.2-.3c-.7-.2-1.3-.5-1.8-.8-.5-.4-.8-.9-1.1-1.5-.3-.6-.4-1.3-.3-2.2h1.3c-.1 1.1 0 1.7.2 2.1zM164 79.2v-.8h4.5v.8h-1.7v3.7h-1.1v-3.7H164zm6.8-.7l1.3 3.2 1.3-3.2h1.5v4.4h-1v-3.6l-1.4 3.6h-.8l-1.5-3.6v3.6h-1v-4.4h1.6z"/><path d="M913.8 129.1c1 .1 1.9.1 2.9.3 2.1.3 4.2 1.1 6 2.1 1.5.9 3 1.8 4.1 3.2.2.2.5.4.7.6 1.6 1.7 2.8 3.6 3.7 5.8 1.1 2.5 1.6 5.2 1.5 8-.1 4.7-1.9 9.3-5.1 12.8-.2.2-.5.4-.7.6-.2.2-.3.4-.4.5-1.6 1.5-3.4 2.7-5.3 3.5-2.6 1.2-5.4 1.7-8.3 1.7-.4 0-.7 0-1.1-.1-.9-.1-1.9-.2-2.8-.4-2.2-.5-4.3-1.3-6.2-2.6-.9-.6-1.7-1.2-2.5-1.9-.3-.2-.5-.5-.8-.8-.2-.2-.4-.3-.6-.5-1.6-1.7-2.8-3.6-3.7-5.7-1.1-2.5-1.6-5.2-1.5-8 .1-.9.1-1.8.2-2.7.3-2.2 1.1-4.2 2.1-6.2.8-1.4 1.7-2.7 2.8-3.9.2-.3.5-.5.8-.7.3-.3.5-.6.8-.8 1.5-1.3 3.1-2.3 4.8-3.1 2.9-1.3 5.7-1.8 8.6-1.7zm-4.3 12.1c1.1-1.1 2.4-1.8 3.8-2.1.4-.1.7 0 1 .3l.3.3c.5.7.8 1.5.8 2.4 0 .5.1 1.1-.1 1.6-.1.2 0 .5 0 .7-.2 1.4-.8 2.6-1.9 3.5l-.1.1h.2c.7-.2 1.4-.6 2-1.1.6-.5 1-1.2 1.3-1.9.3-.8.4-1.7.5-2.6v-1.7c0-.4 0-.9.1-1.3.1-.7.4-1.2 1-1.5.9-.4 1.7-.9 2.2-1.7.3-.4.5-.7.6-1.1v-.2c-.1 0-.2.1-.2.1-.2.2-.4.4-.7.6-.8.6-1.8 1-2.8 1.2-1 .2-2 .3-3 .5-2.2.4-4 1.6-5.2 3.5-.1.2-.2.2-.4.1-.4-.3-.9-.6-1.3-.9-.3-.2-.5-.4-.7-.6-.2-.2-.4-.5-.5-.8-.1-.2 0-.5 0-.7 0-.2.1-.5.1-.7 0-.3 0-.7-.1-1-.1-.8-.4-1.5-.9-2.1l-.2-.2v.2c.3 1.1.3 2.3 0 3.4s-.8 2.2-1.2 3.2c-.4.9-.6 2-.6 3 0 .3 0 .7.1 1 .1.8.4 1.6.8 2.3.1.2.2.3.3.5h.1v-.2c0-.1-.1-.2-.1-.2-.2-.9-.2-1.7-.1-2.6.1-.5.3-1.1.4-1.6.1-.3.3-.5.7-.6.7-.2 1.5-.2 2.2.1.7.2 1.3.6 1.8 1 1 .7 1.9 1.5 2.4 2.6.2.5.5 1.1.5 1.6v.1h.1c0-.1.1-.3.1-.4.2-1.1.1-2.2-.3-3.1-.4-.9-1.1-1.7-2-2.3l-1-.7zm7.3 14.9c-.1 0-.2 0-.2.1-1 1.1-2.4 1.9-3.8 2.2-.4.1-.7 0-.9-.3-.4-.4-.8-.9-.9-1.4-.3-.9-.4-1.8-.3-2.8 0-.1.1-.2.1-.3v-.9c.2-1.3.7-2.4 1.8-3.2 0 0 0-.1.1-.1h-.1c-.3.1-.6.3-.9.4-1.1.7-2 1.6-2.4 2.9-.2.6-.3 1.3-.4 2-.1.8 0 1.6 0 2.3 0 .3-.1.5-.1.8v.1c.1.3 0 .6-.1.9-.1.4-.3.7-.6.9-.4.2-.7.4-1.1.6-.8.5-1.4 1.1-1.8 1.9-.1.3-.2.5-.3.9.1 0 .2-.1.2-.1.1-.1.2-.2.3-.4.8-.8 1.8-1.4 3-1.7 1-.3 2.1-.4 3.1-.7 1.7-.4 3.1-1.1 4.2-2.5.3-.4.6-.8.8-1.2.2-.1.3-.2.3-.4zm4.5-7c0 .1 0 .2.1.2.3.9.4 1.9.3 2.9-.1.5-.1.9-.2 1.4-.1.4-.4.7-.8.8-.5.2-1 .2-1.5.1-.7-.1-1.3-.4-1.9-.7-.8-.4-1.5-.9-2.1-1.4-.2-.2-.4-.4-.6-.7-.5-.6-.9-1.4-1-2.2l-.1-.1-.1.1c-.1.7-.2 1.4 0 2 .2.6.3 1.1.6 1.6.4.7.9 1.2 1.6 1.7.6.4 1.3.8 1.9 1.2.7.4 1.3.8 2 1.2.2.1.4.4.5.6.1.2.2.5.1.8 0 .5 0 1 .1 1.6.2.8.4 1.5 1 2.1.1.1.2.2.4.3h.1c0-.1 0-.1-.1-.2-.4-.9-.4-1.8-.3-2.8.1-1 .4-2 .8-3 .5-1.2.8-2.5.8-3.8 0-.2 0-.4-.1-.6l-.6-2.1c-.1-.4-.4-.7-.7-1.1-.1.1-.2.1-.2.1zm-13.3 6.1l-.1-.1c-.4-.2-.7-.3-1.1-.4-.6-.3-1.2-.7-1.6-1.2l-.3-.3-.7-.7c-.2-.2-.2-.5-.1-.8.2-.6.6-1.2 1.1-1.6.6-.5 1.3-.9 2-1.2.6-.2 1.1-.4 1.7-.6.6-.1 1.2-.1 1.8-.1.5.1 1 .2 1.5.4h.2l-.1-.2-.1-.1c-.1-.1-.2-.3-.4-.4-.9-.8-2.1-1-3.2-1.2h-.2c-.1 0-.2.1-.3.1-.3.1-.5.1-.8.1-1 .2-2 .7-3 1.1-.7.3-1.3.5-2 .7-.4.1-.8 0-1.2-.3-.7-.6-1.5-1.1-2.3-1.3-.5-.2-1.1-.2-1.6-.1-.1 0-.1.1-.2.1 0 0 0 .1.1.1l.2.1c.8.2 1.5.7 2.2 1.3.9.8 1.5 1.8 2.2 2.8.4.6.8 1.2 1.3 1.7.6.6 1.4 1.1 2.2 1.5.7.3 1.5.5 2.3.7.2 0 .4-.1.5-.1zm5.6-6.4c.1.2.3.3.4.4.8.6 1.8 1 2.8 1.1h.8c1-.1 1.9-.5 2.8-.9.9-.5 1.8-1 2.8-1.5.7-.3 1.3-.4 2 .1.3.2.6.4 1 .6.7.3 1.5.5 2.3.5.2 0 .5-.1.7-.2l-.1-.1h-.1c-.5-.2-1-.3-1.5-.5-.6-.3-1.2-.8-1.7-1.2-.3-.3-.6-.7-.9-1-.2-.2-.4-.4-.6-.7-.4-.5-.8-1-1.2-1.4-1-.9-2-1.6-3.3-1.9-.6-.1-1.2-.2-1.9-.3-.2 0-.3.1-.5.1 0 .1.1.1.1.1 1.5.3 2.7 1.1 3.8 2.2.3.3.4.8.3 1.2-.1.7-.6 1.2-1 1.7-.7.7-1.5 1.1-2.3 1.5-1 .5-2.2.7-3.4.6-.4 0-.7-.2-1.1-.2 0-.2-.1-.2-.2-.2zm-9.3-9.2c0-.2 0-.3-.1-.5s-.2-.3-.3-.4c-.3-.3-.6-.4-1-.5h-.1l-.3.1c-.4.1-.7.4-.8.7-.1.3-.2.5-.1.9.3.7.8 1.1 1.5 1 .3 0 .6-.2.9-.5.2-.1.3-.5.3-.8zM925 157c0-.7-.6-1.4-1.3-1.4-.4 0-.7.1-1 .4-.3.3-.5.6-.5 1 0 .3.2.7.4 1 .3.3.6.4 1 .4.2 0 .4 0 .5-.1.2-.1.3-.2.4-.3.1-.1.2-.3.3-.5.2-.2.2-.4.2-.5zm-13.9 6.4c.4 0 .7-.2 1-.4.3-.3.4-.6.5-1 0-.6-.8-1.4-1.5-1.4-.3 0-.6.2-.9.4-.3.2-.5.6-.5 1 0 .2 0 .4.1.5.1.2.2.3.3.5s.3.2.5.3c.1 0 .3.1.5.1zm-9.4-11.1c0-.8-.7-1.4-1.4-1.4-.3 0-.7.1-.9.4-.2.2-.4.6-.4.9 0 .9.6 1.5 1.4 1.5.8-.1 1.2-.6 1.3-1.4zM924 144c0 .7.7 1.4 1.4 1.4.4 0 .7-.2 1-.5.3-.3.4-.7.4-1 0-.7-.7-1.3-1.4-1.3-.4 0-.7.2-1 .4-.2.3-.4.7-.4 1zm-8.7-7c.4 0 .7-.1.9-.4.3-.3.5-.7.5-1 0-.3-.2-.6-.4-.9-.2-.3-.6-.4-1-.5-.4 0-.7.2-1 .4-.3.3-.4.6-.4 1 0 .2 0 .4.1.5.1.2.2.3.3.4.1.1.3.2.4.3.2.1.4.2.6.2z" fill="#9970ff"/><path class="st3" d="M954.2 142.6c1.5 0 2.8.5 3.7 1.5.9 1 1.4 2.4 1.4 4.2v7.7h-3.4v-7.3c0-1.1-.3-1.9-.8-2.4-.5-.6-1.3-.9-2.2-.9-1 0-1.7.3-2.3.9-.6.6-.9 1.5-.9 2.7v7.1h-3.4v-17.8h3.4v7.1c.4-.9.9-1.6 1.7-2.1.8-.5 1.8-.7 2.8-.7zm20.8.2v13.3h-3.4v-2.7c-.4.9-.9 1.6-1.8 2.1-.8.5-1.7.7-2.8.7-1.5 0-2.8-.5-3.7-1.5-.9-1-1.4-2.4-1.4-4.2v-7.7h3.4v7.3c0 1.1.3 1.9.8 2.5.5.6 1.3.9 2.2.9 1 0 1.8-.3 2.3-.9.6-.6.9-1.5.9-2.7v-7.1h3.5zm20-.2c1.6 0 2.9.5 3.8 1.5.9 1 1.4 2.4 1.4 4.2v7.7h-3.4v-7.3c0-1-.3-1.8-.8-2.4-.5-.6-1.2-.8-2.1-.8-.9 0-1.7.3-2.3.9-.6.6-.8 1.5-.8 2.6v7.1h-3.4v-7.3c0-1-.3-1.8-.8-2.4-.5-.6-1.2-.8-2.1-.8-.9 0-1.7.3-2.3.9-.6.6-.8 1.5-.8 2.6v7.1H978v-13.3h3.4v2.5c.4-.9.9-1.5 1.7-2 .8-.5 1.7-.7 2.7-.7 1.1 0 2 .3 2.8.8.8.5 1.4 1.2 1.8 2.2.4-.9 1-1.6 1.8-2.2.8-.7 1.7-.9 2.8-.9zm7.8-3.6c0-.5.2-1 .6-1.3.4-.4.9-.5 1.5-.5s1.1.2 1.5.5c.4.3.6.8.6 1.3s-.2 1-.6 1.3c-.4.3-.9.5-1.5.5s-1.1-.2-1.5-.5c-.4-.4-.6-.8-.6-1.3zm3.8 3.8v13.3h-3.4v-13.3h3.4zm10.9-.2c1.5 0 2.8.5 3.7 1.5.9 1 1.4 2.4 1.4 4.2v7.7h-3.4v-7.3c0-1.1-.3-1.9-.8-2.4-.5-.6-1.3-.9-2.2-.9-1 0-1.7.3-2.3.9-.6.6-.9 1.5-.9 2.7v7.1h-3.4v-13.3h3.4v2.7c.4-.9.9-1.6 1.7-2.1.9-.6 1.8-.8 2.8-.8zm14.2 0c1.3 0 2.5.3 3.5.8s1.9 1.3 2.4 2.4c.6 1 .9 2.2.9 3.6s-.3 2.6-.9 3.6c-.6 1-1.4 1.8-2.4 2.4-1 .5-2.2.8-3.5.8-1.3 0-2.5-.3-3.5-.8-1-.6-1.8-1.4-2.4-2.4s-.9-2.2-.9-3.6.3-2.6.9-3.6c.6-1 1.4-1.8 2.4-2.4 1-.5 2.2-.8 3.5-.8zm0 2.9c-.9 0-1.7.3-2.4 1s-1 1.6-1 2.9c0 1.3.3 2.2 1 2.9.7.7 1.5 1 2.4 1 .9 0 1.7-.3 2.4-1s1-1.6 1-2.9c0-1.3-.3-2.2-1-2.9-.7-.6-1.5-1-2.4-1zm13.8-2.9c1.6 0 2.9.4 3.9 1.2 1 .8 1.6 1.9 1.8 3.3h-3.2c-.1-.6-.4-1.2-.9-1.5-.4-.4-1-.6-1.8-.6-.6 0-1 .1-1.3.4-.3.3-.5.6-.5 1.1 0 .4.1.7.4.9s.6.4 1 .5c.4.1.9.3 1.7.5 1 .2 1.8.5 2.4.7.6.2 1.2.6 1.6 1.2.5.5.7 1.2.7 2.2 0 1.1-.4 2.1-1.3 2.8-.9.7-2.1 1.1-3.6 1.1-1.7 0-3.1-.4-4.2-1.2-1-.8-1.7-1.9-1.9-3.3h3.2c.1.7.4 1.2.9 1.6.5.4 1.1.6 1.9.6.6 0 1-.1 1.3-.4.3-.3.5-.7.5-1.1 0-.4-.1-.7-.4-.9-.3-.2-.6-.4-1-.6-.4-.1-.9-.3-1.7-.5-1-.2-1.8-.4-2.4-.7-.6-.2-1.1-.6-1.6-1.1-.4-.5-.6-1.2-.6-2.1 0-1.2.4-2.1 1.3-2.8s2.2-1.3 3.8-1.3z"/><g><path class="st3" d="M1032.8 463.5v-7.7c0-3.2 1.4-4.6 4.4-4.6h4.8c2.8.1 4.1 1.6 4.1 4.4v7.7c0 2.9-1.5 4.4-4.3 4.4-1.9 0-3.7.1-5.6 0-1.5-.1-1.9.5-1.7 1.9.1.5.1 1.1 0 1.6-.1.7.6 1.8-.9 1.7-1.3 0-.8-1-.8-1.7v-7.7zm1.8-3v4.7c0 .8.2 1 1 1h5.6c2.2 0 3.2-1 3.2-3.2v-7.2c0-1.8-.7-2.7-2.5-3-1.6-.3-3.2-.3-4.8 0-1.7.3-2.5 1.2-2.5 3.1-.1 1.6 0 3.1 0 4.6z"/><path class="st11" d="M922.7 455.6c0 2.6.1 5.2 0 7.8-.1 2.8-1.3 4.1-3.9 4.3-2 .1-4 .1-5.9 0-2.1-.1-3.4-1.6-3.5-3.8-.1-2.8-.1-5.7 0-8.5.1-2.6 1.7-4.1 4.3-4.2h6.3c.9 0 1.4-.2 1.2-1.2-.1-.8 0-1.7 0-2.6 0-.7 0-1.1.9-1.1s.9.5.9 1.2c-.2 2.7-.2 5.4-.3 8.1zm-1.7 2.8v-4.6c0-.8-.2-1.2-1.1-1.2h-5.8c-2 .1-3.1 1.3-3.2 3.3-.1 2.4-.1 4.8 0 7.2 0 2 .9 2.9 2.8 3 1.3.1 2.6.1 3.9 0 2.2-.2 3.3-1.5 3.3-3.7.2-1.3.1-2.7.1-4z"/><path class="st3" d="M957.5 455.5c0 2.7.1 5.3 0 8s-1.3 4-3.8 4.2c-2 .1-4 .1-6.1 0-2.1-.1-3.4-1.6-3.5-3.8-.1-2.8-.1-5.5 0-8.3.1-2.8 1.7-4.2 4.3-4.3 2.1 0 4.2-.1 6.3 0 1 0 1.3-.3 1.2-1.3-.1-.8 0-1.7 0-2.6 0-.6 0-1.1.8-1 .8 0 1 .2 1 1v8.2l-.2-.1zm-1.7 2.7v-4.4c0-.8-.2-1.2-1-1.2H949c-2 .1-3.1 1.3-3.2 3.4v6.9c0 2.1.9 3.1 2.9 3.2 1.2.1 2.5.1 3.7 0 2.2-.2 3.3-1.4 3.3-3.7.1-1.3.1-2.7.1-4.2z"/><path class="st11" d="M939.8 459.7c0 1.4.1 2.9 0 4.2-.2 2.5-1.5 3.7-3.9 3.7h-5.3c-2.6 0-4-1.5-4.1-4.2-.3-5.7.8-6.8 6.2-6.8h4.4c.9 0 1.1-.4 1-1.2-.1-1.8-1.1-2.9-3.1-2.9h-7.2c-.6 0-1.4.3-1.3-.8.1-1 .9-.6 1.3-.6h7.5c2.2 0 4.7 1.5 4.5 4.6v4zm-5.7-1.3c-1.2 0-2.4-.1-3.6 0-1.4.1-2.2 1.1-2.3 2.6v2c0 2.1 1 3.2 3.1 3.3h3.1c3 0 3.6-.7 3.6-3.8.1-4.3.1-4.3-3.9-4.1z"/><path class="st3" d="M969.2 467.7c-1.3-.1-2.9.2-4.6-.1-2.3-.4-3.4-1.7-3.4-4.1 0-2.6-.1-5.2 0-7.9.1-3.1 1.4-4.4 4.4-4.4 2 0 4-.2 5.9.1 2.2.4 3.7 3.3 3 5.4-.2.5-.6.5-1 .7-3.1 1.4-6.1 2.8-9.1 4.2-.6.3-1.5.2-1.4 1.2.1 1.1.3 2.3 1.4 2.9.7.4 1.4.4 2.1.4h7c.4 0 .9-.2 1 .6 0 .8-.4.8-1 .8-1.3.2-2.6.2-4.3.2zm-6.2-7.3c3-1.4 5.9-2.7 8.8-4 1.3-.5 1.1-1.3.6-2.3-.4-.8-1.1-1.2-1.9-1.3-1.8-.4-3.6-.3-5.4 0-1.3.3-2.1 1.2-2.1 2.6-.1 1.7 0 3.3 0 5zM1002 467.6c-1.6 0-3.1.1-4.7 0-2.3-.3-3.5-1.7-3.6-4.2v-7.7c.1-3.2 1.4-4.6 4.5-4.6 2 0 4.1-.3 6.1.2 2 .4 3.5 3.5 2.8 5.4-.2.5-.6.5-1 .7-3 1.4-6 2.7-9 4.2-.6.3-1.7.2-1.5 1.4.2 1.2.4 2.4 1.7 2.9.6.2 1.2.3 1.8.3h6.6c.5 0 1.4-.5 1.4.7 0 1.3-.9.7-1.5.8-1.3 0-2.5 0-3.6-.1 0 .1 0 0 0 0zm-6.5-7.1c3.1-1.4 5.9-2.8 8.8-4 1.3-.5 1.2-1.3.7-2.3-.4-.8-1.1-1.2-2-1.3-1.7-.3-3.4-.3-5.1 0-1.5.3-2.3 1.2-2.3 2.8-.2 1.5-.1 3-.1 4.8zM1058.1 467.7c-1.3-.1-2.9.2-4.6-.1-2.3-.4-3.4-1.7-3.4-4.1 0-2.6-.1-5.2 0-7.9.1-3.1 1.4-4.4 4.5-4.4 2 0 4.1-.3 6.1.2 2 .4 3.5 3.4 2.8 5.4-.2.5-.6.5-1 .7-3 1.4-6 2.7-9 4.2-.6.3-1.7.2-1.5 1.4.2 1.2.4 2.4 1.7 2.9.6.2 1.2.3 1.8.3h7c.4 0 .9-.2 1 .7 0 .8-.5.8-1 .8-1.5-.1-2.8-.1-4.4-.1zm-6.3-7.5c.2 0 .3.1.3 0 2.8-1.2 5.6-2.6 8.4-3.8 1.3-.5 1.1-1.3.6-2.3-.4-.8-1.1-1.2-1.9-1.3-1.8-.4-3.6-.3-5.4 0-1.3.3-2.1 1.2-2.1 2.6.1 1.7.1 3.3.1 4.8zM1028.7 459.6c0 1.5.1 2.9 0 4.4-.1 2.2-1.3 3.6-3.4 3.7-2 .1-4 .1-6.1 0-2.2-.1-3.5-1.6-3.6-3.9v-8.2c.1-2.9 1.5-4.3 4.2-4.4h5c2.3 0 3.7 1.3 3.9 3.8.1 1.5 0 3.1 0 4.6zm-1.6-.1v-1.8-1.8c-.1-2.1-1.1-3.1-3-3.3-1.3-.1-2.6-.1-3.9 0-1.7.1-2.7 1.1-2.8 2.9-.1 2.6-.1 5.2 0 7.8 0 1.8 1.1 2.7 2.8 2.8h3.9c1.8 0 2.8-1.1 2.9-2.9.1-1.2.1-2.4.1-3.7z"/><path class="st11" d="M892.9 451.4c1.5-.5 2.4-.1 3.1 1.1 1.2 1.8 2.6 3.5 4 5.4 1.4-1.9 2.7-3.6 3.9-5.4.8-1.2 1.6-1.6 3.1-1-1.4 2-2.8 3.9-4.1 5.8-1.7 2.3-1.7 2.3 0 4.6 1.4 1.8 2.7 3.7 4.2 5.6-1.3.5-2.2.4-2.9-.8-1.1-1.7-2.3-3.2-3.5-4.8-.5-.7-.8-.7-1.3 0-1.2 1.7-2.5 3.3-3.8 5-.3.4-.5.9-1.1.8-.5 0-1.1.3-1.4-.2-.3-.5.3-.8.6-1.2 1.4-1.9 2.9-3.9 4.4-5.7.6-.8.7-1.2 0-2.1-1.7-2.2-3.3-4.6-5.2-7.1z"/><path class="st3" d="M1078.6 467.7h-4.1c-.6 0-.8-.2-.8-.8 0-.7.4-.6.8-.6h6.6c2.1 0 3-.8 3-2.7 0-2.5-.7-3.3-2.9-3.4-1.5 0-3 .2-4.5-.1-1.9-.4-2.8-1.5-2.9-3.4-.2-4.2.9-5.4 4.9-5.4h6.3c.5 0 1.1-.2 1.1.7 0 .9-.6.8-1.1.8h-6.4c-2.1 0-3.1 1-3.1 3 0 2.1.9 3 3.1 3h4.2c1.9 0 2.9 1 3.1 2.9.1.9.1 1.8 0 2.8-.2 2.1-1.3 3.1-3.3 3.2-1.4.1-2.7 0-4 0zM983.7 465c1.9-4.4 3.7-8.4 5.5-12.5.2-.4.3-.8.5-1 .5-.5 1.1-.4 1.6-.2.7.3.1.8-.1 1.2-2 4.7-4.1 9.3-6.2 14-.3.6-.5 1.2-1.3 1.2-.9 0-1.1-.6-1.4-1.2-2-4.6-4.1-9.2-6.1-13.9-.2-.4-.9-1-.1-1.3.6-.2 1.4-.4 1.8.6.5 1.3 1.1 2.6 1.7 3.8 1.4 3 2.7 6 4.1 9.3zM1011.7 456.9v9.6c0 .6 0 1.2-.9 1.2s-.9-.4-.9-1.1V447c0-.7.1-1.1.9-1.1.9 0 .8.6.8 1.2.1 3.3.1 6.6.1 9.8zM1066.7 461c0-2-.1-4 0-6 .2-2.8 2.8-4.5 5.4-3.8.5.1.5.4.5.8 0 .5-.3.6-.7.7-3.3.6-3.6 1-3.6 4.6v9.3c0 .6.1 1.2-.8 1.2s-1-.4-1-1.2c.2-1.9.1-3.8.2-5.6z"/></g></svg>