<?xml version="1.0" encoding="utf-8"?>
<!-- Generator: Adobe Illustrator 22.0.0, SVG Export Plug-In . SVG Version: 6.00 Build 0)  -->
<svg version="1.1" id="Layer_1" xmlns="http://www.w3.org/2000/svg" xmlns:xlink="http://www.w3.org/1999/xlink" x="0px" y="0px"
	 viewBox="0 0 1162 636" style="enable-background:new 0 0 1162 636;" xml:space="preserve">
<style type="text/css">
	.st0{fill:none;stroke:#FFFFFF;stroke-width:4;stroke-miterlimit:10;}
	.st1{fill:none;stroke:#FFFFFF;stroke-width:4;stroke-miterlimit:10;stroke-dasharray:11.9893,11.9893;}
	.st2{fill:#3F95E9;}
	.st3{fill:#FFFFFF;}
	.st4{fill:#FFFFFF;stroke:#FFFFFF;stroke-width:2;stroke-miterlimit:10;}
	.st5{clip-path:url(#SVGID_2_);}
	.st6{fill:#FFFFFF;stroke:#FFFFFF;stroke-width:0.5;}
	.st7{fill:#FFFFFF;stroke:#FFD747;stroke-width:0.5;}
	.st8{fill:#FFFFFF;stroke:#FFE146;stroke-width:0.5;}
	.st9{fill:#32BBAF;}
	.st10{fill:#9970FF;}
	.st11{fill:#FFAB4F;}
</style>
<g>
	<g>
		<path class="st0" d="M787,579.6c-2,0-4-0.1-6-0.1"/>
		<path class="st1" d="M769,579.3c-173.8-2.4-348.4,0.6-521.5-0.4"/>
		<path class="st0" d="M241.5,579c-2,0-4,0-6,0"/>
	</g>
</g>
<path class="st0" d="M237.3,117.4C407,120,576,119,746,119c12,0,23,0,35,0c29,2,57,13,75,38c9,12,13,26,12,40c-2,26-19,46-41,59
	c-1,1-2.4,1.2-3.6,2c-14.7,9.4-32.4,9-48.4,9c-151,2-303,1-454,1c-32,5-68,18-82,50c-5,10-7,21-6,33c2,16,10,31,22,42
	c19,17,43,24,67,28c159,1,319-2,478,1c34,9,65,36,68,72c1,17-4,32-14,46c-16,23-40,38-67,39.6"/>
<g>
	<path class="st2" d="M22.5,302.8c0,1.6,0.9,3,2.4,3c2.9,0,4.8-0.9,7.3-2c2.7-1.3,4.9-2.6,7.5-4.1c0.6-0.4,1.5-0.8,1.6-1.3
		c-1.2,0.1-6.9,2.8-9.7,1.5c-3.1-1.5,2.9-9.1,3.8-10.3l2.1-2.6c0.3-0.3,0.5-0.4,0.9-0.8c4.1-4.1,16.9-14.5,22.6-11.4
		c0.4,0.2,0.6,0.4,0.9,0.6c0.4,0.3,0.5,0.6,1,0.7c0.9-1.7,1.4-5.5-2-5.5c-4.2,0-9.4,3.1-13,5c-1.5,0.8-4,2.4-5.4,3.3
		c-2.2,1.5-6.7,4.9-8.5,6.8c-0.4,0.4-0.7,0.7-1.1,1.1c-0.4,0.3-0.7,0.7-1.1,1.1c-0.4,0.4-0.6,0.7-1,1.2
		C28,291.4,22.5,298.9,22.5,302.8L22.5,302.8z"/>
	<path class="st3" d="M45.8,295.6c0.3,0.2,0.5,0,0.9-0.1l2.9-1.2c1.2-0.4,5.8-1.8,7.1-0.4c1.6,1.9-0.3,5.7-1.3,7.1l-2.2,2.7
		c-0.6,0.6-0.7,0.9-1.6,1.7l-3.5,3.1c-0.3,0.3-0.6,0.5-0.9,0.8c-3.2,2.7-9.8,7.4-13.5,9.7c-0.6,0.4-3.7,2.3-4,2.6
		c1.3,0,4.6-1.9,5.7-2.5c3-1.5,8-4.3,10.7-6c0.9-0.6,1.7-1,2.6-1.6c0.9-0.6,1.7-1.1,2.5-1.7c1.6-1.2,3.2-2.4,4.7-3.7
		c0.2-0.2,0.3-0.3,0.5-0.5c2.9-2.5,5.4-5.1,7.4-8.4c1-1.7,4-8.1,0.3-9.4c-3-1.1-8.5,1.9-10.5,3.1l-3.9,2.3
		C48.9,293.4,46.1,295.2,45.8,295.6L45.8,295.6z"/>
	<path class="st3" d="M59.8,281.9c0,1.5,1.6,2.7,3,3.2c5,1.5,9.5-2.9,5.5-5.6C65.3,277.4,59.8,278.9,59.8,281.9L59.8,281.9z"/>
</g>
<circle class="st3" cx="240.3" cy="117.4" r="8.5"/>
<circle class="st3" cx="233.5" cy="340.5" r="8.3"/>
<circle class="st3" cx="232.8" cy="578.4" r="7.9"/>
<circle class="st3" cx="868.2" cy="497.4" r="8.4"/>
<circle class="st3" cx="868.2" cy="192.4" r="7.7"/>
<g>
	<path class="st4" d="M24.7,349.6l-0.6-10h0.4l0.6,9.9c0.2,2.9,1.9,5,4.5,5c2.6,0,4.3-2,4.5-5l0.6-9.9h0.4l-0.6,10
		c-0.2,3.2-2.1,5.3-4.9,5.3C26.8,354.9,24.9,352.8,24.7,349.6z"/>
	<path class="st4" d="M49.1,354.5l-4.8-8c-1.8,3-3.3,5.5-4.8,8h-0.5c1.7-2.8,3.3-5.6,5-8.4c-1.1-1.9-2.4-4-3.9-6.5h4.1
		c1.4,0,2.8,0,4.1,0c-1.5,2.5-2.8,4.6-3.9,6.6l5,8.4H49.1z M44.4,345.7l3.4-5.7c-1.1,0-2.2,0-3.4,0c-1.1,0-2.3,0-3.4,0
		C42.1,341.9,43.2,343.8,44.4,345.7z"/>
	<path class="st4" d="M64.4,340c0,2,0,4,0,6h2.8c1,0,2,0,3,0v0.4h-3c-0.9,0-1.8,0-2.8,0v0.5c0,2.4,0,4.8,0,7.2h6.7v0.4H64
		c0-2.5,0-5.1,0-7.6v-7.4c2.4,0,4.8,0,7.2,0v0.4H64.4z"/>
	<path class="st4" d="M86.7,345.6c0,2.2,0,7.1,0,9.3L77,340.6c0,2.7,0,5.3,0,8v6h-0.4v-6c0-3.1,0-6.2,0-9.3l9.7,14.3
		c0-2.7,0-5.3,0-8v-6h0.4V345.6z"/>
	<path class="st4" d="M105.8,354.5l-1.5-2.1c-1.1,1.5-2.8,2.4-4.9,2.4c-3.7,0-6.8-3.4-6.8-8c0-4.4,3-7.6,7.3-7.6
		c1.9,0,3.8,0.7,5,1.7v0.5c-1.3-1-3.2-1.7-5-1.7c-4,0-6.9,3.1-6.9,7.2c0,4.3,3,7.5,6.4,7.5c2,0,3.6-0.9,4.6-2.4
		c-1.1-1.4-2.1-2.9-3.2-4.3h2.6c0.8,0,1.5,0,2.3,0c0,1.6-0.5,3.1-1.3,4.3l1.8,2.4H105.8z M104.2,351.8c0.7-1,1.1-2.3,1.1-3.6h-1.9
		c-0.6,0-1.3,0-1.9,0C102.5,349.4,103.3,350.6,104.2,351.8z"/>
	<path class="st4" d="M111.6,347.1c0-2.5,0-5,0-7.5h0.4v7.5c0,2.5,0,5,0,7.5h-0.4V347.1z"/>
	<path class="st4" d="M129,345.6c0,2.2,0,7.1,0,9.3l-9.7-14.3c0,2.7,0,5.3,0,8v6h-0.4v-6c0-3.1,0-6.2,0-9.3l9.7,14.3
		c0-2.7,0-5.3,0-8v-6h0.4V345.6z"/>
	<path class="st4" d="M136.2,340c0,2,0,4,0,6h2.8c1,0,2,0,3,0v0.4h-3c-0.9,0-1.8,0-2.8,0v0.5c0,2.4,0,4.8,0,7.2h6.7v0.4h-7.2
		c0-2.5,0-5.1,0-7.6v-7.4c2.4,0,4.8,0,7.2,0v0.4H136.2z"/>
	<path class="st4" d="M148.8,340c0,2,0,4,0,6h2.8c1,0,2,0,3,0v0.4h-3c-0.9,0-1.8,0-2.8,0v0.5c0,2.4,0,4.8,0,7.2h6.7v0.4h-7.2
		c0-2.5,0-5.1,0-7.6v-7.4c2.4,0,4.8,0,7.2,0v0.4H148.8z"/>
	<path class="st4" d="M165.1,348l3.2,6.5h-0.4c-1-2.2-2.1-4.3-3.1-6.4c-0.5,0.1-1.1,0.1-1.7,0.1h-1.5c0,2.1,0,4.2,0,6.3H161v-6.7
		c0.6,0,1.3,0,1.9,0c0.6,0,1.1,0,1.5-0.1c-1.3-2.7-2.6-5.4-3.9-8.1h2.8c3.3,0,5.3,1.7,5.3,4.2C168.6,346,167.4,347.5,165.1,348z
		 M164.9,347.6c2.2-0.5,3.3-1.8,3.3-3.8c0-2.3-1.9-3.8-4.9-3.8h-2.1L164.9,347.6z"/>
</g>
<g>
	<path class="st4" d="M75,556.3v-0.6c1,1,2.4,1.7,3.8,1.7c1.9,0,3.5-1.5,3.5-3.3c0-2.2-1.9-3.1-3.9-3.9c-2.1-0.9-4.1-1.8-4.1-4.2
		c0-2.2,1.8-3.8,4.4-3.8c1.7,0,3.2,0.8,4.2,1.8v0.6c-1.1-1.2-2.6-2-4.2-2c-2.4,0-4,1.5-4,3.3c0,2.2,1.8,3,3.9,3.8
		c2,0.8,4.1,1.9,4.1,4.3c0,2.1-1.8,3.7-4,3.7C77.4,557.8,75.9,557.1,75,556.3z"/>
	<path class="st4" d="M96.9,543h-5c0,2.4,0,4.8,0,7.2v7.3h-0.4v-7.3c0-2.4,0-4.8,0-7.2h-5v-0.4h5.2c1.8,0,3.5,0,5.2,0V543z"/>
	<path class="st4" d="M102,552c-0.7,1.8-1.5,3.7-2.3,5.6h-0.4l2.4-5.8c-0.8-0.5-1.6-0.9-2.4-1.4v-0.5c0.8,0.5,1.7,1,2.5,1.5
		c1.2-2.9,2.4-5.9,3.7-9.1l6.4,15.6C108.6,555.9,105.3,553.9,102,552z M102.2,551.6c3,1.8,5.9,3.5,8.9,5.3l-5.5-13.6L102.2,551.6z"
		/>
	<path class="st4" d="M121.2,551l3.2,6.5h-0.4c-1-2.2-2.1-4.3-3.1-6.4c-0.5,0.1-1.1,0.1-1.7,0.1h-1.5c0,2.1,0,4.2,0,6.3h-0.4v-6.7
		c0.6,0,1.3,0,1.9,0c0.6,0,1.1,0,1.5-0.1c-1.3-2.7-2.6-5.4-3.9-8.1h2.8c3.3,0,5.3,1.7,5.3,4.2C124.8,549,123.6,550.5,121.2,551z
		 M121,550.6c2.2-0.5,3.3-1.8,3.3-3.8c0-2.3-1.9-3.8-4.9-3.8h-2.1L121,550.6z"/>
	<path class="st4" d="M138.8,543h-5c0,2.4,0,4.8,0,7.2v7.3h-0.4v-7.3c0-2.4,0-4.8,0-7.2h-5v-0.4h5.2c1.8,0,3.5,0,5.2,0V543z"/>
	<path class="st4" d="M143.9,543c0,2,0,4,0,6h2.8c1,0,2,0,3,0v0.4h-3c-0.9,0-1.8,0-2.8,0v0.5c0,2.4,0,4.8,0,7.2h6.7v0.4h-7.2
		c0-2.5,0-5.1,0-7.6v-7.4c2.4,0,4.8,0,7.2,0v0.4H143.9z"/>
	<path class="st4" d="M156.1,542.6h2.7c5,0,8.1,2.8,8.1,7.3c0,4.4-3.5,7.7-8.3,7.7h-2.6V542.6z M158.6,557.1c4.6,0,7.9-3.1,7.9-7.3
		c0-4.2-3-6.8-7.7-6.8h-2.2v14.1H158.6z"/>
	<path class="st4" d="M76.2,569.4c0,2,0,4,0,6H79c1,0,2,0,3,0v0.4h-3c-0.9,0-1.8,0-2.8,0v0.5c0,2.4,0,4.8,0,7.2h6.7v0.4h-7.2
		c0-2.5,0-5.1,0-7.6V569c2.4,0,4.8,0,7.2,0v0.4H76.2z"/>
	<path class="st4" d="M96.7,583.9l-4.8-8c-1.8,3-3.3,5.5-4.8,8h-0.5c1.7-2.8,3.3-5.6,5-8.4c-1.1-1.9-2.4-4-3.9-6.5h4.1
		c1.4,0,2.8,0,4.1,0c-1.5,2.5-2.8,4.6-3.9,6.6l5,8.4H96.7z M91.9,575.1l3.4-5.7c-1.1,0-2.2,0-3.4,0c-1.1,0-2.3,0-3.4,0
		C89.7,571.3,90.8,573.2,91.9,575.1z"/>
	<path class="st4" d="M109.6,573.2c0,2.6-2,4.4-5.3,4.4h-1.6c0,2.1,0,4.2,0,6.3h-0.4v-15c0.9,0,1.7,0,2.5,0
		C107.7,569,109.6,570.7,109.6,573.2z M109.1,573.2c0-2.3-1.7-3.8-4.4-3.8h-2c0,2.6,0,5.2,0,7.9h1.5
		C107.3,577.2,109.1,575.6,109.1,573.2z"/>
	<path class="st4" d="M115,576.4c0-2.5,0-4.9,0-7.4h0.4v7.4c0,2.4,0,4.8,0,7.2h7.5v0.4H115V576.4z"/>
	<path class="st4" d="M126.3,576.3c0-4.4,3.1-7.7,7.4-7.7c4.4,0,7.4,3.3,7.4,7.7c0,4.3-3.4,8-7.4,8
		C129.6,584.3,126.3,580.7,126.3,576.3z M140.7,576.3c0-4.2-2.9-7.3-7-7.3s-7,3.1-7,7.3c0,4.1,3.2,7.5,7,7.5
		S140.7,580.4,140.7,576.3z"/>
	<path class="st4" d="M150.9,577.4l3.2,6.5h-0.4c-1-2.2-2.1-4.3-3.1-6.4c-0.5,0.1-1.1,0.1-1.7,0.1h-1.5c0,2.1,0,4.2,0,6.3h-0.4v-6.7
		c0.6,0,1.3,0,1.9,0c0.6,0,1.1,0,1.5-0.1c-1.3-2.7-2.6-5.4-3.9-8.1h2.8c3.3,0,5.3,1.7,5.3,4.2C154.4,575.4,153.2,576.9,150.9,577.4z
		 M150.7,577c2.2-0.5,3.3-1.8,3.3-3.8c0-2.3-1.9-3.8-4.9-3.8H147L150.7,577z"/>
	<path class="st4" d="M160.4,576.5c0-2.5,0-5,0-7.5h0.4v7.5c0,2.5,0,5,0,7.5h-0.4V576.5z"/>
	<path class="st4" d="M177.7,575c0,2.2,0,7.1,0,9.3L168,570c0,2.7,0,5.3,0,8v6h-0.4v-6c0-3.1,0-6.2,0-9.3l9.7,14.3c0-2.7,0-5.3,0-8
		v-6h0.4V575z"/>
	<path class="st4" d="M196.8,583.9l-1.5-2.1c-1.1,1.5-2.8,2.4-4.9,2.4c-3.7,0-6.8-3.4-6.8-8c0-4.4,3-7.6,7.3-7.6
		c1.9,0,3.8,0.7,5,1.7v0.5c-1.3-1-3.2-1.7-5-1.7c-4,0-6.9,3.1-6.9,7.2c0,4.3,3,7.5,6.4,7.5c2,0,3.6-0.9,4.6-2.4
		c-1.1-1.4-2.1-2.9-3.2-4.3h2.6c0.8,0,1.5,0,2.3,0c0,1.6-0.5,3.1-1.3,4.3l1.8,2.4H196.8z M195.2,581.2c0.7-1,1.1-2.3,1.1-3.6h-1.9
		c-0.6,0-1.3,0-1.9,0C193.4,578.8,194.3,580,195.2,581.2z"/>
</g>
<g>
	<path class="st3" d="M27.9,389.4c-0.2-1.3-1.2-2-2.9-2c-0.9,0-1.6,0.2-2.1,0.6c-0.5,0.4-0.7,0.9-0.7,1.4c0,0.6,0.2,1,0.5,1.3
		c0.3,0.3,0.8,0.5,1.5,0.8l2.8,1c1,0.3,1.7,0.8,2.3,1.4c0.6,0.6,0.9,1.4,0.9,2.4s-0.4,1.9-1.3,2.6s-2.1,1.1-3.6,1.1
		c-1.5,0-2.7-0.4-3.7-1.1c-1-0.8-1.4-1.8-1.5-3.2h1.7c0,0.9,0.3,1.6,0.9,2c0.6,0.5,1.4,0.7,2.4,0.7s1.8-0.2,2.3-0.7
		c0.6-0.4,0.9-1,0.9-1.6c0-0.6-0.2-1.1-0.5-1.4c-0.4-0.3-0.9-0.6-1.6-0.9l-2.4-0.9c-1.1-0.4-2-0.8-2.5-1.3s-0.9-1.3-0.9-2.3
		c0-1,0.4-1.8,1.2-2.5c0.8-0.7,1.9-1,3.4-1c1.5,0,2.6,0.3,3.3,1c0.8,0.6,1.2,1.5,1.3,2.6H27.9z"/>
	<path class="st3" d="M37.2,398.5c1.4,0,2.2-0.6,2.4-1.9h1.7c-0.2,1-0.6,1.8-1.4,2.4c-0.8,0.6-1.7,0.9-2.8,0.9
		c-1.4,0-2.5-0.5-3.4-1.5c-0.9-1-1.3-2.3-1.3-3.9c0-1.6,0.4-2.9,1.3-3.9c0.9-1,2-1.5,3.5-1.5s2.5,0.6,3.2,1.7c0.7,1.1,1,2.5,0.7,4.1
		h-7.1c0,1.1,0.3,1.9,0.8,2.6C35.6,398.1,36.3,398.5,37.2,398.5z M38.5,390.7c-0.3-0.2-0.7-0.3-1.2-0.3c-0.9,0-1.6,0.3-2.1,0.9
		s-0.8,1.3-0.9,2.2h5.5C39.8,392.1,39.4,391.1,38.5,390.7z"/>
	<path class="st3" d="M46.4,390.9c0.7-1.2,1.7-1.8,3-1.8c1.3,0,2.5,0.5,3.4,1.5c0.9,1,1.3,2.3,1.3,3.9s-0.5,2.9-1.4,3.9
		c-0.9,1-2,1.5-3.3,1.5c-1.3,0-2.3-0.5-2.9-1.5v6.3h-1.7v-15.4h1.4L46.4,390.9z M49.4,398.4c0.8,0,1.5-0.3,2.1-1
		c0.6-0.7,0.9-1.6,0.9-2.8s-0.3-2.2-0.9-2.9c-0.6-0.7-1.3-1.1-2.1-1.1c-0.8,0-1.5,0.3-2,0.8c-0.5,0.5-0.8,1.2-0.8,2.1v2
		c0,0.9,0.3,1.6,0.8,2.1C47.9,398.1,48.5,398.4,49.4,398.4z"/>
	<path class="st3" d="M63.7,398.1h7.9v1.6h-9.6v-2c0-1.6,0.6-2.8,1.8-3.5c0.4-0.2,0.8-0.5,1.3-0.6l2.7-1.1c1.4-0.5,2.1-1.4,2.1-2.7
		c0-0.7-0.2-1.3-0.7-1.7c-0.5-0.4-1.1-0.7-2-0.7c-0.9,0-1.6,0.2-2.1,0.5c-0.5,0.4-0.9,0.9-0.9,1.6h-1.9c0.1-1.2,0.5-2.1,1.4-2.7
		c0.9-0.6,2-0.9,3.4-0.9c1.4,0,2.5,0.4,3.4,1.1c0.9,0.7,1.3,1.7,1.3,2.8s-0.3,2-0.9,2.6c-0.6,0.6-1.3,1.2-2.3,1.6l-2.7,1.1
		c-0.7,0.3-1.2,0.6-1.5,1s-0.5,0.8-0.5,1.4V398.1z"/>
	<path class="st3" d="M79.5,385.8c1.6,0,2.9,0.6,3.9,1.8c0.9,1.2,1.4,2.9,1.4,5.2c0,2.3-0.5,4-1.4,5.2c-0.9,1.2-2.2,1.8-3.9,1.8
		c-1.6,0-2.9-0.6-3.9-1.8c-1-1.2-1.4-2.9-1.4-5.2c0-2.3,0.5-4,1.4-5.2C76.6,386.4,77.9,385.8,79.5,385.8z M83,392.8
		c0-1.8-0.3-3.1-0.9-4.1s-1.5-1.4-2.6-1.4c-1.2,0-2,0.5-2.6,1.4s-0.9,2.3-0.9,4.1c0,1.8,0.3,3.1,0.9,4.1s1.5,1.4,2.6,1.4
		c1.2,0,2-0.5,2.6-1.4S83,394.6,83,392.8z"/>
	<path class="st3" d="M86.9,387.1c1-0.1,1.8-0.5,2.5-1.1h1.4v13.6h-1.7V388c-0.7,0.5-1.5,0.7-2.2,0.8V387.1z"/>
	<path class="st3" d="M102.2,389.5c-0.2-1.4-1-2.1-2.3-2.1c-1.3,0-2.3,0.5-3,1.6c-0.7,1.1-1,2.5-1,4.4c0,0.8,0,1.4,0.1,1.9
		c0.1-1.3,0.5-2.3,1.2-2.9c0.7-0.6,1.7-0.9,2.8-0.9c1.1,0,2.1,0.4,2.9,1.2c0.8,0.8,1.2,1.8,1.2,3.1c0,1.2-0.4,2.3-1.3,3
		c-0.8,0.8-2,1.2-3.3,1.2c-1.6,0-2.9-0.6-3.9-1.9c-1-1.3-1.5-3-1.5-5.1c0-2.1,0.5-3.8,1.5-5.1c1-1.3,2.4-1.9,4.1-1.9
		c1.2,0,2.2,0.3,3,1c0.8,0.7,1.2,1.6,1.3,2.7H102.2z M99.5,393c-0.8,0-1.5,0.3-2,0.8c-0.5,0.5-0.8,1.2-0.8,2s0.3,1.4,0.8,1.9
		c0.5,0.5,1.2,0.7,2,0.7c0.8,0,1.5-0.2,2-0.7s0.8-1.1,0.8-2c0-0.8-0.3-1.5-0.8-2S100.3,393,99.5,393z"/>
	<path class="st3" d="M111.3,392.6h5.9v1.5h-5.9V392.6z"/>
	<path class="st3" d="M127.8,386.1l4.6,9.2l4.5-9.2h2.4v13.6h-1.7v-11.2l-4.7,9.4h-1.1l-4.7-9.6v11.3h-1.7v-13.6H127.8z"/>
	<path class="st3" d="M150,392.9c0-0.9-0.2-1.6-0.6-2c-0.4-0.4-1-0.6-1.7-0.6c-0.7,0-1.3,0.1-1.8,0.4c-0.5,0.3-0.7,0.8-0.7,1.4h-1.9
		c0-1.6,0.8-2.6,2.5-2.9c0.5-0.1,1.1-0.2,1.7-0.2c1.3,0,2.3,0.3,3,1s1.1,1.6,1.1,3v6.6h-1.5l-0.2-1.7c-0.6,1.3-1.8,2-3.4,2
		c-1.1,0-2-0.3-2.7-0.9c-0.7-0.6-1-1.4-1-2.3c0-0.9,0.4-1.6,1.1-2.2c0.7-0.5,1.7-0.8,2.8-0.8s2.2,0.2,3.2,0.6V392.9z M150,395.3
		c-1-0.3-1.9-0.4-2.7-0.4s-1.4,0.1-1.9,0.4c-0.5,0.3-0.7,0.7-0.7,1.3c0,1.3,0.7,1.9,2.2,1.9c0.8,0,1.5-0.3,2.1-0.9
		S150,396.3,150,395.3z"/>
	<path class="st3" d="M153.7,402.6c0.7,0.5,1.4,0.8,2.2,0.8c0.6,0,1.1-0.3,1.5-0.9c0.3-0.4,0.6-1,0.8-1.9l0.3-1.1l-4.2-10.3h1.9
		l3.1,8.2l2.4-8.2h1.7l-3.9,12.4c-0.3,1-0.8,1.9-1.3,2.4c-0.5,0.6-1.2,0.8-2,0.8c-0.8,0-1.7-0.3-2.6-0.8V402.6z"/>
	<path class="st3" d="M172.2,398.1h7.9v1.6h-9.6v-2c0-1.6,0.6-2.8,1.8-3.5c0.4-0.2,0.8-0.5,1.3-0.6l2.7-1.1c1.4-0.5,2.1-1.4,2.1-2.7
		c0-0.7-0.2-1.3-0.7-1.7c-0.5-0.4-1.1-0.7-2-0.7c-0.9,0-1.6,0.2-2.1,0.5c-0.5,0.4-0.9,0.9-0.9,1.6h-1.9c0.1-1.2,0.5-2.1,1.4-2.7
		c0.9-0.6,2-0.9,3.4-0.9c1.4,0,2.5,0.4,3.4,1.1c0.9,0.7,1.3,1.7,1.3,2.8s-0.3,2-0.9,2.6c-0.6,0.6-1.3,1.2-2.3,1.6l-2.7,1.1
		c-0.7,0.3-1.2,0.6-1.5,1s-0.5,0.8-0.5,1.4V398.1z"/>
	<path class="st3" d="M188.1,385.8c1.6,0,2.9,0.6,3.9,1.8c0.9,1.2,1.4,2.9,1.4,5.2c0,2.3-0.5,4-1.4,5.2c-0.9,1.2-2.2,1.8-3.9,1.8
		c-1.6,0-2.9-0.6-3.9-1.8c-1-1.2-1.4-2.9-1.4-5.2c0-2.3,0.5-4,1.4-5.2C185.1,386.4,186.4,385.8,188.1,385.8z M191.6,392.8
		c0-1.8-0.3-3.1-0.9-4.1s-1.5-1.4-2.6-1.4c-1.2,0-2,0.5-2.6,1.4s-0.9,2.3-0.9,4.1c0,1.8,0.3,3.1,0.9,4.1s1.5,1.4,2.6,1.4
		c1.2,0,2-0.5,2.6-1.4S191.6,394.6,191.6,392.8z"/>
	<path class="st3" d="M195.5,387.1c1-0.1,1.8-0.5,2.5-1.1h1.4v13.6h-1.7V388c-0.7,0.5-1.5,0.7-2.2,0.8V387.1z"/>
	<path class="st3" d="M207.7,385.8c0.7,0,1.4,0.2,2.1,0.5c0.7,0.3,1.2,0.8,1.7,1.4c1,1.3,1.6,2.9,1.6,4.9c0,3.5-1,5.8-2.9,6.8
		c-0.7,0.3-1.4,0.5-2.2,0.5c-1.5,0-2.7-0.4-3.5-1.2c-0.9-0.8-1.3-1.8-1.3-3h1.8c0,0.8,0.3,1.5,0.8,2c0.5,0.5,1.1,0.7,1.9,0.7
		c0.7,0,1.4-0.1,1.8-0.4c1.3-0.8,2-2.7,2-5.5c0-0.6,0-1.1-0.1-1.6c-0.1,1.2-0.6,2-1.3,2.6c-0.7,0.6-1.6,0.9-2.7,0.9
		c-1.1,0-2.1-0.4-2.9-1.2c-0.8-0.8-1.2-1.8-1.2-3.1c0-1.3,0.4-2.3,1.3-3S206.3,385.8,207.7,385.8z M209.7,388.1
		c-0.5-0.5-1.2-0.7-2-0.7c-0.8,0-1.5,0.2-2,0.7c-0.5,0.5-0.8,1.1-0.8,2s0.3,1.5,0.8,2c0.5,0.5,1.2,0.7,2,0.7c0.8,0,1.5-0.3,2-0.8
		c0.5-0.5,0.8-1.2,0.8-2C210.5,389.2,210.2,388.6,209.7,388.1z"/>
</g>
<g>
	<path class="st4" d="M897.6,199.1l-0.6-10h0.4l0.6,9.9c0.2,2.9,1.9,5,4.5,5s4.3-2,4.5-5l0.6-9.9h0.4l-0.6,10
		c-0.2,3.2-2.1,5.3-4.9,5.3C899.8,204.4,897.8,202.3,897.6,199.1z"/>
	<path class="st4" d="M922.1,204l-4.8-8c-1.8,3-3.3,5.5-4.8,8h-0.5c1.7-2.8,3.3-5.6,5-8.4c-1.1-1.9-2.4-4-3.9-6.5h4.1
		c1.4,0,2.8,0,4.1,0c-1.5,2.5-2.8,4.6-3.9,6.6l5,8.4H922.1z M917.3,195.2l3.4-5.7c-1.1,0-2.2,0-3.4,0s-2.3,0-3.4,0
		C915,191.4,916.2,193.3,917.3,195.2z"/>
	<path class="st4" d="M937.3,189.5c0,2,0,4,0,6h2.8c1,0,2,0,3,0v0.4h-3c-0.9,0-1.8,0-2.8,0v0.5c0,2.4,0,4.8,0,7.2h6.7v0.4h-7.2
		c0-2.5,0-5.1,0-7.6v-7.4c2.4,0,4.8,0,7.2,0v0.4H937.3z"/>
	<path class="st4" d="M959.7,195.1c0,2.2,0,7.1,0,9.3l-9.7-14.3c0,2.7,0,5.3,0,8v6h-0.4v-6c0-3.1,0-6.2,0-9.3l9.7,14.3
		c0-2.7,0-5.3,0-8v-6h0.4V195.1z"/>
	<path class="st4" d="M978.7,204l-1.5-2.1c-1.1,1.5-2.8,2.4-4.9,2.4c-3.7,0-6.8-3.4-6.8-8c0-4.4,3-7.6,7.3-7.6c1.9,0,3.8,0.7,5,1.7
		v0.5c-1.3-1-3.2-1.7-5-1.7c-4,0-6.9,3.1-6.9,7.2c0,4.3,3,7.5,6.4,7.5c2,0,3.6-0.9,4.6-2.4c-1.1-1.4-2.1-2.9-3.2-4.3h2.6
		c0.8,0,1.5,0,2.3,0c0,1.6-0.5,3.1-1.3,4.3l1.8,2.4H978.7z M977.2,201.3c0.7-1,1.1-2.3,1.1-3.6h-1.9c-0.6,0-1.3,0-1.9,0
		C975.4,198.9,976.3,200.1,977.2,201.3z"/>
	<path class="st4" d="M984.6,196.6c0-2.5,0-5,0-7.5h0.4v7.5c0,2.5,0,5,0,7.5h-0.4V196.6z"/>
	<path class="st4" d="M1001.9,195.1c0,2.2,0,7.1,0,9.3l-9.7-14.3c0,2.7,0,5.3,0,8v6h-0.4v-6c0-3.1,0-6.2,0-9.3l9.7,14.3
		c0-2.7,0-5.3,0-8v-6h0.4V195.1z"/>
	<path class="st4" d="M1009.1,189.5c0,2,0,4,0,6h2.8c1,0,2,0,3,0v0.4h-3c-0.9,0-1.8,0-2.8,0v0.5c0,2.4,0,4.8,0,7.2h6.7v0.4h-7.2
		c0-2.5,0-5.1,0-7.6v-7.4c2.4,0,4.8,0,7.2,0v0.4H1009.1z"/>
	<path class="st4" d="M1021.7,189.5c0,2,0,4,0,6h2.8c1,0,2,0,3,0v0.4h-3c-0.9,0-1.8,0-2.8,0v0.5c0,2.4,0,4.8,0,7.2h6.7v0.4h-7.2
		c0-2.5,0-5.1,0-7.6v-7.4c2.4,0,4.8,0,7.2,0v0.4H1021.7z"/>
	<path class="st4" d="M1038,197.5l3.2,6.5h-0.4c-1-2.2-2.1-4.3-3.1-6.4c-0.5,0.1-1.1,0.1-1.7,0.1h-1.5c0,2.1,0,4.2,0,6.3h-0.4v-6.7
		c0.6,0,1.3,0,1.9,0c0.6,0,1.1,0,1.5-0.1c-1.3-2.7-2.6-5.4-3.9-8.1h2.8c3.3,0,5.3,1.7,5.3,4.2C1041.6,195.5,1040.4,197,1038,197.5z
		 M1037.8,197.1c2.2-0.5,3.3-1.8,3.3-3.8c0-2.3-1.9-3.8-4.9-3.8h-2.1L1037.8,197.1z"/>
</g>
<g>
	<path class="st3" d="M897.4,248.4c-0.7,0.6-1.5,1-2.6,1s-2.1-0.3-3.3-0.9v-1.8c1,0.7,2,1,2.8,1c0.9,0,1.5-0.2,1.8-0.6
		c0.3-0.4,0.5-1.1,0.5-1.9v-9.6h1.7v9.6C898.4,246.7,898.1,247.8,897.4,248.4z"/>
	<path class="st3" d="M909.3,247.1c-0.7,1.5-1.8,2.2-3.4,2.2c-1.2,0-2.1-0.3-2.8-1c-0.7-0.6-1.1-1.6-1.1-3v-6.6h1.7v6.4
		c0,1.7,0.8,2.6,2.4,2.6c0.9,0,1.7-0.4,2.3-1.1c0.6-0.7,0.9-1.6,0.9-2.8v-5.2h1.7v10.3h-1.7V247.1z"/>
	<path class="st3" d="M915.4,234.4h1.7v14.7h-1.7V234.4z"/>
	<path class="st3" d="M927.5,247.6h7.9v1.6h-9.6v-2c0-1.6,0.6-2.8,1.8-3.5c0.4-0.2,0.8-0.5,1.3-0.6l2.7-1.1c1.4-0.5,2.1-1.4,2.1-2.7
		c0-0.7-0.2-1.3-0.7-1.7c-0.5-0.4-1.1-0.7-2-0.7s-1.6,0.2-2.1,0.5c-0.5,0.4-0.9,0.9-0.9,1.6H926c0.1-1.2,0.5-2.1,1.4-2.7
		c0.9-0.6,2-0.9,3.4-0.9s2.5,0.4,3.4,1.1c0.9,0.7,1.3,1.7,1.3,2.8s-0.3,2-0.9,2.6c-0.6,0.6-1.3,1.2-2.3,1.6l-2.7,1.1
		c-0.7,0.3-1.2,0.6-1.5,1s-0.5,0.8-0.5,1.4V247.6z"/>
	<path class="st3" d="M943.3,235.3c1.6,0,2.9,0.6,3.9,1.8c0.9,1.2,1.4,2.9,1.4,5.2c0,2.3-0.5,4-1.4,5.2s-2.2,1.8-3.9,1.8
		c-1.6,0-2.9-0.6-3.9-1.8c-1-1.2-1.4-2.9-1.4-5.2c0-2.3,0.5-4,1.4-5.2C940.4,235.9,941.7,235.3,943.3,235.3z M946.9,242.3
		c0-1.8-0.3-3.1-0.9-4.1c-0.6-0.9-1.5-1.4-2.6-1.4s-2,0.5-2.6,1.4s-0.9,2.3-0.9,4.1c0,1.8,0.3,3.1,0.9,4.1s1.5,1.4,2.6,1.4
		s2-0.5,2.6-1.4C946.6,245.5,946.9,244.1,946.9,242.3z"/>
	<path class="st3" d="M950.8,236.6c1-0.1,1.8-0.5,2.5-1.1h1.4v13.6H953v-11.6c-0.7,0.5-1.5,0.7-2.2,0.8V236.6z"/>
	<path class="st3" d="M962.9,235.3c0.7,0,1.4,0.2,2.1,0.5s1.2,0.8,1.7,1.4c1,1.3,1.6,2.9,1.6,4.9c0,3.5-1,5.8-2.9,6.8
		c-0.7,0.3-1.4,0.5-2.2,0.5c-1.5,0-2.7-0.4-3.5-1.2c-0.9-0.8-1.3-1.8-1.3-3h1.8c0,0.8,0.3,1.5,0.8,2c0.5,0.5,1.1,0.7,1.9,0.7
		s1.4-0.1,1.8-0.4c1.3-0.8,2-2.7,2-5.5c0-0.6,0-1.1-0.1-1.6c-0.1,1.2-0.6,2-1.3,2.6s-1.6,0.9-2.7,0.9c-1.1,0-2.1-0.4-2.9-1.2
		c-0.8-0.8-1.2-1.8-1.2-3.1c0-1.3,0.4-2.3,1.3-3C960.4,235.7,961.5,235.3,962.9,235.3z M964.9,237.6c-0.5-0.5-1.2-0.7-2-0.7
		c-0.8,0-1.5,0.2-2,0.7c-0.5,0.5-0.8,1.1-0.8,2s0.3,1.5,0.8,2c0.5,0.5,1.2,0.7,2,0.7c0.8,0,1.5-0.3,2-0.8c0.5-0.5,0.8-1.2,0.8-2
		C965.7,238.7,965.4,238.1,964.9,237.6z"/>
	<path class="st3" d="M975.3,242.1h5.9v1.5h-5.9V242.1z"/>
	<path class="st3" d="M991.3,235.6l6.7,10.9v-10.9h1.7v13.6h-1.9l-6.8-11v11h-1.7v-13.6H991.3z"/>
	<path class="st3" d="M1007.8,238.6c1.4,0,2.6,0.5,3.5,1.4c0.9,0.9,1.3,2.3,1.3,4c0,1.7-0.4,3.1-1.3,4c-0.9,0.9-2,1.4-3.5,1.4
		s-2.6-0.5-3.5-1.4c-0.9-0.9-1.3-2.3-1.3-4c0-1.7,0.4-3.1,1.3-4C1005.2,239,1006.4,238.6,1007.8,238.6z M1010.9,244
		c0-1.2-0.3-2.2-0.8-2.9c-0.5-0.7-1.3-1-2.3-1c-1,0-1.8,0.3-2.3,1c-0.5,0.7-0.8,1.7-0.8,2.9c0,1.2,0.3,2.2,0.8,2.9
		c0.5,0.7,1.3,1,2.3,1s1.8-0.3,2.3-1C1010.6,246.2,1010.9,245.2,1010.9,244z"/>
	<path class="st3" d="M1016,238.8l3.1,8.5l3.1-8.5h1.9l-4.1,10.3h-1.9l-4.1-10.3H1016z"/>
	<path class="st3" d="M1032.8,247.6h7.9v1.6h-9.6v-2c0-1.6,0.6-2.8,1.8-3.5c0.4-0.2,0.8-0.5,1.3-0.6l2.7-1.1
		c1.4-0.5,2.1-1.4,2.1-2.7c0-0.7-0.2-1.3-0.7-1.7c-0.5-0.4-1.1-0.7-2-0.7c-0.9,0-1.6,0.2-2.1,0.5c-0.5,0.4-0.9,0.9-0.9,1.6h-1.9
		c0.1-1.2,0.5-2.1,1.4-2.7c0.9-0.6,2-0.9,3.4-0.9s2.5,0.4,3.4,1.1c0.9,0.7,1.3,1.7,1.3,2.8s-0.3,2-0.9,2.6s-1.3,1.2-2.3,1.6
		l-2.7,1.1c-0.7,0.3-1.2,0.6-1.5,1s-0.5,0.8-0.5,1.4V247.6z"/>
	<path class="st3" d="M1048.6,235.3c1.6,0,2.9,0.6,3.9,1.8c0.9,1.2,1.4,2.9,1.4,5.2c0,2.3-0.5,4-1.4,5.2c-0.9,1.2-2.2,1.8-3.9,1.8
		s-2.9-0.6-3.9-1.8c-1-1.2-1.4-2.9-1.4-5.2c0-2.3,0.5-4,1.4-5.2C1045.7,235.9,1047,235.3,1048.6,235.3z M1052.2,242.3
		c0-1.8-0.3-3.1-0.9-4.1c-0.6-0.9-1.5-1.4-2.6-1.4c-1.2,0-2,0.5-2.6,1.4s-0.9,2.3-0.9,4.1c0,1.8,0.3,3.1,0.9,4.1s1.5,1.4,2.6,1.4
		c1.2,0,2-0.5,2.6-1.4C1051.9,245.5,1052.2,244.1,1052.2,242.3z"/>
	<path class="st3" d="M1056.1,236.6c1-0.1,1.8-0.5,2.5-1.1h1.4v13.6h-1.7v-11.6c-0.7,0.5-1.5,0.7-2.2,0.8V236.6z"/>
	<path class="st3" d="M1068.3,235.3c0.7,0,1.4,0.2,2.1,0.5c0.7,0.3,1.2,0.8,1.7,1.4c1,1.3,1.6,2.9,1.6,4.9c0,3.5-1,5.8-2.9,6.8
		c-0.7,0.3-1.4,0.5-2.2,0.5c-1.5,0-2.7-0.4-3.5-1.2c-0.9-0.8-1.3-1.8-1.3-3h1.8c0,0.8,0.3,1.5,0.8,2c0.5,0.5,1.1,0.7,1.9,0.7
		s1.4-0.1,1.8-0.4c1.3-0.8,2-2.7,2-5.5c0-0.6,0-1.1-0.1-1.6c-0.1,1.2-0.6,2-1.3,2.6c-0.7,0.6-1.6,0.9-2.7,0.9s-2.1-0.4-2.9-1.2
		c-0.8-0.8-1.2-1.8-1.2-3.1c0-1.3,0.4-2.3,1.3-3S1066.8,235.3,1068.3,235.3z M1070.2,237.6c-0.5-0.5-1.2-0.7-2-0.7
		c-0.8,0-1.5,0.2-2,0.7c-0.5,0.5-0.8,1.1-0.8,2s0.3,1.5,0.8,2c0.5,0.5,1.2,0.7,2,0.7s1.5-0.3,2-0.8c0.5-0.5,0.8-1.2,0.8-2
		C1071,238.7,1070.8,238.1,1070.2,237.6z"/>
</g>
<g>
	<path class="st4" d="M901.3,505.9l3.2,6.5h-0.4c-1-2.2-2.1-4.3-3.1-6.4c-0.5,0.1-1.1,0.1-1.7,0.1h-1.5c0,2.1,0,4.2,0,6.3h-0.4v-6.7
		c0.6,0,1.3,0,1.9,0c0.5,0,1.1,0,1.5-0.1c-1.3-2.7-2.6-5.4-3.9-8.1h2.8c3.3,0,5.3,1.7,5.3,4.2C904.9,503.9,903.7,505.4,901.3,505.9z
		 M901.2,505.5c2.2-0.5,3.3-1.8,3.3-3.8c0-2.3-1.9-3.8-4.9-3.8h-2.1L901.2,505.5z"/>
	<path class="st4" d="M911.3,497.9c0,2,0,4,0,6h2.8c1,0,2,0,3,0v0.4h-3c-0.9,0-1.8,0-2.8,0v0.5c0,2.4,0,4.8,0,7.2h6.7v0.4h-7.2
		c0-2.5,0-5.1,0-7.6v-7.4c2.4,0,4.8,0,7.2,0v0.4H911.3z"/>
	<path class="st4" d="M922.5,504.8c0-4.3,3.1-7.6,7.2-7.6c1.5,0,3.1,0.5,4.4,1.2v0.4c-1.3-0.7-3-1.2-4.4-1.2c-3.8,0-6.8,3.1-6.8,7.2
		c0,4.1,3,7.5,6.8,7.5c1.4,0,3.1-0.5,4.4-1.2v0.5c-1.2,0.7-2.9,1.1-4.4,1.1C925.7,512.7,922.5,509.2,922.5,504.8z"/>
	<path class="st4" d="M938.4,504.8c0-4.4,3.1-7.7,7.4-7.7s7.4,3.3,7.4,7.7c0,4.3-3.4,8-7.4,8S938.4,509.2,938.4,504.8z M952.8,504.8
		c0-4.2-2.9-7.3-7-7.3s-7,3.1-7,7.3c0,4.1,3.2,7.5,7,7.5S952.8,508.9,952.8,504.8z"/>
	<path class="st4" d="M971.6,512.4l-1.5-2.1c-1.1,1.5-2.8,2.4-4.9,2.4c-3.7,0-6.8-3.4-6.8-8c0-4.4,3-7.6,7.3-7.6
		c1.9,0,3.8,0.7,5,1.7v0.5c-1.3-1-3.2-1.7-5-1.7c-4,0-6.9,3.1-6.9,7.2c0,4.3,3,7.5,6.4,7.5c2,0,3.6-0.9,4.6-2.4
		c-1.1-1.4-2.1-2.9-3.2-4.3h2.6c0.8,0,1.5,0,2.3,0c0,1.6-0.5,3.1-1.3,4.3l1.8,2.4H971.6z M970.1,509.7c0.7-1,1.1-2.3,1.1-3.6h-1.9
		c-0.6,0-1.3,0-1.9,0C968.3,507.3,969.2,508.5,970.1,509.7z"/>
	<path class="st4" d="M987.6,503.5c0,2.2,0,7.1,0,9.3l-9.7-14.3c0,2.7,0,5.3,0,8v6h-0.4v-6c0-3.1,0-6.2,0-9.3l9.7,14.3
		c0-2.7,0-5.3,0-8v-6h0.4V503.5z"/>
	<path class="st4" d="M994.4,505c0-2.5,0-5,0-7.5h0.4v7.5c0,2.5,0,5,0,7.5h-0.4V505z"/>
	<path class="st4" d="M1009.5,497.9c-1.6,0-3.2,0-4.8,0h-4.8v-0.4h4.8c1.8,0,3.7,0,5.6,0l-9.2,14.5c1.4,0,2.8,0,4.1,0h4.1v0.4h-4.1
		c-1.6,0-3.3,0-4.9,0L1009.5,497.9z"/>
	<path class="st4" d="M1015.6,497.9c0,2,0,4,0,6h2.8c1,0,2,0,3,0v0.4h-3c-0.9,0-1.8,0-2.8,0v0.5c0,2.4,0,4.8,0,7.2h6.7v0.4h-7.2
		c0-2.5,0-5.1,0-7.6v-7.4c2.4,0,4.8,0,7.2,0v0.4H1015.6z"/>
	<path class="st4" d="M1027.8,497.5h2.7c5,0,8.1,2.8,8.1,7.3c0,4.4-3.5,7.7-8.3,7.7h-2.6V497.5z M1030.3,512c4.6,0,7.9-3.1,7.9-7.3
		c0-4.2-3-6.8-7.7-6.8h-2.2V512H1030.3z"/>
	<path class="st4" d="M1062.1,497.9h-5c0,2.4,0,4.8,0,7.2v7.3h-0.4v-7.3c0-2.4,0-4.8,0-7.2h-5v-0.4h5.2c1.8,0,3.5,0,5.2,0V497.9z"/>
	<path class="st4" d="M1076.8,497.5v7.5c0,2.5,0,5,0,7.5h-0.4V505c0-0.2,0-0.4,0-0.6h-4.6c-1.5,0-3,0-4.6,0v0.6c0,2.5,0,5,0,7.5
		h-0.4V505c0-2.5,0-5,0-7.5h0.4v6.4c1.5,0,3,0,4.6,0h4.6c0-2.2,0-4.3,0-6.4H1076.8z"/>
	<path class="st4" d="M1083.9,497.9c0,2,0,4,0,6h2.8c1,0,2,0,3,0v0.4h-3c-0.9,0-1.8,0-2.8,0v0.5c0,2.4,0,4.8,0,7.2h6.7v0.4h-7.2
		c0-2.5,0-5.1,0-7.6v-7.4c2.4,0,4.8,0,7.2,0v0.4H1083.9z"/>
	<path class="st4" d="M1097.9,497.1l5,7.6c1.7-2.5,3.3-5,5-7.6c1,6.4,1.8,10.9,2.5,15.3h-0.4c-0.7-4.4-1.4-8.8-2.3-14.1l-4.5,6.8
		v3.6h-0.4v-3.6c-1.2-1.9-2.5-3.8-4.5-6.9c-0.8,5.2-1.6,9.7-2.3,14.1h-0.4C1096.1,508,1096.8,503.7,1097.9,497.1z"/>
	<path class="st4" d="M1116.8,497.9c0,2,0,4,0,6h2.8c1,0,2,0,3,0v0.4h-3c-0.9,0-1.8,0-2.8,0v0.5c0,2.4,0,4.8,0,7.2h6.7v0.4h-7.2
		c0-2.5,0-5.1,0-7.6v-7.4c2.4,0,4.8,0,7.2,0v0.4H1116.8z"/>
	<path class="st4" d="M1133.1,505.9l3.2,6.5h-0.4c-1-2.2-2.1-4.3-3.1-6.4c-0.5,0.1-1.1,0.1-1.7,0.1h-1.5c0,2.1,0,4.2,0,6.3h-0.4
		v-6.7c0.6,0,1.3,0,1.9,0c0.5,0,1.1,0,1.5-0.1c-1.3-2.7-2.6-5.4-3.9-8.1h2.8c3.3,0,5.3,1.7,5.3,4.2
		C1136.6,503.9,1135.4,505.4,1133.1,505.9z M1132.9,505.5c2.2-0.5,3.3-1.8,3.3-3.8c0-2.3-1.9-3.8-4.9-3.8h-2.1L1132.9,505.5z"/>
</g>
<g>
	<path class="st3" d="M896.9,556.8c-0.7,0.6-1.5,1-2.6,1s-2.1-0.3-3.3-0.9v-1.8c1,0.7,2,1,2.8,1c0.9,0,1.5-0.2,1.8-0.6
		s0.5-1.1,0.5-1.9V544h1.7v9.6C897.9,555.1,897.6,556.2,896.9,556.8z"/>
	<path class="st3" d="M908.2,550.8c0-0.9-0.2-1.6-0.6-2c-0.4-0.4-1-0.6-1.7-0.6s-1.3,0.1-1.8,0.4s-0.7,0.8-0.7,1.4h-1.9
		c0-1.6,0.8-2.6,2.5-2.9c0.5-0.1,1.1-0.2,1.7-0.2c1.3,0,2.3,0.3,3,1c0.7,0.6,1.1,1.6,1.1,3v6.6h-1.5l-0.2-1.7c-0.6,1.3-1.8,2-3.4,2
		c-1.1,0-2-0.3-2.7-0.9c-0.7-0.6-1-1.4-1-2.3c0-0.9,0.4-1.6,1.1-2.2c0.7-0.5,1.7-0.8,2.8-0.8s2.2,0.2,3.2,0.6V550.8z M908.2,553.2
		c-1-0.3-1.9-0.4-2.7-0.4c-0.8,0-1.4,0.1-1.9,0.4c-0.5,0.3-0.7,0.7-0.7,1.3c0,1.3,0.7,1.9,2.2,1.9c0.8,0,1.5-0.3,2.1-0.9
		S908.2,554.2,908.2,553.2z"/>
	<path class="st3" d="M915.5,549.2c0.7-1.5,1.8-2.2,3.5-2.2c1.2,0,2.2,0.4,2.9,1.2c0.7,0.8,1,1.9,1,3.3v6.1h-1.7v-6.1
		c0-1-0.2-1.7-0.7-2.2c-0.5-0.5-1.1-0.8-2-0.8s-1.6,0.4-2.1,1.1c-0.5,0.7-0.8,1.7-0.8,2.9v5.1h-1.7v-10.3h1.5L915.5,549.2z"/>
	<path class="st3" d="M932.9,556h7.9v1.6h-9.6v-2c0-1.6,0.6-2.8,1.8-3.5c0.4-0.2,0.8-0.5,1.3-0.6l2.7-1.1c1.4-0.5,2.1-1.4,2.1-2.7
		c0-0.7-0.2-1.3-0.7-1.7c-0.5-0.4-1.1-0.7-2-0.7c-0.9,0-1.6,0.2-2.1,0.5c-0.5,0.4-0.9,0.9-0.9,1.6h-1.9c0.1-1.2,0.5-2.1,1.4-2.7
		c0.9-0.6,2-0.9,3.4-0.9c1.4,0,2.5,0.4,3.4,1.1c0.9,0.7,1.3,1.7,1.3,2.8c0,1.1-0.3,2-0.9,2.6c-0.6,0.6-1.3,1.2-2.3,1.6l-2.7,1.1
		c-0.7,0.3-1.2,0.6-1.5,1c-0.3,0.4-0.5,0.8-0.5,1.4V556z"/>
	<path class="st3" d="M948.8,543.7c1.6,0,2.9,0.6,3.9,1.8c0.9,1.2,1.4,2.9,1.4,5.2c0,2.3-0.5,4-1.4,5.2c-0.9,1.2-2.2,1.8-3.9,1.8
		s-2.9-0.6-3.9-1.8c-1-1.2-1.4-2.9-1.4-5.2c0-2.3,0.5-4,1.4-5.2C945.9,544.3,947.2,543.7,948.8,543.7z M952.3,550.8
		c0-1.8-0.3-3.1-0.9-4.1c-0.6-0.9-1.5-1.4-2.6-1.4c-1.2,0-2,0.5-2.6,1.4c-0.6,0.9-0.9,2.3-0.9,4.1c0,1.8,0.3,3.1,0.9,4.1
		c0.6,0.9,1.5,1.4,2.6,1.4c1.2,0,2-0.5,2.6-1.4C952,553.9,952.3,552.5,952.3,550.8z"/>
	<path class="st3" d="M956.2,545c1-0.1,1.8-0.5,2.5-1.1h1.4v13.6h-1.7V546c-0.7,0.5-1.5,0.7-2.2,0.8V545z"/>
	<path class="st3" d="M971.6,543.8v9h2.4v1.5h-2.4v3.3h-1.7v-3.3h-7v-1.3l7.1-9.2H971.6z M964.9,552.9h5v-6.5L964.9,552.9z"/>
	<path class="st3" d="M980.3,550.5h5.9v1.5h-5.9V550.5z"/>
	<path class="st3" d="M998.2,556.8c-0.7,0.6-1.5,1-2.6,1s-2.1-0.3-3.3-0.9v-1.8c1,0.7,2,1,2.8,1c0.9,0,1.5-0.2,1.8-0.6
		s0.5-1.1,0.5-1.9V544h1.7v9.6C999.2,555.1,998.8,556.2,998.2,556.8z"/>
	<path class="st3" d="M1010.1,555.5c-0.7,1.5-1.8,2.2-3.4,2.2c-1.2,0-2.1-0.3-2.8-1c-0.7-0.6-1.1-1.6-1.1-3v-6.6h1.7v6.4
		c0,1.7,0.8,2.6,2.4,2.6c0.9,0,1.7-0.4,2.3-1.1c0.6-0.7,0.9-1.6,0.9-2.8v-5.2h1.7v10.3h-1.7V555.5z"/>
	<path class="st3" d="M1017.8,549.2c0.7-1.5,1.8-2.2,3.5-2.2c1.2,0,2.2,0.4,2.9,1.2c0.7,0.8,1,1.9,1,3.3v6.1h-1.7v-6.1
		c0-1-0.2-1.7-0.7-2.2c-0.5-0.5-1.1-0.8-2-0.8s-1.6,0.4-2.1,1.1c-0.5,0.7-0.8,1.7-0.8,2.9v5.1h-1.7v-10.3h1.5L1017.8,549.2z"/>
	<path class="st3" d="M1035.2,556h7.9v1.6h-9.6v-2c0-1.6,0.6-2.8,1.8-3.5c0.4-0.2,0.8-0.5,1.3-0.6l2.7-1.1c1.4-0.5,2.1-1.4,2.1-2.7
		c0-0.7-0.2-1.3-0.7-1.7c-0.5-0.4-1.1-0.7-2-0.7c-0.9,0-1.6,0.2-2.1,0.5s-0.9,0.9-0.9,1.6h-1.9c0.1-1.2,0.5-2.1,1.4-2.7
		c0.9-0.6,2-0.9,3.4-0.9s2.5,0.4,3.4,1.1c0.9,0.7,1.3,1.7,1.3,2.8c0,1.1-0.3,2-0.9,2.6c-0.6,0.6-1.3,1.2-2.3,1.6l-2.7,1.1
		c-0.7,0.3-1.2,0.6-1.5,1c-0.3,0.4-0.5,0.8-0.5,1.4V556z"/>
	<path class="st3" d="M1051,543.7c1.6,0,2.9,0.6,3.9,1.8s1.4,2.9,1.4,5.2c0,2.3-0.5,4-1.4,5.2s-2.2,1.8-3.9,1.8
		c-1.6,0-2.9-0.6-3.9-1.8c-1-1.2-1.4-2.9-1.4-5.2c0-2.3,0.5-4,1.4-5.2C1048.1,544.3,1049.4,543.7,1051,543.7z M1054.6,550.8
		c0-1.8-0.3-3.1-0.9-4.1c-0.6-0.9-1.5-1.4-2.6-1.4c-1.2,0-2,0.5-2.6,1.4c-0.6,0.9-0.9,2.3-0.9,4.1c0,1.8,0.3,3.1,0.9,4.1
		c0.6,0.9,1.5,1.4,2.6,1.4c1.2,0,2-0.5,2.6-1.4C1054.3,553.9,1054.6,552.5,1054.6,550.8z"/>
	<path class="st3" d="M1058.5,545c1-0.1,1.8-0.5,2.5-1.1h1.4v13.6h-1.7V546c-0.7,0.5-1.5,0.7-2.2,0.8V545z"/>
	<path class="st3" d="M1074.3,544v1.6l-6.2,12h-2.3l6.5-11.9h-7.2V544H1074.3z"/>
</g>
<g>
	<path class="st4" d="M32.8,127.6l-0.6-10h0.4l0.6,9.9c0.2,2.9,1.9,5,4.5,5c2.6,0,4.3-2,4.5-5l0.6-9.9h0.4l-0.6,10
		c-0.2,3.2-2.1,5.3-4.9,5.3C34.9,132.9,33,130.8,32.8,127.6z"/>
	<path class="st4" d="M57.2,132.5l-4.8-8c-1.8,3-3.3,5.5-4.8,8h-0.5c1.7-2.8,3.3-5.6,5-8.4c-1.1-1.9-2.4-4-3.9-6.5h4.1
		c1.4,0,2.8,0,4.1,0c-1.5,2.5-2.8,4.6-3.9,6.6l5,8.4H57.2z M52.4,123.7l3.4-5.7c-1.1,0-2.2,0-3.4,0c-1.1,0-2.3,0-3.4,0
		C50.2,119.9,51.3,121.8,52.4,123.7z"/>
	<path class="st4" d="M72.5,118c0,2,0,4,0,6h2.8c1,0,2,0,3,0v0.4h-3c-0.9,0-1.8,0-2.8,0v0.5c0,2.4,0,4.8,0,7.2h6.7v0.4H72
		c0-2.5,0-5.1,0-7.6v-7.4c2.4,0,4.8,0,7.2,0v0.4H72.5z"/>
	<path class="st4" d="M94.8,123.6c0,2.2,0,7.1,0,9.3l-9.7-14.3c0,2.7,0,5.3,0,8v6h-0.4v-6c0-3.1,0-6.2,0-9.3l9.7,14.3
		c0-2.7,0-5.3,0-8v-6h0.4V123.6z"/>
	<path class="st4" d="M113.9,132.5l-1.5-2.1c-1.1,1.5-2.8,2.4-4.9,2.4c-3.7,0-6.8-3.4-6.8-8c0-4.4,3-7.6,7.3-7.6
		c1.9,0,3.8,0.7,5,1.7v0.5c-1.3-1-3.2-1.7-5-1.7c-4,0-6.9,3.1-6.9,7.2c0,4.3,3,7.5,6.4,7.5c2,0,3.6-0.9,4.6-2.4
		c-1.1-1.4-2.1-2.9-3.2-4.3h2.6c0.8,0,1.5,0,2.3,0c0,1.6-0.5,3.1-1.3,4.3l1.8,2.4H113.9z M112.3,129.8c0.7-1,1.1-2.3,1.1-3.6h-1.9
		c-0.6,0-1.3,0-1.9,0C110.5,127.4,111.4,128.6,112.3,129.8z"/>
	<path class="st4" d="M119.7,125.1c0-2.5,0-5,0-7.5h0.4v7.5c0,2.5,0,5,0,7.5h-0.4V125.1z"/>
	<path class="st4" d="M137.1,123.6c0,2.2,0,7.1,0,9.3l-9.7-14.3c0,2.7,0,5.3,0,8v6h-0.4v-6c0-3.1,0-6.2,0-9.3l9.7,14.3
		c0-2.7,0-5.3,0-8v-6h0.4V123.6z"/>
	<path class="st4" d="M144.2,118c0,2,0,4,0,6h2.8c1,0,2,0,3,0v0.4h-3c-0.9,0-1.8,0-2.8,0v0.5c0,2.4,0,4.8,0,7.2h6.7v0.4h-7.2
		c0-2.5,0-5.1,0-7.6v-7.4c2.4,0,4.8,0,7.2,0v0.4H144.2z"/>
	<path class="st4" d="M156.9,118c0,2,0,4,0,6h2.8c1,0,2,0,3,0v0.4h-3c-0.9,0-1.8,0-2.8,0v0.5c0,2.4,0,4.8,0,7.2h6.7v0.4h-7.2
		c0-2.5,0-5.1,0-7.6v-7.4c2.4,0,4.8,0,7.2,0v0.4H156.9z"/>
	<path class="st4" d="M173.2,126l3.2,6.5h-0.4c-1-2.2-2.1-4.3-3.1-6.4c-0.5,0.1-1.1,0.1-1.7,0.1h-1.5c0,2.1,0,4.2,0,6.3h-0.4v-6.7
		c0.6,0,1.3,0,1.9,0c0.6,0,1.1,0,1.5-0.1c-1.3-2.7-2.6-5.4-3.9-8.1h2.8c3.3,0,5.3,1.7,5.3,4.2C176.7,124,175.5,125.5,173.2,126z
		 M173,125.6c2.2-0.5,3.3-1.8,3.3-3.8c0-2.3-1.9-3.8-4.9-3.8h-2.1L173,125.6z"/>
</g>
<g>
	<path class="st3" d="M32.7,164.1c2,0,3.7,0.6,4.9,1.8s1.8,2.9,1.8,4.9c0,2.1-0.6,3.7-1.8,4.9s-2.9,1.8-4.9,1.8h-4v-13.6H32.7z
		 M30.4,176.1h2.3c1.5,0,2.7-0.5,3.6-1.5c0.9-1,1.3-2.3,1.3-3.8c0-1.5-0.4-2.8-1.3-3.8c-0.9-1-2.1-1.5-3.6-1.5h-2.3V176.1z"/>
	<path class="st3" d="M46.5,176.5c1.4,0,2.2-0.6,2.4-1.9h1.7c-0.2,1-0.6,1.8-1.4,2.4c-0.8,0.6-1.7,0.9-2.8,0.9
		c-1.4,0-2.5-0.5-3.4-1.5c-0.9-1-1.3-2.3-1.3-3.9c0-1.6,0.4-2.9,1.3-3.9c0.9-1,2-1.5,3.5-1.5s2.5,0.6,3.2,1.7c0.7,1.1,1,2.5,0.7,4.1
		h-7.1c0,1.1,0.3,1.9,0.8,2.6C44.9,176.1,45.6,176.5,46.5,176.5z M47.8,168.7c-0.3-0.2-0.7-0.3-1.2-0.3c-0.9,0-1.6,0.3-2.1,0.9
		s-0.8,1.3-0.9,2.2h5.5C49.1,170.1,48.7,169.1,47.8,168.7z"/>
	<path class="st3" d="M57.5,167.1c1.2,0,2.2,0.3,2.9,0.9c0.7,0.6,1.2,1.4,1.4,2.3l-1.7,0.2c-0.2-0.6-0.5-1.1-0.9-1.4
		c-0.4-0.3-0.9-0.5-1.4-0.5c-0.9,0-1.7,0.3-2.2,1c-0.6,0.7-0.9,1.6-0.9,2.8s0.3,2.1,0.8,2.9c0.6,0.7,1.2,1.1,2.1,1.1
		c0.8,0,1.4-0.2,1.9-0.6c0.4-0.4,0.6-0.9,0.6-1.6h1.7c0,1.1-0.4,2-1.2,2.7c-0.8,0.7-1.8,1-3,1c-1.3,0-2.4-0.5-3.3-1.5
		c-0.9-1-1.4-2.3-1.4-4c0-1.6,0.5-3,1.4-3.9C55.3,167.5,56.3,167.1,57.5,167.1z"/>
	<path class="st3" d="M71.2,176.1h7.9v1.6h-9.6v-2c0-1.6,0.6-2.8,1.8-3.5c0.4-0.2,0.8-0.5,1.3-0.6l2.7-1.1c1.4-0.5,2.1-1.4,2.1-2.7
		c0-0.7-0.2-1.3-0.7-1.7c-0.5-0.4-1.1-0.7-2-0.7c-0.9,0-1.6,0.2-2.1,0.5c-0.5,0.4-0.9,0.9-0.9,1.6h-1.9c0.1-1.2,0.5-2.1,1.4-2.7
		c0.9-0.6,2-0.9,3.4-0.9c1.4,0,2.5,0.4,3.4,1.1c0.9,0.7,1.3,1.7,1.3,2.8s-0.3,2-0.9,2.6c-0.6,0.6-1.3,1.2-2.3,1.6l-2.7,1.1
		c-0.7,0.3-1.2,0.6-1.5,1s-0.5,0.8-0.5,1.4V176.1z"/>
	<path class="st3" d="M87.1,163.8c1.6,0,2.9,0.6,3.9,1.8c0.9,1.2,1.4,2.9,1.4,5.2c0,2.3-0.5,4-1.4,5.2c-0.9,1.2-2.2,1.8-3.9,1.8
		c-1.6,0-2.9-0.6-3.9-1.8c-1-1.2-1.4-2.9-1.4-5.2c0-2.3,0.5-4,1.4-5.2C84.2,164.4,85.5,163.8,87.1,163.8z M90.6,170.8
		c0-1.8-0.3-3.1-0.9-4.1s-1.5-1.4-2.6-1.4c-1.2,0-2,0.5-2.6,1.4s-0.9,2.3-0.9,4.1c0,1.8,0.3,3.1,0.9,4.1s1.5,1.4,2.6,1.4
		c1.2,0,2-0.5,2.6-1.4S90.6,172.6,90.6,170.8z"/>
	<path class="st3" d="M94.5,165.1c1-0.1,1.8-0.5,2.5-1.1h1.4v13.6h-1.7V166c-0.7,0.5-1.5,0.7-2.2,0.8V165.1z"/>
	<path class="st3" d="M106.7,163.8c0.7,0,1.4,0.2,2.1,0.5c0.7,0.3,1.2,0.8,1.7,1.4c1,1.3,1.6,2.9,1.6,4.9c0,3.5-1,5.8-2.9,6.8
		c-0.7,0.3-1.4,0.5-2.2,0.5c-1.5,0-2.7-0.4-3.5-1.2c-0.9-0.8-1.3-1.8-1.3-3h1.8c0,0.8,0.3,1.5,0.8,2c0.5,0.5,1.1,0.7,1.9,0.7
		c0.7,0,1.4-0.1,1.8-0.4c1.3-0.8,2-2.7,2-5.5c0-0.6,0-1.1-0.1-1.6c-0.1,1.2-0.6,2-1.3,2.6c-0.7,0.6-1.6,0.9-2.7,0.9
		c-1.1,0-2.1-0.4-2.9-1.2c-0.8-0.8-1.2-1.8-1.2-3.1c0-1.3,0.4-2.3,1.3-3S105.3,163.8,106.7,163.8z M108.7,166.1
		c-0.5-0.5-1.2-0.7-2-0.7c-0.8,0-1.5,0.2-2,0.7c-0.5,0.5-0.8,1.1-0.8,2s0.3,1.5,0.8,2c0.5,0.5,1.2,0.7,2,0.7c0.8,0,1.5-0.3,2-0.8
		c0.5-0.5,0.8-1.2,0.8-2C109.5,167.2,109.2,166.6,108.7,166.1z"/>
	<path class="st3" d="M119.1,170.6h5.9v1.5h-5.9V170.6z"/>
	<path class="st3" d="M134.7,168.9c0.7-1.2,1.7-1.8,3-1.8c1.3,0,2.5,0.5,3.4,1.5c0.9,1,1.3,2.3,1.3,3.9s-0.5,2.9-1.4,3.9
		c-0.9,1-2,1.5-3.3,1.5c-1.3,0-2.3-0.5-2.9-1.5v6.3h-1.7v-15.4h1.4L134.7,168.9z M137.7,176.4c0.8,0,1.5-0.3,2.1-1
		c0.6-0.7,0.9-1.6,0.9-2.8s-0.3-2.2-0.9-2.9c-0.6-0.7-1.3-1.1-2.1-1.1c-0.8,0-1.5,0.3-2,0.8c-0.5,0.5-0.8,1.2-0.8,2.1v2
		c0,0.9,0.3,1.6,0.8,2.1C136.2,176.1,136.9,176.4,137.7,176.4z"/>
	<path class="st3" d="M150.1,168.8c-1.6,0-2.5,1.3-2.5,3.8v5h-1.7v-10.3h1.7v2c0.5-1.4,1.4-2.2,2.7-2.2c0.4,0,0.8,0.1,1.2,0.2
		l-0.1,1.7C151,168.8,150.6,168.8,150.1,168.8z"/>
	<path class="st3" d="M157.7,176.5c1.4,0,2.2-0.6,2.4-1.9h1.7c-0.2,1-0.6,1.8-1.4,2.4c-0.8,0.6-1.7,0.9-2.8,0.9
		c-1.4,0-2.5-0.5-3.4-1.5c-0.9-1-1.3-2.3-1.3-3.9c0-1.6,0.4-2.9,1.3-3.9c0.9-1,2-1.5,3.5-1.5s2.5,0.6,3.2,1.7c0.7,1.1,1,2.5,0.7,4.1
		h-7.1c0,1.1,0.3,1.9,0.8,2.6C156.1,176.1,156.8,176.5,157.7,176.5z M159,168.7c-0.3-0.2-0.7-0.3-1.2-0.3c-0.9,0-1.6,0.3-2.1,0.9
		s-0.8,1.3-0.9,2.2h5.5C160.3,170.1,159.8,169.1,159,168.7z"/>
	<path class="st3" d="M165.8,167.8c0.7-0.5,1.7-0.8,2.9-0.8c1.2,0,2.2,0.3,2.9,0.8c0.7,0.5,1.1,1.2,1.1,2h-1.7
		c-0.1-0.9-0.9-1.4-2.4-1.4c-0.7,0-1.2,0.2-1.6,0.5c-0.4,0.3-0.6,0.7-0.6,1c0,0.4,0.1,0.7,0.4,0.9c0.3,0.3,0.7,0.5,1.4,0.7l2.1,0.7
		c0.9,0.3,1.5,0.6,2,1c0.5,0.4,0.7,1,0.7,1.7c0,0.7-0.4,1.4-1.1,2s-1.8,0.9-3.2,0.9c-1.4,0-2.4-0.3-3.2-0.9
		c-0.8-0.6-1.2-1.4-1.2-2.4h1.6c0,0.6,0.3,1.1,0.8,1.5c0.5,0.3,1.1,0.5,1.9,0.5c0.7,0,1.4-0.2,1.9-0.5c0.5-0.3,0.7-0.7,0.7-1.1
		s-0.1-0.8-0.4-1c-0.3-0.2-0.8-0.4-1.4-0.6l-2-0.7c-1.8-0.5-2.7-1.5-2.7-2.8C164.7,169,165.1,168.3,165.8,167.8z"/>
	<path class="st3" d="M180.2,176.5c1.4,0,2.2-0.6,2.4-1.9h1.7c-0.2,1-0.6,1.8-1.4,2.4c-0.8,0.6-1.7,0.9-2.8,0.9
		c-1.4,0-2.5-0.5-3.4-1.5c-0.9-1-1.3-2.3-1.3-3.9c0-1.6,0.4-2.9,1.3-3.9c0.9-1,2-1.5,3.5-1.5s2.5,0.6,3.2,1.7c0.7,1.1,1,2.5,0.7,4.1
		h-7.1c0,1.1,0.3,1.9,0.8,2.6C178.5,176.1,179.2,176.5,180.2,176.5z M181.4,168.7c-0.3-0.2-0.7-0.3-1.2-0.3c-0.9,0-1.6,0.3-2.1,0.9
		s-0.8,1.3-0.9,2.2h5.5C182.7,170.1,182.3,169.1,181.4,168.7z"/>
	<path class="st3" d="M189.4,169.3c0.7-1.5,1.8-2.2,3.5-2.2c1.2,0,2.2,0.4,2.9,1.2c0.7,0.8,1,1.9,1,3.3v6.1H195v-6.1
		c0-1-0.2-1.7-0.7-2.2s-1.1-0.8-2-0.8s-1.6,0.4-2.1,1.1c-0.5,0.7-0.8,1.7-0.8,2.9v5.1h-1.7v-10.3h1.5L189.4,169.3z"/>
	<path class="st3" d="M206.1,177.3c-1.2,0.6-2.4,0.7-3.4,0.4c-0.7-0.2-1.3-0.7-1.6-1.4c-0.2-0.4-0.2-0.8-0.2-1.3v-6.3h-1.7v-1.3h1.7
		v-2.9h1.7v2.9h3.2v1.3h-3.2v6.3c0,1,0.5,1.6,1.5,1.6c0.5,0,1.1-0.1,1.8-0.4L206.1,177.3z"/>
</g>
<g>
	<path class="st3" d="M27.7,601.1h2.1l4.6,13.6h-1.8l-1.2-3.5H26l-1.2,3.5H23L27.7,601.1z M26.4,609.8h4.5l-2.2-6.7L26.4,609.8z"/>
	<path class="st3" d="M44.1,612.6c-0.7,1.5-1.8,2.2-3.4,2.2c-1.2,0-2.1-0.3-2.8-1c-0.7-0.6-1.1-1.6-1.1-3v-6.6h1.7v6.4
		c0,1.7,0.8,2.6,2.4,2.6c0.9,0,1.7-0.4,2.3-1.1s0.9-1.6,0.9-2.8v-5.2h1.7v10.3h-1.7V612.6z"/>
	<path class="st3" d="M50.5,614.3c-0.9-0.4-1.3-1.1-1.3-1.9c0-0.4,0.2-0.8,0.5-1.2s0.8-0.6,1.3-0.7c-0.8-0.7-1.2-1.6-1.2-2.7
		c0-1.1,0.4-2,1.2-2.7c0.8-0.7,1.7-1,2.8-1c1.1,0,2,0.3,2.8,0.8c0.1-0.8,0.4-1.4,0.9-1.8s1.2-0.7,2-0.7l-0.2,1.7
		c-1.3,0-1.9,0.5-2,1.6c0.5,0.6,0.8,1.4,0.8,2.2c0,1.1-0.4,2-1.2,2.7c-0.8,0.7-1.8,1.1-3,1.1c-0.8,0-1.5-0.2-2.2-0.5
		c-0.3,0.1-0.5,0.2-0.8,0.4c-0.2,0.2-0.3,0.5-0.3,0.9c0,0.8,0.6,1.1,1.9,1.1h4c1,0,1.7,0.2,2.3,0.6c0.6,0.4,0.8,1,0.8,1.7
		c0,1.1-0.5,2-1.6,2.9s-2.5,1.2-4.2,1.2c-1.7,0-3-0.3-4-0.9c-1-0.6-1.4-1.4-1.4-2.4c0-0.6,0.2-1.1,0.5-1.5
		C49.5,614.7,49.9,614.5,50.5,614.3z M50.2,616.6c0,0.5,0.3,1,0.9,1.4c0.6,0.4,1.5,0.6,2.7,0.6s2.2-0.3,3-0.8
		c0.8-0.5,1.2-1.1,1.2-1.8c0-0.3-0.1-0.6-0.4-0.9c-0.2-0.2-0.6-0.4-1.1-0.4h-4.2c-0.7,0-1.3,0.2-1.7,0.5
		C50.4,615.6,50.2,616,50.2,616.6z M56.6,607.8c0-0.7-0.2-1.3-0.7-1.8s-1.1-0.7-1.8-0.7s-1.4,0.2-1.8,0.7s-0.7,1.1-0.7,1.8
		c0,0.7,0.2,1.4,0.7,1.8s1.1,0.7,1.8,0.7c0.8,0,1.4-0.2,1.8-0.7C56.3,609.2,56.6,608.5,56.6,607.8z"/>
	<path class="st3" d="M68.3,613.1h7.9v1.6h-9.6v-2c0-1.6,0.6-2.8,1.8-3.5c0.4-0.2,0.8-0.5,1.3-0.6l2.7-1.1c1.4-0.5,2.1-1.4,2.1-2.7
		c0-0.7-0.2-1.3-0.7-1.7c-0.5-0.4-1.1-0.7-2-0.7c-0.9,0-1.6,0.2-2.1,0.5c-0.5,0.4-0.9,0.9-0.9,1.6h-1.9c0.1-1.2,0.5-2.1,1.4-2.7
		c0.9-0.6,2-0.9,3.4-0.9c1.4,0,2.5,0.4,3.4,1.1c0.9,0.7,1.3,1.7,1.3,2.8s-0.3,2-0.9,2.6c-0.6,0.6-1.3,1.2-2.3,1.6l-2.7,1.1
		c-0.7,0.3-1.2,0.6-1.5,1c-0.3,0.4-0.5,0.8-0.5,1.4V613.1z"/>
	<path class="st3" d="M84.2,600.8c1.6,0,2.9,0.6,3.9,1.8c0.9,1.2,1.4,2.9,1.4,5.2c0,2.3-0.5,4-1.4,5.2c-0.9,1.2-2.2,1.8-3.9,1.8
		c-1.6,0-2.9-0.6-3.9-1.8c-1-1.2-1.4-2.9-1.4-5.2c0-2.3,0.5-4,1.4-5.2C81.3,601.4,82.6,600.8,84.2,600.8z M87.7,607.8
		c0-1.8-0.3-3.1-0.9-4.1s-1.5-1.4-2.6-1.4c-1.2,0-2,0.5-2.6,1.4s-0.9,2.3-0.9,4.1s0.3,3.1,0.9,4.1c0.6,0.9,1.5,1.4,2.6,1.4
		c1.2,0,2-0.5,2.6-1.4C87.4,611,87.7,609.6,87.7,607.8z"/>
	<path class="st3" d="M91.6,602.1c1-0.1,1.8-0.5,2.5-1.1h1.4v13.6h-1.7V603c-0.7,0.5-1.5,0.7-2.2,0.8V602.1z"/>
	<path class="st3" d="M108.6,604.5c0,1.4-0.8,2.4-2.4,3c0.9,0.2,1.6,0.6,2.1,1.2c0.5,0.6,0.8,1.3,0.8,2.2c0,1.2-0.5,2.2-1.4,2.9
		c-0.9,0.7-2.1,1.1-3.6,1.1c-1.5,0-2.7-0.4-3.8-1.2c-1-0.8-1.6-1.9-1.6-3.2h1.8c0,0.9,0.4,1.6,1,2.1c0.7,0.5,1.5,0.7,2.5,0.7
		c1,0,1.8-0.2,2.3-0.7c0.6-0.5,0.8-1.1,0.8-1.8c0-0.7-0.3-1.3-0.8-1.7c-0.5-0.5-1.4-0.7-2.6-0.7h-1.6V607h1.1c1,0,1.9-0.2,2.5-0.6
		s0.9-1,0.9-1.7s-0.2-1.3-0.7-1.7s-1.1-0.7-1.9-0.7s-1.5,0.1-2,0.4c-0.5,0.3-0.9,0.8-1.1,1.6h-1.8c0.2-1.2,0.7-2.1,1.5-2.7
		c0.8-0.6,1.9-0.9,3.2-0.9s2.4,0.3,3.3,1C108.2,602.6,108.6,603.5,108.6,604.5z"/>
</g>
<g>
	<path class="st3" d="M86.5,288.6c-0.3,0.5-0.8,1-1.5,1.3c-0.6,0.3-1.4,0.5-2.3,0.5c-1.4,0-2.5-0.3-3.4-1s-1.4-1.6-1.5-2.8H81
		c0,0.5,0.2,0.8,0.5,1.1c0.3,0.3,0.6,0.4,1.1,0.4c0.4,0,0.7-0.1,0.9-0.3c0.2-0.2,0.3-0.5,0.3-0.8c0-0.3-0.1-0.6-0.3-0.8
		c-0.2-0.2-0.5-0.4-0.8-0.5s-0.7-0.3-1.3-0.5c-0.8-0.3-1.4-0.5-1.9-0.8s-0.9-0.6-1.3-1.1s-0.5-1.1-0.5-1.9c0-0.7,0.2-1.4,0.6-1.9
		s0.9-0.9,1.5-1.2c0.7-0.3,1.4-0.4,2.3-0.4c1.4,0,2.5,0.3,3.3,1c0.8,0.7,1.3,1.5,1.4,2.7h-3.2c-0.1-0.4-0.2-0.7-0.4-1
		s-0.6-0.4-1-0.4c-0.3,0-0.6,0.1-0.8,0.3c-0.2,0.2-0.3,0.5-0.3,0.8c0,0.3,0.1,0.5,0.3,0.7c0.2,0.2,0.4,0.4,0.7,0.5
		c0.3,0.1,0.7,0.3,1.3,0.5c0.8,0.3,1.4,0.5,1.9,0.8c0.5,0.3,0.9,0.6,1.3,1.1c0.4,0.5,0.5,1.2,0.5,2C87,287.4,86.8,288,86.5,288.6z"
		/>
	<path class="st3" d="M97.7,278.5c0.9,0.5,1.7,1.3,2.2,2.2s0.8,2,0.8,3.3c0,1.2-0.3,2.3-0.8,3.3s-1.3,1.7-2.2,2.3
		c-0.9,0.5-2,0.8-3.1,0.8s-2.2-0.3-3.1-0.8c-0.9-0.5-1.7-1.3-2.2-2.3s-0.8-2.1-0.8-3.3c0-1.2,0.3-2.3,0.8-3.3s1.3-1.7,2.2-2.2
		c0.9-0.5,2-0.8,3.1-0.8C95.7,277.7,96.7,278,97.7,278.5z M92.2,281.5c-0.6,0.6-0.9,1.5-0.9,2.6c0,1.1,0.3,1.9,0.9,2.6
		c0.6,0.6,1.4,1,2.3,1c1,0,1.7-0.3,2.3-1c0.6-0.6,0.9-1.5,0.9-2.6c0-1.1-0.3-1.9-0.9-2.6c-0.6-0.6-1.4-1-2.3-1
		C93.5,280.5,92.8,280.8,92.2,281.5z"/>
	<path class="st3" d="M110.5,277.9v2.4h-5.1v2.7h3.9v2.3h-3.9v5h-3v-12.3H110.5z"/>
	<path class="st3" d="M120.8,277.9v2.4h-3.3v10h-3v-10h-3.3v-2.4H120.8z"/>
	<path class="st3" d="M138.9,277.9l-2.9,12.3h-3.7l-2-8.2l-2,8.2h-3.7l-2.9-12.3h3.2l1.6,8.9l2.2-8.9h3.3l2.2,8.9l1.6-8.9H138.9z"/>
	<path class="st3" d="M148.1,288h-4.6l-0.8,2.2h-3.1l4.5-12.2h3.4l4.5,12.2h-3.2L148.1,288z M147.3,285.7l-1.5-4.5l-1.6,4.5H147.3z"
		/>
	<path class="st3" d="M159.5,290.2l-2.7-4.7h-0.7v4.7h-3v-12.3h5.1c1,0,1.8,0.2,2.5,0.5c0.7,0.3,1.2,0.8,1.5,1.4
		c0.3,0.6,0.5,1.3,0.5,2c0,0.9-0.2,1.7-0.7,2.3c-0.5,0.6-1.2,1.1-2.2,1.3l2.9,4.8H159.5z M156.1,283.6h1.8c0.6,0,1-0.1,1.3-0.4
		c0.3-0.3,0.4-0.6,0.4-1.2c0-0.5-0.1-0.9-0.4-1.2c-0.3-0.3-0.7-0.4-1.3-0.4h-1.8V283.6z"/>
	<path class="st3" d="M167.2,280.3v2.6h4.2v2.2h-4.2v2.7h4.7v2.4h-7.7v-12.3h7.7v2.4H167.2z"/>
	<path class="st3" d="M81.1,298.8v12.3h-3v-12.3H81.1z"/>
	<path class="st3" d="M94.1,311.2h-3l-5-7.6v7.6h-3v-12.3h3l5,7.6v-7.6h3V311.2z"/>
	<path class="st3" d="M105.7,300c1,0.8,1.7,1.9,2,3.3h-3.2c-0.2-0.6-0.6-1-1.1-1.3c-0.5-0.3-1.1-0.5-1.7-0.5c-0.9,0-1.6,0.3-2.1,1
		c-0.5,0.6-0.8,1.5-0.8,2.6c0,1.1,0.3,1.9,0.8,2.6c0.5,0.6,1.2,1,2.1,1c0.7,0,1.2-0.2,1.7-0.5c0.5-0.3,0.8-0.8,1.1-1.3h3.2
		c-0.3,1.4-1,2.5-2,3.3s-2.3,1.2-3.9,1.2c-1.2,0-2.2-0.3-3.2-0.8c-0.9-0.5-1.6-1.3-2.1-2.2s-0.7-2-0.7-3.3s0.2-2.3,0.7-3.3
		s1.2-1.7,2.1-2.2c0.9-0.5,2-0.8,3.2-0.8C103.4,298.7,104.7,299.1,105.7,300z"/>
	<path class="st3" d="M112.3,298.8v7.1c0,0.8,0.2,1.4,0.5,1.9c0.4,0.4,0.9,0.6,1.6,0.6c0.7,0,1.2-0.2,1.6-0.6
		c0.4-0.4,0.5-1.1,0.5-1.9v-7.1h3v7.1c0,1.2-0.2,2.1-0.7,2.9c-0.5,0.8-1.1,1.4-1.9,1.8s-1.7,0.6-2.7,0.6c-1,0-1.9-0.2-2.6-0.6
		s-1.3-1-1.8-1.8c-0.4-0.8-0.6-1.8-0.6-2.9v-7.1H112.3z"/>
	<path class="st3" d="M130.7,305.9c0.4,0.5,0.7,1.2,0.7,1.9c0,1.1-0.4,1.9-1.1,2.5c-0.7,0.6-1.7,0.9-3,0.9h-5.7v-12.3h5.6
		c1.3,0,2.2,0.3,2.9,0.8c0.7,0.5,1,1.3,1,2.3c0,0.7-0.2,1.4-0.6,1.9c-0.4,0.5-0.9,0.8-1.6,1C129.7,305,130.3,305.4,130.7,305.9z
		 M124.5,303.9h2c1,0,1.6-0.4,1.6-1.3c0-0.9-0.5-1.3-1.6-1.3h-1.9V303.9z M128.3,307.4c0-0.4-0.1-0.8-0.4-1
		c-0.3-0.2-0.7-0.4-1.2-0.4h-2.1v2.8h2.1C127.8,308.7,128.3,308.3,128.3,307.4z"/>
	<path class="st3" d="M140.6,308.9h-4.6l-0.8,2.2H132l4.5-12.2h3.4l4.5,12.2h-3.2L140.6,308.9z M139.8,306.7l-1.5-4.5l-1.6,4.5
		H139.8z"/>
	<path class="st3" d="M154.5,298.8v2.4h-3.3v10h-3v-10h-3.3v-2.4H154.5z"/>
	<path class="st3" d="M164.8,299.5c0.9,0.5,1.7,1.3,2.2,2.2s0.8,2,0.8,3.3c0,1.2-0.3,2.3-0.8,3.3s-1.3,1.7-2.2,2.3
		c-0.9,0.5-2,0.8-3.1,0.8s-2.2-0.3-3.1-0.8c-0.9-0.5-1.7-1.3-2.2-2.3s-0.8-2.1-0.8-3.3c0-1.2,0.3-2.3,0.8-3.3s1.3-1.7,2.2-2.2
		c0.9-0.5,2-0.8,3.1-0.8C162.8,298.7,163.9,298.9,164.8,299.5z M159.3,302.4c-0.6,0.6-0.9,1.5-0.9,2.6c0,1.1,0.3,1.9,0.9,2.6
		c0.6,0.6,1.4,1,2.3,1c1,0,1.7-0.3,2.3-1c0.6-0.6,0.9-1.5,0.9-2.6c0-1.1-0.3-1.9-0.9-2.6c-0.6-0.6-1.4-1-2.3-1
		C160.7,301.4,159.9,301.7,159.3,302.4z"/>
	<path class="st3" d="M175.9,311.2l-2.7-4.7h-0.7v4.7h-3v-12.3h5.1c1,0,1.8,0.2,2.5,0.5c0.7,0.3,1.2,0.8,1.5,1.4
		c0.3,0.6,0.5,1.3,0.5,2c0,0.9-0.2,1.7-0.7,2.3c-0.5,0.6-1.2,1.1-2.2,1.3l2.9,4.8H175.9z M172.5,304.5h1.8c0.6,0,1-0.1,1.3-0.4
		c0.3-0.3,0.4-0.6,0.4-1.2c0-0.5-0.1-0.9-0.4-1.2c-0.3-0.3-0.7-0.4-1.3-0.4h-1.8V304.5z"/>
</g>
<g>
	<defs>
		<rect id="SVGID_1_" x="22" y="538" width="42" height="47"/>
	</defs>
	<clipPath id="SVGID_2_">
		<use xlink:href="#SVGID_1_"  style="overflow:visible;"/>
	</clipPath>
	<g class="st5">
		<path class="st6" d="M47.3,578.9h-8.7c-0.9,0-1.6-0.7-1.6-1.6c0-0.9,0.7-1.6,1.6-1.6h8.7c0.9,0,1.6,0.7,1.6,1.6
			C48.9,578.2,48.1,578.9,47.3,578.9z M38.6,576.5c-0.5,0-0.9,0.4-0.9,0.8c0,0.5,0.4,0.8,0.9,0.8h8.7c0.5,0,0.9-0.4,0.9-0.8
			c0-0.5-0.4-0.8-0.9-0.8H38.6z"/>
		<path class="st6" d="M42.9,585c-1.2,0-2.2-0.8-2.5-1.9c-1.6-0.2-2.7-1.5-2.7-3.1v-0.4h10.6v0.4c0,1.6-1.2,2.9-2.7,3.1
			C45.2,584.2,44.1,585,42.9,585z M38.4,580.3c0.2,1.1,1.1,2,2.3,2.1l0.3,0l0,0.3c0.1,0.9,0.9,1.6,1.9,1.6s1.7-0.7,1.9-1.6l0-0.3
			l0.3,0c1.2-0.1,2.1-0.9,2.3-2.1L38.4,580.3L38.4,580.3z"/>
		<path class="st6" d="M48.6,575.1H37.1V571c-1.1-1.8-2.4-3.7-3.7-5.4c-1.7-2.1-2.6-4.7-2.6-7.3c0-6.6,5.4-11.9,12.1-11.9
			c6.7,0,12.1,5.3,12.1,11.9c0,2.7-0.9,5.2-2.6,7.3c-1.2,1.5-2.6,3.5-3.8,5.5L48.6,575.1L48.6,575.1z M37.9,574.4h10.1v-3.5l0.1-0.1
			c1.2-2,2.7-4.1,3.9-5.6c1.6-2,2.4-4.4,2.4-6.9c0-6.2-5.1-11.2-11.4-11.2c-6.3,0-11.4,5-11.4,11.2c0,2.5,0.8,4.9,2.4,6.9
			c1.4,1.7,2.7,3.6,3.8,5.5l0.1,0.1L37.9,574.4L37.9,574.4z"/>
		<path class="st6" d="M39,562l-0.8,0.2l2.8,12.3l0.8-0.2L39,562z"/>
		<path class="st6" d="M46.8,562l-2.8,12.6l0.7,0.1l2.8-12.6L46.8,562z"/>
		<path class="st6" d="M45,582.4h-4.1v0.7H45V582.4z"/>
		<path class="st7" d="M42.3,566.4l-0.7-2.7l-2,1.3l-0.3-0.4l2.6-1.7l0.5,1.9l1.3-3.2l1.1,3.1l1.9-0.9l0.2,0.5l-2.5,1.1l-0.8-2.3
			L42.3,566.4z"/>
		<path class="st8" d="M43.4,543.9c-0.2,0-0.3-0.1-0.3-0.3v-5.3c0-0.2,0.1-0.3,0.3-0.3c0.2,0,0.3,0.1,0.3,0.3v5.3
			C43.7,543.8,43.5,543.9,43.4,543.9z"/>
		<path class="st8" d="M51.6,545.9c-0.1,0-0.1,0-0.2,0c-0.1-0.1-0.2-0.3-0.1-0.4l2.8-4.5c0.1-0.1,0.3-0.2,0.4-0.1
			c0.1,0.1,0.2,0.3,0.1,0.4l-2.8,4.5C51.8,545.8,51.7,545.9,51.6,545.9z"/>
		<path class="st8" d="M56.7,552.3c-0.1,0-0.2-0.1-0.3-0.2c-0.1-0.2,0-0.3,0.1-0.4l4.8-2.5c0.2-0.1,0.3,0,0.4,0.1
			c0.1,0.2,0,0.3-0.1,0.4l-4.8,2.5C56.9,552.2,56.8,552.3,56.7,552.3z"/>
		<path class="st8" d="M63.7,559.8C63.7,559.8,63.7,559.8,63.7,559.8l-5.4-0.3c-0.2,0-0.3-0.2-0.3-0.3c0-0.2,0.2-0.3,0.3-0.3
			l5.4,0.3c0.2,0,0.3,0.2,0.3,0.3C64,559.7,63.8,559.8,63.7,559.8z"/>
		<path class="st8" d="M60.2,570.5c-0.1,0-0.1,0-0.2-0.1l-4.4-3c-0.1-0.1-0.2-0.3-0.1-0.4c0.1-0.1,0.3-0.2,0.4-0.1l4.4,3
			c0.1,0.1,0.2,0.3,0.1,0.4C60.4,570.4,60.4,570.5,60.2,570.5z"/>
		<path class="st8" d="M34.3,545.9c-0.1,0-0.2-0.1-0.3-0.1l-2.8-4.5c-0.1-0.1,0-0.3,0.1-0.4c0.1-0.1,0.3,0,0.4,0.1l2.8,4.5
			c0.1,0.1,0,0.3-0.1,0.4C34.5,545.9,34.4,545.9,34.3,545.9z"/>
		<path class="st8" d="M29.2,552.3c-0.1,0-0.1,0-0.1,0l-4.8-2.5c-0.2-0.1-0.2-0.3-0.1-0.4c0.1-0.2,0.3-0.2,0.4-0.1l4.8,2.5
			c0.2,0.1,0.2,0.3,0.1,0.4C29.4,552.2,29.3,552.3,29.2,552.3z"/>
		<path class="st8" d="M22.3,559.8c-0.2,0-0.3-0.1-0.3-0.3c0-0.2,0.1-0.3,0.3-0.3l5.4-0.3c0.2,0,0.3,0.1,0.3,0.3
			c0,0.2-0.1,0.3-0.3,0.3L22.3,559.8C22.3,559.8,22.3,559.8,22.3,559.8z"/>
		<path class="st8" d="M25.7,570.5c-0.1,0-0.2,0-0.3-0.1c-0.1-0.1-0.1-0.3,0.1-0.4l4.4-3c0.1-0.1,0.3-0.1,0.4,0.1
			c0.1,0.1,0.1,0.3-0.1,0.4l-4.4,3C25.8,570.4,25.8,570.5,25.7,570.5z"/>
	</g>
</g>
<path class="st3" d="M50.9,50.6c3,0,5.8,0.4,8.5,1.3c2.6,0.9,4.9,2.2,6.8,3.9c1.9,1.8,3.4,3.9,4.5,6.6c1.1,2.6,1.6,5.7,1.6,9.3
	c0,3.1-0.4,6-1.3,8.6c-0.9,2.6-2.2,4.9-4,6.8c-1.8,1.9-4,3.4-6.7,4.5c-2.6,1.1-5.8,1.6-9.4,1.6H30.6V50.6H50.9z M50.1,85.3
	c1.5,0,2.9-0.2,4.4-0.7c1.4-0.4,2.6-1.2,3.8-2.2c1.1-1,2-2.3,2.6-4c0.7-1.6,1-3.6,1-6c0-2.1-0.2-4.1-0.7-5.8
	c-0.5-1.7-1.2-3.2-2.3-4.4C58,61,56.6,60,54.8,59.4c-1.7-0.7-3.9-1-6.4-1h-7.4v26.9L50.1,85.3L50.1,85.3z"/>
<path class="st3" d="M82.5,50.6v34.8h23v7.9H72.1V50.6H82.5z"/>
<path class="st9" d="M129.6,50.6h9.6v7.9h-9.6"/>
<path class="st3" d="M123.4,50.6h-4.4H89.8v7.9h18.6v34.8h10.4V58.4h0.1h4.4h4.9v-7.9H123.4z"/>
<path class="st3" d="M122.4,79.2v12.5h7.7v1.1h-9V79.2H122.4z"/>
<path class="st3" d="M136,79.2l5.4,13.7H140l-1.7-4.2h-6.2l-1.6,4.2h-1.4l5.5-13.7H136z M137.9,87.5l-2.6-7l-2.7,7H137.9z"/>
<path class="st3" d="M147.7,79.2c0.6,0,1.1,0,1.6,0.2c0.5,0.1,1,0.3,1.4,0.5c0.4,0.3,0.7,0.6,1,1c0.3,0.5,0.4,1,0.4,1.6
	c0,0.4,0,0.7-0.2,1c-0.1,0.3-0.3,0.6-0.5,0.9c-0.2,0.3-0.5,0.5-0.8,0.7c-0.3,0.2-0.6,0.3-1,0.4v0c0.9,0.1,1.6,0.5,2.1,1.1
	c0.5,0.6,0.8,1.3,0.8,2.3c0,0.2,0,0.5,0,0.8c0,0.3-0.1,0.5-0.2,0.8c-0.1,0.3-0.3,0.6-0.5,0.8c-0.2,0.3-0.5,0.5-0.9,0.8
	c-0.4,0.2-0.8,0.4-1.3,0.5s-1.2,0.2-1.9,0.2h-5.8V79.2H147.7z M147.7,85.2c0.5,0,1,0,1.3-0.2c0.4-0.1,0.7-0.3,1-0.5
	c0.3-0.2,0.5-0.5,0.6-0.8c0.1-0.3,0.2-0.6,0.2-0.9c0-1.7-1-2.6-3.1-2.6h-4.5v4.9H147.7z M147.7,91.8c0.5,0,0.9,0,1.4-0.1
	c0.4-0.1,0.8-0.3,1.1-0.5c0.3-0.2,0.6-0.5,0.8-0.9c0.2-0.4,0.3-0.8,0.3-1.4c0-0.9-0.3-1.6-0.9-2c-0.6-0.4-1.5-0.7-2.7-0.7h-4.5v5.5
	L147.7,91.8L147.7,91.8z"/>
<path class="st3" d="M154.8,90.1c0.2,0.5,0.5,0.8,1,1.1c0.4,0.3,0.9,0.5,1.4,0.6c0.5,0.1,1.1,0.2,1.8,0.2c0.4,0,0.8,0,1.2-0.2
	c0.4-0.1,0.8-0.3,1.2-0.5c0.4-0.2,0.7-0.5,0.9-0.9c0.3-0.3,0.4-0.8,0.4-1.3c0-0.4-0.1-0.7-0.3-1c-0.2-0.3-0.4-0.5-0.7-0.7
	c-0.3-0.2-0.6-0.3-0.9-0.5c-0.3-0.1-0.7-0.2-1-0.3l-3.1-0.8c-0.4-0.1-0.8-0.2-1.2-0.4c-0.4-0.2-0.7-0.4-1-0.6
	c-0.3-0.3-0.5-0.6-0.7-0.9c-0.2-0.3-0.3-0.8-0.3-1.3c0-0.3,0.1-0.7,0.2-1.2c0.1-0.5,0.4-0.9,0.7-1.3c0.3-0.4,0.8-0.7,1.4-1
	c0.6-0.3,1.4-0.4,2.4-0.4c0.7,0,1.3,0.1,1.9,0.3c0.6,0.2,1.1,0.5,1.6,0.8c0.5,0.3,0.8,0.8,1.1,1.3c0.3,0.5,0.4,1.1,0.4,1.8h-1.3
	c0-0.5-0.1-1-0.3-1.4c-0.2-0.4-0.5-0.7-0.8-1c-0.3-0.3-0.7-0.5-1.2-0.6c-0.5-0.1-0.9-0.2-1.4-0.2c-0.5,0-0.9,0-1.3,0.1
	c-0.4,0.1-0.8,0.3-1.1,0.5c-0.3,0.2-0.5,0.5-0.8,0.8c-0.2,0.3-0.3,0.8-0.3,1.3c0,0.3,0,0.6,0.2,0.8c0.1,0.3,0.3,0.4,0.5,0.6
	c0.2,0.2,0.4,0.3,0.7,0.4c0.3,0.1,0.5,0.2,0.8,0.3l3.3,0.8c0.5,0.1,0.9,0.3,1.4,0.5c0.4,0.2,0.8,0.4,1.1,0.7c0.3,0.3,0.6,0.6,0.8,1
	c0.2,0.4,0.3,0.9,0.3,1.4c0,0.2,0,0.4,0,0.6c0,0.3-0.1,0.5-0.2,0.8c-0.1,0.3-0.3,0.6-0.5,0.9c-0.2,0.3-0.5,0.5-0.9,0.8
	c-0.4,0.3-0.9,0.4-1.4,0.6c-0.6,0.1-1.3,0.2-2.1,0.2c-0.8,0-1.6-0.1-2.2-0.3c-0.7-0.2-1.3-0.5-1.8-0.8c-0.5-0.4-0.8-0.9-1.1-1.5
	c-0.3-0.6-0.4-1.3-0.3-2.2h1.3C154.5,89.1,154.6,89.7,154.8,90.1z"/>
<path class="st3" d="M164,79.2v-0.8h4.5v0.8h-1.7v3.7h-1.1v-3.7H164z M170.8,78.5l1.3,3.2l1.3-3.2h1.5v4.4h-1v-3.6l-1.4,3.6h-0.8
	l-1.5-3.6v3.6h-1v-4.4H170.8z"/>
<path class="st10" d="M913.8,129.1c1,0.1,1.9,0.1,2.9,0.3c2.1,0.3,4.2,1.1,6,2.1c1.5,0.9,3,1.8,4.1,3.2c0.2,0.2,0.5,0.4,0.7,0.6
	c1.6,1.7,2.8,3.6,3.7,5.8c1.1,2.5,1.6,5.2,1.5,8c-0.1,4.7-1.9,9.3-5.1,12.8c-0.2,0.2-0.5,0.4-0.7,0.6c-0.2,0.2-0.3,0.4-0.4,0.5
	c-1.6,1.5-3.4,2.7-5.3,3.5c-2.6,1.2-5.4,1.7-8.3,1.7c-0.4,0-0.7,0-1.1-0.1c-0.9-0.1-1.9-0.2-2.8-0.4c-2.2-0.5-4.3-1.3-6.2-2.6
	c-0.9-0.6-1.7-1.2-2.5-1.9c-0.3-0.2-0.5-0.5-0.8-0.8c-0.2-0.2-0.4-0.3-0.6-0.5c-1.6-1.7-2.8-3.6-3.7-5.7c-1.1-2.5-1.6-5.2-1.5-8
	c0.1-0.9,0.1-1.8,0.2-2.7c0.3-2.2,1.1-4.2,2.1-6.2c0.8-1.4,1.7-2.7,2.8-3.9c0.2-0.3,0.5-0.5,0.8-0.7c0.3-0.3,0.5-0.6,0.8-0.8
	c1.5-1.3,3.1-2.3,4.8-3.1C908.1,129.5,910.9,129,913.8,129.1L913.8,129.1z M909.5,141.2L909.5,141.2c1.1-1.1,2.4-1.8,3.8-2.1
	c0.4-0.1,0.7,0,1,0.3c0.1,0.1,0.2,0.2,0.3,0.3c0.5,0.7,0.8,1.5,0.8,2.4c0,0.5,0.1,1.1-0.1,1.6c-0.1,0.2,0,0.5,0,0.7
	c-0.2,1.4-0.8,2.6-1.9,3.5c0,0-0.1,0.1-0.1,0.1c0,0,0.1,0,0.1,0c0,0,0.1,0,0.1,0c0.7-0.2,1.4-0.6,2-1.1c0.6-0.5,1-1.2,1.3-1.9
	c0.3-0.8,0.4-1.7,0.5-2.6c0-0.6,0-1.2,0-1.7c0-0.4,0-0.9,0.1-1.3c0.1-0.7,0.4-1.2,1-1.5c0.9-0.4,1.7-0.9,2.2-1.7
	c0.3-0.4,0.5-0.7,0.6-1.1c0-0.1,0-0.2,0-0.2c-0.1,0-0.2,0.1-0.2,0.1c-0.2,0.2-0.4,0.4-0.7,0.6c-0.8,0.6-1.8,1-2.8,1.2
	c-1,0.2-2,0.3-3,0.5c-2.2,0.4-4,1.6-5.2,3.5c-0.1,0.2-0.2,0.2-0.4,0.1c-0.4-0.3-0.9-0.6-1.3-0.9c-0.3-0.2-0.5-0.4-0.7-0.6
	c-0.2-0.2-0.4-0.5-0.5-0.8c-0.1-0.2,0-0.5,0-0.7c0-0.2,0.1-0.5,0.1-0.7c0-0.3,0-0.7-0.1-1c-0.1-0.8-0.4-1.5-0.9-2.1
	c-0.1-0.1-0.1-0.1-0.2-0.2l0,0.1c0,0,0,0.1,0,0.1c0.3,1.1,0.3,2.3,0,3.4c-0.3,1.1-0.8,2.2-1.2,3.2c-0.4,0.9-0.6,2-0.6,3
	c0,0.3,0,0.7,0.1,1c0.1,0.8,0.4,1.6,0.8,2.3c0.1,0.2,0.2,0.3,0.3,0.5l0.1,0c0-0.1,0-0.1,0-0.2c0-0.1-0.1-0.2-0.1-0.2
	c-0.2-0.9-0.2-1.7-0.1-2.6c0.1-0.5,0.3-1.1,0.4-1.6c0.1-0.3,0.3-0.5,0.7-0.6c0.7-0.2,1.5-0.2,2.2,0.1c0.7,0.2,1.3,0.6,1.8,1
	c1,0.7,1.9,1.5,2.4,2.6c0.2,0.5,0.5,1.1,0.5,1.6c0,0,0,0.1,0,0.1l0.1,0c0-0.1,0.1-0.3,0.1-0.4c0.2-1.1,0.1-2.2-0.3-3.1
	c-0.4-0.9-1.1-1.7-2-2.3L909.5,141.2L909.5,141.2z M916.8,156.1L916.8,156.1c-0.1,0-0.2,0-0.2,0.1c-1,1.1-2.4,1.9-3.8,2.2
	c-0.4,0.1-0.7,0-0.9-0.3c-0.4-0.4-0.8-0.9-0.9-1.4c-0.3-0.9-0.4-1.8-0.3-2.8c0-0.1,0.1-0.2,0.1-0.3c0-0.3,0-0.6,0-0.9
	c0.2-1.3,0.7-2.4,1.8-3.2c0,0,0-0.1,0.1-0.1c-0.1,0-0.1,0-0.1,0c-0.3,0.1-0.6,0.3-0.9,0.4c-1.1,0.7-2,1.6-2.4,2.9
	c-0.2,0.6-0.3,1.3-0.4,2c-0.1,0.8,0,1.6,0,2.3c0,0.3-0.1,0.5-0.1,0.8c0,0,0,0.1,0,0.1c0.1,0.3,0,0.6-0.1,0.9
	c-0.1,0.4-0.3,0.7-0.6,0.9c-0.4,0.2-0.7,0.4-1.1,0.6c-0.8,0.5-1.4,1.1-1.8,1.9c-0.1,0.3-0.2,0.5-0.3,0.9c0.1,0,0.2-0.1,0.2-0.1
	c0.1-0.1,0.2-0.2,0.3-0.4c0.8-0.8,1.8-1.4,3-1.7c1-0.3,2.1-0.4,3.1-0.7c1.7-0.4,3.1-1.1,4.2-2.5c0.3-0.4,0.6-0.8,0.8-1.2
	C916.7,156.4,916.8,156.3,916.8,156.1z M921.3,149.1c0,0.1,0,0.2,0.1,0.2c0.3,0.9,0.4,1.9,0.3,2.9c-0.1,0.5-0.1,0.9-0.2,1.4
	c-0.1,0.4-0.4,0.7-0.8,0.8c-0.5,0.2-1,0.2-1.5,0.1c-0.7-0.1-1.3-0.4-1.9-0.7c-0.8-0.4-1.5-0.9-2.1-1.4c-0.2-0.2-0.4-0.4-0.6-0.7
	c-0.5-0.6-0.9-1.4-1-2.2c0,0-0.1-0.1-0.1-0.1c0,0-0.1,0.1-0.1,0.1c-0.1,0.7-0.2,1.4,0,2c0.2,0.6,0.3,1.1,0.6,1.6
	c0.4,0.7,0.9,1.2,1.6,1.7c0.6,0.4,1.3,0.8,1.9,1.2c0.7,0.4,1.3,0.8,2,1.2c0.2,0.1,0.4,0.4,0.5,0.6c0.1,0.2,0.2,0.5,0.1,0.8
	c0,0.5,0,1,0.1,1.6c0.2,0.8,0.4,1.5,1,2.1c0.1,0.1,0.2,0.2,0.4,0.3l0.1,0c0-0.1,0-0.1-0.1-0.2c-0.4-0.9-0.4-1.8-0.3-2.8
	c0.1-1,0.4-2,0.8-3c0.5-1.2,0.8-2.5,0.8-3.8c0-0.2,0-0.4-0.1-0.6c-0.2-0.7-0.4-1.4-0.6-2.1c-0.1-0.4-0.4-0.7-0.7-1.1
	C921.4,149.1,921.3,149.1,921.3,149.1L921.3,149.1z M908,155.2L908,155.2l-0.1-0.1c-0.4-0.2-0.7-0.3-1.1-0.4
	c-0.6-0.3-1.2-0.7-1.6-1.2l-0.3-0.3c-0.2-0.2-0.5-0.5-0.7-0.7c-0.2-0.2-0.2-0.5-0.1-0.8c0.2-0.6,0.6-1.2,1.1-1.6
	c0.6-0.5,1.3-0.9,2-1.2c0.6-0.2,1.1-0.4,1.7-0.6c0.6-0.1,1.2-0.1,1.8-0.1c0.5,0.1,1,0.2,1.5,0.4c0.1,0,0.1,0,0.2,0l-0.1-0.2
	c0,0-0.1-0.1-0.1-0.1c-0.1-0.1-0.2-0.3-0.4-0.4c-0.9-0.8-2.1-1-3.2-1.2c-0.1,0-0.1,0-0.2,0c-0.1,0-0.2,0.1-0.3,0.1
	c-0.3,0.1-0.5,0.1-0.8,0.1c-1,0.2-2,0.7-3,1.1c-0.7,0.3-1.3,0.5-2,0.7c-0.4,0.1-0.8,0-1.2-0.3c-0.7-0.6-1.5-1.1-2.3-1.3
	c-0.5-0.2-1.1-0.2-1.6-0.1c-0.1,0-0.1,0.1-0.2,0.1c0,0,0,0.1,0.1,0.1l0.2,0.1c0.8,0.2,1.5,0.7,2.2,1.3c0.9,0.8,1.5,1.8,2.2,2.8
	c0.4,0.6,0.8,1.2,1.3,1.7c0.6,0.6,1.4,1.1,2.2,1.5c0.7,0.3,1.5,0.5,2.3,0.7C907.7,155.3,907.9,155.2,908,155.2L908,155.2z
	 M913.6,148.8C913.6,148.8,913.6,148.8,913.6,148.8c0.1,0.2,0.3,0.3,0.4,0.4c0.8,0.6,1.8,1,2.8,1.1c0.3,0,0.5,0,0.8,0
	c1-0.1,1.9-0.5,2.8-0.9c0.9-0.5,1.8-1,2.8-1.5c0.7-0.3,1.3-0.4,2,0.1c0.3,0.2,0.6,0.4,1,0.6c0.7,0.3,1.5,0.5,2.3,0.5
	c0.2,0,0.5-0.1,0.7-0.2c-0.1-0.1-0.1-0.1-0.1-0.1l-0.1,0c-0.5-0.2-1-0.3-1.5-0.5c-0.6-0.3-1.2-0.8-1.7-1.2c-0.3-0.3-0.6-0.7-0.9-1
	c-0.2-0.2-0.4-0.4-0.6-0.7c-0.4-0.5-0.8-1-1.2-1.4c-1-0.9-2-1.6-3.3-1.9c-0.6-0.1-1.2-0.2-1.9-0.3c-0.2,0-0.3,0.1-0.5,0.1
	c0,0.1,0.1,0.1,0.1,0.1c1.5,0.3,2.7,1.1,3.8,2.2c0.3,0.3,0.4,0.8,0.3,1.2c-0.1,0.7-0.6,1.2-1,1.7c-0.7,0.7-1.5,1.1-2.3,1.5
	c-1,0.5-2.2,0.7-3.4,0.6c-0.4,0-0.7-0.2-1.1-0.2C913.8,148.8,913.7,148.8,913.6,148.8L913.6,148.8z M904.3,139.6
	c0-0.2,0-0.3-0.1-0.5c-0.1-0.2-0.2-0.3-0.3-0.4c-0.3-0.3-0.6-0.4-1-0.5c0,0-0.1,0-0.1,0l-0.3,0.1c-0.4,0.1-0.7,0.4-0.8,0.7
	c-0.1,0.3-0.2,0.5-0.1,0.9c0.3,0.7,0.8,1.1,1.5,1c0.3,0,0.6-0.2,0.9-0.5C904.2,140.3,904.3,139.9,904.3,139.6z M925,157
	c0-0.7-0.6-1.4-1.3-1.4c-0.4,0-0.7,0.1-1,0.4c-0.3,0.3-0.5,0.6-0.5,1c0,0.3,0.2,0.7,0.4,1c0.3,0.3,0.6,0.4,1,0.4
	c0.2,0,0.4,0,0.5-0.1c0.2-0.1,0.3-0.2,0.4-0.3c0.1-0.1,0.2-0.3,0.3-0.5C925,157.3,925,157.1,925,157L925,157z M911.1,163.4
	c0.4,0,0.7-0.2,1-0.4c0.3-0.3,0.4-0.6,0.5-1c0-0.6-0.8-1.4-1.5-1.4c-0.3,0-0.6,0.2-0.9,0.4c-0.3,0.2-0.5,0.6-0.5,1
	c0,0.2,0,0.4,0.1,0.5c0.1,0.2,0.2,0.3,0.3,0.5s0.3,0.2,0.5,0.3C910.7,163.3,910.9,163.4,911.1,163.4L911.1,163.4z M901.7,152.3
	c0-0.8-0.7-1.4-1.4-1.4c-0.3,0-0.7,0.1-0.9,0.4c-0.2,0.2-0.4,0.6-0.4,0.9c0,0.9,0.6,1.5,1.4,1.5
	C901.2,153.6,901.6,153.1,901.7,152.3L901.7,152.3z M924,144c0,0.7,0.7,1.4,1.4,1.4c0.4,0,0.7-0.2,1-0.5c0.3-0.3,0.4-0.7,0.4-1
	c0-0.7-0.7-1.3-1.4-1.3c-0.4,0-0.7,0.2-1,0.4C924.2,143.3,924,143.7,924,144z M915.3,137c0.4,0,0.7-0.1,0.9-0.4
	c0.3-0.3,0.5-0.7,0.5-1c0-0.3-0.2-0.6-0.4-0.9c-0.2-0.3-0.6-0.4-1-0.5c-0.4,0-0.7,0.2-1,0.4c-0.3,0.3-0.4,0.6-0.4,1
	c0,0.2,0,0.4,0.1,0.5c0.1,0.2,0.2,0.3,0.3,0.4c0.1,0.1,0.3,0.2,0.4,0.3C914.9,136.9,915.1,137,915.3,137L915.3,137z"/>
<path class="st3" d="M954.2,142.6c1.5,0,2.8,0.5,3.7,1.5c0.9,1,1.4,2.4,1.4,4.2v7.7h-3.4v-7.3c0-1.1-0.3-1.9-0.8-2.4
	c-0.5-0.6-1.3-0.9-2.2-0.9c-1,0-1.7,0.3-2.3,0.9c-0.6,0.6-0.9,1.5-0.9,2.7v7.1h-3.4v-17.8h3.4v7.1c0.4-0.9,0.9-1.6,1.7-2.1
	C952.2,142.8,953.2,142.6,954.2,142.6z M975,142.8v13.3h-3.4v-2.7c-0.4,0.9-0.9,1.6-1.8,2.1c-0.8,0.5-1.7,0.7-2.8,0.7
	c-1.5,0-2.8-0.5-3.7-1.5c-0.9-1-1.4-2.4-1.4-4.2v-7.7h3.4v7.3c0,1.1,0.3,1.9,0.8,2.5c0.5,0.6,1.3,0.9,2.2,0.9c1,0,1.8-0.3,2.3-0.9
	c0.6-0.6,0.9-1.5,0.9-2.7v-7.1H975z M995,142.6c1.6,0,2.9,0.5,3.8,1.5c0.9,1,1.4,2.4,1.4,4.2v7.7h-3.4v-7.3c0-1-0.3-1.8-0.8-2.4
	c-0.5-0.6-1.2-0.8-2.1-0.8c-0.9,0-1.7,0.3-2.3,0.9c-0.6,0.6-0.8,1.5-0.8,2.6v7.1h-3.4v-7.3c0-1-0.3-1.8-0.8-2.4
	c-0.5-0.6-1.2-0.8-2.1-0.8c-0.9,0-1.7,0.3-2.3,0.9c-0.6,0.6-0.8,1.5-0.8,2.6v7.1h-3.4v-13.3h3.4v2.5c0.4-0.9,0.9-1.5,1.7-2
	c0.8-0.5,1.7-0.7,2.7-0.7c1.1,0,2,0.3,2.8,0.8c0.8,0.5,1.4,1.2,1.8,2.2c0.4-0.9,1-1.6,1.8-2.2C993,142.8,993.9,142.6,995,142.6z
	 M1002.8,139c0-0.5,0.2-1,0.6-1.3c0.4-0.4,0.9-0.5,1.5-0.5c0.6,0,1.1,0.2,1.5,0.5c0.4,0.3,0.6,0.8,0.6,1.3c0,0.5-0.2,1-0.6,1.3
	c-0.4,0.3-0.9,0.5-1.5,0.5c-0.6,0-1.1-0.2-1.5-0.5C1003,139.9,1002.8,139.5,1002.8,139z M1006.6,142.8v13.3h-3.4v-13.3H1006.6z
	 M1017.5,142.6c1.5,0,2.8,0.5,3.7,1.5c0.9,1,1.4,2.4,1.4,4.2v7.7h-3.4v-7.3c0-1.1-0.3-1.9-0.8-2.4c-0.5-0.6-1.3-0.9-2.2-0.9
	c-1,0-1.7,0.3-2.3,0.9c-0.6,0.6-0.9,1.5-0.9,2.7v7.1h-3.4v-13.3h3.4v2.7c0.4-0.9,0.9-1.6,1.7-2.1
	C1015.6,142.8,1016.5,142.6,1017.5,142.6z M1031.7,142.6c1.3,0,2.5,0.3,3.5,0.8c1,0.5,1.9,1.3,2.4,2.4c0.6,1,0.9,2.2,0.9,3.6
	c0,1.4-0.3,2.6-0.9,3.6c-0.6,1-1.4,1.8-2.4,2.4c-1,0.5-2.2,0.8-3.5,0.8c-1.3,0-2.5-0.3-3.5-0.8c-1-0.6-1.8-1.4-2.4-2.4
	s-0.9-2.2-0.9-3.6c0-1.4,0.3-2.6,0.9-3.6c0.6-1,1.4-1.8,2.4-2.4C1029.2,142.9,1030.4,142.6,1031.7,142.6z M1031.7,145.5
	c-0.9,0-1.7,0.3-2.4,1c-0.7,0.7-1,1.6-1,2.9c0,1.3,0.3,2.2,1,2.9c0.7,0.7,1.5,1,2.4,1c0.9,0,1.7-0.3,2.4-1c0.7-0.7,1-1.6,1-2.9
	c0-1.3-0.3-2.2-1-2.9C1033.4,145.9,1032.6,145.5,1031.7,145.5z M1045.5,142.6c1.6,0,2.9,0.4,3.9,1.2c1,0.8,1.6,1.9,1.8,3.3h-3.2
	c-0.1-0.6-0.4-1.2-0.9-1.5c-0.4-0.4-1-0.6-1.8-0.6c-0.6,0-1,0.1-1.3,0.4c-0.3,0.3-0.5,0.6-0.5,1.1c0,0.4,0.1,0.7,0.4,0.9
	s0.6,0.4,1,0.5c0.4,0.1,0.9,0.3,1.7,0.5c1,0.2,1.8,0.5,2.4,0.7c0.6,0.2,1.2,0.6,1.6,1.2c0.5,0.5,0.7,1.2,0.7,2.2
	c0,1.1-0.4,2.1-1.3,2.8c-0.9,0.7-2.1,1.1-3.6,1.1c-1.7,0-3.1-0.4-4.2-1.2c-1-0.8-1.7-1.9-1.9-3.3h3.2c0.1,0.7,0.4,1.2,0.9,1.6
	c0.5,0.4,1.1,0.6,1.9,0.6c0.6,0,1-0.1,1.3-0.4c0.3-0.3,0.5-0.7,0.5-1.1c0-0.4-0.1-0.7-0.4-0.9c-0.3-0.2-0.6-0.4-1-0.6
	c-0.4-0.1-0.9-0.3-1.7-0.5c-1-0.2-1.8-0.4-2.4-0.7c-0.6-0.2-1.1-0.6-1.6-1.1c-0.4-0.5-0.6-1.2-0.6-2.1c0-1.2,0.4-2.1,1.3-2.8
	S1043.9,142.6,1045.5,142.6z"/>
<g>
	<path class="st3" d="M1032.8,463.5c0-2.5,0-5.1,0-7.7c0-3.2,1.4-4.6,4.4-4.6c1.6,0,3.2,0,4.8,0c2.8,0.1,4.1,1.6,4.1,4.4
		c0,2.5,0,5.1,0,7.7c0,2.9-1.5,4.4-4.3,4.4c-1.9,0-3.7,0.1-5.6,0c-1.5-0.1-1.9,0.5-1.7,1.9c0.1,0.5,0.1,1.1,0,1.6
		c-0.1,0.7,0.6,1.8-0.9,1.7c-1.3,0-0.8-1-0.8-1.7C1032.8,468.7,1032.8,466.1,1032.8,463.5z M1034.6,460.5c0,1.6,0,3.2,0,4.7
		c0,0.8,0.2,1,1,1c1.9,0,3.7,0,5.6,0c2.2,0,3.2-1,3.2-3.2c0-2.4,0-4.8,0-7.2c0-1.8-0.7-2.7-2.5-3c-1.6-0.3-3.2-0.3-4.8,0
		c-1.7,0.3-2.5,1.2-2.5,3.1C1034.5,457.5,1034.6,459,1034.6,460.5z"/>
	<path class="st11" d="M922.7,455.6c0,2.6,0.1,5.2,0,7.8c-0.1,2.8-1.3,4.1-3.9,4.3c-2,0.1-4,0.1-5.9,0c-2.1-0.1-3.4-1.6-3.5-3.8
		c-0.1-2.8-0.1-5.7,0-8.5c0.1-2.6,1.7-4.1,4.3-4.2c2.1,0,4.2,0,6.3,0c0.9,0,1.4-0.2,1.2-1.2c-0.1-0.8,0-1.7,0-2.6
		c0-0.7,0-1.1,0.9-1.1c0.9,0,0.9,0.5,0.9,1.2C922.8,450.2,922.8,452.9,922.7,455.6C922.7,455.6,922.7,455.6,922.7,455.6z M921,458.4
		c0-1.5,0-3,0-4.6c0-0.8-0.2-1.2-1.1-1.2c-1.9,0-3.9,0-5.8,0c-2,0.1-3.1,1.3-3.2,3.3c-0.1,2.4-0.1,4.8,0,7.2c0,2,0.9,2.9,2.8,3
		c1.3,0.1,2.6,0.1,3.9,0c2.2-0.2,3.3-1.5,3.3-3.7C921.1,461.1,921,459.7,921,458.4z"/>
	<path class="st3" d="M957.5,455.5c0,2.7,0.1,5.3,0,8c-0.1,2.7-1.3,4-3.8,4.2c-2,0.1-4,0.1-6.1,0c-2.1-0.1-3.4-1.6-3.5-3.8
		c-0.1-2.8-0.1-5.5,0-8.3c0.1-2.8,1.7-4.2,4.3-4.3c2.1,0,4.2-0.1,6.3,0c1,0,1.3-0.3,1.2-1.3c-0.1-0.8,0-1.7,0-2.6c0-0.6,0-1.1,0.8-1
		c0.8,0,1,0.2,1,1c0,2.7,0,5.4,0,8.2C957.5,455.5,957.5,455.5,957.5,455.5z M955.8,458.2c0-1.5,0-2.9,0-4.4c0-0.8-0.2-1.2-1-1.2
		c-1.9,0-3.9,0-5.8,0c-2,0.1-3.1,1.3-3.2,3.4c0,2.3,0,4.6,0,6.9c0,2.1,0.9,3.1,2.9,3.2c1.2,0.1,2.5,0.1,3.7,0
		c2.2-0.2,3.3-1.4,3.3-3.7C955.8,461.1,955.8,459.7,955.8,458.2z"/>
	<path class="st11" d="M939.8,459.7c0,1.4,0.1,2.9,0,4.2c-0.2,2.5-1.5,3.7-3.9,3.7c-1.8,0-3.5,0-5.3,0c-2.6,0-4-1.5-4.1-4.2
		c-0.3-5.7,0.8-6.8,6.2-6.8c1.4,0,2.9,0,4.4,0c0.9,0,1.1-0.4,1-1.2c-0.1-1.8-1.1-2.9-3.1-2.9c-2.4,0-4.8,0-7.2,0
		c-0.6,0-1.4,0.3-1.3-0.8c0.1-1,0.9-0.6,1.3-0.6c2.5,0,5,0,7.5,0c2.2,0,4.7,1.5,4.5,4.6C939.8,457.1,939.8,458.4,939.8,459.7z
		 M934.1,458.4c-1.2,0-2.4-0.1-3.6,0c-1.4,0.1-2.2,1.1-2.3,2.6c0,0.7,0,1.3,0,2c0,2.1,1,3.2,3.1,3.3c1,0,2.1,0,3.1,0
		c3,0,3.6-0.7,3.6-3.8C938.1,458.2,938.1,458.2,934.1,458.4z"/>
	<path class="st3" d="M969.2,467.7c-1.3-0.1-2.9,0.2-4.6-0.1c-2.3-0.4-3.4-1.7-3.4-4.1c0-2.6-0.1-5.2,0-7.9c0.1-3.1,1.4-4.4,4.4-4.4
		c2,0,4-0.2,5.9,0.1c2.2,0.4,3.7,3.3,3,5.4c-0.2,0.5-0.6,0.5-1,0.7c-3.1,1.4-6.1,2.8-9.1,4.2c-0.6,0.3-1.5,0.2-1.4,1.2
		c0.1,1.1,0.3,2.3,1.4,2.9c0.7,0.4,1.4,0.4,2.1,0.4c2.3,0,4.7,0,7,0c0.4,0,0.9-0.2,1,0.6c0,0.8-0.4,0.8-1,0.8
		C972.2,467.7,970.9,467.7,969.2,467.7z M963,460.4c3-1.4,5.9-2.7,8.8-4c1.3-0.5,1.1-1.3,0.6-2.3c-0.4-0.8-1.1-1.2-1.9-1.3
		c-1.8-0.4-3.6-0.3-5.4,0c-1.3,0.3-2.1,1.2-2.1,2.6C962.9,457.1,963,458.7,963,460.4z"/>
	<path class="st3" d="M1002,467.6c-1.6,0-3.1,0.1-4.7,0c-2.3-0.3-3.5-1.7-3.6-4.2c0-2.5,0-5.1,0-7.7c0.1-3.2,1.4-4.6,4.5-4.6
		c2,0,4.1-0.3,6.1,0.2c2,0.4,3.5,3.5,2.8,5.4c-0.2,0.5-0.6,0.5-1,0.7c-3,1.4-6,2.7-9,4.2c-0.6,0.3-1.7,0.2-1.5,1.4
		c0.2,1.2,0.4,2.4,1.7,2.9c0.6,0.2,1.2,0.3,1.8,0.3c2.2,0,4.4,0,6.6,0c0.5,0,1.4-0.5,1.4,0.7c0,1.3-0.9,0.7-1.5,0.8
		C1004.3,467.7,1003.1,467.7,1002,467.6C1002,467.7,1002,467.6,1002,467.6z M995.5,460.5c3.1-1.4,5.9-2.8,8.8-4
		c1.3-0.5,1.2-1.3,0.7-2.3c-0.4-0.8-1.1-1.2-2-1.3c-1.7-0.3-3.4-0.3-5.1,0c-1.5,0.3-2.3,1.2-2.3,2.8
		C995.4,457.2,995.5,458.7,995.5,460.5z"/>
	<path class="st3" d="M1058.1,467.7c-1.3-0.1-2.9,0.2-4.6-0.1c-2.3-0.4-3.4-1.7-3.4-4.1c0-2.6-0.1-5.2,0-7.9
		c0.1-3.1,1.4-4.4,4.5-4.4c2,0,4.1-0.3,6.1,0.2c2,0.4,3.5,3.4,2.8,5.4c-0.2,0.5-0.6,0.5-1,0.7c-3,1.4-6,2.7-9,4.2
		c-0.6,0.3-1.7,0.2-1.5,1.4c0.2,1.2,0.4,2.4,1.7,2.9c0.6,0.2,1.2,0.3,1.8,0.3c2.3,0,4.7,0,7,0c0.4,0,0.9-0.2,1,0.7
		c0,0.8-0.5,0.8-1,0.8C1061,467.7,1059.7,467.7,1058.1,467.7z M1051.8,460.2c0.2,0,0.3,0.1,0.3,0c2.8-1.2,5.6-2.6,8.4-3.8
		c1.3-0.5,1.1-1.3,0.6-2.3c-0.4-0.8-1.1-1.2-1.9-1.3c-1.8-0.4-3.6-0.3-5.4,0c-1.3,0.3-2.1,1.2-2.1,2.6
		C1051.8,457.1,1051.8,458.7,1051.8,460.2z"/>
	<path class="st3" d="M1028.7,459.6c0,1.5,0.1,2.9,0,4.4c-0.1,2.2-1.3,3.6-3.4,3.7c-2,0.1-4,0.1-6.1,0c-2.2-0.1-3.5-1.6-3.6-3.9
		c0-2.7,0-5.4,0-8.2c0.1-2.9,1.5-4.3,4.2-4.4c1.7,0,3.3,0,5,0c2.3,0,3.7,1.3,3.9,3.8C1028.8,456.5,1028.7,458.1,1028.7,459.6z
		 M1027.1,459.5c0-0.6,0-1.2,0-1.8c0-0.6,0-1.2,0-1.8c-0.1-2.1-1.1-3.1-3-3.3c-1.3-0.1-2.6-0.1-3.9,0c-1.7,0.1-2.7,1.1-2.8,2.9
		c-0.1,2.6-0.1,5.2,0,7.8c0,1.8,1.1,2.7,2.8,2.8c1.3,0,2.6,0,3.9,0c1.8,0,2.8-1.1,2.9-2.9C1027.1,462,1027.1,460.8,1027.1,459.5z"/>
	<path class="st11" d="M892.9,451.4c1.5-0.5,2.4-0.1,3.1,1.1c1.2,1.8,2.6,3.5,4,5.4c1.4-1.9,2.7-3.6,3.9-5.4c0.8-1.2,1.6-1.6,3.1-1
		c-1.4,2-2.8,3.9-4.1,5.8c-1.7,2.3-1.7,2.3,0,4.6c1.4,1.8,2.7,3.7,4.2,5.6c-1.3,0.5-2.2,0.4-2.9-0.8c-1.1-1.7-2.3-3.2-3.5-4.8
		c-0.5-0.7-0.8-0.7-1.3,0c-1.2,1.7-2.5,3.3-3.8,5c-0.3,0.4-0.5,0.9-1.1,0.8c-0.5,0-1.1,0.3-1.4-0.2c-0.3-0.5,0.3-0.8,0.6-1.2
		c1.4-1.9,2.9-3.9,4.4-5.7c0.6-0.8,0.7-1.2,0-2.1C896.4,456.3,894.8,453.9,892.9,451.4z"/>
	<path class="st3" d="M1078.6,467.7c-1.4,0-2.7,0-4.1,0c-0.6,0-0.8-0.2-0.8-0.8c0-0.7,0.4-0.6,0.8-0.6c2.2,0,4.4,0,6.6,0
		c2.1,0,3-0.8,3-2.7c0-2.5-0.7-3.3-2.9-3.4c-1.5,0-3,0.2-4.5-0.1c-1.9-0.4-2.8-1.5-2.9-3.4c-0.2-4.2,0.9-5.4,4.9-5.4
		c2.1,0,4.2,0,6.3,0c0.5,0,1.1-0.2,1.1,0.7c0,0.9-0.6,0.8-1.1,0.8c-2.1,0-4.3,0-6.4,0c-2.1,0-3.1,1-3.1,3c0,2.1,0.9,3,3.1,3
		c1.4,0,2.8,0,4.2,0c1.9,0,2.9,1,3.1,2.9c0.1,0.9,0.1,1.8,0,2.8c-0.2,2.1-1.3,3.1-3.3,3.2C1081.2,467.8,1079.9,467.7,1078.6,467.7z"
		/>
	<path class="st3" d="M983.7,465c1.9-4.4,3.7-8.4,5.5-12.5c0.2-0.4,0.3-0.8,0.5-1c0.5-0.5,1.1-0.4,1.6-0.2c0.7,0.3,0.1,0.8-0.1,1.2
		c-2,4.7-4.1,9.3-6.2,14c-0.3,0.6-0.5,1.2-1.3,1.2c-0.9,0-1.1-0.6-1.4-1.2c-2-4.6-4.1-9.2-6.1-13.9c-0.2-0.4-0.9-1-0.1-1.3
		c0.6-0.2,1.4-0.4,1.8,0.6c0.5,1.3,1.1,2.6,1.7,3.8C981,458.7,982.3,461.7,983.7,465z"/>
	<path class="st3" d="M1011.7,456.9c0,3.2,0,6.4,0,9.6c0,0.6,0,1.2-0.9,1.2c-0.9,0-0.9-0.4-0.9-1.1c0-6.5,0-13,0-19.6
		c0-0.7,0.1-1.1,0.9-1.1c0.9,0,0.8,0.6,0.8,1.2C1011.7,450.4,1011.7,453.7,1011.7,456.9z"/>
	<path class="st3" d="M1066.7,461c0-2-0.1-4,0-6c0.2-2.8,2.8-4.5,5.4-3.8c0.5,0.1,0.5,0.4,0.5,0.8c0,0.5-0.3,0.6-0.7,0.7
		c-3.3,0.6-3.6,1-3.6,4.6c0,3.1,0,6.2,0,9.3c0,0.6,0.1,1.2-0.8,1.2c-0.9,0-1-0.4-1-1.2C1066.7,464.7,1066.6,462.8,1066.7,461
		C1066.7,461,1066.7,461,1066.7,461z"/>
</g>
</svg>
