<?xml version="1.0" encoding="utf-8"?>
<!-- Generator: Adobe Illustrator 22.0.0, SVG Export Plug-In . SVG Version: 6.00 Build 0)  -->
<svg version="1.1" id="Layer_1" xmlns="http://www.w3.org/2000/svg" xmlns:xlink="http://www.w3.org/1999/xlink" x="0px" y="0px"
	 viewBox="0 0 637.8 976.4" style="enable-background:new 0 0 637.8 976.4;" xml:space="preserve">
<style type="text/css">
	.st0{fill:#3F95E9;}
	.st1{fill:#FFFFFF;}
	.st2{fill:#FFFFFF;stroke:#FFFFFF;stroke-width:2;stroke-miterlimit:10;}
	.st3{clip-path:url(#SVGID_2_);}
	.st4{fill:#FFFFFF;stroke:#FFFFFF;stroke-width:0.5;}
	.st5{fill:#FFFFFF;stroke:#FFD747;stroke-width:0.5;}
	.st6{fill:#FFFFFF;stroke:#FFE146;stroke-width:0.5;}
	.st7{fill:#32BBAF;}
	.st8{fill:#9970FF;}
	.st9{fill:#FFAB4F;}
	.st10{fill:none;stroke:#FFFFFF;stroke-width:4;stroke-miterlimit:10;}
	.st11{fill:none;stroke:#FFFFFF;stroke-width:4;stroke-miterlimit:10;stroke-dasharray:12.6454,12.6454;}
</style>
<g>
	<path class="st0" d="M110.7,486.3c0,1.6,0.9,3,2.4,3c2.9,0,4.8-0.9,7.3-2c2.7-1.3,4.9-2.6,7.5-4.1c0.6-0.4,1.5-0.8,1.6-1.3
		c-1.2,0.1-6.9,2.8-9.7,1.5c-3.1-1.5,2.9-9.1,3.8-10.3l2.1-2.6c0.3-0.3,0.5-0.4,0.9-0.8c4.1-4.1,16.9-14.5,22.6-11.4
		c0.4,0.2,0.6,0.4,0.9,0.6c0.4,0.3,0.5,0.6,1,0.7c0.9-1.7,1.4-5.5-2-5.5c-4.2,0-9.4,3.1-13,5c-1.5,0.8-4,2.4-5.4,3.3
		c-2.2,1.5-6.7,4.9-8.5,6.8c-0.4,0.4-0.7,0.7-1.1,1.1c-0.4,0.3-0.7,0.7-1.1,1.1c-0.4,0.4-0.6,0.7-1,1.2
		C116.2,474.9,110.7,482.4,110.7,486.3L110.7,486.3z"/>
	<path class="st1" d="M134,479.1c0.3,0.2,0.5,0,0.9-0.1l2.9-1.2c1.2-0.4,5.8-1.8,7.1-0.4c1.6,1.9-0.3,5.7-1.3,7.1l-2.2,2.7
		c-0.6,0.6-0.7,0.9-1.6,1.7l-3.5,3.1c-0.3,0.3-0.6,0.5-0.9,0.8c-3.2,2.7-9.8,7.4-13.5,9.7c-0.6,0.4-3.7,2.3-4,2.6
		c1.3,0,4.6-1.9,5.7-2.5c3-1.5,8-4.3,10.7-6c0.9-0.6,1.7-1,2.6-1.6c0.9-0.6,1.7-1.1,2.5-1.7c1.6-1.2,3.2-2.4,4.7-3.7
		c0.2-0.2,0.3-0.3,0.5-0.5c2.9-2.5,5.4-5.1,7.4-8.4c1-1.7,4-8.1,0.3-9.4c-3-1.1-8.5,1.9-10.5,3.1l-3.9,2.3
		C137.1,476.9,134.3,478.7,134,479.1L134,479.1z"/>
	<path class="st1" d="M148,465.4c0,1.5,1.6,2.7,3,3.2c5,1.5,9.5-2.9,5.5-5.6C153.5,460.9,148,462.4,148,465.4L148,465.4z"/>
</g>
<circle class="st1" cx="321" cy="103.6" r="8.5"/>
<circle class="st1" cx="321.7" cy="524" r="8.3"/>
<circle class="st1" cx="321.6" cy="912.5" r="7.9"/>
<circle class="st1" cx="322" cy="736" r="8.4"/>
<circle class="st1" cx="321.1" cy="305.3" r="7.7"/>
<g>
	<path class="st2" d="M112.9,533.1l-0.6-10h0.4l0.6,9.9c0.2,2.9,1.9,5,4.5,5s4.3-2,4.5-5l0.6-9.9h0.4l-0.6,10
		c-0.2,3.2-2.1,5.3-4.9,5.3S113.1,536.3,112.9,533.1z"/>
	<path class="st2" d="M137.3,538l-4.8-8c-1.8,3-3.3,5.5-4.8,8h-0.5c1.7-2.8,3.3-5.6,5-8.4c-1.1-1.9-2.4-4-3.9-6.5h4.1
		c1.4,0,2.8,0,4.1,0c-1.5,2.5-2.8,4.6-3.9,6.6l5,8.4L137.3,538L137.3,538z M132.6,529.2l3.4-5.7c-1.1,0-2.2,0-3.4,0
		c-1.1,0-2.3,0-3.4,0C130.3,525.4,131.4,527.3,132.6,529.2z"/>
	<path class="st2" d="M152.6,523.5c0,2,0,4,0,6h2.8c1,0,2,0,3,0v0.4h-3c-0.9,0-1.8,0-2.8,0v0.5c0,2.4,0,4.8,0,7.2h6.7v0.4h-7.1
		c0-2.5,0-5.1,0-7.6V523c2.4,0,4.8,0,7.2,0v0.4h-6.8V523.5z"/>
	<path class="st2" d="M174.9,529.1c0,2.2,0,7.1,0,9.3l-9.7-14.3c0,2.7,0,5.3,0,8v6h-0.4v-6c0-3.1,0-6.2,0-9.3l9.7,14.3
		c0-2.7,0-5.3,0-8v-6h0.4V529.1z"/>
	<path class="st2" d="M194,538l-1.5-2.1c-1.1,1.5-2.8,2.4-4.9,2.4c-3.7,0-6.8-3.4-6.8-8c0-4.4,3-7.6,7.3-7.6c1.9,0,3.8,0.7,5,1.7
		v0.5c-1.3-1-3.2-1.7-5-1.7c-4,0-6.9,3.1-6.9,7.2c0,4.3,3,7.5,6.4,7.5c2,0,3.6-0.9,4.6-2.4c-1.1-1.4-2.1-2.9-3.2-4.3h2.6
		c0.8,0,1.5,0,2.3,0c0,1.6-0.5,3.1-1.3,4.3l1.8,2.4H194V538z M192.4,535.3c0.7-1,1.1-2.3,1.1-3.6h-1.9c-0.6,0-1.3,0-1.9,0
		C190.7,532.9,191.5,534.1,192.4,535.3z"/>
	<path class="st2" d="M199.8,530.6c0-2.5,0-5,0-7.5h0.4v7.5c0,2.5,0,5,0,7.5h-0.4V530.6z"/>
	<path class="st2" d="M217.2,529.1c0,2.2,0,7.1,0,9.3l-9.7-14.3c0,2.7,0,5.3,0,8v6h-0.4v-6c0-3.1,0-6.2,0-9.3l9.7,14.3
		c0-2.7,0-5.3,0-8v-6h0.4V529.1z"/>
	<path class="st2" d="M224.4,523.5c0,2,0,4,0,6h2.8c1,0,2,0,3,0v0.4h-3c-0.9,0-1.8,0-2.8,0v0.5c0,2.4,0,4.8,0,7.2h6.7v0.4h-7.2
		c0-2.5,0-5.1,0-7.6V523c2.4,0,4.8,0,7.2,0v0.4h-6.7V523.5z"/>
	<path class="st2" d="M237,523.5c0,2,0,4,0,6h2.8c1,0,2,0,3,0v0.4h-3c-0.9,0-1.8,0-2.8,0v0.5c0,2.4,0,4.8,0,7.2h6.7v0.4h-7.2
		c0-2.5,0-5.1,0-7.6V523c2.4,0,4.8,0,7.2,0v0.4H237V523.5z"/>
	<path class="st2" d="M253.3,531.5l3.2,6.5h-0.4c-1-2.2-2.1-4.3-3.1-6.4c-0.5,0.1-1.1,0.1-1.7,0.1h-1.5c0,2.1,0,4.2,0,6.3h-0.6v-6.7
		c0.6,0,1.3,0,1.9,0c0.6,0,1.1,0,1.5-0.1c-1.3-2.7-2.6-5.4-3.9-8.1h2.8c3.3,0,5.3,1.7,5.3,4.2C256.8,529.5,255.6,531,253.3,531.5z
		 M253.1,531.1c2.2-0.5,3.3-1.8,3.3-3.8c0-2.3-1.9-3.8-4.9-3.8h-2.1L253.1,531.1z"/>
</g>
<g>
	<path class="st2" d="M163.8,890.4v-0.6c1,1,2.4,1.7,3.8,1.7c1.9,0,3.5-1.5,3.5-3.3c0-2.2-1.9-3.1-3.9-3.9c-2.1-0.9-4.1-1.8-4.1-4.2
		c0-2.2,1.8-3.8,4.4-3.8c1.7,0,3.2,0.8,4.2,1.8v0.6c-1.1-1.2-2.6-2-4.2-2c-2.4,0-4,1.5-4,3.3c0,2.2,1.8,3,3.9,3.8
		c2,0.8,4.1,1.9,4.1,4.3c0,2.1-1.8,3.7-4,3.7C166.2,891.9,164.7,891.2,163.8,890.4z"/>
	<path class="st2" d="M185.7,877.1h-5c0,2.4,0,4.8,0,7.2v7.3h-0.4v-7.3c0-2.4,0-4.8,0-7.2h-5v-0.4h5.2c1.8,0,3.5,0,5.2,0
		C185.7,876.7,185.7,877.1,185.7,877.1z"/>
	<path class="st2" d="M190.8,886.1c-0.7,1.8-1.5,3.7-2.3,5.6h-0.4l2.4-5.8c-0.8-0.5-1.6-0.9-2.4-1.4V884c0.8,0.5,1.7,1,2.5,1.5
		c1.2-2.9,2.4-5.9,3.7-9.1l6.4,15.6C197.4,890,194.1,888,190.8,886.1z M191,885.7c3,1.8,5.9,3.5,8.9,5.3l-5.5-13.6L191,885.7z"/>
	<path class="st2" d="M210,885.1l3.2,6.5h-0.4c-1-2.2-2.1-4.3-3.1-6.4c-0.5,0.1-1.1,0.1-1.7,0.1h-1.5c0,2.1,0,4.2,0,6.3h-0.4v-6.7
		c0.6,0,1.3,0,1.9,0c0.6,0,1.1,0,1.5-0.1c-1.3-2.7-2.6-5.4-3.9-8.1h2.8c3.3,0,5.3,1.7,5.3,4.2C213.6,883.1,212.4,884.6,210,885.1z
		 M209.8,884.7c2.2-0.5,3.3-1.8,3.3-3.8c0-2.3-1.9-3.8-4.9-3.8h-2.1L209.8,884.7z"/>
	<path class="st2" d="M227.6,877.1h-5c0,2.4,0,4.8,0,7.2v7.3h-0.4v-7.3c0-2.4,0-4.8,0-7.2h-5v-0.4h5.2c1.8,0,3.5,0,5.2,0V877.1z"/>
	<path class="st2" d="M232.7,877.1c0,2,0,4,0,6h2.8c1,0,2,0,3,0v0.4h-3c-0.9,0-1.8,0-2.8,0v0.5c0,2.4,0,4.8,0,7.2h6.7v0.4h-7.2
		c0-2.5,0-5.1,0-7.6v-7.4c2.4,0,4.8,0,7.2,0v0.4L232.7,877.1L232.7,877.1z"/>
	<path class="st2" d="M244.9,876.7h2.7c5,0,8.1,2.8,8.1,7.3c0,4.4-3.5,7.7-8.3,7.7h-2.6v-15H244.9z M247.4,891.2
		c4.6,0,7.9-3.1,7.9-7.3s-3-6.8-7.7-6.8h-2.2v14.1H247.4z"/>
	<path class="st2" d="M165,903.5c0,2,0,4,0,6h2.8c1,0,2,0,3,0v0.4h-3c-0.9,0-1.8,0-2.8,0v0.5c0,2.4,0,4.8,0,7.2h6.7v0.4h-7.2
		c0-2.5,0-5.1,0-7.6v-7.3c2.4,0,4.8,0,7.2,0v0.4H165z"/>
	<path class="st2" d="M185.5,918l-4.8-8c-1.8,3-3.3,5.5-4.8,8h-0.5c1.7-2.8,3.3-5.6,5-8.4c-1.1-1.9-2.4-4-3.9-6.5h4.1
		c1.4,0,2.8,0,4.1,0c-1.5,2.5-2.8,4.6-3.9,6.6l5,8.4L185.5,918L185.5,918z M180.7,909.2l3.4-5.7c-1.1,0-2.2,0-3.4,0
		c-1.1,0-2.3,0-3.4,0C178.5,905.4,179.6,907.3,180.7,909.2z"/>
	<path class="st2" d="M198.4,907.3c0,2.6-2,4.4-5.3,4.4h-1.6c0,2.1,0,4.2,0,6.3h-0.4v-15c0.9,0,1.7,0,2.5,0
		C196.5,903.1,198.4,904.8,198.4,907.3z M197.9,907.3c0-2.3-1.7-3.8-4.4-3.8h-2c0,2.6,0,5.2,0,7.9h1.5
		C196.1,911.3,197.9,909.7,197.9,907.3z"/>
	<path class="st2" d="M203.8,910.5c0-2.5,0-4.9,0-7.4h0.4v7.4c0,2.4,0,4.8,0,7.2h7.5v0.4h-7.9V910.5z"/>
	<path class="st2" d="M215.1,910.4c0-4.4,3.1-7.7,7.4-7.7c4.4,0,7.4,3.3,7.4,7.7c0,4.3-3.4,8-7.4,8
		C218.4,918.4,215.1,914.8,215.1,910.4z M229.5,910.4c0-4.2-2.9-7.3-7-7.3s-7,3.1-7,7.3c0,4.1,3.2,7.5,7,7.5
		S229.5,914.5,229.5,910.4z"/>
	<path class="st2" d="M239.7,911.5l3.2,6.5h-0.4c-1-2.2-2.1-4.3-3.1-6.4c-0.5,0.1-1.1,0.1-1.7,0.1h-1.5c0,2.1,0,4.2,0,6.3h-0.4v-6.7
		c0.6,0,1.3,0,1.9,0c0.6,0,1.1,0,1.5-0.1c-1.3-2.7-2.6-5.4-3.9-8.1h2.8c3.3,0,5.3,1.7,5.3,4.2C243.2,909.5,242,911,239.7,911.5z
		 M239.5,911.1c2.2-0.5,3.3-1.8,3.3-3.8c0-2.3-1.9-3.8-4.9-3.8h-2.1L239.5,911.1z"/>
	<path class="st2" d="M249.2,910.6c0-2.5,0-5,0-7.5h0.4v7.5c0,2.5,0,5,0,7.5h-0.4V910.6z"/>
	<path class="st2" d="M266.5,909.1c0,2.2,0,7.1,0,9.3l-9.7-14.3c0,2.7,0,5.3,0,8v6h-0.4v-6c0-3.1,0-6.2,0-9.3l9.7,14.3
		c0-2.7,0-5.3,0-8v-6h0.4V909.1z"/>
	<path class="st2" d="M285.6,918l-1.5-2.1c-1.1,1.5-2.8,2.4-4.9,2.4c-3.7,0-6.8-3.4-6.8-8c0-4.4,3-7.6,7.3-7.6c1.9,0,3.8,0.7,5,1.7
		v0.5c-1.3-1-3.2-1.7-5-1.7c-4,0-6.9,3.1-6.9,7.2c0,4.3,3,7.5,6.4,7.5c2,0,3.6-0.9,4.6-2.4c-1.1-1.4-2.1-2.9-3.2-4.3h2.6
		c0.8,0,1.5,0,2.3,0c0,1.6-0.5,3.1-1.3,4.3l1.8,2.4L285.6,918L285.6,918z M284,915.3c0.7-1,1.1-2.3,1.1-3.6h-1.9c-0.6,0-1.3,0-1.9,0
		C282.2,912.9,283.1,914.1,284,915.3z"/>
</g>
<g>
	<path class="st1" d="M116.1,572.9c-0.2-1.3-1.2-2-2.9-2c-0.9,0-1.6,0.2-2.1,0.6c-0.5,0.4-0.7,0.9-0.7,1.4c0,0.6,0.2,1,0.5,1.3
		c0.3,0.3,0.8,0.5,1.5,0.8l2.8,1c1,0.3,1.7,0.8,2.3,1.4c0.6,0.6,0.9,1.4,0.9,2.4s-0.4,1.9-1.3,2.6c-0.9,0.7-2.1,1.1-3.6,1.1
		s-2.7-0.4-3.7-1.1c-1-0.8-1.4-1.8-1.5-3.2h1.7c0,0.9,0.3,1.6,0.9,2c0.6,0.5,1.4,0.7,2.4,0.7s1.8-0.2,2.3-0.7c0.6-0.4,0.9-1,0.9-1.6
		c0-0.6-0.2-1.1-0.5-1.4c-0.4-0.3-0.9-0.6-1.6-0.9l-2.4-0.9c-1.1-0.4-2-0.8-2.5-1.3s-0.9-1.3-0.9-2.3s0.4-1.8,1.2-2.5
		c0.8-0.7,1.9-1,3.4-1s2.6,0.3,3.3,1c0.8,0.6,1.2,1.5,1.3,2.6H116.1z"/>
	<path class="st1" d="M125.4,582c1.4,0,2.2-0.6,2.4-1.9h1.7c-0.2,1-0.6,1.8-1.4,2.4c-0.8,0.6-1.7,0.9-2.8,0.9
		c-1.4,0-2.5-0.5-3.4-1.5s-1.3-2.3-1.3-3.9c0-1.6,0.4-2.9,1.3-3.9c0.9-1,2-1.5,3.5-1.5s2.5,0.6,3.2,1.7c0.7,1.1,1,2.5,0.7,4.1h-7.1
		c0,1.1,0.3,1.9,0.8,2.6C123.8,581.6,124.5,582,125.4,582z M126.7,574.2c-0.3-0.2-0.7-0.3-1.2-0.3c-0.9,0-1.6,0.3-2.1,0.9
		c-0.5,0.6-0.8,1.3-0.9,2.2h5.5C128,575.6,127.6,574.6,126.7,574.2z"/>
	<path class="st1" d="M134.6,574.4c0.7-1.2,1.7-1.8,3-1.8s2.5,0.5,3.4,1.5c0.9,1,1.3,2.3,1.3,3.9c0,1.6-0.5,2.9-1.4,3.9
		c-0.9,1-2,1.5-3.3,1.5s-2.3-0.5-2.9-1.5v6.3H133v-15.4h1.4L134.6,574.4z M137.6,581.9c0.8,0,1.5-0.3,2.1-1c0.6-0.7,0.9-1.6,0.9-2.8
		c0-1.2-0.3-2.2-0.9-2.9c-0.6-0.7-1.3-1.1-2.1-1.1s-1.5,0.3-2,0.8s-0.8,1.2-0.8,2.1v2c0,0.9,0.3,1.6,0.8,2.1
		S136.7,581.9,137.6,581.9z"/>
	<path class="st1" d="M151.9,581.6h7.9v1.6h-9.6v-2c0-1.6,0.6-2.8,1.8-3.5c0.4-0.2,0.8-0.5,1.3-0.6l2.7-1.1c1.4-0.5,2.1-1.4,2.1-2.7
		c0-0.7-0.2-1.3-0.7-1.7s-1.1-0.7-2-0.7c-0.9,0-1.6,0.2-2.1,0.5c-0.5,0.4-0.9,0.9-0.9,1.6h-1.9c0.1-1.2,0.5-2.1,1.4-2.7
		c0.9-0.6,2-0.9,3.4-0.9c1.4,0,2.5,0.4,3.4,1.1c0.9,0.7,1.3,1.7,1.3,2.8s-0.3,2-0.9,2.6c-0.6,0.6-1.3,1.2-2.3,1.6l-2.7,1.1
		c-0.7,0.3-1.2,0.6-1.5,1c-0.3,0.4-0.5,0.8-0.5,1.4v0.6H151.9z"/>
	<path class="st1" d="M167.7,569.3c1.6,0,2.9,0.6,3.9,1.8c0.9,1.2,1.4,2.9,1.4,5.2c0,2.3-0.5,4-1.4,5.2c-0.9,1.2-2.2,1.8-3.9,1.8
		c-1.6,0-2.9-0.6-3.9-1.8c-1-1.2-1.4-2.9-1.4-5.2s0.5-4,1.4-5.2C164.8,569.9,166.1,569.3,167.7,569.3z M171.2,576.3
		c0-1.8-0.3-3.1-0.9-4.1c-0.6-1-1.5-1.4-2.6-1.4c-1.2,0-2,0.5-2.6,1.4c-0.6,0.9-0.9,2.3-0.9,4.1c0,1.8,0.3,3.1,0.9,4.1
		c0.6,1,1.5,1.4,2.6,1.4c1.2,0,2-0.5,2.6-1.4C170.9,579.5,171.2,578.1,171.2,576.3z"/>
	<path class="st1" d="M175.1,570.6c1-0.1,1.8-0.5,2.5-1.1h1.4v13.6h-1.7v-11.6c-0.7,0.5-1.5,0.7-2.2,0.8
		C175.1,572.3,175.1,570.6,175.1,570.6z"/>
	<path class="st1" d="M190.4,573c-0.2-1.4-1-2.1-2.3-2.1s-2.3,0.5-3,1.6c-0.7,1.1-1,2.5-1,4.4c0,0.8,0,1.4,0.1,1.9
		c0.1-1.3,0.5-2.3,1.2-2.9c0.7-0.6,1.7-0.9,2.8-0.9c1.1,0,2.1,0.4,2.9,1.2c0.8,0.8,1.2,1.8,1.2,3.1c0,1.2-0.4,2.3-1.3,3
		c-0.8,0.8-2,1.2-3.3,1.2c-1.6,0-2.9-0.6-3.9-1.9s-1.5-3-1.5-5.1c0-2.1,0.5-3.8,1.5-5.1s2.4-1.9,4.1-1.9c1.2,0,2.2,0.3,3,1
		s1.2,1.6,1.3,2.7h-1.8V573z M187.7,576.5c-0.8,0-1.5,0.3-2,0.8s-0.8,1.2-0.8,2s0.3,1.4,0.8,1.9s1.2,0.7,2,0.7s1.5-0.2,2-0.7
		s0.8-1.1,0.8-2c0-0.8-0.3-1.5-0.8-2S188.5,576.5,187.7,576.5z"/>
	<path class="st1" d="M199.5,576.1h5.9v1.5h-5.9V576.1z"/>
	<path class="st1" d="M216,569.6l4.6,9.2l4.5-9.2h2.4v13.6h-1.7V572l-4.7,9.4H220l-4.7-9.6v11.3h-1.7v-13.6h2.4V569.6z"/>
	<path class="st1" d="M238.2,576.4c0-0.9-0.2-1.6-0.6-2c-0.4-0.4-1-0.6-1.7-0.6s-1.3,0.1-1.8,0.4s-0.7,0.8-0.7,1.4h-1.9
		c0-1.6,0.8-2.6,2.5-2.9c0.5-0.1,1.1-0.2,1.7-0.2c1.3,0,2.3,0.3,3,1s1.1,1.6,1.1,3v6.6h-1.5l-0.2-1.7c-0.6,1.3-1.8,2-3.4,2
		c-1.1,0-2-0.3-2.7-0.9c-0.7-0.6-1-1.4-1-2.3c0-0.9,0.4-1.6,1.1-2.2c0.7-0.5,1.7-0.8,2.8-0.8s2.2,0.2,3.2,0.6L238.2,576.4
		L238.2,576.4z M238.2,578.8c-1-0.3-1.9-0.4-2.7-0.4s-1.4,0.1-1.9,0.4s-0.7,0.7-0.7,1.3c0,1.3,0.7,1.9,2.2,1.9
		c0.8,0,1.5-0.3,2.1-0.9C237.8,580.5,238.2,579.8,238.2,578.8z"/>
	<path class="st1" d="M241.9,586.1c0.7,0.5,1.4,0.8,2.2,0.8c0.6,0,1.1-0.3,1.5-0.9c0.3-0.4,0.6-1,0.8-1.9l0.3-1.1l-4.2-10.3h1.9
		l3.1,8.2l2.4-8.2h1.7l-3.9,12.4c-0.3,1-0.8,1.9-1.3,2.4c-0.5,0.6-1.2,0.8-2,0.8s-1.7-0.3-2.6-0.8v-1.4H241.9z"/>
	<path class="st1" d="M260.4,581.6h7.9v1.6h-9.6v-2c0-1.6,0.6-2.8,1.8-3.5c0.4-0.2,0.8-0.5,1.3-0.6l2.7-1.1c1.4-0.5,2.1-1.4,2.1-2.7
		c0-0.7-0.2-1.3-0.7-1.7s-1.1-0.7-2-0.7s-1.6,0.2-2.1,0.5c-0.5,0.4-0.9,0.9-0.9,1.6H259c0.1-1.2,0.5-2.1,1.4-2.7
		c0.9-0.6,2-0.9,3.4-0.9s2.5,0.4,3.4,1.1s1.3,1.7,1.3,2.8s-0.3,2-0.9,2.6c-0.6,0.6-1.3,1.2-2.3,1.6l-2.7,1.1c-0.7,0.3-1.2,0.6-1.5,1
		c-0.3,0.4-0.5,0.8-0.5,1.4v0.6H260.4z"/>
	<path class="st1" d="M276.3,569.3c1.6,0,2.9,0.6,3.9,1.8c0.9,1.2,1.4,2.9,1.4,5.2c0,2.3-0.5,4-1.4,5.2s-2.2,1.8-3.9,1.8
		c-1.6,0-2.9-0.6-3.9-1.8c-1-1.2-1.4-2.9-1.4-5.2s0.5-4,1.4-5.2S274.6,569.3,276.3,569.3z M279.8,576.3c0-1.8-0.3-3.1-0.9-4.1
		c-0.6-1-1.5-1.4-2.6-1.4c-1.2,0-2,0.5-2.6,1.4c-0.6,0.9-0.9,2.3-0.9,4.1c0,1.8,0.3,3.1,0.9,4.1c0.6,1,1.5,1.4,2.6,1.4
		c1.2,0,2-0.5,2.6-1.4C279.5,579.5,279.8,578.1,279.8,576.3z"/>
	<path class="st1" d="M283.7,570.6c1-0.1,1.8-0.5,2.5-1.1h1.4v13.6h-1.7v-11.6c-0.7,0.5-1.5,0.7-2.2,0.8V570.6z"/>
	<path class="st1" d="M295.9,569.3c0.7,0,1.4,0.2,2.1,0.5s1.2,0.8,1.7,1.4c1,1.3,1.6,2.9,1.6,4.9c0,3.5-1,5.8-2.9,6.8
		c-0.7,0.3-1.4,0.5-2.2,0.5c-1.5,0-2.7-0.4-3.5-1.2c-0.9-0.8-1.3-1.8-1.3-3h1.8c0,0.8,0.3,1.5,0.8,2s1.1,0.7,1.9,0.7
		c0.7,0,1.4-0.1,1.8-0.4c1.3-0.8,2-2.7,2-5.5c0-0.6,0-1.1-0.1-1.6c-0.1,1.2-0.6,2-1.3,2.6c-0.7,0.6-1.6,0.9-2.7,0.9
		s-2.1-0.4-2.9-1.2s-1.2-1.8-1.2-3.1c0-1.3,0.4-2.3,1.3-3C293.7,569.9,294.5,569.3,295.9,569.3z M297.9,571.6
		c-0.5-0.5-1.2-0.7-2-0.7c-0.8,0-1.5,0.2-2,0.7s-0.8,1.1-0.8,2c0,0.9,0.3,1.5,0.8,2s1.2,0.7,2,0.7c0.8,0,1.5-0.3,2-0.8
		s0.8-1.2,0.8-2S298.4,572.1,297.9,571.6z"/>
</g>
<g>
	<path class="st2" d="M350.5,315l-0.6-10h0.4l0.6,9.9c0.2,2.9,1.9,5,4.5,5s4.3-2,4.5-5l0.6-9.9h0.4l-0.6,10
		c-0.2,3.2-2.1,5.3-4.9,5.3C352.7,320.3,350.7,318.2,350.5,315z"/>
	<path class="st2" d="M375,319.9l-4.8-8c-1.8,3-3.3,5.5-4.8,8h-0.5c1.7-2.8,3.3-5.6,5-8.4c-1.1-1.9-2.4-4-3.9-6.5h4.1
		c1.4,0,2.8,0,4.1,0c-1.5,2.5-2.8,4.6-3.9,6.6l5,8.4H375V319.9z M370.2,311.1l3.4-5.7c-1.1,0-2.2,0-3.4,0s-2.3,0-3.4,0
		C367.9,307.3,369.1,309.2,370.2,311.1z"/>
	<path class="st2" d="M390.2,305.4c0,2,0,4,0,6h2.8c1,0,2,0,3,0v0.4h-3c-0.9,0-1.8,0-2.8,0v0.5c0,2.4,0,4.8,0,7.2h6.7v0.4h-7.2
		c0-2.5,0-5.1,0-7.6v-7.4c2.4,0,4.8,0,7.2,0v0.4h-6.7V305.4z"/>
	<path class="st2" d="M412.6,311c0,2.2,0,7.1,0,9.3l-9.7-14.3c0,2.7,0,5.3,0,8v6h-0.4v-6c0-3.1,0-6.2,0-9.3l9.7,14.3
		c0-2.7,0-5.3,0-8v-6h0.4V311z"/>
	<path class="st2" d="M431.6,319.9l-1.5-2.1c-1.1,1.5-2.8,2.4-4.9,2.4c-3.7,0-6.8-3.4-6.8-8c0-4.4,3-7.6,7.3-7.6
		c1.9,0,3.8,0.7,5,1.7v0.5c-1.3-1-3.2-1.7-5-1.7c-4,0-6.9,3.1-6.9,7.2c0,4.3,3,7.5,6.4,7.5c2,0,3.6-0.9,4.6-2.4
		c-1.1-1.4-2.1-2.9-3.2-4.3h2.6c0.8,0,1.5,0,2.3,0c0,1.6-0.5,3.1-1.3,4.3l1.8,2.4h-0.4V319.9z M430.1,317.2c0.7-1,1.1-2.3,1.1-3.6
		h-1.9c-0.6,0-1.3,0-1.9,0C428.3,314.8,429.2,316,430.1,317.2z"/>
	<path class="st2" d="M437.5,312.5c0-2.5,0-5,0-7.5h0.4v7.5c0,2.5,0,5,0,7.5h-0.4V312.5z"/>
	<path class="st2" d="M454.8,311c0,2.2,0,7.1,0,9.3l-9.7-14.3c0,2.7,0,5.3,0,8v6h-0.4v-6c0-3.1,0-6.2,0-9.3l9.7,14.3
		c0-2.7,0-5.3,0-8v-6h0.4V311z"/>
	<path class="st2" d="M462,305.4c0,2,0,4,0,6h2.8c1,0,2,0,3,0v0.4h-3c-0.9,0-1.8,0-2.8,0v0.5c0,2.4,0,4.8,0,7.2h6.7v0.4h-7.2
		c0-2.5,0-5.1,0-7.6v-7.4c2.4,0,4.8,0,7.2,0v0.4H462V305.4z"/>
	<path class="st2" d="M474.6,305.4c0,2,0,4,0,6h2.8c1,0,2,0,3,0v0.4h-3c-0.9,0-1.8,0-2.8,0v0.5c0,2.4,0,4.8,0,7.2h6.7v0.4h-7.2
		c0-2.5,0-5.1,0-7.6v-7.4c2.4,0,4.8,0,7.2,0v0.4h-6.7V305.4z"/>
	<path class="st2" d="M490.9,313.4l3.2,6.5h-0.4c-1-2.2-2.1-4.3-3.1-6.4c-0.5,0.1-1.1,0.1-1.7,0.1h-1.5c0,2.1,0,4.2,0,6.3H487v-6.7
		c0.6,0,1.3,0,1.9,0s1.1,0,1.5-0.1c-1.3-2.7-2.6-5.4-3.9-8.1h2.8c3.3,0,5.3,1.7,5.3,4.2C494.5,311.4,493.3,312.9,490.9,313.4z
		 M490.7,313c2.2-0.5,3.3-1.8,3.3-3.8c0-2.3-1.9-3.8-4.9-3.8H487L490.7,313z"/>
</g>
<g>
	<path class="st1" d="M350.3,364.3c-0.7,0.6-1.5,1-2.6,1s-2.1-0.3-3.3-0.9v-1.8c1,0.7,2,1,2.8,1c0.9,0,1.5-0.2,1.8-0.6
		c0.3-0.4,0.5-1.1,0.5-1.9v-9.6h1.7v9.6C351.3,362.6,351,363.7,350.3,364.3z"/>
	<path class="st1" d="M362.2,363c-0.7,1.5-1.8,2.2-3.4,2.2c-1.2,0-2.1-0.3-2.8-1c-0.7-0.6-1.1-1.6-1.1-3v-6.6h1.7v6.4
		c0,1.7,0.8,2.6,2.4,2.6c0.9,0,1.7-0.4,2.3-1.1c0.6-0.7,0.9-1.6,0.9-2.8v-5.2h1.7v10.3h-1.7L362.2,363L362.2,363z"/>
	<path class="st1" d="M368.3,350.3h1.7V365h-1.7V350.3z"/>
	<path class="st1" d="M380.4,363.5h7.9v1.6h-9.6v-2c0-1.6,0.6-2.8,1.8-3.5c0.4-0.2,0.8-0.5,1.3-0.6l2.7-1.1c1.4-0.5,2.1-1.4,2.1-2.7
		c0-0.7-0.2-1.3-0.7-1.7s-1.1-0.7-2-0.7s-1.6,0.2-2.1,0.5c-0.5,0.4-0.9,0.9-0.9,1.6h-2c0.1-1.2,0.5-2.1,1.4-2.7
		c0.9-0.6,2-0.9,3.4-0.9s2.5,0.4,3.4,1.1c0.9,0.7,1.3,1.7,1.3,2.8s-0.3,2-0.9,2.6c-0.6,0.6-1.3,1.2-2.3,1.6l-2.7,1.1
		c-0.7,0.3-1.2,0.6-1.5,1s-0.5,0.8-0.5,1.4v0.6H380.4z"/>
	<path class="st1" d="M396.2,351.2c1.6,0,2.9,0.6,3.9,1.8c0.9,1.2,1.4,2.9,1.4,5.2c0,2.3-0.5,4-1.4,5.2c-0.9,1.2-2.2,1.8-3.9,1.8
		c-1.6,0-2.9-0.6-3.9-1.8c-1-1.2-1.4-2.9-1.4-5.2c0-2.3,0.5-4,1.4-5.2C393.3,351.8,394.6,351.2,396.2,351.2z M399.8,358.2
		c0-1.8-0.3-3.1-0.9-4.1c-0.6-0.9-1.5-1.4-2.6-1.4s-2,0.5-2.6,1.4s-0.9,2.3-0.9,4.1c0,1.8,0.3,3.1,0.9,4.1s1.5,1.4,2.6,1.4
		s2-0.5,2.6-1.4S399.8,360,399.8,358.2z"/>
	<path class="st1" d="M403.7,352.5c1-0.1,1.8-0.5,2.5-1.1h1.4V365h-1.7v-11.6c-0.7,0.5-1.5,0.7-2.2,0.8V352.5z"/>
	<path class="st1" d="M415.8,351.2c0.7,0,1.4,0.2,2.1,0.5c0.7,0.3,1.2,0.8,1.7,1.4c1,1.3,1.6,2.9,1.6,4.9c0,3.5-1,5.8-2.9,6.8
		c-0.7,0.3-1.4,0.5-2.2,0.5c-1.5,0-2.7-0.4-3.5-1.2c-0.9-0.8-1.3-1.8-1.3-3h1.8c0,0.8,0.3,1.5,0.8,2s1.1,0.7,1.9,0.7
		s1.4-0.1,1.8-0.4c1.3-0.8,2-2.7,2-5.5c0-0.6,0-1.1-0.1-1.6c-0.1,1.2-0.6,2-1.3,2.6s-1.6,0.9-2.7,0.9c-1.1,0-2.1-0.4-2.9-1.2
		c-0.8-0.8-1.2-1.8-1.2-3.1c0-1.3,0.4-2.3,1.3-3C413.3,351.6,414.4,351.2,415.8,351.2z M417.8,353.5c-0.5-0.5-1.2-0.7-2-0.7
		s-1.5,0.2-2,0.7s-0.8,1.1-0.8,2s0.3,1.5,0.8,2s1.2,0.7,2,0.7s1.5-0.3,2-0.8s0.8-1.2,0.8-2C418.6,354.6,418.3,354,417.8,353.5z"/>
	<path class="st1" d="M428.2,358h5.9v1.5h-5.9V358z"/>
	<path class="st1" d="M444.2,351.5l6.7,10.9v-10.9h1.7v13.6h-1.9l-6.8-11v11h-1.7v-13.6H444.2z"/>
	<path class="st1" d="M460.7,354.5c1.4,0,2.6,0.5,3.5,1.4s1.3,2.3,1.3,4c0,1.7-0.4,3.1-1.3,4c-0.9,0.9-2,1.4-3.5,1.4
		s-2.6-0.5-3.5-1.4s-1.3-2.3-1.3-4c0-1.7,0.4-3.1,1.3-4C458.1,354.9,459.3,354.5,460.7,354.5z M463.8,359.9c0-1.2-0.3-2.2-0.8-2.9
		c-0.5-0.7-1.3-1-2.3-1s-1.8,0.3-2.3,1c-0.5,0.7-0.8,1.7-0.8,2.9c0,1.2,0.3,2.2,0.8,2.9c0.5,0.7,1.3,1,2.3,1s1.8-0.3,2.3-1
		C463.5,362.1,463.8,361.1,463.8,359.9z"/>
	<path class="st1" d="M468.9,354.7l3.1,8.5l3.1-8.5h1.9l-4.1,10.3H471l-4.1-10.3H468.9z"/>
	<path class="st1" d="M485.7,363.5h7.9v1.6H484v-2c0-1.6,0.6-2.8,1.8-3.5c0.4-0.2,0.8-0.5,1.3-0.6l2.7-1.1c1.4-0.5,2.1-1.4,2.1-2.7
		c0-0.7-0.2-1.3-0.7-1.7s-1.1-0.7-2-0.7s-1.6,0.2-2.1,0.5c-0.5,0.4-0.9,0.9-0.9,1.6h-1.9c0.1-1.2,0.5-2.1,1.4-2.7
		c0.9-0.6,2-0.9,3.4-0.9s2.5,0.4,3.4,1.1c0.9,0.7,1.3,1.7,1.3,2.8s-0.3,2-0.9,2.6s-1.3,1.2-2.3,1.6l-2.7,1.1c-0.7,0.3-1.2,0.6-1.5,1
		s-0.5,0.8-0.5,1.4v0.6H485.7z"/>
	<path class="st1" d="M501.5,351.2c1.6,0,2.9,0.6,3.9,1.8c0.9,1.2,1.4,2.9,1.4,5.2c0,2.3-0.5,4-1.4,5.2c-0.9,1.2-2.2,1.8-3.9,1.8
		s-2.9-0.6-3.9-1.8c-1-1.2-1.4-2.9-1.4-5.2c0-2.3,0.5-4,1.4-5.2C498.6,351.8,499.9,351.2,501.5,351.2z M505.1,358.2
		c0-1.8-0.3-3.1-0.9-4.1c-0.6-0.9-1.5-1.4-2.6-1.4c-1.2,0-2,0.5-2.6,1.4s-0.9,2.3-0.9,4.1c0,1.8,0.3,3.1,0.9,4.1s1.5,1.4,2.6,1.4
		c1.2,0,2-0.5,2.6-1.4C504.8,361.4,505.1,360,505.1,358.2z"/>
	<path class="st1" d="M509,352.5c1-0.1,1.8-0.5,2.5-1.1h1.4V365h-1.7v-11.6c-0.7,0.5-1.5,0.7-2.2,0.8L509,352.5L509,352.5z"/>
	<path class="st1" d="M521.2,351.2c0.7,0,1.4,0.2,2.1,0.5c0.7,0.3,1.2,0.8,1.7,1.4c1,1.3,1.6,2.9,1.6,4.9c0,3.5-1,5.8-2.9,6.8
		c-0.7,0.3-1.4,0.5-2.2,0.5c-1.5,0-2.7-0.4-3.5-1.2c-0.9-0.8-1.3-1.8-1.3-3h1.8c0,0.8,0.3,1.5,0.8,2s1.1,0.7,1.9,0.7
		s1.4-0.1,1.8-0.4c1.3-0.8,2-2.7,2-5.5c0-0.6,0-1.1-0.1-1.6c-0.1,1.2-0.6,2-1.3,2.6c-0.7,0.6-1.6,0.9-2.7,0.9s-2.1-0.4-2.9-1.2
		c-0.8-0.8-1.2-1.8-1.2-3.1c0-1.3,0.4-2.3,1.3-3C519,351.8,519.7,351.2,521.2,351.2z M523.1,353.5c-0.5-0.5-1.2-0.7-2-0.7
		s-1.5,0.2-2,0.7s-0.8,1.1-0.8,2s0.3,1.5,0.8,2s1.2,0.7,2,0.7s1.5-0.3,2-0.8s0.8-1.2,0.8-2C523.9,354.6,523.7,354,523.1,353.5z"/>
</g>
<g>
	<path class="st2" d="M355.1,744.5l3.2,6.5h-0.4c-1-2.2-2.1-4.3-3.1-6.4c-0.5,0.1-1.1,0.1-1.7,0.1h-1.5c0,2.1,0,4.2,0,6.3h-0.4v-6.7
		c0.6,0,1.3,0,1.9,0c0.5,0,1.1,0,1.5-0.1c-1.3-2.7-2.6-5.4-3.9-8.1h2.8c3.3,0,5.3,1.7,5.3,4.2C358.7,742.5,357.5,744,355.1,744.5z
		 M355,744.1c2.2-0.5,3.3-1.8,3.3-3.8c0-2.3-1.9-3.8-4.9-3.8h-2.1L355,744.1z"/>
	<path class="st2" d="M365.1,736.5c0,2,0,4,0,6h2.8c1,0,2,0,3,0v0.4h-3c-0.9,0-1.8,0-2.8,0v0.5c0,2.4,0,4.8,0,7.2h6.7v0.4h-7.2
		c0-2.5,0-5.1,0-7.6V736c2.4,0,4.8,0,7.2,0v0.4L365.1,736.5L365.1,736.5z"/>
	<path class="st2" d="M376.3,743.4c0-4.3,3.1-7.6,7.2-7.6c1.5,0,3.1,0.5,4.4,1.2v0.4c-1.3-0.7-3-1.2-4.4-1.2c-3.8,0-6.8,3.1-6.8,7.2
		c0,4.1,3,7.5,6.8,7.5c1.4,0,3.1-0.5,4.4-1.2v0.5c-1.2,0.7-2.9,1.1-4.4,1.1C379.5,751.3,376.3,747.8,376.3,743.4z"/>
	<path class="st2" d="M392.2,743.4c0-4.4,3.1-7.7,7.4-7.7s7.4,3.3,7.4,7.7c0,4.3-3.4,8-7.4,8S392.2,747.8,392.2,743.4z M406.6,743.4
		c0-4.2-2.9-7.3-7-7.3s-7,3.1-7,7.3c0,4.1,3.2,7.5,7,7.5S406.6,747.5,406.6,743.4z"/>
	<path class="st2" d="M425.4,751l-1.5-2.1c-1.1,1.5-2.8,2.4-4.9,2.4c-3.7,0-6.8-3.4-6.8-8c0-4.4,3-7.6,7.3-7.6c1.9,0,3.8,0.7,5,1.7
		v0.5c-1.3-1-3.2-1.7-5-1.7c-4,0-6.9,3.1-6.9,7.2c0,4.3,3,7.5,6.4,7.5c2,0,3.6-0.9,4.6-2.4c-1.1-1.4-2.1-2.9-3.2-4.3h2.6
		c0.8,0,1.5,0,2.3,0c0,1.6-0.5,3.1-1.3,4.3l1.8,2.4L425.4,751L425.4,751z M423.9,748.3c0.7-1,1.1-2.3,1.1-3.6h-1.9
		c-0.6,0-1.3,0-1.9,0C422.1,745.9,423,747.1,423.9,748.3z"/>
	<path class="st2" d="M441.4,742.1c0,2.2,0,7.1,0,9.3l-9.7-14.3c0,2.7,0,5.3,0,8v6h-0.4v-6c0-3.1,0-6.2,0-9.3l9.7,14.3
		c0-2.7,0-5.3,0-8v-6h0.4V742.1z"/>
	<path class="st2" d="M448.2,743.6c0-2.5,0-5,0-7.5h0.4v7.5c0,2.5,0,5,0,7.5h-0.4V743.6z"/>
	<path class="st2" d="M463.3,736.5c-1.6,0-3.2,0-4.8,0h-4.8v-0.4h4.8c1.8,0,3.7,0,5.6,0l-9.2,14.5c1.4,0,2.8,0,4.1,0h4.1v0.4H459
		c-1.6,0-3.3,0-4.9,0L463.3,736.5z"/>
	<path class="st2" d="M469.4,736.5c0,2,0,4,0,6h2.8c1,0,2,0,3,0v0.4h-3c-0.9,0-1.8,0-2.8,0v0.5c0,2.4,0,4.8,0,7.2h6.7v0.4h-7.2
		c0-2.5,0-5.1,0-7.6V736c2.4,0,4.8,0,7.2,0v0.4L469.4,736.5L469.4,736.5z"/>
	<path class="st2" d="M481.6,736.1h2.7c5,0,8.1,2.8,8.1,7.3c0,4.4-3.5,7.7-8.3,7.7h-2.6v-15H481.6z M484.1,750.6
		c4.6,0,7.9-3.1,7.9-7.3s-3-6.8-7.7-6.8h-2.2v14.1H484.1z"/>
	<path class="st2" d="M515.9,736.5h-5c0,2.4,0,4.8,0,7.2v7.3h-0.4v-7.3c0-2.4,0-4.8,0-7.2h-5v-0.4h5.2c1.8,0,3.5,0,5.2,0
		L515.9,736.5L515.9,736.5z"/>
	<path class="st2" d="M530.6,736.1v7.5c0,2.5,0,5,0,7.5h-0.4v-7.5c0-0.2,0-0.4,0-0.6h-4.6c-1.5,0-3,0-4.6,0v0.6c0,2.5,0,5,0,7.5
		h-0.4v-7.5c0-2.5,0-5,0-7.5h0.4v6.4c1.5,0,3,0,4.6,0h4.6c0-2.2,0-4.3,0-6.4H530.6z"/>
	<path class="st2" d="M537.7,736.5c0,2,0,4,0,6h2.8c1,0,2,0,3,0v0.4h-3c-0.9,0-1.8,0-2.8,0v0.5c0,2.4,0,4.8,0,7.2h6.7v0.4h-7.2
		c0-2.5,0-5.1,0-7.6V736c2.4,0,4.8,0,7.2,0v0.4L537.7,736.5L537.7,736.5z"/>
	<path class="st2" d="M551.7,735.7l5,7.6c1.7-2.5,3.3-5,5-7.6c1,6.4,1.8,10.9,2.5,15.3h-0.4c-0.7-4.4-1.4-8.8-2.3-14.1l-4.5,6.8v3.6
		h-0.4v-3.6c-1.2-1.9-2.5-3.8-4.5-6.9c-0.8,5.2-1.6,9.7-2.3,14.1h-0.4C549.9,746.6,550.6,742.3,551.7,735.7z"/>
	<path class="st2" d="M570.6,736.5c0,2,0,4,0,6h2.8c1,0,2,0,3,0v0.4h-3c-0.9,0-1.8,0-2.8,0v0.5c0,2.4,0,4.8,0,7.2h6.7v0.4h-7.2
		c0-2.5,0-5.1,0-7.6V736c2.4,0,4.8,0,7.2,0v0.4L570.6,736.5L570.6,736.5z"/>
	<path class="st2" d="M586.9,744.5l3.2,6.5h-0.4c-1-2.2-2.1-4.3-3.1-6.4c-0.5,0.1-1.1,0.1-1.7,0.1h-1.5c0,2.1,0,4.2,0,6.3H583v-6.7
		c0.6,0,1.3,0,1.9,0c0.5,0,1.1,0,1.5-0.1c-1.3-2.7-2.6-5.4-3.9-8.1h2.8c3.3,0,5.3,1.7,5.3,4.2C590.4,742.5,589.2,744,586.9,744.5z
		 M586.7,744.1c2.2-0.5,3.3-1.8,3.3-3.8c0-2.3-1.9-3.8-4.9-3.8H583L586.7,744.1z"/>
</g>
<g>
	<path class="st1" d="M350.7,795.4c-0.7,0.6-1.5,1-2.6,1s-2.1-0.3-3.3-0.9v-1.8c1,0.7,2,1,2.8,1c0.9,0,1.5-0.2,1.8-0.6
		s0.5-1.1,0.5-1.9v-9.6h1.7v9.6C351.7,793.7,351.4,794.8,350.7,795.4z"/>
	<path class="st1" d="M362,789.4c0-0.9-0.2-1.6-0.6-2c-0.4-0.4-1-0.6-1.7-0.6s-1.3,0.1-1.8,0.4s-0.7,0.8-0.7,1.4h-1.9
		c0-1.6,0.8-2.6,2.5-2.9c0.5-0.1,1.1-0.2,1.7-0.2c1.3,0,2.3,0.3,3,1c0.7,0.6,1.1,1.6,1.1,3v6.6h-1.5l-0.2-1.7c-0.6,1.3-1.8,2-3.4,2
		c-1.1,0-2-0.3-2.7-0.9c-0.7-0.6-1-1.4-1-2.3c0-0.9,0.4-1.6,1.1-2.2c0.7-0.5,1.7-0.8,2.8-0.8s2.2,0.2,3.2,0.6v-1.4H362z M362,791.8
		c-1-0.3-1.9-0.4-2.7-0.4s-1.4,0.1-1.9,0.4c-0.5,0.3-0.7,0.7-0.7,1.3c0,1.3,0.7,1.9,2.2,1.9c0.8,0,1.5-0.3,2.1-0.9
		S362,792.8,362,791.8z"/>
	<path class="st1" d="M369.3,787.8c0.7-1.5,1.8-2.2,3.5-2.2c1.2,0,2.2,0.4,2.9,1.2s1,1.9,1,3.3v6.1H375v-6.1c0-1-0.2-1.7-0.7-2.2
		s-1.1-0.8-2-0.8s-1.6,0.4-2.1,1.1c-0.5,0.7-0.8,1.7-0.8,2.9v5.1h-1.7v-10.3h1.5L369.3,787.8z"/>
	<path class="st1" d="M386.7,794.6h7.9v1.6H385v-2c0-1.6,0.6-2.8,1.8-3.5c0.4-0.2,0.8-0.5,1.3-0.6l2.7-1.1c1.4-0.5,2.1-1.4,2.1-2.7
		c0-0.7-0.2-1.3-0.7-1.7s-1.1-0.7-2-0.7s-1.6,0.2-2.1,0.5c-0.5,0.4-0.9,0.9-0.9,1.6h-1.9c0.1-1.2,0.5-2.1,1.4-2.7
		c0.9-0.6,2-0.9,3.4-0.9s2.5,0.4,3.4,1.1c0.9,0.7,1.3,1.7,1.3,2.8s-0.3,2-0.9,2.6c-0.6,0.6-1.3,1.2-2.3,1.6l-2.7,1.1
		c-0.7,0.3-1.2,0.6-1.5,1s-0.5,0.8-0.5,1.4v0.6H386.7z"/>
	<path class="st1" d="M402.6,782.3c1.6,0,2.9,0.6,3.9,1.8c0.9,1.2,1.4,2.9,1.4,5.2s-0.5,4-1.4,5.2s-2.2,1.8-3.9,1.8
		s-2.9-0.6-3.9-1.8s-1.4-2.9-1.4-5.2s0.5-4,1.4-5.2C399.7,782.9,401,782.3,402.6,782.3z M406.1,789.4c0-1.8-0.3-3.1-0.9-4.1
		c-0.6-0.9-1.5-1.4-2.6-1.4c-1.2,0-2,0.5-2.6,1.4s-0.9,2.3-0.9,4.1s0.3,3.1,0.9,4.1c0.6,0.9,1.5,1.4,2.6,1.4c1.2,0,2-0.5,2.6-1.4
		C405.8,792.5,406.1,791.1,406.1,789.4z"/>
	<path class="st1" d="M410,783.6c1-0.1,1.8-0.5,2.5-1.1h1.4v13.6h-1.7v-11.5c-0.7,0.5-1.5,0.7-2.2,0.8V783.6z"/>
	<path class="st1" d="M425.4,782.4v9h2.4v1.5h-2.4v3.3h-1.7v-3.3h-7v-1.3l7.1-9.2H425.4z M418.7,791.5h5V785L418.7,791.5z"/>
	<path class="st1" d="M434.1,789.1h5.9v1.5h-5.9V789.1z"/>
	<path class="st1" d="M452,795.4c-0.7,0.6-1.5,1-2.6,1s-2.1-0.3-3.3-0.9v-1.8c1,0.7,2,1,2.8,1c0.9,0,1.5-0.2,1.8-0.6
		s0.5-1.1,0.5-1.9v-9.6h1.7v9.6C453,793.7,452.6,794.8,452,795.4z"/>
	<path class="st1" d="M463.9,794.1c-0.7,1.5-1.8,2.2-3.4,2.2c-1.2,0-2.1-0.3-2.8-1c-0.7-0.6-1.1-1.6-1.1-3v-6.6h1.7v6.4
		c0,1.7,0.8,2.6,2.4,2.6c0.9,0,1.7-0.4,2.3-1.1c0.6-0.7,0.9-1.6,0.9-2.8v-5.2h1.7v10.3h-1.7L463.9,794.1L463.9,794.1z"/>
	<path class="st1" d="M471.6,787.8c0.7-1.5,1.8-2.2,3.5-2.2c1.2,0,2.2,0.4,2.9,1.2s1,1.9,1,3.3v6.1h-1.7v-6.1c0-1-0.2-1.7-0.7-2.2
		s-1.1-0.8-2-0.8s-1.6,0.4-2.1,1.1c-0.5,0.7-0.8,1.7-0.8,2.9v5.1H470v-10.3h1.5L471.6,787.8z"/>
	<path class="st1" d="M489,794.6h7.9v1.6h-9.6v-2c0-1.6,0.6-2.8,1.8-3.5c0.4-0.2,0.8-0.5,1.3-0.6l2.7-1.1c1.4-0.5,2.1-1.4,2.1-2.7
		c0-0.7-0.2-1.3-0.7-1.7s-1.1-0.7-2-0.7s-1.6,0.2-2.1,0.5s-0.9,0.9-0.9,1.6h-1.9c0.1-1.2,0.5-2.1,1.4-2.7c0.9-0.6,2-0.9,3.4-0.9
		s2.5,0.4,3.4,1.1c0.9,0.7,1.3,1.7,1.3,2.8s-0.3,2-0.9,2.6s-1.3,1.2-2.3,1.6l-2.7,1.1c-0.7,0.3-1.2,0.6-1.5,1s-0.5,0.8-0.5,1.4v0.6
		H489z"/>
	<path class="st1" d="M504.8,782.3c1.6,0,2.9,0.6,3.9,1.8s1.4,2.9,1.4,5.2s-0.5,4-1.4,5.2s-2.2,1.8-3.9,1.8c-1.6,0-2.9-0.6-3.9-1.8
		s-1.4-2.9-1.4-5.2s0.5-4,1.4-5.2C501.9,782.9,503.2,782.3,504.8,782.3z M508.4,789.4c0-1.8-0.3-3.1-0.9-4.1
		c-0.6-0.9-1.5-1.4-2.6-1.4c-1.2,0-2,0.5-2.6,1.4s-0.9,2.3-0.9,4.1s0.3,3.1,0.9,4.1c0.6,0.9,1.5,1.4,2.6,1.4c1.2,0,2-0.5,2.6-1.4
		C508.1,792.5,508.4,791.1,508.4,789.4z"/>
	<path class="st1" d="M512.3,783.6c1-0.1,1.8-0.5,2.5-1.1h1.4v13.6h-1.7v-11.5c-0.7,0.5-1.5,0.7-2.2,0.8L512.3,783.6L512.3,783.6z"
		/>
	<path class="st1" d="M528.1,782.6v1.6l-6.2,12h-2.3l6.5-11.9h-7.2v-1.7H528.1z"/>
</g>
<g>
	<path class="st2" d="M112.5,113.8l-0.6-10h0.4l0.6,9.9c0.2,2.9,1.9,5,4.5,5s4.3-2,4.5-5l0.6-9.9h0.4l-0.6,10
		c-0.2,3.2-2.1,5.3-4.9,5.3S112.7,117,112.5,113.8z"/>
	<path class="st2" d="M136.9,118.7l-4.8-8c-1.8,3-3.3,5.5-4.8,8h-0.5c1.7-2.8,3.3-5.6,5-8.4c-1.1-1.9-2.4-4-3.9-6.5h4.1
		c1.4,0,2.8,0,4.1,0c-1.5,2.5-2.8,4.6-3.9,6.6l5,8.4L136.9,118.7L136.9,118.7z M132.1,109.9l3.4-5.7c-1.1,0-2.2,0-3.4,0
		c-1.1,0-2.3,0-3.4,0C129.9,106.1,131,108,132.1,109.9z"/>
	<path class="st2" d="M152.2,104.2c0,2,0,4,0,6h2.8c1,0,2,0,3,0v0.4h-3c-0.9,0-1.8,0-2.8,0v0.5c0,2.4,0,4.8,0,7.2h6.7v0.4h-7.2
		c0-2.5,0-5.1,0-7.6v-7.4c2.4,0,4.8,0,7.2,0v0.4L152.2,104.2L152.2,104.2z"/>
	<path class="st2" d="M174.5,109.8c0,2.2,0,7.1,0,9.3l-9.7-14.3c0,2.7,0,5.3,0,8v6h-0.4v-6c0-3.1,0-6.2,0-9.3l9.7,14.3
		c0-2.7,0-5.3,0-8v-6h0.4V109.8z"/>
	<path class="st2" d="M193.6,118.7l-1.5-2.1c-1.1,1.5-2.8,2.4-4.9,2.4c-3.7,0-6.8-3.4-6.8-8c0-4.4,3-7.6,7.3-7.6
		c1.9,0,3.8,0.7,5,1.7v0.5c-1.3-1-3.2-1.7-5-1.7c-4,0-6.9,3.1-6.9,7.2c0,4.3,3,7.5,6.4,7.5c2,0,3.6-0.9,4.6-2.4
		c-1.1-1.4-2.1-2.9-3.2-4.3h2.6c0.8,0,1.5,0,2.3,0c0,1.6-0.5,3.1-1.3,4.3l1.8,2.4h-0.4V118.7z M192,116c0.7-1,1.1-2.3,1.1-3.6h-1.9
		c-0.6,0-1.3,0-1.9,0C190.2,113.6,191.1,114.8,192,116z"/>
	<path class="st2" d="M199.4,111.3c0-2.5,0-5,0-7.5h0.4v7.5c0,2.5,0,5,0,7.5h-0.4V111.3z"/>
	<path class="st2" d="M216.8,109.8c0,2.2,0,7.1,0,9.3l-9.7-14.3c0,2.7,0,5.3,0,8v6h-0.4v-6c0-3.1,0-6.2,0-9.3l9.7,14.3
		c0-2.7,0-5.3,0-8v-6h0.4V109.8z"/>
	<path class="st2" d="M223.9,104.2c0,2,0,4,0,6h2.8c1,0,2,0,3,0v0.4h-3c-0.9,0-1.8,0-2.8,0v0.5c0,2.4,0,4.8,0,7.2h6.7v0.4h-7.2
		c0-2.5,0-5.1,0-7.6v-7.4c2.4,0,4.8,0,7.2,0v0.4L223.9,104.2L223.9,104.2z"/>
	<path class="st2" d="M236.6,104.2c0,2,0,4,0,6h2.8c1,0,2,0,3,0v0.4h-3c-0.9,0-1.8,0-2.8,0v0.5c0,2.4,0,4.8,0,7.2h6.7v0.4h-7.2
		c0-2.5,0-5.1,0-7.6v-7.4c2.4,0,4.8,0,7.2,0v0.4L236.6,104.2L236.6,104.2z"/>
	<path class="st2" d="M252.9,112.2l3.2,6.5h-0.4c-1-2.2-2.1-4.3-3.1-6.4c-0.5,0.1-1.1,0.1-1.7,0.1h-1.5c0,2.1,0,4.2,0,6.3H249V112
		c0.6,0,1.3,0,1.9,0c0.6,0,1.1,0,1.5-0.1c-1.3-2.7-2.6-5.4-3.9-8.1h2.8c3.3,0,5.3,1.7,5.3,4.2C256.4,110.2,255.2,111.7,252.9,112.2z
		 M252.7,111.8c2.2-0.5,3.3-1.8,3.3-3.8c0-2.3-1.9-3.8-4.9-3.8H249L252.7,111.8z"/>
</g>
<g>
	<path class="st1" d="M112.4,150.3c2,0,3.7,0.6,4.9,1.8c1.2,1.2,1.8,2.9,1.8,4.9c0,2.1-0.6,3.7-1.8,4.9c-1.2,1.2-2.9,1.8-4.9,1.8h-4
		v-13.6h4V150.3z M110.1,162.3h2.3c1.5,0,2.7-0.5,3.6-1.5s1.3-2.3,1.3-3.8s-0.4-2.8-1.3-3.8c-0.9-1-2.1-1.5-3.6-1.5h-2.3
		C110.1,151.7,110.1,162.3,110.1,162.3z"/>
	<path class="st1" d="M126.2,162.7c1.4,0,2.2-0.6,2.4-1.9h1.7c-0.2,1-0.6,1.8-1.4,2.4c-0.8,0.6-1.7,0.9-2.8,0.9
		c-1.4,0-2.5-0.5-3.4-1.5s-1.3-2.3-1.3-3.9c0-1.6,0.4-2.9,1.3-3.9c0.9-1,2-1.5,3.5-1.5s2.5,0.6,3.2,1.7c0.7,1.1,1,2.5,0.7,4.1H123
		c0,1.1,0.3,1.9,0.8,2.6C124.6,162.3,125.3,162.7,126.2,162.7z M127.5,154.9c-0.3-0.2-0.7-0.3-1.2-0.3c-0.9,0-1.6,0.3-2.1,0.9
		s-0.8,1.3-0.9,2.2h5.5C128.8,156.3,128.4,155.3,127.5,154.9z"/>
	<path class="st1" d="M137.2,153.3c1.2,0,2.2,0.3,2.9,0.9c0.7,0.6,1.2,1.4,1.4,2.3l-1.7,0.2c-0.2-0.6-0.5-1.1-0.9-1.4
		c-0.4-0.3-0.9-0.5-1.4-0.5c-0.9,0-1.7,0.3-2.2,1c-0.6,0.7-0.9,1.6-0.9,2.8s0.3,2.1,0.8,2.9c0.6,0.7,1.2,1.1,2.1,1.1
		c0.8,0,1.4-0.2,1.9-0.6c0.4-0.4,0.6-0.9,0.6-1.6h1.7c0,1.1-0.4,2-1.2,2.7c-0.8,0.7-1.8,1-3,1c-1.3,0-2.4-0.5-3.3-1.5
		c-0.9-1-1.4-2.3-1.4-4c0-1.6,0.5-3,1.4-3.9C135,153.7,136,153.3,137.2,153.3z"/>
	<path class="st1" d="M150.9,162.3h7.9v1.6h-9.6v-2c0-1.6,0.6-2.8,1.8-3.5c0.4-0.2,0.8-0.5,1.3-0.6l2.7-1.1c1.4-0.5,2.1-1.4,2.1-2.7
		c0-0.7-0.2-1.3-0.7-1.7s-1.1-0.7-2-0.7c-0.9,0-1.6,0.2-2.1,0.5c-0.5,0.4-0.9,0.9-0.9,1.6h-1.9c0.1-1.2,0.5-2.1,1.4-2.7
		c0.9-0.6,2-0.9,3.4-0.9c1.4,0,2.5,0.4,3.4,1.1c0.9,0.7,1.3,1.7,1.3,2.8s-0.3,2-0.9,2.6c-0.6,0.6-1.3,1.2-2.3,1.6l-2.7,1.1
		c-0.7,0.3-1.2,0.6-1.5,1s-0.5,0.8-0.5,1.4v0.6H150.9z"/>
	<path class="st1" d="M166.8,150c1.6,0,2.9,0.6,3.9,1.8c0.9,1.2,1.4,2.9,1.4,5.2s-0.5,4-1.4,5.2c-0.9,1.2-2.2,1.8-3.9,1.8
		c-1.6,0-2.9-0.6-3.9-1.8s-1.4-2.9-1.4-5.2s0.5-4,1.4-5.2C163.9,150.6,165.2,150,166.8,150z M170.3,157c0-1.8-0.3-3.1-0.9-4.1
		c-0.6-1-1.5-1.4-2.6-1.4c-1.2,0-2,0.5-2.6,1.4c-0.6,0.9-0.9,2.3-0.9,4.1s0.3,3.1,0.9,4.1c0.6,1,1.5,1.4,2.6,1.4
		c1.2,0,2-0.5,2.6-1.4C170,160.2,170.3,158.8,170.3,157z"/>
	<path class="st1" d="M174.2,151.3c1-0.1,1.8-0.5,2.5-1.1h1.4v13.6h-1.7v-11.6c-0.7,0.5-1.5,0.7-2.2,0.8
		C174.2,153,174.2,151.3,174.2,151.3z"/>
	<path class="st1" d="M186.4,150c0.7,0,1.4,0.2,2.1,0.5s1.2,0.8,1.7,1.4c1,1.3,1.6,2.9,1.6,4.9c0,3.5-1,5.8-2.9,6.8
		c-0.7,0.3-1.4,0.5-2.2,0.5c-1.5,0-2.7-0.4-3.5-1.2c-0.9-0.8-1.3-1.8-1.3-3h1.8c0,0.8,0.3,1.5,0.8,2s1.1,0.7,1.9,0.7
		c0.7,0,1.4-0.1,1.8-0.4c1.3-0.8,2-2.7,2-5.5c0-0.6,0-1.1-0.1-1.6c-0.1,1.2-0.6,2-1.3,2.6s-1.6,0.9-2.7,0.9c-1.1,0-2.1-0.4-2.9-1.2
		s-1.2-1.8-1.2-3.1s0.4-2.3,1.3-3C184.2,150.6,185,150,186.4,150z M188.4,152.3c-0.5-0.5-1.2-0.7-2-0.7s-1.5,0.2-2,0.7
		s-0.8,1.1-0.8,2s0.3,1.5,0.8,2s1.2,0.7,2,0.7s1.5-0.3,2-0.8s0.8-1.2,0.8-2S188.9,152.8,188.4,152.3z"/>
	<path class="st1" d="M198.8,156.8h5.9v1.5h-5.9V156.8z"/>
	<path class="st1" d="M214.4,155.1c0.7-1.2,1.7-1.8,3-1.8s2.5,0.5,3.4,1.5s1.3,2.3,1.3,3.9s-0.5,2.9-1.4,3.9s-2,1.5-3.3,1.5
		s-2.3-0.5-2.9-1.5v6.3h-1.7v-15.4h1.4L214.4,155.1z M217.4,162.6c0.8,0,1.5-0.3,2.1-1s0.9-1.6,0.9-2.8s-0.3-2.2-0.9-2.9
		c-0.6-0.7-1.3-1.1-2.1-1.1s-1.5,0.3-2,0.8s-0.8,1.2-0.8,2.1v2c0,0.9,0.3,1.6,0.8,2.1S216.6,162.6,217.4,162.6z"/>
	<path class="st1" d="M229.8,155c-1.6,0-2.5,1.3-2.5,3.8v5h-1.7v-10.3h1.7v2c0.5-1.4,1.4-2.2,2.7-2.2c0.4,0,0.8,0.1,1.2,0.2
		l-0.1,1.7C230.7,155,230.3,155,229.8,155z"/>
	<path class="st1" d="M237.4,162.7c1.4,0,2.2-0.6,2.4-1.9h1.7c-0.2,1-0.6,1.8-1.4,2.4c-0.8,0.6-1.7,0.9-2.8,0.9
		c-1.4,0-2.5-0.5-3.4-1.5s-1.3-2.3-1.3-3.9c0-1.6,0.4-2.9,1.3-3.9c0.9-1,2-1.5,3.5-1.5s2.5,0.6,3.2,1.7c0.7,1.1,1,2.5,0.7,4.1h-7.1
		c0,1.1,0.3,1.9,0.8,2.6C235.8,162.3,236.5,162.7,237.4,162.7z M238.7,154.9c-0.3-0.2-0.7-0.3-1.2-0.3c-0.9,0-1.6,0.3-2.1,0.9
		s-0.8,1.3-0.9,2.2h5.5C240,156.3,239.5,155.3,238.7,154.9z"/>
	<path class="st1" d="M245.5,154c0.7-0.5,1.7-0.8,2.9-0.8s2.2,0.3,2.9,0.8s1.1,1.2,1.1,2h-1.7c-0.1-0.9-0.9-1.4-2.4-1.4
		c-0.7,0-1.2,0.2-1.6,0.5c-0.4,0.3-0.6,0.7-0.6,1c0,0.4,0.1,0.7,0.4,0.9c0.3,0.3,0.7,0.5,1.4,0.7l2.1,0.7c0.9,0.3,1.5,0.6,2,1
		s0.7,1,0.7,1.7s-0.4,1.4-1.1,2s-1.8,0.9-3.2,0.9s-2.4-0.3-3.2-0.9c-0.8-0.6-1.2-1.4-1.2-2.4h1.6c0,0.6,0.3,1.1,0.8,1.5
		c0.5,0.3,1.1,0.5,1.9,0.5c0.7,0,1.4-0.2,1.9-0.5s0.7-0.7,0.7-1.1s-0.1-0.8-0.4-1c-0.3-0.2-0.8-0.4-1.4-0.6l-2-0.7
		c-1.8-0.5-2.7-1.5-2.7-2.8C244.4,155.2,244.8,154.5,245.5,154z"/>
	<path class="st1" d="M259.9,162.7c1.4,0,2.2-0.6,2.4-1.9h1.7c-0.2,1-0.6,1.8-1.4,2.4c-0.8,0.6-1.7,0.9-2.8,0.9
		c-1.4,0-2.5-0.5-3.4-1.5c-0.9-1-1.3-2.3-1.3-3.9c0-1.6,0.4-2.9,1.3-3.9c0.9-1,2-1.5,3.5-1.5s2.5,0.6,3.2,1.7c0.7,1.1,1,2.5,0.7,4.1
		h-7.1c0,1.1,0.3,1.9,0.8,2.6C258.2,162.3,258.9,162.7,259.9,162.7z M261.1,154.9c-0.3-0.2-0.7-0.3-1.2-0.3c-0.9,0-1.6,0.3-2.1,0.9
		s-0.8,1.3-0.9,2.2h5.5C262.4,156.3,262,155.3,261.1,154.9z"/>
	<path class="st1" d="M269.1,155.5c0.7-1.5,1.8-2.2,3.5-2.2c1.2,0,2.2,0.4,2.9,1.2c0.7,0.8,1,1.9,1,3.3v6.1h-1.8v-6.1
		c0-1-0.2-1.7-0.7-2.2s-1.1-0.8-2-0.8s-1.6,0.4-2.1,1.1c-0.5,0.7-0.8,1.7-0.8,2.9v5.1h-1.7v-10.3h1.5L269.1,155.5z"/>
	<path class="st1" d="M285.8,163.5c-1.2,0.6-2.4,0.7-3.4,0.4c-0.7-0.2-1.3-0.7-1.6-1.4c-0.2-0.4-0.2-0.8-0.2-1.3v-6.3h-1.7v-1.3h1.7
		v-2.9h1.7v2.9h3.2v1.3h-3.2v6.3c0,1,0.5,1.6,1.5,1.6c0.5,0,1.1-0.1,1.8-0.4L285.8,163.5z"/>
</g>
<g>
	<path class="st1" d="M116.5,935.2h2.1l4.6,13.6h-1.8l-1.2-3.5h-5.4l-1.2,3.5h-1.8L116.5,935.2z M115.2,943.9h4.5l-2.2-6.7
		L115.2,943.9z"/>
	<path class="st1" d="M132.9,946.7c-0.7,1.5-1.8,2.2-3.4,2.2c-1.2,0-2.1-0.3-2.8-1c-0.7-0.6-1.1-1.6-1.1-3v-6.6h1.7v6.4
		c0,1.7,0.8,2.6,2.4,2.6c0.9,0,1.7-0.4,2.3-1.1c0.6-0.7,0.9-1.6,0.9-2.8v-5.2h1.7v10.3h-1.7C132.9,948.5,132.9,946.7,132.9,946.7z"
		/>
	<path class="st1" d="M139.3,948.4c-0.9-0.4-1.3-1.1-1.3-1.9c0-0.4,0.2-0.8,0.5-1.2c0.3-0.4,0.8-0.6,1.3-0.7
		c-0.8-0.7-1.2-1.6-1.2-2.7c0-1.1,0.4-2,1.2-2.7s1.7-1,2.8-1c1.1,0,2,0.3,2.8,0.8c0.1-0.8,0.4-1.4,0.9-1.8s1.2-0.7,2-0.7l-0.2,1.7
		c-1.3,0-1.9,0.5-2,1.6c0.5,0.6,0.8,1.4,0.8,2.2c0,1.1-0.4,2-1.2,2.7c-0.8,0.7-1.8,1.1-3,1.1c-0.8,0-1.5-0.2-2.2-0.5
		c-0.3,0.1-0.5,0.2-0.8,0.4c-0.2,0.2-0.3,0.5-0.3,0.9c0,0.8,0.6,1.1,1.9,1.1h4c1,0,1.7,0.2,2.3,0.6c0.6,0.4,0.8,1,0.8,1.7
		c0,1.1-0.5,2-1.6,2.9c-1.1,0.9-2.5,1.2-4.2,1.2s-3-0.3-4-0.9c-1-0.6-1.4-1.4-1.4-2.4c0-0.6,0.2-1.1,0.5-1.5
		C138.3,948.8,138.7,948.6,139.3,948.4z M139,950.7c0,0.5,0.3,1,0.9,1.4c0.6,0.4,1.5,0.6,2.7,0.6s2.2-0.3,3-0.8s1.2-1.1,1.2-1.8
		c0-0.3-0.1-0.6-0.4-0.9c-0.2-0.2-0.6-0.4-1.1-0.4h-4.2c-0.7,0-1.3,0.2-1.7,0.5C139.2,949.7,139,950.1,139,950.7z M145.4,941.9
		c0-0.7-0.2-1.3-0.7-1.8s-1.1-0.7-1.8-0.7c-0.7,0-1.4,0.2-1.8,0.7s-0.7,1.1-0.7,1.8s0.2,1.4,0.7,1.8s1.1,0.7,1.8,0.7
		c0.8,0,1.4-0.2,1.8-0.7C145.1,943.3,145.4,942.6,145.4,941.9z"/>
	<path class="st1" d="M157.1,947.2h7.9v1.6h-9.6v-2c0-1.6,0.6-2.8,1.8-3.5c0.4-0.2,0.8-0.5,1.3-0.6l2.7-1.1c1.4-0.5,2.1-1.4,2.1-2.7
		c0-0.7-0.2-1.3-0.7-1.7s-1.1-0.7-2-0.7c-0.9,0-1.6,0.2-2.1,0.5c-0.5,0.4-0.9,0.9-0.9,1.6h-1.9c0.1-1.2,0.5-2.1,1.4-2.7
		c0.9-0.6,2-0.9,3.4-0.9c1.4,0,2.5,0.4,3.4,1.1c0.9,0.7,1.3,1.7,1.3,2.8s-0.3,2-0.9,2.6c-0.6,0.6-1.3,1.2-2.3,1.6l-2.7,1.1
		c-0.7,0.3-1.2,0.6-1.5,1s-0.5,0.8-0.5,1.4v0.6H157.1z"/>
	<path class="st1" d="M173,934.9c1.6,0,2.9,0.6,3.9,1.8c0.9,1.2,1.4,2.9,1.4,5.2s-0.5,4-1.4,5.2c-0.9,1.2-2.2,1.8-3.9,1.8
		c-1.6,0-2.9-0.6-3.9-1.8s-1.4-2.9-1.4-5.2s0.5-4,1.4-5.2C170.1,935.5,171.4,934.9,173,934.9z M176.5,941.9c0-1.8-0.3-3.1-0.9-4.1
		c-0.6-1-1.5-1.4-2.6-1.4c-1.2,0-2,0.5-2.6,1.4c-0.6,0.9-0.9,2.3-0.9,4.1s0.3,3.1,0.9,4.1c0.6,0.9,1.5,1.4,2.6,1.4
		c1.2,0,2-0.5,2.6-1.4C176.2,945.1,176.5,943.7,176.5,941.9z"/>
	<path class="st1" d="M180.4,936.2c1-0.1,1.8-0.5,2.5-1.1h1.4v13.6h-1.7v-11.6c-0.7,0.5-1.5,0.7-2.2,0.8
		C180.4,937.9,180.4,936.2,180.4,936.2z"/>
	<path class="st1" d="M197.4,938.6c0,1.4-0.8,2.4-2.4,3c0.9,0.2,1.6,0.6,2.1,1.2c0.5,0.6,0.8,1.3,0.8,2.2c0,1.2-0.5,2.2-1.4,2.9
		c-0.9,0.7-2.1,1.1-3.6,1.1s-2.7-0.4-3.8-1.2c-1-0.8-1.6-1.9-1.6-3.2h1.8c0,0.9,0.4,1.6,1,2.1c0.7,0.5,1.5,0.7,2.5,0.7
		s1.8-0.2,2.3-0.7c0.6-0.5,0.8-1.1,0.8-1.8s-0.3-1.3-0.8-1.7c-0.5-0.5-1.4-0.7-2.6-0.7h-1.6v-1.4h1.1c1,0,1.9-0.2,2.5-0.6
		c0.6-0.4,0.9-1,0.9-1.7s-0.2-1.3-0.7-1.7s-1.1-0.7-1.9-0.7s-1.5,0.1-2,0.4c-0.5,0.3-0.9,0.8-1.1,1.6h-1.8c0.2-1.2,0.7-2.1,1.5-2.7
		c0.8-0.6,1.9-0.9,3.2-0.9c1.3,0,2.4,0.3,3.3,1C197,936.7,197.4,937.6,197.4,938.6z"/>
</g>
<g>
	<path class="st1" d="M174.7,472.1c-0.3,0.5-0.8,1-1.5,1.3c-0.6,0.3-1.4,0.5-2.3,0.5c-1.4,0-2.5-0.3-3.4-1c-0.9-0.7-1.4-1.6-1.5-2.8
		h3.2c0,0.5,0.2,0.8,0.5,1.1c0.3,0.3,0.6,0.4,1.1,0.4c0.4,0,0.7-0.1,0.9-0.3c0.2-0.2,0.3-0.5,0.3-0.8s-0.1-0.6-0.3-0.8
		c-0.2-0.2-0.5-0.4-0.8-0.5s-0.7-0.3-1.3-0.5c-0.8-0.3-1.4-0.5-1.9-0.8s-0.9-0.6-1.3-1.1c-0.4-0.5-0.5-1.1-0.5-1.9
		c0-0.7,0.2-1.4,0.6-1.9c0.4-0.5,0.9-0.9,1.5-1.2c0.7-0.3,1.4-0.4,2.3-0.4c1.4,0,2.5,0.3,3.3,1s1.3,1.5,1.4,2.7h-3.2
		c-0.1-0.4-0.2-0.7-0.4-1c-0.2-0.3-0.6-0.4-1-0.4c-0.3,0-0.6,0.1-0.8,0.3c-0.2,0.2-0.3,0.5-0.3,0.8s0.1,0.5,0.3,0.7s0.4,0.4,0.7,0.5
		c0.3,0.1,0.7,0.3,1.3,0.5c0.8,0.3,1.4,0.5,1.9,0.8s0.9,0.6,1.3,1.1c0.4,0.5,0.5,1.2,0.5,2C175.2,470.9,175,471.5,174.7,472.1z"/>
	<path class="st1" d="M185.9,462c0.9,0.5,1.7,1.3,2.2,2.2s0.8,2,0.8,3.3c0,1.2-0.3,2.3-0.8,3.3s-1.3,1.7-2.2,2.3
		c-0.9,0.5-2,0.8-3.1,0.8c-1.1,0-2.2-0.3-3.1-0.8c-0.9-0.5-1.7-1.3-2.2-2.3s-0.8-2.1-0.8-3.3c0-1.2,0.3-2.3,0.8-3.3s1.3-1.7,2.2-2.2
		c0.9-0.5,2-0.8,3.1-0.8C183.9,461.2,184.9,461.5,185.9,462z M180.4,465c-0.6,0.6-0.9,1.5-0.9,2.6s0.3,1.9,0.9,2.6
		c0.6,0.6,1.4,1,2.3,1c1,0,1.7-0.3,2.3-1c0.6-0.6,0.9-1.5,0.9-2.6s-0.3-1.9-0.9-2.6c-0.6-0.6-1.4-1-2.3-1
		C181.7,464,181,464.3,180.4,465z"/>
	<path class="st1" d="M198.7,461.4v2.4h-5.1v2.7h3.9v2.3h-3.9v5h-3v-12.3h8.1V461.4z"/>
	<path class="st1" d="M209,461.4v2.4h-3.3v10h-3v-10h-3.3v-2.4H209z"/>
	<path class="st1" d="M227.1,461.4l-2.9,12.3h-3.7l-2-8.2l-2,8.2h-3.7l-2.9-12.3h3.2l1.6,8.9l2.2-8.9h3.3l2.2,8.9l1.6-8.9H227.1z"/>
	<path class="st1" d="M236.3,471.5h-4.6l-0.8,2.2h-3.1l4.5-12.2h3.4l4.5,12.2H237L236.3,471.5z M235.5,469.2l-1.5-4.5l-1.6,4.5
		H235.5z"/>
	<path class="st1" d="M247.7,473.7L245,469h-0.7v4.7h-3v-12.3h5.1c1,0,1.8,0.2,2.5,0.5s1.2,0.8,1.5,1.4s0.5,1.3,0.5,2
		c0,0.9-0.2,1.7-0.7,2.3c-0.5,0.6-1.2,1.1-2.2,1.3l2.9,4.8L247.7,473.7L247.7,473.7z M244.3,467.1h1.8c0.6,0,1-0.1,1.3-0.4
		s0.4-0.6,0.4-1.2c0-0.5-0.1-0.9-0.4-1.2c-0.3-0.3-0.7-0.4-1.3-0.4h-1.8V467.1z"/>
	<path class="st1" d="M255.4,463.8v2.6h4.2v2.2h-4.2v2.7h4.7v2.4h-7.7v-12.3h7.7v2.4L255.4,463.8L255.4,463.8z"/>
	<path class="st1" d="M169.3,482.3v12.3h-3v-12.3H169.3z"/>
	<path class="st1" d="M182.3,494.7h-3l-5-7.6v7.6h-3v-12.3h3l5,7.6v-7.6h3V494.7z"/>
	<path class="st1" d="M193.9,483.5c1,0.8,1.7,1.9,2,3.3h-3.2c-0.2-0.6-0.6-1-1.1-1.3s-1.1-0.5-1.7-0.5c-0.9,0-1.6,0.3-2.1,1
		c-0.5,0.6-0.8,1.5-0.8,2.6s0.3,1.9,0.8,2.6c0.5,0.6,1.2,1,2.1,1c0.7,0,1.2-0.2,1.7-0.5s0.8-0.8,1.1-1.3h3.2c-0.3,1.4-1,2.5-2,3.3
		s-2.3,1.2-3.9,1.2c-1.2,0-2.2-0.3-3.2-0.8c-0.9-0.5-1.6-1.3-2.1-2.2s-0.7-2-0.7-3.3s0.2-2.3,0.7-3.3s1.2-1.7,2.1-2.2
		c0.9-0.5,2-0.8,3.2-0.8C191.6,482.2,192.9,482.6,193.9,483.5z"/>
	<path class="st1" d="M200.5,482.3v7.1c0,0.8,0.2,1.4,0.5,1.9c0.4,0.4,0.9,0.6,1.6,0.6s1.2-0.2,1.6-0.6c0.4-0.4,0.5-1.1,0.5-1.9
		v-7.1h3v7.1c0,1.2-0.2,2.1-0.7,2.9s-1.1,1.4-1.9,1.8s-1.7,0.6-2.7,0.6s-1.9-0.2-2.6-0.6s-1.3-1-1.8-1.8c-0.4-0.8-0.6-1.8-0.6-2.9
		v-7.1H200.5z"/>
	<path class="st1" d="M218.9,489.4c0.4,0.5,0.7,1.2,0.7,1.9c0,1.1-0.4,1.9-1.1,2.5c-0.7,0.6-1.7,0.9-3,0.9h-5.7v-12.3h5.6
		c1.3,0,2.2,0.3,2.9,0.8s1,1.3,1,2.3c0,0.7-0.2,1.4-0.6,1.9c-0.4,0.5-0.9,0.8-1.6,1C217.9,488.5,218.5,488.9,218.9,489.4z
		 M212.7,487.4h2c1,0,1.6-0.4,1.6-1.3s-0.5-1.3-1.6-1.3h-1.9v2.6H212.7z M216.5,490.9c0-0.4-0.1-0.8-0.4-1c-0.3-0.2-0.7-0.4-1.2-0.4
		h-2.1v2.8h2.1C216,492.2,216.5,491.8,216.5,490.9z"/>
	<path class="st1" d="M228.8,492.4h-4.6l-0.8,2.2h-3.2l4.5-12.2h3.4l4.5,12.2h-3.2L228.8,492.4z M228,490.2l-1.5-4.5l-1.6,4.5H228z"
		/>
	<path class="st1" d="M242.7,482.3v2.4h-3.3v10h-3v-10h-3.3v-2.4H242.7z"/>
	<path class="st1" d="M253,483c0.9,0.5,1.7,1.3,2.2,2.2s0.8,2,0.8,3.3c0,1.2-0.3,2.3-0.8,3.3s-1.3,1.7-2.2,2.3
		c-0.9,0.5-2,0.8-3.1,0.8s-2.2-0.3-3.1-0.8c-0.9-0.5-1.7-1.3-2.2-2.3s-0.8-2.1-0.8-3.3c0-1.2,0.3-2.3,0.8-3.3s1.3-1.7,2.2-2.2
		s2-0.8,3.1-0.8S252.1,482.4,253,483z M247.5,485.9c-0.6,0.6-0.9,1.5-0.9,2.6s0.3,1.9,0.9,2.6c0.6,0.6,1.4,1,2.3,1
		c1,0,1.7-0.3,2.3-1c0.6-0.6,0.9-1.5,0.9-2.6s-0.3-1.9-0.9-2.6c-0.6-0.6-1.4-1-2.3-1S248.1,485.2,247.5,485.9z"/>
	<path class="st1" d="M264.1,494.7l-2.7-4.7h-0.7v4.7h-3v-12.3h5.1c1,0,1.8,0.2,2.5,0.5c0.7,0.3,1.2,0.8,1.5,1.4
		c0.3,0.6,0.5,1.3,0.5,2c0,0.9-0.2,1.7-0.7,2.3c-0.5,0.6-1.2,1.1-2.2,1.3l2.9,4.8L264.1,494.7L264.1,494.7z M260.7,488h1.8
		c0.6,0,1-0.1,1.3-0.4c0.3-0.3,0.4-0.6,0.4-1.2c0-0.5-0.1-0.9-0.4-1.2c-0.3-0.3-0.7-0.4-1.3-0.4h-1.8V488z"/>
</g>
<g>
	<g>
		<defs>
			<rect id="SVGID_1_" x="110.8" y="872.1" width="42" height="47"/>
		</defs>
		<clipPath id="SVGID_2_">
			<use xlink:href="#SVGID_1_"  style="overflow:visible;"/>
		</clipPath>
		<g class="st3">
			<path class="st4" d="M136.1,913h-8.7c-0.9,0-1.6-0.7-1.6-1.6c0-0.9,0.7-1.6,1.6-1.6h8.7c0.9,0,1.6,0.7,1.6,1.6
				C137.7,912.3,136.9,913,136.1,913z M127.4,910.6c-0.5,0-0.9,0.4-0.9,0.8c0,0.5,0.4,0.8,0.9,0.8h8.7c0.5,0,0.9-0.4,0.9-0.8
				c0-0.5-0.4-0.8-0.9-0.8H127.4z"/>
			<path class="st4" d="M131.7,919.1c-1.2,0-2.2-0.8-2.5-1.9c-1.6-0.2-2.7-1.5-2.7-3.1v-0.4h10.6v0.4c0,1.6-1.2,2.9-2.7,3.1
				C134,918.3,132.9,919.1,131.7,919.1z M127.2,914.4c0.2,1.1,1.1,2,2.3,2.1h0.3v0.3c0.1,0.9,0.9,1.6,1.9,1.6s1.7-0.7,1.9-1.6v-0.3
				h0.3c1.2-0.1,2.1-0.9,2.3-2.1H127.2L127.2,914.4z"/>
			<path class="st4" d="M137.4,909.2h-11.5v-4.1c-1.1-1.8-2.4-3.7-3.7-5.4c-1.7-2.1-2.6-4.7-2.6-7.3c0-6.6,5.4-11.9,12.1-11.9
				c6.7,0,12.1,5.3,12.1,11.9c0,2.7-0.9,5.2-2.6,7.3c-1.2,1.5-2.6,3.5-3.8,5.5V909.2L137.4,909.2z M126.7,908.5h10.1V905l0.1-0.1
				c1.2-2,2.7-4.1,3.9-5.6c1.6-2,2.4-4.4,2.4-6.9c0-6.2-5.1-11.2-11.4-11.2c-6.3,0-11.4,5-11.4,11.2c0,2.5,0.8,4.9,2.4,6.9
				c1.4,1.7,2.7,3.6,3.8,5.5l0.1,0.1V908.5L126.7,908.5z"/>
			<path class="st4" d="M127.8,896.1l-0.8,0.2l2.8,12.3l0.8-0.2L127.8,896.1z"/>
			<path class="st4" d="M135.6,896.1l-2.8,12.6l0.7,0.1l2.8-12.6L135.6,896.1z"/>
			<path class="st4" d="M133.8,916.5h-4.1v0.7h4.1V916.5z"/>
			<path class="st5" d="M131.1,900.5l-0.7-2.7l-2,1.3l-0.3-0.4l2.6-1.7l0.5,1.9l1.3-3.2l1.1,3.1l1.9-0.9l0.2,0.5l-2.5,1.1l-0.8-2.3
				L131.1,900.5z"/>
			<path class="st6" d="M132.2,878c-0.2,0-0.3-0.1-0.3-0.3v-5.3c0-0.2,0.1-0.3,0.3-0.3c0.2,0,0.3,0.1,0.3,0.3v5.3
				C132.5,877.9,132.3,878,132.2,878z"/>
			<path class="st6" d="M140.4,880c-0.1,0-0.1,0-0.2,0c-0.1-0.1-0.2-0.3-0.1-0.4l2.8-4.5c0.1-0.1,0.3-0.2,0.4-0.1
				c0.1,0.1,0.2,0.3,0.1,0.4l-2.8,4.5C140.6,879.9,140.5,880,140.4,880z"/>
			<path class="st6" d="M145.5,886.4c-0.1,0-0.2-0.1-0.3-0.2c-0.1-0.2,0-0.3,0.1-0.4l4.8-2.5c0.2-0.1,0.3,0,0.4,0.1
				c0.1,0.2,0,0.3-0.1,0.4l-4.8,2.5C145.7,886.3,145.6,886.4,145.5,886.4z"/>
			<path class="st6" d="M152.5,893.9L152.5,893.9l-5.4-0.3c-0.2,0-0.3-0.2-0.3-0.3c0-0.2,0.2-0.3,0.3-0.3l5.4,0.3
				c0.2,0,0.3,0.2,0.3,0.3C152.8,893.8,152.6,893.9,152.5,893.9z"/>
			<path class="st6" d="M149,904.6c-0.1,0-0.1,0-0.2-0.1l-4.4-3c-0.1-0.1-0.2-0.3-0.1-0.4c0.1-0.1,0.3-0.2,0.4-0.1l4.4,3
				c0.1,0.1,0.2,0.3,0.1,0.4C149.2,904.5,149.2,904.6,149,904.6z"/>
			<path class="st6" d="M123.1,880c-0.1,0-0.2-0.1-0.3-0.1l-2.8-4.5c-0.1-0.1,0-0.3,0.1-0.4c0.1-0.1,0.3,0,0.4,0.1l2.8,4.5
				C123.4,879.7,123.3,879.9,123.1,880C123.3,880,123.2,880,123.1,880z"/>
			<path class="st6" d="M118,886.4c-0.1,0-0.1,0-0.1,0l-4.8-2.5c-0.2-0.1-0.2-0.3-0.1-0.4c0.1-0.2,0.3-0.2,0.4-0.1l4.8,2.5
				c0.2,0.1,0.2,0.3,0.1,0.4C118.2,886.3,118.1,886.4,118,886.4z"/>
			<path class="st6" d="M111.1,893.9c-0.2,0-0.3-0.1-0.3-0.3s0.1-0.3,0.3-0.3l5.4-0.3c0.2,0,0.3,0.1,0.3,0.3s-0.1,0.3-0.3,0.3
				L111.1,893.9L111.1,893.9z"/>
			<path class="st6" d="M114.5,904.6c-0.1,0-0.2,0-0.3-0.1s-0.1-0.3,0.1-0.4l4.4-3c0.1-0.1,0.3-0.1,0.4,0.1c0.1,0.1,0.1,0.3-0.1,0.4
				L114.5,904.6C114.6,904.5,114.6,904.6,114.5,904.6z"/>
		</g>
	</g>
</g>
<path class="st1" d="M130.6,36.8c3,0,5.8,0.4,8.5,1.3c2.6,0.9,4.9,2.2,6.8,3.9c1.9,1.8,3.4,3.9,4.5,6.6c1.1,2.6,1.6,5.7,1.6,9.3
	c0,3.1-0.4,6-1.3,8.6c-0.9,2.6-2.2,4.9-4,6.8s-4,3.4-6.7,4.5c-2.6,1.1-5.8,1.6-9.4,1.6h-20.3V36.8H130.6z M129.8,71.5
	c1.5,0,2.9-0.2,4.4-0.7c1.4-0.4,2.6-1.2,3.8-2.2c1.1-1,2-2.3,2.6-4c0.7-1.6,1-3.6,1-6c0-2.1-0.2-4.1-0.7-5.8
	c-0.5-1.7-1.2-3.2-2.3-4.4c-0.9-1.2-2.3-2.2-4.1-2.8c-1.7-0.7-3.9-1-6.4-1h-7.4v26.9H129.8L129.8,71.5z"/>
<path class="st1" d="M162.2,36.8v34.8h23v7.9h-33.4V36.8H162.2z"/>
<path class="st7" d="M209.3,36.8h9.6v7.9h-9.6"/>
<path class="st1" d="M203.1,36.8h-4.4h-29.2v7.9h18.6v34.8h10.4V44.6h0.1h4.4h4.9v-7.9L203.1,36.8L203.1,36.8z"/>
<path class="st1" d="M202.1,65.4v12.5h7.7V79h-9V65.4H202.1z"/>
<path class="st1" d="M215.7,65.4l5.4,13.7h-1.4l-1.7-4.2h-6.2l-1.6,4.2h-1.4l5.5-13.7H215.7z M217.6,73.7l-2.6-7l-2.7,7H217.6z"/>
<path class="st1" d="M227.4,65.4c0.6,0,1.1,0,1.6,0.2c0.5,0.1,1,0.3,1.4,0.5c0.4,0.3,0.7,0.6,1,1c0.3,0.5,0.4,1,0.4,1.6
	c0,0.4,0,0.7-0.2,1c-0.1,0.3-0.3,0.6-0.5,0.9s-0.5,0.5-0.8,0.7s-0.6,0.3-1,0.4l0,0c0.9,0.1,1.6,0.5,2.1,1.1s0.8,1.3,0.8,2.3
	c0,0.2,0,0.5,0,0.8s-0.1,0.5-0.2,0.8c-0.1,0.3-0.3,0.6-0.5,0.8c-0.2,0.3-0.5,0.5-0.9,0.8c-0.4,0.2-0.8,0.4-1.3,0.5s-1.2,0.2-1.9,0.2
	h-5.8V65.4H227.4z M227.4,71.4c0.5,0,1,0,1.3-0.2c0.4-0.1,0.7-0.3,1-0.5s0.5-0.5,0.6-0.8s0.2-0.6,0.2-0.9c0-1.7-1-2.6-3.1-2.6h-4.5
	v4.9L227.4,71.4L227.4,71.4z M227.4,78c0.5,0,0.9,0,1.4-0.1c0.4-0.1,0.8-0.3,1.1-0.5s0.6-0.5,0.8-0.9s0.3-0.8,0.3-1.4
	c0-0.9-0.3-1.6-0.9-2c-0.6-0.4-1.5-0.7-2.7-0.7h-4.5v5.5L227.4,78L227.4,78z"/>
<path class="st1" d="M234.5,76.3c0.2,0.5,0.5,0.8,1,1.1c0.4,0.3,0.9,0.5,1.4,0.6s1.1,0.2,1.8,0.2c0.4,0,0.8,0,1.2-0.2
	c0.4-0.1,0.8-0.3,1.2-0.5s0.7-0.5,0.9-0.9c0.3-0.3,0.4-0.8,0.4-1.3c0-0.4-0.1-0.7-0.3-1s-0.4-0.5-0.7-0.7s-0.6-0.3-0.9-0.5
	c-0.3-0.1-0.7-0.2-1-0.3l-3.1-0.8c-0.4-0.1-0.8-0.2-1.2-0.4c-0.4-0.2-0.7-0.4-1-0.6c-0.3-0.3-0.5-0.6-0.7-0.9s-0.3-0.8-0.3-1.3
	c0-0.3,0.1-0.7,0.2-1.2c0.1-0.5,0.4-0.9,0.7-1.3s0.8-0.7,1.4-1c0.6-0.3,1.4-0.4,2.4-0.4c0.7,0,1.3,0.1,1.9,0.3
	c0.6,0.2,1.1,0.5,1.6,0.8s0.8,0.8,1.1,1.3s0.4,1.1,0.4,1.8h-1.3c0-0.5-0.1-1-0.3-1.4s-0.5-0.7-0.8-1s-0.7-0.5-1.2-0.6
	s-0.9-0.2-1.4-0.2s-0.9,0-1.3,0.1c-0.4,0.1-0.8,0.3-1.1,0.5s-0.5,0.5-0.8,0.8c-0.2,0.3-0.3,0.8-0.3,1.3c0,0.3,0,0.6,0.2,0.8
	c0.1,0.3,0.3,0.4,0.5,0.6s0.4,0.3,0.7,0.4s0.5,0.2,0.8,0.3l3.3,0.8c0.5,0.1,0.9,0.3,1.4,0.5c0.4,0.2,0.8,0.4,1.1,0.7
	c0.3,0.3,0.6,0.6,0.8,1s0.3,0.9,0.3,1.4c0,0.2,0,0.4,0,0.6c0,0.3-0.1,0.5-0.2,0.8c-0.1,0.3-0.3,0.6-0.5,0.9s-0.5,0.5-0.9,0.8
	s-0.9,0.4-1.4,0.6c-0.6,0.1-1.3,0.2-2.1,0.2s-1.6-0.1-2.2-0.3c-0.7-0.2-1.3-0.5-1.8-0.8c-0.5-0.4-0.8-0.9-1.1-1.5s-0.4-1.3-0.3-2.2
	h1.3C234.2,75.3,234.3,75.9,234.5,76.3z"/>
<path class="st1" d="M243.7,65.4v-0.8h4.5v0.8h-1.7v3.7h-1.1v-3.7H243.7z M250.5,64.7l1.3,3.2l1.3-3.2h1.5v4.4h-1v-3.6l-1.4,3.6
	h-0.8l-1.5-3.6v3.6h-1v-4.4H250.5z"/>
<path class="st8" d="M366.7,245c1,0.1,1.9,0.1,2.9,0.3c2.1,0.3,4.2,1.1,6,2.1c1.5,0.9,3,1.8,4.1,3.2c0.2,0.2,0.5,0.4,0.7,0.6
	c1.6,1.7,2.8,3.6,3.7,5.8c1.1,2.5,1.6,5.2,1.5,8c-0.1,4.7-1.9,9.3-5.1,12.8c-0.2,0.2-0.5,0.4-0.7,0.6c-0.2,0.2-0.3,0.4-0.4,0.5
	c-1.6,1.5-3.4,2.7-5.3,3.5c-2.6,1.2-5.4,1.7-8.3,1.7c-0.4,0-0.7,0-1.1-0.1c-0.9-0.1-1.9-0.2-2.8-0.4c-2.2-0.5-4.3-1.3-6.2-2.6
	c-0.9-0.6-1.7-1.2-2.5-1.9c-0.3-0.2-0.5-0.5-0.8-0.8c-0.2-0.2-0.4-0.3-0.6-0.5c-1.6-1.7-2.8-3.6-3.7-5.7c-1.1-2.5-1.6-5.2-1.5-8
	c0.1-0.9,0.1-1.8,0.2-2.7c0.3-2.2,1.1-4.2,2.1-6.2c0.8-1.4,1.7-2.7,2.8-3.9c0.2-0.3,0.5-0.5,0.8-0.7c0.3-0.3,0.5-0.6,0.8-0.8
	c1.5-1.3,3.1-2.3,4.8-3.1C361,245.4,363.8,244.9,366.7,245L366.7,245z M362.4,257.1L362.4,257.1c1.1-1.1,2.4-1.8,3.8-2.1
	c0.4-0.1,0.7,0,1,0.3c0.1,0.1,0.2,0.2,0.3,0.3c0.5,0.7,0.8,1.5,0.8,2.4c0,0.5,0.1,1.1-0.1,1.6c-0.1,0.2,0,0.5,0,0.7
	c-0.2,1.4-0.8,2.6-1.9,3.5l-0.1,0.1h0.1h0.1c0.7-0.2,1.4-0.6,2-1.1s1-1.2,1.3-1.9c0.3-0.8,0.4-1.7,0.5-2.6c0-0.6,0-1.2,0-1.7
	c0-0.4,0-0.9,0.1-1.3c0.1-0.7,0.4-1.2,1-1.5c0.9-0.4,1.7-0.9,2.2-1.7c0.3-0.4,0.5-0.7,0.6-1.1c0-0.1,0-0.2,0-0.2
	c-0.1,0-0.2,0.1-0.2,0.1c-0.2,0.2-0.4,0.4-0.7,0.6c-0.8,0.6-1.8,1-2.8,1.2s-2,0.3-3,0.5c-2.2,0.4-4,1.6-5.2,3.5
	c-0.1,0.2-0.2,0.2-0.4,0.1c-0.4-0.3-0.9-0.6-1.3-0.9c-0.3-0.2-0.5-0.4-0.7-0.6c-0.2-0.2-0.4-0.5-0.5-0.8c-0.1-0.2,0-0.5,0-0.7
	s0.1-0.5,0.1-0.7c0-0.3,0-0.7-0.1-1c-0.1-0.8-0.4-1.5-0.9-2.1c-0.1-0.1-0.1-0.1-0.2-0.2v0.1v0.1c0.3,1.1,0.3,2.3,0,3.4
	c-0.3,1.1-0.8,2.2-1.2,3.2c-0.4,0.9-0.6,2-0.6,3c0,0.3,0,0.7,0.1,1c0.1,0.8,0.4,1.6,0.8,2.3c0.1,0.2,0.2,0.3,0.3,0.5h0.1
	c0-0.1,0-0.1,0-0.2c0-0.1-0.1-0.2-0.1-0.2c-0.2-0.9-0.2-1.7-0.1-2.6c0.1-0.5,0.3-1.1,0.4-1.6c0.1-0.3,0.3-0.5,0.7-0.6
	c0.7-0.2,1.5-0.2,2.2,0.1c0.7,0.2,1.3,0.6,1.8,1c1,0.7,1.9,1.5,2.4,2.6c0.2,0.5,0.5,1.1,0.5,1.6v0.1h0.1c0-0.1,0.1-0.3,0.1-0.4
	c0.2-1.1,0.1-2.2-0.3-3.1c-0.4-0.9-1.1-1.7-2-2.3L362.4,257.1L362.4,257.1z M369.7,272L369.7,272c-0.1,0-0.2,0-0.2,0.1
	c-1,1.1-2.4,1.9-3.8,2.2c-0.4,0.1-0.7,0-0.9-0.3c-0.4-0.4-0.8-0.9-0.9-1.4c-0.3-0.9-0.4-1.8-0.3-2.8c0-0.1,0.1-0.2,0.1-0.3
	c0-0.3,0-0.6,0-0.9c0.2-1.3,0.7-2.4,1.8-3.2c0,0,0-0.1,0.1-0.1c-0.1,0-0.1,0-0.1,0c-0.3,0.1-0.6,0.3-0.9,0.4c-1.1,0.7-2,1.6-2.4,2.9
	c-0.2,0.6-0.3,1.3-0.4,2c-0.1,0.8,0,1.6,0,2.3c0,0.3-0.1,0.5-0.1,0.8v0.1c0.1,0.3,0,0.6-0.1,0.9c-0.1,0.4-0.3,0.7-0.6,0.9
	c-0.4,0.2-0.7,0.4-1.1,0.6c-0.8,0.5-1.4,1.1-1.8,1.9c-0.1,0.3-0.2,0.5-0.3,0.9c0.1,0,0.2-0.1,0.2-0.1c0.1-0.1,0.2-0.2,0.3-0.4
	c0.8-0.8,1.8-1.4,3-1.7c1-0.3,2.1-0.4,3.1-0.7c1.7-0.4,3.1-1.1,4.2-2.5c0.3-0.4,0.6-0.8,0.8-1.2C369.6,272.3,369.7,272.2,369.7,272z
	 M374.2,265c0,0.1,0,0.2,0.1,0.2c0.3,0.9,0.4,1.9,0.3,2.9c-0.1,0.5-0.1,0.9-0.2,1.4c-0.1,0.4-0.4,0.7-0.8,0.8
	c-0.5,0.2-1,0.2-1.5,0.1c-0.7-0.1-1.3-0.4-1.9-0.7c-0.8-0.4-1.5-0.9-2.1-1.4c-0.2-0.2-0.4-0.4-0.6-0.7c-0.5-0.6-0.9-1.4-1-2.2
	l-0.1-0.1l-0.1,0.1c-0.1,0.7-0.2,1.4,0,2s0.3,1.1,0.6,1.6c0.4,0.7,0.9,1.2,1.6,1.7c0.6,0.4,1.3,0.8,1.9,1.2c0.7,0.4,1.3,0.8,2,1.2
	c0.2,0.1,0.4,0.4,0.5,0.6c0.1,0.2,0.2,0.5,0.1,0.8c0,0.5,0,1,0.1,1.6c0.2,0.8,0.4,1.5,1,2.1c0.1,0.1,0.2,0.2,0.4,0.3h0.1
	c0-0.1,0-0.1-0.1-0.2c-0.4-0.9-0.4-1.8-0.3-2.8c0.1-1,0.4-2,0.8-3c0.5-1.2,0.8-2.5,0.8-3.8c0-0.2,0-0.4-0.1-0.6
	c-0.2-0.7-0.4-1.4-0.6-2.1c-0.1-0.4-0.4-0.7-0.7-1.1C374.3,265,374.2,265,374.2,265L374.2,265z M360.9,271.1L360.9,271.1l-0.1-0.1
	c-0.4-0.2-0.7-0.3-1.1-0.4c-0.6-0.3-1.2-0.7-1.6-1.2l-0.3-0.3c-0.2-0.2-0.5-0.5-0.7-0.7c-0.2-0.2-0.2-0.5-0.1-0.8
	c0.2-0.6,0.6-1.2,1.1-1.6c0.6-0.5,1.3-0.9,2-1.2c0.6-0.2,1.1-0.4,1.7-0.6c0.6-0.1,1.2-0.1,1.8-0.1c0.5,0.1,1,0.2,1.5,0.4
	c0.1,0,0.1,0,0.2,0l-0.1-0.2l-0.1-0.1c-0.1-0.1-0.2-0.3-0.4-0.4c-0.9-0.8-2.1-1-3.2-1.2c-0.1,0-0.1,0-0.2,0c-0.1,0-0.2,0.1-0.3,0.1
	c-0.3,0.1-0.5,0.1-0.8,0.1c-1,0.2-2,0.7-3,1.1c-0.7,0.3-1.3,0.5-2,0.7c-0.4,0.1-0.8,0-1.2-0.3c-0.7-0.6-1.5-1.1-2.3-1.3
	c-0.5-0.2-1.1-0.2-1.6-0.1c-0.1,0-0.1,0.1-0.2,0.1c0,0,0,0.1,0.1,0.1l0.2,0.1c0.8,0.2,1.5,0.7,2.2,1.3c0.9,0.8,1.5,1.8,2.2,2.8
	c0.4,0.6,0.8,1.2,1.3,1.7c0.6,0.6,1.4,1.1,2.2,1.5c0.7,0.3,1.5,0.5,2.3,0.7C360.6,271.2,360.8,271.1,360.9,271.1L360.9,271.1z
	 M366.5,264.7L366.5,264.7c0.1,0.2,0.3,0.3,0.4,0.4c0.8,0.6,1.8,1,2.8,1.1c0.3,0,0.5,0,0.8,0c1-0.1,1.9-0.5,2.8-0.9
	c0.9-0.5,1.8-1,2.8-1.5c0.7-0.3,1.3-0.4,2,0.1c0.3,0.2,0.6,0.4,1,0.6c0.7,0.3,1.5,0.5,2.3,0.5c0.2,0,0.5-0.1,0.7-0.2
	c-0.1-0.1-0.1-0.1-0.1-0.1h-0.1c-0.5-0.2-1-0.3-1.5-0.5c-0.6-0.3-1.2-0.8-1.7-1.2c-0.3-0.3-0.6-0.7-0.9-1c-0.2-0.2-0.4-0.4-0.6-0.7
	c-0.4-0.5-0.8-1-1.2-1.4c-1-0.9-2-1.6-3.3-1.9c-0.6-0.1-1.2-0.2-1.9-0.3c-0.2,0-0.3,0.1-0.5,0.1c0,0.1,0.1,0.1,0.1,0.1
	c1.5,0.3,2.7,1.1,3.8,2.2c0.3,0.3,0.4,0.8,0.3,1.2c-0.1,0.7-0.6,1.2-1,1.7c-0.7,0.7-1.5,1.1-2.3,1.5c-1,0.5-2.2,0.7-3.4,0.6
	c-0.4,0-0.7-0.2-1.1-0.2C366.7,264.7,366.6,264.7,366.5,264.7L366.5,264.7z M357.2,255.5c0-0.2,0-0.3-0.1-0.5s-0.2-0.3-0.3-0.4
	c-0.3-0.3-0.6-0.4-1-0.5h-0.1l-0.3,0.1c-0.4,0.1-0.7,0.4-0.8,0.7s-0.2,0.5-0.1,0.9c0.3,0.7,0.8,1.1,1.5,1c0.3,0,0.6-0.2,0.9-0.5
	C357.1,256.2,357.2,255.8,357.2,255.5z M377.9,272.9c0-0.7-0.6-1.4-1.3-1.4c-0.4,0-0.7,0.1-1,0.4s-0.5,0.6-0.5,1
	c0,0.3,0.2,0.7,0.4,1c0.3,0.3,0.6,0.4,1,0.4c0.2,0,0.4,0,0.5-0.1c0.2-0.1,0.3-0.2,0.4-0.3c0.1-0.1,0.2-0.3,0.3-0.5
	C377.9,273.2,377.9,273,377.9,272.9L377.9,272.9z M364,279.3c0.4,0,0.7-0.2,1-0.4c0.3-0.3,0.4-0.6,0.5-1c0-0.6-0.8-1.4-1.5-1.4
	c-0.3,0-0.6,0.2-0.9,0.4c-0.3,0.2-0.5,0.6-0.5,1c0,0.2,0,0.4,0.1,0.5c0.1,0.2,0.2,0.3,0.3,0.5c0.1,0.2,0.3,0.2,0.5,0.3
	C363.6,279.2,363.8,279.3,364,279.3L364,279.3z M354.6,268.2c0-0.8-0.7-1.4-1.4-1.4c-0.3,0-0.7,0.1-0.9,0.4
	c-0.2,0.2-0.4,0.6-0.4,0.9c0,0.9,0.6,1.5,1.4,1.5C354.1,269.5,354.5,269,354.6,268.2L354.6,268.2z M376.9,259.9
	c0,0.7,0.7,1.4,1.4,1.4c0.4,0,0.7-0.2,1-0.5c0.3-0.3,0.4-0.7,0.4-1c0-0.7-0.7-1.3-1.4-1.3c-0.4,0-0.7,0.2-1,0.4
	C377.1,259.2,376.9,259.6,376.9,259.9z M368.2,252.9c0.4,0,0.7-0.1,0.9-0.4c0.3-0.3,0.5-0.7,0.5-1s-0.2-0.6-0.4-0.9
	c-0.2-0.3-0.6-0.4-1-0.5c-0.4,0-0.7,0.2-1,0.4c-0.3,0.3-0.4,0.6-0.4,1c0,0.2,0,0.4,0.1,0.5c0.1,0.2,0.2,0.3,0.3,0.4
	c0.1,0.1,0.3,0.2,0.4,0.3C367.8,252.8,368,252.9,368.2,252.9L368.2,252.9z"/>
<path class="st1" d="M407.1,258.5c1.5,0,2.8,0.5,3.7,1.5s1.4,2.4,1.4,4.2v7.7h-3.4v-7.3c0-1.1-0.3-1.9-0.8-2.4
	c-0.5-0.6-1.3-0.9-2.2-0.9c-1,0-1.7,0.3-2.3,0.9c-0.6,0.6-0.9,1.5-0.9,2.7v7.1h-3.4v-17.8h3.4v7.1c0.4-0.9,0.9-1.6,1.7-2.1
	S406.1,258.5,407.1,258.5z M427.9,258.7V272h-3.4v-2.7c-0.4,0.9-0.9,1.6-1.8,2.1c-0.8,0.5-1.7,0.7-2.8,0.7c-1.5,0-2.8-0.5-3.7-1.5
	s-1.4-2.4-1.4-4.2v-7.7h3.4v7.3c0,1.1,0.3,1.9,0.8,2.5s1.3,0.9,2.2,0.9c1,0,1.8-0.3,2.3-0.9c0.6-0.6,0.9-1.5,0.9-2.7v-7.1
	L427.9,258.7L427.9,258.7z M447.9,258.5c1.6,0,2.9,0.5,3.8,1.5c0.9,1,1.4,2.4,1.4,4.2v7.7h-3.4v-7.3c0-1-0.3-1.8-0.8-2.4
	s-1.2-0.8-2.1-0.8c-0.9,0-1.7,0.3-2.3,0.9s-0.8,1.5-0.8,2.6v7.1h-3.4v-7.3c0-1-0.3-1.8-0.8-2.4s-1.2-0.8-2.1-0.8
	c-0.9,0-1.7,0.3-2.3,0.9s-0.8,1.5-0.8,2.6v7.1h-3.4v-13.3h3.4v2.5c0.4-0.9,0.9-1.5,1.7-2s1.7-0.7,2.7-0.7c1.1,0,2,0.3,2.8,0.8
	s1.4,1.2,1.8,2.2c0.4-0.9,1-1.6,1.8-2.2C445.9,258.7,446.8,258.5,447.9,258.5z M455.7,254.9c0-0.5,0.2-1,0.6-1.3
	c0.4-0.4,0.9-0.5,1.5-0.5s1.1,0.2,1.5,0.5s0.6,0.8,0.6,1.3s-0.2,1-0.6,1.3c-0.4,0.3-0.9,0.5-1.5,0.5s-1.1-0.2-1.5-0.5
	C455.9,255.8,455.7,255.4,455.7,254.9z M459.5,258.7V272h-3.4v-13.3H459.5z M470.4,258.5c1.5,0,2.8,0.5,3.7,1.5s1.4,2.4,1.4,4.2v7.7
	h-3.4v-7.3c0-1.1-0.3-1.9-0.8-2.4c-0.5-0.6-1.3-0.9-2.2-0.9c-1,0-1.7,0.3-2.3,0.9c-0.6,0.6-0.9,1.5-0.9,2.7v7.1h-3.4v-13.3h3.4v2.7
	c0.4-0.9,0.9-1.6,1.7-2.1C468.5,258.7,469.4,258.5,470.4,258.5z M484.6,258.5c1.3,0,2.5,0.3,3.5,0.8s1.9,1.3,2.4,2.4
	c0.6,1,0.9,2.2,0.9,3.6s-0.3,2.6-0.9,3.6s-1.4,1.8-2.4,2.4c-1,0.5-2.2,0.8-3.5,0.8s-2.5-0.3-3.5-0.8c-1-0.6-1.8-1.4-2.4-2.4
	s-0.9-2.2-0.9-3.6c0-1.4,0.3-2.6,0.9-3.6s1.4-1.8,2.4-2.4C482.1,258.8,483.3,258.5,484.6,258.5z M484.6,261.4c-0.9,0-1.7,0.3-2.4,1
	c-0.7,0.7-1,1.6-1,2.9s0.3,2.2,1,2.9c0.7,0.7,1.5,1,2.4,1s1.7-0.3,2.4-1c0.7-0.7,1-1.6,1-2.9c0-1.3-0.3-2.2-1-2.9
	C486.3,261.8,485.5,261.4,484.6,261.4z M498.4,258.5c1.6,0,2.9,0.4,3.9,1.2c1,0.8,1.6,1.9,1.8,3.3h-3.2c-0.1-0.6-0.4-1.2-0.9-1.5
	c-0.4-0.4-1-0.6-1.8-0.6c-0.6,0-1,0.1-1.3,0.4s-0.5,0.6-0.5,1.1c0,0.4,0.1,0.7,0.4,0.9c0.3,0.2,0.6,0.4,1,0.5s0.9,0.3,1.7,0.5
	c1,0.2,1.8,0.5,2.4,0.7c0.6,0.2,1.2,0.6,1.6,1.2c0.5,0.5,0.7,1.2,0.7,2.2c0,1.1-0.4,2.1-1.3,2.8c-0.9,0.7-2.1,1.1-3.6,1.1
	c-1.7,0-3.1-0.4-4.2-1.2c-1-0.8-1.7-1.9-1.9-3.3h3.2c0.1,0.7,0.4,1.2,0.9,1.6c0.5,0.4,1.1,0.6,1.9,0.6c0.6,0,1-0.1,1.3-0.4
	c0.3-0.3,0.5-0.7,0.5-1.1s-0.1-0.7-0.4-0.9c-0.3-0.2-0.6-0.4-1-0.6c-0.4-0.1-0.9-0.3-1.7-0.5c-1-0.2-1.8-0.4-2.4-0.7
	c-0.6-0.2-1.1-0.6-1.6-1.1c-0.4-0.5-0.6-1.2-0.6-2.1c0-1.2,0.4-2.1,1.3-2.8C495.5,259.1,496.8,258.5,498.4,258.5z"/>
<g>
	<path class="st1" d="M486.6,702.1c0-2.5,0-5.1,0-7.7c0-3.2,1.4-4.6,4.4-4.6c1.6,0,3.2,0,4.8,0c2.8,0.1,4.1,1.6,4.1,4.4
		c0,2.5,0,5.1,0,7.7c0,2.9-1.5,4.4-4.3,4.4c-1.9,0-3.7,0.1-5.6,0c-1.5-0.1-1.9,0.5-1.7,1.9c0.1,0.5,0.1,1.1,0,1.6
		c-0.1,0.7,0.6,1.8-0.9,1.7c-1.3,0-0.8-1-0.8-1.7C486.6,707.3,486.6,704.7,486.6,702.1z M488.4,699.1c0,1.6,0,3.2,0,4.7
		c0,0.8,0.2,1,1,1c1.9,0,3.7,0,5.6,0c2.2,0,3.2-1,3.2-3.2c0-2.4,0-4.8,0-7.2c0-1.8-0.7-2.7-2.5-3c-1.6-0.3-3.2-0.3-4.8,0
		c-1.7,0.3-2.5,1.2-2.5,3.1C488.3,696.1,488.4,697.6,488.4,699.1z"/>
	<path class="st9" d="M376.5,694.2c0,2.6,0.1,5.2,0,7.8c-0.1,2.8-1.3,4.1-3.9,4.3c-2,0.1-4,0.1-5.9,0c-2.1-0.1-3.4-1.6-3.5-3.8
		c-0.1-2.8-0.1-5.7,0-8.5c0.1-2.6,1.7-4.1,4.3-4.2c2.1,0,4.2,0,6.3,0c0.9,0,1.4-0.2,1.2-1.2c-0.1-0.8,0-1.7,0-2.6
		c0-0.7,0-1.1,0.9-1.1s0.9,0.5,0.9,1.2C376.6,688.8,376.6,691.5,376.5,694.2L376.5,694.2z M374.8,697c0-1.5,0-3,0-4.6
		c0-0.8-0.2-1.2-1.1-1.2c-1.9,0-3.9,0-5.8,0c-2,0.1-3.1,1.3-3.2,3.3c-0.1,2.4-0.1,4.8,0,7.2c0,2,0.9,2.9,2.8,3
		c1.3,0.1,2.6,0.1,3.9,0c2.2-0.2,3.3-1.5,3.3-3.7C374.9,699.7,374.8,698.3,374.8,697z"/>
	<path class="st1" d="M411.3,694.1c0,2.7,0.1,5.3,0,8s-1.3,4-3.8,4.2c-2,0.1-4,0.1-6.1,0c-2.1-0.1-3.4-1.6-3.5-3.8
		c-0.1-2.8-0.1-5.5,0-8.3s1.7-4.2,4.3-4.3c2.1,0,4.2-0.1,6.3,0c1,0,1.3-0.3,1.2-1.3c-0.1-0.8,0-1.7,0-2.6c0-0.6,0-1.1,0.8-1
		c0.8,0,1,0.2,1,1c0,2.7,0,5.4,0,8.2C411.3,694.1,411.3,694.1,411.3,694.1z M409.6,696.8c0-1.5,0-2.9,0-4.4c0-0.8-0.2-1.2-1-1.2
		c-1.9,0-3.9,0-5.8,0c-2,0.1-3.1,1.3-3.2,3.4c0,2.3,0,4.6,0,6.9c0,2.1,0.9,3.1,2.9,3.2c1.2,0.1,2.5,0.1,3.7,0
		c2.2-0.2,3.3-1.4,3.3-3.7C409.6,699.7,409.6,698.3,409.6,696.8z"/>
	<path class="st9" d="M393.6,698.3c0,1.4,0.1,2.9,0,4.2c-0.2,2.5-1.5,3.7-3.9,3.7c-1.8,0-3.5,0-5.3,0c-2.6,0-4-1.5-4.1-4.2
		c-0.3-5.7,0.8-6.8,6.2-6.8c1.4,0,2.9,0,4.4,0c0.9,0,1.1-0.4,1-1.2c-0.1-1.8-1.1-2.9-3.1-2.9c-2.4,0-4.8,0-7.2,0
		c-0.6,0-1.4,0.3-1.3-0.8c0.1-1,0.9-0.6,1.3-0.6c2.5,0,5,0,7.5,0c2.2,0,4.7,1.5,4.5,4.6C393.6,695.7,393.6,697,393.6,698.3z
		 M387.9,697c-1.2,0-2.4-0.1-3.6,0c-1.4,0.1-2.2,1.1-2.3,2.6c0,0.7,0,1.3,0,2c0,2.1,1,3.2,3.1,3.3c1,0,2.1,0,3.1,0
		c3,0,3.6-0.7,3.6-3.8C391.9,696.8,391.9,696.8,387.9,697z"/>
	<path class="st1" d="M423,706.3c-1.3-0.1-2.9,0.2-4.6-0.1c-2.3-0.4-3.4-1.7-3.4-4.1c0-2.6-0.1-5.2,0-7.9c0.1-3.1,1.4-4.4,4.4-4.4
		c2,0,4-0.2,5.9,0.1c2.2,0.4,3.7,3.3,3,5.4c-0.2,0.5-0.6,0.5-1,0.7c-3.1,1.4-6.1,2.8-9.1,4.2c-0.6,0.3-1.5,0.2-1.4,1.2
		c0.1,1.1,0.3,2.3,1.4,2.9c0.7,0.4,1.4,0.4,2.1,0.4c2.3,0,4.7,0,7,0c0.4,0,0.9-0.2,1,0.6c0,0.8-0.4,0.8-1,0.8
		C426,706.3,424.7,706.3,423,706.3z M416.8,699c3-1.4,5.9-2.7,8.8-4c1.3-0.5,1.1-1.3,0.6-2.3c-0.4-0.8-1.1-1.2-1.9-1.3
		c-1.8-0.4-3.6-0.3-5.4,0c-1.3,0.3-2.1,1.2-2.1,2.6C416.7,695.7,416.8,697.3,416.8,699z"/>
	<path class="st1" d="M455.8,706.2c-1.6,0-3.1,0.1-4.7,0c-2.3-0.3-3.5-1.7-3.6-4.2c0-2.5,0-5.1,0-7.7c0.1-3.2,1.4-4.6,4.5-4.6
		c2,0,4.1-0.3,6.1,0.2c2,0.4,3.5,3.5,2.8,5.4c-0.2,0.5-0.6,0.5-1,0.7c-3,1.4-6,2.7-9,4.2c-0.6,0.3-1.7,0.2-1.5,1.4
		c0.2,1.2,0.4,2.4,1.7,2.9c0.6,0.2,1.2,0.3,1.8,0.3c2.2,0,4.4,0,6.6,0c0.5,0,1.4-0.5,1.4,0.7c0,1.3-0.9,0.7-1.5,0.8
		C458.1,706.3,456.9,706.3,455.8,706.2C455.8,706.3,455.8,706.2,455.8,706.2z M449.3,699.1c3.1-1.4,5.9-2.8,8.8-4
		c1.3-0.5,1.2-1.3,0.7-2.3c-0.4-0.8-1.1-1.2-2-1.3c-1.7-0.3-3.4-0.3-5.1,0c-1.5,0.3-2.3,1.2-2.3,2.8
		C449.2,695.8,449.3,697.3,449.3,699.1z"/>
	<path class="st1" d="M511.9,706.3c-1.3-0.1-2.9,0.2-4.6-0.1c-2.3-0.4-3.4-1.7-3.4-4.1c0-2.6-0.1-5.2,0-7.9c0.1-3.1,1.4-4.4,4.5-4.4
		c2,0,4.1-0.3,6.1,0.2c2,0.4,3.5,3.4,2.8,5.4c-0.2,0.5-0.6,0.5-1,0.7c-3,1.4-6,2.7-9,4.2c-0.6,0.3-1.7,0.2-1.5,1.4
		c0.2,1.2,0.4,2.4,1.7,2.9c0.6,0.2,1.2,0.3,1.8,0.3c2.3,0,4.7,0,7,0c0.4,0,0.9-0.2,1,0.7c0,0.8-0.5,0.8-1,0.8
		C514.8,706.3,513.5,706.3,511.9,706.3z M505.6,698.8c0.2,0,0.3,0.1,0.3,0c2.8-1.2,5.6-2.6,8.4-3.8c1.3-0.5,1.1-1.3,0.6-2.3
		c-0.4-0.8-1.1-1.2-1.9-1.3c-1.8-0.4-3.6-0.3-5.4,0c-1.3,0.3-2.1,1.2-2.1,2.6C505.6,695.7,505.6,697.3,505.6,698.8z"/>
	<path class="st1" d="M482.5,698.2c0,1.5,0.1,2.9,0,4.4c-0.1,2.2-1.3,3.6-3.4,3.7c-2,0.1-4,0.1-6.1,0c-2.2-0.1-3.5-1.6-3.6-3.9
		c0-2.7,0-5.4,0-8.2c0.1-2.9,1.5-4.3,4.2-4.4c1.7,0,3.3,0,5,0c2.3,0,3.7,1.3,3.9,3.8C482.6,695.1,482.5,696.7,482.5,698.2z
		 M480.9,698.1c0-0.6,0-1.2,0-1.8s0-1.2,0-1.8c-0.1-2.1-1.1-3.1-3-3.3c-1.3-0.1-2.6-0.1-3.9,0c-1.7,0.1-2.7,1.1-2.8,2.9
		c-0.1,2.6-0.1,5.2,0,7.8c0,1.8,1.1,2.7,2.8,2.8c1.3,0,2.6,0,3.9,0c1.8,0,2.8-1.1,2.9-2.9C480.9,700.6,480.9,699.4,480.9,698.1z"/>
	<path class="st9" d="M346.7,690c1.5-0.5,2.4-0.1,3.1,1.1c1.2,1.8,2.6,3.5,4,5.4c1.4-1.9,2.7-3.6,3.9-5.4c0.8-1.2,1.6-1.6,3.1-1
		c-1.4,2-2.8,3.9-4.1,5.8c-1.7,2.3-1.7,2.3,0,4.6c1.4,1.8,2.7,3.7,4.2,5.6c-1.3,0.5-2.2,0.4-2.9-0.8c-1.1-1.7-2.3-3.2-3.5-4.8
		c-0.5-0.7-0.8-0.7-1.3,0c-1.2,1.7-2.5,3.3-3.8,5c-0.3,0.4-0.5,0.9-1.1,0.8c-0.5,0-1.1,0.3-1.4-0.2c-0.3-0.5,0.3-0.8,0.6-1.2
		c1.4-1.9,2.9-3.9,4.4-5.7c0.6-0.8,0.7-1.2,0-2.1C350.2,694.9,348.6,692.5,346.7,690z"/>
	<path class="st1" d="M532.4,706.3c-1.4,0-2.7,0-4.1,0c-0.6,0-0.8-0.2-0.8-0.8c0-0.7,0.4-0.6,0.8-0.6c2.2,0,4.4,0,6.6,0
		c2.1,0,3-0.8,3-2.7c0-2.5-0.7-3.3-2.9-3.4c-1.5,0-3,0.2-4.5-0.1c-1.9-0.4-2.8-1.5-2.9-3.4c-0.2-4.2,0.9-5.4,4.9-5.4
		c2.1,0,4.2,0,6.3,0c0.5,0,1.1-0.2,1.1,0.7c0,0.9-0.6,0.8-1.1,0.8c-2.1,0-4.3,0-6.4,0s-3.1,1-3.1,3c0,2.1,0.9,3,3.1,3
		c1.4,0,2.8,0,4.2,0c1.9,0,2.9,1,3.1,2.9c0.1,0.9,0.1,1.8,0,2.8c-0.2,2.1-1.3,3.1-3.3,3.2C535,706.4,533.7,706.3,532.4,706.3z"/>
	<path class="st1" d="M437.5,703.6c1.9-4.4,3.7-8.4,5.5-12.5c0.2-0.4,0.3-0.8,0.5-1c0.5-0.5,1.1-0.4,1.6-0.2
		c0.7,0.3,0.1,0.8-0.1,1.2c-2,4.7-4.1,9.3-6.2,14c-0.3,0.6-0.5,1.2-1.3,1.2c-0.9,0-1.1-0.6-1.4-1.2c-2-4.6-4.1-9.2-6.1-13.9
		c-0.2-0.4-0.9-1-0.1-1.3c0.6-0.2,1.4-0.4,1.8,0.6c0.5,1.3,1.1,2.6,1.7,3.8C434.8,697.3,436.1,700.3,437.5,703.6z"/>
	<path class="st1" d="M465.5,695.5c0,3.2,0,6.4,0,9.6c0,0.6,0,1.2-0.9,1.2s-0.9-0.4-0.9-1.1c0-6.5,0-13,0-19.6
		c0-0.7,0.1-1.1,0.9-1.1c0.9,0,0.8,0.6,0.8,1.2C465.5,689,465.5,692.3,465.5,695.5z"/>
	<path class="st1" d="M520.5,699.6c0-2-0.1-4,0-6c0.2-2.8,2.8-4.5,5.4-3.8c0.5,0.1,0.5,0.4,0.5,0.8c0,0.5-0.3,0.6-0.7,0.7
		c-3.3,0.6-3.6,1-3.6,4.6c0,3.1,0,6.2,0,9.3c0,0.6,0.1,1.2-0.8,1.2s-1-0.4-1-1.2C520.5,703.3,520.4,701.4,520.5,699.6L520.5,699.6z"
		/>
</g>
<line class="st10" x1="321.6" y1="736" x2="321.6" y2="104.2"/>
<g>
	<g>
		<line class="st10" x1="322" y1="912.5" x2="322" y2="906.5"/>
		<line class="st11" x1="322" y1="893.8" x2="322" y2="748.4"/>
		<line class="st10" x1="322" y1="742.1" x2="322" y2="736.1"/>
	</g>
</g>
</svg>
