<svg version="1.1" id="Layer_1" xmlns="http://www.w3.org/2000/svg" xmlns:xlink="http://www.w3.org/1999/xlink" x="0" y="0" viewBox="0 0 637.8 976.4" xml:space="preserve"><style>.st1{fill:#fff}.st2,.st4,.st6{fill:#fff;stroke:#fff}.st2{stroke-miterlimit:10;stroke-width:2}.st4,.st6{stroke-width:.5}.st6{stroke:#ffe146}.st9{fill:#ffab4f}.st10{fill:none;stroke:#fff;stroke-width:4;stroke-miterlimit:10}</style><path d="M110.7 486.3c0 1.6.9 3 2.4 3 2.9 0 4.8-.9 7.3-2 2.7-1.3 4.9-2.6 7.5-4.1.6-.4 1.5-.8 1.6-1.3-1.2.1-6.9 2.8-9.7 1.5-3.1-1.5 2.9-9.1 3.8-10.3l2.1-2.6c.3-.3.5-.4.9-.8 4.1-4.1 16.9-14.5 22.6-11.4.4.2.6.4.9.6.4.3.5.6 1 .7.9-1.7 1.4-5.5-2-5.5-4.2 0-9.4 3.1-13 5-1.5.8-4 2.4-5.4 3.3-2.2 1.5-6.7 4.9-8.5 6.8l-1.1 1.1c-.4.3-.7.7-1.1 1.1-.4.4-.6.7-1 1.2-2.8 2.3-8.3 9.8-8.3 13.7z" fill="#3f95e9"/><path class="st1" d="M134 479.1c.3.2.5 0 .9-.1l2.9-1.2c1.2-.4 5.8-1.8 7.1-.4 1.6 1.9-.3 5.7-1.3 7.1l-2.2 2.7c-.6.6-.7.9-1.6 1.7l-3.5 3.1c-.3.3-.6.5-.9.8-3.2 2.7-9.8 7.4-13.5 9.7-.6.4-3.7 2.3-4 2.6 1.3 0 4.6-1.9 5.7-2.5 3-1.5 8-4.3 10.7-6 .9-.6 1.7-1 2.6-1.6.9-.6 1.7-1.1 2.5-1.7 1.6-1.2 3.2-2.4 4.7-3.7l.5-.5c2.9-2.5 5.4-5.1 7.4-8.4 1-1.7 4-8.1.3-9.4-3-1.1-8.5 1.9-10.5 3.1l-3.9 2.3c-.8.2-3.6 2-3.9 2.4zM148 465.4c0 1.5 1.6 2.7 3 3.2 5 1.5 9.5-2.9 5.5-5.6-3-2.1-8.5-.6-8.5 2.4z"/><circle class="st1" cx="321" cy="103.6" r="8.5"/><circle class="st1" cx="321.7" cy="524" r="8.3"/><circle class="st1" cx="321.6" cy="912.5" r="7.9"/><circle class="st1" cx="322" cy="736" r="8.4"/><circle class="st1" cx="321.1" cy="305.3" r="7.7"/><path class="st2" d="M112.9 533.1l-.6-10h.4l.6 9.9c.2 2.9 1.9 5 4.5 5s4.3-2 4.5-5l.6-9.9h.4l-.6 10c-.2 3.2-2.1 5.3-4.9 5.3s-4.7-2.1-4.9-5.3zM137.3 538l-4.8-8-4.8 8h-.5c1.7-2.8 3.3-5.6 5-8.4-1.1-1.9-2.4-4-3.9-6.5h8.2c-1.5 2.5-2.8 4.6-3.9 6.6l5 8.4-.3-.1zm-4.7-8.8l3.4-5.7h-6.8c1.1 1.9 2.2 3.8 3.4 5.7zM152.6 523.5v6h5.8v.4h-5.8v7.7h6.7v.4h-7.1v-15h7.2v.4h-6.8v.1zM174.9 529.1v9.3l-9.7-14.3v14h-.4v-6-9.3l9.7 14.3v-14h.4v6zM194 538l-1.5-2.1c-1.1 1.5-2.8 2.4-4.9 2.4-3.7 0-6.8-3.4-6.8-8 0-4.4 3-7.6 7.3-7.6 1.9 0 3.8.7 5 1.7v.5c-1.3-1-3.2-1.7-5-1.7-4 0-6.9 3.1-6.9 7.2 0 4.3 3 7.5 6.4 7.5 2 0 3.6-.9 4.6-2.4-1.1-1.4-2.1-2.9-3.2-4.3h4.9c0 1.6-.5 3.1-1.3 4.3l1.8 2.4h-.4v.1zm-1.6-2.7c.7-1 1.1-2.3 1.1-3.6h-3.8c1 1.2 1.8 2.4 2.7 3.6zM199.8 530.6v-7.5h.4v15h-.4v-7.5zM217.2 529.1v9.3l-9.7-14.3v14h-.4v-6-9.3l9.7 14.3v-14h.4v6zM224.4 523.5v6h5.8v.4h-5.8v7.7h6.7v.4h-7.2v-15h7.2v.4h-6.7v.1zM237 523.5v6h5.8v.4H237v7.7h6.7v.4h-7.2v-15h7.2v.4H237v.1zM253.3 531.5l3.2 6.5h-.4c-1-2.2-2.1-4.3-3.1-6.4-.5.1-1.1.1-1.7.1h-1.5v6.3h-.6v-6.7h1.9c.6 0 1.1 0 1.5-.1l-3.9-8.1h2.8c3.3 0 5.3 1.7 5.3 4.2 0 2.2-1.2 3.7-3.5 4.2zm-.2-.4c2.2-.5 3.3-1.8 3.3-3.8 0-2.3-1.9-3.8-4.9-3.8h-2.1l3.7 7.6zM163.8 890.4v-.6c1 1 2.4 1.7 3.8 1.7 1.9 0 3.5-1.5 3.5-3.3 0-2.2-1.9-3.1-3.9-3.9-2.1-.9-4.1-1.8-4.1-4.2 0-2.2 1.8-3.8 4.4-3.8 1.7 0 3.2.8 4.2 1.8v.6c-1.1-1.2-2.6-2-4.2-2-2.4 0-4 1.5-4 3.3 0 2.2 1.8 3 3.9 3.8 2 .8 4.1 1.9 4.1 4.3 0 2.1-1.8 3.7-4 3.7-1.3.1-2.8-.6-3.7-1.4zM185.7 877.1h-5v14.5h-.4v-7.3-7.2h-5v-.4h10.4v.4zM190.8 886.1c-.7 1.8-1.5 3.7-2.3 5.6h-.4l2.4-5.8c-.8-.5-1.6-.9-2.4-1.4v-.5c.8.5 1.7 1 2.5 1.5 1.2-2.9 2.4-5.9 3.7-9.1l6.4 15.6c-3.3-2-6.6-4-9.9-5.9zm.2-.4c3 1.8 5.9 3.5 8.9 5.3l-5.5-13.6-3.4 8.3zM210 885.1l3.2 6.5h-.4c-1-2.2-2.1-4.3-3.1-6.4-.5.1-1.1.1-1.7.1h-1.5v6.3h-.4v-6.7h1.9c.6 0 1.1 0 1.5-.1l-3.9-8.1h2.8c3.3 0 5.3 1.7 5.3 4.2-.1 2.2-1.3 3.7-3.7 4.2zm-.2-.4c2.2-.5 3.3-1.8 3.3-3.8 0-2.3-1.9-3.8-4.9-3.8h-2.1l3.7 7.6zM227.6 877.1h-5v14.5h-.4v-7.3-7.2h-5v-.4h10.4v.4zM232.7 877.1v6h5.8v.4h-5.8v7.7h6.7v.4h-7.2v-15h7.2v.4l-6.7.1zM244.9 876.7h2.7c5 0 8.1 2.8 8.1 7.3 0 4.4-3.5 7.7-8.3 7.7h-2.6v-15h.1zm2.5 14.5c4.6 0 7.9-3.1 7.9-7.3s-3-6.8-7.7-6.8h-2.2v14.1h2zM165 903.5v6h5.8v.4H165v7.7h6.7v.4h-7.2V903.1h7.2v.4H165zM185.5 918l-4.8-8-4.8 8h-.5c1.7-2.8 3.3-5.6 5-8.4-1.1-1.9-2.4-4-3.9-6.5h8.2c-1.5 2.5-2.8 4.6-3.9 6.6l5 8.4-.3-.1zm-4.8-8.8l3.4-5.7h-6.8c1.2 1.9 2.3 3.8 3.4 5.7zM198.4 907.3c0 2.6-2 4.4-5.3 4.4h-1.6v6.3h-.4v-15h2.5c2.9.1 4.8 1.8 4.8 4.3zm-.5 0c0-2.3-1.7-3.8-4.4-3.8h-2v7.9h1.5c3.1-.1 4.9-1.7 4.9-4.1zM203.8 910.5v-7.4h.4V917.7h7.5v.4h-7.9v-7.6zM215.1 910.4c0-4.4 3.1-7.7 7.4-7.7 4.4 0 7.4 3.3 7.4 7.7 0 4.3-3.4 8-7.4 8-4.1 0-7.4-3.6-7.4-8zm14.4 0c0-4.2-2.9-7.3-7-7.3s-7 3.1-7 7.3c0 4.1 3.2 7.5 7 7.5s7-3.4 7-7.5zM239.7 911.5l3.2 6.5h-.4c-1-2.2-2.1-4.3-3.1-6.4-.5.1-1.1.1-1.7.1h-1.5v6.3h-.4v-6.7h1.9c.6 0 1.1 0 1.5-.1l-3.9-8.1h2.8c3.3 0 5.3 1.7 5.3 4.2-.2 2.2-1.4 3.7-3.7 4.2zm-.2-.4c2.2-.5 3.3-1.8 3.3-3.8 0-2.3-1.9-3.8-4.9-3.8h-2.1l3.7 7.6zM249.2 910.6v-7.5h.4v15h-.4v-7.5zM266.5 909.1v9.3l-9.7-14.3v14h-.4v-6-9.3l9.7 14.3v-14h.4v6zM285.6 918l-1.5-2.1c-1.1 1.5-2.8 2.4-4.9 2.4-3.7 0-6.8-3.4-6.8-8 0-4.4 3-7.6 7.3-7.6 1.9 0 3.8.7 5 1.7v.5c-1.3-1-3.2-1.7-5-1.7-4 0-6.9 3.1-6.9 7.2 0 4.3 3 7.5 6.4 7.5 2 0 3.6-.9 4.6-2.4-1.1-1.4-2.1-2.9-3.2-4.3h4.9c0 1.6-.5 3.1-1.3 4.3l1.8 2.4-.4.1zm-1.6-2.7c.7-1 1.1-2.3 1.1-3.6h-3.8l2.7 3.6z"/><g><path class="st1" d="M116.1 572.9c-.2-1.3-1.2-2-2.9-2-.9 0-1.6.2-2.1.6-.5.4-.7.9-.7 1.4 0 .6.2 1 .5 1.3.3.3.8.5 1.5.8l2.8 1c1 .3 1.7.8 2.3 1.4.6.6.9 1.4.9 2.4s-.4 1.9-1.3 2.6c-.9.7-2.1 1.1-3.6 1.1s-2.7-.4-3.7-1.1c-1-.8-1.4-1.8-1.5-3.2h1.7c0 .9.3 1.6.9 2 .6.5 1.4.7 2.4.7s1.8-.2 2.3-.7c.6-.4.9-1 .9-1.6 0-.6-.2-1.1-.5-1.4-.4-.3-.9-.6-1.6-.9l-2.4-.9c-1.1-.4-2-.8-2.5-1.3s-.9-1.3-.9-2.3.4-1.8 1.2-2.5c.8-.7 1.9-1 3.4-1s2.6.3 3.3 1c.8.6 1.2 1.5 1.3 2.6h-1.7zM125.4 582c1.4 0 2.2-.6 2.4-1.9h1.7c-.2 1-.6 1.8-1.4 2.4-.8.6-1.7.9-2.8.9-1.4 0-2.5-.5-3.4-1.5s-1.3-2.3-1.3-3.9.4-2.9 1.3-3.9 2-1.5 3.5-1.5 2.5.6 3.2 1.7c.7 1.1 1 2.5.7 4.1h-7.1c0 1.1.3 1.9.8 2.6.8.6 1.5 1 2.4 1zm1.3-7.8c-.3-.2-.7-.3-1.2-.3-.9 0-1.6.3-2.1.9-.5.6-.8 1.3-.9 2.2h5.5c0-1.4-.4-2.4-1.3-2.8zM134.6 574.4c.7-1.2 1.7-1.8 3-1.8s2.5.5 3.4 1.5c.9 1 1.3 2.3 1.3 3.9s-.5 2.9-1.4 3.9c-.9 1-2 1.5-3.3 1.5s-2.3-.5-2.9-1.5v6.3H133v-15.4h1.4l.2 1.6zm3 7.5c.8 0 1.5-.3 2.1-1 .6-.7.9-1.6.9-2.8 0-1.2-.3-2.2-.9-2.9-.6-.7-1.3-1.1-2.1-1.1s-1.5.3-2 .8-.8 1.2-.8 2.1v2c0 .9.3 1.6.8 2.1s1.1.8 2 .8zM151.9 581.6h7.9v1.6h-9.6v-2c0-1.6.6-2.8 1.8-3.5.4-.2.8-.5 1.3-.6l2.7-1.1c1.4-.5 2.1-1.4 2.1-2.7 0-.7-.2-1.3-.7-1.7s-1.1-.7-2-.7c-.9 0-1.6.2-2.1.5-.5.4-.9.9-.9 1.6h-1.9c.1-1.2.5-2.1 1.4-2.7.9-.6 2-.9 3.4-.9s2.5.4 3.4 1.1c.9.7 1.3 1.7 1.3 2.8s-.3 2-.9 2.6c-.6.6-1.3 1.2-2.3 1.6l-2.7 1.1c-.7.3-1.2.6-1.5 1-.3.4-.5.8-.5 1.4v.6h-.2zM167.7 569.3c1.6 0 2.9.6 3.9 1.8.9 1.2 1.4 2.9 1.4 5.2 0 2.3-.5 4-1.4 5.2-.9 1.2-2.2 1.8-3.9 1.8-1.6 0-2.9-.6-3.9-1.8-1-1.2-1.4-2.9-1.4-5.2s.5-4 1.4-5.2c1-1.2 2.3-1.8 3.9-1.8zm3.5 7c0-1.8-.3-3.1-.9-4.1-.6-1-1.5-1.4-2.6-1.4-1.2 0-2 .5-2.6 1.4-.6.9-.9 2.3-.9 4.1 0 1.8.3 3.1.9 4.1.6 1 1.5 1.4 2.6 1.4 1.2 0 2-.5 2.6-1.4.6-.9.9-2.3.9-4.1zM175.1 570.6c1-.1 1.8-.5 2.5-1.1h1.4v13.6h-1.7v-11.6c-.7.5-1.5.7-2.2.8v-1.7zM190.4 573c-.2-1.4-1-2.1-2.3-2.1s-2.3.5-3 1.6c-.7 1.1-1 2.5-1 4.4 0 .8 0 1.4.1 1.9.1-1.3.5-2.3 1.2-2.9.7-.6 1.7-.9 2.8-.9 1.1 0 2.1.4 2.9 1.2.8.8 1.2 1.8 1.2 3.1 0 1.2-.4 2.3-1.3 3-.8.8-2 1.2-3.3 1.2-1.6 0-2.9-.6-3.9-1.9s-1.5-3-1.5-5.1c0-2.1.5-3.8 1.5-5.1s2.4-1.9 4.1-1.9c1.2 0 2.2.3 3 1s1.2 1.6 1.3 2.7h-1.8v-.2zm-2.7 3.5c-.8 0-1.5.3-2 .8s-.8 1.2-.8 2 .3 1.4.8 1.9 1.2.7 2 .7 1.5-.2 2-.7.8-1.1.8-2c0-.8-.3-1.5-.8-2s-1.2-.7-2-.7zM199.5 576.1h5.9v1.5h-5.9v-1.5zM216 569.6l4.6 9.2 4.5-9.2h2.4v13.6h-1.7V572l-4.7 9.4H220l-4.7-9.6v11.3h-1.7v-13.6h2.4v.1zM238.2 576.4c0-.9-.2-1.6-.6-2-.4-.4-1-.6-1.7-.6s-1.3.1-1.8.4-.7.8-.7 1.4h-1.9c0-1.6.8-2.6 2.5-2.9.5-.1 1.1-.2 1.7-.2 1.3 0 2.3.3 3 1s1.1 1.6 1.1 3v6.6h-1.5l-.2-1.7c-.6 1.3-1.8 2-3.4 2-1.1 0-2-.3-2.7-.9-.7-.6-1-1.4-1-2.3 0-.9.4-1.6 1.1-2.2.7-.5 1.7-.8 2.8-.8s2.2.2 3.2.6l.1-1.4zm0 2.4c-1-.3-1.9-.4-2.7-.4s-1.4.1-1.9.4-.7.7-.7 1.3c0 1.3.7 1.9 2.2 1.9.8 0 1.5-.3 2.1-.9.6-.6 1-1.3 1-2.3zM241.9 586.1c.7.5 1.4.8 2.2.8.6 0 1.1-.3 1.5-.9.3-.4.6-1 .8-1.9l.3-1.1-4.2-10.3h1.9l3.1 8.2 2.4-8.2h1.7l-3.9 12.4c-.3 1-.8 1.9-1.3 2.4-.5.6-1.2.8-2 .8s-1.7-.3-2.6-.8v-1.4h.1zM260.4 581.6h7.9v1.6h-9.6v-2c0-1.6.6-2.8 1.8-3.5.4-.2.8-.5 1.3-.6l2.7-1.1c1.4-.5 2.1-1.4 2.1-2.7 0-.7-.2-1.3-.7-1.7s-1.1-.7-2-.7-1.6.2-2.1.5c-.5.4-.9.9-.9 1.6H259c.1-1.2.5-2.1 1.4-2.7.9-.6 2-.9 3.4-.9s2.5.4 3.4 1.1 1.3 1.7 1.3 2.8-.3 2-.9 2.6c-.6.6-1.3 1.2-2.3 1.6l-2.7 1.1c-.7.3-1.2.6-1.5 1-.3.4-.5.8-.5 1.4v.6h-.2zM276.3 569.3c1.6 0 2.9.6 3.9 1.8.9 1.2 1.4 2.9 1.4 5.2 0 2.3-.5 4-1.4 5.2s-2.2 1.8-3.9 1.8c-1.6 0-2.9-.6-3.9-1.8-1-1.2-1.4-2.9-1.4-5.2s.5-4 1.4-5.2 2.2-1.8 3.9-1.8zm3.5 7c0-1.8-.3-3.1-.9-4.1-.6-1-1.5-1.4-2.6-1.4-1.2 0-2 .5-2.6 1.4-.6.9-.9 2.3-.9 4.1 0 1.8.3 3.1.9 4.1.6 1 1.5 1.4 2.6 1.4 1.2 0 2-.5 2.6-1.4.6-.9.9-2.3.9-4.1zM283.7 570.6c1-.1 1.8-.5 2.5-1.1h1.4v13.6h-1.7v-11.6c-.7.5-1.5.7-2.2.8v-1.7zM295.9 569.3c.7 0 1.4.2 2.1.5s1.2.8 1.7 1.4c1 1.3 1.6 2.9 1.6 4.9 0 3.5-1 5.8-2.9 6.8-.7.3-1.4.5-2.2.5-1.5 0-2.7-.4-3.5-1.2-.9-.8-1.3-1.8-1.3-3h1.8c0 .8.3 1.5.8 2s1.1.7 1.9.7c.7 0 1.4-.1 1.8-.4 1.3-.8 2-2.7 2-5.5 0-.6 0-1.1-.1-1.6-.1 1.2-.6 2-1.3 2.6-.7.6-1.6.9-2.7.9s-2.1-.4-2.9-1.2-1.2-1.8-1.2-3.1.4-2.3 1.3-3c.9-.7 1.7-1.3 3.1-1.3zm2 2.3c-.5-.5-1.2-.7-2-.7s-1.5.2-2 .7-.8 1.1-.8 2c0 .9.3 1.5.8 2s1.2.7 2 .7 1.5-.3 2-.8.8-1.2.8-2-.3-1.4-.8-1.9z"/></g><g><path class="st2" d="M350.5 315l-.6-10h.4l.6 9.9c.2 2.9 1.9 5 4.5 5s4.3-2 4.5-5l.6-9.9h.4l-.6 10c-.2 3.2-2.1 5.3-4.9 5.3-2.7 0-4.7-2.1-4.9-5.3zM375 319.9l-4.8-8-4.8 8h-.5c1.7-2.8 3.3-5.6 5-8.4-1.1-1.9-2.4-4-3.9-6.5h8.2c-1.5 2.5-2.8 4.6-3.9 6.6l5 8.4h-.3v-.1zm-4.8-8.8l3.4-5.7h-6.8c1.1 1.9 2.3 3.8 3.4 5.7zM390.2 305.4v6h5.8v.4h-5.8v7.7h6.7v.4h-7.2v-15h7.2v.4h-6.7v.1zM412.6 311v9.3l-9.7-14.3v14h-.4v-6-9.3l9.7 14.3v-14h.4v6zM431.6 319.9l-1.5-2.1c-1.1 1.5-2.8 2.4-4.9 2.4-3.7 0-6.8-3.4-6.8-8 0-4.4 3-7.6 7.3-7.6 1.9 0 3.8.7 5 1.7v.5c-1.3-1-3.2-1.7-5-1.7-4 0-6.9 3.1-6.9 7.2 0 4.3 3 7.5 6.4 7.5 2 0 3.6-.9 4.6-2.4-1.1-1.4-2.1-2.9-3.2-4.3h4.9c0 1.6-.5 3.1-1.3 4.3l1.8 2.4h-.4v.1zm-1.5-2.7c.7-1 1.1-2.3 1.1-3.6h-3.8l2.7 3.6zM437.5 312.5V305h.4v15h-.4v-7.5zM454.8 311v9.3l-9.7-14.3v14h-.4v-6-9.3l9.7 14.3v-14h.4v6zM462 305.4v6h5.8v.4H462v7.7h6.7v.4h-7.2v-15h7.2v.4H462v.1zM474.6 305.4v6h5.8v.4h-5.8v7.7h6.7v.4h-7.2v-15h7.2v.4h-6.7v.1zM490.9 313.4l3.2 6.5h-.4c-1-2.2-2.1-4.3-3.1-6.4-.5.1-1.1.1-1.7.1h-1.5v6.3h-.4v-6.7h1.9c.6 0 1.1 0 1.5-.1l-3.9-8.1h2.8c3.3 0 5.3 1.7 5.3 4.2-.1 2.2-1.3 3.7-3.7 4.2zm-.2-.4c2.2-.5 3.3-1.8 3.3-3.8 0-2.3-1.9-3.8-4.9-3.8H487l3.7 7.6z"/></g><g><path class="st1" d="M350.3 364.3c-.7.6-1.5 1-2.6 1s-2.1-.3-3.3-.9v-1.8c1 .7 2 1 2.8 1 .9 0 1.5-.2 1.8-.6.3-.4.5-1.1.5-1.9v-9.6h1.7v9.6c.1 1.5-.2 2.6-.9 3.2zM362.2 363c-.7 1.5-1.8 2.2-3.4 2.2-1.2 0-2.1-.3-2.8-1-.7-.6-1.1-1.6-1.1-3v-6.6h1.7v6.4c0 1.7.8 2.6 2.4 2.6.9 0 1.7-.4 2.3-1.1.6-.7.9-1.6.9-2.8v-5.2h1.7v10.3h-1.7V363zM368.3 350.3h1.7V365h-1.7v-14.7zM380.4 363.5h7.9v1.6h-9.6v-2c0-1.6.6-2.8 1.8-3.5.4-.2.8-.5 1.3-.6l2.7-1.1c1.4-.5 2.1-1.4 2.1-2.7 0-.7-.2-1.3-.7-1.7s-1.1-.7-2-.7-1.6.2-2.1.5c-.5.4-.9.9-.9 1.6h-2c.1-1.2.5-2.1 1.4-2.7.9-.6 2-.9 3.4-.9s2.5.4 3.4 1.1c.9.7 1.3 1.7 1.3 2.8s-.3 2-.9 2.6c-.6.6-1.3 1.2-2.3 1.6l-2.7 1.1c-.7.3-1.2.6-1.5 1s-.5.8-.5 1.4v.6h-.1zM396.2 351.2c1.6 0 2.9.6 3.9 1.8.9 1.2 1.4 2.9 1.4 5.2 0 2.3-.5 4-1.4 5.2-.9 1.2-2.2 1.8-3.9 1.8-1.6 0-2.9-.6-3.9-1.8-1-1.2-1.4-2.9-1.4-5.2 0-2.3.5-4 1.4-5.2 1-1.2 2.3-1.8 3.9-1.8zm3.6 7c0-1.8-.3-3.1-.9-4.1-.6-.9-1.5-1.4-2.6-1.4s-2 .5-2.6 1.4-.9 2.3-.9 4.1c0 1.8.3 3.1.9 4.1s1.5 1.4 2.6 1.4 2-.5 2.6-1.4.9-2.3.9-4.1zM403.7 352.5c1-.1 1.8-.5 2.5-1.1h1.4V365h-1.7v-11.6c-.7.5-1.5.7-2.2.8v-1.7zM415.8 351.2c.7 0 1.4.2 2.1.5.7.3 1.2.8 1.7 1.4 1 1.3 1.6 2.9 1.6 4.9 0 3.5-1 5.8-2.9 6.8-.7.3-1.4.5-2.2.5-1.5 0-2.7-.4-3.5-1.2-.9-.8-1.3-1.8-1.3-3h1.8c0 .8.3 1.5.8 2s1.1.7 1.9.7 1.4-.1 1.8-.4c1.3-.8 2-2.7 2-5.5 0-.6 0-1.1-.1-1.6-.1 1.2-.6 2-1.3 2.6s-1.6.9-2.7.9-2.1-.4-2.9-1.2c-.8-.8-1.2-1.8-1.2-3.1s.4-2.3 1.3-3c.6-.9 1.7-1.3 3.1-1.3zm2 2.3c-.5-.5-1.2-.7-2-.7s-1.5.2-2 .7-.8 1.1-.8 2 .3 1.5.8 2 1.2.7 2 .7 1.5-.3 2-.8.8-1.2.8-2-.3-1.4-.8-1.9zM428.2 358h5.9v1.5h-5.9V358zM444.2 351.5l6.7 10.9v-10.9h1.7v13.6h-1.9l-6.8-11v11h-1.7v-13.6h2zM460.7 354.5c1.4 0 2.6.5 3.5 1.4s1.3 2.3 1.3 4c0 1.7-.4 3.1-1.3 4-.9.9-2 1.4-3.5 1.4s-2.6-.5-3.5-1.4-1.3-2.3-1.3-4c0-1.7.4-3.1 1.3-4 .9-1 2.1-1.4 3.5-1.4zm3.1 5.4c0-1.2-.3-2.2-.8-2.9-.5-.7-1.3-1-2.3-1s-1.8.3-2.3 1c-.5.7-.8 1.7-.8 2.9s.3 2.2.8 2.9c.5.7 1.3 1 2.3 1s1.8-.3 2.3-1c.5-.7.8-1.7.8-2.9zM468.9 354.7l3.1 8.5 3.1-8.5h1.9l-4.1 10.3H471l-4.1-10.3h2zM485.7 363.5h7.9v1.6H484v-2c0-1.6.6-2.8 1.8-3.5.4-.2.8-.5 1.3-.6l2.7-1.1c1.4-.5 2.1-1.4 2.1-2.7 0-.7-.2-1.3-.7-1.7s-1.1-.7-2-.7-1.6.2-2.1.5c-.5.4-.9.9-.9 1.6h-1.9c.1-1.2.5-2.1 1.4-2.7.9-.6 2-.9 3.4-.9s2.5.4 3.4 1.1c.9.7 1.3 1.7 1.3 2.8s-.3 2-.9 2.6-1.3 1.2-2.3 1.6l-2.7 1.1c-.7.3-1.2.6-1.5 1s-.5.8-.5 1.4v.6h-.2zM501.5 351.2c1.6 0 2.9.6 3.9 1.8.9 1.2 1.4 2.9 1.4 5.2 0 2.3-.5 4-1.4 5.2-.9 1.2-2.2 1.8-3.9 1.8s-2.9-.6-3.9-1.8c-1-1.2-1.4-2.9-1.4-5.2 0-2.3.5-4 1.4-5.2 1-1.2 2.3-1.8 3.9-1.8zm3.6 7c0-1.8-.3-3.1-.9-4.1-.6-.9-1.5-1.4-2.6-1.4-1.2 0-2 .5-2.6 1.4s-.9 2.3-.9 4.1c0 1.8.3 3.1.9 4.1s1.5 1.4 2.6 1.4c1.2 0 2-.5 2.6-1.4.6-.9.9-2.3.9-4.1zM509 352.5c1-.1 1.8-.5 2.5-1.1h1.4V365h-1.7v-11.6c-.7.5-1.5.7-2.2.8v-1.7zM521.2 351.2c.7 0 1.4.2 2.1.5.7.3 1.2.8 1.7 1.4 1 1.3 1.6 2.9 1.6 4.9 0 3.5-1 5.8-2.9 6.8-.7.3-1.4.5-2.2.5-1.5 0-2.7-.4-3.5-1.2-.9-.8-1.3-1.8-1.3-3h1.8c0 .8.3 1.5.8 2s1.1.7 1.9.7 1.4-.1 1.8-.4c1.3-.8 2-2.7 2-5.5 0-.6 0-1.1-.1-1.6-.1 1.2-.6 2-1.3 2.6-.7.6-1.6.9-2.7.9s-2.1-.4-2.9-1.2c-.8-.8-1.2-1.8-1.2-3.1s.4-2.3 1.3-3c.9-.7 1.6-1.3 3.1-1.3zm1.9 2.3c-.5-.5-1.2-.7-2-.7s-1.5.2-2 .7-.8 1.1-.8 2 .3 1.5.8 2 1.2.7 2 .7 1.5-.3 2-.8.8-1.2.8-2-.2-1.4-.8-1.9z"/></g><g><path class="st2" d="M355.1 744.5l3.2 6.5h-.4c-1-2.2-2.1-4.3-3.1-6.4-.5.1-1.1.1-1.7.1h-1.5v6.3h-.4v-6.7h1.9c.5 0 1.1 0 1.5-.1l-3.9-8.1h2.8c3.3 0 5.3 1.7 5.3 4.2-.1 2.2-1.3 3.7-3.7 4.2zm-.1-.4c2.2-.5 3.3-1.8 3.3-3.8 0-2.3-1.9-3.8-4.9-3.8h-2.1l3.7 7.6zM365.1 736.5v6h5.8v.4h-5.8v7.7h6.7v.4h-7.2v-15h7.2v.4l-6.7.1zM376.3 743.4c0-4.3 3.1-7.6 7.2-7.6 1.5 0 3.1.5 4.4 1.2v.4c-1.3-.7-3-1.2-4.4-1.2-3.8 0-6.8 3.1-6.8 7.2s3 7.5 6.8 7.5c1.4 0 3.1-.5 4.4-1.2v.5c-1.2.7-2.9 1.1-4.4 1.1-4 0-7.2-3.5-7.2-7.9zM392.2 743.4c0-4.4 3.1-7.7 7.4-7.7s7.4 3.3 7.4 7.7c0 4.3-3.4 8-7.4 8s-7.4-3.6-7.4-8zm14.4 0c0-4.2-2.9-7.3-7-7.3s-7 3.1-7 7.3c0 4.1 3.2 7.5 7 7.5s7-3.4 7-7.5zM425.4 751l-1.5-2.1c-1.1 1.5-2.8 2.4-4.9 2.4-3.7 0-6.8-3.4-6.8-8 0-4.4 3-7.6 7.3-7.6 1.9 0 3.8.7 5 1.7v.5c-1.3-1-3.2-1.7-5-1.7-4 0-6.9 3.1-6.9 7.2 0 4.3 3 7.5 6.4 7.5 2 0 3.6-.9 4.6-2.4-1.1-1.4-2.1-2.9-3.2-4.3h4.9c0 1.6-.5 3.1-1.3 4.3l1.8 2.4-.4.1zm-1.5-2.7c.7-1 1.1-2.3 1.1-3.6h-3.8l2.7 3.6zM441.4 742.1v9.3l-9.7-14.3v14h-.4v-6-9.3l9.7 14.3v-14h.4v6zM448.2 743.6v-7.5h.4v15h-.4v-7.5zM463.3 736.5h-9.6v-.4H464.1l-9.2 14.5h8.2v.4h-9l9.2-14.5zM469.4 736.5v6h5.8v.4h-5.8v7.7h6.7v.4h-7.2v-15h7.2v.4l-6.7.1zM481.6 736.1h2.7c5 0 8.1 2.8 8.1 7.3 0 4.4-3.5 7.7-8.3 7.7h-2.6v-15h.1zm2.5 14.5c4.6 0 7.9-3.1 7.9-7.3s-3-6.8-7.7-6.8h-2.2v14.1h2zM515.9 736.5h-5V751h-.4v-7.3-7.2h-5v-.4h10.4v.4zM530.6 736.1v15h-.4v-7.5-.6H521v8.1h-.4v-7.5-7.5h.4v6.4h9.2v-6.4h.4zM537.7 736.5v6h5.8v.4h-5.8v7.7h6.7v.4h-7.2v-15h7.2v.4l-6.7.1zM551.7 735.7l5 7.6c1.7-2.5 3.3-5 5-7.6 1 6.4 1.8 10.9 2.5 15.3h-.4c-.7-4.4-1.4-8.8-2.3-14.1l-4.5 6.8v3.6h-.4v-3.6c-1.2-1.9-2.5-3.8-4.5-6.9-.8 5.2-1.6 9.7-2.3 14.1h-.4c.5-4.3 1.2-8.6 2.3-15.2zM570.6 736.5v6h5.8v.4h-5.8v7.7h6.7v.4h-7.2v-15h7.2v.4l-6.7.1zM586.9 744.5l3.2 6.5h-.4c-1-2.2-2.1-4.3-3.1-6.4-.5.1-1.1.1-1.7.1h-1.5v6.3h-.4v-6.7h1.9c.5 0 1.1 0 1.5-.1l-3.9-8.1h2.8c3.3 0 5.3 1.7 5.3 4.2-.2 2.2-1.4 3.7-3.7 4.2zm-.2-.4c2.2-.5 3.3-1.8 3.3-3.8 0-2.3-1.9-3.8-4.9-3.8H583l3.7 7.6z"/></g><g><path class="st1" d="M350.7 795.4c-.7.6-1.5 1-2.6 1s-2.1-.3-3.3-.9v-1.8c1 .7 2 1 2.8 1 .9 0 1.5-.2 1.8-.6s.5-1.1.5-1.9v-9.6h1.7v9.6c.1 1.5-.2 2.6-.9 3.2zM362 789.4c0-.9-.2-1.6-.6-2-.4-.4-1-.6-1.7-.6s-1.3.1-1.8.4-.7.8-.7 1.4h-1.9c0-1.6.8-2.6 2.5-2.9.5-.1 1.1-.2 1.7-.2 1.3 0 2.3.3 3 1 .7.6 1.1 1.6 1.1 3v6.6h-1.5l-.2-1.7c-.6 1.3-1.8 2-3.4 2-1.1 0-2-.3-2.7-.9-.7-.6-1-1.4-1-2.3 0-.9.4-1.6 1.1-2.2.7-.5 1.7-.8 2.8-.8s2.2.2 3.2.6v-1.4h.1zm0 2.4c-1-.3-1.9-.4-2.7-.4s-1.4.1-1.9.4c-.5.3-.7.7-.7 1.3 0 1.3.7 1.9 2.2 1.9.8 0 1.5-.3 2.1-.9s1-1.3 1-2.3zM369.3 787.8c.7-1.5 1.8-2.2 3.5-2.2 1.2 0 2.2.4 2.9 1.2s1 1.9 1 3.3v6.1H375v-6.1c0-1-.2-1.7-.7-2.2s-1.1-.8-2-.8-1.6.4-2.1 1.1c-.5.7-.8 1.7-.8 2.9v5.1h-1.7v-10.3h1.5l.1 1.9zM386.7 794.6h7.9v1.6H385v-2c0-1.6.6-2.8 1.8-3.5.4-.2.8-.5 1.3-.6l2.7-1.1c1.4-.5 2.1-1.4 2.1-2.7 0-.7-.2-1.3-.7-1.7s-1.1-.7-2-.7-1.6.2-2.1.5c-.5.4-.9.9-.9 1.6h-1.9c.1-1.2.5-2.1 1.4-2.7.9-.6 2-.9 3.4-.9s2.5.4 3.4 1.1c.9.7 1.3 1.7 1.3 2.8s-.3 2-.9 2.6c-.6.6-1.3 1.2-2.3 1.6l-2.7 1.1c-.7.3-1.2.6-1.5 1s-.5.8-.5 1.4v.6h-.2zM402.6 782.3c1.6 0 2.9.6 3.9 1.8.9 1.2 1.4 2.9 1.4 5.2s-.5 4-1.4 5.2-2.2 1.8-3.9 1.8-2.9-.6-3.9-1.8-1.4-2.9-1.4-5.2.5-4 1.4-5.2c1-1.2 2.3-1.8 3.9-1.8zm3.5 7.1c0-1.8-.3-3.1-.9-4.1-.6-.9-1.5-1.4-2.6-1.4-1.2 0-2 .5-2.6 1.4s-.9 2.3-.9 4.1.3 3.1.9 4.1c.6.9 1.5 1.4 2.6 1.4 1.2 0 2-.5 2.6-1.4.6-1 .9-2.4.9-4.1zM410 783.6c1-.1 1.8-.5 2.5-1.1h1.4v13.6h-1.7v-11.5c-.7.5-1.5.7-2.2.8v-1.8zM425.4 782.4v9h2.4v1.5h-2.4v3.3h-1.7v-3.3h-7v-1.3l7.1-9.2h1.6zm-6.7 9.1h5V785l-5 6.5zM434.1 789.1h5.9v1.5h-5.9v-1.5zM452 795.4c-.7.6-1.5 1-2.6 1s-2.1-.3-3.3-.9v-1.8c1 .7 2 1 2.8 1 .9 0 1.5-.2 1.8-.6s.5-1.1.5-1.9v-9.6h1.7v9.6c.1 1.5-.3 2.6-.9 3.2zM463.9 794.1c-.7 1.5-1.8 2.2-3.4 2.2-1.2 0-2.1-.3-2.8-1-.7-.6-1.1-1.6-1.1-3v-6.6h1.7v6.4c0 1.7.8 2.6 2.4 2.6.9 0 1.7-.4 2.3-1.1.6-.7.9-1.6.9-2.8v-5.2h1.7v10.3h-1.7v-1.8zM471.6 787.8c.7-1.5 1.8-2.2 3.5-2.2 1.2 0 2.2.4 2.9 1.2s1 1.9 1 3.3v6.1h-1.7v-6.1c0-1-.2-1.7-.7-2.2s-1.1-.8-2-.8-1.6.4-2.1 1.1c-.5.7-.8 1.7-.8 2.9v5.1H470v-10.3h1.5l.1 1.9zM489 794.6h7.9v1.6h-9.6v-2c0-1.6.6-2.8 1.8-3.5.4-.2.8-.5 1.3-.6l2.7-1.1c1.4-.5 2.1-1.4 2.1-2.7 0-.7-.2-1.3-.7-1.7s-1.1-.7-2-.7-1.6.2-2.1.5-.9.9-.9 1.6h-1.9c.1-1.2.5-2.1 1.4-2.7.9-.6 2-.9 3.4-.9s2.5.4 3.4 1.1c.9.7 1.3 1.7 1.3 2.8s-.3 2-.9 2.6-1.3 1.2-2.3 1.6l-2.7 1.1c-.7.3-1.2.6-1.5 1s-.5.8-.5 1.4v.6h-.2zM504.8 782.3c1.6 0 2.9.6 3.9 1.8s1.4 2.9 1.4 5.2-.5 4-1.4 5.2-2.2 1.8-3.9 1.8c-1.6 0-2.9-.6-3.9-1.8s-1.4-2.9-1.4-5.2.5-4 1.4-5.2c1-1.2 2.3-1.8 3.9-1.8zm3.6 7.1c0-1.8-.3-3.1-.9-4.1-.6-.9-1.5-1.4-2.6-1.4-1.2 0-2 .5-2.6 1.4s-.9 2.3-.9 4.1.3 3.1.9 4.1c.6.9 1.5 1.4 2.6 1.4 1.2 0 2-.5 2.6-1.4.6-1 .9-2.4.9-4.1zM512.3 783.6c1-.1 1.8-.5 2.5-1.1h1.4v13.6h-1.7v-11.5c-.7.5-1.5.7-2.2.8v-1.8zM528.1 782.6v1.6l-6.2 12h-2.3l6.5-11.9h-7.2v-1.7h9.2z"/></g><g><path class="st2" d="M112.5 113.8l-.6-10h.4l.6 9.9c.2 2.9 1.9 5 4.5 5s4.3-2 4.5-5l.6-9.9h.4l-.6 10c-.2 3.2-2.1 5.3-4.9 5.3s-4.7-2.1-4.9-5.3zM136.9 118.7l-4.8-8-4.8 8h-.5c1.7-2.8 3.3-5.6 5-8.4-1.1-1.9-2.4-4-3.9-6.5h8.2c-1.5 2.5-2.8 4.6-3.9 6.6l5 8.4-.3-.1zm-4.8-8.8l3.4-5.7h-6.8c1.2 1.9 2.3 3.8 3.4 5.7zM152.2 104.2v6h5.8v.4h-5.8v7.7h6.7v.4h-7.2v-15h7.2v.4l-6.7.1zM174.5 109.8v9.3l-9.7-14.3v14h-.4v-6-9.3l9.7 14.3v-14h.4v6zM193.6 118.7l-1.5-2.1c-1.1 1.5-2.8 2.4-4.9 2.4-3.7 0-6.8-3.4-6.8-8 0-4.4 3-7.6 7.3-7.6 1.9 0 3.8.7 5 1.7v.5c-1.3-1-3.2-1.7-5-1.7-4 0-6.9 3.1-6.9 7.2 0 4.3 3 7.5 6.4 7.5 2 0 3.6-.9 4.6-2.4-1.1-1.4-2.1-2.9-3.2-4.3h4.9c0 1.6-.5 3.1-1.3 4.3l1.8 2.4h-.4v.1zM192 116c.7-1 1.1-2.3 1.1-3.6h-3.8l2.7 3.6zM199.4 111.3v-7.5h.4v15h-.4v-7.5zM216.8 109.8v9.3l-9.7-14.3v14h-.4v-6-9.3l9.7 14.3v-14h.4v6zM223.9 104.2v6h5.8v.4h-5.8v7.7h6.7v.4h-7.2v-15h7.2v.4l-6.7.1zM236.6 104.2v6h5.8v.4h-5.8v7.7h6.7v.4h-7.2v-15h7.2v.4l-6.7.1zM252.9 112.2l3.2 6.5h-.4c-1-2.2-2.1-4.3-3.1-6.4-.5.1-1.1.1-1.7.1h-1.5v6.3h-.4V112h1.9c.6 0 1.1 0 1.5-.1l-3.9-8.1h2.8c3.3 0 5.3 1.7 5.3 4.2-.2 2.2-1.4 3.7-3.7 4.2zm-.2-.4c2.2-.5 3.3-1.8 3.3-3.8 0-2.3-1.9-3.8-4.9-3.8H249l3.7 7.6z"/></g><g><path class="st1" d="M112.4 150.3c2 0 3.7.6 4.9 1.8 1.2 1.2 1.8 2.9 1.8 4.9 0 2.1-.6 3.7-1.8 4.9-1.2 1.2-2.9 1.8-4.9 1.8h-4v-13.6h4v.2zm-2.3 12h2.3c1.5 0 2.7-.5 3.6-1.5s1.3-2.3 1.3-3.8-.4-2.8-1.3-3.8-2.1-1.5-3.6-1.5h-2.3v10.6zM126.2 162.7c1.4 0 2.2-.6 2.4-1.9h1.7c-.2 1-.6 1.8-1.4 2.4-.8.6-1.7.9-2.8.9-1.4 0-2.5-.5-3.4-1.5s-1.3-2.3-1.3-3.9.4-2.9 1.3-3.9 2-1.5 3.5-1.5 2.5.6 3.2 1.7c.7 1.1 1 2.5.7 4.1H123c0 1.1.3 1.9.8 2.6.8.6 1.5 1 2.4 1zm1.3-7.8c-.3-.2-.7-.3-1.2-.3-.9 0-1.6.3-2.1.9s-.8 1.3-.9 2.2h5.5c0-1.4-.4-2.4-1.3-2.8zM137.2 153.3c1.2 0 2.2.3 2.9.9.7.6 1.2 1.4 1.4 2.3l-1.7.2c-.2-.6-.5-1.1-.9-1.4-.4-.3-.9-.5-1.4-.5-.9 0-1.7.3-2.2 1-.6.7-.9 1.6-.9 2.8s.3 2.1.8 2.9c.6.7 1.2 1.1 2.1 1.1.8 0 1.4-.2 1.9-.6.4-.4.6-.9.6-1.6h1.7c0 1.1-.4 2-1.2 2.7-.8.7-1.8 1-3 1-1.3 0-2.4-.5-3.3-1.5-.9-1-1.4-2.3-1.4-4 0-1.6.5-3 1.4-3.9 1-1 2-1.4 3.2-1.4zM150.9 162.3h7.9v1.6h-9.6v-2c0-1.6.6-2.8 1.8-3.5.4-.2.8-.5 1.3-.6l2.7-1.1c1.4-.5 2.1-1.4 2.1-2.7 0-.7-.2-1.3-.7-1.7s-1.1-.7-2-.7c-.9 0-1.6.2-2.1.5-.5.4-.9.9-.9 1.6h-1.9c.1-1.2.5-2.1 1.4-2.7.9-.6 2-.9 3.4-.9s2.5.4 3.4 1.1c.9.7 1.3 1.7 1.3 2.8s-.3 2-.9 2.6c-.6.6-1.3 1.2-2.3 1.6l-2.7 1.1c-.7.3-1.2.6-1.5 1s-.5.8-.5 1.4v.6h-.2zM166.8 150c1.6 0 2.9.6 3.9 1.8.9 1.2 1.4 2.9 1.4 5.2s-.5 4-1.4 5.2c-.9 1.2-2.2 1.8-3.9 1.8-1.6 0-2.9-.6-3.9-1.8s-1.4-2.9-1.4-5.2.5-4 1.4-5.2c1-1.2 2.3-1.8 3.9-1.8zm3.5 7c0-1.8-.3-3.1-.9-4.1-.6-1-1.5-1.4-2.6-1.4-1.2 0-2 .5-2.6 1.4-.6.9-.9 2.3-.9 4.1s.3 3.1.9 4.1c.6 1 1.5 1.4 2.6 1.4 1.2 0 2-.5 2.6-1.4.6-.9.9-2.3.9-4.1zM174.2 151.3c1-.1 1.8-.5 2.5-1.1h1.4v13.6h-1.7v-11.6c-.7.5-1.5.7-2.2.8v-1.7zM186.4 150c.7 0 1.4.2 2.1.5s1.2.8 1.7 1.4c1 1.3 1.6 2.9 1.6 4.9 0 3.5-1 5.8-2.9 6.8-.7.3-1.4.5-2.2.5-1.5 0-2.7-.4-3.5-1.2-.9-.8-1.3-1.8-1.3-3h1.8c0 .8.3 1.5.8 2s1.1.7 1.9.7c.7 0 1.4-.1 1.8-.4 1.3-.8 2-2.7 2-5.5 0-.6 0-1.1-.1-1.6-.1 1.2-.6 2-1.3 2.6s-1.6.9-2.7.9-2.1-.4-2.9-1.2-1.2-1.8-1.2-3.1.4-2.3 1.3-3c.9-.7 1.7-1.3 3.1-1.3zm2 2.3c-.5-.5-1.2-.7-2-.7s-1.5.2-2 .7-.8 1.1-.8 2 .3 1.5.8 2 1.2.7 2 .7 1.5-.3 2-.8.8-1.2.8-2-.3-1.4-.8-1.9zM198.8 156.8h5.9v1.5h-5.9v-1.5zM214.4 155.1c.7-1.2 1.7-1.8 3-1.8s2.5.5 3.4 1.5 1.3 2.3 1.3 3.9-.5 2.9-1.4 3.9-2 1.5-3.3 1.5-2.3-.5-2.9-1.5v6.3h-1.7v-15.4h1.4l.2 1.6zm3 7.5c.8 0 1.5-.3 2.1-1s.9-1.6.9-2.8-.3-2.2-.9-2.9c-.6-.7-1.3-1.1-2.1-1.1s-1.5.3-2 .8-.8 1.2-.8 2.1v2c0 .9.3 1.6.8 2.1s1.2.8 2 .8zM229.8 155c-1.6 0-2.5 1.3-2.5 3.8v5h-1.7v-10.3h1.7v2c.5-1.4 1.4-2.2 2.7-2.2.4 0 .8.1 1.2.2l-.1 1.7c-.4-.2-.8-.2-1.3-.2zM237.4 162.7c1.4 0 2.2-.6 2.4-1.9h1.7c-.2 1-.6 1.8-1.4 2.4-.8.6-1.7.9-2.8.9-1.4 0-2.5-.5-3.4-1.5s-1.3-2.3-1.3-3.9.4-2.9 1.3-3.9 2-1.5 3.5-1.5 2.5.6 3.2 1.7c.7 1.1 1 2.5.7 4.1h-7.1c0 1.1.3 1.9.8 2.6.8.6 1.5 1 2.4 1zm1.3-7.8c-.3-.2-.7-.3-1.2-.3-.9 0-1.6.3-2.1.9s-.8 1.3-.9 2.2h5.5c0-1.4-.5-2.4-1.3-2.8zM245.5 154c.7-.5 1.7-.8 2.9-.8s2.2.3 2.9.8 1.1 1.2 1.1 2h-1.7c-.1-.9-.9-1.4-2.4-1.4-.7 0-1.2.2-1.6.5-.4.3-.6.7-.6 1 0 .4.1.7.4.9.3.3.7.5 1.4.7l2.1.7c.9.3 1.5.6 2 1s.7 1 .7 1.7-.4 1.4-1.1 2-1.8.9-3.2.9-2.4-.3-3.2-.9c-.8-.6-1.2-1.4-1.2-2.4h1.6c0 .6.3 1.1.8 1.5.5.3 1.1.5 1.9.5.7 0 1.4-.2 1.9-.5s.7-.7.7-1.1-.1-.8-.4-1c-.3-.2-.8-.4-1.4-.6l-2-.7c-1.8-.5-2.7-1.5-2.7-2.8 0-.8.4-1.5 1.1-2zM259.9 162.7c1.4 0 2.2-.6 2.4-1.9h1.7c-.2 1-.6 1.8-1.4 2.4-.8.6-1.7.9-2.8.9-1.4 0-2.5-.5-3.4-1.5-.9-1-1.3-2.3-1.3-3.9s.4-2.9 1.3-3.9 2-1.5 3.5-1.5 2.5.6 3.2 1.7c.7 1.1 1 2.5.7 4.1h-7.1c0 1.1.3 1.9.8 2.6.7.6 1.4 1 2.4 1zm1.2-7.8c-.3-.2-.7-.3-1.2-.3-.9 0-1.6.3-2.1.9s-.8 1.3-.9 2.2h5.5c0-1.4-.4-2.4-1.3-2.8zM269.1 155.5c.7-1.5 1.8-2.2 3.5-2.2 1.2 0 2.2.4 2.9 1.2.7.8 1 1.9 1 3.3v6.1h-1.8v-6.1c0-1-.2-1.7-.7-2.2s-1.1-.8-2-.8-1.6.4-2.1 1.1c-.5.7-.8 1.7-.8 2.9v5.1h-1.7v-10.3h1.5l.2 1.9zM285.8 163.5c-1.2.6-2.4.7-3.4.4-.7-.2-1.3-.7-1.6-1.4-.2-.4-.2-.8-.2-1.3v-6.3h-1.7v-1.3h1.7v-2.9h1.7v2.9h3.2v1.3h-3.2v6.3c0 1 .5 1.6 1.5 1.6.5 0 1.1-.1 1.8-.4l.2 1.1z"/></g><g><path class="st1" d="M116.5 935.2h2.1l4.6 13.6h-1.8l-1.2-3.5h-5.4l-1.2 3.5h-1.8l4.7-13.6zm-1.3 8.7h4.5l-2.2-6.7-2.3 6.7zM132.9 946.7c-.7 1.5-1.8 2.2-3.4 2.2-1.2 0-2.1-.3-2.8-1-.7-.6-1.1-1.6-1.1-3v-6.6h1.7v6.4c0 1.7.8 2.6 2.4 2.6.9 0 1.7-.4 2.3-1.1.6-.7.9-1.6.9-2.8v-5.2h1.7v10.3h-1.7v-1.8zM139.3 948.4c-.9-.4-1.3-1.1-1.3-1.9 0-.4.2-.8.5-1.2.3-.4.8-.6 1.3-.7-.8-.7-1.2-1.6-1.2-2.7s.4-2 1.2-2.7 1.7-1 2.8-1c1.1 0 2 .3 2.8.8.1-.8.4-1.4.9-1.8s1.2-.7 2-.7l-.2 1.7c-1.3 0-1.9.5-2 1.6.5.6.8 1.4.8 2.2 0 1.1-.4 2-1.2 2.7-.8.7-1.8 1.1-3 1.1-.8 0-1.5-.2-2.2-.5-.3.1-.5.2-.8.4-.2.2-.3.5-.3.9 0 .8.6 1.1 1.9 1.1h4c1 0 1.7.2 2.3.6.6.4.8 1 .8 1.7 0 1.1-.5 2-1.6 2.9-1.1.9-2.5 1.2-4.2 1.2s-3-.3-4-.9c-1-.6-1.4-1.4-1.4-2.4 0-.6.2-1.1.5-1.5.6-.5 1-.7 1.6-.9zm-.3 2.3c0 .5.3 1 .9 1.4.6.4 1.5.6 2.7.6s2.2-.3 3-.8 1.2-1.1 1.2-1.8c0-.3-.1-.6-.4-.9-.2-.2-.6-.4-1.1-.4h-4.2c-.7 0-1.3.2-1.7.5-.2.4-.4.8-.4 1.4zm6.4-8.8c0-.7-.2-1.3-.7-1.8s-1.1-.7-1.8-.7-1.4.2-1.8.7-.7 1.1-.7 1.8.2 1.4.7 1.8 1.1.7 1.8.7c.8 0 1.4-.2 1.8-.7.4-.4.7-1.1.7-1.8zM157.1 947.2h7.9v1.6h-9.6v-2c0-1.6.6-2.8 1.8-3.5.4-.2.8-.5 1.3-.6l2.7-1.1c1.4-.5 2.1-1.4 2.1-2.7 0-.7-.2-1.3-.7-1.7s-1.1-.7-2-.7c-.9 0-1.6.2-2.1.5-.5.4-.9.9-.9 1.6h-1.9c.1-1.2.5-2.1 1.4-2.7.9-.6 2-.9 3.4-.9s2.5.4 3.4 1.1c.9.7 1.3 1.7 1.3 2.8s-.3 2-.9 2.6c-.6.6-1.3 1.2-2.3 1.6l-2.7 1.1c-.7.3-1.2.6-1.5 1s-.5.8-.5 1.4v.6h-.2zM173 934.9c1.6 0 2.9.6 3.9 1.8.9 1.2 1.4 2.9 1.4 5.2s-.5 4-1.4 5.2c-.9 1.2-2.2 1.8-3.9 1.8-1.6 0-2.9-.6-3.9-1.8s-1.4-2.9-1.4-5.2.5-4 1.4-5.2c1-1.2 2.3-1.8 3.9-1.8zm3.5 7c0-1.8-.3-3.1-.9-4.1-.6-1-1.5-1.4-2.6-1.4-1.2 0-2 .5-2.6 1.4-.6.9-.9 2.3-.9 4.1s.3 3.1.9 4.1c.6.9 1.5 1.4 2.6 1.4 1.2 0 2-.5 2.6-1.4.6-.9.9-2.3.9-4.1zM180.4 936.2c1-.1 1.8-.5 2.5-1.1h1.4v13.6h-1.7v-11.6c-.7.5-1.5.7-2.2.8v-1.7zM197.4 938.6c0 1.4-.8 2.4-2.4 3 .9.2 1.6.6 2.1 1.2s.8 1.3.8 2.2c0 1.2-.5 2.2-1.4 2.9-.9.7-2.1 1.1-3.6 1.1s-2.7-.4-3.8-1.2c-1-.8-1.6-1.9-1.6-3.2h1.8c0 .9.4 1.6 1 2.1.7.5 1.5.7 2.5.7s1.8-.2 2.3-.7c.6-.5.8-1.1.8-1.8s-.3-1.3-.8-1.7c-.5-.5-1.4-.7-2.6-.7h-1.6v-1.4h1.1c1 0 1.9-.2 2.5-.6.6-.4.9-1 .9-1.7s-.2-1.3-.7-1.7-1.1-.7-1.9-.7-1.5.1-2 .4c-.5.3-.9.8-1.1 1.6h-1.8c.2-1.2.7-2.1 1.5-2.7.8-.6 1.9-.9 3.2-.9 1.3 0 2.4.3 3.3 1 1.1.9 1.5 1.8 1.5 2.8z"/></g><g><path class="st1" d="M174.7 472.1c-.3.5-.8 1-1.5 1.3-.6.3-1.4.5-2.3.5-1.4 0-2.5-.3-3.4-1-.9-.7-1.4-1.6-1.5-2.8h3.2c0 .5.2.8.5 1.1.3.3.6.4 1.1.4.4 0 .7-.1.9-.3.2-.2.3-.5.3-.8s-.1-.6-.3-.8c-.2-.2-.5-.4-.8-.5s-.7-.3-1.3-.5c-.8-.3-1.4-.5-1.9-.8s-.9-.6-1.3-1.1c-.4-.5-.5-1.1-.5-1.9 0-.7.2-1.4.6-1.9.4-.5.9-.9 1.5-1.2.7-.3 1.4-.4 2.3-.4 1.4 0 2.5.3 3.3 1s1.3 1.5 1.4 2.7h-3.2c-.1-.4-.2-.7-.4-1-.2-.3-.6-.4-1-.4-.3 0-.6.1-.8.3-.2.2-.3.5-.3.8s.1.5.3.7.4.4.7.5c.3.1.7.3 1.3.5.8.3 1.4.5 1.9.8s.9.6 1.3 1.1c.4.5.5 1.2.5 2-.1.5-.3 1.1-.6 1.7zM185.9 462c.9.5 1.7 1.3 2.2 2.2s.8 2 .8 3.3c0 1.2-.3 2.3-.8 3.3s-1.3 1.7-2.2 2.3c-.9.5-2 .8-3.1.8s-2.2-.3-3.1-.8c-.9-.5-1.7-1.3-2.2-2.3s-.8-2.1-.8-3.3c0-1.2.3-2.3.8-3.3s1.3-1.7 2.2-2.2c.9-.5 2-.8 3.1-.8s2.1.3 3.1.8zm-5.5 3c-.6.6-.9 1.5-.9 2.6s.3 1.9.9 2.6c.6.6 1.4 1 2.3 1 1 0 1.7-.3 2.3-1 .6-.6.9-1.5.9-2.6s-.3-1.9-.9-2.6c-.6-.6-1.4-1-2.3-1-1 0-1.7.3-2.3 1zM198.7 461.4v2.4h-5.1v2.7h3.9v2.3h-3.9v5h-3v-12.3h8.1v-.1zM209 461.4v2.4h-3.3v10h-3v-10h-3.3v-2.4h9.6zM227.1 461.4l-2.9 12.3h-3.7l-2-8.2-2 8.2h-3.7l-2.9-12.3h3.2l1.6 8.9 2.2-8.9h3.3l2.2 8.9 1.6-8.9h3.1zM236.3 471.5h-4.6l-.8 2.2h-3.1l4.5-12.2h3.4l4.5 12.2H237l-.7-2.2zm-.8-2.3l-1.5-4.5-1.6 4.5h3.1zM247.7 473.7L245 469h-.7v4.7h-3v-12.3h5.1c1 0 1.8.2 2.5.5s1.2.8 1.5 1.4.5 1.3.5 2c0 .9-.2 1.7-.7 2.3-.5.6-1.2 1.1-2.2 1.3l2.9 4.8h-3.2zm-3.4-6.6h1.8c.6 0 1-.1 1.3-.4s.4-.6.4-1.2c0-.5-.1-.9-.4-1.2-.3-.3-.7-.4-1.3-.4h-1.8v3.2zM255.4 463.8v2.6h4.2v2.2h-4.2v2.7h4.7v2.4h-7.7v-12.3h7.7v2.4h-4.7zM169.3 482.3v12.3h-3v-12.3h3zM182.3 494.7h-3l-5-7.6v7.6h-3v-12.3h3l5 7.6v-7.6h3v12.3zM193.9 483.5c1 .8 1.7 1.9 2 3.3h-3.2c-.2-.6-.6-1-1.1-1.3s-1.1-.5-1.7-.5c-.9 0-1.6.3-2.1 1-.5.6-.8 1.5-.8 2.6s.3 1.9.8 2.6c.5.6 1.2 1 2.1 1 .7 0 1.2-.2 1.7-.5s.8-.8 1.1-1.3h3.2c-.3 1.4-1 2.5-2 3.3s-2.3 1.2-3.9 1.2c-1.2 0-2.2-.3-3.2-.8-.9-.5-1.6-1.3-2.1-2.2s-.7-2-.7-3.3.2-2.3.7-3.3 1.2-1.7 2.1-2.2c.9-.5 2-.8 3.2-.8 1.6-.1 2.9.3 3.9 1.2zM200.5 482.3v7.1c0 .8.2 1.4.5 1.9.4.4.9.6 1.6.6s1.2-.2 1.6-.6c.4-.4.5-1.1.5-1.9v-7.1h3v7.1c0 1.2-.2 2.1-.7 2.9s-1.1 1.4-1.9 1.8-1.7.6-2.7.6-1.9-.2-2.6-.6-1.3-1-1.8-1.8c-.4-.8-.6-1.8-.6-2.9v-7.1h3.1zM218.9 489.4c.4.5.7 1.2.7 1.9 0 1.1-.4 1.9-1.1 2.5-.7.6-1.7.9-3 .9h-5.7v-12.3h5.6c1.3 0 2.2.3 2.9.8s1 1.3 1 2.3c0 .7-.2 1.4-.6 1.9-.4.5-.9.8-1.6 1 .8.1 1.4.5 1.8 1zm-6.2-2h2c1 0 1.6-.4 1.6-1.3s-.5-1.3-1.6-1.3h-1.9v2.6h-.1zm3.8 3.5c0-.4-.1-.8-.4-1-.3-.2-.7-.4-1.2-.4h-2.1v2.8h2.1c1.1-.1 1.6-.5 1.6-1.4zM228.8 492.4h-4.6l-.8 2.2h-3.2l4.5-12.2h3.4l4.5 12.2h-3.2l-.6-2.2zm-.8-2.2l-1.5-4.5-1.6 4.5h3.1zM242.7 482.3v2.4h-3.3v10h-3v-10h-3.3v-2.4h9.6zM253 483c.9.5 1.7 1.3 2.2 2.2s.8 2 .8 3.3c0 1.2-.3 2.3-.8 3.3s-1.3 1.7-2.2 2.3c-.9.5-2 .8-3.1.8s-2.2-.3-3.1-.8c-.9-.5-1.7-1.3-2.2-2.3s-.8-2.1-.8-3.3c0-1.2.3-2.3.8-3.3s1.3-1.7 2.2-2.2 2-.8 3.1-.8 2.2.2 3.1.8zm-5.5 2.9c-.6.6-.9 1.5-.9 2.6s.3 1.9.9 2.6c.6.6 1.4 1 2.3 1 1 0 1.7-.3 2.3-1 .6-.6.9-1.5.9-2.6s-.3-1.9-.9-2.6c-.6-.6-1.4-1-2.3-1s-1.7.3-2.3 1zM264.1 494.7l-2.7-4.7h-.7v4.7h-3v-12.3h5.1c1 0 1.8.2 2.5.5s1.2.8 1.5 1.4c.3.6.5 1.3.5 2 0 .9-.2 1.7-.7 2.3-.5.6-1.2 1.1-2.2 1.3l2.9 4.8h-3.2zm-3.4-6.7h1.8c.6 0 1-.1 1.3-.4.3-.3.4-.6.4-1.2 0-.5-.1-.9-.4-1.2-.3-.3-.7-.4-1.3-.4h-1.8v3.2z"/></g><g><defs><path id="SVGID_1_" d="M110.8 872.1h42v47h-42z"/></defs><clipPath id="SVGID_2_"><use xlink:href="#SVGID_1_" overflow="visible"/></clipPath><g clip-path="url(#SVGID_2_)"><path class="st4" d="M136.1 913h-8.7c-.9 0-1.6-.7-1.6-1.6 0-.9.7-1.6 1.6-1.6h8.7c.9 0 1.6.7 1.6 1.6 0 .9-.8 1.6-1.6 1.6zm-8.7-2.4c-.5 0-.9.4-.9.8 0 .5.4.8.9.8h8.7c.5 0 .9-.4.9-.8 0-.5-.4-.8-.9-.8h-8.7zM131.7 919.1c-1.2 0-2.2-.8-2.5-1.9-1.6-.2-2.7-1.5-2.7-3.1v-.4h10.6v.4c0 1.6-1.2 2.9-2.7 3.1-.4 1.1-1.5 1.9-2.7 1.9zm-4.5-4.7c.2 1.1 1.1 2 2.3 2.1h.3v.3c.1.9.9 1.6 1.9 1.6s1.7-.7 1.9-1.6v-.3h.3c1.2-.1 2.1-.9 2.3-2.1h-9zM137.4 909.2h-11.5v-4.1c-1.1-1.8-2.4-3.7-3.7-5.4-1.7-2.1-2.6-4.7-2.6-7.3 0-6.6 5.4-11.9 12.1-11.9 6.7 0 12.1 5.3 12.1 11.9 0 2.7-.9 5.2-2.6 7.3-1.2 1.5-2.6 3.5-3.8 5.5v4zm-10.7-.7h10.1V905l.1-.1c1.2-2 2.7-4.1 3.9-5.6 1.6-2 2.4-4.4 2.4-6.9 0-6.2-5.1-11.2-11.4-11.2-6.3 0-11.4 5-11.4 11.2 0 2.5.8 4.9 2.4 6.9 1.4 1.7 2.7 3.6 3.8 5.5l.1.1v3.6z"/><path class="st4" d="M127.8 896.1l-.8.2 2.8 12.3.8-.2-2.8-12.3zM135.6 896.1l-2.8 12.6.7.1 2.8-12.6-.7-.1zM133.8 916.5h-4.1v.7h4.1v-.7z"/><path d="M131.1 900.5l-.7-2.7-2 1.3-.3-.4 2.6-1.7.5 1.9 1.3-3.2 1.1 3.1 1.9-.9.2.5-2.5 1.1-.8-2.3-1.3 3.3z" fill="#fff" stroke="#ffd747" stroke-width=".5"/><path class="st6" d="M132.2 878c-.2 0-.3-.1-.3-.3v-5.3c0-.2.1-.3.3-.3.2 0 .3.1.3.3v5.3c0 .2-.2.3-.3.3zM140.4 880h-.2c-.1-.1-.2-.3-.1-.4l2.8-4.5c.1-.1.3-.2.4-.1.1.1.2.3.1.4l-2.8 4.5s-.1.1-.2.1zM145.5 886.4c-.1 0-.2-.1-.3-.2-.1-.2 0-.3.1-.4l4.8-2.5c.2-.1.3 0 .4.1.1.2 0 .3-.1.4l-4.8 2.5c.1 0 0 .1-.1.1zM152.5 893.9l-5.4-.3c-.2 0-.3-.2-.3-.3 0-.2.2-.3.3-.3l5.4.3c.2 0 .3.2.3.3 0 .2-.2.3-.3.3zM149 904.6c-.1 0-.1 0-.2-.1l-4.4-3c-.1-.1-.2-.3-.1-.4.1-.1.3-.2.4-.1l4.4 3c.1.1.2.3.1.4 0 .1 0 .2-.2.2zM123.1 880c-.1 0-.2-.1-.3-.1l-2.8-4.5c-.1-.1 0-.3.1-.4.1-.1.3 0 .4.1l2.8 4.5c.1.1 0 .3-.2.4.2 0 .1 0 0 0zM118 886.4h-.1l-4.8-2.5c-.2-.1-.2-.3-.1-.4.1-.2.3-.2.4-.1l4.8 2.5c.2.1.2.3.1.4-.1 0-.2.1-.3.1zM111.1 893.9c-.2 0-.3-.1-.3-.3s.1-.3.3-.3l5.4-.3c.2 0 .3.1.3.3s-.1.3-.3.3l-5.4.3zM114.5 904.6c-.1 0-.2 0-.3-.1s-.1-.3.1-.4l4.4-3c.1-.1.3-.1.4.1.1.1.1.3-.1.4l-4.5 3c.1-.1.1 0 0 0z"/></g></g><path class="st1" d="M130.6 36.8c3 0 5.8.4 8.5 1.3 2.6.9 4.9 2.2 6.8 3.9 1.9 1.8 3.4 3.9 4.5 6.6 1.1 2.6 1.6 5.7 1.6 9.3 0 3.1-.4 6-1.3 8.6-.9 2.6-2.2 4.9-4 6.8s-4 3.4-6.7 4.5c-2.6 1.1-5.8 1.6-9.4 1.6h-20.3V36.8h20.3zm-.8 34.7c1.5 0 2.9-.2 4.4-.7 1.4-.4 2.6-1.2 3.8-2.2 1.1-1 2-2.3 2.6-4 .7-1.6 1-3.6 1-6 0-2.1-.2-4.1-.7-5.8-.5-1.7-1.2-3.2-2.3-4.4-.9-1.2-2.3-2.2-4.1-2.8-1.7-.7-3.9-1-6.4-1h-7.4v26.9h9.1z"/><path class="st1" d="M162.2 36.8v34.8h23v7.9h-33.4V36.8h10.4z"/><path d="M209.3 36.8h9.6v7.9h-9.6" fill="#32bbaf"/><path class="st1" d="M203.1 36.8h-33.6v7.9h18.6v34.8h10.4V44.6h9.4v-7.9l-4.8.1z"/><path class="st1" d="M202.1 65.4v12.5h7.7V79h-9V65.4h1.3z"/><path class="st1" d="M215.7 65.4l5.4 13.7h-1.4l-1.7-4.2h-6.2l-1.6 4.2h-1.4l5.5-13.7h1.4zm1.9 8.3l-2.6-7-2.7 7h5.3zM227.4 65.4c.6 0 1.1 0 1.6.2.5.1 1 .3 1.4.5.4.3.7.6 1 1 .3.5.4 1 .4 1.6 0 .4 0 .7-.2 1-.1.3-.3.6-.5.9s-.5.5-.8.7-.6.3-1 .4c.9.1 1.6.5 2.1 1.1s.8 1.3.8 2.3v.8c0 .3-.1.5-.2.8-.1.3-.3.6-.5.8-.2.3-.5.5-.9.8-.4.2-.8.4-1.3.5s-1.2.2-1.9.2h-5.8V65.4h5.8zm0 6c.5 0 1 0 1.3-.2.4-.1.7-.3 1-.5s.5-.5.6-.8.2-.6.2-.9c0-1.7-1-2.6-3.1-2.6h-4.5v4.9l4.5.1zm0 6.6c.5 0 .9 0 1.4-.1.4-.1.8-.3 1.1-.5s.6-.5.8-.9.3-.8.3-1.4c0-.9-.3-1.6-.9-2-.6-.4-1.5-.7-2.7-.7h-4.5v5.5l4.5.1zM234.5 76.3c.2.5.5.8 1 1.1.4.3.9.5 1.4.6s1.1.2 1.8.2c.4 0 .8 0 1.2-.2.4-.1.8-.3 1.2-.5s.7-.5.9-.9c.3-.3.4-.8.4-1.3 0-.4-.1-.7-.3-1s-.4-.5-.7-.7-.6-.3-.9-.5c-.3-.1-.7-.2-1-.3l-3.1-.8c-.4-.1-.8-.2-1.2-.4-.4-.2-.7-.4-1-.6-.3-.3-.5-.6-.7-.9s-.3-.8-.3-1.3c0-.3.1-.7.2-1.2s.4-.9.7-1.3.8-.7 1.4-1c.6-.3 1.4-.4 2.4-.4.7 0 1.3.1 1.9.3.6.2 1.1.5 1.6.8s.8.8 1.1 1.3.4 1.1.4 1.8h-1.3c0-.5-.1-1-.3-1.4s-.5-.7-.8-1-.7-.5-1.2-.6-.9-.2-1.4-.2-.9 0-1.3.1-.8.3-1.1.5-.5.5-.8.8c-.2.3-.3.8-.3 1.3 0 .3 0 .6.2.8.1.3.3.4.5.6s.4.3.7.4.5.2.8.3l3.3.8c.5.1.9.3 1.4.5.4.2.8.4 1.1.7.3.3.6.6.8 1s.3.9.3 1.4v.6c0 .3-.1.5-.2.8-.1.3-.3.6-.5.9s-.5.5-.9.8-.9.4-1.4.6c-.6.1-1.3.2-2.1.2s-1.6-.1-2.2-.3c-.7-.2-1.3-.5-1.8-.8-.5-.4-.8-.9-1.1-1.5s-.4-1.3-.3-2.2h1.3c-.1 1.1 0 1.7.2 2.1zM243.7 65.4v-.8h4.5v.8h-1.7v3.7h-1.1v-3.7h-1.7zm6.8-.7l1.3 3.2 1.3-3.2h1.5v4.4h-1v-3.6l-1.4 3.6h-.8l-1.5-3.6v3.6h-1v-4.4h1.6z"/><path d="M366.7 245c1 .1 1.9.1 2.9.3 2.1.3 4.2 1.1 6 2.1 1.5.9 3 1.8 4.1 3.2.2.2.5.4.7.6 1.6 1.7 2.8 3.6 3.7 5.8 1.1 2.5 1.6 5.2 1.5 8-.1 4.7-1.9 9.3-5.1 12.8-.2.2-.5.4-.7.6-.2.2-.3.4-.4.5-1.6 1.5-3.4 2.7-5.3 3.5-2.6 1.2-5.4 1.7-8.3 1.7-.4 0-.7 0-1.1-.1-.9-.1-1.9-.2-2.8-.4-2.2-.5-4.3-1.3-6.2-2.6-.9-.6-1.7-1.2-2.5-1.9-.3-.2-.5-.5-.8-.8-.2-.2-.4-.3-.6-.5-1.6-1.7-2.8-3.6-3.7-5.7-1.1-2.5-1.6-5.2-1.5-8 .1-.9.1-1.8.2-2.7.3-2.2 1.1-4.2 2.1-6.2.8-1.4 1.7-2.7 2.8-3.9.2-.3.5-.5.8-.7.3-.3.5-.6.8-.8 1.5-1.3 3.1-2.3 4.8-3.1 2.9-1.3 5.7-1.8 8.6-1.7zm-4.3 12.1c1.1-1.1 2.4-1.8 3.8-2.1.4-.1.7 0 1 .3l.3.3c.5.7.8 1.5.8 2.4 0 .5.1 1.1-.1 1.6-.1.2 0 .5 0 .7-.2 1.4-.8 2.6-1.9 3.5l-.1.1h.2c.7-.2 1.4-.6 2-1.1s1-1.2 1.3-1.9c.3-.8.4-1.7.5-2.6v-1.7c0-.4 0-.9.1-1.3.1-.7.4-1.2 1-1.5.9-.4 1.7-.9 2.2-1.7.3-.4.5-.7.6-1.1v-.2c-.1 0-.2.1-.2.1-.2.2-.4.4-.7.6-.8.6-1.8 1-2.8 1.2s-2 .3-3 .5c-2.2.4-4 1.6-5.2 3.5-.1.2-.2.2-.4.1-.4-.3-.9-.6-1.3-.9-.3-.2-.5-.4-.7-.6-.2-.2-.4-.5-.5-.8-.1-.2 0-.5 0-.7s.1-.5.1-.7c0-.3 0-.7-.1-1-.1-.8-.4-1.5-.9-2.1l-.2-.2v.2c.3 1.1.3 2.3 0 3.4s-.8 2.2-1.2 3.2c-.4.9-.6 2-.6 3 0 .3 0 .7.1 1 .1.8.4 1.6.8 2.3.1.2.2.3.3.5h.1v-.2c0-.1-.1-.2-.1-.2-.2-.9-.2-1.7-.1-2.6.1-.5.3-1.1.4-1.6.1-.3.3-.5.7-.6.7-.2 1.5-.2 2.2.1.7.2 1.3.6 1.8 1 1 .7 1.9 1.5 2.4 2.6.2.5.5 1.1.5 1.6v.1h.1c0-.1.1-.3.1-.4.2-1.1.1-2.2-.3-3.1-.4-.9-1.1-1.7-2-2.3l-1-.7zm7.3 14.9c-.1 0-.2 0-.2.1-1 1.1-2.4 1.9-3.8 2.2-.4.1-.7 0-.9-.3-.4-.4-.8-.9-.9-1.4-.3-.9-.4-1.8-.3-2.8 0-.1.1-.2.1-.3v-.9c.2-1.3.7-2.4 1.8-3.2 0 0 0-.1.1-.1h-.1c-.3.1-.6.3-.9.4-1.1.7-2 1.6-2.4 2.9-.2.6-.3 1.3-.4 2-.1.8 0 1.6 0 2.3 0 .3-.1.5-.1.8v.1c.1.3 0 .6-.1.9-.1.4-.3.7-.6.9-.4.2-.7.4-1.1.6-.8.5-1.4 1.1-1.8 1.9-.1.3-.2.5-.3.9.1 0 .2-.1.2-.1.1-.1.2-.2.3-.4.8-.8 1.8-1.4 3-1.7 1-.3 2.1-.4 3.1-.7 1.7-.4 3.1-1.1 4.2-2.5.3-.4.6-.8.8-1.2.2-.1.3-.2.3-.4zm4.5-7c0 .1 0 .2.1.2.3.9.4 1.9.3 2.9-.1.5-.1.9-.2 1.4-.1.4-.4.7-.8.8-.5.2-1 .2-1.5.1-.7-.1-1.3-.4-1.9-.7-.8-.4-1.5-.9-2.1-1.4-.2-.2-.4-.4-.6-.7-.5-.6-.9-1.4-1-2.2l-.1-.1-.1.1c-.1.7-.2 1.4 0 2s.3 1.1.6 1.6c.4.7.9 1.2 1.6 1.7.6.4 1.3.8 1.9 1.2.7.4 1.3.8 2 1.2.2.1.4.4.5.6.1.2.2.5.1.8 0 .5 0 1 .1 1.6.2.8.4 1.5 1 2.1.1.1.2.2.4.3h.1c0-.1 0-.1-.1-.2-.4-.9-.4-1.8-.3-2.8.1-1 .4-2 .8-3 .5-1.2.8-2.5.8-3.8 0-.2 0-.4-.1-.6l-.6-2.1c-.1-.4-.4-.7-.7-1.1-.1.1-.2.1-.2.1zm-13.3 6.1l-.1-.1c-.4-.2-.7-.3-1.1-.4-.6-.3-1.2-.7-1.6-1.2l-.3-.3-.7-.7c-.2-.2-.2-.5-.1-.8.2-.6.6-1.2 1.1-1.6.6-.5 1.3-.9 2-1.2.6-.2 1.1-.4 1.7-.6.6-.1 1.2-.1 1.8-.1.5.1 1 .2 1.5.4h.2l-.1-.2-.1-.1c-.1-.1-.2-.3-.4-.4-.9-.8-2.1-1-3.2-1.2h-.2c-.1 0-.2.1-.3.1-.3.1-.5.1-.8.1-1 .2-2 .7-3 1.1-.7.3-1.3.5-2 .7-.4.1-.8 0-1.2-.3-.7-.6-1.5-1.1-2.3-1.3-.5-.2-1.1-.2-1.6-.1-.1 0-.1.1-.2.1 0 0 0 .1.1.1l.2.1c.8.2 1.5.7 2.2 1.3.9.8 1.5 1.8 2.2 2.8.4.6.8 1.2 1.3 1.7.6.6 1.4 1.1 2.2 1.5.7.3 1.5.5 2.3.7.2 0 .4-.1.5-.1zm5.6-6.4c.1.2.3.3.4.4.8.6 1.8 1 2.8 1.1h.8c1-.1 1.9-.5 2.8-.9.9-.5 1.8-1 2.8-1.5.7-.3 1.3-.4 2 .1.3.2.6.4 1 .6.7.3 1.5.5 2.3.5.2 0 .5-.1.7-.2l-.1-.1h-.1c-.5-.2-1-.3-1.5-.5-.6-.3-1.2-.8-1.7-1.2-.3-.3-.6-.7-.9-1-.2-.2-.4-.4-.6-.7-.4-.5-.8-1-1.2-1.4-1-.9-2-1.6-3.3-1.9-.6-.1-1.2-.2-1.9-.3-.2 0-.3.1-.5.1 0 .1.1.1.1.1 1.5.3 2.7 1.1 3.8 2.2.3.3.4.8.3 1.2-.1.7-.6 1.2-1 1.7-.7.7-1.5 1.1-2.3 1.5-1 .5-2.2.7-3.4.6-.4 0-.7-.2-1.1-.2 0-.2-.1-.2-.2-.2zm-9.3-9.2c0-.2 0-.3-.1-.5s-.2-.3-.3-.4c-.3-.3-.6-.4-1-.5h-.1l-.3.1c-.4.1-.7.4-.8.7s-.2.5-.1.9c.3.7.8 1.1 1.5 1 .3 0 .6-.2.9-.5.2-.1.3-.5.3-.8zm20.7 17.4c0-.7-.6-1.4-1.3-1.4-.4 0-.7.1-1 .4s-.5.6-.5 1c0 .3.2.7.4 1 .3.3.6.4 1 .4.2 0 .4 0 .5-.1.2-.1.3-.2.4-.3.1-.1.2-.3.3-.5.2-.2.2-.4.2-.5zm-13.9 6.4c.4 0 .7-.2 1-.4.3-.3.4-.6.5-1 0-.6-.8-1.4-1.5-1.4-.3 0-.6.2-.9.4-.3.2-.5.6-.5 1 0 .2 0 .4.1.5.1.2.2.3.3.5.1.2.3.2.5.3.1 0 .3.1.5.1zm-9.4-11.1c0-.8-.7-1.4-1.4-1.4-.3 0-.7.1-.9.4-.2.2-.4.6-.4.9 0 .9.6 1.5 1.4 1.5.8-.1 1.2-.6 1.3-1.4zm22.3-8.3c0 .7.7 1.4 1.4 1.4.4 0 .7-.2 1-.5.3-.3.4-.7.4-1 0-.7-.7-1.3-1.4-1.3-.4 0-.7.2-1 .4-.2.3-.4.7-.4 1zm-8.7-7c.4 0 .7-.1.9-.4.3-.3.5-.7.5-1s-.2-.6-.4-.9c-.2-.3-.6-.4-1-.5-.4 0-.7.2-1 .4-.3.3-.4.6-.4 1 0 .2 0 .4.1.5.1.2.2.3.3.4.1.1.3.2.4.3.2.1.4.2.6.2z" fill="#9970ff"/><path class="st1" d="M407.1 258.5c1.5 0 2.8.5 3.7 1.5s1.4 2.4 1.4 4.2v7.7h-3.4v-7.3c0-1.1-.3-1.9-.8-2.4-.5-.6-1.3-.9-2.2-.9-1 0-1.7.3-2.3.9-.6.6-.9 1.5-.9 2.7v7.1h-3.4v-17.8h3.4v7.1c.4-.9.9-1.6 1.7-2.1s1.8-.7 2.8-.7zm20.8.2V272h-3.4v-2.7c-.4.9-.9 1.6-1.8 2.1-.8.5-1.7.7-2.8.7-1.5 0-2.8-.5-3.7-1.5s-1.4-2.4-1.4-4.2v-7.7h3.4v7.3c0 1.1.3 1.9.8 2.5s1.3.9 2.2.9c1 0 1.8-.3 2.3-.9.6-.6.9-1.5.9-2.7v-7.1h3.5zm20-.2c1.6 0 2.9.5 3.8 1.5.9 1 1.4 2.4 1.4 4.2v7.7h-3.4v-7.3c0-1-.3-1.8-.8-2.4s-1.2-.8-2.1-.8c-.9 0-1.7.3-2.3.9s-.8 1.5-.8 2.6v7.1h-3.4v-7.3c0-1-.3-1.8-.8-2.4s-1.2-.8-2.1-.8c-.9 0-1.7.3-2.3.9s-.8 1.5-.8 2.6v7.1h-3.4v-13.3h3.4v2.5c.4-.9.9-1.5 1.7-2s1.7-.7 2.7-.7c1.1 0 2 .3 2.8.8s1.4 1.2 1.8 2.2c.4-.9 1-1.6 1.8-2.2.8-.7 1.7-.9 2.8-.9zm7.8-3.6c0-.5.2-1 .6-1.3.4-.4.9-.5 1.5-.5s1.1.2 1.5.5.6.8.6 1.3-.2 1-.6 1.3c-.4.3-.9.5-1.5.5s-1.1-.2-1.5-.5c-.4-.4-.6-.8-.6-1.3zm3.8 3.8V272h-3.4v-13.3h3.4zm10.9-.2c1.5 0 2.8.5 3.7 1.5s1.4 2.4 1.4 4.2v7.7h-3.4v-7.3c0-1.1-.3-1.9-.8-2.4-.5-.6-1.3-.9-2.2-.9-1 0-1.7.3-2.3.9-.6.6-.9 1.5-.9 2.7v7.1h-3.4v-13.3h3.4v2.7c.4-.9.9-1.6 1.7-2.1.9-.6 1.8-.8 2.8-.8zm14.2 0c1.3 0 2.5.3 3.5.8s1.9 1.3 2.4 2.4c.6 1 .9 2.2.9 3.6s-.3 2.6-.9 3.6-1.4 1.8-2.4 2.4c-1 .5-2.2.8-3.5.8s-2.5-.3-3.5-.8c-1-.6-1.8-1.4-2.4-2.4s-.9-2.2-.9-3.6.3-2.6.9-3.6 1.4-1.8 2.4-2.4c1-.5 2.2-.8 3.5-.8zm0 2.9c-.9 0-1.7.3-2.4 1s-1 1.6-1 2.9.3 2.2 1 2.9c.7.7 1.5 1 2.4 1s1.7-.3 2.4-1 1-1.6 1-2.9c0-1.3-.3-2.2-1-2.9-.7-.6-1.5-1-2.4-1zm13.8-2.9c1.6 0 2.9.4 3.9 1.2 1 .8 1.6 1.9 1.8 3.3h-3.2c-.1-.6-.4-1.2-.9-1.5-.4-.4-1-.6-1.8-.6-.6 0-1 .1-1.3.4s-.5.6-.5 1.1c0 .4.1.7.4.9.3.2.6.4 1 .5s.9.3 1.7.5c1 .2 1.8.5 2.4.7.6.2 1.2.6 1.6 1.2.5.5.7 1.2.7 2.2 0 1.1-.4 2.1-1.3 2.8-.9.7-2.1 1.1-3.6 1.1-1.7 0-3.1-.4-4.2-1.2-1-.8-1.7-1.9-1.9-3.3h3.2c.1.7.4 1.2.9 1.6.5.4 1.1.6 1.9.6.6 0 1-.1 1.3-.4.3-.3.5-.7.5-1.1s-.1-.7-.4-.9c-.3-.2-.6-.4-1-.6-.4-.1-.9-.3-1.7-.5-1-.2-1.8-.4-2.4-.7-.6-.2-1.1-.6-1.6-1.1-.4-.5-.6-1.2-.6-2.1 0-1.2.4-2.1 1.3-2.8.9-.7 2.2-1.3 3.8-1.3z"/><g><path class="st1" d="M486.6 702.1v-7.7c0-3.2 1.4-4.6 4.4-4.6h4.8c2.8.1 4.1 1.6 4.1 4.4v7.7c0 2.9-1.5 4.4-4.3 4.4-1.9 0-3.7.1-5.6 0-1.5-.1-1.9.5-1.7 1.9.1.5.1 1.1 0 1.6-.1.7.6 1.8-.9 1.7-1.3 0-.8-1-.8-1.7v-7.7zm1.8-3v4.7c0 .8.2 1 1 1h5.6c2.2 0 3.2-1 3.2-3.2v-7.2c0-1.8-.7-2.7-2.5-3-1.6-.3-3.2-.3-4.8 0-1.7.3-2.5 1.2-2.5 3.1-.1 1.6 0 3.1 0 4.6z"/><path class="st9" d="M376.5 694.2c0 2.6.1 5.2 0 7.8-.1 2.8-1.3 4.1-3.9 4.3-2 .1-4 .1-5.9 0-2.1-.1-3.4-1.6-3.5-3.8-.1-2.8-.1-5.7 0-8.5.1-2.6 1.7-4.1 4.3-4.2h6.3c.9 0 1.4-.2 1.2-1.2-.1-.8 0-1.7 0-2.6 0-.7 0-1.1.9-1.1s.9.5.9 1.2c-.2 2.7-.2 5.4-.3 8.1zm-1.7 2.8v-4.6c0-.8-.2-1.2-1.1-1.2h-5.8c-2 .1-3.1 1.3-3.2 3.3-.1 2.4-.1 4.8 0 7.2 0 2 .9 2.9 2.8 3 1.3.1 2.6.1 3.9 0 2.2-.2 3.3-1.5 3.3-3.7.2-1.3.1-2.7.1-4z"/><path class="st1" d="M411.3 694.1c0 2.7.1 5.3 0 8s-1.3 4-3.8 4.2c-2 .1-4 .1-6.1 0-2.1-.1-3.4-1.6-3.5-3.8-.1-2.8-.1-5.5 0-8.3s1.7-4.2 4.3-4.3c2.1 0 4.2-.1 6.3 0 1 0 1.3-.3 1.2-1.3-.1-.8 0-1.7 0-2.6 0-.6 0-1.1.8-1 .8 0 1 .2 1 1v8.2l-.2-.1zm-1.7 2.7v-4.4c0-.8-.2-1.2-1-1.2h-5.8c-2 .1-3.1 1.3-3.2 3.4v6.9c0 2.1.9 3.1 2.9 3.2 1.2.1 2.5.1 3.7 0 2.2-.2 3.3-1.4 3.3-3.7.1-1.3.1-2.7.1-4.2z"/><path class="st9" d="M393.6 698.3c0 1.4.1 2.9 0 4.2-.2 2.5-1.5 3.7-3.9 3.7h-5.3c-2.6 0-4-1.5-4.1-4.2-.3-5.7.8-6.8 6.2-6.8h4.4c.9 0 1.1-.4 1-1.2-.1-1.8-1.1-2.9-3.1-2.9h-7.2c-.6 0-1.4.3-1.3-.8.1-1 .9-.6 1.3-.6h7.5c2.2 0 4.7 1.5 4.5 4.6v4zm-5.7-1.3c-1.2 0-2.4-.1-3.6 0-1.4.1-2.2 1.1-2.3 2.6v2c0 2.1 1 3.2 3.1 3.3h3.1c3 0 3.6-.7 3.6-3.8.1-4.3.1-4.3-3.9-4.1z"/><path class="st1" d="M423 706.3c-1.3-.1-2.9.2-4.6-.1-2.3-.4-3.4-1.7-3.4-4.1 0-2.6-.1-5.2 0-7.9.1-3.1 1.4-4.4 4.4-4.4 2 0 4-.2 5.9.1 2.2.4 3.7 3.3 3 5.4-.2.5-.6.5-1 .7-3.1 1.4-6.1 2.8-9.1 4.2-.6.3-1.5.2-1.4 1.2.1 1.1.3 2.3 1.4 2.9.7.4 1.4.4 2.1.4h7c.4 0 .9-.2 1 .6 0 .8-.4.8-1 .8-1.3.2-2.6.2-4.3.2zm-6.2-7.3c3-1.4 5.9-2.7 8.8-4 1.3-.5 1.1-1.3.6-2.3-.4-.8-1.1-1.2-1.9-1.3-1.8-.4-3.6-.3-5.4 0-1.3.3-2.1 1.2-2.1 2.6-.1 1.7 0 3.3 0 5zM455.8 706.2c-1.6 0-3.1.1-4.7 0-2.3-.3-3.5-1.7-3.6-4.2v-7.7c.1-3.2 1.4-4.6 4.5-4.6 2 0 4.1-.3 6.1.2 2 .4 3.5 3.5 2.8 5.4-.2.5-.6.5-1 .7-3 1.4-6 2.7-9 4.2-.6.3-1.7.2-1.5 1.4.2 1.2.4 2.4 1.7 2.9.6.2 1.2.3 1.8.3h6.6c.5 0 1.4-.5 1.4.7 0 1.3-.9.7-1.5.8-1.3 0-2.5 0-3.6-.1 0 .1 0 0 0 0zm-6.5-7.1c3.1-1.4 5.9-2.8 8.8-4 1.3-.5 1.2-1.3.7-2.3-.4-.8-1.1-1.2-2-1.3-1.7-.3-3.4-.3-5.1 0-1.5.3-2.3 1.2-2.3 2.8-.2 1.5-.1 3-.1 4.8zM511.9 706.3c-1.3-.1-2.9.2-4.6-.1-2.3-.4-3.4-1.7-3.4-4.1 0-2.6-.1-5.2 0-7.9.1-3.1 1.4-4.4 4.5-4.4 2 0 4.1-.3 6.1.2 2 .4 3.5 3.4 2.8 5.4-.2.5-.6.5-1 .7-3 1.4-6 2.7-9 4.2-.6.3-1.7.2-1.5 1.4.2 1.2.4 2.4 1.7 2.9.6.2 1.2.3 1.8.3h7c.4 0 .9-.2 1 .7 0 .8-.5.8-1 .8-1.5-.1-2.8-.1-4.4-.1zm-6.3-7.5c.2 0 .3.1.3 0 2.8-1.2 5.6-2.6 8.4-3.8 1.3-.5 1.1-1.3.6-2.3-.4-.8-1.1-1.2-1.9-1.3-1.8-.4-3.6-.3-5.4 0-1.3.3-2.1 1.2-2.1 2.6.1 1.7.1 3.3.1 4.8zM482.5 698.2c0 1.5.1 2.9 0 4.4-.1 2.2-1.3 3.6-3.4 3.7-2 .1-4 .1-6.1 0-2.2-.1-3.5-1.6-3.6-3.9v-8.2c.1-2.9 1.5-4.3 4.2-4.4h5c2.3 0 3.7 1.3 3.9 3.8.1 1.5 0 3.1 0 4.6zm-1.6-.1v-1.8-1.8c-.1-2.1-1.1-3.1-3-3.3-1.3-.1-2.6-.1-3.9 0-1.7.1-2.7 1.1-2.8 2.9-.1 2.6-.1 5.2 0 7.8 0 1.8 1.1 2.7 2.8 2.8h3.9c1.8 0 2.8-1.1 2.9-2.9.1-1.2.1-2.4.1-3.7z"/><path class="st9" d="M346.7 690c1.5-.5 2.4-.1 3.1 1.1 1.2 1.8 2.6 3.5 4 5.4 1.4-1.9 2.7-3.6 3.9-5.4.8-1.2 1.6-1.6 3.1-1-1.4 2-2.8 3.9-4.1 5.8-1.7 2.3-1.7 2.3 0 4.6 1.4 1.8 2.7 3.7 4.2 5.6-1.3.5-2.2.4-2.9-.8-1.1-1.7-2.3-3.2-3.5-4.8-.5-.7-.8-.7-1.3 0-1.2 1.7-2.5 3.3-3.8 5-.3.4-.5.9-1.1.8-.5 0-1.1.3-1.4-.2-.3-.5.3-.8.6-1.2 1.4-1.9 2.9-3.9 4.4-5.7.6-.8.7-1.2 0-2.1-1.7-2.2-3.3-4.6-5.2-7.1z"/><path class="st1" d="M532.4 706.3h-4.1c-.6 0-.8-.2-.8-.8 0-.7.4-.6.8-.6h6.6c2.1 0 3-.8 3-2.7 0-2.5-.7-3.3-2.9-3.4-1.5 0-3 .2-4.5-.1-1.9-.4-2.8-1.5-2.9-3.4-.2-4.2.9-5.4 4.9-5.4h6.3c.5 0 1.1-.2 1.1.7 0 .9-.6.8-1.1.8h-6.4c-2.1 0-3.1 1-3.1 3 0 2.1.9 3 3.1 3h4.2c1.9 0 2.9 1 3.1 2.9.1.9.1 1.8 0 2.8-.2 2.1-1.3 3.1-3.3 3.2-1.4.1-2.7 0-4 0zM437.5 703.6c1.9-4.4 3.7-8.4 5.5-12.5.2-.4.3-.8.5-1 .5-.5 1.1-.4 1.6-.2.7.3.1.8-.1 1.2-2 4.7-4.1 9.3-6.2 14-.3.6-.5 1.2-1.3 1.2-.9 0-1.1-.6-1.4-1.2-2-4.6-4.1-9.2-6.1-13.9-.2-.4-.9-1-.1-1.3.6-.2 1.4-.4 1.8.6.5 1.3 1.1 2.6 1.7 3.8 1.4 3 2.7 6 4.1 9.3zM465.5 695.5v9.6c0 .6 0 1.2-.9 1.2s-.9-.4-.9-1.1v-19.6c0-.7.1-1.1.9-1.1.9 0 .8.6.8 1.2.1 3.3.1 6.6.1 9.8zM520.5 699.6c0-2-.1-4 0-6 .2-2.8 2.8-4.5 5.4-3.8.5.1.5.4.5.8 0 .5-.3.6-.7.7-3.3.6-3.6 1-3.6 4.6v9.3c0 .6.1 1.2-.8 1.2s-1-.4-1-1.2c.2-1.9.1-3.8.2-5.6z"/></g><path class="st10" d="M321.6 736V104.2"/><g><path class="st10" d="M322 912.5v-6"/><path fill="none" stroke="#fff" stroke-width="4" stroke-miterlimit="10" stroke-dasharray="12.6454,12.6454" d="M322 893.8V748.4"/><path class="st10" d="M322 742.1v-6"/></g></svg>