<svg width="71" height="68" viewBox="0 0 71 68" fill="none" xmlns="http://www.w3.org/2000/svg">
<g clip-path="url(#clip0)">
<path class="fill" d="M53.5149 32.5701C53.5149 32.3477 53.5783 32.1888 53.5783 32.0299C53.5783 30.314 52.7542 27.1364 49.4577 27.1364C46.4149 27.1364 45.1153 29.8056 44.7983 32.6336H51.1694C52.7859 32.6336 53.3564 32.6336 53.5149 32.5701Z" fill="white"/>
<path class="fill" d="M23.9103 18.843H23.8469C23.1813 22.5607 21.438 28.8523 20.1384 33.7776C20.1701 33.7776 27.7456 33.7776 27.7456 33.7776C26.8581 30.2505 24.7027 22.5607 23.9103 18.843Z" fill="white"/>
<path class="fill" d="M0.518311 68H70.2508V0H0.518311V68ZM49.6797 22.4972C56.5896 22.4972 58.9985 28.3121 58.9985 33.0467C58.9985 34.572 58.9034 35.8112 58.7449 36.415C58.6815 36.6692 58.5864 36.7645 58.3329 36.828C57.6989 36.9234 55.8288 37.0505 53.0395 37.0505L44.735 37.0187C44.7984 41.3084 46.827 44.2 51.6449 44.2C53.515 44.2 55.1315 43.9458 56.8114 43.215C57.0333 43.1196 57.1918 43.1514 57.1918 43.4374V47.4093C57.1918 47.7271 57.0967 47.886 56.8748 48.0449C55.1949 48.871 53.1029 49.2523 50.5038 49.2523C42.1359 49.2523 38.998 43.0561 38.998 36.129C38.998 28.6299 42.8649 22.4972 49.6797 22.4972ZM10.8831 48.2991L19.8849 16.7458C20.0434 16.1738 20.1385 15.729 20.2019 14.1402C20.2019 13.9178 20.297 13.8224 20.4555 13.8224H27.1117C27.3336 13.8224 27.4287 13.886 27.4921 14.1402L37.5716 48.3626C37.635 48.6168 37.5716 48.7757 37.318 48.7757H32.0881C31.8345 48.7757 31.6761 48.6804 31.6127 48.4579L28.9818 38.9252H18.8389L16.3349 48.4262C16.2715 48.6804 16.1764 48.7757 15.8595 48.7757H11.2001C10.8831 48.7757 10.8197 48.6804 10.8831 48.2991Z" fill="white"/>
</g>
<defs>
<clipPath id="clip0">
<rect class="fill" x="0.518311" width="69.7325" height="68" fill="white"/>
</clipPath>
</defs>
</svg>
