<svg width="68" height="68" viewBox="0 0 68 68" fill="none" xmlns="http://www.w3.org/2000/svg">
<path class="fill" d="M0 68C0 45.3333 0 22.6667 0 0C22.6667 0 45.3333 0 68 0C68 22.6667 68 45.3333 68 68C45.3333 68 22.6667 68 0 68ZM44.1147 53.3763C44.1147 53.1326 44.1147 53.1326 43.871 52.8889C40.4588 41.4337 36.8029 29.9785 33.3907 18.767C33.147 18.2796 33.147 18.2796 32.6595 18.2796C29.491 18.2796 26.5663 18.2796 23.3979 18.2796C22.9104 18.2796 22.6667 18.5233 22.6667 19.0108C19.0108 30.2222 15.5986 41.4337 12.1864 52.6452C12.1864 52.8889 12.1864 53.1326 11.9427 53.3763C14.6237 53.3763 17.0609 53.3763 19.4982 53.3763C19.9857 53.3763 20.2294 53.1326 20.2294 52.6452C20.9606 49.9642 21.6918 47.5269 22.4229 44.8459C22.4229 44.6022 22.9104 44.3584 23.1541 44.3584C26.0789 44.3584 29.0036 44.3584 31.9283 44.3584C32.4158 44.3584 32.6595 44.6022 32.6595 45.0896C33.3907 47.7706 34.1219 50.2079 35.0968 52.8889C35.0968 53.1326 35.5842 53.3763 35.828 53.3763C36.8029 53.3763 37.7778 53.3763 38.7527 53.3763C40.7025 53.3763 42.4086 53.3763 44.1147 53.3763ZM48.5018 53.3763C48.7455 53.3763 48.9893 53.3763 49.233 53.3763C51.1828 53.3763 53.1326 53.3763 55.0824 53.3763C55.8136 53.3763 55.8136 53.1326 55.8136 52.6452C55.8136 45.0896 55.8136 37.5341 55.8136 29.9785C55.8136 29.7348 55.8136 29.491 55.8136 29.2473C53.3763 29.2473 50.9391 29.2473 48.5018 29.2473C48.5018 37.2903 48.5018 45.3333 48.5018 53.3763ZM50.9391 24.8602C53.3763 24.8602 55.0824 23.1541 55.3262 20.9606C55.3262 18.5233 53.6201 16.8172 51.1828 16.8172C48.7455 16.8172 47.0394 18.5233 47.0394 20.7168C47.0394 23.1541 48.7455 24.8602 50.9391 24.8602Z" fill="white"/>
<path class="fill" d="M31.6848 38.9964H23.8855C25.1041 34.3656 26.3228 29.491 27.5414 24.8602C27.5414 24.8602 27.5414 24.8602 27.7851 24.8602C29.0038 29.491 30.2224 34.1219 31.6848 38.9964Z" fill="white"/>
</svg>
