<svg width="59" height="68" viewBox="0 0 59 68" fill="none" xmlns="http://www.w3.org/2000/svg">
<path class="fill" d="M0 0V0.333333C0.379754 3.63158 0.604155 6.96491 0.914863 10.2632C1.82973 21.2632 2.84816 32.2456 3.79754 43.2456C4.29813 49.193 4.81597 55.1579 5.36834 61.1053C9.701 62.2807 13.9991 63.614 18.3145 64.7895C21.974 65.8947 25.6852 66.8772 29.3619 67.9825H29.4827C33.3321 66.8421 37.2159 65.807 41.0652 64.6491C45.2598 63.5088 49.4198 62.2281 53.6144 61.1053C54.3394 53.1754 55.0298 45.2281 55.703 37.2807C56.8251 24.8596 57.8953 12.4211 58.9827 0C39.3218 0 19.6609 0 0 0ZM48.505 18C48.4359 18.614 48.4532 19.2456 48.2806 19.8596C47.8663 20.193 47.3657 20.3684 46.8997 20.5965C44.4658 21.6842 42.0146 22.7368 39.5807 23.8596C37.0606 25 34.4713 26.0351 32.0029 27.3158C32.6589 27.3684 33.3321 27.3684 34.0053 27.3684C38.5796 27.3509 43.1539 27.3684 47.7282 27.3333C47.2449 35.1053 46.5026 42.8596 45.8122 50.614C40.4266 52.0351 35.0755 53.5614 29.6899 54.9298C29.6381 54.9474 29.5345 54.9649 29.4827 54.9649C29.103 55 28.7405 54.8596 28.378 54.7895C25.3227 53.9649 22.2156 53.2456 19.1603 52.4035C17.158 51.8421 15.1556 51.3333 13.1706 50.807C12.5837 46.9825 12.2557 43.1228 12.0486 39.2456C14.0854 39.2105 16.105 39.2281 18.1246 39.2281C18.5389 39.2281 18.9705 39.2281 19.3675 39.3509C19.5401 41.3684 19.6782 43.3684 19.8853 45.386C21.2835 45.807 22.7335 45.9649 24.1489 46.2807C25.9441 46.614 27.7221 47.0175 29.5345 47.2807C30.5184 46.807 31.5714 46.5614 32.6071 46.2456C34.5404 45.6491 36.4909 45.1228 38.407 44.4737C38.5796 41.2281 38.8385 37.9825 39.0111 34.7193C35.8868 34.7368 32.7452 34.6491 29.6208 34.7018C26.9453 34.7544 24.2525 34.7018 21.5769 34.7193C18.2282 34.7193 14.8795 34.7719 11.548 34.7895C11.3754 32.2456 10.9611 29.7193 10.9266 27.1754C11.3581 26.8596 11.8587 26.7018 12.3248 26.4912C17.8484 24.0351 23.4067 21.6842 28.8958 19.1754C22.6126 18.9825 16.3294 19.2281 10.0635 19C9.75278 16.7018 9.44207 14.4035 9.32124 12.0877C16.0705 12.0877 22.8198 12.0526 29.5518 12.0877C36.0249 12.1228 42.5152 12.0702 48.9883 12.1228C48.8847 14.0702 48.6431 16.0351 48.505 18Z" fill="white"/>
</svg>
