<svg width="45" height="68" viewBox="0 0 45 68" fill="none" xmlns="http://www.w3.org/2000/svg">
<path class="fill" d="M0 56.25C0 53.2663 1.18526 50.4048 3.29505 48.2951C5.40483 46.1853 8.26631 45 11.25 45H22.5V56.25C22.5 59.2337 21.3147 62.0952 19.2049 64.2049C17.0952 66.3147 14.2337 67.5 11.25 67.5C8.26631 67.5 5.40483 66.3147 3.29505 64.2049C1.18526 62.0952 0 59.2337 0 56.25ZM11.25 45H22.5V22.5H11.25C8.26631 22.5 5.40483 23.6853 3.29505 25.7951C1.18526 27.9048 0 30.7663 0 33.75C0 36.7337 1.18526 39.5952 3.29505 41.7049C5.40483 43.8147 8.26631 45 11.25 45ZM11.25 22.5H22.5V0H11.25C8.26631 0 5.40483 1.18526 3.29505 3.29505C1.18526 5.40483 0 8.26631 0 11.25C0 14.2337 1.18526 17.0952 3.29505 19.205C5.40483 21.3147 8.26631 22.5 11.25 22.5ZM22.5 22.5H33.75C36.7337 22.5 39.5952 21.3147 41.7049 19.205C43.8147 17.0952 45 14.2337 45 11.25C45 8.26631 43.8147 5.40483 41.7049 3.29505C39.5952 1.18526 36.7337 0 33.75 0H22.5V22.5ZM33.75 22.5C31.525 22.5 29.3499 23.1598 27.4998 24.396C25.6498 25.6321 24.2078 27.3891 23.3564 29.4448C22.5049 31.5005 22.2821 33.7625 22.7162 35.9448C23.1502 38.1271 24.2217 40.1316 25.7951 41.7049C27.3684 43.2783 29.3729 44.3498 31.5552 44.7838C33.7375 45.2179 35.9995 44.9951 38.0552 44.1436C40.1109 43.2922 41.8679 41.8502 43.104 40.0002C44.3402 38.1501 45 35.975 45 33.75C45 30.7663 43.8147 27.9048 41.7049 25.7951C39.5952 23.6853 36.7337 22.5 33.75 22.5Z" fill="white"/>
</svg>
