<svg width="42" height="28" viewBox="0 0 42 28" fill="none" xmlns="http://www.w3.org/2000/svg">
<path d="M29.8026 22.2494L29.8025 22.2495L29.8024 22.2496L29.8023 22.2497L29.8021 22.2499L29.8019 22.2501L29.4464 22.6038L29.8026 22.9583C29.88 23.0353 29.9835 23.098 30.1095 23.1234C30.2328 23.1483 30.3455 23.1309 30.4352 23.0999C30.6002 23.0428 30.7207 22.9288 30.799 22.8398C30.9431 22.6759 31.0769 22.4415 31.1983 22.1614C31.7971 21.6842 32.4171 21.1832 33.1513 20.4533C34.6771 19.0516 36.7443 17.1109 39.0499 14.9329L39.4902 15.3492V14.5168C39.5222 14.4866 39.5541 14.4564 39.5861 14.4261L39.5863 14.4262L39.5953 14.4172L39.7216 14.2916L40.0777 13.9372L39.7216 13.5828L39.5953 13.4572L39.586 13.4479L39.5762 13.4391C39.5475 13.4134 39.5189 13.3877 39.4902 13.3621V12.6086L39.0924 13.0045C37.4802 11.5526 35.9857 10.1685 34.7074 8.98449C34.1439 8.46252 33.6224 7.97946 33.1513 7.54666C32.7562 7.15431 32.3638 6.82933 32.0171 6.54704C31.9826 6.51894 31.9487 6.49139 31.9154 6.46434C31.6043 6.21143 31.347 6.00226 31.139 5.79534L31.1139 5.77029L31.0854 5.74905C30.8436 5.5686 30.6641 5.41953 30.5467 5.31736C30.4881 5.26627 30.445 5.22693 30.4175 5.20127C30.4037 5.18844 30.3939 5.17904 30.3879 5.1733L30.3819 5.16747L30.3811 5.16667C30.3811 5.16669 30.3812 5.16673 30.3812 5.16681L30.3814 5.16702L30.3816 5.16716L30.3817 5.16724C30.3817 5.16724 30.3817 5.16725 30.3812 5.16768L29.5823 5.7462L30.0291 5.52173C29.5823 5.7462 29.5824 5.74638 29.5825 5.74656L29.5826 5.74691L29.583 5.74765L29.5838 5.74917L29.5855 5.75249L29.5895 5.76014L29.6002 5.77954C29.6085 5.79429 29.6194 5.8127 29.6332 5.83475C29.6609 5.87885 29.7006 5.93761 29.756 6.01106C29.8666 6.15785 30.0404 6.36399 30.3074 6.62976L32.2006 8.51382C33.1685 9.47704 34.363 10.5783 35.6927 11.8041C36.4489 12.5013 37.2488 13.2388 38.0757 14.0141C37.0771 15.0002 36.1075 15.9387 35.2035 16.8119C35.102 16.9099 35.0013 17.0072 34.9014 17.1036C33.9475 18.0247 33.0725 18.8697 32.3268 19.6118L30.4533 21.4763L30.3716 21.5413L30.3474 21.6016C30.1839 21.8159 30.0484 21.9772 29.9533 22.0853C29.902 22.1437 29.8625 22.1865 29.8367 22.2139C29.8238 22.2276 29.8143 22.2374 29.8086 22.2433L29.8027 22.2493L29.8026 22.2494ZM30.0327 22.1952C30.0327 22.1951 30.0338 22.194 30.0362 22.192C30.0339 22.1943 30.0327 22.1953 30.0327 22.1952Z" fill="white" stroke="white"/>
<path d="M30.1928 21.359L30.1869 21.3645L30.1812 21.3702L30.1753 21.3761C29.9909 21.5596 29.8361 21.7136 29.716 21.8414C29.5989 21.9659 29.4882 22.0928 29.4115 22.2201C29.3311 22.3534 29.252 22.5467 29.2982 22.777C29.3404 22.9867 29.4699 23.1297 29.5501 23.2095L29.5554 23.2148C29.5822 23.2414 29.6144 23.2734 29.6442 23.3001C29.6771 23.3296 29.7317 23.3755 29.8063 23.4126C29.9526 23.4854 30.1042 23.4818 30.1468 23.4808C30.1504 23.4807 30.1533 23.4807 30.1552 23.4807C30.4424 23.4807 30.6806 23.3368 30.8487 23.2304C30.9223 23.1838 30.9922 23.1373 31.0659 23.0884C31.1992 22.9998 31.3449 22.9029 31.5475 22.782L31.5858 22.7591L31.6195 22.7297L33.6389 20.9713L33.6445 20.9664L33.6499 20.9614C34.0516 20.5903 34.4872 20.1919 34.9491 19.7695C36.5096 18.3427 38.3693 16.6421 40.2264 14.794L40.3526 14.6684L40.3579 14.6632C40.3846 14.6365 40.4168 14.6045 40.4437 14.5748C40.4733 14.5421 40.5196 14.4875 40.5571 14.4129C40.631 14.2659 40.6273 14.1133 40.6263 14.0711C40.6262 14.0675 40.6261 14.0647 40.6261 14.0628C40.6261 14.0601 40.6262 14.0568 40.6262 14.0527C40.6267 14.0044 40.6281 13.8616 40.5845 13.7313C40.556 13.6462 40.498 13.5299 40.3789 13.4378C40.3411 13.4085 40.3018 13.3853 40.2622 13.3672L40.2264 13.3316L40.2265 13.3315L40.2167 13.3222C37.8224 11.0649 35.5414 8.9208 33.7632 7.40386L31.7457 5.64708L31.7457 5.64706L31.7419 5.64375C31.7099 5.61646 31.6787 5.58982 31.6483 5.56387C31.4721 5.41346 31.3228 5.28601 31.1983 5.1848C31.0567 5.06963 30.9192 4.96502 30.7882 4.8939C30.6541 4.82112 30.4636 4.74829 30.2401 4.79134C30.0282 4.83216 29.8844 4.96031 29.8025 5.04173C29.7223 5.12156 29.5928 5.26453 29.5507 5.47425C29.5044 5.70448 29.5836 5.89781 29.6639 6.03112C29.7407 6.15839 29.8514 6.28528 29.9684 6.4098C30.0885 6.53757 30.2433 6.69157 30.4276 6.87502L30.4336 6.88098L32.3268 8.76504C33.738 10.1694 35.6928 12.0062 37.7799 13.9674C37.8108 13.9964 37.8417 14.0254 37.8726 14.0545C36.8206 15.0073 35.8451 15.9517 34.9486 16.83C34.7608 17.0139 34.5768 17.1946 34.3965 17.3718C33.6018 18.1523 32.8774 18.864 32.215 19.4724L32.215 19.4724L32.2122 19.475L30.1928 21.359Z" fill="white" stroke="white"/>
<path d="M10.1694 5.37998C10.059 5.50554 9.90717 5.68664 9.72684 5.92331C9.11204 6.41285 8.47766 6.92149 7.72242 7.67231C6.19669 9.07401 4.12943 11.0147 1.82384 13.1927L1.38352 12.7764V13.6088C1.35159 13.639 1.31961 13.6692 1.2876 13.6995L1.28749 13.6993L1.2784 13.7084L1.15219 13.834L0.79606 14.1884L1.15219 14.5428L1.2784 14.6684L1.28772 14.6777L1.29751 14.6865C1.32621 14.7122 1.35489 14.7379 1.38352 14.7635V15.517L1.78139 15.121C3.39359 16.5729 4.88801 17.9571 6.16629 19.1411C6.72984 19.6631 7.25137 20.1461 7.72247 20.5789C8.11751 20.9713 8.50996 21.2963 8.85666 21.5785C8.89117 21.6066 8.92507 21.6342 8.95835 21.6612C9.26947 21.9142 9.52679 22.1233 9.73471 22.3302L9.75988 22.3553L9.78834 22.3765C10.0301 22.557 10.2097 22.7061 10.327 22.8082C10.3857 22.8593 10.4288 22.8986 10.4563 22.9243C10.47 22.9371 10.4799 22.9465 10.4858 22.9523L10.4918 22.9581L10.492 22.9583L10.4921 22.9583C10.4921 22.9583 10.4921 22.9583 10.4925 22.9579L11.2915 22.3794L10.8447 22.6039C11.2915 22.3794 11.2914 22.3792 11.2913 22.379L11.2911 22.3787L11.2907 22.3779L11.29 22.3764L11.2883 22.3731L11.2842 22.3654L11.2736 22.346C11.2652 22.3313 11.2544 22.3129 11.2405 22.2908C11.2128 22.2467 11.1731 22.188 11.1178 22.1145C11.0071 21.9677 10.8334 21.7616 10.5663 21.4958L8.67311 19.6118C7.70521 18.6485 6.51073 17.5473 5.18107 16.3215C4.42485 15.6243 3.62492 14.8868 2.79808 14.1115C3.7966 13.1254 4.76623 12.1869 5.67021 11.3137C5.77179 11.2156 5.87256 11.1183 5.97246 11.0218C6.92632 10.1007 7.80127 9.25584 8.5469 8.51382L9.58816 7.47759L10.4205 6.64928L10.4485 6.62698L10.4653 6.60468L10.4867 6.57628C10.668 6.33572 10.8178 6.15704 10.9204 6.04029C10.9718 5.98192 11.0113 5.93905 11.0371 5.91168C11.0499 5.898 11.0594 5.88819 11.0652 5.88227L11.071 5.87629L11.0713 5.87605C11.0712 5.87609 11.0712 5.87613 10.8087 5.61235C10.7815 5.58506 10.7515 5.55495 10.7185 5.52173C10.3658 5.16732 10.3657 5.16736 10.3657 5.16741L10.3656 5.1675L10.3654 5.16771L10.3649 5.16819L10.3637 5.16944L10.3601 5.17305L10.3486 5.18474C10.3391 5.19451 10.3259 5.20826 10.3092 5.22598C10.2758 5.26141 10.2285 5.31275 10.1694 5.37998Z" fill="white" stroke="white"/>
<path d="M9.38039 22.7297L9.41407 22.7591L9.45241 22.782C9.72678 22.9458 9.92407 23.0835 10.0778 23.1908C10.0913 23.2002 10.1043 23.2093 10.1171 23.2182C10.1923 23.2706 10.2736 23.3269 10.3472 23.3692C10.4039 23.4017 10.5439 23.4807 10.7184 23.4807L10.7235 23.4807C10.7513 23.4807 10.7987 23.4807 10.8446 23.4775L10.8457 23.4774C10.8802 23.4749 10.9893 23.4672 11.099 23.4126C11.162 23.3813 11.2606 23.3171 11.3292 23.1952C11.3784 23.1078 11.3969 23.018 11.3969 22.9362C11.4191 22.8882 11.4375 22.8352 11.4492 22.777C11.4955 22.5467 11.4163 22.3534 11.336 22.2201C11.2592 22.0928 11.1485 21.9659 11.0315 21.8414C10.9114 21.7136 10.7566 21.5596 10.5722 21.3761L10.5663 21.3702L8.67309 19.4862C7.2619 18.0818 5.30719 16.2451 3.22009 14.2839C3.1892 14.2549 3.15828 14.2258 3.12734 14.1967C4.17934 13.2439 5.15479 12.2995 6.05135 11.4212C6.23905 11.2373 6.42304 11.0566 6.60342 10.8794C7.39807 10.0989 8.12254 9.38726 8.78485 8.77885L8.79221 8.77209L8.7993 8.76504L10.6925 6.88098C10.7102 6.86336 10.7277 6.84596 10.745 6.82876C11.075 6.50058 11.3302 6.24672 11.471 6.02661C11.5572 5.89178 11.6231 5.73862 11.637 5.55831C11.6504 5.38544 11.612 5.23342 11.5712 5.11173L11.5336 4.99956L11.4498 4.91612C11.3443 4.81118 11.1916 4.69825 10.9817 4.66344C10.7723 4.6287 10.5842 4.68465 10.4326 4.76008C10.1614 4.89504 9.85682 5.17195 9.49412 5.53234L7.48719 7.27993L7.48162 7.28478L7.47619 7.28979C5.70703 8.92465 3.43349 11.0615 0.90893 13.4483L0.908817 13.4481L0.89973 13.4572L0.773518 13.5828L0.768258 13.588C0.741467 13.6147 0.709267 13.6467 0.682406 13.6764C0.652826 13.7091 0.606505 13.7637 0.568998 13.8383C0.495161 13.9853 0.498832 14.1379 0.499848 14.1801C0.499933 14.1837 0.5 14.1865 0.5 14.1884C0.5 14.1922 0.499993 14.1962 0.499985 14.2003C0.499728 14.3399 0.499163 14.6466 0.773518 14.9196L1.12621 14.5652L0.773519 14.9196L0.899733 15.0452L0.899604 15.0454L0.909433 15.0546C2.41654 16.4755 3.88158 17.8044 5.19734 18.9978C5.97429 19.7025 6.6992 20.36 7.34998 20.9614L7.3554 20.9664L7.36097 20.9713L9.38039 22.7297ZM10.492 23.2095C10.4926 23.2101 10.4925 23.2101 10.4918 23.2094L10.492 23.2095Z" fill="white" stroke="white"/>
<path d="M15.3935 26.3096C15.3911 26.3134 15.3915 26.3124 15.3946 26.308C15.3942 26.3086 15.3938 26.3091 15.3935 26.3096ZM15.4164 26.981C15.4451 27.0089 15.4771 27.0333 15.5117 27.0536C15.6412 27.1313 15.7899 27.1404 15.9116 27.1057C16.0264 27.0729 16.0991 27.0084 16.1236 26.9859C16.1807 26.9333 16.2186 26.8754 16.2346 26.8506C16.2748 26.788 16.3163 26.7079 16.3558 26.6265C16.4382 26.4571 16.5471 26.2084 16.678 25.8957C16.9409 25.2672 17.3058 24.3476 17.7478 23.2087C18.6323 20.9294 19.8322 17.7556 21.1573 14.2391C22.4836 10.7195 23.6523 7.51326 24.474 5.18577C24.8847 4.02253 25.2096 3.07627 25.4244 2.41923C25.5314 2.09183 25.6129 1.83067 25.6641 1.64862C25.6891 1.55999 25.7103 1.47802 25.7229 1.41262C25.7283 1.38498 25.7376 1.33331 25.7386 1.27697C25.739 1.25615 25.7403 1.18309 25.712 1.09798C25.6972 1.05325 25.6629 0.970109 25.5838 0.893367C25.5551 0.865524 25.5231 0.841122 25.4885 0.820755C25.359 0.743067 25.2103 0.733984 25.0886 0.768692C24.9738 0.801438 24.9011 0.865966 24.8766 0.888501C24.8195 0.941088 24.7816 0.998993 24.7656 1.02379C24.7254 1.0864 24.6839 1.16651 24.6443 1.24784C24.562 1.41731 24.453 1.66596 24.3222 1.97864C24.0592 2.60714 23.6944 3.52679 23.2524 4.66571C22.3679 6.94497 21.168 10.1188 19.8429 13.6353C18.5166 17.1549 17.3479 20.3611 16.5262 22.6886C16.1155 23.8518 15.7906 24.7981 15.5758 25.4551C15.4688 25.7826 15.3873 26.0437 15.3361 26.2258C15.3111 26.3144 15.2899 26.3964 15.2773 26.4618C15.2719 26.4894 15.2626 26.5411 15.2616 26.5974C15.2612 26.6182 15.2599 26.6913 15.2882 26.7764C15.303 26.8211 15.3373 26.9043 15.4164 26.981ZM16.2586 26.6544C16.2583 26.6563 16.2581 26.6574 16.2581 26.6575C16.258 26.6575 16.2582 26.6566 16.2586 26.6544ZM25.6056 1.56642C25.606 1.56581 25.6063 1.56526 25.6067 1.56478C25.6091 1.56101 25.6087 1.56202 25.6056 1.56642Z" fill="white" stroke="white"/>
<path d="M15.4835 27.4746L15.5602 27.5H15.6409H15.7671C16.0455 27.5 16.2368 27.3391 16.3631 27.1827C16.4821 27.0354 16.6013 26.8225 16.7371 26.5442C17.0141 25.9767 17.431 24.9861 18.1231 23.2957L18.1263 23.2878L18.1292 23.2799C18.5443 22.1588 19.0435 20.87 19.589 19.4616C19.622 19.3764 19.6552 19.2908 19.6885 19.2047C20.2721 17.6979 20.9041 16.0626 21.5363 14.3639C23.9956 7.83735 25.1994 4.55937 25.7402 2.89746C26.0041 2.08624 26.1306 1.60243 26.1466 1.30336C26.1547 1.15157 26.1426 0.936597 25.9966 0.754326C25.8658 0.591125 25.681 0.536665 25.6475 0.526787C25.6454 0.526161 25.6439 0.525714 25.643 0.52543L25.5663 0.5H25.4856H25.4848H25.4841H25.4834H25.4826H25.4819H25.4812H25.4805H25.4798H25.479H25.4783H25.4776H25.4769H25.4762H25.4755H25.4748H25.4741H25.4734H25.4727H25.472H25.4713H25.4707H25.47H25.4693H25.4686H25.468H25.4673H25.4666H25.466H25.4653H25.4646H25.464H25.4633H25.4627H25.462H25.4614H25.4607H25.4601H25.4595H25.4588H25.4582H25.4576H25.4569H25.4563H25.4557H25.4551H25.4544H25.4538H25.4532H25.4526H25.452H25.4514H25.4508H25.4502H25.4496H25.449H25.4484H25.4478H25.4472H25.4466H25.446H25.4454H25.4448H25.4442H25.4437H25.4431H25.4425H25.4419H25.4414H25.4408H25.4402H25.4397H25.4391H25.4386H25.438H25.4374H25.4369H25.4363H25.4358H25.4352H25.4347H25.4342H25.4336H25.4331H25.4325H25.432H25.4315H25.4309H25.4304H25.4299H25.4293H25.4288H25.4283H25.4278H25.4273H25.4267H25.4262H25.4257H25.4252H25.4247H25.4242H25.4237H25.4232H25.4227H25.4222H25.4217H25.4212H25.4207H25.4202H25.4197H25.4192H25.4187H25.4182H25.4177H25.4173H25.4168H25.4163H25.4158H25.4153H25.4149H25.4144H25.4139H25.4134H25.413H25.4125H25.412H25.4116H25.4111H25.4106H25.4102H25.4097H25.4093H25.4088H25.4083H25.4079H25.4074H25.407H25.4065H25.4061H25.4056H25.4052H25.4047H25.4043H25.4039H25.4034H25.403H25.4025H25.4021H25.4017H25.4012H25.4008H25.4004H25.3999H25.3995H25.3991H25.3986H25.3982H25.3978H25.3974H25.3969H25.3965H25.3961H25.3957H25.3953H25.3948H25.3944H25.394H25.3936H25.3932H25.3928H25.3924H25.3919H25.3915H25.3911H25.3907H25.3903H25.3899H25.3895H25.3891H25.3887H25.3883H25.3879H25.3875H25.3871H25.3867H25.3863H25.3859H25.3855H25.3851H25.3847H25.3843H25.3839H25.3835H25.3831H25.3827H25.3823H25.382H25.3816H25.3812H25.3808H25.3804H25.38H25.3796H25.3792H25.3789H25.3785H25.3781H25.3777H25.3773H25.3769H25.3766H25.3762H25.3758H25.3754H25.375H25.3747H25.3743H25.3739H25.3735H25.3731H25.3728H25.3724H25.372H25.3716H25.3713H25.3709H25.3705H25.3701H25.3698H25.3694H25.369H25.3686H25.3683H25.3679H25.3675H25.3671H25.3668H25.3664H25.366H25.3657H25.3653H25.3649H25.3645H25.3642H25.3638H25.3634H25.3631H25.3627H25.3623H25.362H25.3616H25.3612H25.3608H25.3605H25.3601H25.3597H25.3594H25.359H25.3586H25.3583H25.3579H25.3575H25.3571H25.3568H25.3564H25.356H25.3557H25.3553H25.3549H25.3546H25.3542H25.3538H25.3534H25.3531H25.3527H25.3523H25.352H25.3516H25.3512H25.3508H25.3505H25.3501H25.3497H25.3493H25.349H25.3486H25.3482H25.3478H25.3475H25.3471H25.3467H25.3463H25.346H25.3456H25.3452H25.3448H25.3445H25.3441H25.3437H25.3433H25.3429H25.3426H25.3422H25.3418H25.3414H25.341H25.3406H25.3403H25.3399H25.3395H25.3391H25.3387H25.3383H25.3379H25.3376H25.3372H25.3368H25.3364H25.336H25.3356H25.3352H25.3348H25.3344H25.334H25.3336H25.3332H25.3328H25.3324H25.332H25.3316H25.3312H25.3308H25.3304H25.33H25.3296H25.3292H25.3288H25.3284H25.328H25.3276H25.3272H25.3268H25.3264H25.326H25.3255H25.3251H25.3247H25.3243H25.3239H25.3235H25.323H25.3226H25.3222H25.3218H25.3214H25.3209H25.3205H25.3201H25.3197H25.3192H25.3188H25.3184H25.3179H25.3175H25.3171H25.3166H25.3162H25.3157H25.3153H25.3149H25.3144H25.314H25.3135H25.3131H25.3126H25.3122H25.3117H25.3113H25.3108H25.3104H25.3099H25.3095H25.309H25.3086H25.3081H25.3076H25.3072H25.3067H25.3062H25.3058H25.3053H25.3048H25.3043H25.3039H25.3034H25.3029H25.3024H25.302H25.3015H25.301H25.3005H25.3H25.2995H25.299H25.2985H25.298H25.2976H25.2971H25.2966H25.2961H25.2956H25.295H25.2945H25.294H25.2935H25.293H25.2925H25.292H25.2915H25.2909H25.2904H25.2899H25.2894H25.2889H25.2883H25.2878H25.2873H25.2867H25.2862H25.2857H25.2851H25.2846H25.284H25.2835H25.2829H25.2824H25.2818H25.2813H25.2807H25.2802H25.2796H25.279H25.2785H25.2779H25.2774H25.2768H25.2762H25.2756H25.2751H25.2745H25.2739H25.2733H25.2727H25.2721H25.2716H25.271H25.2704H25.2698H25.2692H25.2686H25.268H25.2674H25.2668H25.2661H25.2655H25.2649H25.2643H25.2637H25.2631H25.2624H25.2618H25.2612H25.2605H25.2599H25.2593H25.2586H25.258H25.2573H25.2567H25.2561H25.2554H25.2547H25.2541H25.2534H25.2528H25.2521H25.2514H25.2508H25.2501H25.2494H25.2487H25.2481H25.2474H25.2467H25.246H25.2453H25.2446H25.2439H25.2432H25.2425H25.2418H25.2411H25.2404H25.2397H25.239H25.2383H25.2375H25.2368H25.2361H25.2354H25.2346H25.2339H25.2332H25.0268L24.8805 0.645592C24.7316 0.793762 24.6 0.966287 23.9359 2.54933C23.2541 4.17458 21.9895 7.35264 19.5913 13.6332L19.5905 13.6353C17.131 20.1624 15.9271 23.4406 15.3863 25.1025C15.1224 25.9138 14.9959 26.3976 14.9799 26.6966C14.9718 26.8484 14.9839 27.0634 15.1299 27.2457C15.2607 27.4089 15.4455 27.4633 15.479 27.4732C15.4811 27.4738 15.4826 27.4743 15.4835 27.4746Z" fill="white" stroke="white"/>
</svg>
