<svg width="68" height="68" viewBox="0 0 68 68" fill="none" xmlns="http://www.w3.org/2000/svg">
<path class="fill" d="M66.7179 30.9713L37.0267 1.28248C35.3183 -0.427495 32.5453 -0.427495 30.8348 1.28248L24.6697 7.44839L32.4899 15.2689C34.3079 14.655 36.3917 15.0666 37.8402 16.5154C39.2962 17.9733 39.7048 20.0749 39.0756 21.8991L46.6128 29.4367C48.4363 28.8083 50.5402 29.2143 51.9963 30.6729C54.032 32.7081 54.032 36.0059 51.9963 38.0416C49.9603 40.078 46.6627 40.078 44.6255 38.0416C43.0949 36.5097 42.7163 34.2606 43.4916 32.3746L36.4622 25.345L36.4616 43.8433C36.9579 44.089 37.4263 44.4169 37.8399 44.8287C39.8749 46.8636 39.8749 50.1608 37.8399 52.1991C35.8042 54.234 32.505 54.234 30.4715 52.1991C28.4361 50.161 28.4361 46.8638 30.4715 44.8287C30.9745 44.3265 31.5566 43.9465 32.1776 43.6917V25.0215C31.5563 24.7678 30.9749 24.3906 30.4712 23.8844C28.9294 22.3438 28.5581 20.081 29.3488 18.1877L21.6396 10.4771L1.28284 30.8341C-0.427612 32.5454 -0.427612 35.3186 1.28284 37.0287L30.9723 66.7175C32.6816 68.4275 35.4537 68.4275 37.1654 66.7175L66.7176 37.1689C68.4275 35.4581 68.4275 32.6841 66.7176 30.9738" fill="white"/>
</svg>
