<svg width="60" height="70" viewBox="0 0 60 70" fill="none" xmlns="http://www.w3.org/2000/svg">
<g clip-path="url(#clip0)">
<path d="M9.41464 30.6003C7.38429 31.5616 2.01045 35.8888 0.97544 37.1709C-0.0994437 38.453 -0.417805 36.4498 0.696752 33.1244C1.57229 30.44 3.8018 26.794 7.54356 23.669C9.73281 21.866 14.5497 19.2619 17.4952 17.7392C18.0925 17.4186 25.815 14.1333 32.7017 12.4907C33.2989 12.3304 31.9852 13.4923 31.7861 14.1333C30.7511 17.1782 10.091 30.2396 10.091 30.2396L9.41464 30.6003Z" fill="#010101"/>
<path d="M38.5137 67.34C38.8719 69.5036 38.5535 69.6639 36.3244 69.9444C34.0951 70.2249 32.4631 69.3834 31.866 68.8226C31.2688 68.2614 31.1496 67.0196 31.7466 65.8978C32.105 65.1765 32.4633 64.9362 32.6624 64.0547C32.8614 63.2135 33.0206 63.013 33.1797 62.6926C33.3388 62.4119 33.3789 62.1314 33.4185 60.1683C33.4584 58.2053 33.4185 54.5191 33.6177 52.9567C33.8168 51.3542 40.7035 53.6778 40.7035 53.6778C40.7035 53.6778 39.0712 57.7645 38.6335 58.7661C38.1955 59.7679 38.2354 61.6908 38.2354 62.0915C38.2354 62.4922 38.0763 63.2933 37.9567 63.3334C37.8373 63.3734 38.3548 64.4151 38.1158 65.0162C37.9565 65.5772 38.474 67.0196 38.5137 67.34Z" fill="#010101"/>
<path d="M41.1408 6.08022C40.9018 4.55776 41.1408 1.55257 41.4592 1.07203C42.4545 -0.290318 47.7089 -0.450432 48.8237 1.15209C49.3013 1.87319 49.2615 3.55596 49.1819 4.63781C49.1024 5.71947 48.8237 8.04329 48.7838 8.80472C48.7441 9.36571 42.972 10.2469 41.6982 8.72446C41.3398 8.32398 41.1408 6.08022 41.1408 6.08022Z" fill="#010101"/>
<path d="M52.8443 63.4536C55.2726 65.2166 57.1434 65.5371 58.3774 66.1781C59.6114 66.8193 59.293 68.0613 57.223 68.4219C55.5511 68.7423 52.9238 68.1012 51.1724 68.1012C49.4209 68.1012 45.5197 68.3017 44.4846 67.5806C43.2905 66.7393 43.8079 65.1765 43.8079 65.1765C44.1264 64.2953 44.9224 62.3318 44.6836 60.7293C44.4448 59.1268 44.1262 58.2454 43.5292 56.7628C42.9321 55.2805 42.4943 51.6347 43.0517 51.4342C43.6091 51.2338 43.4496 51.4342 44.1663 51.5943C44.8827 51.7545 45.6789 51.995 47.2315 51.995C48.784 51.995 50.4956 51.7545 51.0928 51.6345C51.6899 51.5143 52.1675 51.3939 51.9684 52.6361C51.7694 53.878 51.1724 56.2019 51.1325 58.0048C51.0928 59.8078 51.0928 61.8912 51.2122 62.2518C51.3315 62.6123 52.2074 63.013 52.8443 63.4536Z" fill="#010101"/>
<path d="M44.3257 10.0868C39.9471 13.8932 31.468 14.9347 18.8891 19.8227C15.6647 21.0647 7.06637 24.7908 4.99634 28.6772C11.9626 24.6306 14.5501 30.1996 15.1073 35.9289C15.6246 41.2977 18.2919 44.1024 25.1387 43.9419C32.1846 43.7818 34.3342 47.9084 36.2846 52.7565C40.0663 34.206 46.1171 30.6003 50.0179 27.4352C58.2981 20.664 48.1074 8.72446 44.3257 10.0868Z" class="fill" fill="#FFFFFF"/>
<path d="M44.3256 10.0868C33.8166 13.7728 23.4268 14.6943 11.2061 22.2667C8.30023 24.0697 2.16988 28.1561 0.975586 35.9691C5.43381 31.0008 15.7439 24.7508 28.3628 20.7844C34.732 18.781 39.3896 17.4589 45.0421 15.2553C44.6442 12.6909 44.6442 11.6893 44.3256 10.0868Z" class="fill" fill="#FFFFFF"/>
<path d="M57.7406 32.0425C57.7406 32.0425 56.9843 34.6468 55.4716 35.4883C55.4716 35.4883 54.3571 35.889 52.128 34.647C51.4911 34.2865 51.0134 33.0445 51.0531 32.6436C51.093 31.682 51.69 31.2414 51.69 31.2414C51.69 31.2414 52.3271 30.1595 53.0833 30.1996C53.8398 30.2396 55.1136 30.3598 55.5117 29.9992C55.8697 29.5985 57.8204 30.7203 57.7406 32.0425Z" fill="#010101"/>
<path d="M41.4993 6.84146C41.4993 6.84146 41.3403 8.88498 41.0616 10.1669C41.0217 10.4074 39.8276 10.5274 38.9517 10.8882C40.6236 15.6959 50.6949 15.6558 52.0086 13.2921C51.3717 12.8514 50.0978 12.1703 49.5008 11.9299C48.9035 11.6893 48.9434 11.7295 48.9035 10.6077C48.8639 9.4857 48.7841 7.40245 48.7044 6.84146C48.6248 6.28047 42.4546 6.28047 41.4993 6.84146Z" fill="#010101"/>
<path d="M41.8975 6.84146C41.8975 6.84146 41.8975 8.00337 41.7781 9.12515C41.7384 9.64601 41.6985 9.96644 41.619 10.3671C41.5791 10.6077 42.9724 11.569 43.3705 13.6925C45.2812 17.9794 49.7 15.856 51.531 13.8127C50.8941 13.3719 49.8591 12.771 48.665 12.2903C48.0677 12.0497 48.3464 11.529 48.3067 10.4072C48.2669 9.28546 48.1076 7.64262 48.028 7.0417C47.9481 6.44078 42.853 6.28047 41.8975 6.84146Z" fill="#F0EFEF"/>
<path d="M41.4992 6.84146C41.4992 6.84146 41.4593 7.56276 41.3401 8.40405C41.8574 8.92471 42.5342 9.64601 43.0519 10.0868C43.4101 10.4074 44.2857 10.3673 45.082 10.3673C45.7985 10.3673 46.4354 10.4474 46.7141 10.2873C47.3512 9.96663 48.2666 9.16547 48.7841 8.56436C48.7445 7.84325 48.7046 7.16208 48.6649 6.84146C48.6247 6.28047 42.4544 6.28047 41.4992 6.84146Z" fill="#010101"/>
<path d="M45.1218 9.88638C44.644 9.88638 44.0866 9.84645 43.6489 9.7662C43.4497 9.72627 43.2508 9.60609 43.0915 9.52583C42.8128 9.32539 42.5341 9.08522 42.2159 8.84466C41.5788 8.36392 41.5392 8.08343 41.5392 7.96344C41.8178 5.43918 41.4594 3.3158 41.4594 3.3158C41.4594 3.3158 41.1807 2.23395 42.6934 1.95345C44.206 1.67296 45.1216 1.63303 45.1216 1.63303C45.1216 1.63303 46.0771 1.63303 47.5499 1.95345C49.0625 2.23395 48.7839 3.3158 48.7839 3.3158C48.7839 3.3158 48.4256 5.43918 48.7043 7.96344C48.7043 8.08343 48.6646 8.36392 48.0275 8.84466C47.4702 9.24534 47.0324 9.68595 46.5946 9.7662C46.1566 9.84645 45.5993 9.88638 45.1218 9.88638Z" fill="#010101"/>
<path d="M45.1219 0.591293C42.4947 0.591293 41.977 1.3124 41.2207 2.11376C41.0616 2.314 41.1808 3.51603 41.4597 6.08022H41.8179C41.8179 6.08022 41.5789 5.35892 41.6188 4.51763C41.6586 3.67634 41.8179 3.71647 41.6983 3.51603C41.5392 3.27547 41.2207 2.87479 41.9373 2.47431C42.6538 2.07363 43.7683 2.79473 45.1219 2.83486C46.4753 2.79473 47.6297 2.07363 48.3462 2.47431C49.0626 2.87479 48.7443 3.27547 48.5852 3.51603C48.4259 3.7564 48.6249 3.67615 48.6647 4.51763C48.7044 5.35892 48.4656 6.08022 48.4656 6.08022H48.8238C49.0626 3.51603 49.2219 2.39425 49.1025 2.19381C48.4257 1.3124 47.7491 0.631224 45.1219 0.591293Z" fill="#010101"/>
<path d="M57.7406 32.1627C57.7406 32.1627 56.9843 34.6067 55.5115 35.448C55.1929 35.2879 55.2328 35.0475 54.9541 34.6868C54.8744 34.5668 54.5957 34.4863 54.4765 34.3663C54.3571 34.2462 54.3969 34.0457 54.1978 33.8856C54.0385 33.7253 53.9191 33.8455 53.7598 33.7253C53.6008 33.5652 53.5607 33.3647 53.4415 33.2448C53.3617 33.1645 53.0434 33.1246 52.9638 33.0443C52.7647 32.8439 51.0134 32.4833 51.093 32.0827C51.252 31.4815 51.5706 31.0409 51.5706 31.0409C51.5706 31.0409 52.3269 29.9191 53.0831 29.9591C53.8394 29.9992 54.556 30.1595 54.9541 29.799C55.3921 29.3981 57.8602 30.8806 57.7406 32.1627Z" fill="#010101"/>
<path d="M52.5657 14.454C52.5657 14.454 55.0735 13.8528 56.7853 15.4957C58.4971 17.1785 58.3775 19.2617 57.8602 20.5438C58.298 21.0647 59.0942 22.5069 58.4971 24.2298C61.1243 26.4733 59.9699 29.9191 57.6214 32.2028C57.6214 32.2028 57.064 30.1194 54.8349 29.9992C54.9144 29.198 52.7649 28.5568 53.76 26.4733C52.2473 26.1128 52.2872 25.0711 52.0484 23.7892C51.8492 22.5069 52.5657 14.454 52.5657 14.454Z" fill="#010101"/>
<path d="M51.6501 15.5757C51.6501 15.5757 54.556 14.0934 56.2678 15.7762C57.9794 17.459 57.5016 19.3018 56.9842 20.5839C57.422 21.1046 58.457 22.5873 57.8201 24.35C57.7007 24.7506 56.825 24.7506 56.1879 25.7924C57.78 24.8706 58.7754 25.1112 59.1336 26.2729C59.691 28.0759 58.4568 30.2394 57.3822 31.4414C57.3822 31.4013 57.3423 31.3612 57.3423 31.3212C57.1832 31.9223 56.9841 33.0841 55.79 34.3661C55.1927 35.0072 54.7151 34.9271 54.0383 34.7668C53.2423 34.5664 52.9636 34.2056 51.8491 33.6049C51.2121 33.2444 51.5704 32.8036 51.5704 32.443C51.5704 32.3629 51.6499 32.2426 51.7695 32.0825C51.849 31.882 52.0879 31.5618 52.4461 31.201C52.4461 31.201 52.9636 30.4799 53.7201 30.5199C54.4765 30.56 55.2725 30.3999 55.4716 30.1994C55.4716 28.7972 53.8794 28.757 54.4366 26.3532C54.4764 26.233 54.6756 26.0325 55.3123 25.9525C54.3568 25.752 53.9191 25.7119 53.2423 25.0711C52.7647 24.6305 52.4064 24.0695 52.2868 23.3484C52.0482 22.1064 51.6501 15.5757 51.6501 15.5757Z" fill="#F0EFEF"/>
<path d="M43.2509 13.0517C43.0121 12.7311 41.7781 11.1285 39.4294 10.4875C38.7526 10.287 38.3148 10.848 37.6382 11.2487C37.4391 11.1285 36.5634 10.7279 36.0857 11.0082C35.6081 11.2884 35.2897 11.5691 34.8119 11.7694C34.5729 11.6492 33.9361 11.6492 33.4186 11.8494C32.9011 12.0098 32.1049 12.3703 31.3486 13.412C30.871 15.1349 39.7876 13.8526 39.7876 13.8526L43.2509 13.0517Z" fill="#010101"/>
<path d="M43.3304 13.0517C42.0564 12.6109 42.2555 11.1285 39.4292 10.8882C38.8718 10.848 38.5136 11.2886 38.1155 11.5691C38.3146 11.7696 38.5136 12.09 38.633 12.4104C38.2747 12.0099 37.6378 11.4889 37.0007 11.3687C36.4037 11.2487 36.0056 11.6893 35.3686 12.0099C35.4879 12.1299 35.6075 12.3304 35.7665 12.5709C35.2092 12.2104 34.8113 12.0902 34.0549 12.3705C33.5374 12.5306 32.5423 12.9714 31.786 14.0533C31.3083 15.7762 39.8271 13.8528 39.8271 13.8528L43.3304 13.0517Z" class="fill" fill="#FFFFFFF"/>
<path d="M50.8142 13.6927C50.8142 13.6927 50.8142 13.2519 50.7744 12.8514C50.7744 12.7714 50.456 12.5709 50.456 12.4909L50.3765 12.4106C50.3765 12.4106 51.0134 12.0501 51.491 12.2505C52.0083 12.4106 52.287 13.0918 52.287 13.0918C53.2026 12.7714 53.2822 13.1319 53.7201 13.6127C54.6756 13.4122 54.7948 13.7728 55.3921 14.6544C55.3921 14.6544 54.6756 14.5342 53.2824 14.7744C51.9288 14.9746 50.8142 13.6526 50.8142 13.6927Z" fill="#010101"/>
<path d="M50.6549 13.4923C50.6549 13.4923 50.8938 13.2919 50.814 13.2517C51.2518 13.0114 51.849 12.7311 52.1277 13.4923C53.0433 13.1717 53.1627 13.6125 53.6005 14.0934C54.7151 13.5725 54.7946 14.2134 54.8743 14.4939C54.5161 14.4939 53.9988 14.534 53.2821 14.6141C51.9288 14.8145 50.6151 13.4522 50.6549 13.4923Z" class="fill" fill="#FFFFFF"/>
<path d="M37.1207 12.4907C37.1207 12.4907 39.3897 13.2919 41.3004 13.1717C43.2112 13.0116 46.4753 12.8512 48.2268 13.893C48.2268 13.893 50.0181 13.2517 51.6901 13.6925C53.3622 14.1331 56.4272 17.018 55.5118 20.0629C55.432 20.2633 54.9145 20.5837 54.3175 20.7842C54.3175 20.7842 54.636 22.1463 54.0786 23.2681C53.5213 24.35 52.2873 26.4334 52.2474 29.318C52.2078 29.7988 52.1282 30.8004 52.0485 31.2811C48.9434 31.1611 44.1667 29.999 39.4694 30.0793C39.5091 29.5586 39.549 29.238 39.5888 28.7171H39.708C39.4692 27.3949 39.3897 26.7137 39.1507 25.7121C37.638 24.7506 36.0456 23.6289 34.6924 21.5053C33.3787 19.3817 37.1207 12.4907 37.1207 12.4907Z" fill="#010101"/>
<path d="M52.4861 34.126C52.4861 34.126 54.9543 43.0206 52.0484 46.7467C52.0484 46.7467 52.4861 48.4694 51.491 50.3125C51.3317 51.1136 51.1326 51.8349 51.0134 52.6361C50.4959 55.9615 49.6199 57.3638 49.3811 62.6924L46.9925 62.6525C46.9925 62.6525 46.7138 58.8062 45.878 56.7629C45.4005 55.6012 43.5292 54.0384 43.6092 52.476C43.6887 51.2739 43.9275 50.2723 45.9579 48.6696C46.117 46.346 43.8081 44.1422 44.1666 35.4881L52.4861 34.126Z" fill="#010101"/>
<path d="M51.7697 33.7652C52.4066 37.8519 53.8794 43.9018 51.2124 46.8665C51.3316 47.4275 51.4113 48.2288 51.252 49.1502C51.1725 49.6309 51.0132 50.1518 50.8143 50.7126C50.4162 51.6742 50.2569 53.0765 50.1375 53.9178C49.62 57.2432 49.62 57.4037 49.3811 62.7323L46.9925 62.6922C46.9925 62.6922 46.7139 58.8459 45.878 56.8028C45.4005 55.6409 44.4052 54.6393 44.3257 53.0767C44.2461 51.8749 45.082 49.471 47.0725 49.551C46.9531 44.7032 44.7238 45.6646 44.1267 35.5682L51.7697 33.7652Z" fill="#F0EFEF"/>
<path d="M37.1207 12.4907C37.1207 12.4907 37.9964 12.7712 38.9517 12.8512C39.9072 12.9313 40.9422 12.8512 41.8576 12.8111C43.7683 12.651 46.4753 12.4506 48.2666 13.4923C48.2666 13.4923 49.2618 13.1717 50.3367 13.2517C50.8143 13.2919 51.2921 13.6925 51.8493 13.8528C53.6008 14.2935 55.2727 17.2182 54.5162 19.8626C54.4367 20.0631 53.8793 19.8626 53.2424 20.0631C53.3616 20.6241 53.4415 21.9062 52.8044 23.2683C52.1278 24.6307 51.2521 26.3935 51.4112 29.759C47.2314 29.5586 45.3605 29.2783 41.2205 29.0779C40.8622 27.5953 40.6232 26.113 40.5836 25.3518C41.1409 25.0713 41.4591 24.8311 41.8973 24.3502C40.7032 24.5506 40.2253 24.4703 39.5087 24.0697C38.7922 23.669 37.5184 22.3869 36.8815 21.5456C36.8019 21.4653 36.3641 22.7874 35.369 22.8277C35.0106 22.3068 36.5232 20.8243 36.2445 20.2635C35.2496 18.22 37.1207 12.4907 37.1207 12.4907Z" fill="#F0EFEF"/>
<path d="M52.0878 30.4398C52.0878 30.4398 52.1674 31.8822 52.1674 32.2428C52.1674 32.6434 52.4859 33.8453 52.5256 34.4063C52.0878 35.1675 50.1771 36.8904 46.7138 37.5314C43.2904 38.2525 38.7524 32.8439 38.7524 32.8439C38.8719 32.323 39.27 30.8004 39.5486 29.9992C39.5885 29.9191 39.668 29.7187 39.668 29.6386C40.0265 29.1178 52.0878 30.4398 52.0878 30.4398Z" fill="#010101"/>
<path d="M51.2124 30.5602C51.2124 31.5618 51.3715 32.2831 51.4911 32.9241C51.6901 34.086 52.0084 34.8473 52.0084 35.6085C52.0084 37.9321 48.9831 37.5314 46.4353 37.6117C43.0119 38.333 40.106 32.9241 40.106 32.9241C40.3448 32.0026 40.5041 30.9611 40.8623 30.0794C40.902 29.5987 40.9817 28.9978 41.0214 28.7173C45.8779 28.7173 49.3013 28.9978 51.2918 29.1978C51.3715 29.6386 51.292 30.3999 51.2124 30.5602Z" fill="#F0EFEF"/>
<path d="M47.3907 35.7285C47.3907 35.7285 45.281 31.0008 38.9515 32.4033C37.439 36.6902 35.4087 41.6183 36.7224 46.9469C35.4087 48.7499 33.896 49.7517 33.896 53.0769C33.896 56.4023 34.0553 56.9633 34.0553 56.9633L38.7126 57.2039C38.7126 57.2039 40.2253 55.2408 40.8224 53.1172C40.9816 52.5161 41.1409 51.4344 41.0215 50.1925C41.1806 49.9521 41.8574 49.3913 41.9371 48.3095C41.9371 48.3095 44.2061 47.1076 45.5198 44.1829C46.7539 41.538 46.4354 39.2544 47.3907 35.7285Z" fill="#010101"/>
<path d="M47.3908 35.7285C47.2716 35.2879 45.6792 30.9609 39.7877 32.2428C36.3246 41.538 37.5984 45.3843 38.1157 47.0669C35.767 50.0717 34.6923 50.7127 35.1702 56.8028H38.2752C39.7081 54.5191 40.0267 53.6776 40.1062 50.6728C40.1062 50.5526 39.6685 50.9132 39.3499 51.3139C39.5889 50.0719 40.2655 49.8315 40.783 49.0703C41.0218 48.7497 41.2208 48.2689 41.2208 47.6279C44.0073 45.7449 45.0423 43.3809 45.6393 40.9369C46.1172 39.2543 46.6743 36.4897 47.3908 35.7285Z" fill="#F0EFEF"/>
<path d="M37.5585 29.2781C37.5585 29.2781 38.6333 29.318 39.5888 29.6386C40.5044 29.9591 40.5044 30.1593 40.8627 30.5602C41.2209 30.9611 42.0966 31.5618 41.9375 32.1627C41.8578 32.4833 41.6589 32.5634 41.3802 32.8439C41.2608 32.9641 40.3848 33.9255 40.1859 34.0457C40.0665 34.1258 39.9072 34.2462 39.7878 34.3262C39.6686 34.4063 39.3103 34.6468 39.1907 34.7269C38.7926 34.9273 38.5139 35.0475 38.0762 35.0074C38.0762 35.0074 37.081 34.9673 36.4439 34.2863C36.4439 34.2863 36.3644 33.9657 36.5236 33.8055C36.5236 33.8055 35.6876 33.0842 35.4488 32.6035C35.2097 32.123 35.2097 31.4418 35.3692 31.0812C35.4488 30.7203 37.0011 29.7187 37.5585 29.2781Z" fill="#010101"/>
<path d="M38.5537 68.2616L38.4343 69.2634C38.4343 69.2634 38.076 69.704 35.409 69.664C32.702 69.6239 31.9855 68.7826 31.7467 68.3418L31.5876 67.3001C31.5876 67.3001 32.1052 66.5388 32.2246 66.5388C33.1003 66.6189 36.0859 67.821 38.156 68.1414C38.3545 68.1414 38.3942 68.2214 38.5537 68.2616Z" fill="#010101"/>
<path d="M44.3255 66.2182C44.3255 66.6588 44.2856 66.6588 44.2856 67.0997C44.7633 67.4602 45.9578 67.6606 48.2266 67.6203C51.5305 67.5403 54.5957 68.6221 58.3375 67.9809L58.3774 67.2598L58.0191 67.2198L44.7633 66.138L44.3255 66.2182Z" fill="#010101"/>
<path d="M47.2315 67.6205C47.5501 67.6205 47.8685 67.6205 48.2267 67.6205C50.3765 67.5404 52.4066 68.0212 54.5959 68.1414C55.7503 68.1012 57.1834 67.8207 57.064 66.9795L45.7588 66.0178C45.082 66.779 45.5993 67.4201 47.2315 67.6205Z" fill="#010101"/>
<path d="M34.2543 50.7531C34.6125 50.9934 37.0408 52.4358 40.9817 52.2354C40.902 52.9966 40.9418 54.4792 39.1904 57.0833C38.3146 58.3654 37.5581 60.6091 37.399 63.4538C37.4389 64.0949 37.7971 64.6557 37.3195 65.4971C37.4786 66.0178 38.1155 67.0595 38.434 67.7006C38.7524 68.3418 38.9117 69.0629 36.8018 69.103C34.6522 69.143 31.1889 68.9026 31.6668 67.22C31.9058 66.3386 32.5824 65.4171 32.6621 65.0563C32.7417 64.6958 32.7416 63.6141 33.4182 62.8928C34.0155 60.8896 33.8163 58.9665 33.6971 57.1635C33.498 55.2803 33.4581 52.2755 34.2543 50.7531Z" fill="#010101"/>
<path d="M37.9566 18.0998C40.7829 14.2935 38.3943 11.2487 33.8566 12.1701C32.0254 12.5306 30.1943 13.8129 30.0747 16.1365C29.4777 16.2166 28.1243 16.2967 27.4475 18.7808C26.9302 20.7039 26.6515 21.0645 25.7357 22.0259C25.1387 22.7071 25.7756 24.1094 26.2134 25.1112C27.6864 28.5568 32.2243 28.8772 35.2895 31.4815C36.3245 31.201 37.3992 30.0393 37.7177 29.2781C35.1302 26.1929 35.6874 24.991 34.6524 23.3885C35.7671 22.9876 38.3148 21.4252 37.9566 18.0998Z" fill="#010101"/>
<path d="M37.3991 17.8594C37.5582 17.6189 37.8369 17.0982 37.9565 16.8978C37.9963 16.8576 38.4341 17.6189 38.474 17.5789C39.5487 15.8159 39.8273 13.2517 38.5932 13.0114C38.3145 12.9712 37.7972 12.8512 37.3592 12.6907C36.5632 12.4102 35.8468 12.4102 34.5727 12.6508C32.8212 12.9712 31.0698 14.2533 31.0698 16.0964C31.0698 16.2166 32.3035 16.5771 32.662 18.0597C32.0647 17.2182 31.0297 16.2966 29.7957 17.098C28.482 17.9393 29.1588 19.8624 27.4074 21.8656C26.8101 22.5468 26.8898 23.3482 27.5266 24.9507C28.5616 27.4749 33.458 28.8371 36.125 31.241C36.762 30.9605 37.1997 30.3194 37.5183 29.8387C35.727 27.9557 35.0103 26.1926 34.493 24.9105C33.8561 23.4282 33.1394 22.5869 31.7462 21.4648C32.4628 21.7452 33.0202 22.0257 33.3384 22.2661C33.6966 22.5065 34.2141 22.5466 34.6919 22.3863C36.4039 21.7858 37.3195 19.3817 37.3991 17.8594Z" fill="#F0EFEF"/>
<path d="M54.7152 18.5005C54.5958 20.0229 53.4812 19.2617 52.8842 18.9812C51.6899 18.4604 50.4956 18.0998 49.1023 18.0998C47.7091 18.0998 45.9178 18.22 44.3654 18.6207C42.2159 19.2216 41.5788 19.1817 40.6235 18.7007C39.6682 18.1799 37.9965 16.8978 37.9965 16.8978C37.9965 16.8978 37.9566 17.2984 38.3547 17.8193C38.872 18.4604 40.0266 19.2617 41.579 19.7824C42.3353 20.0229 42.9325 19.8624 43.6093 19.7023C47.1521 18.8209 50.8939 18.6606 54.0386 20.5837C54.1979 20.6638 54.7553 20.4234 54.9941 20.0629C55.3122 19.5422 54.7152 18.5005 54.7152 18.5005Z" fill="#010101"/>
<path d="M36.603 33.7652C36.9214 33.9657 37.3195 34.0859 37.7573 34.4464C37.7573 34.4464 37.399 34.4464 37.24 34.2863C37.0408 34.1661 36.6427 33.8056 36.603 33.7652Z" fill="#0A1825"/>
<path d="M48.1073 1.99357C47.9879 1.63302 47.112 0.991776 45.082 0.991776C42.8926 0.991776 42.2557 1.67295 42.216 2.0335C42.216 2.15369 42.0567 3.43598 42.0168 3.95664C42.0168 3.95664 42.0168 4.59769 42.0565 5.55916C42.0964 6.20021 42.2557 6.56076 42.3352 7.40224C42.4147 8.28346 42.6538 8.84445 43.0915 9.56575C43.2907 9.68574 43.4498 9.80612 43.6489 9.84625C44.4451 10.0064 45.8383 10.0465 46.5947 9.84625C47.0324 9.72606 47.5898 8.96483 47.7092 8.28366C47.8683 7.44237 48.0276 6.84125 48.0675 6.32059C48.147 5.79992 48.1869 4.63782 48.2265 4.31719C48.3461 3.43598 48.147 2.07363 48.1073 1.99357Z" fill="#F0EFEF"/>
<path d="M43.9273 51.5143C43.9273 51.5143 46.0372 52.4359 51.252 51.6345C51.252 51.6345 49.7792 59.0867 50.456 62.8126C50.456 62.8126 51.1326 63.7742 56.1484 65.6171C56.1484 65.6171 58.3775 66.1781 58.298 67.3001C58.298 67.3001 58.3775 67.5405 55.6707 67.4602C52.964 67.3799 50.4161 66.8992 48.6248 66.8992C46.8334 66.8992 44.9227 66.9793 44.6043 66.4586C44.2461 65.9779 44.6839 64.7357 45.2014 64.0144C45.7589 63.2534 45.5995 62.6922 45.5598 61.3302C45.44 57.7645 42.733 54.0785 43.9273 51.5143Z" fill="#010101"/>
<path d="M43.4897 52.1955C43.211 52.5961 43.5294 54.1184 43.9275 55.6009C44.3256 57.0833 45.2015 57.9649 45.4004 60.4087C45.5994 62.8126 45.6393 63.1332 44.9625 64.5353C44.2857 65.9374 44.0867 67.2197 46.4353 67.2598C48.7838 67.2999 50.0578 67.2197 52.4462 67.5804C54.8348 67.941 55.6706 68.0611 56.9843 67.8609C58.2981 67.6607 58.5765 67.2197 58.0194 66.8192C57.462 66.4185 55.1531 65.9779 54.158 65.1763C53.2025 64.4552 50.4958 63.2532 50.4561 62.9328C50.3367 61.8509 50.2968 57.9246 50.4958 56.6425C50.6949 55.3602 50.9734 53.5173 51.0531 53.0365C51.1329 52.5558 51.5308 52.0749 50.854 52.2352C50.1774 52.3953 47.6297 52.7561 45.719 52.6359C43.8082 52.5159 43.6093 52.0751 43.4897 52.1955Z" class="fill" fill="#FFFFFF"/>
<path opacity="0.3" d="M44.8432 64.5756C45.5198 64.896 46.5152 65.1366 47.2715 65.1366C47.2715 65.1366 46.9926 66.4588 47.4306 67.26C47.8684 68.0613 44.246 67.5806 44.246 67.5806L44.0869 64.7359L44.8432 64.5756Z" fill="#010101"/>
<path opacity="0.3" d="M55.392 68.0212C56.0289 67.8207 56.4668 67.0996 55.9493 66.4187C55.392 65.7375 54.9143 65.6173 55.6308 65.5774C56.3474 65.5373 58.9746 67.1398 58.9746 67.1398L57.6211 68.3817L55.392 68.0212Z" fill="#010101"/>
<path opacity="0.3" d="M43.3701 53.7579C44.2857 54.0785 45.6789 54.1585 46.8732 54.1184C48.0673 54.0785 49.8586 53.918 51.0133 53.5175C52.1675 53.1168 51.6898 53.9581 51.6898 53.9581L51.0529 54.5592C51.0529 54.5592 49.5403 55.1601 47.0723 55.1202C44.1665 55.0801 43.2905 54.7596 43.2905 54.7596L43.3701 53.7579Z" fill="#010101"/>
<path opacity="0.3" d="M43.4497 55.7612C44.3655 56.0819 45.7586 56.1619 46.9529 56.1218C48.147 56.0819 49.7393 56.0819 50.8938 55.6411C51.3714 55.4809 51.0929 56.1619 51.0929 56.1619L50.8938 56.5225C50.8938 56.5225 49.3412 57.0835 46.913 57.0431C44.0071 57.0032 43.4896 56.7626 43.4896 56.7626L43.4497 55.7612Z" fill="#010101"/>
<path d="M40.8225 27.6756C40.8225 27.9561 43.9276 29.5185 45.6392 29.8391C47.351 30.1595 50.9336 29.8391 51.4908 29.7189L51.4111 30.2799C51.4111 30.2799 47.1518 30.9209 43.8877 30.0395C40.6234 29.1581 40.9818 28.9577 40.9818 28.9577L40.8225 27.6756Z" fill="#010101"/>
<path d="M34.1746 61.8511C34.6522 62.0917 36.364 62.5323 37.4786 62.2919C37.6376 62.2518 37.4786 59.5273 37.9165 58.2853C38.5534 56.5624 39.5885 55.1602 40.0659 52.1154C38.394 51.9551 36.4834 51.5143 35.4881 51.1937C34.2144 55.1202 34.6524 58.4856 34.1746 61.8511Z" fill="#F0EFEF"/>
<path d="M36.8419 64.3754C37.1205 64.4554 37.3195 64.7759 37.3992 64.5758C37.5583 64.2151 37.1205 63.5341 37.0807 63.0534C37.0807 63.0132 37.0807 63.0534 37.0807 63.0132C36.7224 62.6928 34.2942 62.6527 34.4535 62.8128C34.1748 63.3337 33.737 63.2536 33.5779 64.2953C33.4984 64.816 34.1353 64.3754 34.7322 64.3353C33.6575 65.0564 32.4235 65.9781 32.2243 66.7793C31.9855 67.901 32.3836 68.2217 33.5779 68.8228C34.6129 69.0631 35.8469 69.1033 36.8022 69.0631C37.8771 68.8627 38.0762 68.342 37.7577 67.6207C37.2796 66.5389 36.9613 65.1366 36.8419 64.3754Z" fill="#F0EFEF"/>
<path d="M37.2798 12.3304C38.5935 13.0916 40.4247 12.8914 41.1013 12.8512C41.2605 12.8512 42.8529 12.5708 42.9325 12.6107C43.0916 12.6508 43.0916 12.771 43.0916 12.771C43.0916 12.771 42.4945 13.0914 41.1411 13.1715C39.8673 13.2515 38.3546 13.1715 37.5188 12.771C36.5234 12.3304 37.2798 12.3304 37.2798 12.3304Z" fill="#010101"/>
<path d="M50.8142 13.0916C51.053 13.2517 52.6055 13.8528 53.2823 14.5739C53.8793 15.2152 53.561 15.1751 53.4414 15.0147C53.2823 14.8143 52.0481 13.973 51.5705 13.7728C51.0928 13.5725 50.4956 13.2118 50.4956 13.1317C50.4956 13.0517 50.8142 13.0916 50.8142 13.0916Z" fill="#010101"/>
<path d="M37.0805 29.7187C38.2349 29.6386 39.4292 29.9191 40.1855 30.7203C40.5836 31.121 41.2206 31.5616 41.141 31.9623C41.141 32.0825 40.902 32.4031 40.7033 32.6434C40.5838 32.8036 40.2256 33.1641 40.106 33.2845C39.9469 33.4047 39.3896 33.8455 39.2701 33.9255C39.1507 34.0058 38.9915 34.2062 38.872 34.2462C38.4741 34.4466 38.0362 34.2863 37.6381 34.086C37.2402 33.8856 37.7178 33.8455 37.2798 33.5251C36.2052 32.7638 35.6079 32.2428 36.0459 30.7604C36.0856 30.4799 36.5233 30.1593 37.0805 29.7187Z" fill="#F0EFEF"/>
<path opacity="0.4" d="M26.9298 20.5438C23.3471 21.9862 14.2311 26.5538 11.6438 27.9561C13.7934 29.3182 14.7885 32.6035 15.1071 35.9289C15.1467 36.2495 15.1866 36.53 15.2265 36.8505C15.2662 37.131 15.306 37.3312 15.3457 37.4516C15.3457 37.4917 15.3457 37.5718 15.3856 37.6117C17.7343 31.1613 26.1334 24.3502 26.452 23.8293C26.6111 23.5889 26.2528 22.5472 26.8102 21.5458C27.5269 20.2633 28.9203 19.7023 26.9298 20.5438Z" fill="#010101"/>
<path opacity="0.4" d="M35.4485 50.7932C37.2795 47.1072 37.3194 43.5814 37.2795 39.4546C37.2795 37.7317 38.5135 35.2877 37.8768 35.9689C35.4882 38.653 29.4774 43.7016 25.1384 43.9819C31.2289 43.7816 33.6173 46.8667 35.4485 50.7932Z" fill="#010101"/>
<path d="M8.14087 31.3613C10.4099 29.7187 22.1531 23.4286 24.9794 22.547C27.8056 21.6254 26.9298 20.5436 26.9298 20.5436C26.9298 20.5436 15.4653 25.5117 8.61851 29.7988" fill="#010101"/>
<path opacity="0.4" d="M41.5787 19.7826C40.6631 19.422 39.9467 20.5039 40.1855 21.5456C40.4245 22.5873 42.5741 23.749 42.4545 27.5554C42.3749 30.6806 41.6981 31.9625 41.6981 31.9625L40.1855 30.0395C40.1855 30.0395 39.9467 25.7123 39.4291 25.0713C38.9118 24.4302 37.2796 23.2683 36.6427 22.6674C36.0057 22.0663 37.3591 21.2651 37.2796 20.1431C37.2 19.0615 37.9564 16.898 37.9564 16.898L41.5787 19.7826Z" fill="#010101"/>
<path opacity="0.4" d="M47.1122 36.8503C47.0326 39.8551 47.7094 44.3025 47.9879 46.4261C48.2666 48.5494 48.6248 48.7097 47.9879 49.6714C47.351 50.593 46.5151 52.1154 46.5151 52.1154L43.7683 51.8749C43.7683 51.8749 45.9578 49.0703 46.077 48.5494C46.1964 48.0288 44.9624 44.0623 44.9624 44.0623L47.1122 36.8503Z" fill="#010101"/>
<path opacity="0.4" d="M41.8179 8.80472C42.3752 10.0465 43.0518 10.6075 44.1265 10.9682C44.7634 11.2086 47.2712 11.5292 48.2666 10.4072C48.7044 9.88638 48.4257 8.4841 48.4257 8.4841L46.1567 10.327L43.0915 9.76619L42.7333 8.84465L41.8179 8.80472Z" fill="#010101"/>
<path d="M42.0564 11.5691C43.0914 12.2503 45.679 12.8914 46.3954 13.0115C47.1119 13.1717 48.2663 12.2503 48.8237 12.0099C49.4209 11.7294 50.4559 11.5691 51.65 12.651C51.7694 12.7712 51.3714 13.292 51.3714 13.292C51.3315 13.2519 51.0927 13.2519 50.7741 13.0916C50.4557 12.9315 50.1771 12.8111 49.6994 12.8512C47.7089 13.0916 47.3906 13.7728 45.6391 13.3719C43.8876 12.971 43.4496 12.6508 41.738 12.7309" class="fill" fill="#FFFFFF"/>
<path d="M42.0564 11.5691C43.0914 12.2503 45.679 12.8914 46.3954 13.0115C47.1119 13.1717 48.2663 12.2503 48.8237 12.0099C49.4209 11.7294 50.4559 11.5691 51.65 12.651C51.7694 12.7712 51.3714 13.292 51.3714 13.292C51.3315 13.2519 51.0927 13.2519 50.7741 13.0916C50.4557 12.9315 50.1771 12.8111 49.6994 12.8512C47.7089 13.0916 47.3906 13.7728 45.6391 13.3719C43.8876 12.971 43.4496 12.6508 41.738 12.7309" stroke="#010101" stroke-width="1.586" stroke-miterlimit="10" stroke-linejoin="round"/>
<path d="M41.698 11.6893C43.0117 12.2503 45.5594 12.8512 46.2759 13.0116C46.9923 13.1719 48.1468 12.4506 48.7041 12.09C49.6995 11.449 50.9731 11.9698 51.5704 12.651C51.9683 13.0916 52.1277 13.3721 52.1277 13.4923C52.1277 13.6524 51.6501 13.4923 51.6501 13.4923C51.3714 13.3721 51.0529 13.3322 50.8142 13.1717C50.4957 13.0116 50.1771 12.7712 49.6997 12.8111C47.7092 13.0517 47.3111 13.7327 45.5995 13.332C43.8879 12.9313 43.4499 12.5707 41.6189 12.6907" class="fill" fill="#FFFFFF"/>
<path d="M35.5282 49.1102C35.4487 49.0302 35.6078 48.9501 35.5282 48.9501C35.0109 48.9501 34.2943 48.5494 33.896 47.9884C32.1844 45.5045 29.6764 43.8619 25.1384 43.982C18.3313 44.1422 15.6243 41.3378 15.107 35.9691C14.8283 33.0443 14.0321 30.1996 12.4001 28.5969L11.4446 29.198C13.2756 30.8006 13.8728 33.4049 14.2709 36.9707C14.9079 42.3394 19.207 44.8235 24.2228 44.9036C29.4375 44.9836 31.3084 46.0655 33.2589 48.7099C33.8958 49.5512 34.6124 49.8317 35.1696 49.9519L35.5282 49.1102Z" fill="#010101"/>
<path opacity="0.4" d="M53.9988 23.3484C54.1182 23.9493 54.4365 25.1112 55.0734 25.672C55.3523 25.9525 55.392 26.0325 55.1532 26.0325C54.9142 26.0325 53.1627 25.9525 53.1627 25.9525L52.6851 25.1112L53.9988 23.3484Z" fill="#010101"/>
</g>
<defs>
<clipPath id="clip0">
<rect width="60" height="70" fill="white"/>
</clipPath>
</defs>
</svg>
