<svg width="31" height="68" viewBox="0 0 31 68" fill="none" xmlns="http://www.w3.org/2000/svg">
<g clip-path="url(#clip0)">
<path fill-rule="evenodd" clip-rule="evenodd" d="M15.1317 53.6517C11.1644 53.6517 8.11002 53.0516 6.63547 52.6987C5.63489 52.4516 4.82739 52.2045 4.213 51.9398L6.17907 55.3107L6.95145 65.8469C6.95145 67.0293 10.6905 67.9823 15.2897 67.9823C19.8889 67.9823 23.6279 67.0293 23.6279 65.8469L24.2423 55.1871L26.103 51.9221C25.4886 52.1869 24.6636 52.4339 23.6455 52.681C22.1709 53.0516 19.0989 53.6517 15.1317 53.6517ZM26.1557 19.3605C23.2417 19.7664 19.3798 19.9958 15.2897 19.9958C11.1996 19.9958 7.33764 19.7664 4.42365 19.3605C2.98421 19.1664 1.84319 18.9193 1.0357 18.6546C0.8426 18.584 0.509071 18.4781 0.21065 18.3016L2.01873 34.9795C2.1065 34.6971 2.19427 34.3971 2.2996 34.1147C2.51025 33.5323 2.756 32.9499 3.03687 32.4028C3.31774 31.838 3.61616 31.3086 3.94969 30.8144C4.28322 30.3203 4.61674 29.8614 4.98538 29.4378C5.35402 29.0143 5.74021 28.6613 6.1264 28.3613C6.51259 28.0612 6.89879 27.8318 7.30253 27.6553C7.70628 27.4788 8.09247 27.4083 8.47866 27.4083C8.91751 27.4083 9.35637 27.5318 9.77767 27.7789C10.199 28.026 10.5852 28.4142 10.9538 28.979C11.0416 29.1025 11.0942 29.2261 11.1118 29.3496C11.1293 29.4731 11.1469 29.5967 11.1469 29.7026C11.1469 29.9673 11.0767 30.1791 10.9538 30.3203C10.8309 30.4791 10.6729 30.5497 10.5149 30.5497C10.357 30.5497 10.2165 30.4615 10.0761 30.3026C9.93566 30.1438 9.79522 29.8967 9.61968 29.579C9.46169 29.2966 9.28615 29.1025 9.09306 28.9613C8.89996 28.8378 8.70686 28.7672 8.47866 28.7672C8.12758 28.7672 7.75894 28.9084 7.37275 29.1908C6.98656 29.4731 6.60037 29.8614 6.21417 30.3203C5.82798 30.7968 5.45934 31.3262 5.10826 31.9439C4.75718 32.544 4.4412 33.1793 4.17789 33.8147C3.91458 34.45 3.68637 35.0854 3.52839 35.7031C3.3704 36.3208 3.28263 36.8679 3.28263 37.362C3.28263 37.5209 3.30018 37.6974 3.31774 37.8739C3.33529 38.0503 3.38795 38.2092 3.44062 38.3504C3.49328 38.4916 3.58105 38.6151 3.68637 38.7033C3.7917 38.7916 3.93213 38.8445 4.09012 38.8445C4.26566 38.8445 4.47631 38.7916 4.70452 38.668C4.93272 38.5445 5.17848 38.3857 5.42424 38.1915C5.66999 37.9974 5.91575 37.768 6.17907 37.5209C6.42482 37.2738 6.67058 37.0091 6.88123 36.762C7.09188 36.4973 7.28498 36.2502 7.46052 36.0208C7.63606 35.7913 7.75894 35.5795 7.82916 35.4031L8.51377 33.3382C8.60154 33.1087 8.70687 32.9499 8.8473 32.8617C8.98773 32.7734 9.12816 32.7205 9.2686 32.7205C9.33881 32.7205 9.40903 32.7381 9.47925 32.7558C9.54946 32.7734 9.60213 32.8087 9.67234 32.8617C9.72501 32.9146 9.77767 32.9676 9.79522 33.0558C9.83033 33.1264 9.84789 33.2323 9.84789 33.3382C9.84789 33.6206 9.83033 33.8853 9.77767 34.1324C9.72501 34.3794 9.67234 34.6265 9.58457 34.856C9.51436 35.0854 9.42659 35.3325 9.32126 35.5619C9.23349 35.7913 9.12816 36.0384 9.04039 36.3031C9.02284 36.3384 8.98773 36.4267 8.93507 36.5855C8.88241 36.7444 8.81219 36.9385 8.74197 37.1679C8.67176 37.3973 8.58399 37.6621 8.49621 37.9621C8.40844 38.2445 8.32067 38.5445 8.2329 38.8445C8.14513 39.1446 8.05736 39.4446 7.96959 39.727C7.88182 40.0093 7.8116 40.2741 7.74139 40.5211C7.67117 40.7506 7.61851 40.9447 7.5834 41.1035C7.53074 41.2624 7.51318 41.3506 7.49563 41.3859C7.47807 41.4742 7.42541 41.5801 7.37275 41.7036C7.32009 41.8095 7.24987 41.933 7.17965 42.0213C7.10944 42.1272 7.02167 42.2154 6.93389 42.2684C6.84612 42.339 6.75835 42.3742 6.65303 42.3742C6.49504 42.3742 6.38972 42.3213 6.30194 42.2154C6.23173 42.1095 6.19662 41.9154 6.19662 41.633V41.5095C6.19662 41.4742 6.19662 41.4212 6.19662 41.3859C6.19662 41.2977 6.23173 41.1212 6.30194 40.8565C6.37216 40.5917 6.45993 40.3094 6.5477 39.974C6.63547 39.6564 6.7408 39.3034 6.86368 38.9681C6.969 38.6151 7.07433 38.3151 7.1621 38.0327C6.89879 38.3327 6.61792 38.6151 6.3195 38.9151C6.02108 39.1975 5.7051 39.4622 5.38913 39.6917C5.07315 39.9211 4.73962 40.1152 4.42365 40.2564C4.10767 40.3976 3.7917 40.4682 3.49328 40.4682C3.14219 40.4682 2.86133 40.3976 2.59802 40.2388C2.54535 40.2035 2.51025 40.1858 2.47514 40.1505L3.47572 50.722C3.73904 51.375 8.6542 52.9987 15.1317 52.9987C21.6092 52.9987 26.5243 51.375 26.7877 50.722L28.2271 38.1562C28.1042 38.2621 27.9989 38.368 27.876 38.4739C27.4547 38.8622 27.0685 39.1975 26.6999 39.4622C26.3312 39.7446 25.9802 39.9564 25.6291 40.1152C25.278 40.2741 24.9094 40.3447 24.5056 40.3447C24.137 40.3447 23.8386 40.2564 23.6455 40.0976C23.4348 39.9387 23.347 39.7093 23.347 39.4269V39.3563C23.347 39.3387 23.347 39.3034 23.347 39.2857C23.3646 39.1093 23.4348 38.9151 23.5752 38.6857C23.7157 38.4563 23.8737 38.2268 24.0492 37.9797C24.2423 37.7327 24.4354 37.4856 24.646 37.2385C24.8567 36.9914 25.0498 36.7443 25.2253 36.5149C25.4009 36.2855 25.5589 36.0914 25.6642 35.8972C25.7871 35.7031 25.8397 35.5619 25.8397 35.4384C25.8397 35.3678 25.8222 35.3148 25.7695 35.2795C25.7168 35.2442 25.6466 35.2266 25.5238 35.2266C25.3307 35.2266 25.12 35.2795 24.9094 35.3854C24.6987 35.4913 24.4881 35.6325 24.295 35.7913C24.0843 35.9678 23.8912 36.1619 23.6981 36.3914C23.505 36.6208 23.3295 36.8502 23.1539 37.0797C22.9784 37.3268 22.838 37.5562 22.6975 37.8033C22.5571 38.0503 22.4342 38.2621 22.3464 38.4739C22.3113 38.5445 22.2762 38.6327 22.2236 38.7386C22.1709 38.8622 22.1182 38.9857 22.048 39.1269C21.9778 39.2681 21.9076 39.4269 21.8374 39.5858C21.7672 39.7446 21.6969 39.8858 21.6443 40.027C21.5916 40.1682 21.539 40.2917 21.4863 40.3976C21.4336 40.5035 21.3985 40.5741 21.381 40.627C21.3634 40.68 21.3108 40.7859 21.2581 40.9271C21.2054 41.0683 21.1352 41.2447 21.065 41.4389C20.9948 41.633 20.907 41.8448 20.8368 42.0566C20.749 42.2684 20.6788 42.4801 20.6086 42.6743C20.5384 42.8684 20.4682 43.0449 20.4155 43.1861C20.3628 43.3273 20.3277 43.4332 20.3102 43.4861C20.2575 43.6449 20.2048 43.7861 20.1346 43.9097C20.0644 44.0509 19.9942 44.1568 19.9064 44.2626C19.8186 44.3685 19.7133 44.4391 19.608 44.5097C19.5027 44.5803 19.3798 44.598 19.2394 44.598C19.0638 44.598 18.9234 44.5627 18.8005 44.4744C18.6776 44.3862 18.625 44.2273 18.625 43.9803C18.625 43.8567 18.6425 43.7508 18.6776 43.6273C18.7127 43.5038 18.7478 43.3802 18.783 43.2567C18.8356 43.1331 18.8707 43.0272 18.9234 42.9037C18.976 42.7978 19.0112 42.6743 19.0463 42.5684C19.3096 41.986 19.5904 41.4036 19.8538 40.8035C20.1346 40.2211 20.3979 39.6387 20.6437 39.0563C20.6964 38.9328 20.749 38.8092 20.8017 38.7033C20.7841 38.721 20.7666 38.7386 20.749 38.7563C20.433 39.074 20.1171 39.3387 19.8011 39.5858C19.4851 39.8152 19.1691 40.0093 18.8532 40.1505C18.5372 40.2917 18.2388 40.3623 17.9404 40.3623C17.7473 40.3623 17.5717 40.327 17.4313 40.2741C17.2908 40.2035 17.1855 40.1152 17.1153 40.0093C17.0275 39.9034 16.9749 39.7623 16.9398 39.6211C16.9222 39.5681 16.9222 39.5152 16.9047 39.4622C16.8169 39.5328 16.7291 39.6034 16.6413 39.6564C16.3429 39.8681 16.0445 40.0446 15.7461 40.1858C15.4477 40.3094 15.1844 40.38 14.9561 40.38C14.7279 40.38 14.5348 40.3094 14.3769 40.1505C14.2364 39.9917 14.1487 39.727 14.1487 39.3387C14.1487 39.074 14.1838 38.7563 14.2715 38.4033C14.1487 38.6327 13.9907 38.8622 13.7976 39.0916C13.6045 39.321 13.3938 39.5328 13.1481 39.727C12.9023 39.9211 12.6214 40.0799 12.323 40.2035C12.0246 40.327 11.6911 40.38 11.3224 40.38C11.1644 40.38 11.0065 40.3623 10.8485 40.327C10.6905 40.2917 10.5676 40.2211 10.4623 40.1152C10.357 40.0093 10.2516 39.8858 10.1814 39.7093C10.1112 39.5505 10.0761 39.3387 10.0761 39.074C10.0761 39.074 10.0936 38.9857 10.1112 38.8092C10.1288 38.6327 10.199 38.368 10.3043 37.9974C10.4096 37.6268 10.5676 37.1503 10.7958 36.5502C11.024 35.9502 11.3224 35.2442 11.7262 34.3971C11.8315 34.1677 11.9544 34.0088 12.0773 33.9206C12.2177 33.8323 12.3581 33.7794 12.5161 33.7794C12.5863 33.7794 12.6566 33.797 12.7268 33.8147C12.797 33.8323 12.8672 33.8676 12.9374 33.9029C13.0076 33.9382 13.0603 34.0088 13.0954 34.0618C13.1305 34.1324 13.1481 34.203 13.1481 34.2912C13.1481 34.3441 13.1481 34.3971 13.1305 34.45C13.113 34.5559 13.0603 34.6795 12.9725 34.8383C12.8848 34.9971 12.797 35.1913 12.6917 35.3854C12.5863 35.5972 12.4635 35.809 12.3406 36.0561C12.2177 36.3031 12.1124 36.5502 12.007 36.7973C11.9017 37.062 11.814 37.3091 11.7437 37.5915C11.6735 37.8562 11.6209 38.1209 11.6209 38.368C11.6209 38.4739 11.6384 38.5622 11.6911 38.6504C11.7437 38.7386 11.814 38.7739 11.9368 38.7739C12.2528 38.7739 12.5688 38.668 12.8496 38.4563C13.1481 38.2445 13.4114 37.9797 13.6571 37.6621C13.9029 37.3444 14.1311 37.0091 14.3242 36.6561C14.5173 36.3031 14.6928 35.9678 14.8157 35.6678C14.9035 35.4737 14.9913 35.2619 15.0615 35.0324C15.1317 34.803 15.2019 34.5912 15.2897 34.3971C15.3774 34.203 15.4652 34.0441 15.5705 33.9206C15.6759 33.797 15.8163 33.7264 15.9743 33.7264C16.1498 33.7264 16.2903 33.797 16.3956 33.9206C16.5009 34.0618 16.5536 34.2206 16.5536 34.3971C16.5536 34.503 16.5185 34.6442 16.4482 34.8383C16.378 35.0148 16.2903 35.2266 16.2025 35.4737C16.0972 35.7031 15.9918 35.9678 15.869 36.2325C15.7461 36.4973 15.6408 36.7796 15.5354 37.062C15.4301 37.3444 15.3423 37.6091 15.2897 37.8739C15.2195 38.1386 15.1844 38.3857 15.1844 38.6151C15.1844 38.8269 15.2897 38.9328 15.5003 38.9328C15.6583 38.9328 15.8339 38.8798 16.0621 38.7739C16.2903 38.668 16.5185 38.5269 16.7818 38.3327C16.852 38.2798 16.9047 38.2268 16.9749 38.1915C17.0451 37.9092 17.1329 37.6444 17.2206 37.3973C17.3962 36.9385 17.5717 36.4796 17.7473 36.0384C17.9228 35.5795 18.0808 35.1736 18.2388 34.803L20.4682 29.1378C20.5559 28.9084 20.6788 28.7495 20.8192 28.6613C20.9772 28.5731 21.1177 28.5201 21.2756 28.5201C21.4336 28.5201 21.5741 28.5731 21.6969 28.6613C21.8198 28.7672 21.89 28.926 21.89 29.1378C21.89 29.2437 21.8725 29.3496 21.8198 29.4731C21.7847 29.5967 21.7321 29.7202 21.6618 29.8438C21.539 30.1261 21.3985 30.4615 21.223 30.8497C21.0474 31.2556 20.8719 31.6792 20.6788 32.1557C20.4857 32.6322 20.2926 33.1087 20.082 33.6206C19.8713 34.1324 19.6782 34.6265 19.4851 35.103C19.292 35.5795 19.1165 36.0384 18.9409 36.462C18.7654 36.8855 18.625 37.2738 18.5021 37.5738C18.4494 37.715 18.3968 37.8739 18.3441 38.0503C18.2914 38.2268 18.2739 38.3857 18.2739 38.5269C18.2739 38.6151 18.2914 38.6857 18.3265 38.7386C18.3617 38.7916 18.4143 38.8092 18.5021 38.8092C18.6074 38.8092 18.7303 38.7739 18.8883 38.7033C19.0463 38.6327 19.2043 38.5269 19.3974 38.421C19.5729 38.2974 19.766 38.1562 19.9591 38.015C20.1522 37.8562 20.3453 37.6974 20.5384 37.5385C20.7315 37.3797 20.907 37.2032 21.0825 37.0444C21.2581 36.8855 21.4161 36.7267 21.5565 36.5855C21.5916 36.5502 21.6267 36.5326 21.6618 36.5149C21.7496 36.2678 21.8198 36.0208 21.89 35.7737C21.9251 35.6678 21.9778 35.5266 22.048 35.3325C22.1182 35.1383 22.1885 34.9442 22.2762 34.7677C22.364 34.5736 22.4693 34.4147 22.5747 34.2735C22.68 34.1324 22.8029 34.0618 22.9257 34.0618C23.1188 34.0618 23.2593 34.1147 23.347 34.203C23.4348 34.2912 23.4875 34.4324 23.4875 34.6089C23.4875 34.6442 23.4875 34.6971 23.4699 34.7677C23.4524 34.8383 23.4524 34.9265 23.4348 35.0148C23.4173 35.103 23.3997 35.1736 23.3821 35.2619C23.3646 35.3325 23.347 35.3854 23.3295 35.4207C23.505 35.2266 23.7157 35.0324 23.9263 34.8207C24.137 34.6265 24.3652 34.45 24.5758 34.2912C24.804 34.1324 25.0322 34.0088 25.278 33.9029C25.5062 33.797 25.752 33.7617 25.9802 33.7617C26.1381 33.7617 26.2961 33.7794 26.4717 33.8323C26.6297 33.8853 26.7701 33.9559 26.893 34.0441C27.0159 34.1324 27.1212 34.2559 27.1914 34.3794C27.2616 34.5206 27.3143 34.6795 27.3143 34.856C27.3143 35.103 27.2616 35.3501 27.1387 35.6325C27.0159 35.8972 26.8754 36.1796 26.6823 36.462C26.5068 36.7444 26.2961 37.0091 26.0855 37.2738C25.8748 37.5385 25.6817 37.768 25.4886 37.9797C25.2955 38.1915 25.1551 38.368 25.0322 38.5269C24.9094 38.668 24.8391 38.7739 24.8391 38.8269C24.8391 38.8975 24.8567 38.9504 24.9094 39.0034C24.962 39.0387 25.0322 39.074 25.1376 39.074C25.2253 39.074 25.3482 39.021 25.5062 38.9328C25.6642 38.8445 25.8924 38.668 26.1908 38.4386C26.4892 38.2092 26.8579 37.8915 27.2967 37.5032C27.6127 37.2385 27.9638 36.9208 28.3675 36.5502L30.3687 18.3016C30.0527 18.4781 29.7192 18.584 29.5261 18.6546C28.7362 18.9193 27.5951 19.1664 26.1557 19.3605ZM15.2721 15.0542C6.84612 15.0542 0 16.0073 0 17.1721C0 18.3369 6.84612 19.2899 15.2721 19.2899C23.6981 19.2899 30.5442 18.3369 30.5442 17.1721C30.5442 16.0073 23.6981 15.0542 15.2721 15.0542ZM21.3634 17.7898C21.3634 18.0722 20.5559 18.2839 19.5553 18.2839C18.5548 18.2839 17.7473 18.0545 17.7473 17.7898C17.7473 17.5074 18.5548 17.2956 19.5553 17.2956C20.5559 17.2956 21.3634 17.5074 21.3634 17.7898Z" fill="white"/>
<path fill-rule="evenodd" clip-rule="evenodd" d="M18.1159 17.578C18.0984 17.5956 18.0984 17.6133 18.0984 17.6309C18.0984 17.8074 18.7479 17.9486 19.5554 17.9486C20.3629 17.9486 21.0124 17.8074 21.0124 17.6309L22.9258 9.84791L30.5092 1.80016C30.6672 1.62367 30.3512 1.05891 29.807 0.564754C29.2628 0.0882418 28.6835 -0.0882441 28.508 0.10589L20.4155 8.64781L18.1159 17.578Z" fill="white"/>
</g>
<defs>
<clipPath id="clip0">
<rect width="30.5618" height="68" fill="white"/>
</clipPath>
</defs>
</svg>
