<svg width="59" height="68" viewBox="0 0 59 68" fill="none" xmlns="http://www.w3.org/2000/svg">
<path d="M0 0L5.36364 61.0938L29.4346 68L53.6364 61.0938L59 0H0ZM47.8803 14.4766L47.4878 18.3281L47.357 19.9219H29.5654H29.4346H19.0998L19.7539 27.625H29.4346H29.5654H44.6098H46.7029L46.4412 29.6172L44.7406 49.4062L44.6098 50.7344L29.5654 54.9445V54.9844H29.4346L14.2594 50.7344L13.3437 38.9141H16.745H20.6696L21.1929 44.8906L29.4346 47.1484L37.6763 44.8906L38.592 35.1953H29.5654H29.4346H12.9512L11.1197 14.4766L10.9889 12.4844H29.4346H29.5654H48.0111L47.8803 14.4766Z" fill="white"/>
</svg>
