<svg width="68" height="68" viewBox="0 0 68 68" fill="none" xmlns="http://www.w3.org/2000/svg">
<path d="M61.8365 0H6.16352C2.7608 0 0 2.7608 0 6.16352V61.8338C0 65.2392 2.7608 68 6.16352 68H61.8338C65.2392 68 67.9973 65.2392 67.9973 61.8365V6.16352C68 2.7608 65.2392 0 61.8365 0ZM22.7256 13.2083C24.9859 13.2083 26.879 14.979 26.879 17.2992C26.879 19.6221 24.9859 21.3928 22.7256 21.3928C20.4653 21.3928 18.5722 19.6221 18.5722 17.2992C18.5722 14.9818 20.4653 13.2083 22.7256 13.2083ZM50.5158 52.3654C46.2998 52.3654 44.2843 49.863 44.2843 46.4413C44.2843 45.4648 44.4067 44.4258 44.7114 43.3867L46.7269 36.1787C46.9717 35.3845 47.0315 34.6528 47.0315 33.981C47.0315 31.6608 45.6253 30.2546 43.3677 30.2546C40.4954 30.2546 38.6022 32.3163 37.6258 36.2848L33.7144 51.9683H26.8763L28.103 47.0397C26.093 50.3418 23.2995 52.3872 19.856 52.3872C15.7026 52.3872 13.7469 49.9936 13.7469 46.3896C13.7469 45.4757 13.8693 44.3523 14.1141 43.316L17.2285 30.5891H12.4032L13.8693 25.179H25.4755L20.8923 43.3541C20.5877 44.5155 20.4653 45.4784 20.4653 46.1502C20.4653 47.3117 21.0365 47.6517 21.9314 47.853C22.4754 47.9754 26.8165 47.8883 29.1802 42.636L32.1885 30.5864H27.3006L28.7667 25.1763H39.2115L37.8678 31.3181C39.7011 27.8963 43.365 24.6459 46.969 24.6459C50.8178 24.6459 53.9947 27.3877 53.9947 32.64C53.9947 33.9837 53.8125 35.447 53.3229 37.0954L51.3672 44.1184C51.185 44.8528 51.0626 45.4621 51.0626 46.0142C51.0626 47.2355 51.5522 47.8448 52.4688 47.8448C53.3854 47.8448 54.5469 47.1702 55.8906 43.4466L58.5779 44.4829C56.9922 50.0453 54.1198 52.3654 50.5158 52.3654Z" fill="white"/>
</svg>
