<svg width="68" height="68" viewBox="0 0 68 68" fill="none" xmlns="http://www.w3.org/2000/svg">
<path d="M0 0V68H68V0H0ZM37.0056 53.0373C37.0056 59.655 33.1269 62.6688 27.4666 62.6688C22.3557 62.6688 19.3882 60.0222 17.8813 56.8262L23.0846 53.6765C24.0883 55.4554 25.0022 56.9622 27.1918 56.9622C29.2917 56.9622 30.6163 56.1408 30.6163 52.9448V31.2174H37.0056V53.0373ZM52.1152 62.6688C46.1802 62.6688 42.3477 59.84 40.4763 56.1408L45.6797 53.127C47.0506 55.3629 48.8294 57.0058 51.9792 57.0058C54.6285 57.0058 56.3149 55.6811 56.3149 53.856C56.3149 51.6664 54.5795 50.8885 51.6582 49.6101L50.0616 48.9246C45.4512 46.9635 42.3939 44.4965 42.3939 39.2931C42.3939 34.5005 46.0442 30.8475 51.7507 30.8475C55.8144 30.8475 58.7357 32.2619 60.8328 35.9611L55.8579 39.1571C54.7618 37.1933 53.5758 36.4181 51.7507 36.4181C49.8794 36.4181 48.6934 37.604 48.6934 39.1571C48.6934 41.0747 49.8794 41.8499 52.6184 43.0386L54.215 43.724C59.6469 46.0523 62.7042 48.4269 62.7042 53.7662C62.7042 59.519 58.1862 62.6688 52.1152 62.6688Z" fill="white"/>
</svg>
