<svg width="72" height="68" viewBox="0 0 72 68" fill="none" xmlns="http://www.w3.org/2000/svg">
<g clip-path="url(#clip0)">
<path class="fill" d="M59.8051 0H12.2749C5.82139 0 0.561768 5.17944 0.561768 11.5664V56.4336C0.561768 62.8206 5.82139 68 12.2749 68H59.8374C66.2909 68 71.5506 62.8206 71.5183 56.4336V11.5346C71.5183 5.17944 66.2909 0 59.8051 0ZM37.7018 43.8505L36.8951 48.3626C36.8306 48.6168 36.6692 48.7439 36.4111 48.7439H18.793V48.7122C18.4058 48.7122 18.309 48.5533 18.309 48.2355V14.0766C18.309 13.8224 18.4058 13.6636 18.6962 13.6636H23.7945C24.0526 13.6636 24.1171 13.7589 24.1171 14.0449V43.4692H37.4114C37.6695 43.4692 37.7663 43.5645 37.7018 43.8505ZM55.3522 27.3271C55.3522 27.5813 55.2554 27.6449 54.965 27.6449C52.9321 27.5495 49.9312 27.8037 48.8019 28.2804V48.3308C48.8019 48.585 48.7051 48.7122 48.4147 48.7122H43.3487C43.0905 48.7122 42.9614 48.6168 42.9614 48.3308V28.1215H42.9937C42.9937 27.7402 42.9937 26.8187 42.8324 25.0393C42.8324 24.785 42.8969 24.7215 43.0905 24.6262C45.0588 23.8318 49.7376 22.4336 54.965 22.4336C55.2231 22.4336 55.3522 22.4972 55.3522 22.7514V27.3271Z" fill="white"/>
</g>
<defs>
<clipPath id="clip0">
<rect x="0.561768" width="70.9565" height="68" fill="white" class="fill"/>
</clipPath>
</defs>
</svg>
