<svg width="26" height="26" viewBox="0 0 26 26" fill="none" xmlns="http://www.w3.org/2000/svg">
<path d="M25.143 24.65L23.9933 20.0553C23.976 19.9837 23.9395 19.9181 23.8877 19.8656L17.0196 13L18.004 12.0157C18.1319 11.8826 18.2881 11.7798 18.461 11.7149C18.6338 11.65 18.819 11.6247 19.0029 11.6407C19.8587 11.7388 20.7254 11.6263 21.5277 11.3129C22.33 10.9996 23.0436 10.4949 23.6063 9.84274C24.169 9.19061 24.5638 8.41083 24.7563 7.57128C24.9488 6.73173 24.9331 5.85785 24.7108 5.02572C24.6923 4.95685 24.656 4.89405 24.6056 4.84364C24.5551 4.79323 24.4923 4.75699 24.4235 4.73854C24.3546 4.7201 24.2821 4.72011 24.2132 4.73857C24.1443 4.75703 24.0815 4.7933 24.0311 4.84372L21.1991 7.67569L18.8055 7.19469L18.3241 4.80106L21.1565 1.96909C21.2069 1.91868 21.2432 1.85588 21.2616 1.787C21.2801 1.71813 21.2801 1.64561 21.2617 1.57673C21.2432 1.50785 21.207 1.44504 21.1565 1.39461C21.1061 1.34418 21.0433 1.30791 20.9745 1.28944C20.1423 1.06712 19.2685 1.05156 18.4289 1.24411C17.5894 1.43666 16.8097 1.83148 16.1576 2.39422C15.5055 2.95696 15.0008 3.67055 14.6875 4.47287C14.3742 5.2752 14.2617 6.14194 14.3599 6.99765C14.3758 7.18156 14.3503 7.36667 14.2853 7.53945C14.2204 7.71223 14.1176 7.86829 13.9845 7.99622L13.0002 8.98056L5.79819 1.77653C5.53411 1.51245 5.2206 1.30297 4.87557 1.16005C4.53053 1.01713 4.16072 0.943573 3.78725 0.943573C3.41379 0.943573 3.04398 1.01713 2.69894 1.16005C2.35391 1.30297 2.0404 1.51245 1.77632 1.77653C1.51224 2.04061 1.30276 2.35412 1.15984 2.69916C1.01692 3.04419 0.943359 3.414 0.943359 3.78747C0.943359 4.16093 1.01692 4.53074 1.15984 4.87578C1.30276 5.22082 1.51224 5.53433 1.77632 5.79841L8.98035 13L7.99641 13.9839C7.86872 14.1174 7.71262 14.2204 7.53968 14.2853C7.36675 14.3502 7.18142 14.3754 6.99744 14.3589C6.14167 14.2608 5.27488 14.3733 4.47252 14.6866C3.67017 15 2.95658 15.5048 2.39387 16.157C1.83116 16.8091 1.4364 17.589 1.24394 18.4286C1.05148 19.2682 1.06717 20.1421 1.28963 20.9743C1.3081 21.0431 1.34438 21.1059 1.39481 21.1564C1.44524 21.2068 1.50805 21.243 1.57693 21.2615C1.6458 21.2799 1.71832 21.2799 1.78719 21.2614C1.85607 21.243 1.91887 21.2067 1.96929 21.1563L4.80125 18.3243L7.19488 18.8053L7.67832 21.1989L4.84594 24.0309C4.79552 24.0813 4.75926 24.1441 4.74079 24.213C4.72233 24.2819 4.72232 24.3544 4.74077 24.4233C4.75921 24.4921 4.79546 24.555 4.84587 24.6054C4.89628 24.6558 4.95907 24.6921 5.02794 24.7106C5.85995 24.9325 6.73359 24.9477 7.57284 24.755C8.41209 24.5623 9.19154 24.1674 9.84336 23.6047C10.4952 23.042 10.9997 22.3286 11.3129 21.5265C11.6261 20.7243 11.7385 19.8578 11.6405 19.0023C11.6246 18.8184 11.6501 18.6333 11.7151 18.4605C11.78 18.2878 11.8828 18.1317 12.0158 18.0038L13.0002 17.0194L19.8658 23.8875C19.9178 23.9395 19.983 23.9764 20.0543 23.9943L24.649 25.144C24.6813 25.1521 24.7144 25.1562 24.7477 25.1562C24.8095 25.1562 24.8704 25.1421 24.9259 25.115C24.9814 25.088 25.03 25.0486 25.068 24.9999C25.106 24.9512 25.1324 24.8945 25.1452 24.8341C25.1579 24.7737 25.1568 24.7111 25.1418 24.6512L25.143 24.65ZM22.1201 23.6722L20.5589 23.2814V21.7973L21.5095 21.9875C21.5751 22.0006 21.6429 21.9974 21.707 21.978C21.771 21.9586 21.8293 21.9237 21.8766 21.8764C21.9239 21.8291 21.9588 21.7708 21.9782 21.7068C21.9975 21.6427 22.0008 21.5749 21.9877 21.5093L21.7971 20.5587H23.2816L23.672 22.1195C23.3225 22.2611 23.005 22.4715 22.7384 22.7383C22.4718 23.005 22.2615 23.3226 22.1201 23.6722ZM20.9273 20.3531L21.0712 21.0714L20.3533 20.9276L6.66269 7.23694L7.2351 6.6625L20.9273 20.3531ZM14.559 8.57187C14.7785 8.35739 14.9472 8.09645 15.0527 7.80821C15.1581 7.51997 15.1976 7.21177 15.1683 6.90625C15.0924 6.2445 15.1651 5.57414 15.3813 4.94411C15.5975 4.31407 15.9517 3.74028 16.418 3.26461C16.8843 2.78894 17.4509 2.42341 18.0765 2.19471C18.7021 1.966 19.3709 1.8799 20.034 1.94269L17.5965 4.38019C17.5491 4.42757 17.5142 4.48594 17.4949 4.55008C17.4755 4.61423 17.4723 4.68217 17.4856 4.74784L18.0629 7.61962C18.0786 7.69816 18.1172 7.77029 18.1738 7.82696C18.2304 7.88363 18.3025 7.9223 18.381 7.93812L21.2528 8.51459C21.3184 8.52786 21.3864 8.52467 21.4505 8.50532C21.5147 8.48597 21.573 8.45106 21.6204 8.40369L24.0579 5.96619C24.1209 6.62929 24.035 7.2981 23.8065 7.92377C23.578 8.54944 23.2127 9.11619 22.7372 9.58263C22.2617 10.0491 21.688 10.4034 21.058 10.6198C20.4281 10.8362 19.7577 10.9092 19.096 10.8335C18.7905 10.8043 18.4823 10.8439 18.1941 10.9493C17.9059 11.0548 17.6449 11.2234 17.4303 11.4428L16.4452 12.4256L15.2927 11.273C15.3008 11.2661 15.3109 11.2637 15.3187 11.256L16.9437 9.63097C17.0177 9.55435 17.0586 9.45173 17.0577 9.34521C17.0568 9.23869 17.014 9.1368 16.9387 9.06148C16.8634 8.98616 16.7615 8.94343 16.655 8.94251C16.5485 8.94158 16.4458 8.98253 16.3692 9.05653L14.7442 10.6815C14.7365 10.6892 14.7341 10.6994 14.7272 10.7075L13.5746 9.555L14.559 8.57187ZM8.38397 5.51159L22.6169 19.7462H21.4701L7.80954 6.08603L8.38397 5.51159ZM2.35116 5.22356C2.16119 5.03524 2.01028 4.81126 1.9071 4.56446C1.80392 4.31766 1.75051 4.05292 1.74992 3.78542C1.74934 3.51793 1.80159 3.25295 1.90369 3.0057C2.00578 2.75846 2.15571 2.53381 2.34486 2.34466C2.53401 2.15552 2.75865 2.00559 3.0059 1.90349C3.25314 1.8014 3.51812 1.74914 3.78562 1.74973C4.05311 1.75032 4.31786 1.80373 4.56465 1.90691C4.81145 2.01009 5.03544 2.16099 5.22375 2.35097L6.08541 3.21262L3.21282 6.08522L2.35116 5.22356ZM3.78725 6.66006L6.66025 3.78706L7.80913 4.93634L4.93613 7.80894L3.78725 6.66006ZM11.4414 17.4281C11.2219 17.6426 11.0532 17.9036 10.9477 18.1918C10.8423 18.48 10.8027 18.7882 10.832 19.0937C10.908 19.7555 10.8353 20.4259 10.6191 21.0559C10.4029 21.6859 10.0487 22.2597 9.58241 22.7354C9.11612 23.2111 8.54949 23.5766 7.92389 23.8053C7.29829 24.034 6.62951 24.1201 5.96638 24.0573L8.40388 21.6198C8.45132 21.5725 8.48631 21.5141 8.50574 21.45C8.52516 21.3858 8.52841 21.3179 8.51519 21.2522L7.93832 18.38C7.9226 18.3014 7.88401 18.2293 7.82742 18.1726C7.77082 18.116 7.69874 18.0773 7.62022 18.0615L4.74804 17.485C4.68267 17.4721 4.61513 17.4754 4.55137 17.4948C4.48761 17.5141 4.42959 17.5489 4.38241 17.5959L1.94491 20.0334C1.88199 19.3704 1.96791 18.7016 2.19641 18.0761C2.42491 17.4505 2.79023 16.8838 3.26568 16.4174C3.74114 15.951 4.31474 15.5967 4.94462 15.3803C5.57449 15.1639 6.24474 15.0908 6.90644 15.1665C7.21198 15.1961 7.52027 15.1567 7.80855 15.0513C8.09684 14.9458 8.35776 14.7769 8.57207 14.5572L9.55641 13.5728L10.7085 14.7253C10.7008 14.7322 10.6907 14.7347 10.6829 14.7424L9.05794 16.3674C9.01914 16.4049 8.98819 16.4497 8.9669 16.4993C8.94561 16.5488 8.9344 16.6021 8.93393 16.6561C8.93347 16.71 8.94374 16.7635 8.96417 16.8134C8.9846 16.8634 9.01476 16.9087 9.05291 16.9469C9.09105 16.985 9.13641 17.0152 9.18634 17.0356C9.23626 17.056 9.28976 17.0663 9.3437 17.0658C9.39764 17.0654 9.45095 17.0542 9.50051 17.0329C9.55008 17.0116 9.5949 16.9806 9.63238 16.9418L11.2574 15.3168C11.2651 15.3091 11.2675 15.299 11.2744 15.2912L12.427 16.4434L11.4414 17.4281ZM5.51057 8.385L6.08622 7.80934L19.7464 21.4699V22.6167L5.51057 8.385ZM22.9224 23.8729C23.116 23.4529 23.4531 23.1158 23.8731 22.9222L24.1903 24.1902L22.9224 23.8729Z" fill="white"/>
</svg>
