<svg width="68" height="68" viewBox="0 0 68 68" fill="none" xmlns="http://www.w3.org/2000/svg">
<path class="fill" d="M0 68C0 45.3333 0 22.6667 0 0C22.6667 0 45.3333 0 68 0C68 22.6667 68 45.3333 68 68C45.3333 68 22.6667 68 0 68ZM19.4982 53.3763V40.9462C21.6918 40.9462 23.6416 40.7025 25.5914 40.4588C26.5663 40.4588 27.2975 40.215 28.0287 39.9713C34.3656 37.534 36.3154 32.4158 35.3405 25.8351C35.0968 23.3978 33.6344 21.2043 31.4409 19.7419C29.2473 18.2796 26.81 17.5484 24.3728 17.5484C21.448 17.5484 18.767 17.5484 15.8423 17.7921C14.6237 17.7921 13.405 18.0358 12.1864 18.2796V53.6201H19.4982V53.3763ZM39.4839 46.0645C38.9964 47.7706 38.7527 49.233 38.2652 50.9391C38.0215 51.914 38.0215 51.914 38.9964 52.4014C41.6774 53.6201 44.6021 53.8638 47.5269 53.6201C49.7204 53.6201 51.914 53.1326 53.8638 51.914C58.9821 49.233 59.2258 41.6774 54.3512 38.9964C52.8889 38.2652 51.4265 37.7778 49.9642 37.0466C49.233 36.5591 48.2581 36.3154 47.5269 35.828C46.3082 35.0968 46.552 33.3907 47.7706 32.6595C48.2581 32.4158 48.5018 32.4158 48.9892 32.4158C50.9391 32.172 52.8889 32.6595 54.595 33.3907C54.8387 33.3907 55.0824 33.6344 55.3262 33.6344C55.8136 31.6846 56.3011 29.9785 56.7885 28.0287C56.5448 28.0287 56.3011 27.7849 56.3011 27.7849C53.3763 26.5663 50.2079 26.3226 47.0394 26.81C44.8459 27.0538 42.6523 28.0287 41.19 29.7348C38.7527 32.4158 37.7778 37.534 42.1649 40.7025C43.3835 41.4337 44.6021 42.1649 46.0645 42.6523C47.0394 43.1398 48.2581 43.3835 49.233 43.871C50.2079 44.3584 50.4516 45.0896 50.4516 46.0645C50.2079 47.0394 49.7204 47.5269 48.7455 47.7706C47.5269 48.0143 46.552 48.0143 45.3333 47.7706C42.8961 47.5269 41.19 46.7957 39.4839 46.0645Z" fill="white"/>
<path class="fill" d="M19.9856 28.7599C19.9856 27.0538 19.9856 25.5914 19.9856 23.8853C19.9856 23.6416 19.9856 23.3978 20.4731 23.3978C22.1791 23.1541 24.129 22.9104 25.8351 23.3978C28.0286 23.8853 29.491 25.5914 29.491 27.5412C29.7347 30.2222 28.5161 32.172 26.3225 33.3907C24.6164 34.3656 22.6666 34.1219 20.4731 34.1219C19.9856 34.1219 19.9856 33.8781 19.9856 33.6344C19.9856 31.9283 19.9856 30.2222 19.9856 28.7599Z" fill="white"/>
</svg>
