<svg width="92" height="68" viewBox="0 0 92 68" fill="none" xmlns="http://www.w3.org/2000/svg">
<g clip-path="url(#clip0)">
<path class="fill" d="M78.4115 39.084C75.2344 39.1006 72.4732 39.8624 70.1611 40.9885C69.3128 39.3159 68.4645 37.8254 68.3148 36.7323C68.1484 35.4571 67.9488 34.6787 68.1484 33.1551C68.348 31.6315 69.2463 29.462 69.2296 29.2964C69.213 29.1308 69.03 28.3524 67.2003 28.3358C65.3706 28.3193 63.7904 28.6836 63.6074 29.1639C63.4244 29.6442 63.0751 30.7372 62.8422 31.8634C62.5262 33.5195 59.1828 39.4318 57.2699 42.5287C56.6545 41.3198 56.1222 40.2598 56.0058 39.4152C55.8394 38.14 55.6398 37.3616 55.8394 35.838C56.039 34.3144 56.9372 32.1449 56.9206 31.9793C56.904 31.8137 56.721 31.0353 54.8913 31.0187C53.0616 31.0022 51.4814 31.3665 51.2984 31.8468C51.1154 32.3271 50.9158 33.4532 50.5332 34.5463C50.1507 35.6393 45.7094 45.5097 44.5451 48.0601C43.9462 49.3685 43.4306 50.4118 43.0646 51.1239C43.0646 51.1239 43.048 51.1736 42.9981 51.2564C42.6821 51.8692 42.4991 52.2004 42.4991 52.2004C42.4991 52.2004 42.4991 52.2004 42.4991 52.217C42.2496 52.6641 41.9835 53.0782 41.8504 53.0782C41.7506 53.0782 41.5676 51.8858 41.8836 50.2628C42.549 46.8346 44.1292 41.5019 44.1126 41.3198C44.1126 41.2204 44.412 40.293 43.0813 39.8127C41.7838 39.3324 41.3181 40.1274 41.2017 40.1274C41.0852 40.1274 41.0021 40.4089 41.0021 40.4089C41.0021 40.4089 42.4492 34.4138 38.2408 34.4138C35.6127 34.4138 31.9865 37.2788 30.1901 39.8624C29.059 40.4751 26.6471 41.7835 24.0688 43.1912C23.0874 43.7377 22.0728 44.2842 21.1247 44.7976C21.0581 44.7313 20.9916 44.6485 20.9251 44.5823C15.8351 39.1668 6.42037 35.3412 6.81958 28.0709C6.96929 25.4211 7.88415 18.4654 24.9005 10.0192C38.9062 3.14636 50.0508 5.05089 51.9804 9.27398C54.7416 15.3022 46.0088 26.4976 31.5374 28.1205C26.015 28.7333 23.1207 26.6135 22.3888 25.8185C21.6237 24.9905 21.5072 24.9408 21.2245 25.1064C20.7587 25.3548 21.0581 26.1001 21.2245 26.5307C21.6569 27.6568 23.4368 29.6442 26.4475 30.6213C29.1089 31.4824 35.5794 31.9627 43.414 28.9486C52.18 25.5701 59.0331 16.18 57.0204 8.31343C55.0077 0.330967 41.7007 -2.30225 29.1089 2.15269C21.6237 4.80247 13.5064 8.97588 7.66791 14.4079C0.73161 20.8668 -0.366221 26.481 0.0828916 28.8327C1.69637 37.1795 13.2569 42.6115 17.8811 46.6359C17.6482 46.7684 17.432 46.8843 17.249 46.9837C14.9369 48.1264 6.12096 52.7138 3.9253 57.5662C1.43023 63.0645 4.32451 67.0061 6.2374 67.536C12.1757 69.1756 18.2803 66.2277 21.5571 61.3587C24.834 56.4897 24.4348 50.1634 22.9211 47.2652C22.9045 47.2321 22.8878 47.199 22.8546 47.1658C23.4534 46.8181 24.0688 46.4537 24.6677 46.1059C25.8487 45.4104 27.013 44.7645 28.0111 44.2345C27.4455 45.7747 27.0297 47.613 26.8301 50.2628C26.5805 53.3763 27.8613 57.4172 29.5414 59.007C30.2899 59.7026 31.1715 59.7192 31.737 59.7192C33.6998 59.7192 34.5814 58.0962 35.5628 56.1751C36.7604 53.8234 37.8416 51.0908 37.8416 51.0908C37.8416 51.0908 36.4943 58.4771 40.1537 58.4771C41.4844 58.4771 42.8318 56.7547 43.4306 55.877C43.4306 55.8936 43.4306 55.8936 43.4306 55.8936C43.4306 55.8936 43.4639 55.8439 43.5304 55.7279C43.6635 55.5126 43.7466 55.3802 43.7466 55.3802C43.7466 55.3802 43.7466 55.3636 43.7466 55.347C44.2789 54.4196 45.4766 52.3163 47.2564 48.8219C49.5518 44.3173 51.7641 38.6865 51.7641 38.6865C51.7641 38.6865 51.9637 40.0611 52.6457 42.3465C53.0449 43.688 53.8766 45.1619 54.542 46.5862C54.0097 47.3314 53.677 47.7455 53.677 47.7455C53.677 47.7455 53.677 47.7455 53.6936 47.762C53.2612 48.3251 52.7954 48.9379 52.2798 49.5341C50.4667 51.687 48.3043 54.1546 48.0049 54.8668C47.6556 55.7114 47.7387 56.3241 48.4041 56.821C48.8865 57.1853 49.7514 57.235 50.633 57.1853C52.2631 57.0694 53.4109 56.6719 53.9764 56.4235C54.858 56.1088 55.8893 55.6286 56.8541 54.9164C58.6339 53.6081 59.7151 51.7367 59.6153 49.2691C59.5654 47.9111 59.1163 46.5531 58.5674 45.2779C58.7337 45.046 58.8834 44.8142 59.0497 44.5823C61.8609 40.4917 64.0399 36.0036 64.0399 36.0036C64.0399 36.0036 64.2395 37.3782 64.9215 39.6636C65.2541 40.8229 65.9361 42.0816 66.535 43.3071C63.8902 45.4435 62.2601 47.9277 61.6779 49.5506C60.6299 52.5648 61.445 53.9228 62.992 54.2374C63.6906 54.3865 64.6886 54.0553 65.4205 53.7406C66.352 53.4425 67.4498 52.9291 68.4977 52.1673C70.2776 50.859 71.9908 49.0372 71.891 46.5696C71.8411 45.4435 71.5417 44.3339 71.1259 43.2574C73.3714 42.33 76.2657 41.8166 79.9584 42.2472C87.8761 43.1746 89.4397 48.0933 89.1403 50.1634C88.8409 52.2335 87.1775 53.3597 86.6286 53.7075C86.0797 54.0553 85.8967 54.1712 85.9466 54.4196C86.0131 54.784 86.2793 54.7674 86.745 54.7011C87.3938 54.5852 90.9035 53.0285 91.0532 49.2194C91.3027 44.3504 86.6452 39.0343 78.4115 39.084ZM17.3321 59.5867C14.704 62.4352 11.0446 63.5117 9.46436 62.6008C7.76771 61.6237 8.43306 57.4172 11.66 54.403C13.6228 52.5648 16.1511 50.859 17.8312 49.8156C18.2137 49.5838 18.7793 49.2525 19.4613 48.8385C19.5777 48.7723 19.6442 48.7391 19.6442 48.7391C19.7773 48.6563 19.9104 48.5735 20.0435 48.4907C21.2245 52.7966 20.0934 56.5891 17.3321 59.5867ZM36.461 46.6359C35.5462 48.8551 33.6333 54.5355 32.4689 54.2209C31.4709 53.9559 30.8554 49.65 32.2693 45.3938C32.9846 43.2574 34.4982 40.707 35.3798 39.7133C36.8103 38.1235 38.3905 37.5935 38.7731 38.2394C39.2555 39.084 37.0266 45.2447 36.461 46.6359ZM52.2465 54.1546C51.8639 54.3534 51.498 54.4859 51.3316 54.3865C51.2152 54.3202 51.498 54.0553 51.498 54.0553C51.498 54.0553 53.4774 51.9354 54.2592 50.9749C54.7083 50.4118 55.2406 49.7494 55.8061 49.0041C55.8061 49.0704 55.8061 49.1532 55.8061 49.2194C55.8061 51.7533 53.3443 53.4591 52.2465 54.1546ZM64.4225 51.3889C64.1397 51.1902 64.1896 50.5277 65.1377 48.4576C65.5037 47.6461 66.3686 46.2881 67.849 44.9798C68.0154 45.5097 68.1318 46.0231 68.1152 46.5034C68.0985 49.6997 65.8031 50.8921 64.4225 51.3889Z" fill="white"/>
</g>
<defs>
<clipPath id="clip0">
<rect class="fill" width="91.12" height="68" fill="white"/>
</clipPath>
</defs>
</svg>
