<svg xmlns="http://www.w3.org/2000/svg" width="68" height="68" viewBox="0 0 74 68">
<style type="text/css">
	.st0{fill:#FFFFFF;}
	.st1{opacity:0.25;}
	.st2{fill:#7A7A7A;}
	.st3{fill:#3D3D3D;}
	.st4{fill:#161616;}
	.st5{fill:#AAAAAA;}
</style>
<polygon class="st0 fill" points="74,24.3 74,24.3 74,24.3 57.9,2.2 59,24.3 59,24.3 57.9,2.2 37,0 16.1,2.2 15,24.3 15,24.3 16.1,2.2 
	0,24.3 0,24.3 0,24.3 0,24.3 0,24.3 37,68 74,24.3 74,24.3 "/>
<g class="st1">
	<path d="M15,24.2L37,68L0,24.2H15z"/>
	<path d="M59,24.2L37,68l37-43.7H59z"/>
	<path class="st2" d="M15,24.2h44L37,68L15,24.2z"/>
	<path class="st3" d="M37,0L16.1,2.2l-1.2,22L37,0z"/>
	<path class="st3" d="M37,0l20.9,2.2l1.2,22L37,0z"/>
	<path class="st4" d="M74,24.3l-16.1-22l1.2,22H74z"/>
	<path class="st4" d="M0,24.3l16.1-22l-1.2,22H0z"/>
	<path class="st5" d="M37,0L15,24.3h44L37,0z"/>
</g>
</svg>
