<svg width="74" height="68" viewBox="0 0 74 68" fill="none" xmlns="http://www.w3.org/2000/svg">
<path d="M14.9807 24.2493L37 67.9964L0 24.2493H14.9807Z" fill="#BABABA"/>
<path d="M59.0193 24.2493L37 67.9964L74 24.2493H59.0193Z" fill="#BABABA"/>
<path d="M14.9807 24.2493H59.0194L37 67.9964L14.9807 24.2493Z" fill="#DDDDDD"/>
<path d="M37 0L16.1475 2.23609L14.9807 24.253L37 0Z" fill="#F4F4F4"/>
<path d="M37 0L57.8525 2.23609L59.0193 24.253L37 0Z" fill="#F4F4F4"/>
<path d="M74 24.2529L57.8525 2.23608L59.0194 24.2529H74Z" fill="#DDDDDD"/>
<path d="M0 24.2529L16.1475 2.23608L14.9807 24.2529H0Z" fill="#DDDDDD"/>
<path d="M37 0L14.9807 24.253H59.0194L37 0Z" fill="white"/>
</svg>
