<svg width="68" height="69" viewBox="0 0 68 69" fill="none" xmlns="http://www.w3.org/2000/svg">
<path d="M43.9661 9.95467C43.9661 4.45701 39.5091 0 34.0008 0C28.497 0 24.0385 4.45701 24.0385 9.95467C20.1589 6.06743 13.8488 6.06743 9.9676 9.95467C6.07352 13.8495 6.07352 20.1543 9.9676 24.0461C4.46462 24.0461 0 28.5031 0 34C0 39.4999 4.46538 43.9638 9.9676 43.9638C6.07352 47.851 6.07352 54.1535 9.9676 58.0484C13.8488 61.931 20.1589 61.931 24.0385 58.0484C24.0385 63.5468 28.4963 68.0008 34.0008 68.0008C39.5083 68.0008 43.9661 63.5468 43.9661 58.0484C47.8594 61.931 54.1718 61.931 58.0491 58.0484C61.9295 54.1535 61.9295 47.8472 58.0491 43.9638C63.5384 43.9638 68 39.4992 68 34C68 28.5023 63.5384 24.0461 58.0491 24.0461C61.9295 20.152 61.9295 13.848 58.0491 9.95467C54.1718 6.06743 47.8609 6.06743 43.9661 9.95467Z" fill="black"/>
<path d="M37.8171 13.7734V24.7946L45.6197 16.995C45.6197 15.6166 46.1453 14.2428 47.1913 13.1877C49.3061 11.0797 52.7255 11.0797 54.8167 13.1877C56.9246 15.2918 56.9246 18.7066 54.8167 20.8153C53.7692 21.8613 52.3862 22.3915 51.0017 22.3915L43.2166 30.1873H54.2385C55.2199 29.2136 56.5618 28.6081 58.0505 28.6081C61.0172 28.6081 63.4348 31.0264 63.4348 33.9992C63.4348 36.9706 61.0172 39.3911 58.0505 39.3911C56.5618 39.3911 55.2199 38.7841 54.2385 37.8149H43.2158L50.9972 45.6077C52.3847 45.6077 53.7677 46.1356 54.8121 47.1945C56.9223 49.2933 56.9223 52.7097 54.8121 54.8092C52.7202 56.9195 49.3053 56.9195 47.186 54.8092C46.1423 53.7655 45.6159 52.3811 45.6159 51.0034L37.8148 43.2046V54.2341C38.7816 55.2048 39.4001 56.5574 39.4001 58.0476C39.4001 61.0189 36.9833 63.4311 34.0006 63.4311C31.0193 63.4311 28.6041 61.022 28.6041 58.0476C28.6041 56.5574 29.221 55.2086 30.1871 54.2341V43.2046L22.4012 51.0034C22.4012 52.3818 21.8649 53.7625 20.8159 54.8092C18.7095 56.9179 15.3 56.9179 13.1906 54.8092C11.0796 52.7066 11.0796 49.2918 13.1906 47.193C14.2381 46.1356 15.6355 45.6062 17.0032 45.6062L24.8059 37.8149H13.787C12.8064 38.7856 11.45 39.3911 9.97198 39.3911C6.99228 39.3911 4.57397 36.9721 4.57397 33.9992C4.57397 31.0264 6.99075 28.6081 9.97198 28.6081C11.4478 28.6081 12.8056 29.2136 13.787 30.1873H24.8081L17.0063 22.393C15.6393 22.393 14.2434 21.8628 13.1936 20.8176C11.0826 18.7089 11.0826 15.2948 13.1936 13.19C15.303 11.082 18.7133 11.082 20.8212 13.19C21.8672 14.2443 22.4058 15.6204 22.4058 16.9973L30.1917 24.7961V13.7749C29.2256 12.7959 28.6079 11.4525 28.6079 9.95389C28.6079 6.98103 31.0231 4.56882 34.0059 4.56882C36.9871 4.56882 39.4047 6.97875 39.4047 9.95389C39.4031 11.454 38.7839 12.7952 37.8171 13.7734Z" fill="white"/>
<path d="M0.00732422 34.0046H67.9997V64.433C67.9997 66.9687 66.7319 68.2366 64.1962 68.2366H3.81088C1.27518 68.2366 0.00732422 66.9687 0.00732422 64.433V34.0046Z" fill="black"/>
<path d="M7.12517 37.2079H61.4354C63.6476 37.2079 65.4763 39.0222 65.4763 41.2511V54.8754C44.4928 52.2867 23.6935 48.6947 3.0896 49.0309V41.2511C3.09036 39.0222 4.90846 37.2079 7.12517 37.2079Z" fill="#3F3F3F"/>
<path d="M9.90571 51.4459C8.30593 49.8431 7.31396 47.621 7.31396 45.1677C7.31396 40.265 11.2872 36.2887 16.1884 36.2887C21.092 36.2887 25.0636 40.2634 25.0636 45.1677H19.8665C19.8665 43.1336 18.2172 41.4882 16.1884 41.4882C14.1627 41.4882 12.5081 43.1336 12.5081 45.1677C12.5081 46.1856 12.9257 47.0969 13.5845 47.7694C14.2562 48.4342 15.1828 48.8382 16.1884 48.8382V48.8473C18.647 48.8473 20.863 49.8431 22.459 51.4459C24.0702 53.0518 25.0636 55.2753 25.0636 57.7202C25.0636 62.6299 21.092 66.6053 16.1884 66.6053C11.2879 66.6053 7.31396 62.6329 7.31396 57.7202H12.5081C12.5081 59.7582 14.1627 61.3983 16.1884 61.3983C18.2172 61.3983 19.8665 59.7582 19.8665 57.7202C19.8665 56.7093 19.4519 55.7979 18.7794 55.1285C18.1222 54.4591 17.1956 54.0498 16.1884 54.0498C13.7313 54.0498 11.5161 53.0502 9.90571 51.4459Z" fill="white" stroke="black" stroke-width="0.5035"/>
<path d="M42.8266 36.2905L36.5553 66.6041H31.3445L25.0625 36.2905H30.2703L33.9507 54.0433L37.6287 36.2905H42.8266Z" fill="white" stroke="black" stroke-width="0.5035"/>
<path d="M51.7017 48.8483H60.5891V57.7213C60.5891 62.6294 56.6136 66.6049 51.7123 66.6049C46.8126 66.6049 42.8379 62.6294 42.8379 57.7213V45.1688H42.825C42.825 40.2645 46.8118 36.2867 51.7002 36.2867C56.6136 36.2867 60.5876 40.2614 60.5876 45.1688H55.3775C55.3775 43.1346 53.7404 41.4892 51.7002 41.4892C49.6866 41.4892 48.0335 43.1346 48.0335 45.1688V57.7213C48.0335 59.7562 49.6866 61.4008 51.7002 61.4008C53.7404 61.4008 55.3775 59.7562 55.3775 57.7289V57.7198V54.0478H51.7002L51.7017 48.8483Z" fill="white" stroke="black" stroke-width="0.5035"/>
</svg>
