<svg version="1.1" id="Layer_1" xmlns="http://www.w3.org/2000/svg" xmlns:xlink="http://www.w3.org/1999/xlink" x="0px" y="0px"
	 viewBox="0 0 48 28" width="48" height="28" style="enable-background:new 0 0 48 28;" xml:space="preserve">
<style type="text/css">
	.st0{fill:#FFFFFF;}
</style>
<g>
	<path class="st0" d="M23.5,14.2c0,1.8,0,3.6,0,5.4c0,0.9-0.3,1.4-1.1,1.8c-3.1,1.7-6.2,3.6-9.3,5.3c-0.9,0.5-1.6,0.5-2.5,0
		c-3-1.7-5.9-3.5-9.1-5.2c-1-0.5-1.4-1.3-1.4-2.4c0-3.4,0-6.7,0-9.9c0-1.1,0.3-1.8,1.3-2.4c3.2-1.7,6.4-3.6,9.5-5.4
		c0.6-0.3,1.1-0.3,1.7,0c3.2,1.9,6.6,3.8,9.8,5.7c0.6,0.3,0.8,0.9,0.8,1.5C23.5,10.5,23.5,12.3,23.5,14.2z M6,13L6,13
		c0,1-0.1,1.9,0,2.8c0.2,1.8,1.6,2.8,3.9,2.7c2.1-0.1,3.4-1.3,3.2-3c-0.1-1.6-0.1-3.2-0.1-4.9c0-0.5,0-1.1-0.8-1.1s-0.9,0.5-0.9,1.1
		c0,1.4,0,2.8,0,4.1c0,1.5-0.8,2.3-2.1,2.2c-1.2,0-1.7-0.6-1.7-2.3c0-1.4,0-2.8,0-4.3c0-0.4-0.1-0.9-0.8-0.9S6,9.8,6,10.3
		C6,11.3,6,12.1,6,13z M17.1,14c0-1.2,0-2.4,0-3.6c0-0.4-0.2-0.9-0.8-0.8c-0.4,0-0.6,0.4-0.6,0.8c0,2.3,0,4.6,0,6.9
		c0,0.4,0.1,0.9,0.6,0.9c0.5,0,0.8-0.4,0.8-0.9C17.1,16.2,17.1,15,17.1,14z"/>
	<path class="st0" d="M47.9,14.2c0,1.7,0,3.5,0,5.1c0,1-0.3,1.6-1.2,2.1c-3.2,1.8-6.5,3.7-9.6,5.5c-0.6,0.4-1.2,0.2-1.8-0.1
		c-3.2-1.8-6.4-3.7-9.6-5.5c-0.6-0.3-0.9-0.8-0.9-1.5c0-3.8,0-7.5,0-11.2c0-0.8,0.3-1.2,1-1.6c3.1-1.8,6.4-3.7,9.5-5.5
		c0.8-0.4,1.3-0.4,2.1,0c3,1.8,6.2,3.6,9.3,5.3C47.6,7.2,48,7.9,48,9C47.9,10.9,47.9,12.6,47.9,14.2z M32.1,18.5
		c2.3,0,3.8-1.1,3.7-3c-0.1-1.6-0.1-3.2-0.1-4.9c0-0.5,0-1.1-0.8-1.1c-0.9,0-0.9,0.6-0.9,1.2c0,1.4,0,2.7,0,4.1s-0.8,2.1-1.9,2.1
		c-1.4,0-1.8-0.9-1.8-2.1c0-1.4,0-2.8,0-4.2c0-0.5,0-1.1-0.8-1.1s-0.9,0.5-0.9,1.1c0,1.5,0,3,0,4.5C28.6,17.4,29.8,18.5,32.1,18.5z
		 M43.1,18.3c0.1,0,0.4,0,0.6-0.1c0.2-0.2,0-0.5-0.2-0.8c-2.1-2.3-2.6-4.5-0.2-7c0.6-0.6,0.1-0.9-0.5-0.9c-1.1,0-1.3,1-1.7,1.6
		c-0.5,0.8-1,0.9-1.4,0c-0.2-0.4-0.5-0.9-0.9-1.3c-0.4-0.4-1-0.5-1.4-0.2c-0.4,0.3,0.1,0.8,0.3,1.1c0.3,0.6,0.8,1.3,1.2,1.9
		c0.5,0.8,0.5,1.4,0,2.2s-1.1,1.7-1.6,2.5c-0.1,0.2-0.4,0.5-0.1,0.8c0.2,0.1,0.5,0.1,0.8,0.1c0.9,0,1.1-0.8,1.4-1.3
		c1.1-1.7,1.1-1.7,2.3,0C41.7,17.5,42.1,18.3,43.1,18.3z"/>
</g>
</svg>
